<svg xmlns="http://www.w3.org/2000/svg" width="553.371" height="180" viewBox="0 0 553.371 180">
    <defs>
        <style>
            .cls-1{fill:#19b9c3}
        </style>
    </defs>
    <g id="seasalt.ai" transform="translate(-688 -4273.999)">
        <path id="Path_31817" d="M664.526 105.434a4.784 4.784 0 0 1-4.826 4.827 4.566 4.566 0 0 1-3.412-1.4 4.84 4.84 0 1 1 8.239-3.426zm-460.795 3.586h53.159a11.479 11.479 0 0 0 4.371-.831 10.5 10.5 0 0 0 3.519-2.326 11.6 11.6 0 0 0 2.38-3.493 10.669 10.669 0 0 0 .865-4.31 11 11 0 0 0-.871-4.357 11.02 11.02 0 0 0-5.9-5.9 10.912 10.912 0 0 0-4.364-.871h-48.507a3.843 3.843 0 0 1-2.755-1.14 3.756 3.756 0 0 1 .013-5.517 3.953 3.953 0 0 1 2.742-1.086H261.8a3.593 3.593 0 1 0 0-7.186h-53.243a10.628 10.628 0 0 0-4.31.871 11.149 11.149 0 0 0-3.493 2.373 11.382 11.382 0 0 0-2.373 3.493 11.1 11.1 0 0 0 0 8.621 11.261 11.261 0 0 0 5.866 5.866 10.72 10.72 0 0 0 4.31.871h48.688a3.725 3.725 0 0 1 2.722 1.146 3.839 3.839 0 0 1 1.153 2.809 3.6 3.6 0 0 1-1.16 2.688 3.833 3.833 0 0 1-2.715 1.093h-53.507a3.571 3.571 0 0 0-3.593 3.593 3.582 3.582 0 0 0 3.586 3.593zm133.863-35.957a3.455 3.455 0 0 0-2.547-1.046h-62.2a3.6 3.6 0 1 0 0 7.193h62.2a3.607 3.607 0 0 0 2.547-6.147zM272.5 106.051a10.368 10.368 0 0 0 3.231 2.192 9.009 9.009 0 0 0 3.613.784h55.706a3.6 3.6 0 1 0 0-7.193h-55.261a3.5 3.5 0 0 1-2.386-.811 2.6 2.6 0 0 1-.959-2v-4.918h56.672a3.593 3.593 0 0 0 3.593-3.6 3.582 3.582 0 0 0-3.6-3.593h-58.857a8.239 8.239 0 0 0-3.942.711c-.711.416-1.052 1.274-1.052 2.621v7.9a10.637 10.637 0 0 0 .912 4.471 11.612 11.612 0 0 0 2.33 3.436zM379.022 74.31a9.8 9.8 0 0 0-3.627-2.976 10.968 10.968 0 0 0-9.713.127 10.555 10.555 0 0 0-3.727 3.11l-21.317 28.684a3.076 3.076 0 0 0-.758 2.179 3.564 3.564 0 0 0 6.355 2.252l20.6-27.357a11.9 11.9 0 0 1 1.535-1.622 3.154 3.154 0 0 1 4.605 0 20.571 20.571 0 0 1 1.582 1.589l20.473 27.317a3.3 3.3 0 0 0 2.835 1.421 3.571 3.571 0 0 0 3.593-3.593 3.182 3.182 0 0 0-.3-1.361 5.458 5.458 0 0 0-.784-1.227zm29.884 34.711h53.159a11.445 11.445 0 0 0 4.364-.831 10.5 10.5 0 0 0 3.526-2.326 11.587 11.587 0 0 0 2.373-3.493 10.676 10.676 0 0 0 .871-4.31 10.973 10.973 0 0 0-.871-4.357 11.46 11.46 0 0 0-2.366-3.539 11.2 11.2 0 0 0-3.533-2.366 10.9 10.9 0 0 0-4.357-.871h-48.52a3.854 3.854 0 0 1-2.755-1.14 3.763 3.763 0 0 1 .013-5.51 3.965 3.965 0 0 1 2.742-1.086h53.421a3.6 3.6 0 1 0 0-7.193h-53.247a10.6 10.6 0 0 0-4.3.871 11.148 11.148 0 0 0-3.493 2.373 11.434 11.434 0 0 0-2.373 3.486 11.1 11.1 0 0 0 0 8.621 11.119 11.119 0 0 0 2.373 3.486 11.47 11.47 0 0 0 3.5 2.38 10.735 10.735 0 0 0 4.3.871h48.688a3.752 3.752 0 0 1 2.722 1.146 3.84 3.84 0 0 1 1.157 2.807 3.6 3.6 0 0 1-1.16 2.688 3.829 3.829 0 0 1-2.708 1.093H408.92a3.6 3.6 0 0 0-2.547 6.14 3.357 3.357 0 0 0 2.533 1.06zM513.589 74.31a9.786 9.786 0 0 0-3.627-2.976 10.982 10.982 0 0 0-9.72.127 10.613 10.613 0 0 0-3.727 3.11L475.2 103.256a3.077 3.077 0 0 0-.758 2.179 3.582 3.582 0 0 0 3.593 3.6 3.469 3.469 0 0 0 2.768-1.347l20.6-27.35a11.7 11.7 0 0 1 1.529-1.622 3.161 3.161 0 0 1 4.612 0 20.582 20.582 0 0 1 1.582 1.589L529.6 107.62a3.313 3.313 0 0 0 2.842 1.421 3.571 3.571 0 0 0 3.593-3.593 3.279 3.279 0 0 0-.288-1.361 5.263 5.263 0 0 0-.791-1.227zm87.428 34.711a3.593 3.593 0 1 0 0-7.186h-52.63a3.866 3.866 0 0 1-2.755-1.14 3.647 3.647 0 0 1-1.2-2.728V75.61a3.361 3.361 0 0 0-1.079-2.534 3.5 3.5 0 0 0-2.514-1.059 3.582 3.582 0 0 0-3.6 3.593v22.37a10.358 10.358 0 0 0 .905 4.3 11.439 11.439 0 0 0 2.46 3.493 11.574 11.574 0 0 0 3.62 2.373 11.254 11.254 0 0 0 4.4.878H601v-.007zm25.085-1.046a3.59 3.59 0 0 0 6.14-2.541V79.2h26.586a3.6 3.6 0 1 0 0-7.193h-60.352a3.582 3.582 0 0 0-3.6 3.593 3.332 3.332 0 0 0 .972 2.427 3.752 3.752 0 0 0 2.346 1.18l26.251-.007h.617v26.231a3.358 3.358 0 0 0 1.038 2.544zm93.93-33.665a9.8 9.8 0 0 0-3.626-2.976 11 11 0 0 0-9.72.127 10.674 10.674 0 0 0-3.727 3.11l-21.319 28.685a3.077 3.077 0 0 0-.757 2.179 3.582 3.582 0 0 0 3.593 3.6 3.469 3.469 0 0 0 2.769-1.347l20.6-27.35a11.776 11.776 0 0 1 1.528-1.622 3.146 3.146 0 0 1 4.6 0 19.635 19.635 0 0 1 1.587 1.584l20.473 27.317a3.3 3.3 0 0 0 2.836 1.421 3.571 3.571 0 0 0 3.593-3.593 3.258 3.258 0 0 0-.288-1.361 5.247 5.247 0 0 0-.791-1.227zm30.85 1.294a3.6 3.6 0 1 0-7.193 0v29.831a3.607 3.607 0 0 0 6.147 2.554 3.434 3.434 0 0 0 1.046-2.547z" class="cls-1" transform="translate(490.49 4343.738)"/>
        <path id="Path_31818" d="M82.677 19.245L53.1 2.111a15.645 15.645 0 0 0-15.678 0L7.842 19.245A15.732 15.732 0 0 0 0 32.868v34.269A15.738 15.738 0 0 0 7.837 80.76L37.415 97.9a15.645 15.645 0 0 0 15.678 0l29.579-17.14a15.738 15.738 0 0 0 7.837-13.623V32.868a15.722 15.722 0 0 0-7.832-13.623zm-29.524.624l3.347-1.943a3.406 3.406 0 0 1 3.4 5.9l-3.351 1.943a3.406 3.406 0 0 1-3.4-5.9zM30.619 32.918l12.94-7.5a3.406 3.406 0 0 1 3.4 5.9l-12.94 7.5a3.406 3.406 0 0 1-3.4-5.9zm0 20.976L56.5 38.9a3.406 3.406 0 0 1 3.4 5.9l-25.885 15a3.406 3.406 0 0 1-3.4-5.9zm6.746 26.246l-3.351 1.943a3.406 3.406 0 0 1-3.4-5.9l3.351-1.943a3.406 3.406 0 0 1 3.4 5.9zm22.529-13.048l-12.94 7.493a3.406 3.406 0 0 1-3.4-5.9l12.94-7.5a3.408 3.408 0 0 1 3.4 5.91z" class="cls-1" transform="translate(919.431 4273.994)"/>
    </g>
</svg>
