<svg data-name="Layer 4" xmlns="http://www.w3.org/2000/svg" xmlns:xlink="http://www.w3.org/1999/xlink" width="448.268" height="50.005" viewBox="0 0 448.268 50.005">
    <defs>
        <linearGradient id="22r2waux8a" x1="1.853" y1="1.723" x2=".08" y2=".131" gradientUnits="objectBoundingBox">
            <stop offset="0" stop-color="#00ffc0"/>
            <stop offset=".04" stop-color="#00fbc0"/>
            <stop offset=".45" stop-color="#00d8c2"/>
            <stop offset=".78" stop-color="#00c3c4"/>
            <stop offset="1" stop-color="#00bbc4"/>
        </linearGradient>
        <linearGradient id="jxe3vz2sfb" x1=".944" y1=".881" x2="-1.406" y2="-1.206" xlink:href="#22r2waux8a"/>
    </defs>
    <path data-name="Path 43600" d="M1249.516 174.536a3.355 3.355 0 0 1 3.355 3.355v30.142a4.553 4.553 0 0 1-4.551 4.553 4.553 4.553 0 0 1-4.045-2.459l-10.516-20.327a.513.513 0 0 0-.969.236v19.162a3.355 3.355 0 0 1-3.355 3.354 3.354 3.354 0 0 1-3.355-3.355v-30.143a4.554 4.554 0 0 1 4.553-4.554 4.554 4.554 0 0 1 4.044 2.461l10.513 20.331a.515.515 0 0 0 .972-.236V177.89a3.354 3.354 0 0 1 3.354-3.354z" transform="translate(-1226.08 -174.5)" style="fill:#fff"/>
    <path data-name="Path 43601" d="M1814.141 365.978h-14.178a.515.515 0 0 0-.472.727 7.309 7.309 0 0 0 3.21 3.567c1.995 1.052 5.547 1 8.4.322a3.352 3.352 0 0 1 3.8 1.79 3.35 3.35 0 0 1-2.238 4.722 25.088 25.088 0 0 1-5.757.693 15.8 15.8 0 0 1-7.314-1.577 14.5 14.5 0 0 1-7.493-12.4 14.782 14.782 0 0 1 4.093-10.714 12.635 12.635 0 0 1 9.1-3.914c.38 0 .76.022 1.129.057 6.207.572 11.072 6.442 11.072 13.376a3.355 3.355 0 0 1-3.352 3.351zm-4.966-6.71a.515.515 0 0 0 .433-.795 5.218 5.218 0 0 0-3.8-2.549 6 6 0 0 0-4.82 1.868 7.837 7.837 0 0 0-.549.644.515.515 0 0 0 .41.832z" transform="translate(-1759.727 -339.201)" style="fill:#fff"/>
    <path data-name="Path 43602" d="M2914.562 349.24a1.578 1.578 0 0 1 1.55 1.816l-.609 4.086a.953.953 0 0 1-.95.808h-.008a5.511 5.511 0 0 0-5.505 5.506v12.487a3.354 3.354 0 0 1-3.354 3.354 3.354 3.354 0 0 1-3.355-3.355v-23.377a1.11 1.11 0 0 1 1.11-1.109h4.49a1.11 1.11 0 0 1 1.109 1.109 12.125 12.125 0 0 1 5.505-1.325z" transform="translate(-2806.477 -339.248)" style="fill:#fff"/>
    <path data-name="Path 43603" d="M3262.725 174.509a4.5 4.5 0 0 0-4.46 2.833l-7.911 19.918a.515.515 0 0 1-.955 0l-7.912-19.919a4.5 4.5 0 0 0-4.185-2.841 4.5 4.5 0 0 0-4.5 4.5v30.142a3.355 3.355 0 1 0 6.71.05v-15.968a.514.514 0 0 1 .991-.189l6.133 15.446a3.488 3.488 0 0 0 3.545 2.187 3.53 3.53 0 0 0 2.955-2.234l6.119-15.4a.514.514 0 0 1 .991.19v15.92a3.355 3.355 0 0 0 5.712 2.439 3.354 3.354 0 0 0 1-2.388v-30.133a4.545 4.545 0 0 0-4.233-4.553z" transform="translate(-3118.05 -174.5)" style="fill:url(#22r2waux8a)"/>
    <path data-name="Path 43604" d="M3934.917 365.978h14.173a3.374 3.374 0 0 0 3.361-3.382c-.012-6.919-4.873-12.779-11.073-13.349a12.678 12.678 0 0 0-1.129-.057 12.639 12.639 0 0 0-9.1 3.914 14.792 14.792 0 0 0-4.093 10.714 14.5 14.5 0 0 0 7.491 12.4 15.765 15.765 0 0 0 7.313 1.577 25.109 25.109 0 0 0 5.76-.693 3.351 3.351 0 0 0 2.236-4.722 3.338 3.338 0 0 0-3.779-1.794c-2.859.686-6.422.737-8.421-.317a7.32 7.32 0 0 1-3.21-3.567.515.515 0 0 1 .474-.726zm.477-7.542a7.933 7.933 0 0 1 .55-.644 6 6 0 0 1 4.821-1.868 5.216 5.216 0 0 1 3.8 2.549.515.515 0 0 1-.434.795h-8.331a.515.515 0 0 1-.411-.832z" transform="translate(-3772.597 -339.201)" style="fill:url(#jxe3vz2sfb)"/>
    <path data-name="Path 43605" d="M2337.386 372.476a3.567 3.567 0 0 1 .162-2.819 14.218 14.218 0 1 0-6.458 6.334 3.6 3.6 0 0 1 2.567-.239l4.563 1.307a.474.474 0 0 0 .576-.614zm-20.059-6.552a2.116 2.116 0 1 1 1.974-1.974 2.116 2.116 0 0 1-1.974 1.974zm7.682 0a2.116 2.116 0 1 1 1.973-1.975 2.116 2.116 0 0 1-1.973 1.975zm7.682 0a2.116 2.116 0 1 1 1.973-1.975 2.116 2.116 0 0 1-1.973 1.975z" transform="translate(-2248.619 -338.975)" style="fill:#fff"/>
    <path data-name="Path 43606" d="M4639.3 174.5a4.486 4.486 0 0 1 4.486 4.489v30.069a3.342 3.342 0 0 1-3.342 3.342 3.342 3.342 0 0 1-3.342-3.342V193.15a.511.511 0 0 0-.987-.189l-6.11 15.386a3.475 3.475 0 0 1-3.229 2.191 3.473 3.473 0 0 1-3.229-2.192l-6.11-15.385a.511.511 0 0 0-.987.189v15.908a3.342 3.342 0 0 1-3.342 3.342 3.343 3.343 0 0 1-3.342-3.341v-30.074a4.486 4.486 0 0 1 4.486-4.485 4.486 4.486 0 0 1 4.168 2.829l7.881 19.843a.511.511 0 0 0 .95 0l7.879-19.843a4.485 4.485 0 0 1 4.17-2.829z" transform="translate(-4416.28 -174.5)" style="fill:#fff"/>
    <path data-name="Path 43607" d="M5325.149 365.3h-13.56a.867.867 0 0 0-.767 1.272 7.132 7.132 0 0 0 2.931 3c1.986 1.048 5.522 1 8.367.322a3.343 3.343 0 0 1 3.788 1.785 3.336 3.336 0 0 1-2.227 4.7 25 25 0 0 1-5.739.691 15.736 15.736 0 0 1-7.285-1.571 14.432 14.432 0 0 1-7.463-12.352 14.732 14.732 0 0 1 4.077-10.672 12.593 12.593 0 0 1 9.067-3.9c.378 0 .757.022 1.125.057 6.183.568 11.028 6.417 11.028 13.324a3.342 3.342 0 0 1-3.342 3.344zm-5.639-6.684a.868.868 0 0 0 .668-1.42 4.957 4.957 0 0 0-3.328-1.911 5.987 5.987 0 0 0-4.8 1.86l-.013.014a.866.866 0 0 0 .636 1.457z" transform="translate(-5070.045 -338.626)" style="fill:#fff"/>
    <path data-name="Path 43608" d="M5849.6 360.281a11.376 11.376 0 0 1-8.228 3.046 18.153 18.153 0 0 1-5.86-1.022 3.309 3.309 0 0 1-1.776-4.786l.021-.037a3.305 3.305 0 0 1 3.946-1.475c3.392 1.194 6.146.587 7.14-.421a2.7 2.7 0 0 0 .732-2.5c-.383-.99-1.6-1.408-4.088-2.067a20.442 20.442 0 0 1-4.163-1.434 8.347 8.347 0 0 1-4.646-8.584 8.73 8.73 0 0 1 7.078-7.361 22.16 22.16 0 0 1 7.73-.054 3.314 3.314 0 0 1 2.735 4.07l-.015.057a3.316 3.316 0 0 1-3.716 2.479 15.557 15.557 0 0 0-5.394 0 2.091 2.091 0 0 0-1.792 1.713 1.63 1.63 0 0 0 1.063 1.733 15.669 15.669 0 0 0 2.831.923c2.937.777 6.96 1.841 8.614 6.119a9.256 9.256 0 0 1-2.212 9.601z" transform="translate(-5569.187 -324.195)" style="fill:#fff"/>
    <path data-name="Path 43609" d="M6280.037 360.281a11.384 11.384 0 0 1-8.229 3.046 18.151 18.151 0 0 1-5.86-1.022 3.309 3.309 0 0 1-1.776-4.786l.021-.037a3.3 3.3 0 0 1 3.946-1.475c3.394 1.194 6.147.587 7.142-.421a2.7 2.7 0 0 0 .731-2.5c-.383-.99-1.6-1.408-4.087-2.067a20.456 20.456 0 0 1-4.164-1.434 8.35 8.35 0 0 1-4.645-8.584 8.731 8.731 0 0 1 7.078-7.361 22.16 22.16 0 0 1 7.73-.054 3.314 3.314 0 0 1 2.735 4.07l-.014.057a3.316 3.316 0 0 1-3.717 2.479 15.551 15.551 0 0 0-5.393 0 2.091 2.091 0 0 0-1.792 1.713 1.631 1.631 0 0 0 1.064 1.733 15.67 15.67 0 0 0 2.83.923c2.938.777 6.961 1.841 8.614 6.119a9.259 9.259 0 0 1-2.214 9.601z" transform="translate(-5975.01 -324.195)" style="fill:#fff"/>
    <path data-name="Path 43610" d="M6709.649 350.042v25.125a1.3 1.3 0 0 1-1.3 1.3h-4.092a1.3 1.3 0 0 1-1.3-1.3 12.556 12.556 0 0 1-5.225 1.638c-.379.034-.78.045-1.158.045a14.17 14.17 0 1 1 6.387-26.813 1.314 1.314 0 0 1 1.314-1.315h4.051a1.314 1.314 0 0 1 1.315 1.318zm-6.69 10.111a3.825 3.825 0 0 0-.947-2.606 7.485 7.485 0 0 0-12.924 5.358 7.618 7.618 0 0 0 7.486 7.262 5.527 5.527 0 0 0 .612-.022 6.534 6.534 0 0 0 5.77-6.639z" transform="translate(-6370.391 -338.56)" style="fill:#fff"/>
    <path data-name="Path 43611" d="M7280.123 360.2V372.579a16.03 16.03 0 0 1-22.325 14.746 3.333 3.333 0 0 1-1.292-5.133 3.348 3.348 0 0 1 3.941-.994 9.362 9.362 0 0 0 12.027-4.5.511.511 0 0 0-.646-.7 12.505 12.505 0 0 1-3.621.858c-.379.034-.78.045-1.158.045a14.168 14.168 0 1 1 5.673-27.143.51.51 0 0 0 .715-.468.515.515 0 0 1 .512-.512h5.66a.515.515 0 0 1 .511.512v10.81c-.001.036.002.07.003.1zm-6.69-.053a3.833 3.833 0 0 0-.953-2.553 7.485 7.485 0 0 0-12.924 5.358 7.619 7.619 0 0 0 7.485 7.262 5.415 5.415 0 0 0 .612-.022 6.533 6.533 0 0 0 5.775-6.588z" transform="translate(-6908.237 -338.611)" style="fill:#fff"/>
    <path data-name="Path 43612" d="M7837.491 178.844a3.733 3.733 0 1 1 3.732 3.732 3.733 3.733 0 0 1-3.732-3.732zm.391 30.791v-21.054a3.343 3.343 0 0 1 3.343-3.342 3.342 3.342 0 0 1 3.341 3.341v21.054a3.342 3.342 0 0 1-3.341 3.342 3.343 3.343 0 0 1-3.344-3.342z" transform="translate(-7459.429 -175.075)" style="fill:#fff"/>
    <path data-name="Path 43613" d="M8101.154 360.718v12.438a3.342 3.342 0 0 1-3.342 3.342 3.343 3.343 0 0 1-3.342-3.342v-12.372a5.484 5.484 0 1 0-10.967-.066v12.437a3.342 3.342 0 0 1-3.341 3.342 3.342 3.342 0 0 1-3.342-3.342v-23.283a1.106 1.106 0 0 1 1.106-1.107h4.471a1.106 1.106 0 0 1 1.106 1.107 12.143 12.143 0 0 1 17.651 10.846z" transform="translate(-7685.072 -338.597)" style="fill:#fff"/>
    <path data-name="Path 43614" d="M8615.853 360.2V372.579a16.03 16.03 0 0 1-22.325 14.746 3.333 3.333 0 0 1-1.292-5.133 3.349 3.349 0 0 1 3.942-.994 9.361 9.361 0 0 0 12.528-5.73 12.452 12.452 0 0 1-4.769 1.388c-.379.034-.778.045-1.158.045a14.168 14.168 0 1 1 6.39-26.8 1.319 1.319 0 0 1 1.317-1.319h4.047a1.319 1.319 0 0 1 1.319 1.319v9.999c-.004.029 0 .062.001.1zm-6.691-.053a3.833 3.833 0 0 0-.952-2.553 7.485 7.485 0 0 0-12.924 5.358 7.618 7.618 0 0 0 7.485 7.262 5.442 5.442 0 0 0 .613-.022 6.533 6.533 0 0 0 5.775-6.588z" transform="translate(-8167.584 -338.604)" style="fill:#fff"/>
</svg>
