<svg xmlns="http://www.w3.org/2000/svg" width="478.731" height="470" viewBox="0 0 478.731 470">
    <defs>
        <style>
            .cls-1{fill:#fff}.cls-2,.cls-3{fill:none;stroke:#f7ba51;stroke-linecap:round;stroke-linejoin:round}.cls-3{stroke-width:.5px}.cls-5{fill:#f6e8f3}.cls-6{fill:#e4f3f6}.cls-7{fill:#d1d0d1}.cls-9{fill:#edd311}.cls-10{fill:#ecb239}.cls-11{fill:#fcfae2}.cls-12{fill:#f49c63}.cls-13{fill:#6b8cc6}.cls-14{fill:#2a3a67}.cls-15{fill:#0c478d}.cls-17{fill:#f6aa78}.cls-18{fill:#f28f38}.cls-20{fill:#1859a6}.cls-23{fill:#f4a493}.cls-24{fill:#f4a392}.cls-25{fill:#133759}.cls-29{fill:#89afdd}.cls-30{fill:#0f2e35}.cls-32{fill:#7eb6dc}.cls-34{fill:#5b7abc}.cls-35{fill:#f8f7f7}.cls-41{fill:#6794ac}.cls-44{fill:#fddcbb}
        </style>
    </defs>
    <g id="image" transform="translate(-0.831 -17.474)">
        <path id="Path_1235" d="M118.585 478.47a1.733 1.733 0 0 0 0 3.462 1.733 1.733 0 0 0 0-3.462z" class="cls-1" transform="translate(-35.708 -142.404)"/>
        <path id="Path_1236" d="M77.444 90.89a1.733 1.733 0 0 0 0 3.462 1.733 1.733 0 0 0 0-3.462z" class="cls-1" transform="translate(-23.054 -22.58)"/>
        <path id="Path_1237" d="M232.914 48.79a1.733 1.733 0 0 0 0 3.462 1.733 1.733 0 0 0 0-3.462z" class="cls-1" transform="translate(-71.18 -9.632)"/>
        <path id="Path_1238" d="M28.165 679a1.715 1.715 0 0 0 0 3.428 1.715 1.715 0 0 0 0-3.428z" class="cls-1" transform="translate(-7.898 -204.367)"/>
        <path id="Path_1239" d="M166.143 687.64a1.733 1.733 0 0 0 0 3.462 1.733 1.733 0 0 0 0-3.462z" class="cls-1" transform="translate(-50.553 -207.024)"/>
        <path id="Path_1240" d="M247.155 573.69a1.733 1.733 0 0 0 0 3.462 1.733 1.733 0 0 0 0-3.462z" class="cls-1" transform="translate(-75.58 -171.977)"/>
        <path id="Path_1241" d="M22.226 497.369a8.8 8.8 0 0 0-6.232-6.232c-.949-.284-.949-.519 0-.8a8.8 8.8 0 0 0 6.232-6.232c.284-.956.519-.956.8 0a8.829 8.829 0 0 0 6.232 6.232c.956.284.956.519 0 .8a8.829 8.829 0 0 0-6.232 6.232c-.281.983-.516.983-.8 0z" class="cls-1" transform="translate(-4.445 -143.938)"/>
        <path id="Path_1242" d="M32.9 28a4.549 4.549 0 0 0-3.2-3.2c-.485-.145-.485-.263 0-.409a4.549 4.549 0 0 0 3.2-3.2c.145-.485.263-.485.409 0a4.549 4.549 0 0 0 3.2 3.22c.492.145.492.263 0 .409a4.549 4.549 0 0 0-3.2 3.2c-.148.467-.266.467-.409-.02z" class="cls-1" transform="translate(-8.767 -1.031)"/>
        <path id="Path_1243" d="M210 466.44a4.529 4.529 0 0 0-3.164-3.206c-.485-.145-.485-.27 0-.415a4.542 4.542 0 0 0 3.2-3.192c.145-.492.263-.492.409 0a4.542 4.542 0 0 0 3.2 3.192c.492.145.492.27 0 .415a4.528 4.528 0 0 0-3.2 3.192c-.145.505-.297.505-.445.014z" class="cls-1" transform="translate(-63.527 -136.474)"/>
        <path id="Path_1244" d="M686.794 322.6a1.715 1.715 0 0 0 0 3.428 1.715 1.715 0 0 0 0-3.428z" class="cls-1" transform="translate(-211.39 -94.255)"/>
        <path id="Path_1245" d="M682.613 508.7a1.715 1.715 0 0 0 0 3.428 1.715 1.715 0 0 0 0-3.428z" class="cls-1" transform="translate(-210.103 -151.742)"/>
        <path id="Path_1246" d="M656.856 72.539a8.8 8.8 0 0 0-6.232-6.232c-.949-.284-.949-.519 0-.8a8.8 8.8 0 0 0 6.232-6.232c.284-.956.519-.956.8 0a8.829 8.829 0 0 0 6.232 6.232c.956.284.956.519 0 .8a8.829 8.829 0 0 0-6.232 6.232c-.281.955-.516.955-.8 0z" class="cls-1" transform="translate(-200.556 -12.635)"/>
        <path id="Path_1247" d="M622.305 306.366a4.528 4.528 0 0 0-3.2-3.192c-.492-.145-.492-.27 0-.415a4.542 4.542 0 0 0 3.2-3.192c.145-.492.263-.492.409 0a4.542 4.542 0 0 0 3.2 3.192c.485.145.485.27 0 .415a4.528 4.528 0 0 0-3.2 3.192c-.146.492-.263.492-.409 0z" class="cls-1" transform="translate(-190.968 -87.029)"/>
        <path id="Path_1248" d="M520.614 535.41a1.733 1.733 0 0 0 0 3.462 1.733 1.733 0 0 0 0-3.462z" class="cls-1" transform="translate(-160.052 -159.993)"/>
        <path id="Path_1249" d="M448.794 575.51a1.733 1.733 0 0 0 0 3.462 1.733 1.733 0 0 0 0-3.462z" class="cls-1" transform="translate(-137.866 -172.537)"/>
        <path id="Path_1250" d="M434.263 30.85a1.733 1.733 0 0 0 0 3.462 1.733 1.733 0 0 0 0-3.462z" class="cls-1" transform="translate(-133.377 -4.114)"/>
        <path id="Path_1251" d="M331.354 558.54a1.733 1.733 0 0 0 0 3.462 1.733 1.733 0 0 0 0-3.462z" class="cls-1" transform="translate(-101.588 -167.138)"/>
        <path id="Path_1252" d="M563.334 141.67a1.733 1.733 0 0 0 0 3.462 1.733 1.733 0 0 0 0-3.462z" class="cls-1" transform="translate(-173.418 -38.198)"/>
        <path id="Path_1253" d="M147.1 50.323a4.549 4.549 0 0 0-3.2-3.2c-.492-.145-.492-.263 0-.409a4.549 4.549 0 0 0 3.2-3.2c.145-.492.263-.492.409 0a4.549 4.549 0 0 0 3.2 3.2c.485.145.485.263 0 .409a4.549 4.549 0 0 0-3.2 3.2c-.151.485-.268.485-.409 0z" class="cls-1" transform="translate(-44.081 -7.896)"/>
        <path id="Path_1254" d="M27.418 224.756a4.522 4.522 0 0 0-3.192-3.192c-.492-.145-.492-.27 0-.415a4.508 4.508 0 0 0 3.192-3.192c.145-.492.27-.492.415 0a4.522 4.522 0 0 0 3.192 3.192c.492.145.492.27 0 .415a4.528 4.528 0 0 0-3.192 3.192c-.124.492-.248.492-.415 0z" class="cls-1" transform="translate(-7.082 -61.818)"/>
        <path id="Path_1255" d="M120.669 22.965L93.92 36.869a.694.694 0 0 1-.637-1.233L120.669 22.9a.048.048 0 0 1 .055 0 .044.044 0 0 1-.055.069z" class="cls-1" transform="translate(-28.32 -1.665)"/>
        <path id="Path_1256" d="M36.538 409.086L9.761 422.99a.692.692 0 1 1-.637-1.226L36.5 409a.048.048 0 0 1 .055 0 .046.046 0 0 1-.021.09z" class="cls-1" transform="translate(-2.422 -120.953)"/>
        <path id="Path_1257" d="M660.348 112.834l-33.389 17.311a.866.866 0 0 1-.8-1.537l34.1-15.864a.048.048 0 0 1 .069 0 .055.055 0 0 1 .014.09z" class="cls-1" transform="translate(-193.108 -29.297)"/>
        <path id="Path_1258" d="M581.031 272.335l-39.7 20.988a1.386 1.386 0 0 1-1.295-2.451l.069-.035 40.854-18.64a.076.076 0 0 1 .1.035.083.083 0 0 1-.028.103z" class="cls-1" transform="translate(-166.533 -78.696)"/>
        <path id="Line_134" d="M70.026 0L0 32.565" class="cls-2" transform="translate(402.65 348.961)"/>
        <path id="Line_135" d="M51.123 0L0 23.771" class="cls-3" transform="translate(389.916 378.412)"/>
        <path id="Path_1259" fill="#ecf7fd" d="M289.615 667.1c-81.861-.5-163.584-2.867-245.467-2.922C32.4 664.175 19.857 664 10 659.231c-4.4-2.133-8.176-5.325-8.984-9.175-1.652-7.568 8.017-13.676 16.939-17.539 48.813-21.133 110.093-27.469 165.8-31.09 49.214-3.206 98.676-3.054 148.021-2.23 43.947.734 89.014 5.159 128.241 21.105 16.179 6.578 24.52 18.654 16.4 31.887-7.326 11.945-30.968 11.584-45.737 11.681-25 .166-49.877 1.731-74.867 2.507-22.105.692-44.158.858-66.198.723z" transform="translate(0 -179.667)"/>
        <path id="Path_1260" d="M127.354 161.943C144.395 102.851 173.2 51.5 251.162 51.5c68.371 0 130.393 53.712 125.885 119.909-4.155 60.865-63.413 112.417-135.967 105.174-67.963-6.783-133.232-47.065-113.726-114.64z" class="cls-5" transform="translate(-38.184 -10.465)"/>
        <path id="Path_1261" d="M211.572 353.672C233 303.124 269.238 259.21 367.321 259.21c86.021 0 164.038 45.957 158.367 102.591-5.214 52.071-79.776 96.186-171.032 90.017-85.501-5.837-167.631-40.293-143.084-98.146z" class="cls-6" transform="translate(-64.382 -74.895)"/>
        <path id="Path_1262" d="M80.973 363.545C97.591 318.73 125.746 279.76 201.9 279.76c66.778 0 127.353 40.764 122.949 91.007-4.044 46.185-61.931 85.315-132.8 79.817-66.366-5.166-130.111-35.723-111.076-87.039z" class="cls-6" transform="translate(-23.598 -81.218)"/>
        <path id="Path_1263" d="M116.732 21.938c58.469-9.985 114.252-7.617 141.8 54.01 24.152 54.01-1.648 124.375-62.035 147.094-55.519 20.891-122.249-5.477-141.444-65.691-17.979-56.42-5.273-123.988 61.679-135.413z" class="cls-5" transform="translate(-14.404)"/>
        <path id="Path_1264" d="M574 488.705a4.55 4.55 0 0 0-3.2-3.2c-.485-.145-.485-.263 0-.408a4.55 4.55 0 0 0 3.2-3.2c.145-.485.263-.485.408 0a4.549 4.549 0 0 0 3.2 3.2c.492.145.492.263 0 .409a4.549 4.549 0 0 0-3.2 3.2c-.12.494-.265.494-.408-.001z" class="cls-1" transform="translate(-176.112 -143.356)"/>
        <path id="Path_1265" d="M354.49 677.245c-12.8-.083-25.62-.45-38.4-.457a12.148 12.148 0 0 1-5.346-.776 2.409 2.409 0 0 1-1.385-1.433c-.256-1.184 1.253-2.133 2.652-2.77 7.617-3.3 17.228-4.293 25.939-4.847 7.7-.5 15.441-.471 23.162-.346 6.876.118 13.925.81 20.081 3.3 2.527 1.025 3.836 2.915 2.562 4.979-1.143 1.87-4.847 1.814-7.153 1.828-3.912 0-7.8.27-11.716.388-3.492.134-6.947.134-10.396.134z" class="cls-7" transform="translate(-95.369 -200.534)"/>
        <path id="Path_1266" d="M534.914 673.355c-7.1 0-14.631-.263-19.852-.395-3.608-.09-7.084-.222-7.838-.956-2.77-2.68 12.374-5.353 26.216-5.47a82.771 82.771 0 0 1 13.156.817c2.977.512 4.715 1.219 5.685 1.946 1.454 1.08 3.545 2.874-2.894 3.566-3.687.395-8.948.506-14.473.492z" class="cls-7" transform="translate(-156.393 -200.529)"/>
        <path id="Path_1267" d="M318.178 121.012l-33.389 17.311a.866.866 0 1 1-.8-1.537h.035l34.1-15.871a.055.055 0 0 1 .069 0 .062.062 0 0 1-.021.1z" class="cls-1" transform="translate(-87.352 -31.811)"/>
        <path id="Path_1268" d="M631.114 622.441a8.835 8.835 0 0 0-6.232-6.232c-.956-.277-.956-.519 0-.8a8.814 8.814 0 0 0 6.232-6.232c.284-.949.519-.949.8 0a8.787 8.787 0 0 0 6.232 6.232c.949.284.949.526 0 .8a8.815 8.815 0 0 0-6.232 6.232c-.246.935-.514.935-.8 0z" class="cls-1" transform="translate(-192.637 -182.672)"/>
        <path id="Path_1269" d="M97.343 399.726l-52.986 27.525a1.385 1.385 0 1 1-1.274-2.437h.055l54.142-25.178a.069.069 0 0 1 .1.035.076.076 0 0 1-.037.055z" class="cls-1" transform="translate(-12.721 -118.077)"/>
        <path id="Path_1270" d="M112.648 29.969l-80.226 40.4a.866.866 0 1 1-.776-1.544l80.96-38.908a.036.036 0 1 1 .042.055z" class="cls-1" transform="translate(-9.317 -3.822)"/>
        <path id="Path_1271" d="M421.914 422.439a8.815 8.815 0 0 0-6.232-6.232c-.956-.284-.956-.519 0-.8a8.815 8.815 0 0 0 6.232-6.232c.284-.956.519-.956.8 0a8.815 8.815 0 0 0 6.232 6.232c.956.284.956.519 0 .8a8.815 8.815 0 0 0-6.232 6.232c-.281.935-.514.935-.8 0z" class="cls-1" transform="translate(-127.941 -120.789)"/>
        <path id="Line_136" d="M161.192 0L0 74.942" class="cls-3" transform="translate(52.818 30.171)"/>
        <path id="Line_137" d="M159.551 0L0 74.181" class="cls-2" transform="translate(63.163 36.278)"/>
        <path id="Path_1272" fill="#fbf6be" d="M519.4 221.038a31.243 31.243 0 0 1-7.111 20.081 26.2 26.2 0 0 0-6.024 16.618v8.752A10.151 10.151 0 0 1 496.15 276.6h-16.175a10.137 10.137 0 0 1-10.11-10.11v-8.745a26.119 26.119 0 0 0-6-16.618 31.333 31.333 0 0 1 17.366-50.458c.4-.09.8-.173 1.2-.242l.651-.111a31.354 31.354 0 0 1 36.318 30.743z" transform="translate(-140.923 -53.319)"/>
        <path id="Path_1273" d="M505.795 315.088l-.035.27-.443 3.407-.118.893-.118.907-.443 3.407-.118.893-.118.9-.062.5c-.228 1.731-2.2 3.054-4.563 3.054h-5.325a6.046 6.046 0 0 1-1.607-.215 5.365 5.365 0 0 1-1.239-.512 3.8 3.8 0 0 1-.8-.616 2.915 2.915 0 0 1-.886-1.655l-.19-1.321-.118-.831-.138-.838-.45-3.158-.118-.824-.125-.866-.492-3.421z" class="cls-9" transform="translate(-150.598 -91.935)"/>
        <path id="Path_1274" d="M503.9 315.091h-3.005c-4.847 1.385-9.694 2.77-11.9 3.421l.118.817.118.824c1.807-.5 6.149-1.738 16.75-4.812l.035-.27z" class="cls-10" transform="translate(-150.814 -91.93)"/>
        <path id="Path_1275" d="M490.095 325.784l.118.831c2.077-.589 6.4-1.821 15.379-4.425l.118-.907.118-.893c-5.671 1.641-12.54 3.622-15.857 4.563z" class="cls-10" transform="translate(-151.115 -93.575)"/>
        <path id="Path_1276" d="M492.637 332.549a5.361 5.361 0 0 0 1.239.512c2.465-.692 6.121-1.759 11.557-3.338l.118-.9.118-.893-13.849 4a3.8 3.8 0 0 0 .817.623z" class="cls-10" transform="translate(-151.684 -95.903)"/>
        <path id="Rectangle_550" d="M0 0H1.419V40.66H0z" class="cls-9" transform="translate(334.065 183.274) rotate(-9.61)"/>
        <path id="Rectangle_551" d="M0 0H40.113V1.419H0z" class="cls-9" transform="matrix(0.18, -0.984, 0.984, 0.18, 351.466, 223.096)"/>
        <path id="Path_1277" d="M500.214 264.142a2.985 2.985 0 0 1-.616-.076.879.879 0 0 1-.692-.762c-.159-.886.533-2.507 1.51-3.885a3.815 3.815 0 0 0-1.9-1.842c-1.052-.319-2.666.651-3.788 1.89a10.264 10.264 0 0 1 .554.907c.575 1.087.99 2.479.422 3.116-.215.242-.637.457-1.489.139a1.762 1.762 0 0 1-1.046-2.472 5.666 5.666 0 0 1 1-1.717c-.872-1.136-2.036-2-3.178-1.856a3.462 3.462 0 0 0-1.579.6 4.757 4.757 0 0 1 .395 4.023 1.274 1.274 0 0 1-1.7.568c-.54-.194-.824-.935-.692-1.9a4.369 4.369 0 0 1 1.468-2.8 3.58 3.58 0 0 0-.817-.914 2.7 2.7 0 0 0-3.677.187l-.3-.3a3.178 3.178 0 0 1 4.245-.222 4.079 4.079 0 0 1 .893.99 3.967 3.967 0 0 1 1.745-.644c1.281-.166 2.569.741 3.518 1.953 1.226-1.329 2.964-2.313 4.155-1.946a4.072 4.072 0 0 1 2.077 1.883 7.25 7.25 0 0 1 1.648-1.62c.893-.6 1.475-.457 1.807-.235a3.241 3.241 0 0 1 .872.866 4.55 4.55 0 0 1 .831-.533 2.347 2.347 0 0 1 2.68.1l-.277.325a2.022 2.022 0 0 0-2.216-.048 4.487 4.487 0 0 0-.8.519 4.521 4.521 0 0 1 .429 3.649.907.907 0 0 1-1.212.478 1.62 1.62 0 0 1-1.191-1.468 3.843 3.843 0 0 1 1.42-2.77 2.936 2.936 0 0 0-.776-.8c-.4-.263-.949 0-1.336.242a7.249 7.249 0 0 0-1.662 1.662 5.539 5.539 0 0 1 .734 3.573 1.385 1.385 0 0 1-1.459 1.14zm.422-4.3a5.851 5.851 0 0 0-1.309 3.386.45.45 0 0 0 .367.415c.838.194 1.385-.048 1.53-.727a4.992 4.992 0 0 0-.582-3.074zm-6.232-.035a5.116 5.116 0 0 0-.866 1.489 1.341 1.341 0 0 0 .8 1.932c.339.125.8.229 1.011 0 .339-.381.138-1.461-.478-2.631a7.292 7.292 0 0 0-.457-.789zm-5.359-1.385a3.954 3.954 0 0 0-1.267 2.472c-.076.734.1 1.323.436 1.447a.873.873 0 0 0 1.191-.367 4.113 4.113 0 0 0-.332-3.525zm15.829.27a3.462 3.462 0 0 0-1.212 2.34 1.212 1.212 0 0 0 .907 1.094.492.492 0 0 0 .692-.27 3.869 3.869 0 0 0-.36-3.137z" class="cls-9" transform="translate(-149.308 -73.718)"/>
        <path id="Path_1278" d="M520.833 205.875c2.576 2.424 2.257 6.924-1.059 7.88a7.278 7.278 0 0 1-8.06-3.462c-1.842-3.192-1-5.81 1.26-7.118s5.179.172 7.859 2.7z" class="cls-11" transform="translate(-157.516 -57.218)"/>
        <rect id="Rectangle_552" width="2.292" height="14.34" class="cls-11" rx="1.146" transform="translate(345.191 116.425)"/>
        <rect id="Rectangle_553" width="2.292" height="8.953" class="cls-11" rx="1.146" transform="translate(390.814 139.473) rotate(60)"/>
        <path id="Path_1279" d="M560.89 226.493a1.15 1.15 0 0 1 1.149-1.143h15.31a1.142 1.142 0 0 1 1.143 1.143 1.142 1.142 0 0 1-1.143 1.149h-15.31a1.149 1.149 0 0 1-1.149-1.149z" class="cls-11" transform="translate(-173.176 -64.213)"/>
        <path id="Path_1280" d="M529.692 179.409a1.149 1.149 0 0 1-.6-1.5l8.122-19.056a1.149 1.149 0 0 1 1.51-.6 1.142 1.142 0 0 1 .6 1.5l-8.129 19.07a1.156 1.156 0 0 1-1.503.586z" class="cls-11" transform="translate(-163.164 -43.465)"/>
        <rect id="Rectangle_554" width="2.292" height="8.953" class="cls-11" rx="1.146" transform="translate(302.187 141.431) rotate(-60)"/>
        <path id="Path_1281" d="M435.032 226.493a1.143 1.143 0 0 0-1.142-1.143h-15.31a1.149 1.149 0 0 0-1.149 1.143 1.149 1.149 0 0 0 1.15 1.149h15.31a1.142 1.142 0 0 0 1.142-1.149z" class="cls-11" transform="translate(-128.707 -64.213)"/>
        <path id="Path_1282" d="M469.433 179.41a1.156 1.156 0 0 0 .609-1.5l-8.129-19.056a1.142 1.142 0 0 0-1.5-.6 1.156 1.156 0 0 0-.609 1.5l8.129 19.07a1.149 1.149 0 0 0 1.5.586z" class="cls-11" transform="translate(-141.76 -43.465)"/>
        <path id="Path_1283" d="M289.689 483.464l-.5 3.795s2.278-.3 2.652-.332c1.177-.083 4.646-.3 7.873-.651 4.847-.485 8.365-.6 10.664-2.008 3.462-2.133 9.223-8.662 12.955-15.192a3.67 3.67 0 0 0 .263-.485c1.946-3.462 3.31-6.924 3.414-9.646a13.718 13.718 0 0 0-.457-4.376 11.155 11.155 0 0 0-1.966-3.94 1.968 1.968 0 0 0-.374-.457 9.306 9.306 0 0 0-2.534-2.16c-.637-.263-2.77 2.313-3.462 3.088l-.6 1.786c-.589.609-7.028 21.313-9.936 24.54-1.253 1.385-7.091 3.566-12.4 5.041a25.058 25.058 0 0 1-5.588 1z" class="cls-12" transform="translate(-89.106 -133.037)"/>
        <path id="Path_1284" d="M286.841 498.069a5.27 5.27 0 0 0-2.493-1.586c-1.5-.381-4.729-1.96-4.355-1.129s2.181 1.807 1.883 2.4c0 0-5.138-1.426-5.29-.526s1.807 4.349 4.009 5.089c.727.249 5.789-.692 5.789-.692z" class="cls-12" transform="translate(-85.185 -147.551)"/>
        <path id="Path_1285" d="M215.622 530.1a55.529 55.529 0 0 1-8.2 5.609 54.961 54.961 0 0 1-8.2 3.753 70.942 70.942 0 0 1-10.193 8.406 84.709 84.709 0 0 1-35.425 14.077 28.6 28.6 0 0 1-5.484 5.283 30.8 30.8 0 0 1-18.239 5.844 51.436 51.436 0 0 1-21.154-4.639c-12.935-5.595-25.4-15.732-35.1-28.556A98.949 98.949 0 0 1 54.1 491.9c-1.6-13.537-.969-25.586 1.863-35.813a55.284 55.284 0 0 1 17.519-27.954 80.421 80.421 0 0 1 13.208-23.318 59.459 59.459 0 0 1 37.821-21.784c19.748-2.97 42.467 3.047 67.512 17.893q2.153 1.274 4.2 2.617c2.5-.533 5.235-1.073 8.309-1.676h.2c9.549-1.883 22.206-7.52 33.874-15.081 9.694-6.308 23.224-16.826 32.309-31.1 8.489-13.35 11.114-26.88 7.8-40.224l1.385-.346c3.414 13.738.727 27.642-7.977 41.338-9.237 14.465-22.913 25.115-32.78 31.506-11.813 7.658-24.665 13.371-34.379 15.282l-.2.042c-2.514.492-4.8.942-6.924 1.385 11.806 8.088 20.939 17.969 27.185 29.449a70.545 70.545 0 0 1 8.766 36.948 61.523 61.523 0 0 1-1.385 10.657c.125.45.235.9.346 1.35a10.387 10.387 0 0 1 4.466 3.123c1.5 2.077.692 5.685-2.424 10.684-.263.415-.533.831-.817 1.26a40.853 40.853 0 0 1-6.3 18.28 57.529 57.529 0 0 1-12.055 13.682zm-14.022 6.887a52.383 52.383 0 0 0 5.124-2.521 55.609 55.609 0 0 0 19.755-18.827 39.919 39.919 0 0 0 5.761-15.026c-4.625 6.232-11.688 13.655-19.873 20.939-.215.415-.436.831-.658 1.239a72.014 72.014 0 0 1-10.11 14.2zm-46.8 23.335a83.564 83.564 0 0 0 33.431-13.634 69.5 69.5 0 0 0 7.838-6.19 52.967 52.967 0 0 1-11.626 2.043 117.722 117.722 0 0 1-12.623 6.82 54.057 54.057 0 0 1-13.724 4.445 29.219 29.219 0 0 1-3.3 6.516zm32.309-19.457a52.118 52.118 0 0 0 11.335-2.645 70.291 70.291 0 0 0 10.76-13.911c-4.065 3.462-8.344 6.883-12.706 10.082-3.173 2.333-6.323 4.5-9.391 6.474zm-3.1.263q5.6-3.469 11.64-7.894c5.394-3.961 10.677-8.24 15.559-12.568a66.357 66.357 0 0 0 4.729-11.924 31.28 31.28 0 0 1-4.889 2.894 18.077 18.077 0 0 1-13.267.734 82.123 82.123 0 0 1-11.079 8.115c-9.576 5.865-18.758 9.043-27.434 9.521.395 2.306.651 4.432.8 6.384a48.85 48.85 0 0 0 21.189 4.805c.913.005 1.834-.019 2.755-.067zm33.812-33.839a67.538 67.538 0 0 1-3.808 10.844c7.935-7.3 14.583-14.541 18.592-20.5a40.567 40.567 0 0 0 .055-5.879 46.675 46.675 0 0 0-.99-7.063 51.63 51.63 0 0 1-4.577 11.224 40.1 40.1 0 0 1-9.269 11.374zm-59.217 44.967c6.28-1.129 14.112-4.418 22.92-9.625h-.277a50.3 50.3 0 0 1-21.1-4.636 49.418 49.418 0 0 1-.1 6.63 37.719 37.719 0 0 1-1.441 7.63zm74.548-67.45a46.685 46.685 0 0 1 1 10.387c2.25-3.864 2.929-6.737 1.911-8.157a7.811 7.811 0 0 0-2.915-2.23zM72.571 430.837c-1.143 1.08-2.16 2.153-3.116 3.206a54.848 54.848 0 0 0-12.111 22.428c-2.77 10.04-3.4 21.9-1.821 35.252a97.5 97.5 0 0 0 19.25 47.293c9.556 12.63 21.819 22.608 34.525 28.106a49.894 49.894 0 0 0 20.565 4.522 29.553 29.553 0 0 0 17.408-5.54 27.658 27.658 0 0 0 4.245-3.871 63.758 63.758 0 0 1-22.483-1.385 57.97 57.97 0 0 1-10.435-3.711 31.651 31.651 0 0 1-16.431-1.177c-7.617-2.569-14.9-7.873-21.036-15.351a62.793 62.793 0 0 1-6.8-10.227c-7.741-8.718-12.609-22.158-13.71-38.008C59.56 477.2 62.143 462.2 67.7 451.222q.935-1.835 1.953-3.462a58.724 58.724 0 0 1 .692-7.4 64.8 64.8 0 0 1 2.223-9.521zm48.36 125.719a56.56 56.56 0 0 0 8.482 2.867 62.726 62.726 0 0 0 23.446 1.191 27.1 27.1 0 0 0 3.656-6.606 20.817 20.817 0 0 1-5.415-.118 100.406 100.406 0 0 1-16.618-4.2 50.34 50.34 0 0 1-6.024 3.815 36.006 36.006 0 0 1-7.527 3.05zm78.169-45.328a16.4 16.4 0 0 0 11.37-.886 30.351 30.351 0 0 0 6.114-3.864 59.78 59.78 0 0 0 1.814-15.04 53.911 53.911 0 0 0-.63-7.755 68.994 68.994 0 0 1-18.7 27.545zm19.748-29.728a55.594 55.594 0 0 1 .983 9.923 60.865 60.865 0 0 1-1.385 13.447 39.644 39.644 0 0 0 7.444-9.653 50.494 50.494 0 0 0 4.612-11.5 50.35 50.35 0 0 0-9.085-1.918c-.879-.111-1.731-.208-2.6-.3zm-82.975 67.166a99.372 99.372 0 0 0 15.462 3.829 19.927 19.927 0 0 0 5.719 0 35.314 35.314 0 0 0 1.593-7.977 48.531 48.531 0 0 0 .076-7.2q-1.433-.693-2.825-1.509t-2.867-1.759c-.471.242-.942.471-1.426.692a24.016 24.016 0 0 1-3.746 1.309 64.393 64.393 0 0 1-12.021 12.6zm24.638-20.166c8.06-.692 16.584-3.774 25.475-9.223a80.27 80.27 0 0 0 10.241-7.409 47.778 47.778 0 0 1-10.968-5.886c-.505-.346-1.011-.692-1.516-1.066-1.634 1-3.317 1.96-5.041 2.853a55.316 55.316 0 0 1-6.661 2.964 73.56 73.56 0 0 1-7.091 12.464 44.022 44.022 0 0 1-4.473 5.283zm24.505-24.436l1.018.692a44.833 44.833 0 0 0 11.4 5.976 67.554 67.554 0 0 0 19.589-29.428c-2.7-.222-5.54-.36-8.538-.409q-1.807 2.721-3.8 5.249a79.255 79.255 0 0 1-19.672 17.92zm33.929-24c.893.09 1.773.194 2.631.3a53.322 53.322 0 0 1 9.251 1.953c.049-.2.09-.395.139-.6a70.009 70.009 0 0 0-5.81-14.216q-1.593-2.985-3.518-6.038a65.679 65.679 0 0 1-2.694 18.592zm2.631-21.327q2.721 4.113 4.847 8.095a74.158 74.158 0 0 1 5.145 11.924 61.968 61.968 0 0 0 .845-7.769 69.091 69.091 0 0 0-8.309-35.667 100.2 100.2 0 0 1-3.074 17.429q.395 2.981.526 6zm-67.166 74.518c.692.45 1.426.886 2.16 1.3s1.316.741 1.987 1.087c-.138-1.516-.339-3.144-.623-4.847a28.763 28.763 0 0 1-3.518 2.465zm-1.336-.879a28.294 28.294 0 0 0 3.462-2.313 40.73 40.73 0 0 1-4.522-.312c-.263.429-.526.865-.8 1.295q.921.72 1.863 1.336zm3.912-11.986c.8 2.714 1.426 5.256 1.9 7.617a41.291 41.291 0 0 0 4.847-5.643 69.757 69.757 0 0 0 6.37-11.01 42.732 42.732 0 0 1-10.1 2c-.879 2.3-1.883 4.66-3.005 7.042zm-22.767 27.7a61.16 61.16 0 0 0 11.467-11.59 30.26 30.26 0 0 1-13.087-.831 54.086 54.086 0 0 1-7.354-2.583 83 83 0 0 1-9.106 4.328l-.692.263a60.062 60.062 0 0 0 18.779 10.4zm75.181-68.554q3.957.083 7.617.388a50.748 50.748 0 0 0-2.881-8.766 89.465 89.465 0 0 1-4.729 8.358zm-90.626 76.057a33.885 33.885 0 0 0 9-3.351 48.5 48.5 0 0 0 5.062-3.164 76.362 76.362 0 0 1-7.617-3.3 50.6 50.6 0 0 1-11.287-7.541 48.874 48.874 0 0 1-13.779 2.957 57.163 57.163 0 0 0 18.625 14.399zm34.006-27.185a38.623 38.623 0 0 0 4.75.222c-.388-1.973-.879-4.072-1.5-6.294-.969 2.021-2.049 4.057-3.247 6.072zm-3.628 5.733a25.258 25.258 0 0 0 2.465-1.011l-1.2-.872c-.4.637-.81 1.26-1.239 1.883zm65.781-64.694A51.5 51.5 0 0 1 218 478a63.462 63.462 0 0 0 2.119-18.793l-.692-1.059c-.36 1.108-.755 2.237-1.17 3.379q-1.5 4.085-3.31 7.921zm-88.123 62.735a50.548 50.548 0 0 0 6.17 2.077 28 28 0 0 0 13.994.505q1.2-1.676 2.32-3.393-1.78-1.385-3.462-2.936l-.422-.132a42.174 42.174 0 0 1-8.219-3.587 68.16 68.16 0 0 1-10.381 7.466zm56.96-29.013a77.906 77.906 0 0 0 19.79-17.872c1.115-1.385 2.181-2.88 3.213-4.383a177.4 177.4 0 0 0-24.533 1.662c-.589 1.745-1.2 3.6-1.835 5.539-1.011 3.081-2.077 6.377-3.275 9.736 2.25 1.918 4.47 3.704 6.64 5.318zm-10.906 5.7a56.393 56.393 0 0 0 5.173-2.382c1.516-.8 3-1.627 4.452-2.507-1.925-1.44-3.871-3.012-5.844-4.695-1.178 3.184-2.396 6.415-3.781 9.582zm-23.937 20.371l1.17.942c.138-.215.27-.429.4-.651-.554-.083-1.073-.187-1.6-.291zm-2.354-2.077a38 38 0 0 0 4.722 1.032c1.551-2.624 2.943-5.29 4.2-7.928-.692-2.237-1.468-4.591-2.41-7.07-.429-.049-.852-.1-1.281-.173a33.176 33.176 0 0 1-3.649-.768c-.388.582-.789 1.163-1.191 1.731a62.316 62.316 0 0 1-6.031 7.208 62.628 62.628 0 0 0 5.623 5.983zm-68.357 6.994a62 62 0 0 0 4.023 5.539c5.962 7.271 13.011 12.422 20.385 14.9A30.414 30.414 0 0 0 116.4 556a59.1 59.1 0 0 1-18.052-14.763 30.468 30.468 0 0 1-20.129-7.084zm104.558-53.1a179.285 179.285 0 0 1 24.928-1.565 87.162 87.162 0 0 0 5.636-10.04 51.828 51.828 0 0 0-9.431-13.544 28.684 28.684 0 0 1-2.617 7.665c-3.2 6.232-7.617 9.992-13.2 11.245a20.534 20.534 0 0 1-3.151.443c-.706 1.7-1.433 3.656-2.174 5.8zm-22.158 30.834A42.4 42.4 0 0 0 171 509.573c1.669-3.7 3.151-7.527 4.494-11.294-2.832-2.458-5.726-5.131-8.669-7.935-.692 3.3-1.461 6.585-2.354 9.791-.99 3.407-2.243 7.43-3.885 11.751zm-5.948 1.475c.644 1.717 1.212 3.379 1.724 4.986.748-1.655 1.44-3.3 2.077-4.9a34.85 34.85 0 0 1-3.829-.083zm-16.335 10.387a39.83 39.83 0 0 0 5.1 2.382c-1.212-1.226-2.382-2.527-3.511-3.885-.547.519-1.073.99-1.613 1.482zm65.9-69.59a53.614 53.614 0 0 1 9.909 13.62q1.5-3.282 2.77-6.744c.547-1.489 1.039-2.95 1.489-4.376a163.454 163.454 0 0 0-14.783-17.872 45.009 45.009 0 0 1 .613 15.367zm-50.16 57.721a35.64 35.64 0 0 0 4.944.111c1.731-4.508 3.054-8.7 4.03-12.235s1.828-7.125 2.514-10.58q-1.385-1.309-2.728-2.645-2.507.693-4.8 1.5a70.8 70.8 0 0 1-6.336 18.149c.872 1.96 1.662 3.864 2.375 5.7zm13.039-23.2c3.005 2.881 5.962 5.63 8.856 8.15 1.108-3.165 2.126-6.232 3.081-9.168.547-1.683 1.087-3.31 1.606-4.847l-1.323.2c-4.106.637-7.984 1.385-11.605 2.25-.194 1.129-.4 2.271-.616 3.414zm52.84-32.26zm-71.012 54.569q1.516.388 3.054.623l.464.062c-.5-1.267-1.039-2.562-1.62-3.9q-.901 1.65-1.898 3.215zm-23.764 20.475a68.029 68.029 0 0 0 10.7-7.506q-10.179-6.232-19.111-18.744-1.44-.069-2.887-.27c-.589-.076-1.177-.173-1.766-.284-1.558 3.227-2.853 6.17-3.829 8.669a22.92 22.92 0 0 0-1.267 4.584l.312.36a53.082 53.082 0 0 0 17.851 13.2zm-6.62-26.209Q127.2 517.1 137 522.972c.692-.609 1.336-1.233 1.98-1.87a73.886 73.886 0 0 1-4.847-6.862 52.627 52.627 0 0 1-5.782-10.463 34.108 34.108 0 0 1-9.791 1.489zm11.169-1.883a51.745 51.745 0 0 0 5.539 10.068l.035.048a74.226 74.226 0 0 0 4.674 6.627 59.839 59.839 0 0 0 5.768-6.924q.464-.644.914-1.309a39.259 39.259 0 0 1-15.275-9.133c-.533.187-1.094.395-1.655.623zm73.253-67.291a170.109 170.109 0 0 1 15.922 18.876q.346-1.142.644-2.264a65.657 65.657 0 0 0-15.109-33.424c-3.739-4.4-7.527-6.322-11.571-5.872a10.681 10.681 0 0 0-1.316.228 58.373 58.373 0 0 1 11.425 22.421zm-88.694 100.528l1.329-.512a80.2 80.2 0 0 0 8-3.746 54.571 54.571 0 0 1-16.826-12.54 18.612 18.612 0 0 0 2.52 10.594 27.106 27.106 0 0 0 4.972 6.2zm18.564-34.49a37.489 37.489 0 0 0 14.645 8.5c.928-1.447 1.8-2.943 2.61-4.473-1.842-4.078-3.829-7.915-5.816-11.384-.429.312-.838.63-1.233.949a45 45 0 0 1-10.206 6.384zm57.673-89.733a13.37 13.37 0 0 1 2.2-.45c4.487-.5 8.808 1.648 12.824 6.37a67.166 67.166 0 0 1 14.887 30.876A89.1 89.1 0 0 0 222.8 433a84.839 84.839 0 0 0-26.873-27.947 79.97 79.97 0 0 0-10.137 2.77 44.917 44.917 0 0 1 4.342 4.155c.133.122.257.267.389.412zm-22.546 71.321c3.462-.817 7.215-1.53 11.134-2.14l2.077-.3c.748-2.188 1.482-4.2 2.216-5.983a35.947 35.947 0 0 1-13.246-3.109c-.312.436-.623.859-.949 1.267-.27 3.338-.686 6.786-1.233 10.276zm17.65-9.957a18.261 18.261 0 0 0 2.174-.346c5.193-1.17 9.2-4.612 12.235-10.5a27.919 27.919 0 0 0 2.666-8.247 60.693 60.693 0 0 0-9.376-7.471 36.9 36.9 0 0 0-4.2-2.361c1.274 11.875.3 22.026-2.6 27.178-.3.54-.6 1.129-.9 1.759zm-86.6 66.058a45.008 45.008 0 0 0 13.752-2.673 28.11 28.11 0 0 1-4.716-6.038 19.963 19.963 0 0 1-2.569-12.782 59.861 59.861 0 0 1-12.021-22.6 66.4 66.4 0 0 1-9.881-9.86c-1.212.893-2.382 1.828-3.5 2.77a103.388 103.388 0 0 0 11.183 39.316 70.535 70.535 0 0 0 7.756 11.867zm46.435-45.888c1.863 3.247 3.725 6.807 5.47 10.58a69.536 69.536 0 0 0 5.539-15.926 53.252 53.252 0 0 0-11.01 5.346zm25.5-22.968a33.649 33.649 0 0 0 13.039 2.9c.422-.935.838-1.793 1.267-2.548 2.77-4.847 3.656-15 2.41-26.486a6.592 6.592 0 0 0-.076-.692 29.307 29.307 0 0 0-11.681-2.313 34.677 34.677 0 0 1 .692 13.8 38.86 38.86 0 0 1-5.645 15.339zm-6.537 15.109l1.447 1.385c.118-.63.229-1.253.339-1.87zm-1.191-1.156c1.053-.291 2.133-.575 3.234-.845.485-3.04.859-5.969 1.122-8.759a24.578 24.578 0 0 1-4.155 3.615 8.268 8.268 0 0 1-4.155 1.385c0 .208-.048.415-.069.63 1.329 1.35 2.687 2.68 4.023 4zm25.7-41.775a38.011 38.011 0 0 1 5.173 2.832 62.282 62.282 0 0 1 8.842 6.924 45.042 45.042 0 0 0-1-15.067l-.249-1.052q-5.955-6.142-13.011-12.464a67.3 67.3 0 0 0-5.29-4.293 103.548 103.548 0 0 1 5.538 23.12zM75.507 529.55l.284.312a29.629 29.629 0 0 0 16.425 9.4 31.5 31.5 0 0 0 4.972.54A73 73 0 0 1 90 528.63a104.732 104.732 0 0 1-11.245-38.776 55.3 55.3 0 0 0-5.443 5.7c-3.746 4.549-4.847 11.716-2.991 20.185a54.542 54.542 0 0 0 5.186 13.814zm82.815-43.139c1.066-.353 2.174-.692 3.3-1.032l-2.7-2.659q-.222 1.87-.599 3.692zm-13.606 6.273a56.344 56.344 0 0 1 12.041-5.733q.512-2.541.852-5.193l.042-.3-1.295-1.281a34.68 34.68 0 0 1-9.313-3.116c-2.174 3.151-4.2 5.38-6.052 6.273-.554.27-1.156.54-1.814.817 1.78 2.437 3.67 5.318 5.567 8.531zm14.666-13.849a6.883 6.883 0 0 0 3.2-1.108 24.387 24.387 0 0 0 5.193-4.847c.042-.575.076-1.142.111-1.7a88.5 88.5 0 0 1-8.122-4.314 98.832 98.832 0 0 1-.353 11.993zm-27.7 22.158a43.112 43.112 0 0 0 10.428-6.44c.443-.367.921-.734 1.385-1.087-1.967-3.344-3.919-6.315-5.726-8.8a62.042 62.042 0 0 1-12.3 3.248c.138 1.143.312 2.285.526 3.462q.415 2.181.962 4.2a46.821 46.821 0 0 0 4.757 5.456zm37.717-30.71l.229.1a37.391 37.391 0 0 0 5.54-14.943 33.236 33.236 0 0 0-.692-13.551 32.375 32.375 0 0 0-7.984 1.537l-.956.319c-.395.692-.782 1.426-1.177 2.133a47.088 47.088 0 0 1 3.178 5.657c1.594 3.475 2.28 10.295 1.863 18.75zm-12.339 8.552c.3.035.609.055.9.069a96.591 96.591 0 0 0 .367-12.886c-1.163-.692-2.333-1.447-3.5-2.209-1.593 2.984-3.13 5.775-4.6 8.275q3.282 3.22 6.516 6.433zm-27.884 23.155c.367-.125.734-.263 1.1-.4-.692-.734-1.426-1.5-2.077-2.292.301.955.633 1.856.979 2.693zm30.529-36.8c1.44.865 2.881 1.69 4.307 2.465s2.68 1.385 3.961 1.994c.353-8.06-.319-14.368-1.773-17.5a45.087 45.087 0 0 0-2.659-4.847c-1.593 2.936-3.137 5.872-4.632 8.711q.625 4.647.798 9.175zm-42.239 38.631a32.781 32.781 0 0 0 10.276-1.385 61.175 61.175 0 0 1-2.077-6.232 53.075 53.075 0 0 1-4.665-7.722h-.173c-2.271 3.788-4.348 7.527-6.19 11.079.976 1.468 1.925 2.894 2.881 4.259zm30.356-27.954a40.289 40.289 0 0 0 6.675 2.5q-2.527-2.5-5.089-5.013c-.485.879-1.011 1.717-1.537 2.514zm-52.456 21.326a59.667 59.667 0 0 0 10.387 19.277 23.653 23.653 0 0 1 1.122-3.649c.949-2.444 2.209-5.311 3.711-8.455a42.348 42.348 0 0 1-15.171-7.174zm88.119-78.882a68.779 68.779 0 0 1 6.149 4.916q6.01 5.4 11.245 10.677a56.44 56.44 0 0 0-10.809-19.852 21.361 21.361 0 0 0-6.584 4.259zm-70.725 85.017c.436.083.872.146 1.316.208s1.087.139 1.634.18q-.907-1.309-1.793-2.694c-.395.778-.783 1.551-1.157 2.306zm25.572-20.365c.755-.3 1.447-.616 2.077-.914 1.586-.769 3.393-2.77 5.366-5.609-3.275-1.6-6.73-3.531-10.248-5.5l-1.911-1.066c-1.329 1.683-2.583 3.351-3.753 4.965a17.88 17.88 0 0 1 4.688 3.545 53.893 53.893 0 0 1 3.781 4.579zm37.17-42.55a30.646 30.646 0 0 1 11.9 2.112 101.368 101.368 0 0 0-5.588-22.608 81.016 81.016 0 0 0-10.033 13.2 24.609 24.609 0 0 1 3.718 7.3zm-50.118 46.123a60.644 60.644 0 0 0 11.564-3.026 48.67 48.67 0 0 0-3.462-4.155A16.676 16.676 0 0 0 129 476c-1.309 1.835-2.59 3.711-3.829 5.595-.009 1.652.067 3.293.212 4.941zm9.126-17.782l1.7.956c3.566 2 7.07 3.961 10.387 5.539.6-.907 1.219-1.89 1.842-2.922-3.1-3.019-6.232-6.017-9.376-8.919-1.617 1.76-3.127 3.553-4.553 5.347zm-11.945 19.61a43.329 43.329 0 0 0 2.209 3.912c-.042-.2-.083-.4-.118-.609q-.332-1.745-.54-3.462c-.512.021-1.032.083-1.551.138zm-27.829 6.543a41.6 41.6 0 0 0 16.57 8.157q.817-1.669 1.717-3.421-3.462-5.574-6.744-12.166a35.678 35.678 0 0 1-6.647-2.306 31.223 31.223 0 0 1-6.682-4.155 48.13 48.13 0 0 0 1.509 12.845c.09.326.159.679.277 1.025zm60.764-32.384q1.385.893 2.77 1.745-.152-2.991-.492-6.01c-.785 1.495-1.533 2.88-2.278 4.265zm-15.5-.2c3.081 2.832 6.135 5.761 9.161 8.711 1.44-2.451 2.929-5.172 4.466-8.032-2.811-1.863-5.643-3.857-8.475-5.927q-2.68 2.576-5.152 5.269zm-31.921 25.509q2.77 5.539 5.713 10.3c1.62-3.074 3.407-6.287 5.339-9.549a46.726 46.726 0 0 1-11.051-.727zm13.814-.872c.692-.069 1.385-.145 2.077-.235-.09-.99-.152-1.973-.187-2.957q-.99 1.537-1.932 3.088zm24.325-30.876c2.638 1.925 5.346 3.836 8.081 5.65.962-1.814 1.939-3.67 2.929-5.539l.229-.436q-.485-3.711-1.226-7.43a72.146 72.146 0 0 0-10.013 7.776zM107.269 486.2a45.506 45.506 0 0 0 12.741.907l.215-.346a57.042 57.042 0 0 1-3.76-11.259c-.145-.693-.284-1.343-.409-2.008a49.385 49.385 0 0 0-13.288 2.465c.485 1.385 1.039 2.77 1.648 4.155q1.406 3.178 2.853 6.107zm10.241-12.727c.111.575.228 1.143.353 1.717a55.691 55.691 0 0 0 3.268 10.082c.852-1.385 1.724-2.77 2.617-4.113a48.784 48.784 0 0 1 .589-6.924 29.329 29.329 0 0 0-6.827-.741zm40.023-25.952c.409 2.015.762 4.037 1.066 6.052 1.316-2.507 2.68-5.076 4.072-7.617-.18-.27-.367-.547-.561-.824a48.293 48.293 0 0 0-4.577 2.41zm9-5.643a33.935 33.935 0 0 1 7.467-1.416 23.363 23.363 0 0 0-3.054-6.059c-1.475 2.43-2.929 4.944-4.39 7.5zM69.649 450.6c-.229.416-.45.838-.692 1.274-5.366 10.594-7.956 25.7-6.924 40.4.879 12.554 4.155 23.543 9.355 31.8A50.551 50.551 0 0 1 68.909 516c-1.918-8.9-.748-16.5 3.282-21.4a57.763 57.763 0 0 1 6.405-6.564c-.242-3.164-.339-6.3-.3-9.382a53.255 53.255 0 0 1-8.661-28.054zm56.087 24.076c-.215 1.385-.367 2.77-.457 4.2q1.184-1.759 2.41-3.462a17.027 17.027 0 0 0-1.96-.741zm.242-1.426a21.8 21.8 0 0 1 2.569.956q1.883-2.617 3.788-5.041c-1.551-.852-3.1-1.7-4.653-2.514-.256.776-.5 1.551-.692 2.327a38.659 38.659 0 0 0-1.018 4.272zm36.63-29.9c.644-.277 1.281-.526 1.925-.762 1.786-3.213 3.628-6.384 5.5-9.383a24.138 24.138 0 0 0-9.95-7.028c-2.022 1.932-4.21 4.065-6.592 6.419l.277.81a67.324 67.324 0 0 1 8.835 9.943zm-34.448 21.942c1.69.879 3.386 1.807 5.069 2.77q2.368-2.95 4.736-5.6-2.971-2.714-5.976-5.283a52.894 52.894 0 0 0-3.829 8.113zm29.082-19.229c1.385-.789 2.7-1.489 4.044-2.112a65.507 65.507 0 0 0-6.6-7.686c.969 3.234 1.821 6.509 2.534 9.791zM132.7 455.9q3.116 2.652 6.232 5.47 2.52-2.77 5.041-5.145c-2.243-1.648-4.487-3.337-6.71-5.034a10.889 10.889 0 0 1-.845-.692 61.253 61.253 0 0 0-3.718 5.401zm-15.441 16.168a30.861 30.861 0 0 1 7.319.845q.4-2.16 1-4.279c.249-.879.519-1.745.81-2.61a73.912 73.912 0 0 0-9.694-4.258 49.163 49.163 0 0 0 .568 10.3zm31.367-19.928a65.556 65.556 0 0 1 7.312-5.269 120.311 120.311 0 0 0-3.407-12.63l-.346-.312c-2.881 2.86-6.038 6.031-9.549 9.556a72.431 72.431 0 0 0-5.318 5.941c.27.222.547.443.824.651 2.216 1.69 4.529 3.462 6.924 5.186l.464-.429q1.52-1.445 3.098-2.698zm-54.977 27.569a30.239 30.239 0 0 0 6.585 4.155 34.2 34.2 0 0 0 5.214 1.911q-1.184-2.472-2.347-5.069-.942-2.14-1.7-4.265a65.578 65.578 0 0 0-7.752 3.268zm67.568-54.619a25.62 25.62 0 0 1 9.611 6.841c.99-1.551 1.987-3.054 2.991-4.48a65.349 65.349 0 0 1 7.388-8.96 64.754 64.754 0 0 0-7.354-4.252 131.245 131.245 0 0 0-12.636 10.851zm-76.459 59.93a66.986 66.986 0 0 0 8.115 8.309 48.914 48.914 0 0 1-1.385-12.547 66.8 66.8 0 0 0-6.73 4.238zm32.018-24.768a71.863 71.863 0 0 1 10.1 4.349 55.156 55.156 0 0 1 4-8.42q-3.012-2.534-6.066-4.847-2.479-1.89-4.889-3.552a37.675 37.675 0 0 0-3.145 12.469zm66.855-43.952a22.091 22.091 0 0 1 5.436-3.386 42.358 42.358 0 0 0-4.847-4.494 43.875 43.875 0 0 0-4.944 2.333c1.1 2.077 2.126 4.328 3.074 6.64.436-.381.859-.748 1.274-1.094zM102.3 474.606a50.838 50.838 0 0 1 13.509-2.514 50.38 50.38 0 0 1-.554-10.816c-6.537-1.953-11.488-1.461-15.1 1.5a43.8 43.8 0 0 0 2.147 11.827zm72.879-61.3c1.745.886 3.462 1.849 5.117 2.887-.692-1.627-1.461-3.206-2.257-4.729-.939.559-1.886 1.203-2.856 1.836zm9.292-6.516a73.222 73.222 0 0 1 9.777-2.811c-.969-.616-1.953-1.226-2.957-1.814-24.755-14.68-47.155-20.635-66.571-17.712a58.047 58.047 0 0 0-36.92 21.29 79.547 79.547 0 0 0-12.111 20.6 74.09 74.09 0 0 1 14.541-8.7 57.334 57.334 0 0 1 14.749-14.707c7.617-5.076 15.157-6.959 21.715-5.574 4.944-6.5 12.789-9.763 22.767-9.313 8.939.409 16.958 4.847 23.543 13 .353.1.692.194 1.059.3a33.79 33.79 0 0 1 10.413 5.439zm-63.921 39.682q2.527 1.738 5.124 3.725 2.991 2.278 5.948 4.764a62.876 62.876 0 0 1 3.7-5.366 41.061 41.061 0 0 1-9.2-12.055 52.923 52.923 0 0 0-5.567 8.932zm6.557-10.151a39.772 39.772 0 0 0 9.1 12.145 75.833 75.833 0 0 1 5.394-6.024c3.5-3.511 6.634-6.661 9.493-9.486a58.454 58.454 0 0 0-5.588-4.224 49.33 49.33 0 0 0-4.4-2.624 33.588 33.588 0 0 0-13.998 10.213zM93.1 478.365a67.356 67.356 0 0 1 7.838-3.31 46.074 46.074 0 0 1-2.167-10.975c-3.178 3.421-5.11 8.413-5.671 14.285zm85.516-68.877a44.413 44.413 0 0 1 4.293-2.077 32.336 32.336 0 0 0-8.42-4.438 58.643 58.643 0 0 1 3.988 6.273c.048.076.09.159.138.242zm-28.272 14.95q1.385 3.227 2.617 6.675c2.008-1.973 3.864-3.788 5.6-5.449a27.163 27.163 0 0 0-8.219-1.226zm-7.368 1.073c1.177.692 2.285 1.385 3.324 2.036a58.88 58.88 0 0 1 5.276 3.961c-.859-2.417-1.786-4.764-2.77-7.014-.5.035-1 .076-1.5.138a27.7 27.7 0 0 0-4.328.866zm30.739-12.911c.782-.554 1.544-1.066 2.3-1.551.457-.291.907-.568 1.385-.831l-.145-.263a55.728 55.728 0 0 0-5.082-7.672 27.358 27.358 0 0 0-17.311 1.5c-1.613.692-3.358 1.42-5.2 2.25a72.047 72.047 0 0 1 24.055 6.557zm-23.993 10.421a28.389 28.389 0 0 1 10.013 1.523 141.435 141.435 0 0 1 12.658-10.982A71.9 71.9 0 0 0 147 407.266c-1.523.727-3.1 1.5-4.7 2.333a84.99 84.99 0 0 1 7.423 13.406zm-49.565 37.987c3.843-2.659 8.856-3.047 15.234-1.191a38.728 38.728 0 0 1 3.351-12.852 81.012 81.012 0 0 0-12.464-6.924 44.9 44.9 0 0 0-3.278 6.583 39.178 39.178 0 0 0-2.839 14.382zm-16.272 22.9a68.78 68.78 0 0 1 7.271-4.515q-6.7-6.357-9.833-16.868a93.561 93.561 0 0 0-1.572 15.7c.332.512.692 1.018 1.032 1.523q1.509 2.16 3.074 4.155zM82 459.434c.062.277.132.554.208.824 1.9 7.381 5.089 13.3 9.528 17.7.692-6.55 3.012-12.069 6.841-15.677l.145-.131a40.563 40.563 0 0 1 2.957-16.092 46.34 46.34 0 0 1 3.282-6.62 45.871 45.871 0 0 0-12.422-3.282l-.332-.035a55.216 55.216 0 0 0-7.507 14.062 75.516 75.516 0 0 0-2.728 9.251zm-1.87 27.323c.831-.692 1.69-1.385 2.562-2.008-1-1.26-1.987-2.59-2.957-3.961 0 2.015.09 4.058.222 6.107a1.7 1.7 0 0 0 .176-.137zm61.073-62.2a28.853 28.853 0 0 1 5.927-1.385c.353-.049.692-.083 1.059-.111a81.648 81.648 0 0 0-7.181-12.81 126.4 126.4 0 0 0-15.538 9.653 42.764 42.764 0 0 1 15.732 4.646zm-34.179 14.216a83.092 83.092 0 0 1 12.325 6.89 53.61 53.61 0 0 1 6.066-9.549 47.988 47.988 0 0 1-2.541-6.689 46.512 46.512 0 0 1-1.426-6.384l-.166.139a67.942 67.942 0 0 0-14.255 15.592zm39.7-32.974c2.714-1.281 5.263-2.389 7.554-3.338a28.992 28.992 0 0 1 16.383-1.953c-5.124-5.809-12.111-10.636-21.292-11.079s-16.48 2.479-21.175 8.268a19.6 19.6 0 0 1 6.232 3.144 31.029 31.029 0 0 1 4.9 4.764c1.745 0 3.511 0 5.29.055.684.083 1.402.083 2.108.14zm-75.648 42.362a51.857 51.857 0 0 0 7.3 27.877A91.4 91.4 0 0 1 80.5 459.42a46.594 46.594 0 0 1 .208-20.912 19.7 19.7 0 0 0-1.821 1.163 29.386 29.386 0 0 0-7.811 8.49zm60.145-17.955a32.733 32.733 0 0 1 8.15-4.965 40.765 40.765 0 0 0-15.649-4.016l-.983.769a45.081 45.081 0 0 0 1.509 7.021 46.4 46.4 0 0 0 2.223 5.879 40.156 40.156 0 0 1 4.757-4.688zm10.241-21.8c.866-.45 1.717-.886 2.569-1.3-1.2-.042-2.4-.062-3.587-.055.346.443.686.893 1.025 1.357zm-48.194 26.419A47.779 47.779 0 0 1 105.7 438.2a70.523 70.523 0 0 1 15.538-16.826v-.174a39.47 39.47 0 0 0-13.662 2.853A35.189 35.189 0 0 0 93.27 434.82zm30.017-15.019a125.461 125.461 0 0 1 16.9-10.7c-.512-.692-1.025-1.385-1.544-1.994a104.14 104.14 0 0 0-15.483 1.6 38.16 38.16 0 0 0-.651 11.079zm-40.854 17.9a46.207 46.207 0 0 0-1.073 18.433q.893-3.3 2.077-6.419a57.475 57.475 0 0 1 7.132-13.662 19.187 19.187 0 0 0-8.164 1.613zm15.358-9.452a34.818 34.818 0 0 1 9.258-5.5A41.019 41.019 0 0 1 121.1 419.8a40.043 40.043 0 0 1 .568-10.809 124.233 124.233 0 0 0-17.179 4.591c-5.173 1.78-9.576 3.538-13.35 5.276a60.381 60.381 0 0 0-5.249 9.2 56.884 56.884 0 0 0-2.971 7.908 20.51 20.51 0 0 1 8.669-1.295 40.748 40.748 0 0 1 6.177-6.447zm25.738-21.126a106.377 106.377 0 0 1 13.925-1.468 27.58 27.58 0 0 0-3.919-3.677 18.005 18.005 0 0 0-6.232-3.047 24.665 24.665 0 0 0-3 5.837 21.726 21.726 0 0 0-.773 2.355zm-30.689 9.286c3.691-1.593 7.444-2.977 11.148-4.252a126.654 126.654 0 0 1 18-4.757 29.7 29.7 0 0 1 .942-3.123 26.824 26.824 0 0 1 2.825-5.678c-6.038-1.06-12.983.782-20 5.47a54.819 54.819 0 0 0-12.921 12.367zm-18.113 12.463a65.673 65.673 0 0 0-2.957 11.674c-.249 1.634-.436 3.261-.547 4.847a29.345 29.345 0 0 1 6.855-6.924 23.13 23.13 0 0 1 3.116-1.842 59.757 59.757 0 0 1 3.372-9.244 62.72 62.72 0 0 1 4.044-7.4 65.609 65.609 0 0 0-13.883 8.9z" class="cls-13" transform="translate(-16.118 -92.447)"/>
        <path id="Path_1286" d="M342.245 391.147c0-.485.388-5.657 8.268-5.927 0 0-3.878.464-4.542 2.167 0 0 2.638-2.077 4.785-1.426s3.407 4.439 3.421 5.678-1.177 5.228-2.541 5.539a4.037 4.037 0 0 1-1.655 0 17.682 17.682 0 0 1 1.059 1.89c3.144 6.454-.1 12.762-2.77 12.069-1.71-.45-2.2 2.465-2.2 2.465l-16.58-13.425s6.11-12.577 12.755-9.03z" class="cls-14" transform="translate(-101.545 -113.626)"/>
        <path id="Path_1287" d="M339.57 619.74l3.525 1.316s15.3-21.223 17.179-39.9a28.286 28.286 0 0 0-.5-9.542s.145-.852.409-2.368c.125-.692.27-1.551.443-2.52.492-2.853 1.177-6.751 1.96-11.19 1.8-10.22 4.155-23.28 5.948-32.884l-.949-.3-10.269-3.317-2.126-6.737-7.617-2.015s-1.71 3.344-3.241 19.125c-.277 2.077-.533 4.355-.727 6.834a135.266 135.266 0 0 0 .727 27.649q.526 4.155 1.343 8.489a37.712 37.712 0 0 1 .291 8.378c-.794 15.266-6.396 38.982-6.396 38.982z" class="cls-15" transform="translate(-104.664 -152.475)"/>
        <path id="Path_1288" fill="#1a3760" d="M345.36 534.674l16.618 33.008c.125-.692.27-1.551.443-2.52.492-2.853 1.177-6.751 1.96-11.19 1.8-10.22 4.155-23.28 5.948-32.884l-.949-.3-10.269-3.317-2.126-6.737-9.93-5.54s0 1.537-.866 18.336c-.296 2.094-.635 8.67-.829 11.144z" transform="translate(-106.448 -150.752)"/>
        <path id="Path_1289" d="M355.91 512.14l.381-3.3c6.447 1.71 24.395-6.294 24.395-6.294s5.5 6.994 4.674 20.143c-.395 6.419-1.129 33.68-1.89 41.754-.277 2.922-.519 5.006-.616 5.837a1.108 1.108 0 0 0 .187.693 37.872 37.872 0 0 1 2.811 5.92c7.492 19.949-1.149 44.524-1.149 44.524l-2.243-.845s-4.916-27.344-8.912-39.42a24.019 24.019 0 0 0-1.925-4.625c-1.738-2.77-3.345-7.381-4.847-12.831-2.77-10.3-4.992-23.7-6.467-34.04a101.673 101.673 0 0 0-4.399-17.516z" class="cls-15" transform="translate(-109.717 -150.097)"/>
        <path id="Path_1290" d="M338.14 448a19.949 19.949 0 0 0 7.416 1.738c11.079.609 13.586-9.1 14.043-15.538a9.252 9.252 0 0 0-3.795-.485c-.644.035-1.309.1-1.9.166a1.08 1.08 0 0 1-.775-.222c-1.385-1.094-3.518-4.411-4.8-9.632l-.478.222-7.991 3.76s.852 2.6 1.475 5.082a24.391 24.391 0 0 1 .6 2.957 1.759 1.759 0 0 1-1.059 1.821A54.2 54.2 0 0 0 338.14 448z" class="cls-17" transform="translate(-104.214 -125.614)"/>
        <path id="Path_1291" d="M375.86 486.218c-.09 4.092-28.93 7.728-33.888 4.979 0 0-1.288-6.232-2.929-13.191-.492-2.077-1.018-4.265-1.551-6.35a82.852 82.852 0 0 0-3.518-11.522c-.1-.222-.194-.436-.277-.658-2.209-5.858 1.932-12.125-.928-13.973 0 0 1.69-1.565 6.433-3.421-.076.277-.5 4.155.312 5.685 1.606 3.012 7.866 1.433 10.726-2.278a20.079 20.079 0 0 0 3.559-6.419c.132-.464.332-1.149.332-1.149s5.283-.693 8.254.492a22.58 22.58 0 0 0-1.606 5.353c-.042.27-.076.533-.1.8a10.563 10.563 0 0 0-.042 1.683 3.247 3.247 0 0 0 1.018 2.015 16.51 16.51 0 0 0 2.133 1.766c.547.395 1.142.81 1.745 1.267a142.865 142.865 0 0 0 .436 14.541 9.8 9.8 0 0 0 1.385 4.155 10.34 10.34 0 0 0 1.046 1.385c3.167 3.522 7.592 14.362 7.46 14.84z" class="cls-18" transform="translate(-102.578 -129.885)"/>
        <path id="Path_1292" fill="#f39355" d="M340.62 428.113s.852 2.6 1.475 5.089c4.674-1.3 6.093-6.232 6.516-8.842z" transform="translate(-104.967 -125.695)"/>
        <path id="Path_1293" d="M336.044 424.726s11.176-2.6 9.459-9.521-1.433-11.931-8.642-10.573-7.928 4.342-7.921 6.8 4.155 13.785 7.104 13.294z" class="cls-17" transform="translate(-101.367 -119.545)"/>
        <path id="Path_1294" d="M327.785 406.939c1.2-2.514 2.61-2.375 3.462-1.932a8.011 8.011 0 0 1 10.387-.886 13.655 13.655 0 0 0 6.273 6.744s-1.71 1.752-6.689 1.717a8.219 8.219 0 0 1-4.439-1.676 26.5 26.5 0 0 0 5.83 4.348c-6.232-1.191-10.387-8.4-10.837-9.168a9 9 0 0 0-1.62 3.836c-.111 1.9.54 5.6-.547 5.74.077.002-3.593-4.956-1.82-8.723z" class="cls-14" transform="translate(-100.864 -118.983)"/>
        <path id="Path_1295" d="M331.554 449s-.99.568-2.8 6.107c0 0 2.077 2.583 4.6 2.34.001-.027.34-7.847-1.8-8.447z" class="cls-18" transform="translate(-101.297 -133.307)"/>
        <path id="Path_1296" d="M378.66 672.459h17.747a9.757 9.757 0 0 0-.505-4.757c-.886-1.967-2.278-2.86-1.946-5.242a6.378 6.378 0 0 1-5.539 2.077 19.493 19.493 0 0 1-3.081 4c-1.143.863-6.316.563-6.676 3.922z" class="cls-20" transform="translate(-116.729 -199.28)"/>
        <path id="Path_1297" d="M323.65 672.812h17.74s.692-2.825-.5-4.757c-1.032-1.7-.637-2.673.125-4.078a6.98 6.98 0 0 1-2.984.561 6.171 6.171 0 0 1-2.638-.928 63.885 63.885 0 0 1-5.062 5.311c-1.155.831-6.331.533-6.681 3.891z" class="cls-20" transform="translate(-99.734 -199.633)"/>
        <path id="Path_1298" d="M296.1 478.879a11.347 11.347 0 0 0-2.534-2.541c-.976-.464-1.89-3.144-2.43-2.32-.325.505.505 2.382.291 2.8s-2.354-.471-2.735-1.073c-.249-.4-2.465-3.074-2.514-1.842s1.883 5.955 2.832 6.55a25.036 25.036 0 0 0 4.556 1.385z" class="cls-17" transform="translate(-88.151 -140.901)"/>
        <path id="Path_1299" fill="#ee7610" d="M360.892 464.61c-4.009 9.812-19.451 21.971-19.451 21.971l-.27-.3c-.492-2.077-1.018-4.266-1.551-6.35l16.452-15.317z" transform="translate(-104.671 -138.147)"/>
        <path id="Path_1300" d="M297.355 468.591l-.506 2.77s8.829 2.022 10.774 2.444a104.068 104.068 0 0 0 10.463 1.7 27.878 27.878 0 0 0 5.948.069 2.773 2.773 0 0 0 .457-.083c3.774-.755 9.93-5.263 15.531-10.546.776-.727 1.53-1.468 2.271-2.181a73.571 73.571 0 0 0 6.994-7.935 28.334 28.334 0 0 0 2.673-4.078 10.98 10.98 0 0 0 .6-1.226c3.185-7.042.145-9.618.145-9.618s-.125-.118-.215-.187c-.561-.374-1.385-.249-2.4.249a24.234 24.234 0 0 0-4.7 3.379c-2.818 2.493-19.721 23.072-23.667 23.854-3.407.724-24.368 1.389-24.368 1.389z" class="cls-17" transform="translate(-91.492 -130.41)"/>
        <path id="Path_1301" d="M369.55 438.5a5.38 5.38 0 0 1 3.746 4.577c.3 3.608-.173 14.777-.173 14.777s-11.259-3.227-15.843-10.116c-.028-.001 8.24-9.148 12.27-9.238z" class="cls-18" transform="translate(-110.122 -130.077)"/>
        <path id="Path_1302" fill="#f09c8e" d="M469.5 374.283c.464 1.9 1.246 4.75 1.447 5.47a.968.968 0 0 1 0 .346c-.076 1.046-.3 4.1-.561 7.935a1.025 1.025 0 0 0 1.385 1.025l4.951-1.98a1.018 1.018 0 0 0 .644-.962c0-1.939 0-7.284.242-7.679s.692.1 2.9-3.019a6.093 6.093 0 0 0 .748-2.514s.132-1.98-.318-2.167a.921.921 0 0 0-1.115.457c-.159.339-.118 1.142-.284 1.482a2.479 2.479 0 0 1-1.62.734c-.492 0-.208-1.2-.048-2.936a1.032 1.032 0 0 0-1.385-1.053 3.3 3.3 0 0 1-.374.1 4.156 4.156 0 0 1-1.018.1 6.853 6.853 0 0 0-1 0c-.692.083-1.309.3-1.966.415-.879.152-1.786.173-2.652.381-.319.076-.263.374-.277.692a11.259 11.259 0 0 0 .3 3.164z" transform="translate(-144.69 -108.716)"/>
        <path id="Path_1303" d="M573.532 361.974c-.533 2.188-1.489 5.643-1.489 5.643.076.949.353 4.9.692 9.743l-7.118-2.846s.083-7.894-.228-8.378-.693.1-2.908-3.026a6.071 6.071 0 0 1-.748-2.507s-.125-1.987.319-2.167a.921.921 0 0 1 1.115.45c.166.346.118 1.143.284 1.482a2.444 2.444 0 0 0 1.62.734c.436 0-.049-5.865-.049-5.865s-.242-1.655-.367-2.2-.526-1.821-.526-1.821-.492-1.967.118-2.112c.36-.09 1.274 1.509 1.9 3.2.692 1.828 1.059 3.767 1.253 3.739.457-.062.215-3.261.215-3.261a10.549 10.549 0 0 1-.443-2.16c-.422-.852-.692-2.424.042-2.555a12.685 12.685 0 0 1 1.136 1.973s.388 1.385.616 2.077c.4 1.156.464 2.991.692 3.8.173.692.332.395.4.422a16.909 16.909 0 0 0-.152-2.181 12.685 12.685 0 0 0-.159-2.112 15.321 15.321 0 0 1-.3-2.23c-.125-1.662.921-1.489 1.281 0 .138.575.284 1.2.422 1.842.561 2.486.547 4.847.817 4.9s.118-4.328.118-4.328.533-2.41 1.066-.173a19.837 19.837 0 0 1 .54 4.806c-.083.659.374 2.93-.159 5.111z" class="cls-23" transform="translate(-173.43 -102.149)"/>
        <path id="Path_1304" d="M548.1 636.36s3.954 4.9 4.937 5.5-.443 7.714-3.123 8.178c-1.51.263-2.347-1.385-2.347-1.385l.436-2.077-5.643-5.816z" class="cls-24" transform="translate(-167.293 -191.252)"/>
        <path id="Path_1305" d="M518.494 638.11s3.289 5.359 4.189 6.08-1.419 7.617-4.155 7.714c-1.53.069-2.153-1.683-2.153-1.683l.692-1.98-4.847-6.481z" class="cls-24" transform="translate(-157.981 -191.791)"/>
        <path id="Path_1306" d="M522.278 646.59a41.09 41.09 0 0 1-2.922 3.365 34.347 34.347 0 0 1-3.04 2.451s-1.932 3.5-2.458 4.729c-1.17 2.721-2.493 5.754-2.306 7.277.062.492 1.163 1.011 2.077.692 3.815-1.17 13.565-10.1 14.8-12.464 1.431-2.747-6.151-6.05-6.151-6.05z" class="cls-25" transform="translate(-157.779 -194.399)"/>
        <path id="Path_1307" fill="#3c8f7c" d="M485.161 527.48c.353-.99.692-1.911 1.025-2.77 4.058.886 8.635 1.856 13.35 2.86l.575 17.276c0-1.336-3.545 27.552-3.545 27.552s9.161 20.275 15.421 32.087a21.539 21.539 0 0 1-7.5 6.433c-9.694-11.654-22.449-32.988-22.975-36.533-.304-2.035-.574-35.009 3.649-46.905z" transform="translate(-148.477 -156.913)"/>
        <path id="Path_1308" fill="#56baa4" d="M529.436 533.742c-1.239 13.461-3.988 39.192-3.76 41.262.693 2.583 12.949 26.4 15.151 29.858-1.752 2.638-4.466 5.491-7.381 6.28-.575.152-20.773-28.632-21.9-30.917-1.246-2.583-3.324-16.667-3.358-34.109l-.575-17.276c7.887 1.676 15.064 3.317 21.823 4.902z" transform="translate(-156.592 -158.183)"/>
        <path id="Path_1309" fill="#35548a" d="M496.053 447.32l9.237 1.267s7.4.132 8.309.132 6.758 33.763 8.42 46.456.415 14.936.415 14.936-11.723 2.631-20.392 1.863c-9-.8-19.153-5.664-19.153-5.664s7.693-24.388 9.2-32 3.964-26.99 3.964-26.99z" transform="translate(-148.964 -132.869)"/>
        <path id="Path_1310" d="M469.448 387.741s-.6 25.135.353 27.06c1.385 2.77 16.9 22.629 16.9 22.629s-7.416 31.028-10.532 41.74c-.318 1.08-1.7 8.053-1.7 8.732 0 1.5 6.557 3.421 7.333 3.3s6.419-29.616 10.075-44.053a41.4 41.4 0 0 1 6.287-13.648l2.536-3.601-19.52-19.534s-2.41-21.763-2.41-23.543c.005-.501-8.38-.855-9.322.918z" class="cls-29" transform="translate(-144.74 -114.105)"/>
        <path id="Path_1311" d="M523.646 426.842l24.318-24.768s3.386-23.432 3.628-24.311 6.273-1.336 8.7-1.572c.782-.076-.409 24.928-1.572 29.145-1.385 4.958-19.748 27.538-19.748 27.538s-3.3 12.235-2.507 21.2c1.323 14.9 4.847 35.4 4.238 36.041-3.954 2.493-19.118 2.77-20.081 1.212-10.589-17.074 3.024-64.485 3.024-64.485z" class="cls-29" transform="translate(-159.385 -110.962)"/>
        <path id="Path_1312" d="M553.693 644a41.1 41.1 0 0 1-2.465 3.711 35.48 35.48 0 0 1-2.694 2.818s-1.468 3.718-1.835 5c-.817 2.853-1.745 6.294-1.385 7.783.118.471 1.17 1.385 2.036.824 3.344-2.181 12.277-12.381 13.156-14.908 1.122-2.895-6.813-5.228-6.813-5.228z" class="cls-25" transform="translate(-168.188 -193.602)"/>
        <path id="Path_1313" d="M512.608 402.655a25.62 25.62 0 0 0 3.1-.062 14.462 14.462 0 0 1 3.511 0c1.8.381 4.653 1.655 5.6 4.016 1.184 2.936 5.429 2.493.4 13.634-5.685 12.6-12.332 8.475-12.422 8.192s-3.289-10.677-3.289-10.677-3.975 3.94-3.905 3.767-5.417-19.325 7.005-18.87z" class="cls-30" transform="translate(-155.601 -118.959)"/>
        <path id="Path_1314" d="M514.883 439.089l-.658 4.93s-1.489 7.1.422 8.475 8.122-8.676 8.122-8.676l-.658-12.5z" class="cls-24" transform="translate(-158.427 -127.861)"/>
        <path id="Path_1315" fill="#ee745a" d="M522.615 435.383a14.181 14.181 0 0 1-8 7.9l.561-4.155 7.229-7.769z" transform="translate(-158.715 -127.862)"/>
        <path id="Path_1316" d="M517.626 410.531a6.578 6.578 0 0 0-9.438 3.524 50.892 50.892 0 0 0-1.71 6.114c-1.191 5.636.693 11.7 3.234 12.187s10.345-1.821 12.138-9.8c1.107-4.913-.492-9.885-4.224-12.025z" class="cls-24" transform="translate(-156.102 -121.177)"/>
        <path id="Path_1317" d="M525.917 427.839a2.126 2.126 0 0 0 1.385 2.61 2.169 2.169 0 0 0 2.278-1.911 1.907 1.907 0 1 0-3.663-.7z" class="cls-24" transform="translate(-162.186 -126.166)"/>
        <path id="Path_1318" d="M523.32 420.216s-3.178-.374-3.552-2.652-2.707-7.762-8.24-7.935 5.851-2.437 6.232-2.292l5.11 1.89s2.5 4.355 2.507 4.729-.3 4.349-.3 4.349z" class="cls-30" transform="translate(-157.307 -120.439)"/>
        <path id="Path_1319" d="M502.676 277.241a92.163 92.163 0 0 1-73.8 7.755c-20.6-6.793-36.429-20.8-44.558-39.5l.312-.138-.312.138c-11.127-25.565-13.752-48.831-7.8-69.16 5.643-19.284 18.945-35.82 39.517-49.163 24.076-15.58 47.238-19.534 68.849-11.771a82.8 82.8 0 0 1 27.268 16.916 137.043 137.043 0 0 1 22.234 26.527c7.271 11.079 12.263 22.061 14.839 32.669a66.5 66.5 0 0 1 .4 31.326c-4.966 20.998-20.768 39.279-46.949 54.401zm-80.821-152.806q-2.714 1.558-5.436 3.331c-20.441 13.226-33.638 29.622-39.233 48.747-5.906 20.171-3.3 43.284 7.762 68.69 8.053 18.509 23.73 32.413 44.143 39.136a91.418 91.418 0 0 0 73.239-7.7c26.015-15.012 41.705-33.154 46.629-53.92a65.854 65.854 0 0 0-.4-31c-2.555-10.539-7.52-21.465-14.749-32.461a136.73 136.73 0 0 0-22.116-26.389 82.326 82.326 0 0 0-27-16.778c-19.804-7.125-40.937-4.314-62.839 8.344z" class="cls-13" transform="translate(-115.516 -28.933)"/>
        <path id="Path_1320" d="M502.7 277.445a92.579 92.579 0 0 1-74.188 7.8c-20.571-6.782-36.412-20.745-44.654-39.345l-.381-.879c-11.01-25.5-13.579-48.72-7.617-69.05 5.678-19.388 19.042-36.007 39.718-49.4 24.235-15.67 47.515-19.637 69.244-11.771a83.991 83.991 0 0 1 27.427 17.013 137.746 137.746 0 0 1 22.3 26.617c7.305 11.114 12.318 22.158 14.908 32.821a67.247 67.247 0 0 1 .409 31.547c-4.982 21.113-20.86 39.469-47.166 54.647zm-80.813-152.806c-1.793 1.039-3.615 2.153-5.422 3.324-20.337 13.156-33.465 29.47-39.033 48.47-5.872 20.081-3.268 43.063 7.741 68.371 8 18.384 23.577 32.184 43.852 38.873a90.962 90.962 0 0 0 72.851-7.658c25.9-14.95 41.546-32.988 46.393-53.622a65.374 65.374 0 0 0-.4-30.779c-2.541-10.483-7.485-21.348-14.68-32.309A137.242 137.242 0 0 0 511.148 133a81.571 81.571 0 0 0-26.88-16.681c-19.596-7.052-40.591-4.262-62.381 8.32z" class="cls-13" transform="translate(-115.305 -28.728)"/>
        <path id="Path_1321" d="M504.4 282.044q-18.7 10.771-47.086 13.045a92.015 92.015 0 0 1-69.936-24.734c-15.677-14.991-23.931-34.462-23.238-54.834.956-27.864 8.593-50 22.712-65.781 13.385-14.984 32.5-24.187 56.78-27.365 28.431-3.711 51.046 2.68 67.166 19.007a82.77 82.77 0 0 1 17.345 27 138.641 138.641 0 0 1 8.662 33.507c1.807 13.115 1.586 25.191-.651 35.875a64.485 64.485 0 0 1-31.754 44.28zm-139.912-66.508h.346c-.692 20.178 7.492 39.469 23.023 54.315a91.428 91.428 0 0 0 69.43 24.547c29.948-2.375 51.933-12.007 65.29-28.632a65.926 65.926 0 0 0 12.971-28.166c2.216-10.608 2.437-22.6.644-35.647a136.989 136.989 0 0 0-8.621-33.334 82.225 82.225 0 0 0-17.193-26.776c-16-16.168-38.416-22.49-66.633-18.807-24.131 3.151-43.1 12.284-56.378 27.137-14.008 15.677-21.59 37.662-22.532 65.359z" class="cls-13" transform="translate(-112.651 -32.168)"/>
        <path id="Path_1322" d="M504.425 282.221c-12.464 7.2-28.39 11.612-47.252 13.108a92.659 92.659 0 0 1-70.338-24.865c-15.774-15.081-24.083-34.684-23.384-55.2.956-27.974 8.635-50.208 22.85-66.093 13.468-15.067 32.683-24.325 57.105-27.517 28.591-3.739 51.337 2.7 67.609 19.139a83.4 83.4 0 0 1 17.443 27.157 137.89 137.89 0 0 1 8.7 33.618c1.807 13.156 1.593 25.3-.658 36.007a65.073 65.073 0 0 1-32.074 44.648zM365.1 215.338c-.692 20.032 7.444 39.192 22.85 53.948a90.813 90.813 0 0 0 69.064 24.414c29.775-2.361 51.656-11.931 64.95-28.452a65.433 65.433 0 0 0 12.872-27.961c2.209-10.56 2.424-22.5.637-35.48a136.362 136.362 0 0 0-8.586-33.237 81.733 81.733 0 0 0-17.087-26.623c-15.926-16.051-38.174-22.331-66.231-18.7-24.021 3.144-42.889 12.221-56.087 27-13.9 15.645-21.44 37.505-22.382 65.091z" class="cls-13" transform="translate(-112.439 -31.943)"/>
        <path id="Path_1323" d="M513.634 280.69c-18.052 10.421-41.608 12.464-70.1 6.024A95.4 95.4 0 0 1 381.94 240.8c-10.906-19.631-13.087-41.421-6.156-61.35l.339.118-.339-.118c9.486-27.254 23.834-46.8 42.633-58.088 17.83-10.7 39.559-13.946 64.563-9.632 29.255 5.048 49.655 18.308 60.623 39.406a85.732 85.732 0 0 1 8.863 32.018 141.821 141.821 0 0 1-1.71 35.785c-2.237 13.523-6.156 25.392-11.647 35.273a68.954 68.954 0 0 1-21.687 24.118c-1.233.83-2.5 1.619-3.788 2.36zM419.92 121.312c-.381.215-.755.436-1.136.692-18.654 11.2-32.891 30.613-42.322 57.708-6.869 19.734-4.7 41.318 6.1 60.768a94.658 94.658 0 0 0 61.128 45.562c30.329 6.841 55 4.058 73.329-8.309a67.823 67.823 0 0 0 21.465-23.868c5.45-9.8 9.341-21.6 11.571-35.044a143.352 143.352 0 0 0 1.7-35.605 85.148 85.148 0 0 0-8.794-31.748c-10.857-20.891-31.083-34.026-60.1-39.033-24.303-4.196-45.478-1.205-62.941 8.877z" class="cls-13" transform="translate(-115.021 -28.421)"/>
        <path id="Path_1324" d="M513.68 280.893c-18.156 10.477-41.858 12.526-70.448 6.073a95.85 95.85 0 0 1-61.9-46.151c-10.892-19.6-13.156-41.345-6.343-61.281l.312-.907c9.528-27.13 23.882-46.6 42.682-57.888 17.927-10.767 39.767-14.029 64.888-9.694 29.408 5.076 49.918 18.419 60.934 39.656 4.847 9.286 7.831 20.122 8.919 32.2A142.449 142.449 0 0 1 551 218.8c-2.244 13.579-6.183 25.5-11.7 35.432a69.366 69.366 0 0 1-21.839 24.277c-1.233.831-2.514 1.634-3.808 2.382zm-93.735-159.371l-1.122.692c-18.557 11.141-32.731 30.467-42.121 57.472-6.82 19.6-4.667 41.048 6.073 60.373a94.181 94.181 0 0 0 60.81 45.334c28.189 6.357 51.462 4.369 69.244-5.893 1.267-.734 2.507-1.5 3.718-2.32a67.677 67.677 0 0 0 21.306-23.7c5.429-9.763 9.3-21.5 11.515-34.892a142.373 142.373 0 0 0 1.7-35.48c-1.073-11.861-4.009-22.483-8.739-31.575-10.788-20.773-30.9-33.8-59.764-38.776-24.182-4.239-45.253-1.269-62.62 8.765z" class="cls-13" transform="translate(-114.811 -28.208)"/>
        <path id="Path_1325" d="M485.385 294.963a66.549 66.549 0 0 1-22.206 8.108c-21.978 3.732-45.8-3.94-70.781-22.788a95.3 95.3 0 0 1-37.218-67.166c-1.856-22.38 5.124-43.132 19.651-58.442 19.869-20.931 40.985-32.834 62.769-35.375 20.662-2.41 41.789 3.58 62.8 17.809 24.581 16.618 37.7 37.128 39.012 60.872a85.73 85.73 0 0 1-5.1 32.828 142.229 142.229 0 0 1-16.293 31.907c-7.617 11.4-16.071 20.6-25.142 27.344a77.955 77.955 0 0 1-7.492 4.9zM375.094 154.891l.256.242c-14.382 15.157-21.3 35.716-19.464 57.888a94.686 94.686 0 0 0 36.941 66.7c24.824 18.7 48.47 26.347 70.234 22.657a68.276 68.276 0 0 0 29.387-12.914c9-6.7 17.408-15.843 24.976-27.178a139.515 139.515 0 0 0 16.189-31.741 84.961 84.961 0 0 0 5.069-32.544c-1.295-23.508-14.313-43.8-38.7-60.318-20.863-14.133-41.83-20.081-62.319-17.692-21.611 2.52-42.585 14.347-62.319 35.155z" class="cls-13" transform="translate(-109.816 -31.158)"/>
        <path id="Path_1326" d="M485.408 295.143a67.111 67.111 0 0 1-22.359 8.164c-22.116 3.753-46.061-3.947-71.155-22.85-21.216-16.051-35.231-41.276-37.405-67.589-1.863-22.518 5.159-43.4 19.783-58.809 19.949-21.015 41.165-32.967 63.06-35.522 20.773-2.43 42.017 3.587 63.122 17.886 24.713 16.736 37.911 37.343 39.226 61.246a86.243 86.243 0 0 1-5.131 33.008 143.33 143.33 0 0 1-16.349 32.011c-7.617 11.446-16.141 20.69-25.253 27.469a78.528 78.528 0 0 1-7.539 4.986zM375.484 155.229c-14.292 15.054-21.154 35.48-19.347 57.521a94.194 94.194 0 0 0 36.748 66.35c24.713 18.64 48.221 26.236 69.874 22.566a67.79 67.79 0 0 0 29.179-12.831c8.96-6.661 17.311-15.76 24.858-27.054a140.989 140.989 0 0 0 16.161-31.63A84.521 84.521 0 0 0 538 197.779c-1.288-23.356-14.236-43.527-38.492-59.951-20.773-14.063-41.622-19.991-61.994-17.616-21.488 2.514-42.358 14.288-62.03 35.017z" class="cls-13" transform="translate(-109.604 -30.922)"/>
        <path id="Path_1327" d="M508.929 273.622c-22.158 12.782-47.619 11.979-71.674 4.044-20.6-6.786-38.548-17.117-46.684-35.806-11.121-25.565-13.745-48.831-7.79-69.16 5.643-19.284 18.938-35.82 39.517-49.163 24.076-15.58 47.238-19.534 68.849-11.771a82.872 82.872 0 0 1 27.268 16.916 137.426 137.426 0 0 1 22.227 26.52c7.271 11.079 12.27 22.068 14.846 32.676a66.5 66.5 0 0 1 .4 31.326c-4.956 21.022-20.771 39.302-46.959 54.418zm-118.039-31.9l.319-.138c8.053 18.509 26.493 28.535 46.9 35.266 23.875 7.866 48.47 8.863 70.483-3.829 26.008-15.012 41.7-33.154 46.629-53.92a65.85 65.85 0 0 0-.4-31c-2.562-10.539-7.52-21.465-14.749-32.461a136.729 136.729 0 0 0-22.116-26.389 82.326 82.326 0 0 0-27-16.778c-21.4-7.714-44.357-3.788-68.24 11.668-20.434 13.232-33.632 29.629-39.233 48.754-5.906 20.171-3.289 43.284 7.769 68.69z" class="cls-13" transform="translate(-117.442 -27.813)"/>
        <path id="Path_1328" d="M508.968 273.835a74.866 74.866 0 0 1-35.349 9.86 106.085 106.085 0 0 1-36.7-5.768c-11.522-3.8-20.752-8.219-28.141-13.509-8.794-6.273-14.95-13.655-18.827-22.56-11.169-25.669-13.8-49.052-7.818-69.493 5.685-19.388 19.042-36.007 39.725-49.4C446.095 107.3 469.367 103.33 491.1 111.2a83.848 83.848 0 0 1 27.427 17.013 137.517 137.517 0 0 1 22.31 26.617c7.3 11.114 12.318 22.158 14.908 32.821a67.243 67.243 0 0 1 .4 31.547c-5.001 21.068-20.872 39.459-47.177 54.637zm-117.5-32.635c6.807 15.635 21.618 26.756 46.615 35 26.783 8.842 50.382 7.575 70.061-3.788 25.9-14.943 41.546-32.981 46.393-53.615a65.463 65.463 0 0 0-.4-30.779c-2.548-10.483-7.485-21.355-14.687-32.309a137.22 137.22 0 0 0-22.033-26.313 81.708 81.708 0 0 0-26.88-16.681c-21.251-7.665-44.067-3.753-67.817 11.619-20.337 13.156-33.472 29.477-39.033 48.471-5.867 20.085-3.256 43.087 7.781 68.395zm18.73 23.065c7.174 4.958 16.016 9.133 27 12.755a122.114 122.114 0 0 0 13.849 3.7 124.842 124.842 0 0 1-13.295-3.621c-11.108-3.658-20.234-7.889-27.552-12.833z" class="cls-13" transform="translate(-117.238 -27.618)"/>
        <path id="Path_1329" d="M185.071 189l2.638 2.264a3.005 3.005 0 0 1 .325 4.238l-8.734 10.186a3.005 3.005 0 0 1-4.238.325l-2.638-2.264z" class="cls-32" transform="translate(-53.011 -52.992)"/>
        <path id="Path_1330" fill="#bdbec0" d="M80.31 112.77c30.765 1.385 61.281 29.38 61.281 29.38l20.3 17.415-22.933 26.763-20.3-17.415S86.376 142.96 80.31 112.77z" transform="translate(-24.445 -29.31)"/>
        <path id="Path_1331" d="M168.83 153.795s13.26-9.756 30.737 5.242l8.739 7.5-3.393 3.954s-13.454-10.5-19.991-2.887z" class="cls-34" transform="translate(-51.914 -41.153)"/>
        <path id="Path_1332" d="M134.936 193.82s-7.617 14.59 9.846 29.588l8.739 7.5 3.4-3.961s-12.429-11.7-5.893-19.312z" class="cls-34" transform="translate(-40.923 -54.492)"/>
        <circle id="Ellipse_131" cx="11.806" cy="11.806" r="11.806" class="cls-35" transform="translate(81.465 126.876) rotate(-81.91)"/>
        <circle id="Ellipse_132" cx="8.96" cy="8.96" r="8.96" class="cls-32" transform="translate(85.124 125.02) rotate(-85.14)"/>
        <path id="Rectangle_555" d="M0 0H35.259V3.905H0z" class="cls-35" transform="translate(101.626 145.912) rotate(-49.37)"/>
        <path id="Path_1333" fill="#d7e8f4" d="M182.35 208.576l4.369-5.089 4.369-5.1s14.777 3.608 15.469 22.116c-18.397 2.129-24.207-11.927-24.207-11.927z" transform="translate(-56.083 -55.896)"/>
        <path id="Path_1334" fill="#31549a" d="M184.44 207.641l2.922-3.407 2.922-3.414s9.888 2.417 10.387 14.8c-12.346 1.424-16.231-7.979-16.231-7.979z" transform="translate(-56.724 -56.643)"/>
        <path id="Path_1335" d="M95.744 144.662c-6.814-9.154-13.087-20.2-15.434-31.852 11.9.547 23.771 5.069 33.853 10.387z" class="cls-34" transform="translate(-24.445 -29.322)"/>
        <path id="Path_1336" fill="#b9b7b5" d="M129.762 188.179a138.285 138.285 0 0 1-13.3-12.7c26.562 13.315 44.475 10.532 52.909 7.617l-19.3 22.518z" transform="translate(-35.736 -48.822)"/>
        <path id="Path_1337" fill="#dcdbd9" d="M159.842 189.639l-10.158 11.9-2.964-2.541 8.379-9.763c1.634.175 3.226.32 4.743.404z" transform="translate(-45.07 -53.061)"/>
        <g id="Group_116" opacity="0.13" transform="translate(58.039 85.32)">
            <path id="Path_1338" d="M112.4 124.751s-16.985-9.5-28.951-9.292c0 0 15.15 3.857 26.506 12.131z" class="cls-1" transform="translate(-83.45 -115.455)"/>
        </g>
        <path id="Path_1339" d="M125 166.55c4.321 1.44 11.017 3.164 16.238.249a8.855 8.855 0 0 1-1.26 1.911A8.96 8.96 0 0 1 125 166.55z" class="cls-41" transform="translate(-38.361 -46.051)"/>
        <path id="Path_1340" d="M179.3 208.161a3.005 3.005 0 0 1-4.238.325l-2.638-2.264s7.617-1.17 16.155-9.182a2.965 2.965 0 0 1-.54.935z" class="cls-41" transform="translate(-53.011 -55.473)"/>
        <path id="Path_1341" fill="#4a6fb0" d="M149.127 235.861c-.6-.519-1.17-1.032-1.717-1.551a60.727 60.727 0 0 0 13.039 4.265c.5.533.817.824.817.824l-3.4 3.961z" transform="translate(-45.283 -66.985)"/>
        <path id="Path_1342" fill="#f3bd90" d="M76.955 325.363l-33.715 9.694L63.9 316.32l1.856 4.826 8.572.353z" transform="translate(-13.043 -92.329)"/>
        <path id="Path_1343" d="M43.24 332.7l26.569-18.744 27.864-5.311z" class="cls-44" transform="translate(-13.043 -89.961)"/>
        <path id="Path_1344" d="M63.9 312.749l-20.66 18.738 14.285-26.777z" class="cls-44" transform="translate(-13.043 -88.749)"/>
        <path id="Path_1345" fill="#f3caa7" d="M580.32 81.835l35.134 5-23.321-15.885-1.184 5.1-8.549 1.55z" transform="translate(-179.152 -16.447)"/>
        <path id="Path_1346" d="M605.341 86.561L576.1 71.493l-28.66-1.433z" class="cls-44" transform="translate(-169.039 -16.174)"/>
        <path id="Path_1347" d="M597.38 66.976l23.32 15.885-18.051-24.831z" class="cls-44" transform="translate(-184.399 -12.474)"/>
        <path id="Path_1348" d="M116.4 298.767l4.342-1.738a1.849 1.849 0 0 0 1.032-.8 1.752 1.752 0 0 0 .18-1.329 1.794 1.794 0 0 0-.8-1.039 1.71 1.71 0 0 0-1.336-.173l-4.335 1.738a1.925 1.925 0 0 0-1.039.8 1.8 1.8 0 0 0-.173 1.336 1.752 1.752 0 0 0 .8 1.032 1.662 1.662 0 0 0 1.329.173z" class="cls-1" transform="translate(-34.873 -85.306)"/>
        <path id="Path_1349" d="M138.611 293.342h4.5a1.731 1.731 0 0 0 0-3.462h-4.5a1.731 1.731 0 1 0 0 3.462z" class="cls-1" transform="translate(-42.028 -84.148)"/>
        <path id="Path_1350" d="M160.061 293.992h5.394a1.731 1.731 0 1 0 0-3.462h-5.394a1.731 1.731 0 1 0 0 3.462z" class="cls-1" transform="translate(-48.655 -84.348)"/>
        <path id="Path_1351" d="M187.567 301.567a8.9 8.9 0 0 1 2.153.609l-.409-.173a9.151 9.151 0 0 1 1.932 1.129l-.353-.27a9.33 9.33 0 0 1 .789.692 1.731 1.731 0 0 0 2.444-2.444 10.428 10.428 0 0 0-5.636-2.874 1.869 1.869 0 0 0-1.336.173 1.759 1.759 0 0 0-.789 1.032 1.731 1.731 0 0 0 .173 1.336 1.676 1.676 0 0 0 1.032.8z" class="cls-1" transform="translate(-57.294 -86.714)"/>
        <path id="Path_1352" d="M212.117 314.466h.069l-.464.062a7.617 7.617 0 0 1 1.987 0l-.457-.062a7.753 7.753 0 0 1 1.849.492 1.727 1.727 0 0 0 1.953-2.541l-.27-.353a1.732 1.732 0 0 0-.762-.443 9.048 9.048 0 0 0-2.382-.561 9.32 9.32 0 0 0-2.444.076 1.738 1.738 0 0 0-1.039.8 1.793 1.793 0 0 0-.173 1.336 1.772 1.772 0 0 0 .8 1.032l.415.173a1.73 1.73 0 0 0 .921 0z" class="cls-1" transform="translate(-64.593 -90.676)"/>
        <path id="Path_1353" d="M243.927 313.506l5.366-1.032a1.717 1.717 0 0 0 1.039-.8 1.745 1.745 0 0 0 .173-1.329 1.78 1.78 0 0 0-2.126-1.212l-5.373 1.032a1.724 1.724 0 0 0-1.032.8 1.752 1.752 0 0 0-.18 1.329 1.78 1.78 0 0 0 2.133 1.212z" class="cls-1" transform="translate(-74.42 -90.081)"/>
        <path id="Path_1354" d="M266.114 301.675l3.767-6.426a1.752 1.752 0 0 0-.623-2.368 1.773 1.773 0 0 0-2.368.623l-3.795 6.426a1.732 1.732 0 0 0 2.991 1.745z" class="cls-1" transform="translate(-80.944 -85.011)"/>
        <path id="Path_1355" d="M265.7 280.833l-1.946-2.451a1.26 1.26 0 0 0-.554-.36 1.315 1.315 0 0 0-.692-.152 1.752 1.752 0 0 0-1.219.512 1.724 1.724 0 0 0-.512 1.219l.062.464a1.745 1.745 0 0 0 .45.762l1.946 2.451a1.226 1.226 0 0 0 .554.36 1.3 1.3 0 0 0 .692.152 1.759 1.759 0 0 0 1.226-.512 1.717 1.717 0 0 0 .505-1.219l-.062-.464a1.669 1.669 0 0 0-.443-.762z" class="cls-1" transform="translate(-80.301 -80.439)"/>
        <path id="Path_1356" d="M248.685 278.108a10.218 10.218 0 0 1-.741 1.129l.27-.353a9.091 9.091 0 0 1-1.627 1.634l.346-.27-.152.118a1.267 1.267 0 0 0-.485.45 1.308 1.308 0 0 0-.312.589 1.787 1.787 0 0 0 .173 1.33 1.731 1.731 0 0 0 1.039.8 1.683 1.683 0 0 0 1.329-.173 10.943 10.943 0 0 0 1.766-1.579 10.83 10.83 0 0 0 1.385-1.925 1.821 1.821 0 0 0 .18-1.329 1.786 1.786 0 0 0-.8-1.039 1.738 1.738 0 0 0-1.336-.173 1.773 1.773 0 0 0-1.032.8z" class="cls-1" transform="translate(-75.713 -80.248)"/>
        <path id="Path_1357" d="M244.53 293.763a5.539 5.539 0 0 0 1.35 3.525 3.88 3.88 0 0 0 .623.637 1.336 1.336 0 0 0 .561.353 1.274 1.274 0 0 0 .692.152 1.733 1.733 0 0 0 1.226-2.957 3.817 3.817 0 0 1-.644-.651l.27.353a4.244 4.244 0 0 1-.526-.907l.173.415a4.273 4.273 0 0 1-.263-.969l.062.457a2.64 2.64 0 0 1-.035-.409 1.849 1.849 0 0 0-.512-1.226 1.731 1.731 0 0 0-2.95 1.226z" class="cls-1" transform="translate(-75.281 -84.816)"/>
        <path id="Path_1358" d="M261.648 313.035l1.433 2.465a1.8 1.8 0 0 0 1.032.8 1.309 1.309 0 0 0 .692 0 1.282 1.282 0 0 0 .644-.2 1.752 1.752 0 0 0 .789-1.039 1.786 1.786 0 0 0-.173-1.329l-1.426-2.472a1.8 1.8 0 0 0-1.032-.8 1.309 1.309 0 0 0-.692 0 1.226 1.226 0 0 0-.644.208 1.752 1.752 0 0 0-.8 1.032 1.835 1.835 0 0 0 .173 1.336z" class="cls-1" transform="translate(-80.498 -90.492)"/>
        <path id="Path_1359" d="M272.106 327.953l1.613 2.846a1.731 1.731 0 0 0 3.164-.409 1.835 1.835 0 0 0-.173-1.336l-1.62-2.846a1.731 1.731 0 0 0-3.164.408 1.835 1.835 0 0 0 .18 1.337z" class="cls-1" transform="translate(-83.727 -95.106)"/>
        <path id="Path_1360" d="M285.811 345.6h.249l-.457-.062a5.916 5.916 0 0 1 1.5.409l-.408-.173a6.052 6.052 0 0 1 1.343.775l-.353-.27a6.138 6.138 0 0 1 .824.762 1.738 1.738 0 0 0 2.957-1.226 1.911 1.911 0 0 0-.512-1.226 7.327 7.327 0 0 0-2.147-1.641 8.366 8.366 0 0 0-2.991-.838 1.717 1.717 0 0 0-1.219.505 1.787 1.787 0 0 0-.512 1.226 1.759 1.759 0 0 0 .512 1.226 1.932 1.932 0 0 0 1.219.505z" class="cls-1" transform="translate(-87.5 -100.284)"/>
        <path id="Path_1361" d="M303.47 356.223h2.444a1.766 1.766 0 0 0 1.226-.505 1.281 1.281 0 0 0 .36-.554 1.384 1.384 0 0 0 .145-.692 1.745 1.745 0 0 0-.505-1.219 1.8 1.8 0 0 0-1.226-.512h-2.444a1.787 1.787 0 0 0-1.226.512 1.267 1.267 0 0 0-.353.554 1.3 1.3 0 0 0-.152.692 1.752 1.752 0 0 0 .505 1.226 1.793 1.793 0 0 0 1.226.505z" class="cls-1" transform="translate(-92.953 -103.565)"/>
        <path id="Path_1362" d="M321.657 359.443a6.472 6.472 0 0 1 1.385 0l-.457-.062a6.231 6.231 0 0 1 1.62.443l-.415-.173a6.164 6.164 0 0 1 1.323.769l-.353-.27c.166.125.319.256.471.395a1.731 1.731 0 0 0 2.444-2.444 7.818 7.818 0 0 0-6-2.14 1.911 1.911 0 0 0-1.226.505 1.78 1.78 0 0 0-.505 1.226 1.752 1.752 0 0 0 .505 1.226 1.676 1.676 0 0 0 1.226.505z" class="cls-1" transform="translate(-98.579 -104.554)"/>
        <path id="Path_1363" d="M567.692 57.421L571.1 59.2a1.835 1.835 0 0 0 1.336.18 1.786 1.786 0 0 0 1.039-.8 1.731 1.731 0 0 0-.623-2.368l-3.427-1.78a1.814 1.814 0 0 0-1.33-.18 1.786 1.786 0 0 0-1.039.8 1.731 1.731 0 0 0 .623 2.368z" class="cls-1" transform="translate(-175 -11.296)"/>
        <path id="Path_1364" d="M533.671 45.9l6.924.63a1.738 1.738 0 0 0 1.731-1.731 1.78 1.78 0 0 0-1.726-1.729l-6.924-.63a1.738 1.738 0 0 0-1.731 1.731 1.766 1.766 0 0 0 1.726 1.729z" class="cls-1" transform="translate(-164.073 -7.679)"/>
        <path id="Path_1365" d="M501.231 46.912h7.478a1.731 1.731 0 0 0 0-3.462h-7.478a1.731 1.731 0 0 0 0 3.462z" class="cls-1" transform="translate(-154.052 -7.989)"/>
        <path id="Path_1366" d="M469.7 59.26a27.461 27.461 0 0 0 10.068-2.687 1.731 1.731 0 0 0 .616-2.368 1.773 1.773 0 0 0-2.368-.623c-.353.166-.692.332-1.066.485l-.284.111c-.18.076-.367.145-.547.208a22.259 22.259 0 0 1-2.16.692c-.692.194-1.468.353-2.209.485l-.5.076h-.042l-.332.042q-.582.062-1.163.1a1.731 1.731 0 0 0 0 3.462z" class="cls-1" transform="translate(-144.317 -11.037)"/>
        <path id="Path_1367" d="M443.124 68.826l-6.35 6.924a1.731 1.731 0 1 0 2.444 2.451l6.329-6.925a1.731 1.731 0 0 0-2.423-2.451z" class="cls-1" transform="translate(-134.515 -15.673)"/>
        <path id="Path_1368" d="M427.042 93.771a19.935 19.935 0 0 0-3.9 7.091 1.752 1.752 0 0 0 1.2 2.133 1.773 1.773 0 0 0 2.14-1.191c.166-.554.395-1.087.582-1.634 0 .076-.139.325-.049.118.035-.069.062-.132.09-.2s.118-.263.18-.388c.138-.277.277-.554.422-.824.277-.505.582-1 .907-1.475.159-.242.332-.471.505-.692s-.215.27-.076.09l.139-.166q.145-.187.312-.374a1.876 1.876 0 0 0 .506-1.226 1.731 1.731 0 0 0-2.964-1.26z" class="cls-1" transform="translate(-130.44 -23.307)"/>
        <path id="Path_1369" d="M470.611 371.635a10.461 10.461 0 0 0 .284 1.475c.1.132.194.519.443.547a.81.81 0 0 0 .769-.589 31.609 31.609 0 0 0 0-3.711c-.1-.395-1.35-.325-1.5-.208a1.094 1.094 0 0 0-.381.692 8.792 8.792 0 0 0 .381 1.793z" class="cls-23" transform="translate(-144.998 -108.607)"/>
        <path id="Path_1370" d="M473.237 371.507a11.076 11.076 0 0 0 .125 1.606c.09.145.145.568.4.63a.845.845 0 0 0 .872-.54 31.881 31.881 0 0 0 .436-3.94c-.055-.429-1.385-.505-1.544-.4a1.212 1.212 0 0 0-.478.692 9.56 9.56 0 0 0 .189 1.952z" class="cls-23" transform="translate(-145.869 -108.534)"/>
        <path id="Path_1371" d="M476.106 371.875a13.54 13.54 0 0 0 .1 1.814c.09.173.138.644.395.692a.872.872 0 0 0 .879-.623 42.7 42.7 0 0 0 .5-4.473c-.055-.485-1.385-.554-1.537-.429a1.419 1.419 0 0 0-.5.8 12.519 12.519 0 0 0 .163 2.219z" class="cls-23" transform="translate(-146.761 -108.529)"/>
        <path id="Path_1372" d="M479.1 371.754a12.927 12.927 0 0 0 .111 1.676c.09.152.145.589.4.658a.859.859 0 0 0 .872-.568 36.243 36.243 0 0 0 .457-4.113c-.055-.45-1.385-.519-1.537-.415a1.3 1.3 0 0 0-.492.741 10.967 10.967 0 0 0 .189 2.021z" class="cls-23" transform="translate(-147.679 -108.574)"/>
        <g id="This_image_has_been_designed_using_resources_from_Freepik.com" transform="translate(201.748 478.504)">
            <text id="This_image_has_been_designed_using_resources_from_Freepik.com-2" transform="translate(0 4)" style="isolation:isolate" fill="#fff" font-family="ArialMT, Arial" font-size="4px">
                <tspan x="0" y="0">This image has been designed using resources from Freepik.com</tspan>
            </text>
        </g>
    </g>
</svg>
