<svg xmlns="http://www.w3.org/2000/svg" xmlns:xlink="http://www.w3.org/1999/xlink" width="1130" height="382" viewBox="0 0 1130 382">
    <defs>
        <linearGradient id="linear-gradient" x1="-.011" x2="3.124" y1=".408" y2="1.012" gradientUnits="objectBoundingBox">
            <stop offset="0" stop-color="#50ffc5"/>
            <stop offset=".06" stop-color="#4bf9c5"/>
            <stop offset=".46" stop-color="#30d6c4"/>
            <stop offset=".79" stop-color="#1fc1c3"/>
            <stop offset="1" stop-color="#19b9c3"/>
        </linearGradient>
        <linearGradient id="linear-gradient-2" x1="-1.321" x2="2.216" y1=".097" y2=".877" xlink:href="#linear-gradient"/>
        <linearGradient id="linear-gradient-3" x1="-2.488" x2="1.044" y1="-.148" y2=".62" xlink:href="#linear-gradient"/>
        <linearGradient id="linear-gradient-6" x1="-2.488" x2="1.044" y1="-.148" y2=".62" xlink:href="#linear-gradient"/>
        <linearGradient id="linear-gradient-8" x1="-1.321" x2="2.216" y1=".096" y2=".877" xlink:href="#linear-gradient"/>
        <linearGradient id="linear-gradient-13" x1="-.011" x2="3.124" y1=".408" y2="1.012" xlink:href="#linear-gradient"/>
        <linearGradient id="linear-gradient-15" x1="-2.488" x2="1.044" y1="-.148" y2=".62" xlink:href="#linear-gradient"/>
        <style>
            .cls-2{fill:#fff}.cls-3{fill:url(#linear-gradient)}.cls-4{fill:url(#linear-gradient-2)}.cls-5{fill:url(#linear-gradient-3)}.cls-6{fill:url(#linear-gradient-6)}.cls-7{fill:url(#linear-gradient-8)}
        </style>
    </defs>
    <g id="product" transform="translate(-118 -2241)">
        <rect id="Rectangle_1044" width="1130" height="382" fill="#393f48" rx="30" transform="translate(118 2241)"/>
        <g id="Layer_2" transform="translate(560.919 2493)">
            <g id="圖層_1">
                <path id="Path_31737" d="M855.245 27.279V24.6a2.829 2.829 0 0 1 2.833-2.825 2.829 2.829 0 0 1 2.838 2.825v2.674a1.112 1.112 0 0 0 1.111 1.11h3.919a2.693 2.693 0 0 1 2.7 2.691 2.7 2.7 0 0 1-2.7 2.694h-3.919a1.109 1.109 0 0 0-1.111 1.108v12.091c0 3.114 1.111 4.172 3.76 4.172h1.293a2.564 2.564 0 0 1 2.568 2.561 2.564 2.564 0 0 1-2.568 2.568H863.5c-5.772 0-8.261-2.324-8.261-9.61V34.882a1.109 1.109 0 0 0-1.111-1.108 2.7 2.7 0 0 1-2.7-2.694 2.7 2.7 0 0 1 2.7-2.7 1.112 1.112 0 0 0 1.117-1.101z" class="cls-2" transform="translate(-637.019 -16.281)"/>
                <path id="Path_31738" d="M456.3 20.315a3.119 3.119 0 0 1-3.123 3.115h-10.7c-6.885 0-9.9 3.435-9.9 11.618 0 8.133 2.964 11.565 9.9 11.565h10.7a3.119 3.119 0 0 1 3.123 3.117 3.119 3.119 0 0 1-3.123 3.115h-10.7c-10.433 0-16.159-5.862-16.159-17.8 0-11.986 5.772-17.847 16.159-17.847h10.7a3.119 3.119 0 0 1 3.123 3.117z" class="cls-2" transform="translate(-318.98 -12.857)"/>
                <path id="Path_31739" d="M578.973 2.8v6.5a2.8 2.8 0 0 0 2.808 2.793h7.042c9.425 0 14.086 4.534 14.086 12.2v12.886a2.8 2.8 0 0 1-2.808 2.8h-.053a2.8 2.8 0 0 1-2.792-2.793V24.3c0-4.282-2.6-6.8-8.421-6.8h-7.055a2.8 2.8 0 0 0-2.808 2.8v16.9a2.8 2.8 0 0 1-2.805 2.8 2.8 2.8 0 0 1-2.808-2.8V2.8a2.8 2.8 0 0 1 2.809-2.8 2.8 2.8 0 0 1 2.805 2.8z" class="cls-2" transform="translate(-428.997)"/>
                <path id="Path_31740" d="M737.8 48c6.989 0 9.741 3.919 9.741 9.213v13.129c0 4.025-1.058 5.613-5.769 5.613h-13.08c-6.618 0-9.372-3.229-9.372-8.526 0-5.083 2.542-8.047 9.425-8.047h11.172a2.118 2.118 0 0 0 2.118-2.118c0-2.171-1.217-3.866-4.292-3.866h-14.027a2.7 2.7 0 0 1-2.709-2.692A2.7 2.7 0 0 1 723.716 48zm4.234 21.075v-3.118a2.118 2.118 0 0 0-2.118-2.118h-11.065c-2.964 0-4.025 1.22-4.025 3.282s1.114 3.388 3.919 3.388H740.5c1.113 0 1.535-.422 1.535-1.427z" class="cls-2" transform="translate(-538.265 -35.978)"/>
                <path id="Path_31741" d="M19.909 31.88h-8.365c-4.184 0-5.3-2.06-5.3-4.225 0-2.483 1.429-4.225 4.658-4.225H26.1a3.119 3.119 0 0 0 3.126-3.115A3.119 3.119 0 0 0 26.1 17.2h-15C3.176 17.2 0 21.528 0 27.443c0 4.965 2.224 10.3 11.756 10.3h8.312c4.4 0 5.613 2.113 5.613 4.437 0 2.586-1.535 4.434-4.923 4.434h-17a3.117 3.117 0 0 0 0 6.232h16.787c8.155 0 11.385-4.437 11.385-10.457-.001-5.123-2.278-10.509-12.021-10.509z" class="cls-3" transform="translate(0 -12.857)"/>
                <path id="Path_31742" d="M157.866 64.634h11.279c6.883 0 9.478-2.914 9.478-8.049 0-5.4-2.805-8.585-9.425-8.585h-9.044c-6.991 0-9.743 3.919-9.743 9.213v9.531c0 5.3 2.752 9.213 9.743 9.213h14.366a2.729 2.729 0 0 0 2.727-2.709 2.727 2.727 0 0 0-2.727-2.727h-14.367c-3.073 0-4.292-1.641-4.292-3.866a2.02 2.02 0 0 1 2.005-2.021zm-2.02-7.36c0-2.171 1.217-3.866 4.292-3.866h9c2.755 0 3.972 1.376 3.972 3.494 0 2.065-1.111 3.335-4.131 3.335h-11.108a2.02 2.02 0 0 1-2.02-2.02z" class="cls-4" transform="translate(-112.539 -35.978)"/>
                <path id="Path_31743" d="M305.589 48h-14.083a2.7 2.7 0 1 0 0 5.4h14.031c3.07 0 4.292 1.694 4.292 3.866a2.118 2.118 0 0 1-2.118 2.118h-11.176c-6.883 0-9.425 2.964-9.425 8.047 0 5.3 2.752 8.526 9.372 8.526h13.071c4.714 0 5.772-1.588 5.772-5.613V57.212c.008-5.29-2.742-9.212-9.736-9.212zm4.237 21.075c0 1.01-.424 1.429-1.535 1.429h-11.756c-2.808 0-3.919-1.326-3.919-3.388s1.058-3.282 4.025-3.282h11.066a2.118 2.118 0 0 1 2.118 2.118z" class="cls-5" transform="translate(-214.819 -35.974)"/>
            </g>
        </g>
        <g id="Layer_2-2" transform="translate(437.351 2281.106)">
            <g id="圖層_1-2">
                <path id="Path_31744" d="M692.245 33.35c7.155 0 10.186 3.433 10.186 9.278 0 5.55-2.8 8.7-10.244 8.7H680a2.183 2.183 0 0 0-2.183 2.183c0 2.4 1.318 4.178 4.639 4.178h15.537a2.947 2.947 0 0 1 2.947 2.947 2.95 2.95 0 0 1-2.947 2.947H682.46c-7.553 0-10.53-4.235-10.53-9.957V43.307c0-5.73 2.977-9.957 10.53-9.957zm-14.421 11.043a2.183 2.183 0 0 0 2.183 2.183h12.006c3.275 0 4.464-1.364 4.464-3.6 0-2.289-1.315-3.777-4.292-3.777h-9.725c-3.318 0-4.639 1.831-4.639 4.178z" class="cls-2" transform="translate(-488.58 -24.25)"/>
                <path id="Path_31745" d="M828.872 33.35c7.155 0 10.186 3.433 10.186 9.278 0 5.55-2.8 8.7-10.243 8.7h-12.186a2.183 2.183 0 0 0-2.183 2.183c0 2.4 1.318 4.178 4.639 4.178h15.537a2.947 2.947 0 0 1 2.947 2.947 2.95 2.95 0 0 1-2.947 2.947H819.09c-7.553 0-10.53-4.235-10.53-9.957V43.307c0-5.73 2.977-9.957 10.53-9.957zm-14.418 11.043a2.183 2.183 0 0 0 2.183 2.183h12.006c3.274 0 4.464-1.364 4.464-3.6 0-2.289-1.315-3.777-4.292-3.777h-9.725c-3.318 0-4.639 1.831-4.639 4.178z" class="cls-2" transform="translate(-587.928 -24.25)"/>
                <path id="Path_31746" d="M940.71 13.081v-2.89a3.062 3.062 0 0 1 3.062-3.062 3.062 3.062 0 0 1 3.061 3.062v2.89a1.2 1.2 0 0 0 1.2 1.2h4.235a2.917 2.917 0 0 1 2.917 2.906 2.92 2.92 0 0 1-2.917 2.92h-4.235a1.2 1.2 0 0 0-1.2 1.2v13.1c0 3.375 1.2 4.521 4.063 4.521h1.4a2.775 2.775 0 0 1 2.775 2.775 2.775 2.775 0 0 1-2.771 2.777h-2.66c-6.238 0-8.928-2.519-8.928-10.415V21.322a1.2 1.2 0 0 0-1.2-1.2 2.92 2.92 0 0 1-2.92-2.931 2.917 2.917 0 0 1 2.92-2.917 1.2 1.2 0 0 0 1.198-1.193z" class="cls-2" transform="translate(-681.023 -5.184)"/>
                <path id="Path_31747" d="M427.2 39.315a3.381 3.381 0 0 1-3.168-4.557l10.261-27.606c1.49-4.4 3.951-7.152 9.1-7.152 5.722 0 8.579 3.375 8.579 8.413v22.833a1.968 1.968 0 0 0 1.946 2.183 2.27 2.27 0 0 0 2.183-1.6l9.383-24.669c1.5-4.412 3.951-7.16 9.1-7.16 5.73 0 8.584 3.375 8.584 8.413v27.524a3.381 3.381 0 0 1-3.381 3.378h-.052a3.378 3.378 0 0 1-3.378-3.378V8.756a1.986 1.986 0 0 0-1.946-2.232 2.3 2.3 0 0 0-2.118 1.659l-9.387 24.665C461.419 37.255 458.9 40 453.751 40c-5.665 0-8.527-3.375-8.527-8.459V8.756a2.027 2.027 0 0 0-2-2.232 2.305 2.305 0 0 0-2.124 1.659L430.361 37.11a3.378 3.378 0 0 1-3.165 2.2z" class="cls-2" transform="translate(-308.169)"/>
                <path id="Path_31748" d="M21.516 18.428h-9.04c-4.521 0-5.73-2.232-5.73-4.579 0-2.69 1.544-4.579 5.034-4.579H28.2a3.375 3.375 0 0 0 3.382-3.37 3.375 3.375 0 0 0-3.37-3.375H12.006C3.433 2.52 0 7.211 0 13.62 0 19 2.4 24.781 12.7 24.781h8.983c4.751 0 6.066 2.289 6.066 4.805 0 2.805-1.659 4.808-5.321 4.808H4.063a3.378 3.378 0 0 0 0 6.754H22.2c8.814 0 12.3-4.808 12.3-11.332.007-5.551-2.454-11.388-12.984-11.388z" class="cls-3" transform="translate(0 -1.832)"/>
                <path id="Path_31749" d="M158.468 51.3h12.189c7.438 0 10.244-3.149 10.244-8.7 0-5.837-3.032-9.278-10.186-9.278h-9.775c-7.556 0-10.53 4.232-10.53 9.957v10.3c0 5.73 2.974 9.957 10.53 9.957h15.526a2.95 2.95 0 0 0 2.947-2.947 2.947 2.947 0 0 0-2.947-2.947H160.94c-3.321 0-4.639-1.774-4.639-4.178a2.183 2.183 0 0 1 2.167-2.164zm-2.183-7.954c0-2.347 1.315-4.178 4.639-4.178h9.728c2.977 0 4.292 1.487 4.292 3.777 0 2.232-1.2 3.6-4.464 3.6h-12.007a2.183 2.183 0 0 1-2.183-2.183z" class="cls-4" transform="translate(-109.368 -24.228)"/>
                <path id="Path_31750" d="M307.081 33.346h-15.22a2.92 2.92 0 1 0 0 5.837h15.163c3.318 0 4.639 1.831 4.639 4.178a2.289 2.289 0 0 1-2.289 2.289H297.3c-7.438 0-10.186 3.2-10.186 8.7 0 5.73 2.974 9.215 10.129 9.215h14.127c5.094 0 6.238-1.716 6.238-6.066V43.306c.003-5.727-2.968-9.96-10.527-9.96zm4.579 22.774c0 1.091-.458 1.547-1.659 1.547H297.3c-3.034 0-4.235-1.433-4.235-3.662s1.143-3.547 4.35-3.547h11.96a2.289 2.289 0 0 1 2.289 2.289z" class="cls-6" transform="translate(-208.766 -24.246)"/>
            </g>
        </g>
        <g id="Layer_2-3" transform="translate(548.355 2466)">
            <g id="圖層_1-3" transform="translate(7.814 -64)">
                <path id="Path_31760" d="M455.452 14.154a3.244 3.244 0 0 1-3.244 3.244h-15.786c-3.357 0-4.841 1.815-4.841 4.4 0 2.255 1.154 4.4 5.507 4.4h8.7c10.121 0 12.486 5.61 12.486 10.944 0 6.271-3.357 10.892-11.825 10.892H429a3.244 3.244 0 0 1-3.244-3.247A3.244 3.244 0 0 1 429 41.545h17.65c3.522 0 5.117-1.925 5.117-4.621 0-2.418-1.267-4.618-5.83-4.618H437.3c-9.9 0-12.211-5.555-12.211-10.726 0-6.161 3.3-10.669 11.539-10.669H452.2a3.244 3.244 0 0 1 3.255 3.244z" class="cls-2" transform="translate(-313.606 -8.049)"/>
                <path id="Path_31761" d="M580.179 41.73a2.864 2.864 0 0 1 2.861 2.861V59.11c0 3.409 2.528 6 7.149 6h4.721c4.618 0 7.081-2.586 7.081-6V44.591a2.861 2.861 0 0 1 2.861-2.861 2.861 2.861 0 0 1 2.859 2.861v14.742c0 6.709-4.291 11.44-12.589 11.44h-5.374c-8.306 0-12.588-4.721-12.588-11.44V44.591A2.861 2.861 0 0 1 580 41.73z" class="cls-2" transform="translate(-425.794 -30.786)"/>
                <path id="Path_31762" d="M730.883 2.916v.934a2.916 2.916 0 0 1-2.916 2.916h-.055A2.914 2.914 0 0 1 725 3.85v-.934A2.914 2.914 0 0 1 727.911 0h.055a2.916 2.916 0 0 1 2.916 2.916zm-.055 10.944v23.21a2.916 2.916 0 0 1-2.916 2.916A2.914 2.914 0 0 1 725 37.071V13.86a2.914 2.914 0 0 1 2.911-2.916 2.916 2.916 0 0 1 2.916 2.916z" class="cls-2" transform="translate(-534.861)"/>
                <path id="Path_31763" d="M771.955 21.24v-2.777a2.943 2.943 0 0 1 2.945-2.943 2.943 2.943 0 0 1 2.943 2.943v2.777a1.154 1.154 0 0 0 1.154 1.154h4.07a2.806 2.806 0 0 1 2.803 2.806 2.806 2.806 0 0 1-2.806 2.806h-4.07a1.154 1.154 0 0 0-1.154 1.154v12.589c0 3.244 1.154 4.343 3.905 4.343h1.348a2.67 2.67 0 0 1 2.667 2.67 2.67 2.67 0 0 1-2.667 2.667h-2.56c-6 0-8.579-2.421-8.579-10.01V29.16a1.154 1.154 0 0 0-1.157-1.154A2.806 2.806 0 0 1 768 25.2a2.806 2.806 0 0 1 2.8-2.806 1.154 1.154 0 0 0 1.155-1.154z" class="cls-2" transform="translate(-566.584 -11.45)"/>
                <path id="Path_31764" d="M874.94 41.73c6.876 0 9.79 3.3 9.79 8.917 0 5.334-2.693 8.361-9.845 8.361H863.17a2.1 2.1 0 0 0-2.1 2.1c0 2.308 1.267 4.015 4.458 4.015h14.949a2.832 2.832 0 0 1 2.832 2.832 2.835 2.835 0 0 1-2.832 2.832h-14.946c-7.259 0-10.121-4.07-10.121-9.57V51.3c0-5.507 2.861-9.573 10.121-9.573zm-13.868 10.616a2.1 2.1 0 0 0 2.1 2.1h11.538c3.147 0 4.291-1.311 4.291-3.464 0-2.2-1.264-3.63-4.125-3.63h-9.344c-3.189 0-4.458 1.76-4.458 4.015z" class="cls-2" transform="translate(-631.07 -30.786)"/>
                <path id="Path_31765" d="M20.679 26.2h-8.688c-4.346 0-5.507-2.145-5.507-4.4 0-2.586 1.484-4.4 4.839-4.4h15.784a3.244 3.244 0 0 0 3.247-3.244 3.244 3.244 0 0 0-3.247-3.244H11.539C3.3 10.91 0 15.418 0 21.579c0 5.172 2.311 10.726 12.211 10.726h8.634c4.566 0 5.83 2.2 5.83 4.618 0 2.7-1.595 4.621-5.114 4.621H3.905a3.247 3.247 0 0 0 0 6.491H21.34c8.471 0 11.825-4.621 11.825-10.892 0-5.333-2.365-10.943-12.486-10.943z" class="cls-3" transform="translate(0 -8.049)"/>
                <path id="Path_31766" d="M158.155 58.988h11.715c7.149 0 9.845-3.026 9.845-8.361 0-5.61-2.914-8.917-9.79-8.917h-9.394c-7.262 0-10.121 4.07-10.121 9.573v9.911c0 5.507 2.859 9.57 10.121 9.57h14.923a2.835 2.835 0 0 0 2.832-2.832 2.832 2.832 0 0 0-2.832-2.832h-14.923c-3.192 0-4.458-1.707-4.458-4.015a2.1 2.1 0 0 1 2.082-2.097zm-2.1-7.645c0-2.255 1.264-4.015 4.458-4.015h9.35c2.861 0 4.125 1.429 4.125 3.63 0 2.145-1.154 3.464-4.291 3.464H158.16a2.1 2.1 0 0 1-2.1-2.1z" class="cls-7" transform="translate(-110.963 -30.771)"/>
                <path id="Path_31767" d="M306.3 41.73h-14.624a2.806 2.806 0 1 0 0 5.612h14.574c3.189 0 4.458 1.76 4.458 4.015a2.2 2.2 0 0 1-2.2 2.2H296.9c-7.149 0-9.79 3.082-9.79 8.361 0 5.507 2.859 8.857 9.735 8.857h13.577c4.9 0 6-1.65 6-5.83v-13.64c.003-5.505-2.853-9.575-10.122-9.575zm4.4 21.891c0 1.049-.441 1.487-1.595 1.487H296.9c-2.916 0-4.07-1.377-4.07-3.522s1.1-3.409 4.18-3.409h11.495a2.2 2.2 0 0 1 2.2 2.2z" class="cls-6" transform="translate(-211.812 -30.786)"/>
            </g>
        </g>
        <g id="Layer_2-4" transform="translate(833.283 2493)">
            <g id="圖層_1-4">
                <path id="Path_31768" d="M920.363 41.63c6.767 0 9.634 3.246 9.634 8.774 0 5.252-2.653 8.227-9.688 8.227h-11.528a2.065 2.065 0 0 0-2.065 2.065c0 2.274 1.244 3.951 4.387 3.951H925.8a2.79 2.79 0 0 1 2.787 2.787 2.787 2.787 0 0 1-2.787 2.787h-14.691c-7.143 0-9.959-4.005-9.959-9.417v-9.757c0-5.419 2.815-9.417 9.959-9.417zm-13.639 10.446a2.064 2.064 0 0 0 2.065 2.065h11.355c3.1 0 4.222-1.29 4.222-3.409 0-2.165-1.244-3.572-4.059-3.572h-9.2c-3.141 0-4.387 1.732-4.387 3.951z" class="cls-2" transform="translate(-668.595 -30.887)"/>
                <path id="Path_31769" d="M427.356 10.91a3.29 3.29 0 0 1 3.081 2.129L440.729 40.3a1.739 1.739 0 0 0 1.786 1.246A1.781 1.781 0 0 0 444.3 40.3L455.113 13a3.29 3.29 0 0 1 3.061-2.08 3.293 3.293 0 0 1 3.063 4.506L450.14 43.39c-1.347 3.414-3.837 4.7-7.626 4.7-3.572 0-6.333-1.135-7.685-4.707l-10.555-28.021a3.293 3.293 0 0 1 3.081-4.452z" class="cls-2" transform="translate(-314.628 -8.095)"/>
                <path id="Path_31770" d="M595.565 41.73c7.577 0 12.387 4.645 12.387 14.289s-4.815 14.289-12.387 14.289h-6.008c-7.631 0-12.387-4.645-12.387-14.289s4.764-14.289 12.387-14.289zm-5.465 5.523c-4.978 0-7.143 2.6-7.143 8.774s2.165 8.715 7.143 8.715h4.926c4.924-.008 7.135-2.555 7.135-8.723s-2.219-8.774-7.143-8.774z" class="cls-2" transform="translate(-428.223 -30.961)"/>
                <path id="Path_31771" d="M728.891 2.87v.919a2.867 2.867 0 0 1-2.867 2.87h-.054a2.87 2.87 0 0 1-2.87-2.87V2.87A2.87 2.87 0 0 1 725.97 0h.054a2.867 2.867 0 0 1 2.867 2.87zm-.054 10.769v22.838a2.867 2.867 0 0 1-2.867 2.87 2.87 2.87 0 0 1-2.87-2.87V13.639a2.87 2.87 0 0 1 2.87-2.87 2.867 2.867 0 0 1 2.867 2.87z" class="cls-2" transform="translate(-536.493)"/>
                <path id="Path_31772" d="M799.1 44.491a2.761 2.761 0 0 1-2.761 2.761h-11.413c-4.981 0-7.143 2.6-7.143 8.774s2.162 8.715 7.143 8.715h11.419a2.759 2.759 0 0 1 2.751 2.751v.054a2.761 2.761 0 0 1-2.761 2.761h-11.948c-7.631 0-12.387-4.645-12.387-14.289s4.761-14.289 12.387-14.289h11.961a2.761 2.761 0 0 1 2.752 2.762z" class="cls-2" transform="translate(-572.774 -30.961)"/>
                <path id="Path_31773" d="M20.348 25.955H11.8c-4.276 0-5.419-2.111-5.419-4.33 0-2.545 1.461-4.33 4.761-4.33h15.532a3.192 3.192 0 0 0 3.194-3.195 3.192 3.192 0 0 0-3.195-3.192H11.355C3.246 10.91 0 15.346 0 21.408 0 26.5 2.274 31.963 12.015 31.963h8.5c4.493 0 5.737 2.165 5.737 4.545 0 2.653-1.569 4.547-5.032 4.547H3.843a3.195 3.195 0 0 0 0 6.387H21c8.335 0 11.636-4.547 11.636-10.717-.001-5.25-2.329-10.77-12.288-10.77z" class="cls-3" transform="translate(0 -8.095)"/>
                <path id="Path_31774" d="M158.031 58.711h11.528c7.035 0 9.688-2.978 9.688-8.227 0-5.52-2.867-8.774-9.634-8.774h-9.244c-7.146 0-9.959 4.005-9.959 9.419v9.752c0 5.419 2.813 9.417 9.959 9.417h14.684a2.79 2.79 0 0 0 2.787-2.787 2.787 2.787 0 0 0-2.787-2.787h-14.684c-3.141 0-4.387-1.68-4.387-3.951a2.065 2.065 0 0 1 2.049-2.062zm-2.065-7.523c0-2.219 1.244-3.951 4.387-3.951h9.2c2.815 0 4.059 1.406 4.059 3.572 0 2.111-1.135 3.409-4.222 3.409h-11.354a2.065 2.065 0 0 1-2.065-2.065z" class="cls-7" transform="translate(-111.594 -30.946)"/>
                <path id="Path_31775" d="M306 41.73h-14.4a2.761 2.761 0 1 0 0 5.523h14.341c3.138 0 4.387 1.732 4.387 3.951a2.165 2.165 0 0 1-2.165 2.165h-11.419c-7.035 0-9.634 3.03-9.634 8.225 0 5.419 2.813 8.715 9.579 8.715h13.36c4.818 0 5.9-1.623 5.9-5.737v-13.42c.007-5.417-2.803-9.422-9.949-9.422zm4.33 21.541c0 1.032-.434 1.463-1.569 1.463h-12.017c-2.87 0-4.005-1.355-4.005-3.466s1.081-3.355 4.114-3.355h11.311a2.165 2.165 0 0 1 2.165 2.165z" class="cls-6" transform="translate(-213.017 -30.961)"/>
            </g>
        </g>
        <g id="Layer_2-5" transform="translate(771.682 2281.106)">
            <g id="圖層_1-5" transform="translate(0 0)">
                <path id="Path_31776" fill="url(#linear-gradient-13)" d="M22.277 16.471h-9.36c-4.681 0-5.933-2.311-5.933-4.738 0-2.786 1.6-4.741 5.213-4.741H29.2a3.5 3.5 0 0 0 3.5-3.5A3.5 3.5 0 0 0 29.21 0H12.431C3.554 0 0 4.859 0 11.5c0 5.569 2.489 11.552 13.154 11.552h9.3c4.919 0 6.281 2.37 6.281 4.978 0 2.9-1.718 4.975-5.509 4.975H4.207a3.5 3.5 0 0 0 0 6.993h18.782c9.126 0 12.739-4.975 12.739-11.73 0-5.754-2.548-11.797-13.451-11.797z" transform="translate(0 0)"/>
                <path id="Path_31777" d="M158.753 49.413h12.62c7.7 0 10.606-3.258 10.606-9.007 0-6.043-3.139-9.606-10.547-9.606h-10.12c-7.823 0-10.9 4.385-10.9 10.309v10.666c0 5.933 3.08 10.309 10.9 10.309h16.076a3.051 3.051 0 0 0 3.051-3.051A3.054 3.054 0 0 0 177.388 56h-16.075c-3.438 0-4.8-1.836-4.8-4.325a2.26 2.26 0 0 1 2.24-2.262zm-2.26-8.236c0-2.43 1.362-4.325 4.8-4.325h10.072c3.082 0 4.444 1.54 4.444 3.91 0 2.311-1.243 3.732-4.622 3.732h-12.428a2.26 2.26 0 0 1-2.26-2.26z" class="cls-4" transform="translate(-107.915 -22.098)"/>
                <path id="Path_31778" fill="url(#linear-gradient-15)" d="M307.788 30.826h-15.759a3.023 3.023 0 1 0 0 6.043h15.7c3.435 0 4.8 1.9 4.8 4.325a2.37 2.37 0 0 1-2.37 2.37h-12.5c-7.7 0-10.547 3.317-10.547 9.007 0 5.933 3.079 9.538 10.487 9.538h14.626c5.275 0 6.458-1.777 6.458-6.281V41.139c.008-5.928-3.069-10.313-10.895-10.313zm4.741 23.582c0 1.13-.475 1.6-1.718 1.6h-13.154c-3.142 0-4.385-1.48-4.385-3.792s1.184-3.673 4.5-3.673h12.383a2.37 2.37 0 0 1 2.37 2.37z" transform="translate(-205.994 -22.116)"/>
                <path id="Path_31779" d="M433.692 1.17l8.854 10.651a3.246 3.246 0 0 0 4.941.059l9.383-10.767A3.249 3.249 0 0 1 459.317 0h.045a3.246 3.246 0 0 1 2.45 5.368L451.2 17.567a3.249 3.249 0 0 0-.028 4.238l10.9 12.849A3.246 3.246 0 0 1 459.6 40a3.244 3.244 0 0 1-2.489-1.164l-9.846-11.781a3.249 3.249 0 0 0-4.955-.031l-10.171 11.84a3.246 3.246 0 0 1-2.464 1.13h-.1a3.246 3.246 0 0 1-2.461-5.368l11.493-13.395a3.249 3.249 0 0 0 0-4.212L428.72 5.345A3.246 3.246 0 0 1 431.195 0a3.249 3.249 0 0 1 2.5 1.17z" class="cls-2" transform="translate(-305.878 0)"/>
            </g>
        </g>
        <g id="Layer_2-6" transform="translate(271.316 2493)">
            <g id="圖層_1-6">
                <path id="Path_31780" d="M746.576 0a2.826 2.826 0 0 1 2.824 2.826v25.226c0 8.031-3.592 11.94-10.247 11.94h-7.713c-7.449 0-12.091-4.534-12.091-13.948s4.643-13.953 12.091-13.953h9.484a2.826 2.826 0 0 0 2.826-2.826V2.826A2.826 2.826 0 0 1 746.576 0zm-2.826 27.788v-7.474a2.826 2.826 0 0 0-2.824-2.826h-8.956c-4.809 0-6.975 2.534-6.975 8.565s2.166 8.507 6.975 8.507h5.542c4.494-.009 6.238-2.016 6.238-6.772z" class="cls-2" transform="translate(-538.142)"/>
                <path id="Path_31781" d="M590.573 52.69c7.086 0 11.588 4.353 11.588 13.351s-4.5 13.351-11.588 13.351h-5.615c-7.136 0-11.588-4.353-11.588-13.351s4.454-13.351 11.588-13.351zm-5.111 5.162c-4.655 0-6.678 2.428-6.678 8.2s2.016 8.148 6.677 8.148h4.607c4.6 0 6.678-2.378 6.678-8.149s-2.073-8.2-6.678-8.2z" class="cls-2" transform="translate(-428.935 -39.417)"/>
                <path id="Path_31782" d="M19.863 31.886h-8.346c-4.174 0-5.29-2.061-5.29-4.227 0-2.484 1.426-4.227 4.648-4.227h15.162a3.116 3.116 0 0 0 3.119-3.116 3.116 3.116 0 0 0-3.112-3.116h-14.96C3.169 17.2 0 21.53 0 27.447c0 4.968 2.219 10.3 11.729 10.3h8.293c4.386 0 5.6 2.113 5.6 4.439 0 2.587-1.532 4.436-4.912 4.436H3.751a3.119 3.119 0 0 0 0 6.235H20.5c8.137 0 11.358-4.439 11.358-10.462-.002-5.121-2.274-10.509-11.995-10.509z" class="cls-3" transform="translate(0 -12.867)"/>
                <path id="Path_31783" d="M157.849 64.6H169.1c6.867 0 9.456-2.907 9.456-8.031 0-5.388-2.8-8.565-9.4-8.565h-9.023c-6.975 0-9.721 3.91-9.721 9.192V66.7c0 5.29 2.746 9.192 9.721 9.192h14.333a2.723 2.723 0 0 0 2.721-2.7 2.721 2.721 0 0 0-2.721-2.721h-14.335c-3.066 0-4.282-1.637-4.282-3.857a2.015 2.015 0 0 1 2-2.014zm-2.015-7.343c0-2.166 1.214-3.857 4.282-3.857h8.98c2.748 0 3.962 1.373 3.962 3.486 0 2.061-1.108 3.328-4.121 3.328h-11.083a2.015 2.015 0 0 1-2.015-2.015z" class="cls-4" transform="translate(-112.521 -35.909)"/>
                <path id="Path_31784" d="M305.547 48H291.5a2.7 2.7 0 1 0 0 5.388h14c3.063 0 4.282 1.69 4.282 3.857a2.114 2.114 0 0 1-2.114 2.113h-11.154c-6.867 0-9.4 2.957-9.4 8.028 0 5.29 2.746 8.507 9.351 8.507H309.5c4.7 0 5.759-1.584 5.759-5.6v-13.1c.009-5.28-2.734-9.193-9.712-9.193zm4.227 21.027c0 1.008-.423 1.426-1.532 1.426h-11.728c-2.8 0-3.91-1.323-3.91-3.381s1.055-3.275 4.015-3.275h11.041a2.114 2.114 0 0 1 2.113 2.113z" class="cls-5" transform="translate(-214.786 -35.905)"/>
                <path id="Path_31785" d="M454.971 20.316a3.116 3.116 0 0 1-3.119 3.116h-10.67c-6.869 0-9.88 3.436-9.88 11.623 0 8.137 2.957 11.57 9.88 11.57h10.671a3.119 3.119 0 0 1 3.119 3.119 3.116 3.116 0 0 1-3.119 3.116h-10.671c-10.409 0-16.122-5.864-16.122-17.8 0-11.991 5.759-17.855 16.122-17.855h10.671a3.116 3.116 0 0 1 3.118 3.111z" class="cls-2" transform="translate(-317.985 -12.867)"/>
                <path id="Path_31786" d="M894.887 48c6.6 0 9.4 3.169 9.4 8.565 0 5.124-2.59 8.031-9.456 8.031h-11.25a2.015 2.015 0 0 0-2.015 2.015c0 2.219 1.214 3.857 4.282 3.857h14.344a2.718 2.718 0 0 1 2.721 2.721 2.721 2.721 0 0 1-2.721 2.721h-14.341c-6.973 0-9.721-3.91-9.721-9.192V57.2c0-5.29 2.748-9.192 9.721-9.192zm-13.313 10.2a2.015 2.015 0 0 0 2.015 2.015h11.084c3.023 0 4.121-1.26 4.121-3.328 0-2.113-1.217-3.486-3.962-3.486h-8.98c-3.063 0-4.282 1.69-4.282 3.857z" class="cls-2" transform="translate(-655.429 -35.909)"/>
            </g>
        </g>
        <rect id="Rectangle_1045" width="930" height="221" fill="none" stroke="#737f8a" stroke-dasharray="15" stroke-linecap="round" stroke-linejoin="round" stroke-width="2px" rx="20" transform="translate(218 2362)"/>
        <rect id="Rectangle_1375" width="160" height="1" fill="#737f8a" rx=".5" transform="translate(603 2467)"/>
    </g>
</svg>
