<svg id="Layer_2" data-name="Layer 2" xmlns="http://www.w3.org/2000/svg" xmlns:xlink="http://www.w3.org/1999/xlink" width="248.862" height="40" viewBox="0 0 248.862 40">
  <defs>
    <linearGradient id="linear-gradient" x1="-0.011" y1="0.408" x2="3.124" y2="1.012" gradientUnits="objectBoundingBox">
      <stop offset="0" stop-color="#50ffc5"/>
      <stop offset="0.06" stop-color="#4bf9c5"/>
      <stop offset="0.46" stop-color="#30d6c4"/>
      <stop offset="0.79" stop-color="#1fc1c3"/>
      <stop offset="1" stop-color="#19b9c3"/>
    </linearGradient>
    <linearGradient id="linear-gradient-2" x1="-1.321" y1="0.097" x2="2.216" y2="0.877" xlink:href="#linear-gradient"/>
    <linearGradient id="linear-gradient-3" x1="-2.488" y1="-0.148" x2="1.044" y2="0.62" xlink:href="#linear-gradient"/>
  </defs>
  <g id="圖層_1" data-name="圖層 1">
    <path id="Path_31780" data-name="Path 31780" d="M746.576,0A2.826,2.826,0,0,1,749.4,2.826V28.052c0,8.031-3.592,11.94-10.247,11.94h-7.713c-7.449,0-12.091-4.534-12.091-13.948s4.643-13.953,12.091-13.953h9.484a2.826,2.826,0,0,0,2.826-2.826V2.826A2.826,2.826,0,0,1,746.576,0ZM743.75,27.788V20.314a2.826,2.826,0,0,0-2.824-2.826H731.97c-4.809,0-6.975,2.534-6.975,8.565s2.166,8.507,6.975,8.507h5.542C742.006,34.551,743.75,32.544,743.75,27.788Z" transform="translate(-538.142)" fill="#fff"/>
    <path id="Path_31781" data-name="Path 31781" d="M590.573,52.69c7.086,0,11.588,4.353,11.588,13.351s-4.5,13.351-11.588,13.351h-5.615c-7.136,0-11.588-4.353-11.588-13.351s4.454-13.351,11.588-13.351Zm-5.111,5.162c-4.655,0-6.678,2.428-6.678,8.2S580.8,74.2,585.461,74.2h4.607c4.6,0,6.678-2.378,6.678-8.149s-2.073-8.2-6.678-8.2Z" transform="translate(-428.935 -39.417)" fill="#fff"/>
    <path id="Path_31782" data-name="Path 31782" d="M19.863,31.886H11.517c-4.174,0-5.29-2.061-5.29-4.227,0-2.484,1.426-4.227,4.648-4.227H26.037a3.116,3.116,0,0,0,3.119-3.116h0A3.116,3.116,0,0,0,26.044,17.2H11.084C3.169,17.2,0,21.53,0,27.447c0,4.968,2.219,10.3,11.729,10.3h8.293c4.386,0,5.6,2.113,5.6,4.439,0,2.587-1.532,4.436-4.912,4.436H3.751a3.119,3.119,0,0,0,0,6.235H20.5c8.137,0,11.358-4.439,11.358-10.462C31.856,37.274,29.584,31.886,19.863,31.886Z" transform="translate(0 -12.867)" fill="url(#linear-gradient)"/>
    <path id="Path_31783" data-name="Path 31783" d="M157.849,64.6H169.1c6.867,0,9.456-2.907,9.456-8.031,0-5.388-2.8-8.565-9.4-8.565h-9.023c-6.975,0-9.721,3.91-9.721,9.192V66.7c0,5.29,2.746,9.192,9.721,9.192h14.333a2.723,2.723,0,0,0,2.721-2.7h0a2.721,2.721,0,0,0-2.721-2.721H160.131c-3.066,0-4.282-1.637-4.282-3.857A2.015,2.015,0,0,1,157.849,64.6Zm-2.015-7.343c0-2.166,1.214-3.857,4.282-3.857h8.98c2.748,0,3.962,1.373,3.962,3.486,0,2.061-1.108,3.328-4.121,3.328H157.854a2.015,2.015,0,0,1-2.015-2.015Z" transform="translate(-112.521 -35.909)" fill="url(#linear-gradient-2)"/>
    <path id="Path_31784" data-name="Path 31784" d="M305.547,48H291.5a2.7,2.7,0,1,0,0,5.388h14c3.063,0,4.282,1.69,4.282,3.857a2.114,2.114,0,0,1-2.114,2.113H296.514c-6.867,0-9.4,2.957-9.4,8.028,0,5.29,2.746,8.507,9.351,8.507H309.5c4.7,0,5.759-1.584,5.759-5.6v-13.1C315.268,51.913,312.525,48,305.547,48Zm4.227,21.027c0,1.008-.423,1.426-1.532,1.426H296.514c-2.8,0-3.91-1.323-3.91-3.381s1.055-3.275,4.015-3.275H307.66a2.114,2.114,0,0,1,2.113,2.113Z" transform="translate(-214.786 -35.905)" fill="url(#linear-gradient-3)"/>
    <path id="Path_31785" data-name="Path 31785" d="M454.971,20.316h0a3.116,3.116,0,0,1-3.119,3.116H441.182c-6.869,0-9.88,3.436-9.88,11.623,0,8.137,2.957,11.57,9.88,11.57h10.671a3.119,3.119,0,0,1,3.119,3.119h0a3.116,3.116,0,0,1-3.119,3.116H441.182c-10.409,0-16.122-5.864-16.122-17.8,0-11.991,5.759-17.855,16.122-17.855h10.671A3.116,3.116,0,0,1,454.971,20.316Z" transform="translate(-317.985 -12.867)" fill="#fff"/>
    <path id="Path_31786" data-name="Path 31786" d="M894.887,48c6.6,0,9.4,3.169,9.4,8.565,0,5.124-2.59,8.031-9.456,8.031H883.581a2.015,2.015,0,0,0-2.015,2.015h0c0,2.219,1.214,3.857,4.282,3.857h14.344a2.718,2.718,0,0,1,2.721,2.721h0a2.721,2.721,0,0,1-2.721,2.721H885.851c-6.973,0-9.721-3.91-9.721-9.192V57.2c0-5.29,2.748-9.192,9.721-9.192ZM881.574,58.2a2.015,2.015,0,0,0,2.015,2.015h11.084c3.023,0,4.121-1.26,4.121-3.328,0-2.113-1.217-3.486-3.962-3.486h-8.98c-3.063,0-4.282,1.69-4.282,3.857Z" transform="translate(-655.429 -35.909)" fill="#fff"/>
  </g>
</svg>
