<svg xmlns="http://www.w3.org/2000/svg" xmlns:xlink="http://www.w3.org/1999/xlink" width="500" height="451.816" viewBox="0 0 500 451.816">
    <defs>
        <linearGradient id="ofbpv7g7bd" y1=".5" x2="1" y2=".5" gradientUnits="objectBoundingBox">
            <stop offset="0" stop-color="#dbdbdb"/>
            <stop offset="1" stop-color="#efefef"/>
        </linearGradient>
        <linearGradient id="wqp4wkjspe" x1="-1.262" y1="-1.121" x2="-.252" y2="-2.734" gradientUnits="objectBoundingBox">
            <stop offset=".03" stop-color="#58c691"/>
            <stop offset=".3" stop-color="#7bc989"/>
            <stop offset=".92" stop-color="#d6d178"/>
            <stop offset=".99" stop-color="#e2d276"/>
        </linearGradient>
        <linearGradient id="ysbg360nyf" x1="-2.504" y1="-3.874" x2="-1.985" y2="-2.147" gradientUnits="objectBoundingBox">
            <stop offset=".01" stop-color="#634fab"/>
            <stop offset=".43" stop-color="#4664bd"/>
            <stop offset=".9" stop-color="#24245f"/>
        </linearGradient>
        <linearGradient id="o3aivxqsdg" x1="-2.405" y1="-1.515" x2="-1.314" y2="-3.261" gradientUnits="objectBoundingBox">
            <stop offset=".03" stop-color="#66f2b0"/>
            <stop offset=".28" stop-color="#89eca0"/>
            <stop offset=".84" stop-color="#e4df79"/>
            <stop offset="1" stop-color="#ffdc6e"/>
        </linearGradient>
        <linearGradient id="tbvldwgi8i" x1=".057" y1="1.132" x2="1.187" y2="-.727" gradientUnits="objectBoundingBox">
            <stop offset=".02" stop-color="#6ef4b4"/>
            <stop offset=".33" stop-color="#91f79f"/>
            <stop offset="1" stop-color="#ecfe6c"/>
            <stop offset="1" stop-color="#edff6c"/>
        </linearGradient>
        <linearGradient id="16wv3ph00k" x1="-2.95" y1="-.446" x2="-1.963" y2="-2.028" gradientUnits="objectBoundingBox">
            <stop offset=".02" stop-color="#69ffbb"/>
            <stop offset=".3" stop-color="#7fff97"/>
            <stop offset=".9" stop-color="#b7ff3c"/>
            <stop offset="1" stop-color="#c2ff2c"/>
        </linearGradient>
        <linearGradient id="kkj6gtma4c" x1="-.154" y1=".5" x2=".845" y2=".5" gradientUnits="objectBoundingBox">
            <stop offset=".01" stop-color="#80f4f9"/>
            <stop offset=".04" stop-color="#8af4f9"/>
            <stop offset=".09" stop-color="#a5f7fa"/>
            <stop offset=".16" stop-color="#d1fbfc"/>
            <stop offset=".22" stop-color="#fff"/>
            <stop offset=".24" stop-color="#f5fefe"/>
            <stop offset=".27" stop-color="#dbfdfe"/>
            <stop offset=".32" stop-color="#b1fbfe"/>
            <stop offset=".36" stop-color="#81f9fe"/>
            <stop offset=".43" stop-color="#89fbfe" stop-opacity=".871"/>
            <stop offset=".5" stop-color="#8ffdfe" stop-opacity=".78"/>
            <stop offset=".56" stop-color="#93fefe" stop-opacity=".722"/>
            <stop offset=".61" stop-color="#95ffff" stop-opacity=".698"/>
            <stop offset="1" stop-color="#94ffff" stop-opacity=".698"/>
        </linearGradient>
        <linearGradient id="u6n3oa8msn" x1="-.095" y1=".5" x2=".905" y2=".5" xlink:href="#kkj6gtma4c"/>
        <linearGradient id="4pevsiruzr" x1=".946" y1=".5" x2="1.946" y2=".5" xlink:href="#kkj6gtma4c"/>
        <linearGradient id="8cg6guv1gu" x1=".579" y1=".5" x2="1.579" y2=".5" xlink:href="#kkj6gtma4c"/>
        <linearGradient id="htfox7vpuv" x1=".946" y1=".5" x2="1.946" y2=".5" xlink:href="#kkj6gtma4c"/>
        <linearGradient id="uhr1q1s82y" x1=".138" y1="-.969" x2=".703" y2=".462" gradientUnits="objectBoundingBox">
            <stop offset=".01" stop-color="#1aaa81"/>
            <stop offset=".43" stop-color="#28bc8b"/>
            <stop offset=".9" stop-color="#075e4d"/>
        </linearGradient>
        <linearGradient id="x24udrvspz" x1=".141" y1="-.967" x2=".702" y2=".457" gradientUnits="objectBoundingBox">
            <stop offset=".01" stop-color="#1ba981"/>
            <stop offset=".43" stop-color="#28bb8b"/>
            <stop offset=".9" stop-color="#075e4d"/>
        </linearGradient>
        <linearGradient id="s0ph1pmqoA" x1=".143" y1="-.966" x2=".701" y2=".455" gradientUnits="objectBoundingBox">
            <stop offset=".01" stop-color="#1ba981"/>
            <stop offset=".43" stop-color="#29bb8c"/>
            <stop offset=".9" stop-color="#085d4d"/>
        </linearGradient>
        <linearGradient id="gk4bmvsxoB" x1=".144" y1="-.963" x2=".701" y2=".453" gradientUnits="objectBoundingBox">
            <stop offset=".01" stop-color="#1ca882"/>
            <stop offset=".43" stop-color="#29ba8c"/>
            <stop offset=".9" stop-color="#085d4d"/>
        </linearGradient>
        <linearGradient id="svk9npltqC" x1=".146" y1="-.961" x2=".7" y2=".451" gradientUnits="objectBoundingBox">
            <stop offset=".01" stop-color="#1da782"/>
            <stop offset=".43" stop-color="#29b98c"/>
            <stop offset=".9" stop-color="#085c4d"/>
        </linearGradient>
        <linearGradient id="x55lj8fyxD" x1=".139" y1="-.978" x2=".698" y2=".444" gradientUnits="objectBoundingBox">
            <stop offset=".01" stop-color="#1da782"/>
            <stop offset=".43" stop-color="#29b88c"/>
            <stop offset=".9" stop-color="#085c4d"/>
        </linearGradient>
        <linearGradient id="f80rbdza6E" x1=".132" y1="-.995" x2=".695" y2=".436" gradientUnits="objectBoundingBox">
            <stop offset=".01" stop-color="#1ea682"/>
            <stop offset=".43" stop-color="#2ab88d"/>
            <stop offset=".9" stop-color="#095b4e"/>
        </linearGradient>
        <linearGradient id="ha2ywvp3eF" x1=".124" y1="-1.011" x2=".692" y2=".428" gradientUnits="objectBoundingBox">
            <stop offset=".01" stop-color="#1ea682"/>
            <stop offset=".43" stop-color="#2ab78d"/>
            <stop offset=".9" stop-color="#095b4e"/>
        </linearGradient>
        <linearGradient id="iwdkn0u0nG" x1=".116" y1="-1.026" x2=".689" y2=".419" gradientUnits="objectBoundingBox">
            <stop offset=".01" stop-color="#1fa582"/>
            <stop offset=".43" stop-color="#2ab68d"/>
            <stop offset=".9" stop-color="#095a4e"/>
        </linearGradient>
        <linearGradient id="w0zzlhgxwH" x1=".108" y1="-1.037" x2=".687" y2=".408" gradientUnits="objectBoundingBox">
            <stop offset=".01" stop-color="#20a483"/>
            <stop offset=".43" stop-color="#2ab58d"/>
            <stop offset=".9" stop-color="#095a4e"/>
        </linearGradient>
        <linearGradient id="m45djqxciI" x1=".098" y1="-1.042" x2=".682" y2=".395" gradientUnits="objectBoundingBox">
            <stop offset=".01" stop-color="#20a483"/>
            <stop offset=".43" stop-color="#2bb58e"/>
            <stop offset=".9" stop-color="#0a594e"/>
        </linearGradient>
        <linearGradient id="r443yndw4J" x1=".087" y1="-1.046" x2=".678" y2=".383" gradientUnits="objectBoundingBox">
            <stop offset=".01" stop-color="#21a383"/>
            <stop offset=".43" stop-color="#2bb48e"/>
            <stop offset=".9" stop-color="#0a594e"/>
        </linearGradient>
        <linearGradient id="nridbcrizK" x1=".956" y1="1.027" x2=".075" y2="-1.241" gradientUnits="objectBoundingBox">
            <stop offset=".03" stop-color="#00ffc2"/>
            <stop offset=".19" stop-color="#24ffac"/>
            <stop offset=".54" stop-color="#7fff76"/>
            <stop offset=".99" stop-color="#ffff2c"/>
        </linearGradient>
        <radialGradient id="1ahp2xt6pa" cx=".491" cy=".493" r=".696" gradientTransform="matrix(.217 -.926 .677 .481 1.207 -2.375)" gradientUnits="objectBoundingBox">
            <stop offset="0" stop-color="#fff"/>
            <stop offset="1"/>
        </radialGradient>
        <radialGradient id="m7sdmhpz1h" cx=".489" cy=".49" r=".686" gradientTransform="matrix(.216 -.926 .674 .481 1.112 -4.537)" xlink:href="#1ahp2xt6pa"/>
        <radialGradient id="83yrv6isej" cx=".491" cy=".494" r=".692" gradientTransform="matrix(.216 -.926 .676 .481 .904 -2.308)" xlink:href="#1ahp2xt6pa"/>
        <radialGradient id="j0dqitpycl" cx=".488" cy=".49" r=".687" gradientTransform="matrix(.216 -.926 .675 .481 -.309 -3.891)" xlink:href="#1ahp2xt6pa"/>
        <radialGradient id="la7cwpensb" cx=".5" cy=".5" r=".707" gradientTransform="matrix(-.577 0 0 1 .545 0)" gradientUnits="objectBoundingBox">
            <stop offset=".02" stop-color="#356c84"/>
            <stop offset=".43" stop-color="#1b5268"/>
            <stop offset="1" stop-color="#12054e"/>
            <stop offset="1" stop-color="#052c4c"/>
        </radialGradient>
        <radialGradient id="6l4sr0udmm" cx=".349" cy=".5" r=".7" gradientTransform="matrix(.585 0 0 1 .207 0)" xlink:href="#la7cwpensb"/>
        <radialGradient id="67a6qtjoco" cx=".346" cy=".5" r=".707" gradientTransform="matrix(.577 0 0 1 .211 0)" xlink:href="#la7cwpensb"/>
        <radialGradient id="j5ii66jlwp" cx="-.34" cy=".501" r=".708" gradientTransform="matrix(.577 0 0 1 .211 0)" xlink:href="#la7cwpensb"/>
        <radialGradient id="fi15ndhc8q" cx="-.345" cy=".5" r=".524" gradientTransform="matrix(.914 0 0 1 .043 0)" xlink:href="#la7cwpensb"/>
        <radialGradient id="mc178pug2s" cx=".5" cy=".5" r=".707" gradientTransform="matrix(.577 0 0 1 .611 0)" xlink:href="#la7cwpensb"/>
        <radialGradient id="tpr1kjs1tt" cx=".5" cy=".5" r=".7" gradientTransform="matrix(.585 0 0 1 .592 0)" xlink:href="#la7cwpensb"/>
        <radialGradient id="rsr1xdh15w" cx=".499" cy=".501" r=".708" gradientTransform="matrix(.577 0 0 1 2.39 0)" xlink:href="#la7cwpensb"/>
        <radialGradient id="l68y8hxbxx" cx=".5" cy=".5" r=".524" gradientTransform="matrix(.914 0 0 1 .179 0)" xlink:href="#la7cwpensb"/>
        <radialGradient id="yyhywaiyeL" cx=".502" cy=".495" r=".988" gradientTransform="matrix(.658 .007 -.003 .652 .191 -.004)" xlink:href="#1ahp2xt6pa"/>
    </defs>
    <g data-name="Group 467" style="isolation:isolate">
        <path data-name="Path 32299" d="M348.978 485.053 82.587 340.98c-3.5-1.89-3.053-5.224.982-7.411l214.21-115.846c4.035-2.187 10.2-2.421 13.7-.531l266.39 144.074c3.5 1.89 3.053 5.224-.982 7.411l-214.2 115.846c-4.035 2.187-10.2 2.421-13.7.531z" transform="translate(-80.228 -34.514)" style="mix-blend-mode:multiply;fill:rgba(218,220,224,.08);isolation:isolate"/>
        <g data-name="Group 427">
            <path data-name="Path 32300" d="m580.222 284.365-5.229-.2-263.512-142.521c-3.5-1.89-9.664-1.649-13.7.531L84.335 257.617l-3.665-.142h-.43v4.863l.045.021a3.821 3.821 0 0 0 2.312 3.072L348.989 409.5c3.5 1.89 9.664 1.649 13.7-.531l214.2-115.846c2.176-1.175 3.272-2.69 3.3-4.126l.038-.021v-4.622z" transform="translate(-80.231 -12.44)" style="fill:#cecece"/>
            <path data-name="Path 32301" d="M348.978 403.24 82.587 259.167c-3.5-1.89-3.053-5.224.982-7.411L297.779 135.9c4.035-2.187 10.2-2.421 13.7-.531l266.39 144.077c3.5 1.89 3.053 5.224-.982 7.411L362.684 402.7c-4.035 2.187-10.2 2.421-13.7.531z" transform="translate(-80.228 -10.607)" style="fill:url(#ofbpv7g7bd)"/>
        </g>
        <path data-name="Path 32316" d="m332.859 177.348-113.836 65.181c-6.731 3.886-5.224 11.063 3.369 16.025l16.386 9.463c8.593 4.962 21.015 5.832 27.753 1.946l5.563-3.985 13.038 2.966.085-10.511 95.143-53.651c6.731-3.886 5.224-11.063-3.369-16.025l-16.391-9.463c-8.593-4.962-21.015-5.832-27.753-1.946z" transform="translate(-109.466 -40.251)" style="fill:#e2e7e8;mix-blend-mode:multiply;isolation:isolate"/>
        <g data-name="Group 432">
            <g data-name="Group 430">
                <path data-name="Path 32317" d="M332.859 173.117 219.023 238.3c-6.731 3.886-5.224 11.063 3.369 16.025l16.386 9.463c8.593 4.962 21.015 5.832 27.753 1.946l5.563-3.985 13.038 2.966.085-10.511 95.143-53.651c6.731-3.886 5.224-11.063-3.369-16.025l-16.391-9.464c-8.593-4.962-21.015-5.832-27.753-1.946z" transform="translate(-109.467 -39.277)" style="opacity:.65;fill:url(#wqp4wkjspe)"/>
                <path data-name="Path 32318" d="M332.859 173.117 219.023 238.3c-6.731 3.886-5.224 11.063 3.362 16.025l1.309.757c-8.593-4.962-10.1-12.132-3.369-16.025l113.836-65.181c6.731-3.886 19.16-3.015 27.753 1.946l-1.309-.757c-8.593-4.962-21.015-5.832-27.753-1.946z" transform="translate(-109.467 -39.277)" style="fill:url(#1ahp2xt6pa);mix-blend-mode:color-dodge;isolation:isolate"/>
            </g>
            <g data-name="Group 431" style="opacity:.63">
                <path data-name="Path 32319" d="m268.878 251.326-28.723 16.584a2.964 2.964 0 0 1-2.675-.113c-.793-.46-.878-1.147-.191-1.543l28.723-16.584a2.964 2.964 0 0 1 2.675.113c.792.46.877 1.146.191 1.543z" transform="translate(-115.897 -62.277)" style="fill:#fff"/>
                <path data-name="Path 32320" d="m319.658 222.006-28.723 16.584a2.964 2.964 0 0 1-2.675-.113c-.793-.46-.878-1.147-.191-1.543l28.723-16.584a2.964 2.964 0 0 1 2.675.113c.792.46.877 1.146.191 1.543z" transform="translate(-130.735 -53.709)" style="fill:#fff"/>
                <path data-name="Path 32321" d="m352.143 217.336-46.078 26.606a2.964 2.964 0 0 1-2.675-.113c-.793-.46-.878-1.147-.191-1.543l46.078-26.606a2.964 2.964 0 0 1 2.676.113c.792.46.876 1.146.19 1.543z" transform="translate(-135.156 -52.345)" style="fill:#fff"/>
                <path data-name="Path 32322" d="m369.338 193.326-28.723 16.584a2.964 2.964 0 0 1-2.676-.113c-.793-.46-.878-1.147-.191-1.543l28.723-16.584a2.964 2.964 0 0 1 2.675.113c.793.46.878 1.146.192 1.543z" transform="translate(-145.252 -45.329)" style="fill:#fff"/>
                <path data-name="Path 32323" d="m318.145 253.236-47.769 27.576a2.964 2.964 0 0 1-2.675-.113c-.793-.46-.878-1.147-.191-1.543l47.769-27.576a2.964 2.964 0 0 1 2.675.113c.792.46.877 1.146.191 1.543z" transform="translate(-124.728 -62.835)" style="fill:#fff"/>
                <path data-name="Path 32324" d="m267.088 275.056-9.973 5.762a2.964 2.964 0 0 1-2.675-.113c-.793-.46-.878-1.147-.191-1.543l9.973-5.762a2.964 2.964 0 0 1 2.675.113c.793.46.877 1.146.191 1.543z" transform="translate(-120.853 -69.211)" style="fill:#fff"/>
                <path data-name="Path 32325" d="m290.978 261.256-9.973 5.762a2.964 2.964 0 0 1-2.675-.113c-.793-.46-.878-1.147-.191-1.543l9.973-5.762a2.964 2.964 0 0 1 2.676.113c.792.46.876 1.146.19 1.543z" transform="translate(-127.834 -65.178)" style="fill:#fff"/>
            </g>
        </g>
        <path data-name="Path 32326" d="m461.57 385.809-68.5 38.936c-7.715 4.452-5.988 12.677 3.858 18.36l18.772 10.844c9.846 5.684 24.079 6.682 31.794 2.23l6.37-4.572 15.041-8.649L516 417.235c7.715-4.452 5.988-12.677-3.858-18.36l-18.778-10.844c-9.845-5.684-24.079-6.682-31.794-2.23z" transform="translate(-149.699 -89.611)" style="fill:#e2e7e8;mix-blend-mode:multiply;isolation:isolate"/>
        <g data-name="Group 436">
            <g data-name="Group 434">
                <g data-name="Group 433" style="opacity:.3;mix-blend-mode:multiply;isolation:isolate">
                    <path data-name="Path 32327" d="M395.1 412.921c-7.687 4.438-5.967 12.627 3.843 18.3l9.98 5.762c9.81 5.662 24 6.66 31.688 2.223l68.182-38.745c7.687-4.438 5.967-12.627-3.843-18.3l-9.98-5.762c-9.81-5.662-24-6.66-31.688-2.215L395.1 412.928z" transform="translate(-150.297 -86.942)" style="opacity:.55;fill:url(#ysbg360nyf)"/>
                </g>
                <path data-name="Path 32328" d="m461.57 373.369-68.5 38.936c-7.715 4.452-5.988 12.677 3.858 18.36l18.772 10.844c9.846 5.684 24.079 6.682 31.794 2.23l6.37-4.572 15.041-8.649L516 404.795c7.715-4.452 5.988-12.677-3.858-18.36l-18.778-10.844c-9.845-5.684-24.079-6.682-31.794-2.23z" transform="translate(-149.699 -86.701)" style="fill:url(#o3aivxqsdg);opacity:.7"/>
                <path data-name="Path 32329" d="m461.57 373.371-68.5 38.936c-7.715 4.452-5.988 12.677 3.858 18.36l1.5.871c-9.846-5.684-11.573-13.9-3.858-18.36l68.5-38.936c7.715-4.452 21.949-3.461 31.794 2.23l-1.5-.871c-9.845-5.684-24.079-6.682-31.794-2.23z" transform="translate(-149.699 -86.704)" style="fill:url(#m7sdmhpz1h);mix-blend-mode:color-dodge;isolation:isolate"/>
            </g>
            <g data-name="Group 435" style="opacity:.7">
                <path data-name="Path 32330" d="m450.191 412.471-32.906 19a3.408 3.408 0 0 1-3.065-.127c-.906-.524-1.005-1.316-.219-1.77l32.906-19a3.408 3.408 0 0 1 3.065.127c.906.524 1.005 1.317.219 1.77z" transform="translate(-157.069 -98.298)" style="fill:#fff"/>
                <path data-name="Path 32331" d="m483.56 401.331-54.734 31.6a3.408 3.408 0 0 1-3.065-.127c-.906-.524-1.005-1.317-.219-1.77l54.734-31.6a3.408 3.408 0 0 1 3.065.127c.905.524 1.004 1.317.219 1.77z" transform="translate(-160.441 -95.043)" style="fill:#fff"/>
                <path data-name="Path 32332" d="m506.64 414.661-54.734 31.6a3.408 3.408 0 0 1-3.065-.127c-.906-.524-1.005-1.316-.219-1.77l54.734-31.6a3.408 3.408 0 0 1 3.065.127c.905.524 1.004 1.317.219 1.77z" transform="translate(-167.185 -98.938)" style="fill:#fff"/>
                <path data-name="Path 32333" d="m451.786 443.321-11.431 6.6a3.408 3.408 0 0 1-3.065-.127c-.906-.524-1.005-1.317-.219-1.77l11.431-6.6a3.408 3.408 0 0 1 3.065.127c.906.524 1.005 1.317.219 1.77z" transform="translate(-163.81 -107.312)" style="fill:#fff"/>
                <path data-name="Path 32334" d="m479.176 427.511-11.431 6.6a3.408 3.408 0 0 1-3.065-.127c-.906-.524-1.005-1.316-.219-1.77l11.431-6.6a3.408 3.408 0 0 1 3.065.127c.906.524 1.005 1.317.219 1.77z" transform="translate(-171.813 -102.693)" style="fill:#fff"/>
            </g>
        </g>
        <path data-name="Path 32335" d="m299.649 334.1 97.075-56.645c7.481-4.318 21.284-3.355 30.825 2.159l18.2 10.511c9.541 5.514 11.219 13.477 3.737 17.794l-7.673 3.567 19.037 10.964-33.55-2.55-74.885 44.655c-7.481 4.318-21.277 3.355-30.825-2.159l-18.2-10.511c-9.548-5.514-11.219-13.477-3.737-17.794z" transform="translate(-127.085 -63.481)" style="fill:#e2e7e8;mix-blend-mode:multiply;isolation:isolate"/>
        <g data-name="Group 439">
            <g data-name="Group 437">
                <path data-name="Path 32336" d="m300.169 313.741 97.075-56.641c7.481-4.318 21.284-3.355 30.825 2.159l18.2 10.511c9.541 5.514 11.219 13.477 3.737 17.794l-7.673 3.567 19.037 10.959-33.55-2.548-74.885 44.658c-7.481 4.318-21.276 3.355-30.825-2.159l-18.2-10.511c-9.548-5.514-11.219-13.477-3.737-17.794z" transform="translate(-127.225 -58.776)" style="fill:url(#tbvldwgi8i);opacity:.8"/>
                <path data-name="Path 32337" d="m397.548 257.525-98.108 56.044c-7.481 4.318-5.8 12.287 3.737 17.794l1.458.842c-9.541-5.514-11.219-13.477-3.737-17.794l98.108-56.044c7.481-4.318 21.284-3.355 30.825 2.159l-1.458-.842c-9.541-5.514-23.343-6.476-30.825-2.159z" transform="translate(-127.013 -58.902)" style="fill:url(#83yrv6isej);mix-blend-mode:color-dodge;isolation:isolate"/>
            </g>
            <g data-name="Group 438" style="opacity:.8">
                <path data-name="Path 32338" d="m362.263 320.851-31.9 18.417a3.324 3.324 0 0 1-2.973-.12c-.878-.51-.977-1.274-.212-1.713l31.9-18.417a3.324 3.324 0 0 1 2.973.12c.877.51.976 1.274.212 1.713z" transform="translate(-136.333 -77.573)" style="fill:#fff"/>
                <path data-name="Path 32339" d="m418.663 288.281-31.9 18.417a3.324 3.324 0 0 1-2.973-.12c-.878-.51-.977-1.274-.212-1.713l31.9-18.417a3.324 3.324 0 0 1 2.973.12c.877.51.976 1.274.212 1.713z" transform="translate(-152.813 -68.056)" style="fill:#fff"/>
                <path data-name="Path 32340" d="M458.3 286.651 407.112 316.2a3.324 3.324 0 0 1-2.973-.12c-.878-.51-.977-1.274-.212-1.713l51.188-29.551a3.324 3.324 0 0 1 2.973.12c.878.512.977 1.276.212 1.715z" transform="translate(-158.759 -67.58)" style="fill:#fff"/>
                <path data-name="Path 32341" d="m394.606 310.051-53.064 30.634a3.323 3.323 0 0 1-2.973-.12c-.878-.51-.977-1.274-.212-1.713l53.064-30.634a3.323 3.323 0 0 1 2.973.12c.878.51.977 1.274.212 1.713z" transform="translate(-139.6 -74.417)" style="fill:#fff"/>
                <path data-name="Path 32342" d="M416.986 322.971 363.922 353.6a3.324 3.324 0 0 1-2.973-.12c-.878-.51-.977-1.274-.212-1.713l53.063-30.629a3.324 3.324 0 0 1 2.973.12c.879.51.978 1.274.213 1.713z" transform="translate(-146.139 -78.192)" style="fill:#fff"/>
                <path data-name="Path 32343" d="m363.82 350.761-11.077 6.4a3.324 3.324 0 0 1-2.973-.12c-.878-.51-.977-1.274-.212-1.713l11.077-6.4a3.324 3.324 0 0 1 2.973.12c.877.51.976 1.274.212 1.713z" transform="translate(-142.873 -86.313)" style="fill:#fff"/>
                <path data-name="Path 32344" d="m438.449 294.751-11.077 6.4a3.323 3.323 0 0 1-2.973-.12c-.878-.51-.977-1.274-.212-1.713l11.077-6.4a3.324 3.324 0 0 1 2.973.12c.878.51.977 1.274.212 1.713z" transform="translate(-164.679 -69.947)" style="fill:#fff"/>
                <path data-name="Path 32345" d="m390.359 335.431-11.077 6.4a3.324 3.324 0 0 1-2.973-.12c-.878-.51-.977-1.274-.212-1.713l11.077-6.4a3.324 3.324 0 0 1 2.973.12c.878.51.977 1.274.212 1.713z" transform="translate(-150.628 -81.833)" style="fill:#fff"/>
            </g>
        </g>
        <path data-name="Path 32346" d="m454.239 203.4-63.327 36.03c-6.7 3.865-5.2 10.992 3.348 15.926l.411.241c8.543 4.933 20.887 5.8 27.583 1.932l5.528-3.964 13.045-7.5 44.754-24.565c6.7-3.865 5.2-10.992-3.348-15.926l-.411-.241c-8.543-4.933-20.887-5.8-27.583-1.932z" transform="translate(-151.008 -47.569)" style="fill:#e2e7e8;mix-blend-mode:multiply;isolation:isolate"/>
        <g data-name="Group 442">
            <g data-name="Group 440">
                <path data-name="Path 32347" d="m454.239 163.893-63.327 36.027c-6.7 3.865-5.2 10.992 3.348 15.926l.411.241c8.543 4.933 20.887 5.8 27.583 1.932l5.528-3.964 13.045-7.5 44.754-24.561c6.7-3.865 5.2-10.992-3.348-15.926l-.411-.241c-8.543-4.933-20.887-5.8-27.583-1.932z" transform="translate(-151.009 -38.218)" style="opacity:.97;fill:url(#16wv3ph00k)"/>
                <path data-name="Path 32348" d="m454.239 163.893-63.327 36.027c-6.7 3.865-5.2 10.992 3.348 15.926l1.3.75c-8.543-4.933-10.037-12.061-3.348-15.926l63.327-36.027c6.7-3.865 19.04-3 27.583 1.932l-1.3-.75c-8.543-4.933-20.887-5.8-27.583-1.932z" transform="translate(-151.009 -38.218)" style="fill:url(#j0dqitpycl);mix-blend-mode:color-dodge;isolation:isolate"/>
            </g>
            <g data-name="Group 441">
                <path data-name="Path 32349" d="m440.459 201-28.546 16.478a2.935 2.935 0 0 1-2.661-.113c-.786-.453-.871-1.14-.191-1.536l28.546-16.478a2.935 2.935 0 0 1 2.661.113c.786.453.871 1.14.191 1.536z" transform="translate(-157.4 -49.206)" style="fill:#fff"/>
                <path data-name="Path 32350" d="m490.919 171.859-28.546 16.478a2.935 2.935 0 0 1-2.661-.113c-.786-.453-.871-1.14-.191-1.536l28.546-16.478a2.935 2.935 0 0 1 2.661.113c.786.453.871 1.14.191 1.536z" transform="translate(-172.144 -40.691)" style="fill:#fff"/>
                <path data-name="Path 32351" d="m469.4 191.329-47.479 27.413a2.935 2.935 0 0 1-2.661-.113c-.786-.453-.871-1.14-.191-1.536l47.481-27.413a2.935 2.935 0 0 1 2.661.113c.789.453.871 1.139.189 1.536z" transform="translate(-160.325 -46.38)" style="fill:#fff"/>
                <path data-name="Path 32352" d="m508.632 177.639-9.909 5.726a2.935 2.935 0 0 1-2.661-.113c-.786-.453-.871-1.14-.191-1.536l9.909-5.726a2.935 2.935 0 0 1 2.661.113c.786.453.871 1.139.191 1.536z" transform="translate(-182.766 -42.38)" style="fill:#fff"/>
            </g>
        </g>
        <path data-name="Path 32353" d="M172.633 351.688c11.768.554 24.1-1.812 33.284-7.109 16.584-9.591 16.584-25.106 0-34.682s-43.494-9.569-60.085 0c-8.925 5.153-13.052 12.026-12.372 18.771l27.958 16.4s11.325 6.46 11.215 6.62z" transform="translate(-95.761 -72.092)" style="fill:#e2e7e8;mix-blend-mode:multiply;isolation:isolate"/>
        <g data-name="Group 450">
            <g data-name="Group 444">
                <path data-name="Path 32354" d="M209.141 289.728h.014s-3.758 29.048-26.266 29.02-26.16-29.119-26.16-29.119h.014c-.927-4.487 1.571-9.166 7.545-12.6 10.327-5.938 27.045-5.9 37.351.064 5.96 3.454 8.444 8.14 7.5 12.62z" transform="translate(-102.53 -68.994)" style="fill:url(#kkj6gtma4c)"/>
                <g data-name="Group 443">
                    <path data-name="Path 32355" d="M164.267 277.077c-10.313 5.953-10.313 15.607 0 21.56s27.038 5.953 37.351 0 10.313-15.607 0-21.56-27.038-5.953-37.351 0z" transform="translate(-102.524 -68.999)" style="fill:url(#la7cwpensb)"/>
                    <path data-name="Path 32356" d="M163.775 298.887c-5.16-2.98-8.005-6.972-8.005-11.247s2.845-8.267 8.005-11.247c10.447-6.03 27.441-6.03 37.889 0 5.16 2.98 8.005 6.972 8.005 11.247s-2.845 8.267-8.005 11.247c-5.224 3.015-12.082 4.523-18.941 4.523s-13.717-1.508-18.941-4.523zm.538-21.567c-4.813 2.782-7.467 6.441-7.467 10.32s2.654 7.538 7.467 10.32c10.15 5.861 26.663 5.861 36.813 0 4.813-2.782 7.467-6.441 7.467-10.32s-2.654-7.538-7.467-10.32c-5.075-2.93-11.742-4.4-18.4-4.4s-13.328 1.465-18.4 4.4z" transform="translate(-102.301 -68.782)" style="fill:url(#6l4sr0udmm)"/>
                </g>
            </g>
            <g data-name="Group 445">
                <path data-name="Path 32357" d="M132.95 251.607a14.643 14.643 0 0 1 .368-3.22 133.488 133.488 0 0 1 16.839-48.406l25.891 2.18 25.891-2.18a133.489 133.489 0 0 1 16.839 48.406c1.663 7.4-2.414 15.133-12.252 20.816-16.832 9.718-44.117 9.718-60.949 0-8.416-4.855-12.62-11.226-12.62-17.6z" transform="translate(-95.633 -47.775)" style="fill:url(#u6n3oa8msn)"/>
                <path data-name="Path 32358" d="M164.267 187.167c-10.313 5.953-10.313 15.607 0 21.56s27.038 5.953 37.351 0 10.313-15.607 0-21.56-27.038-5.953-37.351 0z" transform="translate(-102.524 -42.726)" style="fill:url(#67a6qtjoco)"/>
            </g>
            <path data-name="Path 32359" d="M156.748 183.839h-.014s3.7-29.055 26.21-29.069 26.21 29.069 26.21 29.069h-.014c.934 4.487-1.557 9.166-7.524 12.613-10.313 5.953-27.038 5.953-37.351 0-5.967-3.44-8.458-8.126-7.524-12.606z" transform="translate(-102.529 -34.565)" style="fill:url(#kkj6gtma4c)"/>
            <path data-name="Path 32360" d="M188.4 158.622c-1.89 1.09-1.89 2.867 0 3.957a7.587 7.587 0 0 0 6.852 0c1.89-1.09 1.89-2.867 0-3.957a7.587 7.587 0 0 0-6.852 0z" transform="translate(-111.423 -35.452)" style="fill:url(#j5ii66jlwp)"/>
            <g data-name="Group 446">
                <path data-name="Path 32361" d="M204.4 178.719c4.53-2.612 6.285-6.321 5.231-9.775a.157.157 0 0 1 .276-.142 42.258 42.258 0 0 1 5.946 12.457c.97 4.247-1.472 8.784-7.12 12.04-4.714 2.725-10.858 4.105-17.037 4.162a6.62 6.62 0 0 1-5.839-3.4l-.057-.106a9.164 9.164 0 0 1 .3-9.428 5.711 5.711 0 0 1 4.806-2.654 27.194 27.194 0 0 0 13.484-3.157z" transform="translate(-110.738 -38.646)" style="fill:url(#fi15ndhc8q)"/>
                <path data-name="Path 32362" d="m185.18 194.108-.057-.106a9.683 9.683 0 0 1 .326-9.98 6.2 6.2 0 0 1 5.209-2.895h.3a26.347 26.347 0 0 0 12.96-3.086c4.141-2.392 6-5.811 4.983-9.152a.7.7 0 0 1 1.224-.616 43.242 43.242 0 0 1 6.038 12.655c1.055 4.629-1.7 9.35-7.375 12.627a35.892 35.892 0 0 1-17.3 4.233h-.064a7.142 7.142 0 0 1-6.243-3.681zm19.273-15.14a27.4 27.4 0 0 1-13.491 3.235h-.3a5.214 5.214 0 0 0-4.311 2.407 8.6 8.6 0 0 0-.29 8.869l.057.106a6.016 6.016 0 0 0 5.365 3.128 34.785 34.785 0 0 0 16.775-4.091c5.245-3.029 7.814-7.312 6.873-11.424a43.3 43.3 0 0 0-4.884-10.851c.17 3.242-1.9 6.37-5.79 8.621z" transform="translate(-110.519 -38.428)" style="fill:#fff"/>
            </g>
            <g data-name="Group 447">
                <path data-name="Path 32363" d="M191.99 194.98c6.179-.057 9.888-.58 14.956-3.284 5.754-3.072 8.692-6.717 7.12-12.04a46.232 46.232 0 0 0-3.525-8.557 6.565 6.565 0 0 0-.29-2.145.157.157 0 0 1 .276-.142 42.256 42.256 0 0 1 5.946 12.457c.97 4.247-1.472 8.784-7.12 12.04a34.758 34.758 0 0 1-17.037 4.162c-2.435 0-4.254-1.755-5.5-3.051a.109.109 0 0 1 .12-.177 16.016 16.016 0 0 0 5.04.75z" transform="translate(-111.363 -38.649)" style="fill:#fff"/>
                <path data-name="Path 32364" d="M186.216 194.568a.642.642 0 0 1-.078-.793.649.649 0 0 1 .764-.262 15.138 15.138 0 0 0 4.863.715c5.981-.057 9.7-.552 14.708-3.22 6.108-3.263 8.225-6.781 6.859-11.417a45.578 45.578 0 0 0-3.482-8.458l-.071-.127v-.142a6 6 0 0 0-.262-1.975.7.7 0 0 1 1.224-.616 43.242 43.242 0 0 1 6.038 12.655c1.055 4.629-1.7 9.35-7.375 12.627a35.1 35.1 0 0 1-17.306 4.233c-2.463 0-4.289-1.55-5.889-3.22zm24.646-23.825a46.788 46.788 0 0 1 3.5 8.536c1.515 5.146-.828 9.173-7.382 12.67-5.2 2.775-9.046 3.291-15.2 3.348a17.683 17.683 0 0 1-3.61-.34 6.017 6.017 0 0 0 3.942 1.755 34.013 34.013 0 0 0 16.768-4.091c5.245-3.029 7.814-7.312 6.873-11.424a43.561 43.561 0 0 0-4.891-10.872c0 .134.007.276.007.411z" transform="translate(-111.144 -38.428)" style="fill:#fff"/>
            </g>
            <g data-name="Group 448">
                <path data-name="Path 32365" d="M217.781 185.86c.149 1.869 1 3.327 1.9 3.256s1.508-1.642 1.359-3.511-1-3.327-1.9-3.256-1.508 1.642-1.359 3.511z" transform="translate(-120.414 -42.623)" style="fill:#fff"/>
                <path data-name="Path 32366" d="M217.756 188.263a6.257 6.257 0 0 1-.736-2.583c-.177-2.237.623-3.992 1.854-4.091s2.3 1.515 2.477 3.751-.623 3.992-1.854 4.091h-.106a1.986 1.986 0 0 1-1.628-1.168zm1.2-5.606c-.439.035-1.005 1.224-.871 2.937a5.282 5.282 0 0 0 .595 2.13c.241.411.531.644.722.637.439-.035 1.005-1.224.871-2.937-.134-1.685-.864-2.76-1.3-2.76h-.021z" transform="translate(-120.191 -42.401)" style="fill:#150035"/>
            </g>
            <g data-name="Group 449">
                <path data-name="Path 32367" d="M194.33 194.83a3.844 3.844 0 1 0 3.815-3.9 3.863 3.863 0 0 0-3.815 3.9z" transform="translate(-113.568 -45.131)" style="fill:#fff"/>
                <path data-name="Path 32368" d="M194.872 197.725a4.415 4.415 0 0 1 3.044-7.545 4.32 4.32 0 0 1 3.107 1.274A4.415 4.415 0 0 1 197.98 199h-.028a4.344 4.344 0 0 1-3.08-1.275zm3.051-6.476a3.335 3.335 0 0 0-3.284 3.362 3.315 3.315 0 0 0 .984 2.357 3.2 3.2 0 0 0 2.343.963 3.349 3.349 0 0 0 2.3-5.719 3.284 3.284 0 0 0-2.322-.963z" transform="translate(-113.346 -44.912)" style="fill:#150035"/>
            </g>
        </g>
        <path data-name="Path 32369" d="M591.195 328.63c16.683-9.626 43.728-9.626 60.418 0s16.676 25.233 0 34.873-43.735 9.626-60.418 0-16.683-25.247 0-34.873z" transform="translate(-194.252 -76.53)" style="fill:#e2e7e8;mix-blend-mode:multiply;isolation:isolate"/>
        <g data-name="Group 458">
            <g data-name="Group 452">
                <path data-name="Path 32370" d="M601.41 308.168h-.01s3.758 29.048 26.266 29.02 26.16-29.119 26.16-29.119h-.014c.927-4.487-1.571-9.166-7.545-12.6-10.327-5.938-27.045-5.9-37.351.064-5.96 3.454-8.444 8.14-7.5 12.62z" transform="translate(-200.837 -73.112)" style="fill:url(#4pevsiruzr)"/>
                <g data-name="Group 451">
                    <path data-name="Path 32371" d="M646.268 295.517c10.313 5.953 10.313 15.607 0 21.56s-27.038 5.953-37.351 0-10.313-15.607 0-21.56 27.038-5.953 37.351 0z" transform="translate(-200.827 -73.117)" style="fill:url(#mc178pug2s)"/>
                    <path data-name="Path 32372" d="M627.376 321.85c-6.859 0-13.717-1.508-18.941-4.523-5.16-2.98-8.005-6.972-8.005-11.247s2.845-8.267 8.005-11.247c10.447-6.03 27.441-6.03 37.889 0 5.16 2.98 8.005 6.972 8.005 11.247s-2.845 8.267-8.005 11.247c-5.224 3.015-12.082 4.523-18.941 4.523zm0-30.478c-6.667 0-13.328 1.465-18.4 4.4-4.813 2.782-7.467 6.441-7.467 10.32s2.654 7.538 7.467 10.32c10.15 5.861 26.663 5.861 36.813 0 4.813-2.782 7.467-6.441 7.467-10.32s-2.654-7.538-7.467-10.32c-5.075-2.93-11.742-4.4-18.4-4.4z" transform="translate(-200.607 -72.9)" style="fill:url(#tpr1kjs1tt)"/>
                </g>
            </g>
            <g data-name="Group 453">
                <path data-name="Path 32373" d="M663.809 270.057a14.647 14.647 0 0 0-.368-3.22A133.49 133.49 0 0 0 646.6 218.43l-25.891 2.18-25.891-2.18a133.489 133.489 0 0 0-16.839 48.406c-1.663 7.4 2.414 15.133 12.252 20.816 16.832 9.718 44.117 9.718 60.949 0 8.416-4.855 12.62-11.226 12.62-17.6z" transform="translate(-193.941 -51.896)" style="fill:url(#8cg6guv1gu)"/>
                <path data-name="Path 32374" d="M646.268 205.607c10.313 5.953 10.313 15.607 0 21.56s-27.038 5.953-37.351 0-10.313-15.607 0-21.56 27.038-5.953 37.351 0z" transform="translate(-200.827 -46.844)" style="fill:url(#mc178pug2s)"/>
            </g>
            <path data-name="Path 32375" d="M653.8 202.279h.014s-3.7-29.055-26.21-29.069-26.21 29.069-26.21 29.069h.014c-.934 4.487 1.557 9.166 7.524 12.613 10.313 5.953 27.038 5.953 37.351 0 5.967-3.44 8.458-8.126 7.524-12.606z" transform="translate(-200.837 -38.683)" style="fill:url(#htfox7vpuv)"/>
            <path data-name="Path 32376" d="M639.936 177.063c1.89 1.09 1.89 2.867 0 3.957a7.587 7.587 0 0 1-6.852 0c-1.89-1.09-1.89-2.867 0-3.957a7.587 7.587 0 0 1 6.852 0z" transform="translate(-209.734 -39.57)" style="fill:url(#rsr1xdh15w)"/>
            <g data-name="Group 454">
                <path data-name="Path 32377" d="M614.967 197.159c-4.53-2.612-6.285-6.321-5.231-9.775a.157.157 0 0 0-.276-.142 42.255 42.255 0 0 0-5.946 12.457c-.97 4.247 1.472 8.784 7.12 12.04 4.714 2.725 10.858 4.105 17.037 4.162a6.62 6.62 0 0 0 5.839-3.4l.057-.106a9.164 9.164 0 0 0-.3-9.428 5.711 5.711 0 0 0-4.806-2.654 27.194 27.194 0 0 1-13.484-3.157z" transform="translate(-201.447 -42.764)" style="fill:url(#l68y8hxbxx)"/>
                <path data-name="Path 32378" d="M627.506 216.226h-.064a35.892 35.892 0 0 1-17.3-4.233c-5.677-3.277-8.43-8-7.375-12.627a43.324 43.324 0 0 1 6.037-12.655.678.678 0 0 1 .864-.212.7.7 0 0 1 .361.828c-1.019 3.341.842 6.76 4.983 9.152a26.309 26.309 0 0 0 12.96 3.086h.3a6.219 6.219 0 0 1 5.209 2.895 9.682 9.682 0 0 1 .326 9.98l-.057.106a7.151 7.151 0 0 1-6.243 3.681zm-18.82-27.441a43.932 43.932 0 0 0-4.884 10.851c-.934 4.112 1.628 8.395 6.873 11.424a34.844 34.844 0 0 0 16.775 4.091 6.016 6.016 0 0 0 5.365-3.128l.057-.106a8.587 8.587 0 0 0-.29-8.869 5.214 5.214 0 0 0-4.311-2.407h-.3a27.384 27.384 0 0 1-13.491-3.235c-3.893-2.251-5.96-5.379-5.79-8.621z" transform="translate(-201.225 -42.544)" style="fill:#fff"/>
            </g>
            <g data-name="Group 455">
                <path data-name="Path 32379" d="M628.007 213.43c-6.179-.057-9.888-.58-14.956-3.284-5.755-3.072-8.692-6.717-7.12-12.04a46.23 46.23 0 0 1 3.525-8.557 6.566 6.566 0 0 1 .29-2.145.157.157 0 0 0-.276-.142 42.255 42.255 0 0 0-5.946 12.457c-.97 4.247 1.472 8.784 7.12 12.04a34.758 34.758 0 0 0 17.037 4.162c2.435 0 4.254-1.755 5.5-3.051a.109.109 0 0 0-.12-.177 16.015 16.015 0 0 1-5.04.75z" transform="translate(-201.45 -42.77)" style="fill:#fff"/>
                <path data-name="Path 32380" d="M627.44 216.226a35.1 35.1 0 0 1-17.306-4.233c-5.677-3.277-8.43-8-7.375-12.627a43.324 43.324 0 0 1 6.037-12.655.678.678 0 0 1 .864-.212.7.7 0 0 1 .361.828 6.164 6.164 0 0 0-.262 1.975v.142l-.064.127a46.066 46.066 0 0 0-3.482 8.458c-1.366 4.636.75 8.154 6.859 11.417 5 2.668 8.734 3.164 14.708 3.22a15.344 15.344 0 0 0 4.863-.715.649.649 0 0 1 .764.262.641.641 0 0 1-.078.793c-1.6 1.67-3.426 3.22-5.889 3.22zm-18.75-27.456a43.45 43.45 0 0 0-4.891 10.872c-.934 4.112 1.628 8.395 6.873 11.424a34.069 34.069 0 0 0 16.768 4.091 6.032 6.032 0 0 0 3.942-1.755 17.641 17.641 0 0 1-3.61.34c-6.158-.057-10-.573-15.2-3.348-6.554-3.5-8.9-7.524-7.382-12.67a46.58 46.58 0 0 1 3.5-8.536c0-.142 0-.276.007-.411z" transform="translate(-201.222 -42.544)" style="fill:#fff"/>
            </g>
            <g data-name="Group 456">
                <path data-name="Path 32381" d="M613.2 204.3c-.149 1.869-1 3.327-1.9 3.256s-1.508-1.642-1.359-3.511 1-3.327 1.9-3.256 1.504 1.642 1.359 3.511z" transform="translate(-203.379 -46.741)" style="fill:#fff"/>
                <path data-name="Path 32382" d="M611.15 207.871h-.106c-1.232-.1-2.031-1.854-1.854-4.091s1.253-3.843 2.477-3.751 2.031 1.854 1.854 4.091a6.257 6.257 0 0 1-.736 2.583 1.986 1.986 0 0 1-1.628 1.168zm.4-6.774c-.439 0-1.168 1.076-1.3 2.76-.135 1.713.432 2.9.871 2.937.2.007.488-.227.722-.637a5.249 5.249 0 0 0 .595-2.13c.134-1.713-.432-2.9-.871-2.937h-.021z" transform="translate(-203.159 -46.519)" style="fill:#150035"/>
            </g>
            <g data-name="Group 457">
                <path data-name="Path 32383" d="M634.837 213.27a3.844 3.844 0 1 1-3.815-3.9 3.863 3.863 0 0 1 3.815 3.9z" transform="translate(-208.414 -49.249)" style="fill:#fff"/>
                <path data-name="Path 32384" d="M630.784 217.439h-.028a4.415 4.415 0 0 1-3.043-7.545 4.349 4.349 0 0 1 3.107-1.274 4.415 4.415 0 0 1 3.044 7.545 4.344 4.344 0 0 1-3.079 1.274zm0-7.75a3.267 3.267 0 0 0-2.322.963 3.349 3.349 0 0 0 2.3 5.719 3.177 3.177 0 0 0 2.343-.963 3.332 3.332 0 0 0 .984-2.357 3.326 3.326 0 0 0-3.284-3.362z" transform="translate(-208.198 -49.03)" style="fill:#150035"/>
            </g>
        </g>
        <g data-name="Group 462">
            <g data-name="Group 460">
                <g data-name="Group 459" style="opacity:.3;mix-blend-mode:multiply;isolation:isolate">
                    <path data-name="Path 32388" d="M430.086 14.076c0-10.419-9.343-11.665-18.629-7.057-.552.276-1.685.892-2.223 1.2l-127.22 72.369c-8.862 5.117-14.758 17.27-16.9 27.335-.205.948-8.748 9.385-8.748 10.256l-8.666 10.865c0 2.435 18.353 5.507 20.328 4.933a9.093 9.093 0 0 0 1.564 3.192c1.5 5.386 10.836 4.608 16.761 1.189L385.1 81.869l16.039-7.85 8.678-5.875c9.208-5.316 18.757-21.722 20.109-32.325.064-.5.156-6.788.156-7.262V14.076z" transform="translate(-116.264 -1.307)" style="opacity:.01;fill:url(#gk4bmvsxoB)"/>
                    <path data-name="Path 32389" d="M429.792 15.787c0-10.433-9.088-12.011-18.382-7.361-.481.241-1.741.934-2.215 1.2L282.286 81.881c-8.557 4.94-14.411 16.52-16.633 26.266-.283 1.26-7.892 9.053-7.892 10.214L250.18 129.2c0 3.249 16.732 6.483 19.358 5.719a7.057 7.057 0 0 0 1.876 2.569c1.316 4.714 11.466 2.895 16.655-.1l97.5-55.789 15.777-7.871 8.621-5.726c9.017-5.2 18.176-20.781 19.606-31.2.092-.672.212-6.391.212-7.021v-14z" transform="translate(-116.988 -1.737)" style="fill:url(#svk9npltqC);opacity:.02"/>
                    <path data-name="Path 32390" d="M429.5 17.506c0-10.447-8.826-12.358-18.127-7.665-.411.205-1.8.977-2.2 1.21L282.578 83.19c-8.246 4.763-14.071 15.763-16.364 25.191-.382 1.564-7.036 8.727-7.036 10.171l-6.5 10.829c0 4.063 15.1 7.467 18.389 6.512a6 6 0 0 0 2.187 1.954c1.125 4.042 12.1 1.175 16.548-1.387l96.261-55.088 15.515-7.885 8.557-5.577c8.819-5.1 17.6-19.84 19.1-30.074.12-.835.262-6 .262-6.788V17.506z" transform="translate(-117.719 -2.168)" style="fill:url(#x55lj8fyxD);opacity:.02"/>
                    <path data-name="Path 32391" d="M429.211 19.215c0-10.461-8.564-12.705-17.879-7.963-.34.177-1.854 1.019-2.194 1.21L282.852 84.488c-7.942 4.587-13.724 15-16.1 24.115-.488 1.876-6.172 8.395-6.172 10.136l-5.415 10.808c0 4.877 13.484 8.444 17.426 7.3a5.682 5.682 0 0 0 2.491 1.331c.941 3.362 12.74-.538 16.442-2.675l95.015-54.387 15.26-7.906 8.494-5.429c8.628-4.983 17.023-18.891 18.587-28.949.156-1 .319-5.6.319-6.547v-13.07z" transform="translate(-118.446 -2.596)" style="fill:url(#f80rbdza6E);opacity:.03"/>
                    <path data-name="Path 32392" d="M428.932 20.932c0-10.475-8.3-13.052-17.631-8.267-.276.142-1.911 1.062-2.18 1.217L283.147 85.787c-7.63 4.41-13.377 14.227-15.819 23.046-.6 2.173-5.316 8.062-5.316 10.093l-4.332 10.787c0 5.691 11.856 9.428 16.456 8.09a6.159 6.159 0 0 0 2.8.715c.75 2.69 13.37-2.251 16.336-3.964l93.777-53.68 15-7.927 8.437-5.28c8.437-4.87 16.442-17.943 18.077-27.824.191-1.168.368-5.2.368-6.307V20.932z" transform="translate(-119.18 -3.024)" style="fill:url(#ha2ywvp3eF);opacity:.03"/>
                    <path data-name="Path 32393" d="M428.641 22.636c0-10.5-8.041-13.4-17.376-8.571-.205.106-1.968 1.1-2.173 1.217L283.428 87.075c-7.326 4.233-13.031 13.448-15.55 21.97-.736 2.477-4.459 7.729-4.459 10.051l-3.249 10.773c0 6.5 10.228 10.4 15.487 8.876a7.6 7.6 0 0 0 3.114.092c.566 2.017 14.007-3.971 16.23-5.252l92.531-52.979 14.743-7.942 8.373-5.132c8.246-4.764 15.869-16.987 17.568-26.7a54.085 54.085 0 0 0 .425-6.073z" transform="translate(-119.907 -3.448)" style="fill:url(#iwdkn0u0nG);opacity:.04"/>
                    <path data-name="Path 32394" d="M428.349 24.35c0-10.511-7.779-13.745-17.129-8.876a432.34 432.34 0 0 0-2.159 1.217L283.71 88.371c-7.021 4.049-12.677 12.663-15.281 20.9-.878 2.768-3.6 7.4-3.6 10.008l-2.166 10.751c0 7.312 8.472 8.515 14.524 9.669a7.357 7.357 0 0 0 3.419-.524c.375 1.345 14.644-5.684 16.124-6.54l91.285-52.278 14.478-7.957 8.31-4.983c8.055-4.65 15.289-16.032 17.065-25.573a42.408 42.408 0 0 0 .474-5.832V24.35z" transform="translate(-120.635 -3.874)" style="fill:url(#w0zzlhgxwH);opacity:.04"/>
                    <path data-name="Path 32395" d="M428.055 26.052c0-10.525-7.517-14.1-16.881-9.18a335.78 335.78 0 0 0-2.152 1.224l-125.04 71.566c-6.71 3.872-12.323 11.87-15.012 19.826-1.033 3.058-2.746 7.071-2.746 9.966l-1.083 10.737c0 8.126 6.866 11.912 13.554 10.454a17.944 17.944 0 0 0 3.73-1.147c.191.672 15.274-7.4 16.018-7.828l90.045-51.57 14.22-7.977 8.253-4.841c7.864-4.537 14.708-15.076 16.556-24.455a33.253 33.253 0 0 0 .531-5.592V26.052z" transform="translate(-121.36 -4.294)" style="fill:url(#m45djqxciI);opacity:.05"/>
                    <path data-name="Path 32396" d="M284.276 90.894c-9.18 5.3-16.626 18.141-16.626 28.68v10.716c0 10.539 7.446 14.779 16.626 9.477l126.866-72.676c9.18-5.3 16.626-18.141 16.626-28.68V27.694c0-10.539-7.446-14.779-16.626-9.477z" transform="translate(-122.093 -4.656)" style="fill:url(#r443yndw4J);opacity:.05"/>
                </g>
                <path data-name="Path 32397" d="M402.083 17.494 275.79 89.838c-9.216 5.323-16.683 18.2-16.683 28.779l-18.877 14.347 18.877 5.818c0 10.575 7.467 14.836 16.683 9.513l98.122-56.129 17.929-10.32 10.249-5.9c9.216-5.323 16.683-18.2 16.683-28.779V27.006c0-10.575-7.467-14.836-16.683-9.513z" transform="translate(-114.081 -4.442)" style="fill:url(#nridbcrizK)"/>
                <path data-name="Path 32398" d="M409.876 17.494 283.583 89.838c-9.216 5.323-16.683 18.2-16.683 28.779v1.614c0-10.575 7.467-23.457 16.683-28.779l126.293-72.345c9.216-5.323 16.683-1.062 16.683 9.513v-1.614c0-10.574-7.468-14.835-16.683-9.512z" transform="translate(-121.874 -4.442)" style="fill:url(#yyhywaiyeL);mix-blend-mode:color-dodge;isolation:isolate"/>
            </g>
            <g data-name="Group 461">
                <path data-name="Path 32399" d="M345.225 93.281 289.252 125.6c-.587.34-1.062-.021-1.062-.8a2.538 2.538 0 0 1 1.062-2.024l55.973-32.318c.587-.34 1.062.021 1.062.8a2.538 2.538 0 0 1-1.062 2.024z" transform="translate(-128.095 -26.395)" style="fill:#fff"/>
                <path data-name="Path 32400" d="m345.225 132.5-55.973 32.32c-.587.34-1.062-.021-1.062-.8a2.538 2.538 0 0 1 1.062-2.02l55.973-32.318c.587-.34 1.062.021 1.062.8a2.538 2.538 0 0 1-1.062 2.018z" transform="translate(-128.095 -37.855)" style="fill:#fff"/>
                <path data-name="Path 32401" d="m345.225 145.571-55.973 32.318c-.587.34-1.062-.021-1.062-.8a2.538 2.538 0 0 1 1.062-2.024l55.973-32.318c.587-.34 1.062.021 1.062.8a2.538 2.538 0 0 1-1.062 2.024z" transform="translate(-128.095 -41.674)" style="fill:#fff"/>
                <path data-name="Path 32402" d="M435.745 41.021 379.772 73.34c-.587.34-1.062-.021-1.062-.8a2.538 2.538 0 0 1 1.062-2.024L435.745 38.2c.587-.34 1.062.021 1.062.8a2.538 2.538 0 0 1-1.062 2.024z" transform="translate(-154.545 -11.124)" style="fill:#fff"/>
                <path data-name="Path 32403" d="m376.722 80.671-87.47 50.5c-.587.34-1.062-.021-1.062-.8a2.538 2.538 0 0 1 1.062-2.024l87.47-50.5c.587-.34 1.062.021 1.062.8a2.538 2.538 0 0 1-1.062 2.024z" transform="translate(-128.095 -22.71)" style="fill:#fff"/>
                <path data-name="Path 32404" d="m376.722 93.741-87.47 50.5c-.587.34-1.062-.021-1.062-.8a2.538 2.538 0 0 1 1.062-2.024l87.47-50.5c.587-.34 1.062.021 1.062.8a2.538 2.538 0 0 1-1.062 2.024z" transform="translate(-128.095 -26.529)" style="fill:#fff"/>
                <path data-name="Path 32405" d="m457.067 60.511-32.275 18.637c-.587.34-1.062-.021-1.062-.8a2.538 2.538 0 0 1 1.062-2.024l32.276-18.636c.587-.34 1.062.021 1.062.8a2.538 2.538 0 0 1-1.063 2.023z" transform="translate(-167.7 -16.819)" style="fill:#fff"/>
            </g>
        </g>
        <g data-name="Group 464" style="opacity:.8">
            <g data-name="Group 463" style="isolation:isolate">
                <path data-name="Path 32406" d="m705.3 407-.05 16.322-15.586 9.1.036-16.322z" transform="translate(-226.68 -98.417)" style="fill:#abe59e"/>
                <path data-name="Path 32407" d="m683.221 416.1-.042 16.315-15.7-9.1.051-16.315z" transform="translate(-220.199 -98.417)" style="fill:#8ddb7f"/>
                <path data-name="Path 32408" d="m698.835 403.245-15.593 9.1-15.692-9.1 15.593-9.1z" transform="translate(-220.219 -94.662)" style="fill:#8eef7f"/>
            </g>
        </g>
        <g data-name="Group 466" style="opacity:.8">
            <g data-name="Group 465" style="isolation:isolate">
                <path data-name="Path 32409" d="m664.754 408.95-.064 21.623-20.66 12.061.064-21.623z" transform="translate(-213.347 -98.496)" style="fill:#caeae8"/>
                <path data-name="Path 32410" d="m635.509 421.011-.064 21.623-20.8-12.061.057-21.623z" transform="translate(-204.762 -98.496)" style="fill:#b0ccc4"/>
                <path data-name="Path 32411" d="m656.193 403.971-20.661 12.061-20.8-12.061L635.4 391.91z" transform="translate(-204.785 -93.517)" style="fill:#f0f7f7"/>
            </g>
        </g>
    </g>
</svg>
