<svg id="Layer_2" data-name="Layer 2" xmlns="http://www.w3.org/2000/svg" xmlns:xlink="http://www.w3.org/1999/xlink" width="231.623" height="40" viewBox="0 0 231.623 40">
  <defs>
    <linearGradient id="linear-gradient" x1="-0.011" y1="0.408" x2="3.124" y2="1.012" gradientUnits="objectBoundingBox">
      <stop offset="0" stop-color="#50ffc5"/>
      <stop offset="0.06" stop-color="#4bf9c5"/>
      <stop offset="0.46" stop-color="#30d6c4"/>
      <stop offset="0.79" stop-color="#1fc1c3"/>
      <stop offset="1" stop-color="#19b9c3"/>
    </linearGradient>
    <linearGradient id="linear-gradient-2" x1="-1.321" y1="0.097" x2="2.216" y2="0.877" xlink:href="#linear-gradient"/>
    <linearGradient id="linear-gradient-3" x1="-2.488" y1="-0.148" x2="1.044" y2="0.62" xlink:href="#linear-gradient"/>
  </defs>
  <g id="圖層_1" data-name="圖層 1">
    <path id="Path_31737" data-name="Path 31737" d="M855.245,27.279V24.6a2.829,2.829,0,0,1,2.833-2.825h0a2.829,2.829,0,0,1,2.838,2.825v2.674a1.112,1.112,0,0,0,1.111,1.11h3.919a2.693,2.693,0,0,1,2.7,2.691h0a2.7,2.7,0,0,1-2.7,2.694h-3.919a1.109,1.109,0,0,0-1.111,1.108V46.968c0,3.114,1.111,4.172,3.76,4.172h1.293a2.564,2.564,0,0,1,2.568,2.561h0a2.564,2.564,0,0,1-2.568,2.568H863.5c-5.772,0-8.261-2.324-8.261-9.61V34.882a1.109,1.109,0,0,0-1.111-1.108h0a2.7,2.7,0,0,1-2.7-2.694h0a2.7,2.7,0,0,1,2.7-2.7h0A1.112,1.112,0,0,0,855.245,27.279Z" transform="translate(-637.019 -16.281)" fill="#fff"/>
    <path id="Path_31738" data-name="Path 31738" d="M456.3,20.315h0a3.119,3.119,0,0,1-3.123,3.115h-10.7c-6.885,0-9.9,3.435-9.9,11.618,0,8.133,2.964,11.565,9.9,11.565h10.7A3.119,3.119,0,0,1,456.3,49.73h0a3.119,3.119,0,0,1-3.123,3.115h-10.7c-10.433,0-16.159-5.862-16.159-17.8,0-11.986,5.772-17.847,16.159-17.847h10.7A3.119,3.119,0,0,1,456.3,20.315Z" transform="translate(-318.98 -12.857)" fill="#fff"/>
    <path id="Path_31739" data-name="Path 31739" d="M578.973,2.8V9.3a2.8,2.8,0,0,0,2.808,2.793h7.042c9.425,0,14.086,4.534,14.086,12.2V37.179a2.8,2.8,0,0,1-2.808,2.8h-.053a2.8,2.8,0,0,1-2.792-2.793V24.3c0-4.282-2.6-6.8-8.421-6.8H581.78a2.8,2.8,0,0,0-2.808,2.8V37.2a2.8,2.8,0,0,1-2.805,2.8h0a2.8,2.8,0,0,1-2.808-2.8V2.8A2.8,2.8,0,0,1,576.168,0h0a2.8,2.8,0,0,1,2.805,2.8Z" transform="translate(-428.997)" fill="#fff"/>
    <path id="Path_31740" data-name="Path 31740" d="M737.8,48c6.989,0,9.741,3.919,9.741,9.213V70.342c0,4.025-1.058,5.613-5.769,5.613H728.692c-6.618,0-9.372-3.229-9.372-8.526,0-5.083,2.542-8.047,9.425-8.047h11.172a2.118,2.118,0,0,0,2.118-2.118h0c0-2.171-1.217-3.866-4.292-3.866H723.716a2.7,2.7,0,0,1-2.709-2.692h0A2.7,2.7,0,0,1,723.716,48Zm4.234,21.075V65.957a2.118,2.118,0,0,0-2.118-2.118H728.851c-2.964,0-4.025,1.22-4.025,3.282s1.114,3.388,3.919,3.388H740.5c1.113,0,1.535-.422,1.535-1.427Z" transform="translate(-538.265 -35.978)" fill="#fff"/>
    <path id="Path_31741" data-name="Path 31741" d="M19.909,31.88H11.544c-4.184,0-5.3-2.06-5.3-4.225,0-2.483,1.429-4.225,4.658-4.225H26.1a3.119,3.119,0,0,0,3.126-3.115h0A3.119,3.119,0,0,0,26.1,17.2h-15C3.176,17.2,0,21.528,0,27.443c0,4.965,2.224,10.3,11.756,10.3h8.312c4.4,0,5.613,2.113,5.613,4.437,0,2.586-1.535,4.434-4.923,4.434h-17a3.117,3.117,0,0,0,0,6.232H20.545c8.155,0,11.385-4.437,11.385-10.457C31.929,37.266,29.652,31.88,19.909,31.88Z" transform="translate(0 -12.857)" fill="url(#linear-gradient)"/>
    <path id="Path_31742" data-name="Path 31742" d="M157.866,64.634h11.279c6.883,0,9.478-2.914,9.478-8.049,0-5.4-2.805-8.585-9.425-8.585h-9.044c-6.991,0-9.743,3.919-9.743,9.213v9.531c0,5.3,2.752,9.213,9.743,9.213H174.52a2.729,2.729,0,0,0,2.727-2.709h0a2.727,2.727,0,0,0-2.727-2.727H160.153c-3.073,0-4.292-1.641-4.292-3.866A2.02,2.02,0,0,1,157.866,64.634Zm-2.02-7.36c0-2.171,1.217-3.866,4.292-3.866h9c2.755,0,3.972,1.376,3.972,3.494,0,2.065-1.111,3.335-4.131,3.335H157.871a2.02,2.02,0,0,1-2.02-2.02Z" transform="translate(-112.539 -35.978)" fill="url(#linear-gradient-2)"/>
    <path id="Path_31743" data-name="Path 31743" d="M305.589,48H291.506a2.7,2.7,0,1,0,0,5.4h14.031c3.07,0,4.292,1.694,4.292,3.866a2.118,2.118,0,0,1-2.118,2.118H296.535c-6.883,0-9.425,2.964-9.425,8.047,0,5.3,2.752,8.526,9.372,8.526h13.071c4.714,0,5.772-1.588,5.772-5.613V57.212C315.333,51.922,312.583,48,305.589,48Zm4.237,21.075c0,1.01-.424,1.429-1.535,1.429H296.535c-2.808,0-3.919-1.326-3.919-3.388s1.058-3.282,4.025-3.282h11.066a2.118,2.118,0,0,1,2.118,2.118Z" transform="translate(-214.819 -35.974)" fill="url(#linear-gradient-3)"/>
  </g>
</svg>
