<svg id="Layer_2" data-name="Layer 2" xmlns="http://www.w3.org/2000/svg" xmlns:xlink="http://www.w3.org/1999/xlink" width="274.166" height="40" viewBox="0 0 274.166 40">
  <defs>
    <linearGradient id="linear-gradient" x1="-0.011" y1="0.408" x2="3.124" y2="1.012" gradientUnits="objectBoundingBox">
      <stop offset="0" stop-color="#50ffc5"/>
      <stop offset="0.06" stop-color="#4bf9c5"/>
      <stop offset="0.46" stop-color="#30d6c4"/>
      <stop offset="0.79" stop-color="#1fc1c3"/>
      <stop offset="1" stop-color="#19b9c3"/>
    </linearGradient>
    <linearGradient id="linear-gradient-2" x1="-1.321" y1="0.097" x2="2.216" y2="0.877" xlink:href="#linear-gradient"/>
    <linearGradient id="linear-gradient-3" x1="-2.488" y1="-0.148" x2="1.044" y2="0.62" xlink:href="#linear-gradient"/>
  </defs>
  <g id="圖層_1" data-name="圖層 1">
    <path id="Path_31744" data-name="Path 31744" d="M692.245,33.35c7.155,0,10.186,3.433,10.186,9.278,0,5.55-2.8,8.7-10.244,8.7H680a2.183,2.183,0,0,0-2.183,2.183h0c0,2.4,1.318,4.178,4.639,4.178h15.537a2.947,2.947,0,0,1,2.947,2.947h0a2.95,2.95,0,0,1-2.947,2.947H682.46c-7.553,0-10.53-4.235-10.53-9.957V43.307c0-5.73,2.977-9.957,10.53-9.957ZM677.824,44.393a2.183,2.183,0,0,0,2.183,2.183h12.006c3.275,0,4.464-1.364,4.464-3.6,0-2.289-1.315-3.777-4.292-3.777H682.46c-3.318,0-4.639,1.831-4.639,4.178Z" transform="translate(-488.58 -24.25)" fill="#fff"/>
    <path id="Path_31745" data-name="Path 31745" d="M828.872,33.35c7.155,0,10.186,3.433,10.186,9.278,0,5.55-2.8,8.7-10.243,8.7H816.629a2.183,2.183,0,0,0-2.183,2.183h0c0,2.4,1.318,4.178,4.639,4.178h15.537a2.947,2.947,0,0,1,2.947,2.947h0a2.95,2.95,0,0,1-2.947,2.947H819.09c-7.553,0-10.53-4.235-10.53-9.957V43.307c0-5.73,2.977-9.957,10.53-9.957ZM814.454,44.393a2.183,2.183,0,0,0,2.183,2.183h12.006c3.274,0,4.464-1.364,4.464-3.6,0-2.289-1.315-3.777-4.292-3.777H819.09c-3.318,0-4.639,1.831-4.639,4.178Z" transform="translate(-587.928 -24.25)" fill="#fff"/>
    <path id="Path_31746" data-name="Path 31746" d="M940.71,13.081v-2.89a3.062,3.062,0,0,1,3.062-3.062h0a3.062,3.062,0,0,1,3.061,3.062v2.89a1.2,1.2,0,0,0,1.2,1.2h4.235a2.917,2.917,0,0,1,2.917,2.906h0a2.92,2.92,0,0,1-2.917,2.92h-4.235a1.2,1.2,0,0,0-1.2,1.2v13.1c0,3.375,1.2,4.521,4.063,4.521h1.4a2.775,2.775,0,0,1,2.775,2.775h0A2.775,2.775,0,0,1,952.3,44.48h-2.66c-6.238,0-8.928-2.519-8.928-10.415V21.322a1.2,1.2,0,0,0-1.2-1.2h0a2.92,2.92,0,0,1-2.92-2.931h0a2.917,2.917,0,0,1,2.92-2.917h0A1.2,1.2,0,0,0,940.71,13.081Z" transform="translate(-681.023 -5.184)" fill="#fff"/>
    <path id="Path_31747" data-name="Path 31747" d="M427.2,39.315h0a3.381,3.381,0,0,1-3.168-4.557L434.293,7.152c1.49-4.4,3.951-7.152,9.1-7.152,5.722,0,8.579,3.375,8.579,8.413V31.246a1.968,1.968,0,0,0,1.946,2.183,2.27,2.27,0,0,0,2.183-1.6L465.484,7.16c1.5-4.412,3.951-7.16,9.1-7.16,5.73,0,8.584,3.375,8.584,8.413V35.937a3.381,3.381,0,0,1-3.381,3.378h-.052a3.378,3.378,0,0,1-3.378-3.378V8.756a1.986,1.986,0,0,0-1.946-2.232,2.3,2.3,0,0,0-2.118,1.659l-9.387,24.665C461.419,37.255,458.9,40,453.751,40c-5.665,0-8.527-3.375-8.527-8.459V8.756a2.027,2.027,0,0,0-2-2.232A2.305,2.305,0,0,0,441.1,8.183L430.361,37.11a3.378,3.378,0,0,1-3.165,2.2Z" transform="translate(-308.169)" fill="#fff"/>
    <path id="Path_31748" data-name="Path 31748" d="M21.516,18.428h-9.04c-4.521,0-5.73-2.232-5.73-4.579,0-2.69,1.544-4.579,5.034-4.579H28.2A3.375,3.375,0,0,0,31.582,5.9h0a3.375,3.375,0,0,0-3.37-3.375H12.006C3.433,2.52,0,7.211,0,13.62,0,19,2.4,24.781,12.7,24.781h8.983c4.751,0,6.066,2.289,6.066,4.805,0,2.805-1.659,4.808-5.321,4.808H4.063a3.378,3.378,0,0,0,0,6.754H22.2c8.814,0,12.3-4.808,12.3-11.332C34.507,24.265,32.046,18.428,21.516,18.428Z" transform="translate(0 -1.832)" fill="url(#linear-gradient)"/>
    <path id="Path_31749" data-name="Path 31749" d="M158.468,51.3h12.189c7.438,0,10.244-3.149,10.244-8.7,0-5.837-3.032-9.278-10.186-9.278H160.94c-7.556,0-10.53,4.232-10.53,9.957v10.3c0,5.73,2.974,9.957,10.53,9.957h15.526a2.95,2.95,0,0,0,2.947-2.947h0a2.947,2.947,0,0,0-2.947-2.947H160.94c-3.321,0-4.639-1.774-4.639-4.178A2.183,2.183,0,0,1,158.468,51.3Zm-2.183-7.954c0-2.347,1.315-4.178,4.639-4.178h9.728c2.977,0,4.292,1.487,4.292,3.777,0,2.232-1.2,3.6-4.464,3.6H158.473a2.183,2.183,0,0,1-2.183-2.183Z" transform="translate(-109.368 -24.228)" fill="url(#linear-gradient-2)"/>
    <path id="Path_31750" data-name="Path 31750" d="M307.081,33.346H291.861a2.92,2.92,0,1,0,0,5.837h15.163c3.318,0,4.639,1.831,4.639,4.178a2.289,2.289,0,0,1-2.289,2.289H297.3c-7.438,0-10.186,3.2-10.186,8.7,0,5.73,2.974,9.215,10.129,9.215h14.127c5.094,0,6.238-1.716,6.238-6.066V43.306C317.611,37.579,314.64,33.346,307.081,33.346ZM311.66,56.12c0,1.091-.458,1.547-1.659,1.547H297.3c-3.034,0-4.235-1.433-4.235-3.662s1.143-3.547,4.35-3.547h11.96a2.289,2.289,0,0,1,2.289,2.289Z" transform="translate(-208.766 -24.246)" fill="url(#linear-gradient-3)"/>
  </g>
</svg>
