<svg xmlns="http://www.w3.org/2000/svg" xmlns:xlink="http://www.w3.org/1999/xlink" width="253.661" height="40" viewBox="0 0 253.661 40">
  <defs>
    <linearGradient id="linear-gradient" x1="-0.011" y1="0.408" x2="3.124" y2="1.012" gradientUnits="objectBoundingBox">
      <stop offset="0" stop-color="#50ffc5"/>
      <stop offset="0.06" stop-color="#4bf9c5"/>
      <stop offset="0.46" stop-color="#30d6c4"/>
      <stop offset="0.79" stop-color="#1fc1c3"/>
      <stop offset="1" stop-color="#19b9c3"/>
    </linearGradient>
    <linearGradient id="linear-gradient-2" x1="-1.321" y1="0.096" x2="2.216" y2="0.877" xlink:href="#linear-gradient"/>
    <linearGradient id="linear-gradient-3" x1="-2.488" y1="-0.148" x2="1.044" y2="0.62" xlink:href="#linear-gradient"/>
  </defs>
  <g id="Layer_2" data-name="Layer 2" transform="translate(-7.814 64)">
    <g id="圖層_1" data-name="圖層 1" transform="translate(7.814 -64)">
      <path id="Path_31760" data-name="Path 31760" d="M455.452,14.154h0a3.244,3.244,0,0,1-3.244,3.244H436.422c-3.357,0-4.841,1.815-4.841,4.4,0,2.255,1.154,4.4,5.507,4.4h8.7c10.121,0,12.486,5.61,12.486,10.944,0,6.271-3.357,10.892-11.825,10.892H429a3.244,3.244,0,0,1-3.244-3.247h0A3.244,3.244,0,0,1,429,41.545h17.65c3.522,0,5.117-1.925,5.117-4.621,0-2.418-1.267-4.618-5.83-4.618H437.3c-9.9,0-12.211-5.555-12.211-10.726,0-6.161,3.3-10.669,11.539-10.669H452.2a3.244,3.244,0,0,1,3.255,3.244Z" transform="translate(-313.606 -8.049)" fill="#fff"/>
      <path id="Path_31761" data-name="Path 31761" d="M580.179,41.73a2.864,2.864,0,0,1,2.861,2.861V59.11c0,3.409,2.528,6,7.149,6h4.721c4.618,0,7.081-2.586,7.081-6V44.591a2.861,2.861,0,0,1,2.861-2.861h0a2.861,2.861,0,0,1,2.859,2.861V59.333c0,6.709-4.291,11.44-12.589,11.44h-5.374c-8.306,0-12.588-4.721-12.588-11.44V44.591A2.861,2.861,0,0,1,580,41.73Z" transform="translate(-425.794 -30.786)" fill="#fff"/>
      <path id="Path_31762" data-name="Path 31762" d="M730.883,2.916V3.85a2.916,2.916,0,0,1-2.916,2.916h-.055A2.914,2.914,0,0,1,725,3.85V2.916A2.914,2.914,0,0,1,727.911,0h.055a2.916,2.916,0,0,1,2.916,2.916Zm-.055,10.944v23.21a2.916,2.916,0,0,1-2.916,2.916h0A2.914,2.914,0,0,1,725,37.071V13.86a2.914,2.914,0,0,1,2.911-2.916h0a2.916,2.916,0,0,1,2.916,2.916Z" transform="translate(-534.861)" fill="#fff"/>
      <path id="Path_31763" data-name="Path 31763" d="M771.955,21.24V18.463A2.943,2.943,0,0,1,774.9,15.52h0a2.943,2.943,0,0,1,2.943,2.943V21.24a1.154,1.154,0,0,0,1.154,1.154h4.07A2.806,2.806,0,0,1,785.87,25.2h0a2.806,2.806,0,0,1-2.806,2.806h-4.07a1.154,1.154,0,0,0-1.154,1.154V41.749c0,3.244,1.154,4.343,3.905,4.343h1.348a2.67,2.67,0,0,1,2.667,2.67h0a2.67,2.67,0,0,1-2.667,2.667h-2.56c-6,0-8.579-2.421-8.579-10.01V29.16a1.154,1.154,0,0,0-1.157-1.154h0A2.806,2.806,0,0,1,768,25.2h0a2.806,2.806,0,0,1,2.8-2.806h0A1.154,1.154,0,0,0,771.955,21.24Z" transform="translate(-566.584 -11.45)" fill="#fff"/>
      <path id="Path_31764" data-name="Path 31764" d="M874.94,41.73c6.876,0,9.79,3.3,9.79,8.917,0,5.334-2.693,8.361-9.845,8.361H863.17a2.1,2.1,0,0,0-2.1,2.1h0c0,2.308,1.267,4.015,4.458,4.015h14.949a2.832,2.832,0,0,1,2.832,2.832h0a2.835,2.835,0,0,1-2.832,2.832H865.531c-7.259,0-10.121-4.07-10.121-9.57V51.3c0-5.507,2.861-9.573,10.121-9.573ZM861.072,52.346a2.1,2.1,0,0,0,2.1,2.1H874.71c3.147,0,4.291-1.311,4.291-3.464,0-2.2-1.264-3.63-4.125-3.63h-9.344c-3.189,0-4.458,1.76-4.458,4.015Z" transform="translate(-631.07 -30.786)" fill="#fff"/>
      <path id="Path_31765" data-name="Path 31765" d="M20.679,26.2H11.991c-4.346,0-5.507-2.145-5.507-4.4,0-2.586,1.484-4.4,4.839-4.4H27.107a3.244,3.244,0,0,0,3.247-3.244h0a3.244,3.244,0,0,0-3.247-3.244H11.539C3.3,10.91,0,15.418,0,21.579c0,5.172,2.311,10.726,12.211,10.726h8.634c4.566,0,5.83,2.2,5.83,4.618,0,2.7-1.595,4.621-5.114,4.621H3.905a3.247,3.247,0,0,0,0,6.491H21.34c8.471,0,11.825-4.621,11.825-10.892C33.165,31.81,30.8,26.2,20.679,26.2Z" transform="translate(0 -8.049)" fill="url(#linear-gradient)"/>
      <path id="Path_31766" data-name="Path 31766" d="M158.155,58.988H169.87c7.149,0,9.845-3.026,9.845-8.361,0-5.61-2.914-8.917-9.79-8.917h-9.394c-7.262,0-10.121,4.07-10.121,9.573v9.911c0,5.507,2.859,9.57,10.121,9.57h14.923a2.835,2.835,0,0,0,2.832-2.832h0a2.832,2.832,0,0,0-2.832-2.832H160.531c-3.192,0-4.458-1.707-4.458-4.015A2.1,2.1,0,0,1,158.155,58.988Zm-2.1-7.645c0-2.255,1.264-4.015,4.458-4.015h9.35c2.861,0,4.125,1.429,4.125,3.63,0,2.145-1.154,3.464-4.291,3.464H158.16a2.1,2.1,0,0,1-2.1-2.1Z" transform="translate(-110.963 -30.771)" fill="url(#linear-gradient-2)"/>
      <path id="Path_31767" data-name="Path 31767" d="M306.3,41.73H291.676a2.806,2.806,0,1,0,0,5.612H306.25c3.189,0,4.458,1.76,4.458,4.015a2.2,2.2,0,0,1-2.2,2.2H296.9c-7.149,0-9.79,3.082-9.79,8.361,0,5.507,2.859,8.857,9.735,8.857h13.577c4.9,0,6-1.65,6-5.83V51.305C316.425,45.8,313.569,41.73,306.3,41.73Zm4.4,21.891c0,1.049-.441,1.487-1.595,1.487H296.9c-2.916,0-4.07-1.377-4.07-3.522s1.1-3.409,4.18-3.409h11.495a2.2,2.2,0,0,1,2.2,2.2Z" transform="translate(-211.812 -30.786)" fill="url(#linear-gradient-3)"/>
    </g>
  </g>
</svg>
