<svg id="Layer_2" data-name="Layer 2" xmlns="http://www.w3.org/2000/svg" xmlns:xlink="http://www.w3.org/1999/xlink" width="261.401" height="40" viewBox="0 0 261.401 40">
  <defs>
    <linearGradient id="linear-gradient" x1="-0.011" y1="0.408" x2="3.124" y2="1.012" gradientUnits="objectBoundingBox">
      <stop offset="0" stop-color="#50ffc5"/>
      <stop offset="0.06" stop-color="#4bf9c5"/>
      <stop offset="0.46" stop-color="#30d6c4"/>
      <stop offset="0.79" stop-color="#1fc1c3"/>
      <stop offset="1" stop-color="#19b9c3"/>
    </linearGradient>
    <linearGradient id="linear-gradient-2" x1="-1.321" y1="0.096" x2="2.216" y2="0.877" xlink:href="#linear-gradient"/>
    <linearGradient id="linear-gradient-3" x1="-2.488" y1="-0.148" x2="1.044" y2="0.62" xlink:href="#linear-gradient"/>
  </defs>
  <g id="圖層_1" data-name="圖層 1">
    <path id="Path_31768" data-name="Path 31768" d="M920.363,41.63c6.767,0,9.634,3.246,9.634,8.774,0,5.252-2.653,8.227-9.688,8.227H908.781a2.065,2.065,0,0,0-2.065,2.065h0c0,2.274,1.244,3.951,4.387,3.951H925.8a2.79,2.79,0,0,1,2.787,2.787h0a2.787,2.787,0,0,1-2.787,2.787H911.109c-7.143,0-9.959-4.005-9.959-9.417V51.047c0-5.419,2.815-9.417,9.959-9.417ZM906.724,52.076a2.064,2.064,0,0,0,2.065,2.065h11.355c3.1,0,4.222-1.29,4.222-3.409,0-2.165-1.244-3.572-4.059-3.572h-9.2c-3.141,0-4.387,1.732-4.387,3.951Z" transform="translate(-668.595 -30.887)" fill="#fff"/>
    <path id="Path_31769" data-name="Path 31769" d="M427.356,10.91a3.29,3.29,0,0,1,3.081,2.129L440.729,40.3a1.739,1.739,0,0,0,1.786,1.246A1.781,1.781,0,0,0,444.3,40.3L455.113,13a3.29,3.29,0,0,1,3.061-2.08h0a3.293,3.293,0,0,1,3.063,4.506L450.14,43.39c-1.347,3.414-3.837,4.7-7.626,4.7-3.572,0-6.333-1.135-7.685-4.707L424.274,15.362a3.293,3.293,0,0,1,3.081-4.452Z" transform="translate(-314.628 -8.095)" fill="#fff"/>
    <path id="Path_31770" data-name="Path 31770" d="M595.565,41.73c7.577,0,12.387,4.645,12.387,14.289s-4.815,14.289-12.387,14.289h-6.008c-7.631,0-12.387-4.645-12.387-14.289s4.764-14.289,12.387-14.289ZM590.1,47.253c-4.978,0-7.143,2.6-7.143,8.774s2.165,8.715,7.143,8.715h4.926c4.924-.008,7.135-2.555,7.135-8.723s-2.219-8.774-7.143-8.774Z" transform="translate(-428.223 -30.961)" fill="#fff"/>
    <path id="Path_31771" data-name="Path 31771" d="M728.891,2.87v.919a2.867,2.867,0,0,1-2.867,2.87h-.054a2.87,2.87,0,0,1-2.87-2.87V2.87A2.87,2.87,0,0,1,725.97,0h.054a2.867,2.867,0,0,1,2.867,2.87Zm-.054,10.769V36.477a2.867,2.867,0,0,1-2.867,2.87h0a2.87,2.87,0,0,1-2.87-2.87V13.639a2.87,2.87,0,0,1,2.87-2.87h0A2.867,2.867,0,0,1,728.837,13.639Z" transform="translate(-536.493)" fill="#fff"/>
    <path id="Path_31772" data-name="Path 31772" d="M799.1,44.491h0a2.761,2.761,0,0,1-2.761,2.761H784.926c-4.981,0-7.143,2.6-7.143,8.774s2.162,8.715,7.143,8.715h11.419a2.759,2.759,0,0,1,2.751,2.751v.054a2.761,2.761,0,0,1-2.761,2.761H784.387c-7.631,0-12.387-4.645-12.387-14.289s4.761-14.289,12.387-14.289h11.961A2.761,2.761,0,0,1,799.1,44.491Z" transform="translate(-572.774 -30.961)" fill="#fff"/>
    <path id="Path_31773" data-name="Path 31773" d="M20.348,25.955H11.8c-4.276,0-5.419-2.111-5.419-4.33,0-2.545,1.461-4.33,4.761-4.33H26.674A3.192,3.192,0,0,0,29.868,14.1h0a3.192,3.192,0,0,0-3.195-3.192H11.355C3.246,10.91,0,15.346,0,21.408,0,26.5,2.274,31.963,12.015,31.963h8.5c4.493,0,5.737,2.165,5.737,4.545,0,2.653-1.569,4.547-5.032,4.547H3.843a3.195,3.195,0,0,0,0,6.387H21c8.335,0,11.636-4.547,11.636-10.717C32.635,31.475,30.307,25.955,20.348,25.955Z" transform="translate(0 -8.095)" fill="url(#linear-gradient)"/>
    <path id="Path_31774" data-name="Path 31774" d="M158.031,58.711h11.528c7.035,0,9.688-2.978,9.688-8.227,0-5.52-2.867-8.774-9.634-8.774h-9.244c-7.146,0-9.959,4.005-9.959,9.419v9.752c0,5.419,2.813,9.417,9.959,9.417h14.684a2.79,2.79,0,0,0,2.787-2.787h0a2.787,2.787,0,0,0-2.787-2.787H160.369c-3.141,0-4.387-1.68-4.387-3.951A2.065,2.065,0,0,1,158.031,58.711Zm-2.065-7.523c0-2.219,1.244-3.951,4.387-3.951h9.2c2.815,0,4.059,1.406,4.059,3.572,0,2.111-1.135,3.409-4.222,3.409H158.036a2.065,2.065,0,0,1-2.065-2.065Z" transform="translate(-111.594 -30.946)" fill="url(#linear-gradient-2)"/>
    <path id="Path_31775" data-name="Path 31775" d="M306,41.73H291.6a2.761,2.761,0,1,0,0,5.523h14.341c3.138,0,4.387,1.732,4.387,3.951a2.165,2.165,0,0,1-2.165,2.165H296.744c-7.035,0-9.634,3.03-9.634,8.225,0,5.419,2.813,8.715,9.579,8.715h13.36c4.818,0,5.9-1.623,5.9-5.737V51.152C315.956,45.735,313.146,41.73,306,41.73Zm4.33,21.541c0,1.032-.434,1.463-1.569,1.463H296.744c-2.87,0-4.005-1.355-4.005-3.466s1.081-3.355,4.114-3.355h11.311a2.165,2.165,0,0,1,2.165,2.165Z" transform="translate(-213.017 -30.961)" fill="url(#linear-gradient-3)"/>
  </g>
</svg>
