<svg id="Layer_2" data-name="Layer 2" xmlns="http://www.w3.org/2000/svg" xmlns:xlink="http://www.w3.org/1999/xlink" width="156.967" height="40" viewBox="0 0 156.967 40">
  <defs>
    <linearGradient id="linear-gradient" x1="-0.011" y1="0.408" x2="3.124" y2="1.012" gradientUnits="objectBoundingBox">
      <stop offset="0" stop-color="#50ffc5"/>
      <stop offset="0.06" stop-color="#4bf9c5"/>
      <stop offset="0.46" stop-color="#30d6c4"/>
      <stop offset="0.79" stop-color="#1fc1c3"/>
      <stop offset="1" stop-color="#19b9c3"/>
    </linearGradient>
    <linearGradient id="linear-gradient-2" x1="-1.321" y1="0.097" x2="2.216" y2="0.877" xlink:href="#linear-gradient"/>
    <linearGradient id="linear-gradient-3" x1="-2.488" y1="-0.148" x2="1.044" y2="0.62" xlink:href="#linear-gradient"/>
  </defs>
  <g id="圖層_1" data-name="圖層 1" transform="translate(0 0)">
    <path id="Path_31776" data-name="Path 31776" d="M22.277,16.471h-9.36c-4.681,0-5.933-2.311-5.933-4.738,0-2.786,1.6-4.741,5.213-4.741H29.2a3.5,3.5,0,0,0,3.5-3.5h0A3.5,3.5,0,0,0,29.21,0H12.431C3.554,0,0,4.859,0,11.5c0,5.569,2.489,11.552,13.154,11.552h9.3c4.919,0,6.281,2.37,6.281,4.978,0,2.9-1.718,4.975-5.509,4.975H4.207a3.5,3.5,0,0,0,0,6.993H22.989c9.126,0,12.739-4.975,12.739-11.73C35.728,22.514,33.18,16.471,22.277,16.471Z" transform="translate(0 0)" fill="url(#linear-gradient)"/>
    <path id="Path_31777" data-name="Path 31777" d="M158.753,49.413h12.62c7.7,0,10.606-3.258,10.606-9.007,0-6.043-3.139-9.606-10.547-9.606h-10.12c-7.823,0-10.9,4.385-10.9,10.309V51.775c0,5.933,3.08,10.309,10.9,10.309h16.076a3.051,3.051,0,0,0,3.051-3.051h0A3.054,3.054,0,0,0,177.388,56H161.313c-3.438,0-4.8-1.836-4.8-4.325A2.26,2.26,0,0,1,158.753,49.413Zm-2.26-8.236c0-2.43,1.362-4.325,4.8-4.325h10.072c3.082,0,4.444,1.54,4.444,3.91,0,2.311-1.243,3.732-4.622,3.732H158.759a2.26,2.26,0,0,1-2.26-2.26Z" transform="translate(-107.915 -22.098)" fill="url(#linear-gradient-2)"/>
    <path id="Path_31778" data-name="Path 31778" d="M307.788,30.826H292.029a3.023,3.023,0,1,0,0,6.043h15.7c3.435,0,4.8,1.9,4.8,4.325a2.37,2.37,0,0,1-2.37,2.37h-12.5c-7.7,0-10.547,3.317-10.547,9.007,0,5.933,3.079,9.538,10.487,9.538h14.626c5.275,0,6.458-1.777,6.458-6.281V41.139C318.691,35.211,315.614,30.826,307.788,30.826Zm4.741,23.582c0,1.13-.475,1.6-1.718,1.6H297.657c-3.142,0-4.385-1.48-4.385-3.792s1.184-3.673,4.5-3.673h12.383a2.37,2.37,0,0,1,2.37,2.37Z" transform="translate(-205.994 -22.116)" fill="url(#linear-gradient-3)"/>
    <path id="Path_31779" data-name="Path 31779" d="M433.692,1.17l8.854,10.651a3.246,3.246,0,0,0,4.941.059l9.383-10.767A3.249,3.249,0,0,1,459.317,0h.045a3.246,3.246,0,0,1,2.45,5.368L451.2,17.567a3.249,3.249,0,0,0-.028,4.238l10.9,12.849A3.246,3.246,0,0,1,459.6,40h0a3.244,3.244,0,0,1-2.489-1.164l-9.846-11.781a3.249,3.249,0,0,0-4.955-.031L432.139,38.864a3.246,3.246,0,0,1-2.464,1.13h-.1a3.246,3.246,0,0,1-2.461-5.368l11.493-13.395a3.249,3.249,0,0,0,0-4.212L428.72,5.345A3.246,3.246,0,0,1,431.195,0h0a3.249,3.249,0,0,1,2.5,1.17Z" transform="translate(-305.878 0)" fill="#fff"/>
  </g>
</svg>
