<svg xmlns="http://www.w3.org/2000/svg" width="57.778" height="40" viewBox="0 0 57.778 40">
    <defs>
        <style>
            .ngmeeting-home-mail-1{fill:#fff}
        </style>
    </defs>
    <g id="ngmeeting-home-mail-mail" transform="translate(-3.375 -7.875)">
        <path id="Path_31819" d="M60.681 10.4L45.736 25.621a.269.269 0 0 0 0 .389l10.458 11.139a1.8 1.8 0 0 1 0 2.556 1.811 1.811 0 0 1-2.556 0l-10.417-11.1a.285.285 0 0 0-.4 0l-2.542 2.583a11.183 11.183 0 0 1-7.972 3.361 11.407 11.407 0 0 1-8.139-3.458l-2.444-2.486a.285.285 0 0 0-.4 0L10.9 39.7a1.811 1.811 0 0 1-2.556 0 1.8 1.8 0 0 1 0-2.556L18.806 26.01a.3.3 0 0 0 0-.389L3.847 10.4a.274.274 0 0 0-.472.194v30.458A4.458 4.458 0 0 0 7.819 45.5h48.889a4.458 4.458 0 0 0 4.444-4.444V10.594a.278.278 0 0 0-.471-.194z" class="ngmeeting-home-mail-1" transform="translate(0 2.379)"/>
        <path id="Path_31820" d="M31.434 33.306a7.551 7.551 0 0 0 5.431-2.278L58.656 8.847a4.365 4.365 0 0 0-2.75-.972H6.976a4.336 4.336 0 0 0-2.75.972l21.791 22.181a7.552 7.552 0 0 0 5.417 2.278z" class="ngmeeting-home-mail-1" transform="translate(0.83 0)"/>
    </g>
</svg>
