<svg xmlns="http://www.w3.org/2000/svg" id="Layer_2" width="558" height="29.487" viewBox="0 0 558 29.487">
    <defs>
        <style>
            .cls-1{fill:#fff}
        </style>
    </defs>
    <g id="Layer_5">
        <path id="Path_37641" d="M21.164 3.58v4.526H7.894c-2.342 0-3.377 1.272-3.377 3.07 0 1.57.807 3.07 3.833 3.07h6.06c7.017 0 8.7 3.912 8.7 7.63 0 4.385-2.342 7.587-8.244 7.587H.456v-4.518h14.577c2.447 0 3.561-1.342 3.561-3.228 0-1.684-.877-3.219-4.061-3.219H8.516C1.614 18.5 0 14.631 0 11.026 0 6.729 2.3 3.58 8.051 3.58z" class="cls-1" transform="translate(0 -0.44)"/>
        <path id="Path_37642" d="M43.773 10c5.368 0 8.771 3.3 8.771 10.121s-3.412 10.121-8.771 10.121h-4.262c-5.4 0-8.771-3.3-8.771-10.121S34.108 10 39.511 10zM39.9 13.912c-3.508 0-5.061 1.842-5.061 6.21s1.535 6.139 5.061 6.139h3.5c3.508 0 5.061-1.8 5.061-6.139s-1.57-6.21-5.061-6.21z" class="cls-1" transform="translate(-3.779 -1.229)"/>
        <path id="Path_37643" d="M65.221 0v29.022H61.16V0z" class="cls-1" transform="translate(-7.518)"/>
        <path id="Path_37644" d="M74.245 10L81 26.261a.938.938 0 0 0 .991.614 1.052 1.052 0 0 0 1.079-.614L90.085 10h4.385l-7.806 18.068c-.877 1.921-2.333 2.631-4.64 2.631s-3.833-.772-4.6-2.631L70 10z" class="cls-1" transform="translate(-8.605 -1.229)"/>
        <path id="Path_37645" d="M113.907 10c4.789 0 6.824 2.3 6.824 6.21 0 3.719-1.886 5.833-6.867 5.833h-9.648v1.465c0 1.614.877 2.8 3.1 2.8H119.7v3.947h-12.353c-5.061 0-7.017-2.833-7.017-6.666v-6.9c0-3.833 1.991-6.674 7.017-6.674zm-9.648 8.858h9.507c2.184 0 2.991-.921 2.991-2.412s-.877-2.535-2.877-2.535h-6.517c-2.228 0-3.1 1.228-3.1 2.8z" class="cls-1" transform="translate(-12.334 -1.229)"/>
        <path id="Path_37646" d="M154.74 3.578c6.139 0 8.665 2.877 8.665 7.1 0 2.991-1.307 4.8-3.719 5.754a5.85 5.85 0 0 1 3.833 5.938c0 4.14-2.57 7.131-8.665 7.131h-11.507a1.859 1.859 0 0 1-2.14-2.1V5.7a1.868 1.868 0 0 1 2.14-2.114zm-9.086 10.893h9.2c2.684 0 3.982-.991 3.982-3.1S157.652 8 154.89 8h-8.771c-.307 0-.491.149-.491.456zm0 10.051c0 .307.184.421.491.421h8.823c2.719 0 3.991-1.263 3.991-3.377s-1.342-3.333-3.991-3.333h-9.314z" class="cls-1" transform="translate(-17.356 -0.438)"/>
        <path id="Path_37647" d="M187.662 3.58c4.982 0 7.788 2.57 7.788 7.324 0 3.842-1.842 5.982-6.025 6.946l-10.77 2.412c-1.807.421-2.149 1.386-2.149 2.842v1.3c0 .421.149.544.5.544h17.8v4.517h-20.677c-1.456 0-2.149-.684-2.149-2.1v-3.919c0-4.219 1.263-6.438 5.675-7.438l10.893-2.491c1.842-.421 2.412-1.307 2.412-2.535 0-1.754-1.114-2.877-3.184-2.877h-14.954V3.58z" class="cls-1" transform="translate(-21.142 -0.44)"/>
        <path id="Path_37648" d="M218.26 3.578c6.139 0 8.665 2.877 8.665 7.1 0 2.991-1.307 4.8-3.719 5.754a5.85 5.85 0 0 1 3.833 5.938c0 4.14-2.57 7.131-8.665 7.131h-11.507a1.859 1.859 0 0 1-2.14-2.1V5.7a1.868 1.868 0 0 1 2.14-2.114zm-9.086 10.893h9.2c2.684 0 3.982-.991 3.982-3.1S221.172 8 218.41 8h-8.771c-.307 0-.491.149-.491.456zm0 10.051c0 .307.184.421.491.421h8.823c2.719 0 3.991-1.263 3.991-3.377s-1.342-3.333-3.991-3.333h-9.314z" class="cls-1" transform="translate(-25.165 -0.438)"/>
        <path id="Path_37649" d="M249.963 9.943l1.807 15.787a1.272 1.272 0 0 0 1.456 1.307 1.316 1.316 0 0 0 1.491-1.114l2.877-12.279c.614-2.684 2.342-4.1 5.561-4.1s4.8 1.421 5.412 4.1l2.719 12.279a1.342 1.342 0 0 0 1.535 1.114c.921 0 1.263-.421 1.377-1.307l2.112-15.787h4.39l-2.254 16.033c-.386 2.8-2 4.675-5.675 4.675-3.149 0-4.833-1.386-5.447-4.184l-2.728-12.279a1.342 1.342 0 0 0-1.491-1c-.807 0-1.342.307-1.5 1l-2.868 12.279c-.658 2.8-2.386 4.184-5.6 4.184-3.754 0-5.1-1.877-5.482-4.675L245.56 9.943z" class="cls-1" transform="translate(-30.187 -1.173)"/>
        <path id="Path_37650" d="M294.425 1.31v4.719h-4.1V1.31zm0 7.63v20.243h-4.061V8.932z" class="cls-1" transform="translate(-35.689 -0.161)"/>
        <path id="Path_37651" d="M302 9.33V4.55h4.1v4.78h5.6v3.912h-5.6v9.6c0 2.263.8 3.026 2.719 3.026h2.8v3.719h-3.64C303.8 29.582 302 27.9 302 22.565v-9.314h-2.76V9.33z" class="cls-1" transform="translate(-36.786 -0.559)"/>
        <path id="Path_37652" d="M322.026 0v8.771h7.131c6.824 0 10.2 3.3 10.2 8.858v11.4h-4.1v-11.4c0-3.1-1.877-4.947-6.1-4.947h-7.131v16.34H318V0z" class="cls-1" transform="translate(-39.092)"/>
        <path id="Path_37653" d="M374.329 3.578c6.1 0 8.665 2.877 8.665 7.1 0 2.991-1.307 4.8-3.719 5.754a5.85 5.85 0 0 1 3.833 5.938c0 4.14-2.57 7.131-8.665 7.131h-11.507c-1.456 0-2.149-.684-2.149-2.1V5.7a1.868 1.868 0 0 1 2.149-2.114zm-9.1 10.893h9.209c2.684 0 3.982-.991 3.982-3.1S377.241 8 374.478 8h-8.771c-.307 0-.5.149-.5.456zm0 10.051c0 .307.193.421.5.421h8.823c2.719 0 3.982-1.263 3.982-3.377s-1.342-3.333-3.982-3.333h-9.323z" class="cls-1" transform="translate(-44.35 -0.438)"/>
        <path id="Path_37654" d="M407.25 3.58c4.982 0 7.78 2.57 7.78 7.324 0 3.842-1.833 5.982-6.017 6.946l-10.77 2.412c-1.807.421-2.149 1.386-2.149 2.842v1.3c0 .421.149.544.5.544h17.752v4.517H393.7c-1.456 0-2.149-.684-2.149-2.1v-3.919c0-4.219 1.263-6.438 5.675-7.438l10.893-2.491c1.833-.421 2.412-1.307 2.412-2.535 0-1.754-1.114-2.877-3.184-2.877H392.41V3.58z" class="cls-1" transform="translate(-48.134 -0.44)"/>
        <path id="Path_37655" d="M444.954 3.58v4.526h-10.043c-4.982 0-7.166 2.491-7.166 8.437s2.149 8.4 7.166 8.4h10.042v4.517h-10.042c-7.552 0-11.691-4.254-11.691-12.919S427.412 3.58 434.911 3.58z" class="cls-1" transform="translate(-52.027 -0.44)"/>
        <path id="Path_37656" d="M469.645 1.31v4.719h-4.1V1.31zm-.045 7.63v20.243h-4.06V8.932z" class="cls-1" transform="translate(-57.229 -0.161)"/>
        <path id="Path_37657" d="M488.009 10c6.867 0 10.2 3.263 10.2 8.858v11.4h-4.1v-11.4c0-3.184-1.833-4.947-6.1-4.947h-6.648c-.342 0-.5.193-.5.579v15.788H476.8V13.157c0-2.377.807-3.149 2.833-3.149z" class="cls-1" transform="translate(-58.614 -1.229)"/>
        <path id="Path_37658" d="M521.734 29.4h-4.824l7.973-21.541c1-2.956 2.631-4.8 6.139-4.8 3.842 0 5.754 2.263 5.754 5.64V24a1.307 1.307 0 0 0 1.263 1.456 1.517 1.517 0 0 0 1.456-1.07l6.289-16.524c.991-2.956 2.631-4.8 6.139-4.8 3.833 0 5.754 2.263 5.754 5.64V29.4h-4.57V8.928a1.333 1.333 0 0 0-1.307-1.535 1.544 1.544 0 0 0-1.421 1.114l-6.289 16.559c-1 2.956-2.684 4.8-6.139 4.8-3.8 0-5.719-2.263-5.719-5.675V8.928a1.351 1.351 0 0 0-1.332-1.535 1.561 1.561 0 0 0-1.421 1.114z" class="cls-1" transform="translate(-63.544 -0.376)"/>
        <path id="Path_37659" d="M574.345 1.31v4.719h-4.1V1.31zm0 7.63v20.243h-4.061V8.932z" class="cls-1" transform="translate(-70.1 -0.161)"/>
        <path id="Path_37660" d="M592.707 10c6.867 0 10.2 3.263 10.2 8.858v11.4h-4.1v-11.4c0-3.184-1.842-4.947-6.139-4.947h-6.631c-.342 0-.5.193-.5.579v15.788h-4.057V13.157c0-2.377.807-3.149 2.833-3.149z" class="cls-1" transform="translate(-71.482 -1.229)"/>
        <path id="Path_37661" d="M633.153 0v20.357c0 5.833-2.631 8.665-7.437 8.665h-5.6c-5.4 0-8.771-3.3-8.771-10.121s3.368-10.13 8.771-10.13h8.937V0zm-4.1 20.173v-7.482H620.5c-3.508 0-5.061 1.842-5.061 6.21s1.57 6.139 5.061 6.139h4.026c3.259.035 4.522-1.421 4.522-4.867z" class="cls-1" transform="translate(-75.153)"/>
    </g>
</svg>
