<svg data-name="ðŸ‘‰ Choose to use ðŸ“Icon" xmlns="http://www.w3.org/2000/svg" width="24" height="24" viewBox="0 0 24 24">
    <path style="fill:none" d="M0 0h24v24H0z"/>
    <path data-name="Path / cog" d="M11.027 14.15a3.15 3.15 0 1 1 3.15-3.15 3.15 3.15 0 0 1-3.15 3.15m6.687-2.277a6.993 6.993 0 0 0 .063-.873 7.7 7.7 0 0 0-.063-.9l1.9-1.467a.454.454 0 0 0 .108-.576l-1.8-3.114a.442.442 0 0 0-.549-.2l-2.241.9a6.524 6.524 0 0 0-1.521-.882l-.333-2.385A.455.455 0 0 0 12.827 2h-3.6a.455.455 0 0 0-.45.378l-.333 2.385a6.524 6.524 0 0 0-1.521.882l-2.241-.9a.442.442 0 0 0-.549.2l-1.8 3.114a.444.444 0 0 0 .108.576L4.34 10.1a7.7 7.7 0 0 0-.063.9 6.993 6.993 0 0 0 .063.873l-1.9 1.494a.444.444 0 0 0-.108.576l1.8 3.114a.452.452 0 0 0 .549.2l2.241-.909a6.251 6.251 0 0 0 1.521.891l.333 2.385a.455.455 0 0 0 .45.378h3.6a.455.455 0 0 0 .45-.378l.333-2.385a6.553 6.553 0 0 0 1.521-.891l2.241.909a.452.452 0 0 0 .549-.2l1.8-3.114a.454.454 0 0 0-.108-.576z" transform="translate(.975 1)"  style="fill:rgba(255,255,255,.6)" />
</svg>
