<svg xmlns="http://www.w3.org/2000/svg" width="24" height="24" viewBox="0 0 24 24">
    <g data-name="Group 1791">
        <path data-name="Rectangle 1883" style="fill:transparent" d="M0 0h24v24H0z"/>
        <path data-name="Icon awesome-discord" d="M10.449 8.55a.921.921 0 1 1-.918-1 .959.959 0 0 1 .918 1zm-4.2-1a1 1 0 0 0 0 2 .959.959 0 0 0 .918-1 .953.953 0 0 0-.921-.999zm9.5-5.7V18c-2.267-2-1.542-1.34-4.176-3.789l.477 1.665H1.845A1.849 1.849 0 0 1 0 14.022V1.854A1.849 1.849 0 0 1 1.845 0h12.06a1.849 1.849 0 0 1 1.845 1.854zm-2.565 8.532a12.052 12.052 0 0 0-1.3-5.247 4.451 4.451 0 0 0-2.524-.941l-.126.144a5.99 5.99 0 0 1 2.241 1.143 7.647 7.647 0 0 0-6.723-.261c-.333.153-.531.261-.531.261A6.072 6.072 0 0 1 6.588 4.3L6.5 4.194a4.451 4.451 0 0 0-2.529.945 12.052 12.052 0 0 0-1.3 5.247 3.263 3.263 0 0 0 2.745 1.368s.333-.4.6-.747a2.8 2.8 0 0 1-1.57-1.062c.132.093.351.213.369.225a6.56 6.56 0 0 0 5.616.315 5.15 5.15 0 0 0 1.035-.531 2.84 2.84 0 0 1-1.629 1.071c.27.342.594.729.594.729a3.29 3.29 0 0 0 2.754-1.368z" transform="translate(4.125 3)" style="fill:#5865f2"/>
    </g>
</svg>
