<svg xmlns="http://www.w3.org/2000/svg" width="24" height="24" viewBox="0 0 24 24">
    <g data-name="MDI / domain">
        <path data-name="Path / domain"
            d="M13.2 11.4h-1.4v1.4h1.4m0-4.2h-1.4V10h1.4m1.4 4.2H9v-1.4h1.4v-1.4H9V10h1.4V8.6H9V7.2h5.6m-7-1.4H6.2V4.4h1.4m0 4.2H6.2V7.2h1.4m0 4.2H6.2V10h1.4m0 4.2H6.2v-1.4h1.4m-2.8-7H3.4V4.4h1.4m0 4.2H3.4V7.2h1.4m0 4.2H3.4V10h1.4m0 4.2H3.4v-1.4h1.4m4.2-7V3H2v12.6h14V5.8z"
            transform="translate(3 2.7)" style="fill:#6c93ff" />
    </g>
</svg>