<svg xmlns="http://www.w3.org/2000/svg" xmlns:xlink="http://www.w3.org/1999/xlink" width="24" height="24" viewBox="0 0 24 24">
    <defs>
        <linearGradient id="vrxekrz65a" x1="-.19" y1="-.067" x2="2.55" y2="2.389" gradientUnits="objectBoundingBox">
            <stop offset="0" stop-color="#50ffc5"/>
            <stop offset=".1" stop-color="#43efc5"/>
            <stop offset=".3" stop-color="#31d7c4"/>
            <stop offset=".5" stop-color="#23c6c3"/>
            <stop offset=".72" stop-color="#1cbcc3"/>
            <stop offset="1" stop-color="#19b9c3"/>
        </linearGradient>
        <linearGradient id="1fkld2wjic" x1="-1.263" y1="-1.347" x2="4.867" y2="5.824" xlink:href="#vrxekrz65a"/>
        <linearGradient id="sc4baqxred" x1=".221" y1=".138" x2=".654" y2=".739" xlink:href="#vrxekrz65a"/>
        <linearGradient id="txdeuedj5e" x1=".731" y1=".123" x2=".231" y2=".981" xlink:href="#vrxekrz65a"/>
        <linearGradient id="7g6t932mdf" x1="-.755" y1="-2.473" x2="2.305" y2="4.35" xlink:href="#vrxekrz65a"/>
        <linearGradient id="etnmyuumjg" x1=".196" y1=".057" x2=".667" y2=".743" xlink:href="#vrxekrz65a"/>
        <clipPath id="23oueflodb">
            <path data-name="Rectangle 1884" style="fill:none" d="M0 0h18v18H0z"/>
        </clipPath>
    </defs>
    <g data-name="Group 1791">
        <path data-name="Rectangle 1883" style="fill:transparent" d="M0 0h24v24H0z"/>
        <g data-name="Layer 2">
            <g data-name="Group 1794" style="clip-path:url(#23oueflodb)" transform="translate(3 3)">
                <path data-name="Path 43738" d="M242.251 261.354a1.436 1.436 0 0 0-1.268-.614 1.692 1.692 0 0 0-1.388.841l-.013.013-2.695 4.59a.4.4 0 0 0 .347.6h1.055a.415.415 0 0 0 .347-.2l1.988-3.429a.24.24 0 0 1 .053-.067c.294-.467.827-1.321.921-1.508a.5.5 0 0 1 .653-.226z" transform="translate(-232.671 -256.157)" style="fill:url(#vrxekrz65a)"/>
                <path data-name="Path 43739" d="M456.1 295.108a.4.4 0 0 0 .347.2h1.041a.4.4 0 0 0 .347-.587l-.8-1.441a.505.505 0 0 0-.654.24c-.107.187-.641 1.055-.921 1.508a.4.4 0 0 1 .566-.016.4.4 0 0 1 .074.096z" transform="translate(-447.454 -288.083)" style="fill:url(#1fkld2wjic)"/>
                <path data-name="Path 43740" d="m391.942 460.276-1.508-2.936-1.014 1.748.8 1.575.253.454.547 1a.506.506 0 0 0 .654-.24c.107-.187.64-1.055.921-1.508a.426.426 0 0 1-.654-.094z" transform="translate(-382.575 -449.301)" style="fill:url(#sc4baqxred)"/>
                <path data-name="Path 43741" d="M483.432 509h-.832l-1.188 2.041a.233.233 0 0 1-.053.067c-.294.467-.827 1.321-.921 1.508a.494.494 0 0 1-.654.24 1.436 1.436 0 0 0 1.268.614 1.693 1.693 0 0 0 1.388-.841l.013-.013 1.761-3.016c.245-.414-.288-.6-.782-.6z" transform="translate(-471.356 -500.053)" style="fill:url(#txdeuedj5e)"/>
                <path data-name="Path 43742" d="M515.648 419.39h-4.163a.3.3 0 0 0-.267.44l.48.961a.307.307 0 0 0 .267.174h2.295c.494 0 1.027.187.787.6l.921-1.574a.384.384 0 0 0-.32-.6z" transform="translate(-502.197 -412.018)" style="fill:url(#7g6t932mdf)"/>
                <path data-name="Path 43743" d="M16.149 75.238a1.406 1.406 0 0 1-.187-1.659l1.921-3.328a.879.879 0 0 0 0-.879l-4.061-7.033a.879.879 0 0 0-.761-.439h-8.12a.879.879 0 0 0-.761.439L.119 69.372a.879.879 0 0 0 0 .879l4.061 7.033a.879.879 0 0 0 .761.439H9.2a.639.639 0 0 0 .553-.319.639.639 0 0 0-.553-.958H5.475a.527.527 0 0 1-.457-.264l-3.525-6.106a.527.527 0 0 1 0-.527l3.526-6.107a.527.527 0 0 1 .457-.264h7.052a.527.527 0 0 1 .457.264l3.525 6.107a.527.527 0 0 1 0 .527l-2.132 3.693a1.582 1.582 0 0 0 .211 1.867l.477.515a.176.176 0 0 1-.129.3h-1.8a.639.639 0 0 0-.553.319.639.639 0 0 0 .553.958h4.513a.351.351 0 0 0 .258-.591z" transform="translate(-.001 -60.812)" style="fill:url(#etnmyuumjg)"/>
            </g>
        </g>
    </g>
</svg>
