<svg xmlns="http://www.w3.org/2000/svg" width="24" height="24" viewBox="0 0 24 24">
    <defs>
        <radialGradient id="up9ge3iezb" cx=".5" cy=".5" r="2.852" gradientTransform="matrix(.246 0 0 1.28 .377 -.111)" gradientUnits="objectBoundingBox">
            <stop offset="0" stop-color="#50ffc5"/>
            <stop offset=".22" stop-color="#4cfac5"/>
            <stop offset=".48" stop-color="#42edc4"/>
            <stop offset=".74" stop-color="#30d6c4"/>
            <stop offset="1" stop-color="#19b9c3"/>
        </radialGradient>
        <radialGradient id="qogt3nznwc" cx=".5" cy=".5" r="2.299" gradientTransform="matrix(-.215 0 0 1.28 .597 -.001)" gradientUnits="objectBoundingBox">
            <stop offset="0" stop-color="#50ffc5"/>
            <stop offset=".09" stop-color="#45f2c5"/>
            <stop offset=".29" stop-color="#32d9c4"/>
            <stop offset=".51" stop-color="#24c7c3"/>
            <stop offset=".74" stop-color="#1cbcc3"/>
            <stop offset="1" stop-color="#19b9c3"/>
        </radialGradient>
        <radialGradient id="a3tfmli8id" cx=".5" cy=".5" r="2.852" gradientTransform="matrix(.246 0 0 1.28 .377 .11)" gradientUnits="objectBoundingBox">
            <stop offset="0" stop-color="#50ffc5"/>
            <stop offset=".02" stop-color="#4bf9c5"/>
            <stop offset=".13" stop-color="#39e1c4"/>
            <stop offset=".25" stop-color="#2acfc4"/>
            <stop offset=".39" stop-color="#20c2c3"/>
            <stop offset=".58" stop-color="#1bbbc3"/>
            <stop offset="1" stop-color="#19b9c3"/>
        </radialGradient>
        <linearGradient id="o1scburcba" x1=".196" y1=".067" x2=".671" y2=".741" gradientUnits="objectBoundingBox">
            <stop offset="0" stop-color="#50ffc5"/>
            <stop offset=".1" stop-color="#43efc5"/>
            <stop offset=".3" stop-color="#31d7c4"/>
            <stop offset=".5" stop-color="#23c6c3"/>
            <stop offset=".72" stop-color="#1cbcc3"/>
            <stop offset="1" stop-color="#19b9c3"/>
        </linearGradient>
    </defs>
    <g data-name="Group 1798">
        <path data-name="Rectangle 1883" style="fill:transparent" d="M0 0h24v24H0z"/>
        <g data-name="Layer 2">
            <g data-name="圖層 1">
                <path data-name="Path 43750" d="M17.288 14.986A6.631 6.631 0 0 1 16.17 13.5a1.311 1.311 0 0 1 0-1.639c.07-.132 1.522-2.618 1.522-2.618a2.286 2.286 0 0 0 0-2.279L14.329 1.14A2.285 2.285 0 0 0 12.355 0H5.633a2.285 2.285 0 0 0-1.974 1.14L.3 6.961a2.285 2.285 0 0 0 0 2.279l3.249 5.627A2.667 2.667 0 0 0 5.857 16.2h2.8a.387.387 0 0 0 .333-.189l.381-.639a.388.388 0 0 0-.333-.586h-3.4a.867.867 0 0 1-.749-.432L1.635 8.727a1.253 1.253 0 0 1 0-1.253l3.249-5.627a.867.867 0 0 1 .749-.432h6.722a.867.867 0 0 1 .749.433l3.361 5.821a.867.867 0 0 1 0 .865l-.326.583-.009-.006c-.036.06-.892 1.484-1.211 2.082a2.667 2.667 0 0 0-.011 2.94l.044.085a.387.387 0 0 1-.342.568h-1.419a.387.387 0 0 0-.334.191l-.377.639a.388.388 0 0 0 .334.585h4.768a.388.388 0 0 0 .27-.666z" transform="translate(3.006 3.9)" style="fill:url(#o1scburcba)"/>
                <path data-name="Path 43751" d="M348.3 247.753h-4.055a.351.351 0 0 1-.311-.516 1.837 1.837 0 0 1 1.624-.977h4.055a.351.351 0 0 1 .311.516 1.837 1.837 0 0 1-1.624.977z" transform="translate(-334.848 -238.031)" style="fill:url(#up9ge3iezb)"/>
                <path data-name="Path 43752" d="M320.564 425.493h4.936a.351.351 0 0 0 .311-.516 1.837 1.837 0 0 0-1.624-.977h-4.933a.351.351 0 0 0-.311.516 1.837 1.837 0 0 0 1.621.977z" transform="translate(-310.292 -412.646)" style="fill:url(#qogt3nznwc)"/>
                <path data-name="Path 43753" d="M348.3 603.253h-4.055a.351.351 0 0 1-.311-.516 1.837 1.837 0 0 1 1.624-.977h4.055a.351.351 0 0 1 .311.516 1.837 1.837 0 0 1-1.624.977z" transform="translate(-334.848 -587.282)" style="fill:url(#a3tfmli8id)"/>
            </g>
        </g>
    </g>
</svg>
