<svg xmlns="http://www.w3.org/2000/svg" xmlns:xlink="http://www.w3.org/1999/xlink" width="24" height="24" viewBox="0 0 24 24">
    <defs>
        <linearGradient id="78hyw2ov2a" y1=".5" x2="1" y2=".5" gradientUnits="objectBoundingBox">
            <stop offset="0" stop-color="#00ffc0"/>
            <stop offset=".04" stop-color="#00fbc0"/>
            <stop offset=".45" stop-color="#00d8c2"/>
            <stop offset=".78" stop-color="#00c3c4"/>
            <stop offset="1" stop-color="#00bbc4"/>
        </linearGradient>
        <linearGradient id="223lnm29sb" x1=".5" y1="1" x2=".5" y2="0" xlink:href="#78hyw2ov2a"/>
        <linearGradient id="56c772liyc" x1=".5" y1="-.588" x2=".5" y2=".998" xlink:href="#78hyw2ov2a"/>
        <linearGradient id="wodspd2nod" x1=".5" y1="-.094" x2=".5" y2="3.136" xlink:href="#78hyw2ov2a"/>
        <linearGradient id="mqbyv56fwe" x1=".5" y1="1" x2=".5" y2="0" xlink:href="#78hyw2ov2a"/>
        <linearGradient id="7ug85xnosf" x1=".5" y1="1" x2=".5" y2="0" xlink:href="#78hyw2ov2a"/>
        <linearGradient id="mskk3cjmng" x1=".5" y1="1" x2=".5" y2="0" xlink:href="#78hyw2ov2a"/>
    </defs>
    <g data-name="Group 1791">
        <path data-name="Rectangle 1883" style="fill:transparent" d="M0 0h24v24H0z"/>
        <g data-name="Layer 4" transform="translate(2.999 2.999)">
            <path data-name="Path 43769" d="M16.9 477.957a1.073 1.073 0 0 0-.2-.142 1.773 1.773 0 0 0-.507-.188 2.061 2.061 0 0 0-1.387.165l-5.3 3.058c-.149.086-.405-.006-.344-.123l.384-.741 1.714-3.306.49-.945a.638.638 0 0 0 .075-.3v-.835a.636.636 0 0 1-.075.295l-.069.134a1.316 1.316 0 0 0-.416-.358 2.128 2.128 0 0 0-.36-.164 2.855 2.855 0 0 0-2.21.134l-7.776 4.49-.545.315a1.019 1.019 0 0 0-.157.11.58.58 0 0 1-.217-.425v.841a.7.7 0 0 0 .412.567 1.727 1.727 0 0 0 .506.188 2.055 2.055 0 0 0 1.387-.165l5.255-3.034.04-.023c.148-.086.405.006.344.123L6.2 480.993l-.774 1.493a.7.7 0 0 1-.145-.412v.841a.952.952 0 0 0 .559.77 2.1 2.1 0 0 0 .347.158h.012a2.853 2.853 0 0 0 2.211-.132l7.783-4.493.547-.316a.639.639 0 0 0 .372-.507v-.841a.559.559 0 0 1-.212.403z" transform="translate(0 -466.007)" style="fill:url(#78hyw2ov2a)"/>
            <path data-name="Path 43770" d="M16.7 429.965a1.748 1.748 0 0 0-.507-.189 2.056 2.056 0 0 0-1.387.166l-5.256 3.034-.04.023c-.149.086-.405-.006-.344-.123l1.744-3.363.776-1.5.069-.134a.637.637 0 0 0 .076-.3.951.951 0 0 0-.559-.77 2.061 2.061 0 0 0-.36-.164 2.857 2.857 0 0 0-2.21.133l-7.783 4.503-.545.315a.632.632 0 0 0-.374.526.582.582 0 0 0 .216.425 1.083 1.083 0 0 0 .2.142 1.771 1.771 0 0 0 .506.188 2.064 2.064 0 0 0 1.387-.165l5.291-3.057c.148-.086.405.006.344.123l-.384.74-1.677 3.235-.037.072-.49.945a.638.638 0 0 0-.075.3.706.706 0 0 0 .144.413 1.319 1.319 0 0 0 .416.358A2.143 2.143 0 0 0 6.2 436a2.853 2.853 0 0 0 2.211-.132l7.783-4.493.547-.316a1.019 1.019 0 0 0 .157-.11.559.559 0 0 0 .215-.4v-.037a.706.706 0 0 0-.413-.547z" transform="translate(0 -418.997)" style="fill:#666b6b"/>
            <path data-name="Path 43771" d="M7.5 2.519a3.872 3.872 0 0 0-6.366-1.384 3.8 3.8 0 0 0-.569.725 3.763 3.763 0 0 0-.32.659A3.868 3.868 0 0 0 0 3.875a3.913 3.913 0 0 0 .028.464 3.863 3.863 0 0 0 .458 1.413l2.5 4.5.582 1.048a.349.349 0 0 0 .611 0l.583-1.053 2.5-4.5A3.866 3.866 0 0 0 7.5 2.519zM3.873 6.478a2.54 2.54 0 1 1 2.539-2.54 2.54 2.54 0 0 1-2.539 2.54z" style="fill:url(#223lnm29sb)"/>
            <path data-name="Path 43772" d="M807.971 328.621a1.951 1.951 0 0 0-.158-.328 1.93 1.93 0 0 0-3.3 0 1.866 1.866 0 0 0-.16.329 1.928 1.928 0 0 0-.122.676 1.965 1.965 0 0 0 .014.231 1.933 1.933 0 0 0 .229.706l1.245 2.243.292.525a.174.174 0 0 0 .3 0l.291-.525 1.245-2.243a1.929 1.929 0 0 0 .12-1.613z" transform="translate(-790.091 -321.609)" style="fill:url(#56c772liyc)"/>
            <circle data-name="Ellipse 287" cx="1.404" cy="1.404" r="1.404" transform="rotate(-5.64 35.73 -146.137)" style="fill:url(#wodspd2nod)"/>
            <path data-name="Path 43773" d="M268.543 454.425a.062.062 0 0 1-.031-.115l.563-.327a.062.062 0 0 1 .062.105l-.563.327a.059.059 0 0 1-.031.01zm1.125-.654a.062.062 0 0 1-.031-.115l.563-.327a.062.062 0 0 1 .062.105l-.563.327a.062.062 0 0 1-.031.01zm1.125-.654a.062.062 0 0 1-.031-.115l.563-.327a.062.062 0 1 1 .062.106l-.563.327a.062.062 0 0 1-.03.009zm1.125-.654a.062.062 0 0 1-.031-.115l.563-.327a.062.062 0 1 1 .062.106l-.563.327a.061.061 0 0 1-.032.008zm1.125-.654a.062.062 0 0 1-.031-.115l.448-.261a.062.062 0 1 1 .062.107l-.448.261a.061.061 0 0 1-.033.008z" transform="translate(-263.762 -443.489)" style="fill:url(#mqbyv56fwe)"/>
            <path data-name="Path 43774" d="M394.626 505.583a.061.061 0 0 1-.027-.007.062.062 0 0 1-.028-.082l.29-.582a.062.062 0 0 1 .11.055l-.29.582a.062.062 0 0 1-.055.034zm.58-1.165a.062.062 0 0 1-.055-.089l.289-.582a.062.062 0 1 1 .11.055l-.29.582a.062.062 0 0 1-.056.034zm.58-1.165a.062.062 0 0 1-.055-.089l.29-.582a.062.062 0 1 1 .11.055l-.291.583a.061.061 0 0 1-.055.034zm.58-1.165a.062.062 0 0 1-.055-.089l.29-.582a.062.062 0 0 1 .11.055l-.29.582a.062.062 0 0 1-.057.034zm.579-1.165a.062.062 0 0 1-.055-.089l.29-.582a.062.062 0 0 1 .11.055l-.292.582a.061.061 0 0 1-.055.034zm.58-1.165a.061.061 0 0 1-.027-.006.062.062 0 0 1-.028-.083l.287-.582a.062.062 0 0 1 .11.055l-.29.582a.062.062 0 0 1-.055.034z" transform="translate(-387.628 -490.281)" style="fill:url(#7ug85xnosf)"/>
            <path data-name="Path 43775" d="M454.65 666.849a.062.062 0 0 1-.03-.115l.568-.319a.062.062 0 1 1 .06.107l-.567.318a.062.062 0 0 1-.031.009zm1.135-.636a.062.062 0 0 1-.029-.115l.568-.318a.062.062 0 0 1 .06.107l-.567.318a.061.061 0 0 1-.032.009zm1.135-.636a.062.062 0 0 1-.03-.115l.567-.318a.062.062 0 1 1 .06.107l-.567.318a.062.062 0 0 1-.03.009zm1.135-.636a.062.062 0 0 1-.03-.115l.567-.318a.062.062 0 1 1 .06.107l-.567.318a.06.06 0 0 1-.03.008zm1.135-.636a.062.062 0 0 1-.03-.115l.567-.318a.062.062 0 1 1 .06.107l-.567.318a.062.062 0 0 1-.03.009zm1.135-.636a.062.062 0 0 1-.03-.115l.567-.318a.062.062 0 0 1 .06.107l-.568.318a.062.062 0 0 1-.03.008zm1.135-.636a.062.062 0 0 1-.03-.115l.57-.318a.062.062 0 0 1 .06.107l-.568.318a.061.061 0 0 1-.03.008z" transform="translate(-446.597 -650.945)" style="fill:url(#mskk3cjmng)"/>
        </g>
    </g>
</svg>
