<svg xmlns="http://www.w3.org/2000/svg" width="24" height="24" viewBox="0 0 24 24">
    <defs>
        <linearGradient id="oq1qbrlyla" x1=".5" y1=".968" x2=".5" y2="-.003" gradientUnits="objectBoundingBox">
            <stop offset="0" stop-color="#50fec5"/>
            <stop offset="1" stop-color="#19b9c3"/>
        </linearGradient>
    </defs>
    <g data-name="Group 1791">
        <path data-name="Rectangle 1883" style="fill:transparent" d="M0 0h24v24H0z"/>
        <g data-name="Layer 2">
            <path data-name="Path 43754" d="M341.576 305.211 340 302.48a.96.96 0 0 0-.831-.48h-3.154a.96.96 0 0 0-.831.48l-1.577 2.731a.96.96 0 0 0 0 .96l1.577 2.731a.96.96 0 0 0 .831.48h3.154a.96.96 0 0 0 .831-.48l1.577-2.731a.959.959 0 0 0-.001-.96z" transform="translate(-324.615 -293.691)" style="fill:url(#oq1qbrlyla)"/>
            <path data-name="Path 43755" d="M6.053 180.481a.615.615 0 0 0-1.065 0l-.64 1.108a.264.264 0 0 1-.457 0l-1.672-2.9a1.229 1.229 0 0 0 0-1.5l1.672-2.9a.264.264 0 0 1 .457 0l.639 1.108a.615.615 0 0 0 1.065 0 .615.615 0 0 0 0-.615l-1.477-2.558a.527.527 0 0 0-.914 0l-2.594 4.494a1.23 1.23 0 0 0 0 2.435l2.595 4.494a.527.527 0 0 0 .914 0l1.477-2.547a.615.615 0 0 0 0-.619z" transform="translate(2.988 -165.943)" style="fill:#34dcc4"/>
            <path data-name="Path 43756" d="M429.062 4.165a.615.615 0 0 0 .533-.923l-.64-1.108a.264.264 0 0 1 .228-.4h3.345a1.229 1.229 0 0 0 1.3.75l1.672 2.9a.264.264 0 0 1-.228.4h-1.28a.615.615 0 0 0-.533.923.615.615 0 0 0 .533.308h2.955a.527.527 0 0 0 .457-.791l-2.6-4.494A1.23 1.23 0 0 0 432.7.508h-5.19a.527.527 0 0 0-.457.791l1.476 2.558a.615.615 0 0 0 .533.308z" transform="translate(-416.475 2.963)" style="fill:#19b9c3"/>
            <path data-name="Path 43757" d="M429.062 630.136a.615.615 0 0 1 .533.923l-.64 1.109a.264.264 0 0 0 .228.4h3.345a1.229 1.229 0 0 1 1.3-.75l1.672-2.9a.264.264 0 0 0-.228-.4h-1.28a.615.615 0 0 1-.533-.923.615.615 0 0 1 .533-.308h2.955a.527.527 0 0 1 .457.791l-2.6 4.494a1.23 1.23 0 0 1-2.109 1.217h-5.19a.527.527 0 0 1-.457-.791l1.476-2.558a.615.615 0 0 1 .533-.308z" transform="translate(-416.475 -613.264)" style="fill:#50fec5"/>
        </g>
    </g>
</svg>
