<svg xmlns="http://www.w3.org/2000/svg" xmlns:xlink="http://www.w3.org/1999/xlink" width="24" height="24" viewBox="0 0 24 24">
    <defs>
        <linearGradient id="4jsebwvsza" x1=".168" y1=".233" x2=".85" y2=".945" gradientUnits="objectBoundingBox">
            <stop offset="0" stop-color="#50ffc5"/>
            <stop offset="1" stop-color="#19b9c3"/>
        </linearGradient>
        <linearGradient id="d5t575qrvb" x1=".168" y1=".233" x2=".85" y2=".945" xlink:href="#4jsebwvsza"/>
        <linearGradient id="zru1yu2l9c" x1=".168" y1=".233" x2=".849" y2=".945" xlink:href="#4jsebwvsza"/>
        <linearGradient id="77njgfpfdd" x1=".169" y1=".233" x2=".85" y2=".945" xlink:href="#4jsebwvsza"/>
    </defs>
    <g data-name="Group 1791">
        <path data-name="Rectangle 1883" style="fill:transparent" d="M0 0h24v24H0z"/>
        <g data-name="Layer 2">
            <path data-name="Path 43762" d="M9.9 15.538a1.23 1.23 0 0 0-1.065.615H5.9a.527.527 0 0 1-.457-.264l-4-6.934a.527.527 0 0 1 0-.527l4-6.934A.527.527 0 0 1 5.9 1.23h3.386A.615.615 0 0 0 9.9.615.615.615 0 0 0 9.286 0h-3.9a.879.879 0 0 0-.756.439L.119 8.252a.879.879 0 0 0 0 .879l4.511 7.813a.879.879 0 0 0 .761.439h3.445A1.23 1.23 0 1 0 9.9 15.538z" transform="translate(3 3.001)" style="fill:#19b9c3"/>
            <path data-name="Path 43763" d="m173.674 142.349-1.1-1.91a.879.879 0 0 0-.761-.439h-6.18a.879.879 0 0 0-.761.439l-3.09 5.352a.879.879 0 0 0 0 .879l1.237 2.143a.615.615 0 0 0 .84.225.615.615 0 0 0 .225-.84l-.984-1.7a.527.527 0 0 1 0-.527l1.157-2 1.426-2.47a.527.527 0 0 1 .457-.264h5.16a.527.527 0 0 1 .457.264l.839 1.453a1.23 1.23 0 1 0 1.076-.6z" transform="translate(-155.819 -134.538)" style="fill:#50fec5"/>
            <path data-name="Path 43764" d="m375.015 674.733.288.583a.154.154 0 0 0 .116.084l.643.094a.154.154 0 0 1 .085.263l-.466.454a.154.154 0 0 0-.044.136l.11.642a.154.154 0 0 1-.224.162l-.576-.3a.154.154 0 0 0-.143 0l-.575.3a.154.154 0 0 1-.223-.162l.11-.642a.154.154 0 0 0-.044-.136l-.466-.454a.154.154 0 0 1 .085-.263l.644-.094a.154.154 0 0 0 .116-.084l.288-.583a.154.154 0 0 1 .276 0z" transform="translate(-363.992 -659.788)" style="fill:url(#4jsebwvsza)"/>
            <path data-name="Path 43765" d="m625.245 674.731.288.584a.154.154 0 0 0 .116.084l.644.094a.154.154 0 0 1 .085.263l-.466.454a.154.154 0 0 0-.044.136l.11.642a.154.154 0 0 1-.223.162l-.576-.3a.154.154 0 0 0-.143 0l-.576.3a.154.154 0 0 1-.223-.162l.11-.642a.155.155 0 0 0-.044-.136l-.466-.454a.154.154 0 0 1 .085-.263l.644-.094a.155.155 0 0 0 .116-.084l.288-.584a.154.154 0 0 1 .276 0z" transform="translate(-609.824 -659.786)" style="fill:url(#d5t575qrvb)"/>
            <path data-name="Path 43766" d="m875.463 674.734.288.583a.154.154 0 0 0 .116.084l.644.094a.154.154 0 0 1 .085.263l-.466.454a.154.154 0 0 0-.044.136l.11.642a.154.154 0 0 1-.224.162l-.576-.3a.154.154 0 0 0-.143 0l-.576.3a.154.154 0 0 1-.224-.162l.11-.642a.154.154 0 0 0-.044-.136l-.466-.454a.154.154 0 0 1 .085-.263l.644-.094a.154.154 0 0 0 .116-.084l.288-.583a.154.154 0 0 1 .276 0z" transform="translate(-855.643 -659.789)" style="fill:url(#zru1yu2l9c)"/>
            <path data-name="Path 43767" d="m750.326 480.056.288.584a.154.154 0 0 0 .116.084l.644.094a.154.154 0 0 1 .085.263l-.466.454a.154.154 0 0 0-.044.136l.11.641a.154.154 0 0 1-.223.162l-.575-.3a.154.154 0 0 0-.143 0l-.578.3a.154.154 0 0 1-.223-.162l.11-.641a.154.154 0 0 0-.044-.136l-.466-.454a.154.154 0 0 1 .085-.263l.644-.094a.153.153 0 0 0 .116-.084l.288-.584a.154.154 0 0 1 .277 0z" transform="translate(-732.705 -468.532)" style="fill:url(#77njgfpfdd)"/>
            <path data-name="Path 43768" d="m500.134 480.086.288.584a.153.153 0 0 0 .116.084l.644.094a.154.154 0 0 1 .085.263l-.466.454a.154.154 0 0 0-.044.136l.11.641a.154.154 0 0 1-.224.162l-.576-.3a.154.154 0 0 0-.143 0l-.576.3a.154.154 0 0 1-.224-.162l.11-.641a.154.154 0 0 0-.044-.136l-.466-.454a.154.154 0 0 1 .085-.263l.644-.094a.154.154 0 0 0 .116-.084l.288-.584a.154.154 0 0 1 .276 0z" transform="translate(-486.912 -468.562)" style="fill:url(#d5t575qrvb)"/>
        </g>
    </g>
</svg>
