<svg xmlns="http://www.w3.org/2000/svg" width="24" height="24" viewBox="0 0 24 24">
    <path
        d="M83.518-868.8a.678.678 0 0 1-.481-.245.716.716 0 0 1-.236-.49v-1.715h8.75v-5.95H93.3a.651.651 0 0 1 .473.245.744.744 0 0 1 .227.508v10.43l-2.782-2.783zM80-869.5v-9.765a.728.728 0 0 1 .227-.49.651.651 0 0 1 .473-.245h9.083a.675.675 0 0 1 .49.236.714.714 0 0 1 .227.5v6.23a.728.728 0 0 1-.227.49.666.666 0 0 1-.49.245H82.8zm9.45-3.85v-5.6h-8.4v7l1.3-1.4zm-8.4 0z"
        transform="translate(-75 885.009)" style="fill:#ffa3a3" data-name="MDI / domain" />
</svg>