<svg xmlns="http://www.w3.org/2000/svg" width="1366" height="707" viewBox="0 0 1366 707">
    <defs>
        <clipPath id="t4culsp4aa">
            <path data-name="Rectangle 2063" transform="translate(0 60)" style="fill:none" d="M0 0h1366v707H0z"/>
        </clipPath>
    </defs>
    <g data-name="Group 4087">
        <path data-name="Rectangle 2062" style="fill:#f2fdfa" d="M0 0h1366v707H0z"/>
        <g data-name="Mask Group 1" style="clip-path:url(#t4culsp4aa)" transform="translate(0 -60)">
            <g data-name="Group 4010" style="opacity:.7">
                <path data-name="Path 44501" d="M685.584 0v212.065q-.782.8-1.563 1.687c-17.414 19.375-3.469 25.956-20.883 45.331s-31.345 12.793-48.759 32.168-3.455 25.956-20.869 45.331-31.359 12.793-48.759 32.168-3.483 25.956-20.9 45.331-31.341 12.804-48.751 32.179-3.469 25.943-20.869 45.317-31.359 12.807-48.759 32.181-3.472 25.957-20.887 45.331-9.886 29.439-41.793 29.425-31.372-9.3-42.588-30.577c-11.422-21.6-2.687-24.818-20.1-44.206s-31.359-12.793-48.759-32.168-3.483-25.97-20.9-45.345-31.345-12.793-48.759-32.181-3.469-25.956-20.9-45.331c-17.4-19.375-31.345-12.793-48.759-32.168s-3.455-25.956-20.869-45.331S39.8 278.416 22.4 259.041s-3.464-25.956-20.864-45.331A93.017 93.017 0 0 0 0 212.051V0h685.584z" transform="translate(683 60)" style="fill:#fff"/>
            </g>
            <g data-name="Group 4018" transform="translate(893.173 528.843)">
                <g data-name="Group 4014">
                    <g data-name="Group 4012">
                        <path data-name="Path 44502" d="M209.083 346.63h-18.895a9.492 9.492 0 0 0-9.488 9.488h37.872a9.492 9.492 0 0 0-9.489-9.488z" transform="translate(-143.103 -340.185)" style="fill:#5998db"/>
                        <path data-name="Path 44503" d="M320.063 346.63h-18.894a9.492 9.492 0 0 0-9.489 9.488h37.872a9.492 9.492 0 0 0-9.489-9.488z" transform="translate(-101.911 -340.185)" style="fill:#5998db"/>
                    </g>
                    <g data-name="Group 4013">
                        <path data-name="Path 44504" d="M239.222 341.93h37.337a10.469 10.469 0 0 1 10.462 10.462V366.5H228.76v-14.108a10.469 10.469 0 0 1 10.462-10.462z" transform="translate(-125.265 -341.93)" style="stroke-width:4.49px;stroke-miterlimit:10;stroke:#9ae4d9;fill:none"/>
                        <path data-name="Line 45" transform="translate(111.571)" style="stroke-width:7.26px;stroke:#5998db;stroke-miterlimit:10;fill:none" d="M0 0h42.095"/>
                    </g>
                </g>
                <rect data-name="Rectangle 2052" width="265.225" height="167.516" rx="24.18" transform="translate(0 15.933)" style="fill:#9ae4d9"/>
                <g data-name="Group 4017">
                    <g data-name="Group 4015" style="mix-blend-mode:multiply;isolation:isolate;opacity:.18" transform="translate(70.564 51.168)">
                        <circle data-name="Ellipse 101" cx="47.209" cy="47.209" r="47.209" transform="rotate(-66.65 65.92 43.343)" style="fill:#144051"/>
                    </g>
                    <g data-name="Group 4016" transform="translate(112.367 92.993)">
                        <rect data-name="Rectangle 2053" width="10.023" height="40.491" rx="1.29" transform="translate(15.247)" style="fill:#fff"/>
                        <rect data-name="Rectangle 2054" width="40.491" height="10.023" rx="1.29" transform="translate(0 15.247)" style="fill:#fff"/>
                    </g>
                </g>
                <path data-name="Line 46" transform="translate(0 52.31)" style="stroke-width:2.69px;opacity:.26;stroke:#144051;mix-blend-mode:multiply;isolation:isolate;stroke-miterlimit:10;fill:none" d="M0 0h265.239"/>
            </g>
            <g data-name="Group 4047">
                <g data-name="Group 4045">
                    <path data-name="Path 44505" d="m259 291.043-2.413 2.413a.952.952 0 0 1-1.344 0l-2.413-2.413a12.837 12.837 0 0 0-17.428-.878 12.534 12.534 0 0 0-.6 18.305l3.387 3.387 16.385 16.385a1.92 1.92 0 0 0 2.7 0l16.385-16.385 3.387-3.387a12.545 12.545 0 0 0-.6-18.305 12.808 12.808 0 0 0-17.428.878z" transform="translate(768.783 166.582)" style="fill:#e77974"/>
                    <path data-name="Path 44579" d="m259 291.043-2.413 2.413a.952.952 0 0 1-1.344 0l-2.413-2.413a12.837 12.837 0 0 0-17.428-.878 12.534 12.534 0 0 0-.6 18.305l3.387 3.387 16.385 16.385a1.92 1.92 0 0 0 2.7 0l16.385-16.385 3.387-3.387a12.545 12.545 0 0 0-.6-18.305 12.808 12.808 0 0 0-17.428.878z" transform="translate(569.029 -128.63)" style="fill:#e77974"/>
                    <g data-name="Group 4019">
                        <path data-name="Path 44506" d="m127.29 229.312 6.458-10.8a9.38 9.38 0 0 1 12.875-3.236 9.38 9.38 0 0 1 3.236 12.875l-6.458 10.8-16.111-9.626z" transform="translate(730.245 139.406)" style="fill:#e77974"/>
                        <path data-name="Path 44507" d="m122.941 235.945 6.458-10.8 16.111 9.626-6.458 10.8a9.38 9.38 0 0 1-12.875 3.236 9.38 9.38 0 0 1-3.236-12.875z" transform="translate(728.136 143.564)" style="fill:#5998db"/>
                    </g>
                    <g data-name="Group 4048">
                        <path data-name="Path 44506" d="m127.29 229.312 6.458-10.8a9.38 9.38 0 0 1 12.875-3.236 9.38 9.38 0 0 1 3.236 12.875l-6.458 10.8-16.111-9.626z" transform="rotate(-71 574.92 -494.228)" style="fill:#e77974"/>
                        <path data-name="Path 44507" d="m122.941 235.945 6.458-10.8 16.111 9.626-6.458 10.8a9.38 9.38 0 0 1-12.875 3.236 9.38 9.38 0 0 1-3.236-12.875z" transform="rotate(-71 578.89 -494.83)" style="fill:#5998db"/>
                    </g>
                    <g data-name="Group 4020">
                        <path data-name="Path 44508" d="M322.81 312.82a15.125 15.125 0 1 1 0-21.39 15.12 15.12 0 0 1 0 21.39z" transform="translate(793.232 166.524)" style="fill:#9ae4d9"/>
                        <path data-name="Line 47" transform="translate(1094.651 457.967)" style="stroke-width:3.36px;opacity:.15;stroke:#144051;mix-blend-mode:multiply;isolation:isolate;stroke-miterlimit:10;fill:none" d="M21.39 0 0 21.376"/>
                    </g>
                    <g data-name="Group 4050">
                        <path data-name="Path 44508" d="M322.81 312.82a15.125 15.125 0 1 1 0-21.39 15.12 15.12 0 0 1 0 21.39z" transform="translate(672.658 -95.476)" style="fill:#9ae4d9"/>
                        <path data-name="Line 47" transform="translate(974.077 195.967)" style="stroke-width:3.36px;opacity:.15;stroke:#144051;mix-blend-mode:multiply;isolation:isolate;stroke-miterlimit:10;fill:none" d="M21.39 0 0 21.376"/>
                    </g>
                    <g data-name="Group 4027">
                        <g data-name="Group 4023" transform="translate(1065.083 260.221)">
                            <rect data-name="Rectangle 2055" width="70.067" height="20.156" rx="1.93" transform="rotate(135 28.947 20.34)" style="fill:#9ae4d9"/>
                            <g data-name="Group 4022">
                                <path data-name="Path 44509" d="M319.876 158.956a1.27 1.27 0 1 0-1.8 0 1.275 1.275 0 0 0 1.8 0z" transform="translate(-264.16 -142.027)" style="stroke-width:.56px;stroke:#fff;stroke-miterlimit:10;fill:#fff"/>
                                <path data-name="Path 44510" d="M314.726 164.116a1.27 1.27 0 1 0-1.8 0 1.275 1.275 0 0 0 1.8 0z" transform="translate(-266.072 -140.111)" style="stroke-width:.56px;stroke:#fff;stroke-miterlimit:10;fill:#fff"/>
                                <path data-name="Path 44511" d="M314.726 153.806a1.27 1.27 0 1 0-1.8 0 1.275 1.275 0 0 0 1.8 0z" transform="translate(-266.072 -143.938)" style="stroke-width:.56px;stroke:#fff;stroke-miterlimit:10;fill:#fff"/>
                                <path data-name="Path 44512" d="M309.576 158.956a1.27 1.27 0 1 0-1.8 0 1.275 1.275 0 0 0 1.8 0z" transform="translate(-267.984 -142.027)" style="stroke-width:.56px;stroke:#fff;stroke-miterlimit:10;fill:#fff"/>
                                <path data-name="Path 44513" d="M314.726 158.956a1.27 1.27 0 1 0-1.8 0 1.275 1.275 0 0 0 1.8 0z" transform="translate(-266.072 -142.027)" style="stroke-width:.56px;stroke:#fff;stroke-miterlimit:10;fill:#fff"/>
                                <g data-name="Group 4021">
                                    <path data-name="Path 44514" d="M296.736 182.106a1.27 1.27 0 1 0-1.8 0 1.275 1.275 0 0 0 1.8 0z" transform="translate(-272.749 -133.434)" style="stroke-width:.56px;stroke:#fff;stroke-miterlimit:10;fill:#fff"/>
                                    <path data-name="Path 44515" d="M289.79 185.46a1.27 1.27 0 1 0 1.8 0 1.274 1.274 0 0 0-1.8 0z" transform="translate(-274.661 -131.522)" style="stroke-width:.56px;stroke:#fff;stroke-miterlimit:10;fill:#fff"/>
                                    <path data-name="Path 44516" d="M291.586 176.946a1.27 1.27 0 1 0-1.8 0 1.274 1.274 0 0 0 1.8 0z" transform="translate(-274.661 -135.349)" style="stroke-width:.56px;stroke:#fff;stroke-miterlimit:10;fill:#fff"/>
                                    <path data-name="Path 44517" d="M286.426 182.106a1.27 1.27 0 1 0-1.8 0 1.274 1.274 0 0 0 1.8 0z" transform="translate(-276.576 -133.434)" style="stroke-width:.56px;stroke:#fff;stroke-miterlimit:10;fill:#fff"/>
                                    <path data-name="Path 44518" d="M291.586 182.106a1.27 1.27 0 1 0-1.8 0 1.274 1.274 0 0 0 1.8 0z" transform="translate(-274.661 -133.434)" style="stroke-width:.56px;stroke:#fff;stroke-miterlimit:10;fill:#fff"/>
                                </g>
                                <path data-name="Path 44519" d="M308.306 170.536a1.27 1.27 0 1 0-1.8 0 1.275 1.275 0 0 0 1.8 0z" transform="translate(-268.455 -137.728)" style="stroke-width:.56px;stroke:#fff;stroke-miterlimit:10;fill:#fff"/>
                                <path data-name="Path 44520" d="M303.156 175.686a1.27 1.27 0 1 0-1.8 0 1.275 1.275 0 0 0 1.8 0z" transform="translate(-270.366 -135.817)" style="stroke-width:.56px;stroke:#fff;stroke-miterlimit:10;fill:#fff"/>
                                <path data-name="Path 44521" d="M303.156 165.376a1.27 1.27 0 1 0-1.8 0 1.275 1.275 0 0 0 1.8 0z" transform="translate(-270.366 -139.644)" style="stroke-width:.56px;stroke:#fff;stroke-miterlimit:10;fill:#fff"/>
                                <path data-name="Path 44522" d="M298.006 170.536a1.27 1.27 0 1 0-1.8 0 1.275 1.275 0 0 0 1.8 0z" transform="translate(-272.278 -137.728)" style="stroke-width:.56px;stroke:#fff;stroke-miterlimit:10;fill:#fff"/>
                                <path data-name="Path 44523" d="M303.156 170.536a1.27 1.27 0 1 0-1.8 0 1.275 1.275 0 0 0 1.8 0z" transform="translate(-270.366 -137.728)" style="stroke-width:.56px;stroke:#fff;stroke-miterlimit:10;fill:#fff"/>
                            </g>
                        </g>
                        <g data-name="Group 4026" transform="translate(1065.08 260.22)">
                            <rect data-name="Rectangle 2056" width="20.156" height="70.067" rx="1.93" transform="rotate(-45 17.205 7.127)" style="fill:#5998db"/>
                            <rect data-name="Rectangle 2057" width="18.662" height="15.357" rx=".61" transform="rotate(45 -8.632 47.041)" style="fill:#5998db"/>
                            <g data-name="Group 4025" transform="translate(7.688 7.703)">
                                <path data-name="Path 44524" d="M291.586 152.01a1.27 1.27 0 1 0 0 1.8 1.274 1.274 0 0 0 0-1.8z" transform="translate(-282.345 -151.64)" style="stroke-width:.56px;stroke:#fff;stroke-miterlimit:10;fill:#fff"/>
                                <path data-name="Path 44525" d="M296.736 157.17a1.27 1.27 0 1 0 0 1.8 1.274 1.274 0 0 0 0-1.8z" transform="translate(-280.433 -149.725)" style="stroke-width:.56px;stroke:#fff;stroke-miterlimit:10;fill:#fff"/>
                                <path data-name="Path 44526" d="M286.426 157.17a1.27 1.27 0 1 0 0 1.8 1.274 1.274 0 0 0 0-1.8z" transform="translate(-284.26 -149.725)" style="stroke-width:.56px;stroke:#fff;stroke-miterlimit:10;fill:#fff"/>
                                <circle data-name="Ellipse 102" cx="1.261" cy="1.261" r="1.261" transform="translate(7.075 14.137)" style="stroke-width:.56px;stroke:#fff;stroke-miterlimit:10;fill:#fff"/>
                                <path data-name="Path 44527" d="M291.586 157.17a1.27 1.27 0 1 0 0 1.8 1.274 1.274 0 0 0 0-1.8z" transform="translate(-282.345 -149.725)" style="stroke-width:.56px;stroke:#fff;stroke-miterlimit:10;fill:#fff"/>
                                <g data-name="Group 4024">
                                    <path data-name="Path 44528" d="M314.726 175.16a1.27 1.27 0 1 0 0 1.8 1.274 1.274 0 0 0 0-1.8z" transform="translate(-273.756 -143.047)" style="stroke-width:.56px;stroke:#fff;stroke-miterlimit:10;fill:#fff"/>
                                    <path data-name="Path 44529" d="M318.09 182.106a1.27 1.27 0 1 0 0-1.8 1.274 1.274 0 0 0 0 1.8z" transform="translate(-271.84 -141.135)" style="stroke-width:.56px;stroke:#fff;stroke-miterlimit:10;fill:#fff"/>
                                    <path data-name="Path 44530" d="M309.576 180.31a1.27 1.27 0 1 0 0 1.8 1.274 1.274 0 0 0 0-1.8z" transform="translate(-275.667 -141.135)" style="stroke-width:.56px;stroke:#fff;stroke-miterlimit:10;fill:#fff"/>
                                    <path data-name="Path 44531" d="M314.726 185.46a1.27 1.27 0 1 0 0 1.8 1.274 1.274 0 0 0 0-1.8z" transform="translate(-273.756 -139.224)" style="stroke-width:.56px;stroke:#fff;stroke-miterlimit:10;fill:#fff"/>
                                    <path data-name="Path 44532" d="M314.726 180.31a1.27 1.27 0 1 0 0 1.8 1.274 1.274 0 0 0 0-1.8z" transform="translate(-273.756 -141.135)" style="stroke-width:.56px;stroke:#fff;stroke-miterlimit:10;fill:#fff"/>
                                </g>
                                <path data-name="Path 44533" d="M303.156 163.59a1.27 1.27 0 1 0 0 1.8 1.274 1.274 0 0 0 0-1.8z" transform="translate(-278.05 -147.342)" style="stroke-width:.56px;stroke:#fff;stroke-miterlimit:10;fill:#fff"/>
                                <path data-name="Path 44534" d="M308.306 168.74a1.27 1.27 0 1 0 0 1.8 1.274 1.274 0 0 0 0-1.8z" transform="translate(-276.139 -145.43)" style="stroke-width:.56px;stroke:#fff;stroke-miterlimit:10;fill:#fff"/>
                                <path data-name="Path 44535" d="M298.006 168.74a1.27 1.27 0 1 0 0 1.8 1.274 1.274 0 0 0 0-1.8z" transform="translate(-279.962 -145.43)" style="stroke-width:.56px;stroke:#fff;stroke-miterlimit:10;fill:#fff"/>
                                <path data-name="Path 44536" d="M303.156 173.89a1.27 1.27 0 1 0 0 1.8 1.274 1.274 0 0 0 0-1.8z" transform="translate(-278.05 -143.519)" style="stroke-width:.56px;stroke:#fff;stroke-miterlimit:10;fill:#fff"/>
                                <path data-name="Path 44537" d="M303.156 168.74a1.27 1.27 0 1 0 0 1.8 1.274 1.274 0 0 0 0-1.8z" transform="translate(-278.05 -145.43)" style="stroke-width:.56px;stroke:#fff;stroke-miterlimit:10;fill:#fff"/>
                            </g>
                        </g>
                    </g>
                    <g data-name="Group 4029">
                        <path data-name="Line 48" transform="translate(990.114 325.896)" style="stroke-width:1.02px;stroke-miterlimit:10;stroke:#9ae4d9;fill:none" d="M0 47.634 16.18 0"/>
                        <path data-name="Path 44538" d="M229.9 234.332 220.083 231a.674.674 0 0 0-.85.411l-2.413 7.116 11.079 3.757 2.413-7.116a.674.674 0 0 0-.411-.85z" transform="translate(763.476 145.725)" style="fill:#5998db"/>
                        <path data-name="Path 44539" d="m227.158 226.2-.987-.329-6.061 7.445 7.308 2.482z" transform="translate(764.697 143.835)" style="fill:#5998db"/>
                        <path data-name="Path 44540" d="M3.414 0h14.96a3.415 3.415 0 0 1 3.414 3.414v71.863H0V3.414A3.415 3.415 0 0 1 3.414 0z" transform="rotate(18.74 -669.792 3140.394)" style="fill:#9ae4d9"/>
                        <path data-name="Path 44541" d="M1.111 0h1.933a1.106 1.106 0 0 1 1.111 1.111v32.058a1.106 1.106 0 0 1-1.111 1.111H1.111A1.106 1.106 0 0 1 0 33.169V1.111A1.106 1.106 0 0 1 1.111 0z" transform="rotate(-71.22 789.17 -432.47)" style="fill:#5998db"/>
                        <path data-name="Path 44542" d="M1.111 0h1.933a1.106 1.106 0 0 1 1.111 1.111v21.225a1.106 1.106 0 0 1-1.111 1.111H1.111A1.106 1.106 0 0 1 0 22.336V1.111A1.106 1.106 0 0 1 1.111 0z" transform="rotate(-71.22 804.701 -418.783)" style="fill:#5998db"/>
                        <path data-name="Rectangle 2058" transform="rotate(-71.22 805.66 -423.87)" style="fill:#5998db" d="M0 0h19.333v14.74H0z"/>
                        <g data-name="Group 4028">
                            <path data-name="Line 49" transform="translate(984.396 395.661)" style="stroke-width:.93px;stroke:#fff;stroke-miterlimit:10;fill:none" d="m0 0 8.707 2.962"/>
                            <path data-name="Line 50" transform="translate(979.954 408.742)" style="stroke-width:.93px;stroke:#fff;stroke-miterlimit:10;fill:none" d="m0 0 8.693 2.962"/>
                            <path data-name="Line 51" transform="translate(975.511 421.823)" style="stroke-width:.93px;stroke:#fff;stroke-miterlimit:10;fill:none" d="m0 0 8.693 2.962"/>
                            <path data-name="Line 52" transform="translate(971.069 434.904)" style="stroke-width:.93px;stroke:#fff;stroke-miterlimit:10;fill:none" d="m0 0 8.693 2.962"/>
                            <path data-name="Line 53" transform="translate(966.626 447.985)" style="stroke-width:.93px;stroke:#fff;stroke-miterlimit:10;fill:none" d="m0 0 8.693 2.962"/>
                        </g>
                    </g>
                    <g data-name="Group 4032">
                        <path data-name="Path 44543" d="M307.226 215.758a23.362 23.362 0 0 0-17.537-.7 23.361 23.361 0 0 0-17.318-2.825c-8.364 1.988-14.822 8.858-16.975 17.373-2.3 9.05-1.3 22.857 16.015 37.844a8.707 8.707 0 0 0 9.146 1.4l3.867-1.673 3.455 2.413a8.67 8.67 0 0 0 9.242.466c19.964-11.216 23.707-24.558 23.269-33.882-.411-8.775-5.361-16.8-13.163-20.417z" transform="translate(777.457 138.549)" style="fill:#e77974"/>
                        <g data-name="Group 4031">
                            <path data-name="Path 44544" d="M270.372 203.507a1 1 0 0 1 .864-1.124 12.893 12.893 0 0 1 14.521 11.038 1 1 0 0 1-.864 1.124 12.893 12.893 0 0 1-14.521-11.038z" transform="translate(783.35 135.073)" style="fill:#5fcec6"/>
                            <g data-name="Group 4030">
                                <path data-name="Path 44545" d="M279.982 222.37s-.9-10.037 5.567-15.33" transform="translate(786.903 136.846)" style="stroke-width:2.1px;stroke-linecap:round;stroke:#144051;stroke-miterlimit:10;fill:none"/>
                                <path data-name="Path 44546" d="M285.934 217.632c-.137 1.412-2.3 2.345-4.827 2.084s-4.456-1.6-4.305-3.017" transform="translate(785.736 140.431)" style="stroke-width:.88px;stroke-linecap:round;stroke:#144051;stroke-miterlimit:10;fill:none"/>
                            </g>
                        </g>
                    </g>
                    <g data-name="Group 4035" transform="translate(837.823 442.673)">
                        <circle data-name="Ellipse 103" cx="32.072" cy="32.072" r="32.072" transform="rotate(-49.97 52.7 24.558)" style="fill:#ebb064"/>
                        <g data-name="Group 4034">
                            <path data-name="Path 44547" d="M142.333 283.322a.577.577 0 0 0-.548-.59 10.484 10.484 0 0 0-10.915 10.038.577.577 0 0 0 .548.59 10.484 10.484 0 0 0 10.915-10.038z" transform="translate(-106.249 -277.736)" style="fill:#9ae4d9"/>
                            <g data-name="Group 4033">
                                <path data-name="Path 44548" d="M136.482 300.867s-7.267-6.568-6.129-14.617" transform="translate(-106.486 -276.427)" style="stroke-width:2.04px;stroke-linecap:round;stroke:#144051;stroke-miterlimit:10;fill:none"/>
                                <path data-name="Path 44549" d="M138.66 294.01c.823 1.1-.1 3.195-2.07 4.676s-4.237 1.8-5.06.686" transform="translate(-106.004 -273.547)" style="stroke-width:.85px;stroke-linecap:round;stroke:#144051;stroke-miterlimit:10;fill:none"/>
                            </g>
                        </g>
                    </g>
                    <g data-name="Group 4049" transform="translate(1243.823 110.18)">
                        <circle data-name="Ellipse 103" cx="25.543" cy="25.543" transform="rotate(-130.02 33.205 28.326)" style="fill:#ebb064" r="25.543"/>
                        <g data-name="Group 4034">
                            <path data-name="Path 44547" d="M130.87 283.2a.46.46 0 0 1 .437-.47 8.35 8.35 0 0 1 8.693 7.994.46.46 0 0 1-.437.47 8.35 8.35 0 0 1-8.693-7.994z" transform="translate(-87.634 -278.751)" style="fill:#9ae4d9"/>
                            <g data-name="Group 4033">
                                <path data-name="Path 44548" d="M130.232 297.891s5.788-5.231 4.881-11.641" transform="translate(-82.147 -278.426)" style="stroke-width:2.04px;stroke-linecap:round;stroke:#144051;stroke-miterlimit:10;fill:none"/>
                                <path data-name="Path 44549" d="M131.77 294.01c-.655.874.076 2.544 1.649 3.724s3.374 1.431 4.03.546" transform="translate(-85.804 -277.712)" style="stroke-width:.85px;stroke-linecap:round;stroke:#144051;stroke-miterlimit:10;fill:none"/>
                            </g>
                        </g>
                    </g>
                    <g data-name="Group 4037" transform="translate(899.765 291.666)">
                        <g data-name="Group 4036">
                            <path data-name="Path 44550" d="M187.043 178.353 184.3 172.8l-22.432 11.106 2.742 5.553a2.74 2.74 0 0 1-1.234 3.661l-1.659.823a3.647 3.647 0 0 0-1.645 4.881l21.2 42.822a3.647 3.647 0 0 0 4.881 1.645l30.647-15.164a3.647 3.647 0 0 0 1.645-4.881l-21.2-42.822a3.647 3.647 0 0 0-4.881-1.645l-1.659.823a2.74 2.74 0 0 1-3.661-1.234z" transform="translate(-157.492 -167.529)" style="fill:#5998db"/>
                            <path data-name="Rectangle 2059" transform="rotate(-26.34 89.507 5.154)" style="fill:#e77974" d="M0 0h41.478v27.629H0z"/>
                            <path data-name="Path 44551" d="m187.81 197.657-2.825 1.4a.834.834 0 0 1-1.124-.384l-1.4-2.825a.845.845 0 0 0-1.124-.384l-2.687 1.33a.845.845 0 0 0-.384 1.124l1.4 2.825a.834.834 0 0 1-.384 1.124l-2.825 1.4a.845.845 0 0 0-.384 1.124l1.33 2.687a.845.845 0 0 0 1.124.384l2.825-1.4a.834.834 0 0 1 1.124.384l1.4 2.825a.845.845 0 0 0 1.124.384l2.688-1.33a.845.845 0 0 0 .384-1.124l-1.4-2.825a.834.834 0 0 1 .384-1.124l2.825-1.4a.845.845 0 0 0 .384-1.124l-1.33-2.687a.845.845 0 0 0-1.125-.384z" transform="translate(-151.445 -159.149)" style="fill:#fff"/>
                        </g>
                        <rect data-name="Rectangle 2060" width="30.193" height="9.31" rx="1.46" transform="rotate(-26.34 28.627 6.699)" style="fill:#9ae4d9"/>
                    </g>
                    <g data-name="Group 4044">
                        <g data-name="Group 4041">
                            <path data-name="Path 44552" d="M447.5 179.551c-14.137 26-39.983 39.257-57.74 29.6s-20.677-38.557-6.54-64.555" transform="translate(821.917 113.67)" style="stroke-width:3.18px;stroke-miterlimit:10;stroke:#9ae4d9;fill:none"/>
                            <g data-name="Group 4040">
                                <g data-name="Group 4038">
                                    <path data-name="Path 44553" d="M382.568 149.644a.842.842 0 0 1-.562-.219 7.372 7.372 0 0 1 6.842-12.587.8.8 0 0 1 .548.48.862.862 0 0 1-.027.713l-6.088 11.2a.819.819 0 0 1-.713.425z" transform="translate(823.888 110.697)" style="fill:#5998db"/>
                                    <path data-name="Path 44554" d="M387.178 137.517a6.326 6.326 0 0 1 1.687.219.1.1 0 0 1 .069.069.1.1 0 0 1 0 .069l-6.088 11.2a.1.1 0 0 1-.082.041.08.08 0 0 1-.069-.027 6.66 6.66 0 0 1 4.484-11.586m0-1.453a8.108 8.108 0 0 0-5.457 14.109 1.553 1.553 0 0 0 1.056.411 1.53 1.53 0 0 0 1.357-.809l6.088-11.2a1.551 1.551 0 0 0-.974-2.235 8.154 8.154 0 0 0-2.057-.274z" transform="translate(823.694 110.497)" style="fill:#5998db"/>
                                </g>
                                <g data-name="Group 4039">
                                    <path data-name="Path 44555" d="M428.294 174.087a7.285 7.285 0 0 1-1.878-.247.8.8 0 0 1-.548-.48.862.862 0 0 1 .027-.713l6.088-11.2a.819.819 0 0 1 .713-.425.842.842 0 0 1 .562.219 7.374 7.374 0 0 1-4.964 12.834z" transform="translate(841.044 119.765)" style="fill:#5998db"/>
                                    <path data-name="Path 44556" d="M432.906 161.943a.231.231 0 0 1 .069.027 6.649 6.649 0 0 1-4.484 11.573 6.326 6.326 0 0 1-1.687-.219.1.1 0 0 1-.069-.069.1.1 0 0 1 0-.069l6.088-11.2a.1.1 0 0 1 .082-.041m0-1.453a1.53 1.53 0 0 0-1.357.809l-6.088 11.2a1.551 1.551 0 0 0 .974 2.235 8.1 8.1 0 0 0 7.514-13.835 1.553 1.553 0 0 0-1.056-.411z" transform="translate(840.847 119.568)" style="fill:#5998db"/>
                                </g>
                            </g>
                        </g>
                        <g data-name="Group 4043">
                            <path data-name="Path 44557" d="M399.4 191.68s-44.371 34.087-27.423 87.357c23.337 73.33-23.625 101.206-23.625 101.206" transform="translate(812.296 131.145)" style="stroke-width:3.18px;stroke-miterlimit:10;stroke:#9ae4d9;fill:none"/>
                            <path data-name="Path 44558" d="M370.347 224.68a75.624 75.624 0 0 0 1.618 42.095C395.3 340.1 348.34 367.981 348.34 367.981" transform="translate(812.292 143.394)" style="stroke-width:4.24px;stroke-linecap:round;stroke:#5998db;stroke-miterlimit:10;fill:none"/>
                            <g data-name="Group 4042">
                                <path data-name="Path 44559" d="M362.247 335.252a11.375 11.375 0 1 1-8.885-13.41 11.375 11.375 0 0 1 8.885 13.41z" transform="translate(809.094 179.372)" style="stroke-width:1.06px;stroke:#5998db;stroke-miterlimit:10;fill:#5998db"/>
                                <path data-name="Path 44560" d="M357.488 333.458a7.57 7.57 0 1 1-5.91-8.926 7.565 7.565 0 0 1 5.91 8.926z" transform="translate(810.124 180.398)" style="stroke-width:.43px;stroke:#fff;stroke-miterlimit:10;fill:#fff"/>
                            </g>
                        </g>
                    </g>
                </g>
                <g data-name="Group 4046" style="opacity:.57" transform="translate(725.321 202.512)">
                    <path data-name="Path 44561" d="m74.708 163.944-9.53-2.331a2.633 2.633 0 0 1-1.933-3.181l2.331-9.53a2.633 2.633 0 0 0-1.933-3.181l-9.077-2.221a2.633 2.633 0 0 0-3.181 1.933l-2.331 9.53a2.633 2.633 0 0 1-3.181 1.933l-9.53-2.331a2.633 2.633 0 0 0-3.181 1.933l-2.221 9.077a2.633 2.633 0 0 0 1.933 3.181l9.53 2.331a2.633 2.633 0 0 1 1.933 3.181l-2.331 9.53a2.633 2.633 0 0 0 1.933 3.181l9.077 2.221a2.633 2.633 0 0 0 3.181-1.933l2.331-9.53a2.633 2.633 0 0 1 3.181-1.933l9.53 2.331a2.633 2.633 0 0 0 3.181-1.935l2.221-9.077a2.633 2.633 0 0 0-1.933-3.179z" transform="translate(-30.865 -89.277)" style="opacity:.37;fill:#5ec1f7"/>
                    <path data-name="Path 44578" d="m74.708 163.944-9.53-2.331a2.633 2.633 0 0 1-1.933-3.181l2.331-9.53a2.633 2.633 0 0 0-1.933-3.181l-9.077-2.221a2.633 2.633 0 0 0-3.181 1.933l-2.331 9.53a2.633 2.633 0 0 1-3.181 1.933l-9.53-2.331a2.633 2.633 0 0 0-3.181 1.933l-2.221 9.077a2.633 2.633 0 0 0 1.933 3.181l9.53 2.331a2.633 2.633 0 0 1 1.933 3.181l-2.331 9.53a2.633 2.633 0 0 0 1.933 3.181l9.077 2.221a2.633 2.633 0 0 0 3.181-1.933l2.331-9.53a2.633 2.633 0 0 1 3.181-1.933l9.53 2.331a2.633 2.633 0 0 0 3.181-1.935l2.221-9.077a2.633 2.633 0 0 0-1.933-3.179z" transform="translate(159.665 -312.701)" style="opacity:.37;fill:#5ec1f7"/>
                    <path data-name="Path 44562" d="m446.274 116.461-9.68 1.549a2.615 2.615 0 0 1-3-2.18l-1.549-9.68a2.619 2.619 0 0 0-3-2.18l-9.228 1.467a2.619 2.619 0 0 0-2.18 3l1.549 9.68a2.615 2.615 0 0 1-2.18 3l-9.68 1.549a2.619 2.619 0 0 0-2.18 3l1.467 9.228a2.619 2.619 0 0 0 3 2.18l9.68-1.549a2.615 2.615 0 0 1 3 2.18l1.549 9.68a2.619 2.619 0 0 0 3 2.18l9.228-1.467a2.619 2.619 0 0 0 2.18-3l-1.549-9.68a2.615 2.615 0 0 1 2.18-3l9.68-1.549a2.619 2.619 0 0 0 2.18-3l-1.467-9.228a2.619 2.619 0 0 0-3-2.18z" transform="translate(108.04 -103.935)" style="opacity:.37;fill:#5ec1f7"/>
                    <path data-name="Path 44570" d="m446.274 116.461-9.68 1.549a2.615 2.615 0 0 1-3-2.18l-1.549-9.68a2.619 2.619 0 0 0-3-2.18l-9.228 1.467a2.619 2.619 0 0 0-2.18 3l1.549 9.68a2.615 2.615 0 0 1-2.18 3l-9.68 1.549a2.619 2.619 0 0 0-2.18 3l1.467 9.228a2.619 2.619 0 0 0 3 2.18l9.68-1.549a2.615 2.615 0 0 1 3 2.18l1.549 9.68a2.619 2.619 0 0 0 3 2.18l9.228-1.467a2.619 2.619 0 0 0 2.18-3l-1.549-9.68a2.615 2.615 0 0 1 2.18-3l9.68-1.549a2.619 2.619 0 0 0 2.18-3l-1.467-9.228a2.619 2.619 0 0 0-3-2.18z" transform="translate(-243.881 -126.772)" style="opacity:.37;fill:#5ec1f7"/>
                    <path data-name="Path 44577" d="m446.274 116.461-9.68 1.549a2.615 2.615 0 0 1-3-2.18l-1.549-9.68a2.619 2.619 0 0 0-3-2.18l-9.228 1.467a2.619 2.619 0 0 0-2.18 3l1.549 9.68a2.615 2.615 0 0 1-2.18 3l-9.68 1.549a2.619 2.619 0 0 0-2.18 3l1.467 9.228a2.619 2.619 0 0 0 3 2.18l9.68-1.549a2.615 2.615 0 0 1 3 2.18l1.549 9.68a2.619 2.619 0 0 0 3 2.18l9.228-1.467a2.619 2.619 0 0 0 2.18-3l-1.549-9.68a2.615 2.615 0 0 1 2.18-3l9.68-1.549a2.619 2.619 0 0 0 2.18-3l-1.467-9.228a2.619 2.619 0 0 0-3-2.18z" transform="translate(-388.583 -250.285)" style="opacity:.37;fill:#5ec1f7"/>
                    <circle data-name="Ellipse 104" cx="20.636" cy="20.636" r="20.636" transform="translate(100.664 56.431)" style="stroke:#5ec1f7;stroke-width:5px;opacity:.37;stroke-miterlimit:10;fill:none"/>
                    <circle data-name="Ellipse 106" cx="20.636" cy="20.636" r="20.636" transform="translate(308.664 -36.878)" style="stroke:#5ec1f7;stroke-width:5px;opacity:.37;stroke-miterlimit:10;fill:none"/>
                    <path data-name="Path 44563" d="M69.6 125.623a12.259 12.259 0 1 1 21.13-12.436" transform="translate(-17.119 -102.745)" style="stroke:#5ec1f7;stroke-width:5px;opacity:.37;stroke-linecap:round;stroke-miterlimit:10;fill:none"/>
                    <path data-name="Path 44564" d="M336.056 259.46a12.263 12.263 0 1 1-13.506 20.472" transform="translate(77.399 -46.209)" style="stroke:#5ec1f7;stroke-width:5px;opacity:.37;stroke-linecap:round;stroke-miterlimit:10;fill:none"/>
                    <path data-name="Path 44575" d="M336.056 259.46a12.263 12.263 0 1 1-13.506 20.472" transform="translate(110.542 -293.546)" style="stroke:#5ec1f7;stroke-width:5px;opacity:.37;stroke-linecap:round;stroke-miterlimit:10;fill:none"/>
                    <path data-name="Path 44565" d="M358.689 206.371a12.258 12.258 0 0 1-13.15-20.691" transform="translate(83.821 -73.594)" style="stroke:#5ec1f7;stroke-width:5px;opacity:.37;stroke-linecap:round;stroke-miterlimit:10;fill:none"/>
                    <path data-name="Path 44573" d="M358.689 206.371a12.258 12.258 0 0 1-13.15-20.691" transform="translate(-91.388 -249.05)" style="stroke:#5ec1f7;stroke-width:5px;opacity:.37;stroke-linecap:round;stroke-miterlimit:10;fill:none"/>
                    <path data-name="Path 44566" d="M92.019 212.9a12.261 12.261 0 0 1-9.749 22.5" transform="translate(-11.786 -63.491)" style="stroke:#5ec1f7;stroke-width:5px;opacity:.37;stroke-linecap:round;stroke-miterlimit:10;fill:none"/>
                    <circle data-name="Ellipse 105" cx="15.001" cy="15.001" r="15.001" transform="translate(483.11 157.486)" style="stroke:#5ec1f7;stroke-width:5px;opacity:.37;stroke-miterlimit:10;fill:none"/>
                    <circle data-name="Ellipse 107" cx="15.001" cy="15.001" r="15.001" transform="translate(560.331 -153.514)" style="stroke:#5ec1f7;stroke-width:5px;opacity:.37;stroke-miterlimit:10;fill:none"/>
                    <path data-name="Path 44567" d="M471.915 154.663 451.4 170.829a3.31 3.31 0 0 0 .823 5.677l24.256 9.68a3.3 3.3 0 0 0 4.5-3.551l-3.743-25.846a3.307 3.307 0 0 0-5.321-2.126z" transform="translate(124.755 -85.371)" style="opacity:.37;fill:#5ec1f7"/>
                    <path data-name="Path 44568" d="m244.4 172.011-11.586-23.392a3.308 3.308 0 0 0-5.718-.37l-14.466 21.733a3.313 3.313 0 0 0 2.55 5.142l26.052 1.659a3.317 3.317 0 0 0 3.181-4.772z" transform="translate(36.393 -88.034)" style="opacity:.37;fill:#5ec1f7"/>
                    <path data-name="Path 44571" d="m244.4 172.011-11.586-23.392a3.308 3.308 0 0 0-5.718-.37l-14.466 21.733a3.313 3.313 0 0 0 2.55 5.142l26.052 1.659a3.317 3.317 0 0 0 3.181-4.772z" transform="translate(-127.752 -239.034)" style="opacity:.37;fill:#5ec1f7"/>
                    <path data-name="Path 44569" d="m177.117 278.934 13.054-22.611a3.307 3.307 0 0 0-2.866-4.964H161.2a3.307 3.307 0 0 0-2.866 4.964l13.054 22.611a3.308 3.308 0 0 0 5.731 0z" transform="translate(16.279 -49.215)" style="opacity:.37;fill:#5ec1f7"/>
                    <path data-name="Path 44576" d="m177.117 278.934 13.054-22.611a3.307 3.307 0 0 0-2.866-4.964H161.2a3.307 3.307 0 0 0-2.866 4.964l13.054 22.611a3.308 3.308 0 0 0 5.731 0z" transform="translate(466.428 -328.61)" style="opacity:.37;fill:#5ec1f7"/>
                    <path data-name="Path 44574" d="m177.117 278.934 13.054-22.611a3.307 3.307 0 0 0-2.866-4.964H161.2a3.307 3.307 0 0 0-2.866 4.964l13.054 22.611a3.308 3.308 0 0 0 5.731 0z" transform="translate(225.698 -365.215)" style="opacity:.37;fill:#5ec1f7"/>
                    <path data-name="Path 44572" d="m177.117 278.934 13.054-22.611a3.307 3.307 0 0 0-2.866-4.964H161.2a3.307 3.307 0 0 0-2.866 4.964l13.054 22.611a3.308 3.308 0 0 0 5.731 0z" transform="translate(-182.721 -303.427)" style="opacity:.37;fill:#5ec1f7"/>
                </g>
            </g>
        </g>
    </g>
</svg>
