<svg data-name="SEASALT Logo File-SVG" xmlns="http://www.w3.org/2000/svg" width="250" height="48.92" viewBox="0 0 250 48.92">
    <path data-name="Path 21" d="M40.445 9.417 25.976 1.035a7.653 7.653 0 0 0-7.67 0L3.836 9.417A7.7 7.7 0 0 0 0 16.081v16.765a7.7 7.7 0 0 0 3.834 6.664L18.3 47.895a7.653 7.653 0 0 0 7.67 0l14.47-8.385a7.7 7.7 0 0 0 3.834-6.664V16.081a7.691 7.691 0 0 0-3.829-6.664zM26 9.723l1.639-.951a1.666 1.666 0 0 1 1.661 2.889l-1.639.951A1.666 1.666 0 0 1 26 9.723zm-11.021 6.383 6.33-3.668a1.666 1.666 0 0 1 1.661 2.889l-6.33 3.668a1.666 1.666 0 0 1-1.661-2.889zm0 10.261 12.663-7.334a1.666 1.666 0 0 1 1.658 2.889l-12.66 7.334a1.666 1.666 0 0 1-1.661-2.889zm3.3 12.84-1.639.951a1.666 1.666 0 0 1-1.661-2.889l1.639-.951a1.666 1.666 0 0 1 1.661 2.889zM29.3 32.824l-6.33 3.666a1.666 1.666 0 0 1-1.661-2.89l6.33-3.668a1.667 1.667 0 0 1 1.661 2.892z" transform="translate(0 -.005)" style="fill:#19b9c3"/>
    <path data-name="Path 22" d="M367.19 83.041a1.738 1.738 0 0 1-1.754 1.754 1.659 1.659 0 0 1-1.24-.509 1.758 1.758 0 1 1 2.993-1.245zm-167.42 1.3h19.314a4.171 4.171 0 0 0 1.588-.3 3.816 3.816 0 0 0 1.279-.845 4.216 4.216 0 0 0 .865-1.269 3.877 3.877 0 0 0 .314-1.566 4 4 0 0 0-.317-1.583 4 4 0 0 0-2.143-2.143 3.964 3.964 0 0 0-1.586-.317h-17.623a1.4 1.4 0 0 1-1-.414 1.365 1.365 0 0 1 0-2 1.436 1.436 0 0 1 1-.395h19.409a1.305 1.305 0 1 0 0-2.611h-19.346a3.861 3.861 0 0 0-1.566.317 4.05 4.05 0 0 0-1.269.862 4.136 4.136 0 0 0-.862 1.269 4.031 4.031 0 0 0 0 3.132 4.091 4.091 0 0 0 2.131 2.131 3.9 3.9 0 0 0 1.566.317h17.69a1.354 1.354 0 0 1 .989.416 1.4 1.4 0 0 1 .419 1.021 1.307 1.307 0 0 1-.421.977 1.393 1.393 0 0 1-.986.4h-19.442a1.3 1.3 0 0 0-1.305 1.305 1.3 1.3 0 0 0 1.3 1.305zm48.637-13.061a1.255 1.255 0 0 0-.926-.38h-22.6a1.307 1.307 0 1 0 0 2.613h22.6a1.311 1.311 0 0 0 .926-2.233zm-23.65 11.986a3.767 3.767 0 0 0 1.174.8 3.273 3.273 0 0 0 1.313.285h20.24a1.307 1.307 0 1 0 0-2.613H227.4a1.272 1.272 0 0 1-.867-.295.945.945 0 0 1-.348-.728v-1.79h20.59a1.306 1.306 0 0 0 1.305-1.308 1.3 1.3 0 0 0-1.308-1.305h-21.379a2.993 2.993 0 0 0-1.432.258c-.258.151-.382.463-.382.952v2.869a3.864 3.864 0 0 0 .331 1.625 4.219 4.219 0 0 0 .847 1.249zm38.7-11.533a3.559 3.559 0 0 0-1.318-1.081 3.985 3.985 0 0 0-3.529.046 3.835 3.835 0 0 0-1.354 1.13l-7.744 10.422a1.118 1.118 0 0 0-.275.792 1.295 1.295 0 0 0 2.309.818l7.485-9.94a4.326 4.326 0 0 1 .558-.589 1.146 1.146 0 0 1 1.673 0 7.48 7.48 0 0 1 .575.577l7.438 9.925a1.2 1.2 0 0 0 1.03.516 1.3 1.3 0 0 0 1.305-1.305 1.156 1.156 0 0 0-.107-.494 1.983 1.983 0 0 0-.285-.446zm10.858 12.611h19.314a4.158 4.158 0 0 0 1.586-.3 3.814 3.814 0 0 0 1.285-.844 4.21 4.21 0 0 0 .862-1.269 3.879 3.879 0 0 0 .317-1.566 3.987 3.987 0 0 0-.317-1.583 4.164 4.164 0 0 0-.86-1.286 4.069 4.069 0 0 0-1.284-.86 3.961 3.961 0 0 0-1.583-.317H276a1.4 1.4 0 0 1-1-.414 1.367 1.367 0 0 1 0-2 1.44 1.44 0 0 1 1-.395h19.409a1.307 1.307 0 1 0 0-2.613h-19.341a3.85 3.85 0 0 0-1.564.317 4.051 4.051 0 0 0-1.269.862 4.155 4.155 0 0 0-.862 1.267 4.032 4.032 0 0 0 0 3.132 4.04 4.04 0 0 0 .862 1.267 4.168 4.168 0 0 0 1.271.865 3.9 3.9 0 0 0 1.564.317h17.69a1.363 1.363 0 0 1 .989.416 1.4 1.4 0 0 1 .419 1.021 1.307 1.307 0 0 1-.421.977 1.391 1.391 0 0 1-.984.4h-19.442a1.309 1.309 0 0 0-.926 2.231 1.219 1.219 0 0 0 .921.375zm38.034-12.611a3.556 3.556 0 0 0-1.318-1.081 3.99 3.99 0 0 0-3.532.046 3.857 3.857 0 0 0-1.354 1.13L298.4 82.25a1.118 1.118 0 0 0-.275.792 1.3 1.3 0 0 0 1.306 1.308 1.26 1.26 0 0 0 1.006-.49l7.485-9.937a4.253 4.253 0 0 1 .555-.589 1.149 1.149 0 0 1 1.676 0 7.462 7.462 0 0 1 .575.577l7.438 9.925a1.2 1.2 0 0 0 1.033.516 1.3 1.3 0 0 0 1.305-1.305 1.192 1.192 0 0 0-.1-.494 1.911 1.911 0 0 0-.287-.446zm31.765 12.611a1.305 1.305 0 1 0 0-2.611h-19.12a1.4 1.4 0 0 1-1-.414 1.325 1.325 0 0 1-.436-.991v-8.123a1.221 1.221 0 0 0-.392-.921 1.271 1.271 0 0 0-.913-.385 1.3 1.3 0 0 0-1.308 1.305v8.128a3.764 3.764 0 0 0 .329 1.564 4.155 4.155 0 0 0 .894 1.269 4.205 4.205 0 0 0 1.315.862 4.089 4.089 0 0 0 1.6.319h19.029zm9.114-.38a1.3 1.3 0 0 0 2.231-.923v-9.53h9.66a1.307 1.307 0 1 0 0-2.613h-21.927a1.3 1.3 0 0 0-1.308 1.305 1.211 1.211 0 0 0 .353.882 1.363 1.363 0 0 0 .852.429h9.762v9.53a1.22 1.22 0 0 0 .379.92zm34.127-12.232a3.559 3.559 0 0 0-1.318-1.081 4 4 0 0 0-3.532.046 3.879 3.879 0 0 0-1.354 1.13l-7.743 10.423a1.118 1.118 0 0 0-.275.792 1.3 1.3 0 0 0 1.305 1.308 1.26 1.26 0 0 0 1.006-.49l7.485-9.937a4.277 4.277 0 0 1 .555-.589 1.143 1.143 0 0 1 1.671 0 7.127 7.127 0 0 1 .577.577l7.438 9.925a1.2 1.2 0 0 0 1.03.516 1.3 1.3 0 0 0 1.305-1.305 1.184 1.184 0 0 0-.1-.494 1.907 1.907 0 0 0-.287-.446zm11.209.47a1.307 1.307 0 1 0-2.613 0v10.839a1.311 1.311 0 0 0 2.233.928 1.248 1.248 0 0 0 .38-.926z" transform="translate(-148.566 -53.068)" style="fill:#19b9c3"/>
</svg>
