<svg xmlns="http://www.w3.org/2000/svg" width="72.002" height="36.001" viewBox="0 0 72.002 36.001">
    <path data-name="Union 5" d="M-4833.784 35.372v-.107a.269.269 0 0 0 0-.152 111.22 111.22 0 0 1-.046-2.235 2.757 2.757 0 0 1 .275-.443c0-.016.016-.03.031-.046-.046 1.791-.076 2.909-.076 2.985a2.165 2.165 0 0 1-.093.629 2.18 2.18 0 0 1-.091-.631zm-.582-2.77c.673-1.332 1.99-2.4 1.99-3.2 0-.581-.382-1.21-1.576-2.25s-2.389-1.975-2.389-3.183c0-1.317 1.944-2.434 2.863-3.077s2.082-1.255 2.082-1.837c0 0 .107-.674-1.623-1.453s-4.761-1.5-5.4-2.863a1.9 1.9 0 0 1 .672-2.434s.032-.856 1.424-.949c1.408-.091 1.485.506 1.469.735v.016c-.107 0-.2.03-.2.061s.077.061.168.061c-.077.23-.291.521-.9.811a1.416 1.416 0 0 1-1.042.184.694.694 0 0 0-.336.52c0 .322.611.979 3.6 2.419s3.49 1.791 3.49 2.785c0 1.133-1.056 1.592-2.847 2.756-1.805 1.179-2.449 1.776-2.449 2.449s.858 1.439 2.2 2.786c0 0 1.515 1.224 1.515 2.266 0 1.24-1.438 2.158-2.112 3.092a2.477 2.477 0 0 0-.352 2.617c.081.213.095.305.07.305a2.949 2.949 0 0 1-.317-2.619zm-1.775-20.787c0 .093.122.168.275.168s.275-.076.275-.168-.122-.168-.275-.168-.275.076-.275.168zm2.663 20.512a3.56 3.56 0 0 0 .23-.261c.091.138.168.277.244.414a1.612 1.612 0 0 1-.306 1.775 1.913 1.913 0 0 0-.168-1.929zm-2.112-3.108a3.576 3.576 0 0 1 1.271-2.05 2.505 2.505 0 0 1 .23.2c.061.046.106.107.167.153.185.168.352.32.505.474-.015 1.056-.045 2.036-.061 2.908-.122.139-.23.291-.352.445a1.411 1.411 0 0 0-.23.352c-.658-.66-1.53-1.578-1.53-2.482zm.688.169a4.324 4.324 0 0 0 1.042 1.836c-.016-1.026-.03-2.22-.062-3.521-.719.736-.978 1.24-.978 1.685zm1.9-2.648-.381-.383-.566-.566c-.016-.979-.032-2.005-.062-3.031.184-.138.382-.275.6-.429.032-.03.077-.046.107-.077 0-.015.016-.015.016-.015.152-.107.322-.214.5-.337a1.888 1.888 0 0 1 .23-.152c.811.612 1.623 1.378 1.623 2.22 0 1.071-.949 1.928-1.991 2.831a.947.947 0 0 0-.074-.062zm-.367-.52c.918-.919 1.485-1.546 1.485-2.082 0-.52-.4-1-1.408-1.73-.032 1.316-.064 2.586-.079 3.811zm49.386-.8-1.028-2.3h-5.136l-1.027 2.3h-1.953l4.624-9.967v-.034h1.883l4.625 10zm-5.514-3.768h3.836l-1.919-4.349zm-5.89 3.768-1.027-2.3h-5.1l-1.027 2.3h-1.953l4.589-10h1.883l4.624 10zm-5.479-3.768h3.835l-1.917-4.349zm-9.657 3.768v-9.965h3.082a4.4 4.4 0 0 1 2.089.412 2.9 2.9 0 0 1 1.369 1.267 4.044 4.044 0 0 1 .479 1.883 4.044 4.044 0 0 1-.479 1.883 3 3 0 0 1-1.369 1.233 5.415 5.415 0 0 1-2.089.411h-1.371v2.878zm1.711-4.453h1.267a2.5 2.5 0 0 0 1.713-.513 1.777 1.777 0 0 0 .583-1.473 1.883 1.883 0 0 0-.583-1.473 2.5 2.5 0 0 0-1.713-.514h-1.267zm-5.582 4.453v-10h1.713v10zm-3.835 0v-4.28h-4.795v4.281h-1.713v-10h1.713v4.11h4.795v-4.11h1.712v10zm-18.935-6.488c0-.75.306-1.133 1.837-1.944.229.091.459.168.688.261.2.061.368.138.552.2.029.016.045.016.076.03.016 0 .03.016.046.016q.413.161.781.322c-.016.872-.046 1.76-.061 2.633-.123.077-.246.168-.368.245a1.447 1.447 0 0 1-.23.168l-.138.091c-.229.153-.474.322-.719.506-1.564-.997-2.467-1.471-2.467-2.527zm2.924-1.317c-1.73.781-1.623 1.455-1.623 1.455 0 .52.964 1.071 1.821 1.653-.03-1.056-.045-2.112-.061-3.169-.048.017-.097.046-.14.062zm.918-1.607c-.032-.016-.077-.03-.107-.046l-.673-.336c-.107-6.643-.215-12.414-.215-12.414h-.153a.245.245 0 0 1-.168-.077.245.245 0 0 1-.077-.168v-.076a.2.2 0 0 1 .016-.093.252.252 0 0 1 .061-.076 1.255 1.255 0 0 0 .475.367 1.514 1.514 0 0 0 .581.123 1.267 1.267 0 0 0 .581-.123 1.582 1.582 0 0 0 .475-.367.146.146 0 0 1 .061.076.2.2 0 0 1 .016.093v.077a.245.245 0 0 1-.077.168.246.246 0 0 1-.168.077h-.154s-.138 5.939-.291 12.705c2.511-1.256 3.047-1.853 3.047-2.159a.694.694 0 0 0-.337-.52 1.5 1.5 0 0 1-1.041-.184c-.613-.306-.827-.582-.9-.811.092 0 .168-.03.168-.061s-.093-.062-.2-.062c-.032-.229.03-.842 1.454-.749 1.394.091 1.424.949 1.424.949s.647.408.737.86a2.029 2.029 0 0 1-.033 1.589c-.4.842-1.715 1.439-3.062 1.959a46.04 46.04 0 0 0-1.442-.72zm1.653-4.209c0 .091.122.168.275.168s.275-.077.275-.168-.123-.169-.275-.169-.277.077-.277.17zm-1.179-2.143c.031-1.639.061-3.077.093-4.18h.627a1.238 1.238 0 0 0 1.147-.535 2.724 2.724 0 0 0 .4-1.531 3.056 3.056 0 0 1 .918-2.3 3.649 3.649 0 0 1 3.226-.21c.444.169 1.3.6 2.127 1.026a8.8 8.8 0 0 0 2.051.858 26.024 26.024 0 0 1-1.913-.979 22.23 22.23 0 0 0-2.174-1.133 4 4 0 0 0-3.46.245 3.339 3.339 0 0 0-1.01 2.465 2.6 2.6 0 0 1-.352 1.423 1.114 1.114 0 0 1-1.024.429h-.566a3.745 3.745 0 0 0 .015-.4c.49.03 1.194.061 1.5-.6.368-.811-.03-2.832 1.2-3.69s3.2-.627 4.928.368a50.779 50.779 0 0 0 6.857 3.429 33.892 33.892 0 0 0 4.929 1.637c.322.061-.259.275-1.469.306a21.565 21.565 0 0 1-2.22-.061l-8.877-4.041s7.653 3.812 8.3 4.225c.642.429 1.178.566 1.117.933-.061.383-.536.337-1.882.307a6.416 6.416 0 0 1-2.1-.291c-.475-.123-5.434-2.434-5.434-2.434s5.326 2.648 6.091 3.26-.045.811-.581.827a7.153 7.153 0 0 1-2.756-.459c-.8-.4-3.276-1.991-3.276-1.991s2.45 1.76 2.924 2.159c.384.306.6.6.49.934-.138.428-.872.383-1.852.03a5.236 5.236 0 0 1-1.393-.69c-.384-.352-1.455-1.3-1.455-1.3a13.865 13.865 0 0 1 1.577 1.883c.306.566.352.719.214 1.026-.214.474-1.837-.016-2.3-.506a14.084 14.084 0 0 1-.95-1.21 6.059 6.059 0 0 1 .6 1.256c.107.459.245.811-.213.872a1.423 1.423 0 0 1-1.44-.49 5.188 5.188 0 0 1-.642-.888c.138.275.6 1.317.138 1.408a1.1 1.1 0 0 1-.238.027c-.453.006-1.016-.289-1.895-1.413zm-3.658 1.392c-.459-.091.016-1.133.138-1.408a4.144 4.144 0 0 1-.642.888 1.419 1.419 0 0 1-1.47.474c-.444-.045-.322-.413-.213-.872a5.981 5.981 0 0 1 .6-1.255 11.9 11.9 0 0 1-.949 1.209c-.459.49-2.081.965-2.295.506-.154-.322-.093-.459.214-1.026a16.117 16.117 0 0 1 1.591-1.882s-1.071.949-1.453 1.3a5.8 5.8 0 0 1-1.394.688c-.979.352-1.714.4-1.852-.03-.091-.336.107-.613.49-.933.474-.4 2.924-2.159 2.924-2.159s-2.48 1.592-3.276 1.989a7.123 7.123 0 0 1-2.754.459c-.521-.015-1.347-.214-.583-.826s6.093-3.261 6.093-3.261-4.976 2.3-5.435 2.434a5.985 5.985 0 0 1-2.1.291c-1.348.03-1.837.077-1.882-.306s.474-.521 1.117-.934 8.3-4.225 8.3-4.225l-8.879 4.041a21.315 21.315 0 0 1-2.219.062c-1.208-.03-1.791-.245-1.469-.307a31.087 31.087 0 0 0 4.929-1.637A52.481 52.481 0 0 0-4842.126.9c1.744-1.01 3.7-1.224 4.929-.367s.826 2.893 1.194 3.689c.306.658 1.01.627 1.5.6v.4h-.551a1.117 1.117 0 0 1-1.026-.429 2.632 2.632 0 0 1-.352-1.424 3.335 3.335 0 0 0-1.01-2.469 4 4 0 0 0-3.46-.245c-.443.184-1.332.674-2.173 1.133-.734.413-1.408.75-1.914.979a9.022 9.022 0 0 0 2.052-.856c.842-.414 1.7-.858 2.127-1.026a3.653 3.653 0 0 1 3.231.214 3.122 3.122 0 0 1 .918 2.3 2.749 2.749 0 0 0 .4 1.53 1.266 1.266 0 0 0 1.149.536h.627c.015 1.1.045 2.556.076 4.225-.874 1.11-1.415 1.384-1.868 1.384a1.279 1.279 0 0 1-.232-.024zm2.434-8.128a1.174 1.174 0 0 1-.4-.275 1.041 1.041 0 0 1-.275-.4 1.246 1.246 0 0 1-.091-.474 1.227 1.227 0 0 1 .214-.69 1.172 1.172 0 0 1 .551-.459 1.167 1.167 0 0 1 .719-.077 1.246 1.246 0 0 1 .643.337 1.3 1.3 0 0 1 .337.643 1.283 1.283 0 0 1-.077.719 1.329 1.329 0 0 1-.459.551 1.215 1.215 0 0 1-.688.214 1.2 1.2 0 0 1-.477-.088z" transform="translate(4854)" style="fill:#fff"/>
</svg>
