<svg xmlns="http://www.w3.org/2000/svg" xmlns:xlink="http://www.w3.org/1999/xlink" width="230.435" height="34.766" viewBox="0 0 230.435 34.766">
    <defs>
        <linearGradient id="9867wracga" x1="-.194" y1=".502" x2=".806" y2=".502" gradientUnits="objectBoundingBox">
            <stop offset="0" stop-color="#24b7d7"/>
            <stop offset="1" stop-color="#106ac2"/>
        </linearGradient>
        <linearGradient id="mkcfva2yhd" x1="-34.249" y1="1591.025" x2="-34.135" y2="1591.025" xlink:href="#9867wracga"/>
        <linearGradient id="unnwagklhe" x1="-113.884" y1="627.667" x2="-113.053" y2="628.115" gradientUnits="objectBoundingBox">
            <stop offset="0" stop-color="#24b7d7"/>
            <stop offset="1" stop-color="#1084c2"/>
        </linearGradient>
        <linearGradient id="t5s8q64uxb" x1="-.028" y1=".168" x2=".694" y2=".623" gradientUnits="objectBoundingBox">
            <stop offset="0" stop-color="#62d5ef"/>
            <stop offset="1" stop-color="#5998db"/>
        </linearGradient>
        <linearGradient id="og8x929nbf" x1="43.285" y1="6.742" x2="44.007" y2="7.198" xlink:href="#t5s8q64uxb"/>
        <linearGradient id="43gv2ob10c" x1="36.709" y1="43.619" x2="37.431" y2="44.075" gradientUnits="objectBoundingBox">
            <stop offset="0" stop-color="#9ae4d9"/>
            <stop offset="1" stop-color="#40a376"/>
        </linearGradient>
        <linearGradient id="64dst9dgng" x1="-6.602" y1="37.045" x2="-5.88" y2="37.5" xlink:href="#43gv2ob10c"/>
        <linearGradient id="lwezo9gl8h" x1="1484.22" y1=".502" x2="1485.22" y2=".502" xlink:href="#9867wracga"/>
        <linearGradient id="bpvygnvxgi" x1="6.089" y1="28.969" x2="7.088" y2="28.969" xlink:href="#9867wracga"/>
        <linearGradient id="j8eydfxlsj" x1="-3.467" y1="32.191" x2="-3.033" y2="32.725" xlink:href="#t5s8q64uxb"/>
        <linearGradient id="rkdr7u99zk" x1="7.092" y1="-2.513" x2="8.092" y2="-2.513" xlink:href="#9867wracga"/>
        <linearGradient id="wegk6inhpl" x1="27.544" y1=".278" x2="28.39" y2=".552" xlink:href="#t5s8q64uxb"/>
        <linearGradient id="xv4y7nh81m" x1="-2.755" y1="5.364" x2="-2.081" y2="5.733" xlink:href="#t5s8q64uxb"/>
        <linearGradient id="hx34f9vzin" x1="12.421" y1="27.979" x2="13.421" y2="27.979" xlink:href="#9867wracga"/>
        <linearGradient id="iovq6ffu6o" x1="-.055" y1="18.689" x2=".791" y2="18.963" xlink:href="#43gv2ob10c"/>
        <linearGradient id="bhbjamichp" x1="13.423" y1="-3.516" x2="14.423" y2="-3.516" xlink:href="#9867wracga"/>
        <linearGradient id="k8ioyuow0q" x1="18.046" y1="3.857" x2="18.48" y2="4.391" xlink:href="#43gv2ob10c"/>
        <linearGradient id="bwd8grgwfr" x1="-2.186" y1="7.241" x2="-1.512" y2="7.61" xlink:href="#43gv2ob10c"/>
    </defs>
    <g data-name="Group 4055">
        <path data-name="Path 44580" d="M57.46 20.015a5.934 5.934 0 0 0 .14-1.245 5.934 5.934 0 0 1-.14 1.245z" transform="translate(-35.44 -11.577)" style="fill:url(#9867wracga)"/>
        <path data-name="Path 44581" d="M68.69 57.46a5.934 5.934 0 0 0 1.245.138 5.934 5.934 0 0 1-1.245-.138z" transform="translate(-42.366 -35.44)" style="fill:url(#mkcfva2yhd)"/>
        <path data-name="Path 44582" d="m53.544 44.4-.364.368z" transform="translate(-32.8 -27.385)" style="fill:url(#unnwagklhe)"/>
        <path data-name="Path 44583" d="M65.562 13.28a3.342 3.342 0 0 0-3.342 3.342v2.487h2.487a3.342 3.342 0 0 0 3.342-3.342V13.28z" transform="translate(-38.376 -8.191)" style="fill:url(#t5s8q64uxb)"/>
        <path data-name="Path 44584" d="M13.28 15.777a3.342 3.342 0 0 0 3.342 3.342h2.487v-2.487a3.342 3.342 0 0 0-3.342-3.342H13.28v2.487z" transform="translate(-8.191 -8.197)" style="fill:url(#og8x929nbf)"/>
        <path data-name="Path 44585" d="M15.777 68.049a3.342 3.342 0 0 0 3.342-3.342V62.22h-2.487a3.342 3.342 0 0 0-3.342 3.342v2.487h2.487z" transform="translate(-8.197 -38.376)" style="fill:url(#43gv2ob10c)"/>
        <path data-name="Path 44586" d="M68.049 65.562a3.342 3.342 0 0 0-3.342-3.342H62.22v2.487a3.342 3.342 0 0 0 3.342 3.342h2.487z" transform="translate(-38.376 -38.376)" style="fill:url(#64dst9dgng)"/>
        <path data-name="Path 44587" d="M33.038 20.015a5.934 5.934 0 0 1-.138-1.245 5.934 5.934 0 0 0 .138 1.245z" transform="translate(-20.292 -11.577)" style="fill:url(#lwezo9gl8h)"/>
        <g data-name="Group 4053">
            <path data-name="Path 44588" d="M0 0h1.51a8.667 8.667 0 0 1 8.661 8.661v1.51h-1.51A8.667 8.667 0 0 1 0 1.514V0z" transform="rotate(135 13.785 15.891)" style="fill:url(#bpvygnvxgi)"/>
            <path data-name="Path 44589" d="m58.778 36.913 1.261 1.261a5.833 5.833 0 0 0 8.247 0l.5-.5-3.07-3.07a5.833 5.833 0 0 0-8.247 0l-2.309 2.309a2.556 2.556 0 0 1 3.618 0z" transform="translate(-34.021 -20.289)" style="fill:url(#j8eydfxlsj)"/>
            <path data-name="Path 44590" d="M8.657 0h1.514v1.51a8.667 8.667 0 0 1-8.661 8.665H0V8.661A8.667 8.667 0 0 1 8.661 0z" transform="rotate(135 10.797 8.688)" style="fill:url(#rkdr7u99zk)"/>
            <path data-name="Path 44591" d="M42.563 10.01 41.3 8.749A5.833 5.833 0 0 1 41.3.5l.5-.5 3.07 3.07a5.833 5.833 0 0 1 0 8.247l-2.311 2.311a2.556 2.556 0 0 0 0-3.618z" transform="translate(-24.421)" style="fill:url(#wegk6inhpl)"/>
            <path data-name="Path 44592" d="M54.553 17.885a5.833 5.833 0 0 1-8.247 0l-1.261-1.261-3.307-3.307-.947-.947-1.7-1.7-.659-.659-1.262-1.262a5.833 5.833 0 0 1 0-8.249l.5-.5-3.07 3.07a5.833 5.833 0 0 0 0 8.247l1.146 1.146.778.778 2.644 2.644 3.422 3.422 1.146 1.146a5.833 5.833 0 0 0 8.247 0l3.07-3.07-.5.5z" transform="translate(-20.288)" style="fill:url(#xv4y7nh81m)"/>
        </g>
        <g data-name="Group 4054">
            <path data-name="Path 44593" d="M8.661 0h1.51v1.51a8.667 8.667 0 0 1-8.661 8.661H0v-1.51A8.667 8.667 0 0 1 8.661 0z" transform="rotate(-45 38.378 1.491)" style="fill:url(#hx34f9vzin)"/>
            <path data-name="Path 44594" d="m36.913 58.778 1.261 1.261a5.833 5.833 0 0 1 0 8.247l-.5.5-3.07-3.07a5.833 5.833 0 0 1 0-8.247l2.311-2.311a2.556 2.556 0 0 0-.002 3.62z" transform="translate(-20.289 -34.021)" style="fill:url(#iovq6ffu6o)"/>
            <path data-name="Path 44595" d="M0 0h1.51a8.667 8.667 0 0 1 8.661 8.661v1.51h-1.51A8.667 8.667 0 0 1 0 1.51V0z" transform="rotate(-45 20.984 8.692)" style="fill:url(#bhbjamichp)"/>
            <path data-name="Path 44596" d="M10.01 42.563 8.749 41.3a5.833 5.833 0 0 0-8.249 0l-.5.5 3.07 3.07a5.833 5.833 0 0 0 8.247 0l2.311-2.311a2.556 2.556 0 0 1-3.618 0z" transform="translate(0 -24.421)" style="fill:url(#k8ioyuow0q)"/>
            <path data-name="Path 44597" d="M17.885 54.553a5.833 5.833 0 0 0 0-8.247l-1.261-1.261-3.307-3.307-.947-.947-1.7-1.7-.659-.659-1.262-1.262a5.833 5.833 0 0 0-8.247 0l-.5.5L3.07 34.6a5.833 5.833 0 0 1 8.247 0l1.146 1.146.778.778 2.644 2.644 3.422 3.422 1.146 1.146a5.833 5.833 0 0 1 0 8.247l-3.07 3.07.5-.5z" transform="translate(0 -20.289)" style="fill:url(#bwd8grgwfr)"/>
        </g>
    </g>
    <g data-name="Group 4056">
        <path data-name="Path 44598" d="M127.664 17.92a2.1 2.1 0 0 1-2.1 2.1h-10.213c-2.169 0-3.131 1.173-3.131 2.847 0 1.46.747 2.847 3.56 2.847h5.62c6.549 0 8.078 3.629 8.078 7.082 0 4.058-2.169 7.048-7.653 7.048h-11.28a2.1 2.1 0 0 1-2.1-2.1 2.1 2.1 0 0 1 2.1-2.1h11.425c2.276 0 3.311-1.245 3.311-2.989 0-1.567-.82-2.989-3.771-2.989h-5.587c-6.408 0-7.9-3.595-7.9-6.94 0-3.986 2.135-6.906 7.473-6.906h10.071a2.1 2.1 0 0 1 2.1 2.1z" transform="translate(-66.624 -9.758)" style="fill:#5998db"/>
        <path data-name="Path 44599" d="M187.235 29.464c4.449 0 6.335 2.135 6.335 5.764s-1.744 5.411-6.369 5.411h-7.58a1.353 1.353 0 0 0-1.353 1.353c0 1.495.82 2.6 2.882 2.6h9.661a1.832 1.832 0 0 1 1.832 1.832 1.832 1.832 0 0 1-1.832 1.832h-9.661c-4.7 0-6.549-2.633-6.549-6.193v-6.41c0-3.56 1.851-6.193 6.549-6.193h6.086zm-8.968 6.867a1.353 1.353 0 0 0 1.353 1.353h7.473c2.027 0 2.775-.855 2.775-2.242s-.82-2.349-2.667-2.349h-6.051c-2.066 0-2.882 1.138-2.882 2.6v.64z" transform="translate(-107.689 -18.17)" style="fill:#5998db"/>
        <path data-name="Path 44600" d="M247.57 29.464c4.7 0 6.549 2.633 6.549 6.193v8.826c0 2.706-.713 3.771-3.878 3.771h-8.791c-4.449 0-6.3-2.169-6.3-5.729s1.709-5.411 6.335-5.411h7.507a1.421 1.421 0 0 0 1.422-1.422c0-1.46-.82-2.6-2.882-2.6H238.1a1.815 1.815 0 0 1-1.816-1.817 1.815 1.815 0 0 1 1.816-1.815h9.466zm2.847 14.164v-2.1A1.421 1.421 0 0 0 249 40.106h-7.438c-1.993 0-2.706.82-2.706 2.207s.747 2.276 2.633 2.276h7.9c.745.001 1.029-.283 1.029-.961z" transform="translate(-145.034 -18.17)" style="fill:#5998db"/>
        <path data-name="Path 44601" d="M303.33 17.92v5.587a2.1 2.1 0 0 0 2.1 2.1h8.078a2.1 2.1 0 0 0 2.1-2.1V17.92a2.1 2.1 0 0 1 2.1-2.1h.034a2.1 2.1 0 0 1 2.1 2.1v19.824a2.1 2.1 0 0 1-2.1 2.1h-.034a2.1 2.1 0 0 1-2.1-2.1v-5.836a2.1 2.1 0 0 0-2.1-2.1h-8.078a2.1 2.1 0 0 0-2.1 2.1v5.837a2.1 2.1 0 0 1-2.1 2.1 2.1 2.1 0 0 1-2.1-2.1V17.92a2.1 2.1 0 0 1 2.1-2.1 2.1 2.1 0 0 1 2.1 2.1z" transform="translate(-184.495 -9.758)" style="fill:#303747"/>
        <path data-name="Path 44602" d="M379.365 29.464c4.449 0 6.335 2.135 6.335 5.764s-1.744 5.411-6.369 5.411h-7.58a1.353 1.353 0 0 0-1.353 1.353c0 1.495.82 2.6 2.882 2.6h9.661a1.832 1.832 0 0 1 1.832 1.832 1.832 1.832 0 0 1-1.832 1.832h-9.661c-4.7 0-6.549-2.633-6.549-6.193v-6.41c0-3.56 1.851-6.193 6.549-6.193h6.086zm-8.965 6.867a1.353 1.353 0 0 0 1.353 1.353h7.473c2.027 0 2.775-.855 2.775-2.242s-.82-2.349-2.667-2.349h-6.051c-2.066 0-2.882 1.138-2.882 2.6v.64z" transform="translate(-226.189 -18.17)" style="fill:#303747"/>
        <path data-name="Path 44603" d="M439.7 29.464c4.7 0 6.549 2.633 6.549 6.193v8.826c0 2.706-.713 3.771-3.878 3.771h-8.791c-4.449 0-6.3-2.169-6.3-5.729s1.709-5.411 6.335-5.411h7.507a1.421 1.421 0 0 0 1.422-1.422c0-1.46-.82-2.6-2.882-2.6h-9.431a1.815 1.815 0 0 1-1.816-1.817 1.815 1.815 0 0 1 1.816-1.817h9.469zm2.847 14.164v-2.1a1.421 1.421 0 0 0-1.422-1.422h-7.438c-1.993 0-2.706.82-2.706 2.207s.747 2.276 2.633 2.276h7.9c.75.001 1.034-.283 1.034-.961z" transform="translate(-263.535 -18.17)" style="fill:#303747"/>
        <path data-name="Path 44604" d="M494.481 10.1v23.17a1.884 1.884 0 0 1-1.885 1.885 1.884 1.884 0 0 1-1.886-1.885V10.1a1.884 1.884 0 0 1 1.89-1.89 1.884 1.884 0 0 1 1.881 1.89z" transform="translate(-302.656 -5.064)" style="fill:#303747"/>
        <path data-name="Path 44605" d="M512.3 21.562v-1.8a1.9 1.9 0 0 1 1.9-1.9 1.9 1.9 0 0 1 1.9 1.9v1.8a.746.746 0 0 0 .747.747h2.633a1.815 1.815 0 0 1 1.816 1.816 1.815 1.815 0 0 1-1.816 1.817h-2.62a.746.746 0 0 0-.747.747v8.151c0 2.1.747 2.813 2.526 2.813h.874a1.725 1.725 0 0 1 1.724 1.725 1.725 1.725 0 0 1-1.724 1.725h-1.656c-3.878 0-5.553-1.567-5.553-6.477V26.69a.746.746 0 0 0-.747-.747 1.815 1.815 0 0 1-1.817-1.817 1.815 1.815 0 0 1 1.817-1.817.746.746 0 0 0 .747-.747z" transform="translate(-314.394 -11.016)" style="fill:#303747"/>
        <path data-name="Path 44606" d="M553.261 10.1v4.376a1.884 1.884 0 0 0 1.885 1.885h4.733c6.335 0 9.466 3.062 9.466 8.22v8.684a1.884 1.884 0 0 1-1.885 1.885h-.034a1.884 1.884 0 0 1-1.885-1.885v-8.687c0-2.882-1.744-4.591-5.66-4.591h-4.733a1.884 1.884 0 0 0-1.885 1.885v11.39a1.884 1.884 0 0 1-1.885 1.885 1.884 1.884 0 0 1-1.885-1.885V10.1a1.884 1.884 0 0 1 1.885-1.885 1.884 1.884 0 0 1 1.883 1.885z" transform="translate(-338.91 -5.064)" style="fill:#303747"/>
    </g>
</svg>
