<svg xmlns="http://www.w3.org/2000/svg" width="307.377" height="57.996" viewBox="0 0 307.377 57.996">
    <defs>
        <clipPath id="m8norjd6ia">
            <path data-name="Rectangle 2069" style="fill:#fff" d="M0 0h307.377v57.996H0z"/>
        </clipPath>
    </defs>
    <g style="clip-path:url(#m8norjd6ia)">
        <path data-name="Path 44659" d="M17.387 36.616V19.362l6.393 17.254h4.357l6.393-17.325v17.325h5V11.784h-6.07l-7.43 18.679-7.572-18.679h-6.1v21H3.994V4h43.959v40.409h-6.926v8.159l-8.881-8.155H0v4h30.589L41.027 58h3.995v-9.588h6.926V0H0v36.616z" style="fill:#afd600"/>
        <path data-name="Path 44660" d="M56.242 10.478h6.233l6.136 16.139 6.2-16.139h6.171v23.038h-3.9V14.38h-.062l-6.98 19.136h-2.858L60.2 14.38h-.066v19.136h-3.9V10.478zm34.074 11.616a13.274 13.274 0 0 1 .907-5.01 11.4 11.4 0 0 1 2.5-3.871 11.022 11.022 0 0 1 3.831-2.439 14.744 14.744 0 0 1 9.838-.066 10.6 10.6 0 0 1 3.862 2.408 11.116 11.116 0 0 1 2.531 3.84 13.228 13.228 0 0 1 .911 5.01 12.64 12.64 0 0 1-.911 4.913 11.3 11.3 0 0 1-2.531 3.808 11.835 11.835 0 0 1-3.862 2.505 13.926 13.926 0 0 1-4.937.913 13.713 13.713 0 0 1-4.9-.847 11.743 11.743 0 0 1-3.831-2.439 11.494 11.494 0 0 1-2.5-3.808 12.792 12.792 0 0 1-.907-4.913zm4.287-.261a10.151 10.151 0 0 0 .553 3.418 8.2 8.2 0 0 0 1.623 2.7 7.6 7.6 0 0 0 2.468 1.791 8.414 8.414 0 0 0 6.494 0 7.416 7.416 0 0 0 2.5-1.791 7.857 7.857 0 0 0 1.592-2.7 9.691 9.691 0 0 0 .584-3.418 8.793 8.793 0 0 0-.584-3.223 7.606 7.606 0 0 0-1.592-2.6 7.019 7.019 0 0 0-2.5-1.756 8.416 8.416 0 0 0-6.494 0 7.175 7.175 0 0 0-2.468 1.756 7.991 7.991 0 0 0-1.623 2.6 9.294 9.294 0 0 0-.556 3.223zm29.441-11.359h6.233l6.136 16.139 6.2-16.139h6.17v23.038h-3.9V14.376h-.066l-6.98 19.135h-2.859L128 14.376h-.066v19.136h-3.9V10.474zm35.308 0h15.226v3.711h-11.136v5.662h10.551v3.711h-10.551V29.8h11.723v3.711h-15.81V10.478zm25.2 0h5.424l11.134 17.118h.066V10.474h4.092v23.038h-5.194L188.71 15.843h-.066v17.669h-4.091V10.474zm35.9 3.711H213.4v-3.711h18.181v3.711h-7.047v19.331h-4.091V14.185zm37.694 10.867a9.629 9.629 0 0 1-.712 3.773 8.471 8.471 0 0 1-1.947 2.833 8.661 8.661 0 0 1-2.924 1.822 11.213 11.213 0 0 1-7.335 0 9.149 9.149 0 0 1-2.955-1.822 8.45 8.45 0 0 1-1.947-2.833 10.015 10.015 0 0 1-.681-3.773V10.474h4.092v14.449a6.7 6.7 0 0 0 .26 1.791 5.168 5.168 0 0 0 .845 1.693 5.05 5.05 0 0 0 1.593 1.3 5.644 5.644 0 0 0 2.468.488 5.419 5.419 0 0 0 2.434-.488 4.547 4.547 0 0 0 1.592-1.3 4.79 4.79 0 0 0 .876-1.693 6.831 6.831 0 0 0 .261-1.791V10.474h4.092v14.578zm10.47-14.578h6.233l6.136 16.139 6.2-16.139h6.166v23.038h-3.9V14.376h-.066L282.4 33.512h-2.858l-6.98-19.135h-.062v19.135h-3.9V10.474z" transform="translate(14.031 2.469)" style="fill:#060606"/>
    </g>
</svg>
