<svg data-name="Component 10 – 1" xmlns="http://www.w3.org/2000/svg" width="30" height="30" viewBox="0 0 30 30">
    <path data-name="Subtraction 3" d="M15 30A15 15 0 0 1 4.393 4.393a15 15 0 1 1 21.213 21.213A14.9 14.9 0 0 1 15 30zm3.809-9.756 1.2 1.046 1.1 1L23.122 24V7.856A1.978 1.978 0 0 0 21.167 6H8.787a1.909 1.909 0 0 0-1.909 1.86v12.18a1.861 1.861 0 0 0 1.905 1.86h10.528l-.5-1.65zm-6.419-2.41a3.3 3.3 0 0 1-2.807-1.354 11.834 11.834 0 0 1 1.354-5.265 4.557 4.557 0 0 1 2.579-.952h.029l.1.1a5.435 5.435 0 0 0-2.407 1.152s.022-.012.049-.024c.083-.039.255-.12.5-.227a6.715 6.715 0 0 1 2.107-.552h.15c.362-.031.691-.057 1.045-.057a5.274 5.274 0 0 1 .811.057 8.14 8.14 0 0 1 2.808.853 6.181 6.181 0 0 0-2.308-1.153l.138-.137a4.5 4.5 0 0 1 2.569.945 11.891 11.891 0 0 1 1.362 5.265c-.019 0-.05.033-.1.088a3.761 3.761 0 0 1-2.8 1.207l-.008-.009a11.245 11.245 0 0 1-.588-.741 3.01 3.01 0 0 0 1.654-1.053 7.315 7.315 0 0 1-.789.425 9.025 9.025 0 0 0-.259.128 6.845 6.845 0 0 1-1.315.393l-.035.008a7.145 7.145 0 0 1-1.169.095 8.592 8.592 0 0 1-1.238-.095 6.167 6.167 0 0 1-1.35-.4 12.348 12.348 0 0 0-.655-.282l-.042-.017a.058.058 0 0 1-.045-.022v-.007a.056.056 0 0 0-.042-.02h-.045a2.576 2.576 0 0 0-.251-.15 2.965 2.965 0 0 0 1.6 1.053c-.3.342-.591.735-.6.751zm4.31-4.262a1 1 0 1 0 .956 1 .98.98 0 0 0-.956-.996zm-3.411 0a1 1 0 1 0 .954 1 .979.979 0 0 0-.954-1z" style="fill:none"/>
</svg>
