<svg data-name="Component 9 – 1" xmlns="http://www.w3.org/2000/svg" width="30" height="30" viewBox="0 0 30 30">
    <path data-name="Subtraction 2" d="M15 30A15 15 0 0 1 4.393 4.393a15 15 0 1 1 21.213 21.213A14.9 14.9 0 0 1 15 30zm-9-9.347a10.445 10.445 0 0 0 5.664 1.656 10.057 10.057 0 0 0 7.792-3.419 10.858 10.858 0 0 0 2.7-7.077c0-.157 0-.319-.012-.48A7.909 7.909 0 0 0 24 9.427a7.382 7.382 0 0 1-2.125.573A3.666 3.666 0 0 0 23.5 7.964a7.284 7.284 0 0 1-2.341.891 3.693 3.693 0 0 0-6.385 2.524 4.2 4.2 0 0 0 .091.845 10.509 10.509 0 0 1-7.606-3.86 3.641 3.641 0 0 0-.5 1.861A3.686 3.686 0 0 0 8.4 13.3a3.735 3.735 0 0 1-1.668-.468v.045A3.705 3.705 0 0 0 9.689 16.5a3.871 3.871 0 0 1-.971.126 4.64 4.64 0 0 1-.7-.058 3.7 3.7 0 0 0 3.449 2.559A7.351 7.351 0 0 1 6.891 20.7 7.56 7.56 0 0 1 6 20.653z" style="fill:#fff"/>
</svg>
