<svg data-name="Component 12 – 1" xmlns="http://www.w3.org/2000/svg" width="30" height="30" viewBox="0 0 30 30">
    <path data-name="Subtraction 5" d="M-240 30a14.9 14.9 0 0 1-10.606-4.393A14.9 14.9 0 0 1-255 15a14.9 14.9 0 0 1 4.393-10.607A14.9 14.9 0 0 1-240 0a14.9 14.9 0 0 1 10.607 4.393A14.9 14.9 0 0 1-225 15a14.9 14.9 0 0 1-4.393 10.606A14.9 14.9 0 0 1-240 30zm3.277-14.527c1.617 0 1.617 1.532 1.617 2.651V23h3.1v-5.5c0-2.475-.451-4.765-3.726-4.765a3.283 3.283 0 0 0-2.942 1.617h-.043v-1.367h-2.983V23h3.106v-4.959c.006-1.27.227-2.568 1.871-2.568zm-10.029-2.488V23h3.11V12.985h-3.11zM-245.2 8a1.8 1.8 0 0 0-1.8 1.8 1.812 1.812 0 0 0 1.8 1.818 1.812 1.812 0 0 0 1.8-1.818 1.8 1.8 0 0 0-1.8-1.8z" transform="translate(255)" style="fill:#fff"/>
</svg>
