<svg data-name="Component 13 – 1" xmlns="http://www.w3.org/2000/svg" width="30" height="30" viewBox="0 0 30 30">
    <path data-name="Subtraction 1" d="M15 30A15 15 0 0 1 4.393 4.393a15 15 0 1 1 21.213 21.213A14.9 14.9 0 0 1 15 30zm.109-16.124c-2.34 0-5.434.029-6.7.092a2.338 2.338 0 0 0-2.3 2.255l-.04.7v.006c-.047.816-.07 1.226-.07 1.752 0 .66.036 1.632.11 2.971a2.34 2.34 0 0 0 2.3 2.255c1.264.063 4.359.092 6.7.092 2.319 0 5.228-.028 6.5-.092a2.338 2.338 0 0 0 2.3-2.255c.062-1.09.093-2.09.093-2.971 0-.823-.027-1.3-.081-2.252l-.012-.208a2.336 2.336 0 0 0-2.3-2.255c-1.272-.066-4.181-.091-6.5-.091zm4.391-1.653v.527h1.125V7.125H19.5v4.429a1.1 1.1 0 0 1-.638.316.38.38 0 0 1-.347-.242 2.057 2.057 0 0 1-.141-.876V7.125H17.25v3.855c.024 1.182.342 1.756.973 1.756a2.489 2.489 0 0 0 1.275-.512zm-5.062-5.1a1.689 1.689 0 0 0-1.688 1.69v2.25a1.687 1.687 0 1 0 3.375 0v-2.25a1.689 1.689 0 0 0-1.687-1.688zm-5.063 2.69v2.937H10.5V9.813l.013.007L12.705 6h-1.551L9.938 8.412 8.721 6H7.17l2.192 3.82.012-.007zm11.813 13.062a1.689 1.689 0 0 1-1.688-1.687v-2.25a1.688 1.688 0 0 1 3.375 0v1.125h-2.25v1.125a.563.563 0 0 0 1.125 0v-.562h1.125v.563a1.689 1.689 0 0 1-1.687 1.686zm0-4.5a.563.563 0 0 0-.562.563v.562h1.124v-.562a.563.563 0 0 0-.562-.563zm-5.062 4.5H15v-6.75h1.125v1.828a1.954 1.954 0 0 1 1.3-.662.967.967 0 0 1 .946 1.084v3.359a1.016 1.016 0 0 1-1.038 1.125 1.9 1.9 0 0 1-1.212-.521v.535zm.672-4.282a1.011 1.011 0 0 0-.672.344v2.953a1 1 0 0 0 .668.284.406.406 0 0 0 .457-.425v-2.636a.561.561 0 0 0-.127-.381.423.423 0 0 0-.324-.138zm-2.922 4.282H12.75v-.526a3.274 3.274 0 0 1-1.442.512c-.72 0-.793-.694-.806-1.4v-3.082h1.125v3.1c0 .33.15.512.421.512a1.193 1.193 0 0 0 .7-.308v-3.3h1.125v4.5zm-4.5 0H8.25V17.25H7.125v-1.125H10.5v1.125H9.375v5.624zm5.063-11.25a.57.57 0 0 1-.562-.562v-2.25a.562.562 0 0 1 1.125 0v2.25a.57.57 0 0 1-.564.562z" style="fill:#fff"/>
</svg>
