<svg xmlns="http://www.w3.org/2000/svg" width="849.301" height="594.07" viewBox="0 0 849.301 594.07">
    <defs>
        <linearGradient id="linear-gradient" x1=".5" x2=".5" y2="1" gradientUnits="objectBoundingBox">
            <stop offset="0" stop-color="#50ffd7"/>
            <stop offset="1" stop-color="#1961c3"/>
        </linearGradient>
        <linearGradient id="linear-gradient-2" x1=".5" x2=".5" y2="1" gradientUnits="objectBoundingBox">
            <stop offset="0" stop-color="#34f7ff"/>
            <stop offset="1" stop-color="#50ffc5"/>
        </linearGradient>
        <linearGradient id="linear-gradient-3" x1=".5" x2=".5" y2="1" gradientUnits="objectBoundingBox">
            <stop offset="0" stop-color="#0598ce"/>
            <stop offset="1" stop-color="#27ffb7"/>
        </linearGradient>
        <linearGradient id="linear-gradient-4" x1=".5" x2=".5" y2="1" gradientUnits="objectBoundingBox">
            <stop offset="0" stop-color="#50ffc5"/>
            <stop offset="1" stop-color="#55bce2"/>
        </linearGradient>
        <linearGradient id="linear-gradient-5" x1=".5" x2=".5" y2="1" gradientUnits="objectBoundingBox">
            <stop offset="0" stop-color="#90ffff"/>
            <stop offset="1" stop-color="#5f9de5"/>
        </linearGradient>
        <linearGradient id="linear-gradient-6" x1=".5" x2=".5" y2="1" gradientUnits="objectBoundingBox">
            <stop offset="0" stop-color="#18ddea"/>
            <stop offset="1" stop-color="#2cffb9"/>
        </linearGradient>
        <linearGradient id="linear-gradient-7" x1=".5" x2=".5" y2="1" gradientUnits="objectBoundingBox">
            <stop offset="0" stop-color="#50ffc5"/>
            <stop offset="1" stop-color="#19b9c3"/>
        </linearGradient>
        <linearGradient id="linear-gradient-8" x1=".5" x2=".5" y2="1" gradientUnits="objectBoundingBox">
            <stop offset="0" stop-color="#159ee6"/>
            <stop offset="1" stop-color="#72ffef"/>
        </linearGradient>
        <style>
            .cls-1,.cls-11,.cls-52,.cls-57,.cls-58,.cls-67,.cls-68,.cls-69{isolation:isolate}.cls-2{fill:#e0e0e0}.cls-3{fill:#ebebeb}.cls-4{fill:#f5f5f5}.cls-5{fill:#263238}.cls-7{fill:#58e8d7}.cls-9{fill:#fafafa}.cls-10{fill:#50ffc5}.cls-11{fill:#c7a4a9}.cls-11,.cls-16,.cls-17,.cls-18,.cls-19,.cls-20,.cls-21{fill-rule:evenodd}.cls-11,.cls-12{opacity:.7}.cls-11,.cls-57,.cls-58,.cls-67,.cls-69{mix-blend-mode:multiply}.cls-12,.cls-17,.cls-27,.cls-52{fill:#fff}.cls-22{fill:#cbb8a7}.cls-16{fill:#c2dd76}.cls-18{fill:#f95549}.cls-19{fill:#ff775c}.cls-20{fill:#711925}.cls-21{fill:#f0664c}.cls-23{fill:#ddcfc9}.cls-24{fill:#d9fcff}.cls-25{fill:#bcfaff}.cls-26{fill:#f8f7e5}.cls-28{fill:#fff3ed}.cls-33{fill:#9bdfe5}.cls-34{fill:#d5c2b9}.cls-36{fill:#19b9c3}.cls-49{fill:#6ebebf}.cls-49,.cls-53,.cls-56,.cls-59,.cls-61,.cls-71{stroke:#673e20}.cls-49,.cls-53,.cls-61{stroke-linecap:round}.cls-49,.cls-53,.cls-59,.cls-61,.cls-71{stroke-linejoin:round}.cls-56{stroke-miterlimit:10}.cls-52,.cls-68{mix-blend-mode:soft-light}.cls-53{fill:#f08046}.cls-56{fill:#f6a654}.cls-57{fill:#efe2d6}.cls-58{fill:#dedede}.cls-59{fill:#683c11}.cls-61{fill:#cbe9fc}.cls-67{fill:#ccc}.cls-68{fill:#facdbd;opacity:.4}.cls-69{fill:#c2dded}.cls-71{fill:#dadada}.cls-76{fill:#f7ba9c}.cls-77{fill:#909090}.cls-78{fill:#f2a786}.cls-81{fill:#b75454}.cls-82{fill:#ea7f3c}.cls-83{fill:#ff9055}.cls-86{fill:#bfcad8}
        </style>
    </defs>
    <g id="marketing_landing_page" class="cls-1" transform="translate(-486.299 -140.57)">
        <g id="Layer_1">
            <g id="Group_415">
                <path id="Rectangle_1429" d="M0 0H100.71V191.14H0z" class="cls-2" transform="translate(777.77 541.02)"/>
                <path id="Rectangle_1430" d="M0 0H47.22V191.14H0z" class="cls-3" transform="translate(831.26 541.02)"/>
                <path id="Rectangle_1431" d="M0 0H9.06V22H0z" class="cls-4" transform="translate(798.88 559)"/>
                <path id="Rectangle_1432" d="M0 0H9.06V22H0z" class="cls-4" transform="translate(798.88 645.11)"/>
                <path id="Path_31821" d="M831.26 589.63c0 .19-12 .35-26.75.35s-26.74-.16-26.74-.35 12-.34 26.74-.34 26.75.16 26.75.34z" class="cls-4"/>
                <path id="Rectangle_1433" d="M0 0H9.06V22H0z" class="cls-4" transform="translate(798.88 602.38)"/>
                <path id="Path_31822" d="M831.26 633c0 .19-12 .35-26.75.35s-26.74-.16-26.74-.35 12-.34 26.74-.34 26.75.16 26.75.34z" class="cls-4"/>
                <path id="Rectangle_1434" d="M0 0H9.06V22H0z" class="cls-2" transform="translate(841.29 559)"/>
                <path id="Rectangle_1435" d="M0 0H9.06V22H0z" class="cls-2" transform="translate(860.93 559)"/>
                <path id="Rectangle_1436" d="M0 0H9.06V22H0z" class="cls-2" transform="translate(841.29 600.75)"/>
                <path id="Rectangle_1437" d="M0 0H9.06V22H0z" class="cls-2" transform="translate(860.93 600.75)"/>
                <path id="Rectangle_1438" d="M0 0H9.06V22H0z" class="cls-2" transform="translate(841.29 642.49)"/>
                <path id="Rectangle_1439" d="M0 0H9.06V22H0z" class="cls-2" transform="translate(860.93 642.49)"/>
                <path id="Rectangle_1440" d="M0 0H115.85V4.79H0z" class="cls-2" transform="translate(770.2 536.39)"/>
                <path id="Path_31823" d="M879.18 541.63c0 .19-22.51.35-50.27.35s-50.27-.16-50.27-.35 22.5-.34 50.27-.34 50.27.15 50.27.34z" class="cls-3"/>
            </g>
            <g id="Group_469" transform="translate(-146.501)">
                <path id="Rectangle_1429-2" d="M0 0H100.71V191.14H0z" class="cls-2" transform="translate(777.77 541.02)"/>
                <path id="Rectangle_1430-2" d="M0 0H47.22V191.14H0z" class="cls-3" transform="translate(831.26 541.02)"/>
                <path id="Rectangle_1431-2" d="M0 0H9.06V22H0z" class="cls-4" transform="translate(798.88 559)"/>
                <path id="Rectangle_1432-2" d="M0 0H9.06V22H0z" class="cls-4" transform="translate(798.88 645.11)"/>
                <path id="Path_31821-2" d="M831.26 589.63c0 .19-12 .35-26.75.35s-26.74-.16-26.74-.35 12-.34 26.74-.34 26.75.16 26.75.34z" class="cls-4"/>
                <path id="Rectangle_1433-2" d="M0 0H9.06V22H0z" class="cls-4" transform="translate(798.88 602.38)"/>
                <path id="Path_31822-2" d="M831.26 633c0 .19-12 .35-26.75.35s-26.74-.16-26.74-.35 12-.34 26.74-.34 26.75.16 26.75.34z" class="cls-4"/>
                <path id="Rectangle_1434-2" d="M0 0H9.06V22H0z" class="cls-2" transform="translate(841.29 559)"/>
                <path id="Rectangle_1435-2" d="M0 0H9.06V22H0z" class="cls-2" transform="translate(860.93 559)"/>
                <path id="Rectangle_1436-2" d="M0 0H9.06V22H0z" class="cls-2" transform="translate(841.29 600.75)"/>
                <path id="Rectangle_1437-2" d="M0 0H9.06V22H0z" class="cls-2" transform="translate(860.93 600.75)"/>
                <path id="Rectangle_1438-2" d="M0 0H9.06V22H0z" class="cls-2" transform="translate(841.29 642.49)"/>
                <path id="Rectangle_1439-2" d="M0 0H9.06V22H0z" class="cls-2" transform="translate(860.93 642.49)"/>
                <path id="Rectangle_1440-2" d="M0 0H115.85V4.79H0z" class="cls-2" transform="translate(770.2 536.39)"/>
                <path id="Path_31823-2" d="M879.18 541.63c0 .19-22.51.35-50.27.35s-50.27-.16-50.27-.35 22.5-.34 50.27-.34 50.27.15 50.27.34z" class="cls-3"/>
            </g>
            <g id="Group_416">
                <path id="Rectangle_1441" d="M0 0H90.16V118.92H0z" class="cls-3" transform="translate(711.58 612.7)"/>
                <path id="Rectangle_1442" d="M0 0H42.28V118.92H0z" class="cls-2" transform="translate(759.47 612.7)"/>
                <path id="Rectangle_1443" d="M0 0H8.11V19.7H0z" class="cls-4" transform="translate(730.49 628.8)"/>
                <path id="Rectangle_1444" d="M0 0H8.11V19.7H0z" class="cls-4" transform="translate(730.49 705.88)"/>
                <path id="Path_31824" d="M759.47 656.22c0 .23-10.72.4-23.94.4s-23.95-.17-23.95-.4 10.72-.4 23.95-.4 23.94.18 23.94.4z" class="cls-4"/>
                <path id="Rectangle_1445" d="M0 0H8.11V19.7H0z" class="cls-4" transform="translate(730.49 667.63)"/>
                <path id="Path_31825" d="M759.47 695.06c0 .22-10.72.4-23.94.4s-23.95-.18-23.95-.4 10.72-.4 23.95-.4 23.94.18 23.94.4z" class="cls-4"/>
                <path id="Rectangle_1446" d="M0 0H8.11V19.7H0z" class="cls-4" transform="translate(768.45 628.8)"/>
                <path id="Rectangle_1447" d="M0 0H8.11V19.7H0z" class="cls-4" transform="translate(786.03 628.8)"/>
                <path id="Rectangle_1448" d="M0 0H8.11V19.7H0z" class="cls-4" transform="translate(768.45 666.17)"/>
                <path id="Rectangle_1449" d="M0 0H8.11V19.7H0z" class="cls-4" transform="translate(786.03 666.17)"/>
                <path id="Rectangle_1450" d="M0 0H8.11V19.7H0z" class="cls-4" transform="translate(768.45 703.55)"/>
                <path id="Rectangle_1451" d="M0 0H8.11V19.7H0z" class="cls-4" transform="translate(786.03 703.55)"/>
                <path id="Rectangle_1452" d="M0 0H103.72V4.29H0z" class="cls-2" transform="translate(704.8 608.56)"/>
                <path id="Path_31826" d="M802.37 613.25c0 .22-20.15.4-45 .4s-45-.18-45-.4 20.15-.4 45-.4 45 .15 45 .4z" class="cls-3"/>
            </g>
            <g id="Group_468" transform="translate(-146.501)">
                <path id="Rectangle_1441-2" d="M0 0H90.16V118.92H0z" class="cls-3" transform="translate(711.58 612.7)"/>
                <path id="Rectangle_1442-2" d="M0 0H42.28V118.92H0z" class="cls-2" transform="translate(759.47 612.7)"/>
                <path id="Rectangle_1443-2" d="M0 0H8.11V19.7H0z" class="cls-4" transform="translate(730.49 628.8)"/>
                <path id="Rectangle_1444-2" d="M0 0H8.11V19.7H0z" class="cls-4" transform="translate(730.49 705.88)"/>
                <path id="Path_31824-2" d="M759.47 656.22c0 .23-10.72.4-23.94.4s-23.95-.17-23.95-.4 10.72-.4 23.95-.4 23.94.18 23.94.4z" class="cls-4"/>
                <path id="Rectangle_1445-2" d="M0 0H8.11V19.7H0z" class="cls-4" transform="translate(730.49 667.63)"/>
                <path id="Path_31825-2" d="M759.47 695.06c0 .22-10.72.4-23.94.4s-23.95-.18-23.95-.4 10.72-.4 23.95-.4 23.94.18 23.94.4z" class="cls-4"/>
                <path id="Rectangle_1446-2" d="M0 0H8.11V19.7H0z" class="cls-4" transform="translate(768.45 628.8)"/>
                <path id="Rectangle_1447-2" d="M0 0H8.11V19.7H0z" class="cls-4" transform="translate(786.03 628.8)"/>
                <path id="Rectangle_1448-2" d="M0 0H8.11V19.7H0z" class="cls-4" transform="translate(768.45 666.17)"/>
                <path id="Rectangle_1449-2" d="M0 0H8.11V19.7H0z" class="cls-4" transform="translate(786.03 666.17)"/>
                <path id="Rectangle_1450-2" d="M0 0H8.11V19.7H0z" class="cls-4" transform="translate(768.45 703.55)"/>
                <path id="Rectangle_1451-2" d="M0 0H8.11V19.7H0z" class="cls-4" transform="translate(786.03 703.55)"/>
                <path id="Rectangle_1452-2" d="M0 0H103.72V4.29H0z" class="cls-2" transform="translate(704.8 608.56)"/>
                <path id="Path_31826-2" d="M802.37 613.25c0 .22-20.15.4-45 .4s-45-.18-45-.4 20.15-.4 45-.4 45 .15 45 .4z" class="cls-3"/>
            </g>
            <g id="Group_470" transform="translate(-218.501)">
                <path id="Rectangle_1441-3" d="M0 0H90.16V118.92H0z" class="cls-3" transform="translate(711.58 612.7)"/>
                <path id="Rectangle_1442-3" d="M0 0H42.28V118.92H0z" class="cls-2" transform="translate(759.47 612.7)"/>
                <path id="Rectangle_1443-3" d="M0 0H8.11V19.7H0z" class="cls-4" transform="translate(730.49 628.8)"/>
                <path id="Rectangle_1444-3" d="M0 0H8.11V19.7H0z" class="cls-4" transform="translate(730.49 705.88)"/>
                <path id="Path_31824-3" d="M759.47 656.22c0 .23-10.72.4-23.94.4s-23.95-.17-23.95-.4 10.72-.4 23.95-.4 23.94.18 23.94.4z" class="cls-4"/>
                <path id="Rectangle_1445-3" d="M0 0H8.11V19.7H0z" class="cls-4" transform="translate(730.49 667.63)"/>
                <path id="Path_31825-3" d="M759.47 695.06c0 .22-10.72.4-23.94.4s-23.95-.18-23.95-.4 10.72-.4 23.95-.4 23.94.18 23.94.4z" class="cls-4"/>
                <path id="Rectangle_1446-3" d="M0 0H8.11V19.7H0z" class="cls-4" transform="translate(768.45 628.8)"/>
                <path id="Rectangle_1447-3" d="M0 0H8.11V19.7H0z" class="cls-4" transform="translate(786.03 628.8)"/>
                <path id="Rectangle_1448-3" d="M0 0H8.11V19.7H0z" class="cls-4" transform="translate(768.45 666.17)"/>
                <path id="Rectangle_1449-3" d="M0 0H8.11V19.7H0z" class="cls-4" transform="translate(786.03 666.17)"/>
                <path id="Rectangle_1450-3" d="M0 0H8.11V19.7H0z" class="cls-4" transform="translate(768.45 703.55)"/>
                <path id="Rectangle_1451-3" d="M0 0H8.11V19.7H0z" class="cls-4" transform="translate(786.03 703.55)"/>
                <path id="Rectangle_1452-3" d="M0 0H103.72V4.29H0z" class="cls-2" transform="translate(704.8 608.56)"/>
                <path id="Path_31826-3" d="M802.37 613.25c0 .22-20.15.4-45 .4s-45-.18-45-.4 20.15-.4 45-.4 45 .15 45 .4z" class="cls-3"/>
            </g>
            <g id="Group_417">
                <path id="Rectangle_1453" d="M0 0H100.71V191.14H0z" class="cls-2" transform="translate(1227.32 541.02)"/>
                <path id="Rectangle_1454" d="M0 0H47.22V191.14H0z" class="cls-3" transform="translate(1280.81 541.02)"/>
                <path id="Rectangle_1455" d="M0 0H9.06V22H0z" class="cls-4" transform="translate(1248.44 559)"/>
                <path id="Rectangle_1456" d="M0 0H9.06V22H0z" class="cls-4" transform="translate(1248.44 645.11)"/>
                <path id="Path_31827" d="M1280.81 589.63c0 .19-12 .35-26.74.35s-26.75-.16-26.75-.35 12-.34 26.75-.34 26.74.16 26.74.34z" class="cls-4"/>
                <path id="Rectangle_1457" d="M0 0H9.06V22H0z" class="cls-4" transform="translate(1248.44 602.38)"/>
                <path id="Path_31828" d="M1280.81 633c0 .19-12 .35-26.74.35s-26.75-.16-26.75-.35 12-.34 26.75-.34 26.74.16 26.74.34z" class="cls-4"/>
                <path id="Rectangle_1458" d="M0 0H9.06V22H0z" class="cls-2" transform="translate(1290.84 559)"/>
                <path id="Rectangle_1459" d="M0 0H9.06V22H0z" class="cls-2" transform="translate(1310.49 559)"/>
                <path id="Rectangle_1460" d="M0 0H9.06V22H0z" class="cls-2" transform="translate(1290.84 600.75)"/>
                <path id="Rectangle_1461" d="M0 0H9.06V22H0z" class="cls-2" transform="translate(1310.49 600.75)"/>
                <path id="Rectangle_1462" d="M0 0H9.06V22H0z" class="cls-2" transform="translate(1290.84 642.49)"/>
                <path id="Rectangle_1463" d="M0 0H9.06V22H0z" class="cls-2" transform="translate(1310.49 642.49)"/>
                <path id="Rectangle_1464" d="M0 0H115.85V4.79H0z" class="cls-2" transform="translate(1219.75 536.39)"/>
                <path id="Path_31829" d="M1328.74 541.63c0 .19-22.51.35-50.27.35s-50.28-.16-50.28-.35 22.51-.34 50.28-.34 50.27.15 50.27.34z" class="cls-3"/>
            </g>
            <g id="Group_418">
                <path id="Rectangle_1465" d="M0 0H90.16V118.92H0z" class="cls-3" transform="translate(1166.69 612.7)"/>
                <path id="Rectangle_1466" d="M0 0H42.28V118.92H0z" class="cls-2" transform="translate(1214.57 612.7)"/>
                <path id="Rectangle_1467" d="M0 0H8.11V19.7H0z" class="cls-4" transform="translate(1185.59 628.8)"/>
                <path id="Rectangle_1468" d="M0 0H8.11V19.7H0z" class="cls-4" transform="translate(1185.59 705.88)"/>
                <path id="Path_31830" d="M1214.57 656.22c0 .23-10.72.4-23.94.4s-23.94-.17-23.94-.4 10.71-.4 23.94-.4 23.94.18 23.94.4z" class="cls-4"/>
                <path id="Rectangle_1469" d="M0 0H8.11V19.7H0z" class="cls-4" transform="translate(1185.59 667.63)"/>
                <path id="Path_31831" d="M1214.57 695.06c0 .22-10.72.4-23.94.4s-23.94-.18-23.94-.4 10.71-.4 23.94-.4 23.94.18 23.94.4z" class="cls-4"/>
                <path id="Rectangle_1470" d="M0 0H8.11V19.7H0z" class="cls-4" transform="translate(1223.55 628.8)"/>
                <path id="Rectangle_1471" d="M0 0H8.11V19.7H0z" class="cls-4" transform="translate(1241.14 628.8)"/>
                <path id="Rectangle_1472" d="M0 0H8.11V19.7H0z" class="cls-4" transform="translate(1223.55 666.17)"/>
                <path id="Rectangle_1473" d="M0 0H8.11V19.7H0z" class="cls-4" transform="translate(1241.14 666.17)"/>
                <path id="Rectangle_1474" d="M0 0H8.11V19.7H0z" class="cls-4" transform="translate(1223.55 703.55)"/>
                <path id="Rectangle_1475" d="M0 0H8.11V19.7H0z" class="cls-4" transform="translate(1241.14 703.55)"/>
                <path id="Rectangle_1476" d="M0 0H103.72V4.29H0z" class="cls-2" transform="translate(1159.91 608.56)"/>
                <path id="Path_31832" d="M1257.48 613.25c0 .22-20.15.4-45 .4s-45-.18-45-.4 20.15-.4 45-.4 45 .15 45 .4z" class="cls-3"/>
            </g>
            <g id="Group_419">
                <path id="Rectangle_1477" d="M0 0H90.16V118.92H0z" class="cls-3" transform="translate(1085.52 612.7)"/>
                <path id="Rectangle_1478" d="M0 0H42.28V118.92H0z" class="cls-2" transform="translate(1133.41 612.7)"/>
                <path id="Rectangle_1479" d="M0 0H8.11V19.7H0z" class="cls-4" transform="translate(1104.43 628.8)"/>
                <path id="Rectangle_1480" d="M0 0H8.11V19.7H0z" class="cls-4" transform="translate(1104.43 705.88)"/>
                <path id="Path_31833" d="M1133.41 656.22c0 .23-10.72.4-23.94.4s-24-.17-24-.4 10.72-.4 24-.4 23.94.18 23.94.4z" class="cls-4"/>
                <path id="Rectangle_1481" d="M0 0H8.11V19.7H0z" class="cls-4" transform="translate(1104.43 667.63)"/>
                <path id="Path_31834" d="M1133.41 695.06c0 .22-10.72.4-23.94.4s-24-.18-24-.4 10.72-.4 24-.4 23.94.18 23.94.4z" class="cls-4"/>
                <path id="Rectangle_1482" d="M0 0H8.11V19.7H0z" class="cls-4" transform="translate(1142.39 628.8)"/>
                <path id="Rectangle_1483" d="M0 0H8.11V19.7H0z" class="cls-4" transform="translate(1159.97 628.8)"/>
                <path id="Rectangle_1484" d="M0 0H8.11V19.7H0z" class="cls-4" transform="translate(1142.39 666.17)"/>
                <path id="Rectangle_1485" d="M0 0H8.11V19.7H0z" class="cls-4" transform="translate(1159.97 666.17)"/>
                <path id="Rectangle_1486" d="M0 0H8.11V19.7H0z" class="cls-4" transform="translate(1142.39 703.55)"/>
                <path id="Rectangle_1487" d="M0 0H8.11V19.7H0z" class="cls-4" transform="translate(1159.97 703.55)"/>
                <path id="Rectangle_1488" d="M0 0H103.72V4.29H0z" class="cls-2" transform="translate(1078.74 608.56)"/>
                <path id="Path_31835" d="M1176.31 613.25c0 .22-20.15.4-45 .4s-45-.18-45-.4 20.15-.4 45-.4 45 .15 45 .4z" class="cls-3"/>
            </g>
            <g id="Group_420">
                <path id="Path_31844" d="M1152.73 598.45c-29.66-20.72-36.39-59.18-35.21-93.75.19-5.77-.44-11.86 2.3-16.92s9.15-8.52 14.32-6.09c4.29 2 6.15 7 8.55 11.12a33.69 33.69 0 0 0 13.54 12.93c3.67 1.91 8.22 3.07 11.84 1.07 5-2.74 5.57-9.62 5.53-15.36q-.09-16.05-.2-32.09c0-5.74-.05-11.6 1.73-17.05s5.73-10.51 11.19-12 12.22 1.62 13.37 7.24c.48 2.34 0 4.77.16 7.15s1.27 5 3.53 5.68 4.59-.95 6.31-2.63c5.92-5.8 9.94-13.26 13.7-20.69s7.4-15 12.78-21.34 12.81-11.33 21-11.8 17 4.61 19 12.68-2.63 16.3-7.77 22.85a128.164 128.164 0 0 1-26.68 25.43c-1.81 1.28-3.77 2.67-4.46 4.79-1.25 3.83 2.38 7.63 6.16 8.89 4.28 1.42 8.92 1 13.39 1.51s9.33 2.5 11 6.73c2.35 5.86-2.56 12-7.38 16a110.118 110.118 0 0 1-32.48 18.75c-4.23 1.54-8.67 2.9-12.07 5.86s-5.46 8.13-3.41 12.17 7.34 5.34 11.76 4.52 8.38-3.22 12.6-4.81c7.89-3 18.07-2.43 23.12 4.39 3.32 4.48 3.62 10.72 1.94 16.06s-5.09 9.94-8.7 14.18c-12.65 14.83-28.83 26.77-47.13 33.12s-35.25 8.06-53.43 1.41" class="cls-4"/>
                <path id="Path_31845" d="M1152.28 624.08a251.87 251.87 0 0 1 9.37-47.3c5.09-17.45 12.25-36.11 20.42-55.37l6.09-14.24c2-4.67 4-9.3 6.24-13.71a257.8 257.8 0 0 1 14.27-24.6c4.92-7.6 9.87-14.64 14.54-21.18s9.16-12.55 13.48-17.86a204.667 204.667 0 0 1 22.23-23.49c2.83-2.56 5.09-4.47 6.64-5.74l1.77-1.44a6.141 6.141 0 0 1 .63-.47 4.148 4.148 0 0 1-.56.55l-1.7 1.52c-1.5 1.33-3.72 3.29-6.51 5.89a217.164 217.164 0 0 0-21.92 23.66c-4.27 5.32-8.71 11.35-13.35 17.9s-9.55 13.6-14.43 21.2a260.229 260.229 0 0 0-14.17 24.53c-2.21 4.39-4.18 9-6.19 13.66s-4 9.43-6.09 14.24c-8.16 19.24-15.33 37.85-20.46 55.23a256.6 256.6 0 0 0-9.56 47.09" class="cls-2"/>
                <path id="Path_31846" d="M1194.7 493.42a12.286 12.286 0 0 1-.56-2.45c-.3-1.59-.66-3.89-1.06-6.75-.81-5.72-1.66-13.65-2.57-22.39s-1.87-16.65-2.76-22.34c-.44-2.84-.82-5.14-1.11-6.72a11.916 11.916 0 0 1-.32-2.5 11.5 11.5 0 0 1 .73 2.41c.4 1.56.9 3.85 1.43 6.68 1.09 5.68 2.17 13.59 3.08 22.35s1.66 16.45 2.26 22.41c.29 2.7.53 5 .73 6.79a10.566 10.566 0 0 1 .15 2.51z" class="cls-2"/>
                <path id="Path_31847" d="M1268.5 479.63a16.9 16.9 0 0 1-3 .35c-1.89.17-4.63.4-8 .79-6.76.73-16.06 2.06-26.25 4s-19.35 4.08-25.93 5.83c-3.3.85-5.94 1.61-7.78 2.12a16 16 0 0 1-2.88.71 16.138 16.138 0 0 1 2.76-1.11c1.8-.63 4.42-1.5 7.7-2.45 6.55-1.94 15.71-4.21 25.93-6.16a262.339 262.339 0 0 1 26.38-3.68c3.4-.3 6.16-.41 8.06-.45a15.322 15.322 0 0 1 3.01.05z" class="cls-2"/>
                <path id="Path_31848" d="M1162.56 575.42a3.859 3.859 0 0 1-.51-.9c-.34-.72-.75-1.6-1.26-2.67-1.08-2.32-2.57-5.73-4.34-10-3.56-8.46-8.11-20.29-13-33.41s-9.28-25-12.66-33.51l-4-10.07c-.43-1.1-.79-2-1.08-2.75a3.266 3.266 0 0 1-.31-1 4.509 4.509 0 0 1 .5.9c.34.73.76 1.61 1.27 2.67 1.08 2.33 2.56 5.73 4.34 10 3.56 8.45 8.11 20.28 13 33.41s9.28 25 12.66 33.5c1.65 4.14 3 7.54 4 10.07l1.08 2.75a3.808 3.808 0 0 1 .31 1.01z" class="cls-2"/>
                <path id="Path_31849" d="M1260.62 543.82a4.49 4.49 0 0 1-1 .4l-2.85.95-10.5 3.4c-8.87 2.88-21.07 7-34.54 11.55s-25.73 8.57-34.66 11.26c-4.46 1.35-8.08 2.41-10.6 3.08l-2.91.76a3.443 3.443 0 0 1-1 .2 3.929 3.929 0 0 1 1-.4l2.85-1 10.5-3.4c8.87-2.87 21.07-7 34.55-11.55s25.72-8.57 34.65-11.26c4.46-1.35 8.08-2.4 10.6-3.08l2.91-.76a3.582 3.582 0 0 1 1-.15z" class="cls-2"/>
            </g>
            <path id="Path_31850" d="M1327 734.26c0 .21-144.38.38-322.44.38s-322.46-.17-322.46-.38 144.35-.39 322.46-.39 322.44.13 322.44.39z" class="cls-5"/>
            <g id="Group_421">
                <path id="Path_31851" fill="#36cc96" d="M843.11 667.48c20.77-25.73 16.9-61.21 7.08-91.27-1.64-5-2.63-10.52-6.33-14.27s-10.2-5.15-14.12-1.71c-3.25 2.87-3.62 7.72-4.68 11.95a30.851 30.851 0 0 1-8.59 14.82c-2.74 2.61-6.44 4.79-10.13 3.95-5.07-1.14-7.34-7-8.76-12.08q-4-14.12-8-28.23c-1.43-5.05-2.9-10.2-5.85-14.53s-7.71-7.77-12.89-7.72-10.31 4.53-9.89 9.75c.17 2.18 1.2 4.19 1.67 6.32s.16 4.73-1.66 5.89-4.27.32-6.2-.71c-6.68-3.59-12.1-9.12-17.29-14.68s-10.32-11.31-16.65-15.49-14.13-6.69-21.46-5-13.74 8.36-13.51 16 6.46 13.65 12.64 18.09A117.073 117.073 0 0 0 728.38 564c1.92.67 4 1.39 5.14 3.08 2.07 3-.15 7.3-3.14 9.37-3.4 2.34-7.59 3.13-11.38 4.73s-7.55 4.56-8 8.71c-.58 5.75 5.29 9.9 10.56 12.21a100.34 100.34 0 0 0 33.28 8.2c4.1.28 8.35.34 12.09 2.08s6.86 5.75 6.09 9.82-5.09 6.56-9.18 7-8.18-.7-12.28-1c-7.69-.61-16.49 2.46-19.19 9.73-1.78 4.78-.45 10.33 2.38 14.59s7 7.44 11.25 10.24c14.87 9.81 32.12 16.18 49.8 17.1s33-1.89 47.27-12.35" transform="translate(-80.331 126.476) rotate(-7)"/>
                <path id="Path_31852" d="M850 689.87a230.257 230.257 0 0 0-20.26-39.15c-8.91-14-19.94-28.59-32-43.43l-9-10.95c-3-3.59-5.89-7.14-9-10.45a235.158 235.158 0 0 0-18.78-18c-6.25-5.43-12.38-10.35-18.15-14.91s-11.24-8.69-16.38-12.25a185.635 185.635 0 0 0-25.49-15c-3.13-1.53-5.61-2.63-7.29-3.36l-1.92-.81a4.668 4.668 0 0 0-.67-.25 3.077 3.077 0 0 0 .63.34l1.88.9c1.66.78 4.1 1.94 7.21 3.52a195.61 195.61 0 0 1 25.26 15.2c5.11 3.59 10.54 7.74 16.28 12.32s11.84 9.52 18.06 15a237.487 237.487 0 0 1 18.68 17.93c3.05 3.29 6 6.82 8.91 10.42l9 10.95c12.05 14.83 23.08 29.34 32 43.29a234.278 234.278 0 0 1 20.37 38.92" class="cls-5" transform="translate(-80.331 126.476) rotate(-7)"/>
                <path id="Path_31853" d="M779.55 585.93a11.581 11.581 0 0 0-.13-2.29c-.14-1.47-.41-3.59-.78-6.2-.74-5.22-2-12.4-3.44-20.31s-2.59-15.13-3.2-20.31c-.34-2.61-.59-4.73-.75-6.19a10.07 10.07 0 0 0-.35-2.27 10.234 10.234 0 0 0 0 2.3c0 1.47.19 3.6.44 6.23.49 5.26 1.55 12.48 3 20.4l3.66 20.26c.43 2.44.8 4.49 1.09 6.14a10.242 10.242 0 0 0 .46 2.24z" class="cls-5" transform="translate(-80.331 126.476) rotate(-7)"/>
                <path id="Path_31854" d="M711.25 592.59a15.541 15.541 0 0 0 2.67-.44c1.71-.33 4.17-.83 7.24-1.34 6.12-1.08 14.63-2.28 24.07-3.18s18-1.33 24.24-1.47c3.11-.09 5.63-.1 7.37-.11a13.835 13.835 0 0 0 2.71-.12 14.89 14.89 0 0 0-2.7-.26c-1.74-.1-4.27-.2-7.39-.2-6.24 0-14.86.3-24.33 1.19a237.192 237.192 0 0 0-24.1 3.47c-3.06.6-5.51 1.2-7.19 1.65a14.007 14.007 0 0 0-2.59.81z" class="cls-5" transform="translate(-80.331 126.476) rotate(-7)"/>
                <path id="Path_31855" d="M828.62 649.76a3.12 3.12 0 0 0 .22-.92c.12-.72.26-1.6.43-2.66.36-2.32.8-5.68 1.28-9.85 1-8.33 2-19.87 2.88-32.63s1.8-24.3 2.6-32.63c.4-4.06.73-7.39 1-9.87.1-1.08.18-2 .25-2.69a4.061 4.061 0 0 0 0-1 3.579 3.579 0 0 0-.22.92c-.11.72-.25 1.6-.42 2.66-.37 2.32-.8 5.68-1.29 9.85-1 8.33-2 19.87-2.88 32.63s-1.8 24.3-2.6 32.63c-.4 4.06-.73 7.4-1 9.87-.1 1.08-.19 2-.25 2.69a3.817 3.817 0 0 0 0 1z" class="cls-5" transform="translate(-80.331 126.476) rotate(-7)"/>
                <path id="Path_31856" d="M734.49 646.94a3.339 3.339 0 0 0 1 .11l2.74.11 10.08.32c8.52.27 20.28.78 33.27 1.36s24.77 1 33.29 1.07c4.26.05 7.71.06 10.09 0l2.75-.07a4 4 0 0 0 1-.09 3.821 3.821 0 0 0-1-.11l-2.75-.11-10.08-.32c-8.52-.27-20.27-.78-33.27-1.36s-24.76-1-33.29-1.07h-10.09l-2.74.07a4 4 0 0 0-1 .09z" class="cls-5" transform="translate(-80.331 126.476) rotate(-7)"/>
            </g>
            <g id="Group_422">
                <path id="Path_31857" d="M1126.5 241.52c4.53-3.51 6.55-9.73 5.61-15.38a21.6 21.6 0 0 0-9.32-13.88c-2.18-1.5-4.89-2.69-7.43-1.94a7 7 0 0 0-4.51 5.43 14.129 14.129 0 0 0 .85 7.29c2.78 8 6.94 15.28 14.8 18.48" class="cls-7"/>
                <path id="Path_31858" d="M1133.93 255.22a38.12 38.12 0 0 1 33.69-8.82c3 .69 6.37 2.28 6.86 5.31s-2.22 5.62-4.88 7.16a32.57 32.57 0 0 1-36-2.89" class="cls-7"/>
                <path id="Path_31860" d="M1117.28 270.19c.64-1.17 1.7-2 2.75-4.15a70.13 70.13 0 0 0 6.2-17.67c1.34-7.28.43-14.15-1.38-18.64a23 23 0 0 0-2.66-5 6.319 6.319 0 0 0-1.36-1.59c-.19.12 1.76 2.43 3.28 6.91a36.689 36.689 0 0 1 1 18.17 80.877 80.877 0 0 1-5.82 17.55" class="cls-5"/>
                <path id="Path_31859" d="M1176.91 191.77a19.007 19.007 0 0 0-14.74 2.54 33.642 33.642 0 0 0-10.54 11c-5.31 8.38-7.18 19.65-7.41 29.56 11-.44 20.41-9.09 24.91-13.78 7.1-7.41 15.44-25.12 7.78-29.33" class="cls-7"/>
                <path id="Path_31861" d="M1117.18 270.33l5.73-7.4c4.82-6.25 11.51-14.87 19-24.3s14.42-17.86 19.44-23.95c2.4-3 4.4-5.38 5.92-7.24a19.737 19.737 0 0 0 2.07-2.75 21 21 0 0 0-2.4 2.47c-1.49 1.63-3.61 4-6.2 7-5.17 6-12.19 14.34-19.7 23.77s-14.11 18.14-18.78 24.52c-2.33 3.19-4.2 5.79-5.45 7.61" class="cls-5"/>
                <path id="Path_31862" d="M1160.75 252.91a6.89 6.89 0 0 0-1.91-.58 14.745 14.745 0 0 0-2.3-.44 25.709 25.709 0 0 0-3.09-.33 39.519 39.519 0 0 0-8.09.31A42.91 42.91 0 0 0 1127 259a39.723 39.723 0 0 0-6.17 5.24 25 25 0 0 0-2 2.33 15.572 15.572 0 0 0-1.4 1.88c-.72 1.07-.62 1.57-.55 1.61a37.762 37.762 0 0 1 4.55-5.27 45.253 45.253 0 0 1 32.09-12.48c4.42.15 7.19.82 7.23.6z" class="cls-5"/>
            </g>
            <path id="Path_31863" fill="#c3dbe5" d="M1075.4 734.07l-196-.9c-23.57-.11-42.59-19.83-42.49-44l2.14-504.91c.1-24.24 19.31-43.8 42.89-43.69l196 .9c23.57.11 42.59 19.83 42.49 44.05l-2.14 504.91c-.09 24.19-19.29 43.75-42.89 43.64z"/>
            <path id="Path_31866" d="M1081.86 158.09l-39.19-.18a9.74 9.74 0 0 0-9.56 9.91v7.11a9.74 9.74 0 0 1-9.56 9.9l-76.4-.35a9.75 9.75 0 0 1-9.48-10v-7.11a9.76 9.76 0 0 0-9.48-10l-13.78-.06-34.31-.16a30.84 30.84 0 0 0-31 30.71L847 682.57a30.85 30.85 0 0 0 30.7 31l201.76.93a30.85 30.85 0 0 0 31-30.71l2.09-494.71a30.85 30.85 0 0 0-30.69-30.99z" class="cls-9"/>
            <path id="Path_31867" d="M946.91 497.67l-98.86-56.92-.75 100.53 12.03 6.95z" class="cls-10"/>
            <path id="Path_31872" d="M847.53 563.53l10.44-6.02 65.69 37.92-76.07 43.93z" class="cls-3"/>
            <path id="Path_31874" d="M1070.86 451.43l-65.69-37.93-.09.05-22.41-12.94-.06.03-65.02-37.53-69.38 40.05-.12 20.94 47.62 27.5.06-.04 65.02 37.54.08-.05L983.29 502z" class="cls-3"/>
            <path id="Path_31983" d="M975.68 492.49h37.58l79.22-45.35-123.41-70.83-32.29 32.38z" class="cls-11"/>
            <g id="Group_374">
                <path id="Path_31868" d="M946.91 497.67l-98.86-56.92-.75 100.53 12.03 6.95z" class="cls-12"/>
                <g id="Group_373">
                    <path id="Path_31893" d="M861 498.1v17.69l19 9.36v-18.27z" class="cls-2"/>
                    <path id="Path_31894" d="M904.15 495.29l-24.23 11.59v18.27l24.23-13.53z" class="cls-2"/>
                    <path id="Path_31895" d="M860.95 498.1l24.02-11.63 19.18 8.82-24.23 11.59z" class="cls-4"/>
                    <path id="Path_31896" d="M867.69 510.8v8.36l4.39 1.99v-8z" class="cls-9"/>
                </g>
            </g>
            <g id="Group_397">
                <path id="Path_31869" d="M1082.01 449.33l-65.69-37.93 87.57-50.56 8.8 5.08-1.14 66.36z" class="cls-3"/>
                <g id="Group_396">
                    <path id="Path_31897" d="M1052.9 399.27V417l19 9.36v-18.31z" class="cls-4"/>
                    <path id="Path_31898" d="M1096.1 396.46l-24.23 11.59v18.27l24.23-13.52z" class="cls-2"/>
                    <path id="Path_31899" d="M1052.9 399.27l24.02-11.63 19.18 8.82-24.23 11.59z" class="cls-4"/>
                    <path id="Path_31900" d="M1059.64 411.97v8.36l4.39 1.99v-8z" class="cls-2"/>
                </g>
            </g>
            <g id="Group_410">
                <path id="Path_31923" d="M1066.74 444.86a4.31 4.31 0 1 1-1.262-3.058 4.32 4.32 0 0 1 1.262 3.058z" class="cls-2"/>
                <path id="Path_31924" d="M1062.42 454.33c-.21 0-.38-2.12-.38-4.74s.17-4.73.38-4.73.38 2.12.38 4.73-.17 4.74-.38 4.74z" class="cls-2"/>
            </g>
            <path id="Polygon_1" fill="url(#linear-gradient)" d="M19.192 0l6.4 11.108-6.4 11.108H6.4L0 11.108 6.4 0z" opacity="0.701" transform="translate(915.79 434.335) rotate(-30)"/>
            <g id="Group_413">
                <path id="Path_31929" d="M886.87 465.63a4.31 4.31 0 1 1-1.262-3.058 4.32 4.32 0 0 1 1.262 3.058z" class="cls-2"/>
                <path id="Path_31930" d="M882.55 475.1c-.21 0-.38-2.12-.38-4.73s.17-4.74.38-4.74.38 2.12.38 4.74-.17 4.73-.38 4.73z" class="cls-2"/>
            </g>
            <g id="Group_395">
                <path id="Path_31877" d="M1111.34 478.96l-28.52-16.46-87.57 50.56 65.69 37.93.09-.05 49.8 28.75z" class="cls-3"/>
                <g id="Group_391">
                    <path id="Path_31880" d="M1075.35 534.75l-.35-17.25 36.1 17.49-.24 17.63z" class="cls-4"/>
                    <path id="Path_31881" d="M1075 517.5l36.25-18.12-.15 35.61z" class="cls-4"/>
                    <path id="Path_31882" d="M1080.87 524.95v8.37l4.4 1.98v-8z" class="cls-9"/>
                    <path id="Path_31883" d="M1087.9 528.05v8.37l4.39 1.98v-7.99z" class="cls-9"/>
                </g>
                <g id="Group_390">
                    <path id="Path_31889" d="M1027.8 499.66v17.69l19 9.36v-18.27z" class="cls-2"/>
                    <path id="Path_31890" d="M1071 496.85l-24.24 11.59v18.27l24.24-13.53z" class="cls-2"/>
                    <path id="Path_31891" d="M1027.8 499.66l24.02-11.63 19.18 8.82-24.24 11.59z" class="cls-4"/>
                    <path id="Path_31892" d="M1034.54 512.36v8.36l4.39 1.99v-8z" class="cls-9"/>
                </g>
                <g id="Group_393">
                    <path id="Path_31933" d="M1071.86 477a4.31 4.31 0 1 1-1.262-3.058 4.32 4.32 0 0 1 1.262 3.058z" class="cls-2"/>
                    <path id="Path_31934" d="M1067.54 486.45c-.21 0-.38-2.12-.38-4.74s.17-4.73.38-4.73.38 2.12.38 4.73-.17 4.74-.38 4.74z" class="cls-2"/>
                </g>
                <g id="Group_392">
                    <path id="Path_31935" d="M1068.75 522.57a4.32 4.32 0 1 1-4.32-4.32 4.32 4.32 0 0 1 4.32 4.32z" class="cls-2"/>
                    <path id="Path_31936" d="M1064.43 532c-.21 0-.38-2.12-.38-4.73s.17-4.74.38-4.74.38 2.12.38 4.74-.17 4.73-.38 4.73z" class="cls-2"/>
                </g>
                <g id="Group_394">
                    <path id="Path_31951" d="M1023.21 504.3a4.32 4.32 0 1 1-4.31-4.31 4.32 4.32 0 0 1 4.31 4.31z" class="cls-2"/>
                    <path id="Path_31952" d="M1018.9 513.78c-.21 0-.38-2.12-.38-4.74s.17-4.74.38-4.74.38 2.12.38 4.74-.17 4.74-.38 4.74z" class="cls-2"/>
                </g>
            </g>
            <g id="Group_384">
                <path id="Path_31875" d="M1089.89 691.66l-156.71-90.32-87.57 50.56 107.55 61.99 97.44.45z" class="cls-3"/>
                <g id="Group_380">
                    <path id="Path_31909" d="M887.1 638.29v22.18l40 23.54V661.1z" class="cls-2"/>
                    <path id="Path_31910" d="M974.76 635.26l-47.69 25.84v22.91l47.83-26.51z" class="cls-9"/>
                    <path id="Path_31911" d="M887.1 638.29l50.44-24.43 37.36 21.48-47.83 25.76z" class="cls-4"/>
                    <path id="Path_31912" d="M902.19 658.8v10.49l5.51 3.31v-10.37z" class="cls-9"/>
                    <path id="Path_31919" d="M944.29 652.07v22.18l40 23.54v-22.91z" class="cls-2"/>
                    <path id="Path_31920" d="M1014.65 658.52l-30.39 16.36v22.91l30.39-16.96z" class="cls-9"/>
                    <path id="Path_31921" d="M944.29 652.07l30.47-16.81 39.89 23.26-30.39 16.36z" class="cls-4"/>
                    <path id="Path_31922" d="M959.38 672.58v10.49l5.51 3.31v-10.37z" class="cls-9"/>
                </g>
                <g id="Group_381">
                    <path id="Path_31940" d="M1013.26 689.57a4.32 4.32 0 1 1-4.32-4.32 4.32 4.32 0 0 1 4.32 4.32z" class="cls-2"/>
                    <path id="Path_31941" d="M1008.94 699c-.21 0-.38-2.12-.38-4.74s.17-4.73.38-4.73.38 2.12.38 4.73-.17 4.74-.38 4.74z" class="cls-2"/>
                </g>
                <g id="Group_383">
                    <path id="Path_31942" d="M966.46 692.88a4.32 4.32 0 1 1-4.32-4.32 4.32 4.32 0 0 1 4.32 4.32z" class="cls-2"/>
                    <path id="Path_31943" d="M962.14 702.36c-.21 0-.38-2.13-.38-4.74s.17-4.74.38-4.74.38 2.12.38 4.74-.17 4.74-.38 4.74z" class="cls-2"/>
                </g>
                <g id="Group_382">
                    <path id="Path_31944" d="M1032 669.58a4.32 4.32 0 1 1-4.32-4.32 4.32 4.32 0 0 1 4.32 4.32z" class="cls-2"/>
                    <path id="Path_31945" d="M1027.67 679.05c-.21 0-.38-2.12-.38-4.73s.17-4.74.38-4.74.38 2.12.38 4.74-.17 4.73-.38 4.73z" class="cls-2"/>
                </g>
            </g>
            <g id="Group_389">
                <path id="Path_31876" d="M1110.86 591.73l-81.02-46.67-87.58 50.56 156.71 90.31 11.52-6.65z" class="cls-3"/>
                <g id="Group_386">
                    <path id="Path_31905" d="M996.81 575.67v22.18l40 23.54v-22.91z" class="cls-4"/>
                    <path id="Path_31906" d="M1067.17 582.12l-30.39 16.36v22.91l30.39-16.96z" class="cls-2"/>
                    <path id="Path_31907" d="M996.81 575.67l30.12-14.59 40.24 21.04-30.39 16.36z" class="cls-9"/>
                    <path id="Path_31908" d="M1011.9 596.18v10.49l5.51 3.31v-10.37z" class="cls-9"/>
                </g>
                <g id="Group_385">
                    <path id="Path_31913" d="M1051.96 538.39v88.59l24.94 12.9v-89.72z" class="cls-4"/>
                    <path id="Path_31914" d="M1070.38 529.88l-18.42 8.51 24.94 11.77 16.79-9.45z" class="cls-9"/>
                    <path id="Path_31915" d="M1076.9 550.16v89.72l15.19-8.18 1.6-90.99z" class="cls-2"/>
                </g>
                <g id="Group_387">
                    <circle id="Ellipse_3" cx="4.32" cy="4.32" r="4.32" class="cls-2" transform="translate(1087.15 638.02)"/>
                    <path id="Path_31939" d="M1091.47 651.81c-.22 0-.39-2.12-.39-4.74s.17-4.73.39-4.73.38 2.12.38 4.73-.17 4.74-.38 4.74z" class="cls-2"/>
                </g>
                <g id="Group_388">
                    <circle id="Ellipse_4" cx="4.32" cy="4.32" r="4.32" class="cls-2" transform="translate(982.61 579.56)"/>
                    <path id="Path_31946" d="M986.93 593.35c-.21 0-.38-2.12-.38-4.74s.17-4.73.38-4.73.39 2.12.39 4.73-.17 4.74-.39 4.74z" class="cls-2"/>
                </g>
            </g>
            <g id="Group_379">
                <path id="Path_31873" d="M931.32 590.7l-65.69-37.93 87.57-50.56 65.7 37.93z" class="cls-3"/>
                <g id="Group_375">
                    <path id="Path_31901" d="M914.33 526.46v17.69l19 9.35v-18.26z" class="cls-2"/>
                    <path id="Path_31902" d="M957.54 523.65l-24.24 11.59v18.26l24.24-13.52z" class="cls-3"/>
                    <path id="Path_31903" d="M914.33 526.46l24.03-11.63 19.18 8.82-24.24 11.59z" class="cls-4"/>
                    <path id="Path_31904" d="M921.07 539.15v8.37l4.4 1.98v-7.99z" class="cls-9"/>
                </g>
                <g id="Group_377">
                    <path id="Path_31937" d="M951.23 561.82a4.32 4.32 0 1 1-4.32-4.31 4.32 4.32 0 0 1 4.32 4.31z" class="cls-2"/>
                    <path id="Path_31938" d="M946.91 571.3c-.21 0-.38-2.12-.38-4.74s.17-4.74.38-4.74.38 2.12.38 4.74-.17 4.74-.38 4.74z" class="cls-2"/>
                </g>
                <g id="Group_378">
                    <path id="Path_31947" d="M995.57 534.82a4.31 4.31 0 1 1-1.266-3.051 4.32 4.32 0 0 1 1.266 3.051z" class="cls-2"/>
                    <path id="Path_31948" d="M991.25 544.3c-.21 0-.38-2.12-.38-4.74s.17-4.74.38-4.74.38 2.12.38 4.74-.17 4.74-.38 4.74z" class="cls-2"/>
                </g>
                <g id="Group_376">
                    <path id="Path_31949" d="M897.45 546.46a4.31 4.31 0 1 1-1.262-3.058 4.32 4.32 0 0 1 1.262 3.058z" class="cls-2"/>
                    <path id="Path_31950" d="M893.13 555.93c-.21 0-.38-2.12-.38-4.73s.17-4.74.38-4.74.38 2.12.38 4.74-.17 4.73-.38 4.73z" class="cls-2"/>
                </g>
            </g>
            <g id="Group_411">
                <path id="Path_31953" d="M1085.3 442.76a4.31 4.31 0 1 1-1.262-3.058 4.32 4.32 0 0 1 1.262 3.058z" class="cls-2"/>
                <path id="Path_31954" d="M1081 452.24c-.21 0-.38-2.13-.38-4.74s.17-4.74.38-4.74.38 2.12.38 4.74-.19 4.74-.38 4.74z" class="cls-2"/>
            </g>
            <g id="Group_409">
                <path id="Path_31871" d="M1088.78 339.96l-65.69-37.93 22.37-12.91 66.4 37.52z" class="cls-3"/>
                <g id="Group_408">
                    <path id="Path_31964" d="M1068.65 309.53a4.32 4.32 0 1 1-4.31-4.32 4.32 4.32 0 0 1 4.31 4.32z" class="cls-2"/>
                    <path id="Path_31965" d="M1064.34 319c-.22 0-.39-2.12-.39-4.74s.17-4.73.39-4.73.38 2.12.38 4.73-.17 4.74-.38 4.74z" class="cls-2"/>
                </g>
            </g>
            <g id="Group_402">
                <path id="Path_31878" d="M1026.49 274.13L960.8 236.2l-.05.03-26.27-15.17-.09.05-64.6-37.3-20.09 11.6-1.57 177.14 3.88 2.25 86.85-50.14.06.03z" class="cls-3"/>
                <g id="Group_398">
                    <path id="Path_31884" d="M852.48 297.4v-22.45l53.23 25.78v21.21z" class="cls-2"/>
                    <path id="Path_31885" d="M905.71 300.73l66.11-32.85v22.87l-66.11 31.19z" class="cls-4"/>
                    <path id="Path_31886" d="M852.48 274.95l64.87-32.43 54.47 25.36-66.11 32.85z" class="cls-9"/>
                    <path id="Path_31887" d="M859.43 283.77v9.9l5.21 2.35v-9.46z" class="cls-9"/>
                    <path id="Path_31888" d="M867.76 287.44v9.91l5.2 2.35v-9.47z" class="cls-9"/>
                </g>
                <g id="Group_401">
                    <path id="Path_31970" d="M950.46 237.89a4.32 4.32 0 1 1-4.31-4.32 4.32 4.32 0 0 1 4.31 4.32z" class="cls-2"/>
                    <path id="Path_31971" d="M946.15 247.36c-.22 0-.39-2.12-.39-4.74s.17-4.73.39-4.73.38 2.12.38 4.73-.17 4.74-.38 4.74z" class="cls-2"/>
                </g>
                <g id="Group_400">
                    <path id="Path_31972" d="M946.58 307a4.31 4.31 0 1 1-1.262-3.058A4.32 4.32 0 0 1 946.58 307z" class="cls-2"/>
                    <path id="Path_31973" d="M942.26 316.42c-.21 0-.38-2.12-.38-4.73s.17-4.74.38-4.74.38 2.12.38 4.74-.17 4.73-.38 4.73z" class="cls-2"/>
                </g>
                <g id="Group_399">
                    <path id="Path_31976" d="M878.62 319.36a4.31 4.31 0 1 1-1.248-3.084 4.32 4.32 0 0 1 1.248 3.084z" class="cls-2"/>
                    <path id="Path_31977" d="M874.3 328.83c-.21 0-.38-2.12-.38-4.73s.17-4.74.38-4.74.38 2.12.38 4.74-.17 4.73-.38 4.73z" class="cls-2"/>
                </g>
            </g>
            <g id="Group_407">
                <path id="Path_31870" d="M993.09 395.78l-65.69-37.93 87.57-50.56 65.7 37.93z" class="cls-3"/>
                <g id="Group_403">
                    <path id="Path_31916" d="M968.35 272.51v88.59l24.94 12.9v-89.72z" class="cls-4"/>
                    <path id="Path_31917" d="M986.77 264l-18.42 8.51 24.94 11.77 16.79-9.45z" class="cls-9"/>
                    <path id="Path_31918" d="M993.29 284.28V374l15.17-7.49 1.62-91.68z" class="cls-2"/>
                </g>
                <g id="Group_405">
                    <path id="Path_31960" d="M1054.1 345.37a4.32 4.32 0 1 1-4.32-4.32 4.32 4.32 0 0 1 4.32 4.32z" class="cls-2"/>
                    <path id="Path_31961" d="M1049.78 354.84c-.21 0-.38-2.12-.38-4.73s.17-4.74.38-4.74.38 2.12.38 4.74-.16 4.73-.38 4.73z" class="cls-2"/>
                </g>
                <g id="Group_406">
                    <path id="Path_31962" d="M1078.44 341.39a4.32 4.32 0 1 1-4.32-4.32 4.32 4.32 0 0 1 4.32 4.32z" class="cls-2"/>
                    <path id="Path_31963" d="M1074.12 350.86c-.21 0-.38-2.12-.38-4.74s.17-4.73.38-4.73.38 2.12.38 4.73-.17 4.74-.38 4.74z" class="cls-2"/>
                </g>
                <g id="Group_404">
                    <path id="Path_31968" d="M1033.42 342.06a4.31 4.31 0 1 1-1.262-3.058 4.32 4.32 0 0 1 1.262 3.058z" class="cls-2"/>
                    <path id="Path_31969" d="M1029.1 351.53c-.21 0-.38-2.12-.38-4.73s.17-4.74.38-4.74.38 2.12.38 4.74-.17 4.73-.38 4.73z" class="cls-2"/>
                </g>
            </g>
            <g id="Group_423">
                <path id="Path_31979" d="M900 157.25l14.46.07 13.78.06a9.76 9.76 0 0 1 9.48 10v7.11a10.659 10.659 0 0 0 .62 3.59z" class="cls-10"/>
                <path id="Path_31980" d="M1112.21 272.64l.19-45.15-.15-42.73a30.84 30.84 0 0 0-30.39-26.67l-39.19-.18a9.74 9.74 0 0 0-9.56 9.91v7.11a9.74 9.74 0 0 1-9.56 9.9l-73.46-.34z" class="cls-10"/>
                <path id="Path_31981" d="M1112.21 272.64l.19-45.15-.15-42.73a30.84 30.84 0 0 0-30.39-26.67l-39.19-.18a9.74 9.74 0 0 0-9.56 9.91v7.11a9.74 9.74 0 0 1-9.56 9.9l-73.46-.34z" class="cls-12"/>
                <path id="Path_31982" d="M900 157.25l14.46.07 13.78.06a9.76 9.76 0 0 1 9.48 10v7.11a10.351 10.351 0 0 0 .67 3.71z" class="cls-12"/>
            </g>
            <g id="coffeeshop">
                <path id="Path_31984" fill="#f0e7ca" d="M867.86 349.9v80.34l39.49 22.79v-41.55l22.32 12.89v41.54l46.01 26.58v-80.34z"/>
                <path id="Path_31985" fill="#cbb8a7" fill-rule="evenodd" d="M1044.36 452.84l-68.68 39.65v-80.34l68.68-39.65z"/>
                <g id="Group_362">
                    <g id="Group_361">
                        <path id="Path_31986" d="M862.08 365.56v12.45l6.23 7.68 6.22-.49v-12.45z" class="cls-16"/>
                        <path id="Path_31987" d="M874.53 372.75v12.45l6.23 7.68 6.22-.49v-12.45z" class="cls-17"/>
                        <path id="Path_31988" d="M886.98 379.94v12.45l6.23 7.68 6.22-.49v-12.45z" class="cls-18"/>
                        <path id="Path_31989" d="M899.43 387.13v12.45l6.23 7.67 6.22-.48v-12.45z" class="cls-16"/>
                        <path id="Path_31990" d="M911.88 394.32v12.45l6.23 7.67 6.22-.49V401.5z" class="cls-17"/>
                        <path id="Path_31991" d="M924.33 401.5v12.45l6.23 7.68 6.22-.49v-12.45z" class="cls-18"/>
                        <path id="Path_31992" d="M936.78 408.69v12.45l6.23 7.68 6.22-.49v-12.45z" class="cls-16"/>
                        <path id="Path_31993" d="M949.23 415.88v12.45l6.23 7.68 6.22-.49v-12.45z" class="cls-17"/>
                        <path id="Path_31994" d="M961.68 423.07v12.45l6.23 7.68 6.22-.49v-12.45z" class="cls-18"/>
                    </g>
                    <path id="Path_31995" d="M975.68 440.53l-113.6-65.61v-11.91l113.6 65.62z" class="cls-11"/>
                    <path id="Path_31996" d="M1044.36 400.88l-68.68 39.65v-12.18l68.68-39.65z" class="cls-11"/>
                    <g id="Group_360">
                        <path id="Path_31997" d="M936.54 307.67l-68.68 39.65 107.82 62.25 68.68-39.65z" class="cls-19"/>
                        <path id="Path_31998" d="M1044.36 369.92l-68.68 39.65v25.14l79.22-45.73z" class="cls-20"/>
                        <path id="Path_31999" d="M867.86 347.32l-10.53 19.06 118.35 68.33v-25.14z" class="cls-21"/>
                    </g>
                </g>
                <path id="Path_32000" d="M907.35 411.48v41.55l4.6-2.65v-36.25z" class="cls-22"/>
                <g id="Group_372">
                    <path id="Path_32012" d="M967.97 444.53l-1.68.97.07 31.81 1.68-.98z" class="cls-23"/>
                    <g id="Group_366">
                        <path id="Path_32007" d="M941.13 430.97v24.74l25.16 14.53V445.5z" class="cls-24"/>
                        <path id="Path_32008" d="M962.45 445.23l-13.65 14.88-7.67-4.4v-8.2l8.1-9.87z" class="cls-25"/>
                    </g>
                    <g id="Group_365">
                        <path id="Path_32005" d="M938.49 429.3v27.94l2.64-1.53v-24.74z" class="cls-22"/>
                        <path id="Path_32006" d="M941.13 455.71l-2.64 1.53 27.84 16.15-.04-3.15z" class="cls-26"/>
                        <path id="Path_32009" d="M936.81 430.27l2.64 1.67 25.16 14.53v27.89l-27.84-16.15v-27.94zm-1.68-3.06v32l31.23 18.13-.07-31.8-31.16-18.29z" class="cls-27"/>
                        <path id="Path_32010" d="M936.81 430.26v27.94l1.68-.96v-25.91z" class="cls-23"/>
                        <path id="Path_32011" d="M964.62 472.4l-26.13-15.16-1.68.96.84.49.03.02 26.97 15.66z" class="cls-28"/>
                        <path id="Path_32013" d="M967.97 444.53l-31.16-18.29-1.68.97 31.16 18.29z" class="cls-28"/>
                    </g>
                </g>
                <g id="Group_371">
                    <g id="Group_368">
                        <path id="Path_32003" d="M876.06 396.81v24.73l25.16 14.53v-24.74z" class="cls-24"/>
                        <path id="Path_32004" d="M897.38 411.06l-13.66 14.9-7.66-4.42v-8.2l8.1-9.86z" class="cls-25"/>
                    </g>
                    <g id="Group_369">
                        <path id="Path_32001" d="M873.42 395.13v27.94l2.64-1.53v-24.73z" class="cls-22"/>
                        <path id="Path_32002" d="M876.06 421.54l-2.64 1.53 27.84 16.16-.04-3.16z" class="cls-26"/>
                        <path id="Path_32014" d="M871.74 396.1l2.64 1.68 25.16 14.52v27.86L871.74 424zm-1.68-3.1v32l31.23 18.13-.07-31.81z" class="cls-27"/>
                        <path id="Path_32015" d="M871.74 396.1v27.94l1.68-.97v-25.9z" class="cls-23"/>
                        <path id="Path_32016" d="M899.55 438.24l-26.13-15.17-1.68.97.84.48.03.03 26.97 15.65z" class="cls-28"/>
                        <path id="Path_32017" d="M902.9 410.36l-1.68.97.07 31.81 1.68-.97z" class="cls-23"/>
                        <path id="Path_32018" d="M902.9 410.36l-31.16-18.29-1.68.97 31.16 18.29z" class="cls-28"/>
                    </g>
                </g>
                <g id="Group_370">
                    <path id="Path_32019" fill="#c4baad" d="M1032.22 420.77v27.94l-2.64-1.52v-24.74z"/>
                    <path id="Path_32025" fill="#7d4d36" d="M1033.9 421.74v27.94l-1.68-.97v-25.9z"/>
                    <path id="Path_32020" fill="#c4c4b5" d="M1029.58 447.19l2.64 1.52-41.2 23.96.04-3.16z"/>
                    <g id="Group_363">
                        <path id="Path_32021" fill="#ace5ea" d="M1029.58 422.45v24.74l-38.52 22.32v-24.74z"/>
                        <path id="Path_32022" d="M1029.58 422l-23.34 38.71 23.34-13.52z" class="cls-33"/>
                        <path id="Path_32023" d="M1017.02 430.31l-21.24 36.46-4.72 2.74v-12.67l10.71-17.81z" class="cls-33"/>
                    </g>
                    <path id="Path_32024" d="M1033.9 421.74v27.94L991 474.61v-27.89l40.2-23.3 2.64-1.68zm1.68-3.06l-46.21 27.07-.07 31.8 46.28-26.9v-32z" class="cls-23"/>
                    <path id="Path_32026" d="M991.04 472.65l41.18-23.94 1.68.97-.83.49-.04.02-42.01 24.42z" class="cls-34"/>
                    <path id="Path_32027" fill="#bca89f" d="M987.69 444.77l1.68.98-.07 31.8-1.68-.97z"/>
                    <path id="Path_32028" d="M987.69 444.77l46.21-27.06 1.68.97-46.21 27.07z" class="cls-34"/>
                </g>
                <g id="Group_359">
                    <path id="Path_32029" d="M943.77 386.28l-34.64-20h60.67l23.23 13.41-.06 6.59z" class="cls-11"/>
                    <path id="Path_32030" d="M943.77 386.28l-34.64-20v-39.84l34.64 20z" class="cls-21"/>
                    <path id="Path_32031" d="M954.93 379.83l-11.16 6.45v-39.84l11.16-6.45z" class="cls-20"/>
                    <path id="Path_32032" d="M920.29 320l-11.16 6.44 34.64 20 11.16-6.45z" class="cls-19"/>
                    <g id="Group_358">
                        <path id="Icon_simple-coffeescript" d="M919.62 342.38a42.535 42.535 0 0 0 7.44 5.29 30.11 30.11 0 0 0 7.43 3.3c2.07.55 3.07.26 3.07-.56a4.1 4.1 0 0 0-1.26-2.31 1.72 1.72 0 0 1 .33.92c0 .83-.94 1-2.82.45a30.818 30.818 0 0 1-6.69-3 44.66 44.66 0 0 1-6.63-4.67c-1.81-1.63-2.75-2.83-2.75-3.67a.67.67 0 0 1 .48-.71c-1.13-.07-1.75.07-1.75.81s1.08 2.31 3.15 4.15zm4.36-.16c2.1 1 2.72-.48 5.19.65 1.21.58 2 1.34 2.07 2s-.53.59-1.27.24a2.39 2.39 0 0 1-1.51-1.68c-.75-.32-.87 0-.84.35a4.29 4.29 0 0 0 2.56 2.41c1.76.83 2.36.25 2.21-.77-.19-1.32-1.54-3.11-4-4.21-3.12-1.43-3.1.51-5.22-.48a2.22 2.22 0 0 1-1.44-1.45c-.06-.49.37-.46.87-.22a3.72 3.72 0 0 1 1.3 1c.2 0 .26-.12.24-.29-.09-.49-.73-1-1.54-1.44-1.58-.72-1.58.22-1.52.67a4.94 4.94 0 0 0 2.88 3.28zm10.6 10.88a32.1 32.1 0 0 1-7.44-3.29 47.7 47.7 0 0 1-7.5-5.32 11.39 11.39 0 0 1-3-3.66 41.343 41.343 0 0 0 .83 4.87 2.32 2.32 0 0 0-1.21.75 4.549 4.549 0 0 0-1 3.29 8.7 8.7 0 0 0 1.32 4 5.09 5.09 0 0 0 2.68 2.38 5.51 5.51 0 0 0 1.19.17 6.391 6.391 0 0 1-2.19-2.34 8.67 8.67 0 0 1-1.38-3.79 3.92 3.92 0 0 1 .49-2.91 1.481 1.481 0 0 1 .37-.29c.27 1 .57 2.1.91 3.15.75 2 1.5 3.72 2.25 5.59a19.519 19.519 0 0 1 .69 2.89 8.651 8.651 0 0 0 2.07 3.06 12.788 12.788 0 0 0 3.32 2.55l.12.07a8.67 8.67 0 0 0 3.43 1.33 2 2 0 0 0 2-.69h.06a9 9 0 0 1 .62-2.15c.75-1 1.51-1.89 2.25-3a20.35 20.35 0 0 0 2.08-6.89c-.39.51-1.33.62-3 .16z" class="cls-27"/>
                        <g id="Group_357">
                            <path id="Path_32033" d="M916.7 367.89a3.55 3.55 0 0 1-1.51-.56 5.75 5.75 0 0 1-2.82-4.94c0-2.05 1.21-2.74 3-1.72a5.418 5.418 0 0 1 1.35 1.07l-.17.59a4.74 4.74 0 0 0-1.16-.94c-1.33-.77-2.22-.3-2.22 1.42a4.46 4.46 0 0 0 2.19 3.9 2.781 2.781 0 0 0 1.2.42z" class="cls-27"/>
                            <path id="Path_32034" d="M922.32 368c0 2.26-1.19 2.76-2.65 1.92a5.67 5.67 0 0 1-2.57-4.81c0-2.08 1.13-2.79 2.65-1.91a5.64 5.64 0 0 1 2.57 4.8zm-4.43-2.45a4.41 4.41 0 0 0 1.82 3.7c1.17.68 1.83-.17 1.83-1.66a4.45 4.45 0 0 0-1.82-3.72c-1.22-.69-1.83.25-1.83 1.69z" class="cls-27"/>
                            <path id="Path_32035" d="M923.28 365.36l3.07 1.77v.71l-2.35-1.35v2.18l2.16 1.25v.69l-2.16-1.24v3l-.74-.42z" class="cls-27"/>
                            <path id="Path_32036" d="M927.41 367.74l3.07 1.77v.71l-2.34-1.35v2.18l2.16 1.25v.7l-2.16-1.25v3l-.73-.43z" class="cls-27"/>
                            <path id="Path_32037" d="M934.49 375.31l-2.22-1.31v2.36l2.47 1.43v.71l-3.21-1.86v-6.55l3.09 1.78v.71l-2.35-1.35v2.07l2.22 1.28z" class="cls-27"/>
                            <path id="Path_32038" d="M938.66 377.71l-2.22-1.28v2.36l2.47 1.43v.71l-3.21-1.85v-6.55l3.08 1.78v.69l-2.34-1.36v2.07l2.22 1.28z" class="cls-27"/>
                        </g>
                    </g>
                </g>
            </g>
            <g id="line">
                <path id="Path_31978" d="M1026.75 647.07a5 5 0 1 1-5-5 5 5 0 0 1 5 5z" class="cls-36"/>
                <path id="Path_32039" d="M1020.91 647.07a10.7 10.7 0 0 1-1.44-.73l-4.14-2.33-15.87-9.18c-13.79-8.08-42.25-23.33-67.24-38l-1.22-.72 1.27-.64c21.87-11.13 69.34-43 98.42-57.81v1.78c-17.84-9.51-31.26-17.44-51.6-28.28l-1.82-1 1.83-1c25-13.14 40.84-22.93 68.8-37.61l3 1-2 1c-28 14.64-43.81 24.4-68.85 37.52v-1.94c20.31 10.9 33.7 18.89 51.51 28.44l1.7.92-1.72.86c-29.16 14.64-76.69 46.39-98.62 57.4v-1.36c24.84 14.91 53.18 30.37 66.88 38.59l15.67 9.54 4 2.51a9.263 9.263 0 0 1 1.44 1.04z" class="cls-36"/>
                <path id="Path_32040" d="M1062.49 420.82c0-14.61-15.35-23.86-31-16.54a17.75 17.75 0 0 0-8.24 7.89c-3.93 7.63-2.19 16.34 1.38 23.57l12.17 30.86a5.25 5.25 0 0 0 9.78 0l11.94-31c4.14-9.52 3.97-14.78 3.97-14.78zm-14.7 12.71c-10.52 6.11-21.18-5.19-15.41-16.35a8.71 8.71 0 0 1 3.34-3.54c10.52-6.12 21.18 5.19 15.41 16.35a8.771 8.771 0 0 1-3.34 3.54z" class="cls-36"/>
            </g>
            <g id="Group_412">
                <path id="Path_31931" d="M993.53 488.93a4.31 4.31 0 1 1-1.262-3.058 4.32 4.32 0 0 1 1.262 3.058z" class="cls-2"/>
                <path id="Path_31932" d="M989.21 498.4c-.21 0-.38-2.12-.38-4.74s.17-4.73.38-4.73.38 2.12.38 4.73-.17 4.74-.38 4.74z" class="cls-2"/>
            </g>
            <path id="Path_32041" fill="#c1d1d6" d="M1081.86 158.09h1.06a22 22 0 0 1 3.12.26 28.861 28.861 0 0 1 11.55 4.05 29.221 29.221 0 0 1 7 5.73 30.638 30.638 0 0 1 5.83 9.22 32 32 0 0 1 2.26 12.53v14.54c-.15 41.09-.36 100.55-.62 174s-.63 160.95-1 258.09q-.07 18.21-.15 36.87v9.35a32.853 32.853 0 0 1-1.21 9.39 31.194 31.194 0 0 1-4 8.66 33.423 33.423 0 0 1-6.44 7.1 31.28 31.28 0 0 1-17.81 6.83c-1.63.1-3.24.08-4.85.07h-14.53l-39.28-.17-80.62-.37-41.28-.24-20.82-.09a32.54 32.54 0 0 1-20-5.62 31.51 31.51 0 0 1-12.14-16.91 33.789 33.789 0 0 1-1.27-10.38v-10.4l.18-41.24q.17-41 .34-80.64c.23-52.86.46-103.85.67-152.43s.42-94.73.62-137.93q.15-32.4.28-62.51v-7.48c0-1.24.11-2.5.19-3.74a19.06 19.06 0 0 1 .64-3.67 31.55 31.55 0 0 1 6.53-13 31.22 31.22 0 0 1 25.16-11l26.89.13 12.93.07h6.34a9.88 9.88 0 0 1 6 1.72 10.15 10.15 0 0 1 3.75 5c.78 2 .58 4.11.6 6.08v3a21.991 21.991 0 0 0 .09 2.94 9.73 9.73 0 0 0 2.29 5.19 9.11 9.11 0 0 0 4.71 3 10.419 10.419 0 0 0 2.79.28h2.84l11.13.05 40.67.22 17.93.1c1.42 0 2.86.08 4.21 0a9.18 9.18 0 0 0 3.79-1.32 9.78 9.78 0 0 0 4.35-6.21 16.876 16.876 0 0 0 .26-3.75v-3.69a20.479 20.479 0 0 1 .18-3.59 10.329 10.329 0 0 1 1.17-3.29 9.72 9.72 0 0 1 4.93-4.33c2-.87 4.18-.6 6.12-.63l20 .13 12.3.09 4.19.06h-16.49l-20-.05c-2 0-4.07-.23-6 .63a9.439 9.439 0 0 0-4.79 4.22 10.131 10.131 0 0 0-1.14 3.22 21.675 21.675 0 0 0-.16 3.54v3.69a17 17 0 0 1-.26 3.81 10.08 10.08 0 0 1-4.48 6.42 9.43 9.43 0 0 1-3.92 1.37c-1.42.12-2.81 0-4.24 0l-17.93-.06-40.67-.16h-13.97a11.489 11.489 0 0 1-2.9-.3 9.6 9.6 0 0 1-5-3.09 10.249 10.249 0 0 1-2.4-5.43 21.748 21.748 0 0 1-.1-3v-3c0-2 .16-4-.58-5.92a9.68 9.68 0 0 0-3.57-4.71 9.29 9.29 0 0 0-5.77-1.62h-19.27l-26.89-.11a30.579 30.579 0 0 0-31.13 23.64c-.31 1.18-.41 2.4-.63 3.6a22.468 22.468 0 0 0-.18 3.68v7.48q-.12 30.07-.24 62.51c-.17 43.2-.36 89.36-.55 137.93s-.41 99.57-.62 152.44q-.16 39.64-.34 80.63-.07 20.48-.17 41.24v10.4a33.092 33.092 0 0 0 1.21 10.21 30.731 30.731 0 0 0 11.84 16.49 31.8 31.8 0 0 0 19.6 5.49l20.83.09 41.23.19 80.61.38L1062 714h14.54c1.61 0 3.22 0 4.8-.08a30.4 30.4 0 0 0 17.39-6.66 32.611 32.611 0 0 0 6.29-6.93 30.176 30.176 0 0 0 3.88-8.46 32 32 0 0 0 1.19-9.19c0-3.13 0-6.24.05-9.35l.16-36.87c.44-97.14.84-184.62 1.17-258.09s.66-132.92.86-174q0-7.71.08-14.54a31.7 31.7 0 0 0-2.21-12.44 30.589 30.589 0 0 0-5.76-9.19 29.431 29.431 0 0 0-7-5.72 29.09 29.09 0 0 0-11.48-4.1 23.515 23.515 0 0 0-3.11-.3 5.794 5.794 0 0 1-.99.01z"/>
            <g id="Group_355">
                <path id="Polygon_5" fill="url(#linear-gradient-2)" d="M14.612 0l4.871 8.458-4.871 8.458H4.871L0 8.458 4.871 0z" opacity="0.698" transform="translate(892.75 452.501) rotate(-30)"/>
                <path id="Subtraction_3" fill="url(#linear-gradient-3)" d="M-38.147 14.614h-10.392l-5.2-9.023 5.2-9.022h10.391l5.2 9.022-5.2 9.022zm-9.392-17.045l-4.2 8.023 4.2 8.023h8.392l4.2-8.023-4.2-8.023z" opacity="0.702" transform="translate(949.719 419.406)"/>
                <path id="Polygon_3" fill="url(#linear-gradient-4)" d="M28.119 0l9.373 16.276-9.373 16.276H9.373L0 16.276 9.373 0z" opacity="0.702" transform="matrix(0.966, 0.259, -0.259, 0.966, 854.41, 422.697)"/>
                <path id="Subtraction_2" fill="url(#linear-gradient-5)" d="M-19.645 70.124L-42.371 47.4-34 16.3l31.1-8.368L19.82 30.66l-8.368 31.1-31.1 8.368zm15.389-57.178l-26.084 7.019-7.019 26.084L-18.3 65.112l26.083-7.02 7.02-26.083z" opacity="0.699" transform="translate(854.57 443.013)"/>
                <path id="Polygon_7" fill="url(#linear-gradient-6)" d="M55.586 0l18.528 32.174-18.528 32.173H18.529L0 32.174 18.529 0z" opacity="0.695" transform="translate(777.658 434.71) rotate(90)"/>
                <path id="Union_6" fill="url(#linear-gradient-7)" d="M-5.523 52.38h-32.141l-16.071-27.905 16.071-27.906h32.141L-.14 5.918h14.045l10.643 18.558-10.643 18.557H-.14l-5.383 9.347zM-49.88 24.475l14.143 24.558h28.286l3.455-6h-3.385l-10.642-18.557L-7.381 5.918H-4l-3.456-6h-28.28z" opacity="0.701" transform="translate(827.395 388.287)"/>
                <path id="Polygon_12" fill="url(#linear-gradient-8)" d="M18.2 0l6.068 10.536L18.2 21.072H6.068L0 10.536 6.068 0z" opacity="0.699" transform="translate(796.705 475.974) rotate(-60)"/>
            </g>
            <g id="Group_356">
                <g id="Asset_2" class="cls-1" transform="translate(874.991 458.934) rotate(7)">
                    <g id="Layer_2" transform="translate(1 1.002)">
                        <g id="Capa_1">
                            <path id="Path_32066" fill="#d9e6ee" d="M29.893 26.14H1.164s-.636 12.13 9.023 17.854h10.69c9.652-5.724 9.016-17.854 9.016-17.854z" opacity="0.5" transform="translate(-1.101 -17.356)"/>
                            <path id="Path_32067" fill="#eabf8c" d="M29.893 26.14H1.164s-.636 12.13 9.023 17.854h10.69c9.652-5.724 9.016-17.854 9.016-17.854z" transform="translate(-1.101 -17.356)"/>
                            <path id="Path_32068" fill="#9b6539" d="M2.77 41.69a18.615 18.615 0 0 0 8.467 12.42h10.69a18.627 18.627 0 0 0 8.46-12.42z" transform="translate(-2.151 -27.472)"/>
                            <path id="Path_32069" fill="#80522e" d="M7.16 54.94a17.333 17.333 0 0 0 6.933 7.789h10.69a17.322 17.322 0 0 0 6.926-7.789z" transform="translate(-5.007 -36.091)"/>
                            <path id="Path_32070" d="M80.028 26.14h-1.852a16.284 16.284 0 0 0-.1 2.481h1.957a1.653 1.653 0 0 1 1.663 1.534l-.734 3.225c-.549 1.747-1.44 1.974-2.156 1.974h-2.328a15.314 15.314 0 0 1-1.4 2.4 4.13 4.13 0 0 0 .783.077H78.8c1.265 0 3.536-.489 4.543-3.771l.021-.087.772-3.428a1.216 1.216 0 0 0 .031-.276 4.138 4.138 0 0 0-4.139-4.129z" class="cls-49" transform="translate(-49.192 -17.356)"/>
                            <path id="Path_32071" d="M21 41.313h-6.686C7.5 37.274 6.591 30.043 6.189 26.14H1.164s-.636 12.13 9.023 17.854h10.69a16.662 16.662 0 0 0 3.428-2.68z" transform="translate(-1.101 -17.356)" style="mix-blend-mode:multiply;isolation:isolate" fill="#c3d1d9"/>
                            <path id="Path_32072" fill="none" stroke="#673e20" stroke-miterlimit="10" d="M29.893 26.14H1.164s-.636 12.13 9.023 17.854h10.69c9.652-5.724 9.016-17.854 9.016-17.854z" transform="translate(-1.101 -17.356)"/>
                            <path id="Path_32073" d="M59.521 32.212c.07-.066.143-.129.22-.192.916-.769 2.488-1.957 3.753-1.849a.15.15 0 0 0 .077-.021c3.792.391-.21 8.009-1.849 9.268-1.538 1.185-2.624-.426-3.145-1.7a4.635 4.635 0 0 1 .944-5.506z" class="cls-52" transform="translate(-38.138 -19.964)"/>
                            <path id="Line_1" d="M7.328 0L0 0" class="cls-53" transform="translate(21.418 10.804)"/>
                            <path id="Line_2" d="M0 0L2.879 0" class="cls-53" transform="translate(16.131 10.804)"/>
                            <path id="Line_3" d="M5.424 0L0 0" class="cls-53" transform="translate(5.451 16.668)"/>
                            <path id="Line_4" d="M0 0L2.128 0" class="cls-53" transform="translate(1.545 16.668)"/>
                            <path id="Path_32074" d="M3.28 76.49h27.261l-2.394 2.715H5.848z" class="cls-49" transform="translate(-2.483 -50.111)"/>
                            <path id="Path_32075" d="M29.774 9.821a4.221 4.221 0 0 0-3.9-2.694 4.309 4.309 0 0 0-1.279.192A5.074 5.074 0 0 0 24.7 6.27 5.221 5.221 0 0 0 14.471 4.8a4.854 4.854 0 0 0-9.043 2.421 4.477 4.477 0 0 0-.486-.035A4.221 4.221 0 0 0 1 9.821z" class="cls-27" transform="translate(-1 -1.036)"/>
                            <path id="Path_32076" fill="#f9ddb6" d="M13.144 8.634a2.535 2.535 0 0 1 .324.021 3.257 3.257 0 0 1 6.053-1.621 3.5 3.5 0 0 1 5-2.107 5.217 5.217 0 0 0-10.061-.175 4.854 4.854 0 0 0-9.046 2.421 4.477 4.477 0 0 0-.486-.035A4.221 4.221 0 0 0 1 9.787h9.855a2.8 2.8 0 0 1 2.289-1.153z" transform="translate(-1 -1.002)"/>
                            <path id="Path_32077" fill="none" stroke="#673e20" stroke-linecap="round" stroke-linejoin="round" d="M29.774 9.821a4.221 4.221 0 0 0-3.9-2.694 4.309 4.309 0 0 0-1.279.192A5.074 5.074 0 0 0 24.7 6.27 5.221 5.221 0 0 0 14.471 4.8a4.854 4.854 0 0 0-9.043 2.421 4.477 4.477 0 0 0-.486-.035A4.221 4.221 0 0 0 1 9.821z" transform="translate(-1 -1.036)"/>
                        </g>
                    </g>
                </g>
                <g id="Asset_3" class="cls-1" transform="matrix(0.951, 0.309, -0.309, 0.951, 776.975, 491.935)">
                    <g id="Layer_2-2" transform="translate(0.986 1)">
                        <g id="Capa_1-2">
                            <path id="Path_32078" d="M41.33 55.793c.651-2.866 4.858-5.089 9.946-5.093s9.316 2.227 9.972 5.076c0 0-2.841 3.958-9.972 3.963s-9.946-3.946-9.946-3.946z" class="cls-56" transform="translate(-24.377 -29.816)"/>
                            <path id="Path_32079" d="M73.174 60.182a8.573 8.573 0 0 0 1.647-7.362c2.471.9 4.2 2.42 4.622 4.2 0 0-1.967 2.731-6.723 3.66a6.167 6.167 0 0 0 .454-.498z" class="cls-57" transform="translate(-42.577 -31.045)"/>
                            <path id="Path_32080" d="M2.017 19.748a4.2 4.2 0 0 1 3.294-1.412A4.084 4.084 0 0 1 8.2 19.571a29.662 29.662 0 0 1-.668-3.782l39.958-.029c-1.3 12.123-9.736 21.481-19.96 21.489-7.236 0-13.577-4.669-17.136-11.694-1.168-2.3-2.622-4.853-4.858-4.942-1.223-.046-2.664.34-2.983 2.82-.227 1.786 1.706 3.013 4.358 3.782.58.164 1.21.294 1.815.42 2.2.45 4.933 1.009 4.374 3.967a2.374 2.374 0 0 1-2.521 2.013 2.332 2.332 0 0 1-2.1-2.046c-.059-.172-.155-1.681 1.3-1.681a1.261 1.261 0 0 1 1.156 1.374c0 .866.584.71.7.084.244-1.307-.5-1.681-3.2-2.21-.635-.13-1.29-.265-1.933-.45-3.223-.929-5.043-2.609-5.425-5a4.853 4.853 0 0 1 .937-3.942z" class="cls-56" transform="translate(-0.986 -9.558)"/>
                            <path id="Path_32081" d="M16.9 15.82a2.181 2.181 0 0 0-.214 1q-.067-.492-.126-1z" class="cls-58" transform="translate(-10.016 -9.593)"/>
                            <path id="Path_32082" d="M65.805 33.813a11.873 11.873 0 0 0-1.559-11.766 19.636 19.636 0 0 0-8.076-6.257h23.313c-1.122 10.451-7.564 18.842-15.85 20.964a8.631 8.631 0 0 0 2.172-2.941z" class="cls-57" transform="translate(-32.981 -9.575)"/>
                            <path id="Path_32083" d="M20.59 26.23a22.6 22.6 0 0 0 4.795 1.836c6.5 1.626 10.593 1.626 17.556.945 1.849 2.13 2.2 8.434.971 11.144-1.2 2.635-6.3 2.467-12.283.42S20.59 26.23 20.59 26.23z" class="cls-52" transform="translate(-12.352 -15.628)"/>
                            <path id="Path_32084" d="M16.56 7.227c0 3.437 8.946 6.211 19.977 6.2S56.509 10.631 56.505 7.2 47.559 1 36.528 1 16.556 3.8 16.56 7.227z" class="cls-56" transform="translate(-10.016 -1)"/>
                            <path id="Path_32085" d="M21.77 9.512c0 2.521 7.984 4.555 17.787 4.547S57.336 12 57.336 9.482s-7.967-4.55-17.787-4.542S21.77 6.995 21.77 9.512z" class="cls-56" transform="translate(-13.036 -3.284)"/>
                            <path id="Path_32086" d="M78.8 5.6c6.77.639 11.6 2.307 11.6 4.265s-4.652 3.576-11.228 4.248A9.566 9.566 0 0 0 78.8 5.6z" class="cls-57" transform="translate(-46.102 -3.667)"/>
                            <path id="Path_32087" d="M39.136 6.376c.282 0 2.315-.05 2.6-.046.765.874-.349 2.614-6.261 3.131l-.668.067c-.42.038-.807.076-1.21.122-1.046.113-2.1.235-3.135.42a18.216 18.216 0 0 0-5.551 1.71c-.206.109-1.63-.492-1.139-1.479.715-1.446 5.543-3.917 15.364-3.925z" class="cls-52" transform="translate(-14.136 -4.09)"/>
                            <path id="Path_32088" d="M42.816 19.845c9.9 0 13.371-1.626 15.4-2.294-3.021-1.538-8.551-2.639-15.409-2.631-6.425 0-12.253 1.261-15.417 2.647 2.588.984 5.526 2.286 15.426 2.278z" class="cls-59" transform="translate(-16.295 -9.071)"/>
                            <path id="Path_32089" d="M49.311 19.21c6.875 0 9.282-1.13 10.69-1.593-2.1-1.072-5.938-1.832-10.694-1.828A29.2 29.2 0 0 0 38.6 17.626c1.8.685 3.837 1.589 10.711 1.584z" transform="translate(-22.794 -9.575)" style="mix-blend-mode:soft-light;isolation:isolate" fill="#c0818c"/>
                            <path id="Path_32090" d="M27.777 36.476c1.983 2.95 4.685 5.118 5.106 4.841s-1.609-2.9-3.593-5.845-3.2-5.122-3.61-4.845.113 2.895 2.097 5.849z" class="cls-27" transform="translate(-15.228 -18.164)"/>
                            <path id="Path_32091" d="M17.824 12.578c1.761 3.412 11.03 4.509 11.03 4.509S19.8 15.07 18.623 12.721c-.933-1.845 1.954-3.6 1.954-3.6s-3.593 1.768-2.753 3.457z" class="cls-27" transform="translate(-10.675 -5.708)"/>
                            <path id="Path_32092" d="M2.558 25.431C1 29.894 5.613 31.89 5.613 31.89s-3.929-1.841-2.74-5.74c.945-3.126 4.589-2.866 4.589-2.866s-3.917-.735-4.904 2.147z" class="cls-27" transform="translate(-1.712 -13.872)"/>
                            <path id="Path_32093" d="M20.224 51.339a.571.571 0 0 0 .492.622.643.643 0 0 0 0-1.261.571.571 0 0 0-.492.639z" class="cls-27" transform="translate(-12.137 -29.816)"/>
                        </g>
                    </g>
                </g>
                <g id="Asset_4" class="cls-1" transform="translate(738.342 414.166) rotate(-14)">
                    <g id="Layer_2-3" transform="translate(0.997 0.994)">
                        <g id="Capa_1-3">
                            <path id="Path_32094" d="M45.95 137.744c0 .771-3.528 1.4-7.87 1.4s-7.87-.626-7.87-1.4 3.528-1.394 7.87-1.394 7.87.623 7.87 1.394z" class="cls-61" transform="translate(-20.631 -91.965)"/>
                            <path id="Path_32095" d="M45.95 136.414c0 .771-3.528 1.4-7.87 1.4s-7.87-.626-7.87-1.4 3.528-1.394 7.87-1.394 7.87.623 7.87 1.394z" class="cls-61" transform="translate(-20.631 -91.071)"/>
                            <path id="Path_32096" d="M1.031 1.58a.79.79 0 0 1 .984-.554l7.362 2.02a4.843 4.843 0 0 1 3.2 3.4l4.165 19.7-1.554.328-4.161-19.7a3.279 3.279 0 0 0-2.07-2.197l-7.372-2.02a.794.794 0 0 1-.554-.977z" class="cls-61" transform="translate(-1 -0.994)"/>
                            <g id="Group_353" transform="translate(0 0.228)" style="mix-blend-mode:multiply;isolation:isolate">
                                <path id="Path_32097" fill="#ccc" d="M1.237 1.69A7.158 7.158 0 0 0 3.706 3.2a26.233 26.233 0 0 0 3.3 1.089c1.164.3 2.663.439 3.578 1.312A3.535 3.535 0 0 1 11.6 7.76a18.127 18.127 0 0 0 .616 2.381 41.1 41.1 0 0 1 1.1 5.309 27.9 27.9 0 0 0 .58 2.732c.121.446.275.879.357 1.338.161.892.266 1.79.43 2.682.207 1.141.538 3.7 1.984 4.033l.072.38-1.554.328-4.161-19.7a3.279 3.279 0 0 0-2.071-2.198l-7.371-2.02a.794.794 0 0 1-.554-.984.757.757 0 0 1 .21-.351z" transform="translate(-0.997 -1.69)"/>
                            </g>
                            <path id="Path_32098" d="M30.774 17.045a.357.357 0 0 0 .426.275l1.256-.266a.361.361 0 0 0 .279-.426.357.357 0 0 0-.426-.275l-1.256.266a.361.361 0 0 0-.279.426z" class="cls-61" transform="translate(-21.005 -11.311)"/>
                            <path id="Path_32099" d="M30.023 14.394a.361.361 0 0 0 .489.144l1.125-.616a.361.361 0 0 0 .144-.489.361.361 0 0 0-.472-.141l-1.128.616a.357.357 0 0 0-.141.485z" class="cls-61" transform="translate(-20.486 -9.234)"/>
                            <path id="Path_32100" d="M28.609 12.1a.357.357 0 0 0 .485.141l1.128-.623a.357.357 0 0 0 .144-.485.361.361 0 0 0-.489-.144l-1.128.63a.361.361 0 0 0-.141.489z" class="cls-61" transform="translate(-19.525 -7.683)"/>
                            <path id="Path_32101" d="M27 10.327a.357.357 0 0 0 .5.043l.984-.83a.364.364 0 0 0 .043-.508.361.361 0 0 0-.508-.039l-.984.83a.357.357 0 0 0-.039.5z" class="cls-61" transform="translate(-18.417 -6.312)"/>
                            <path id="Path_32102" fill="#f7daa2" stroke="#673e20" stroke-linecap="round" stroke-linejoin="round" d="M27.336 30.682a1.64 1.64 0 0 1-.243-1.017 1.869 1.869 0 0 1 1.515-1.607v-.052a2.349 2.349 0 0 1 2.463-2.213 2.784 2.784 0 0 1 .656.085 1.62 1.62 0 0 1 1.374-.715h.1a2.417 2.417 0 0 1 4.466.052 1.781 1.781 0 0 1 .443-.056 1.594 1.594 0 0 1 1.457.841 2.7 2.7 0 0 1 1.023-.2 2.342 2.342 0 0 1 2.459 2.213 1.922 1.922 0 0 1-.026.308.984.984 0 0 1 .623.9.882.882 0 0 1-.066.328 1.735 1.735 0 0 1 .794 1.43 1.906 1.906 0 0 1-1.994 1.794c-1.1 0-13.972-.167-14.592-.167a1.069 1.069 0 0 1-1.118-1.01 1 1 0 0 1 .666-.905z" transform="translate(-18.251 -16.252)"/>
                            <path id="Path_32103" d="M42.08 27.376c-.348-.046-.535-.656-.839-.817a1.624 1.624 0 0 0-2.3.708 2.145 2.145 0 0 0-2.108 1.207 2.281 2.281 0 0 0-2.417-.154 2.623 2.623 0 0 1 2.354-.528 1.64 1.64 0 0 1 1.374-.718c.036 0 .456-.125.492-.121a1.743 1.743 0 0 1 1.84-1.344 2.315 2.315 0 0 1 2.224 1.462.656.656 0 0 1-.62.305z" class="cls-27" transform="translate(-23.46 -17.536)"/>
                            <path id="Path_32104" d="M27.329 36.128a1.64 1.64 0 0 1-.243-1.017 1.787 1.787 0 0 1 1.039-1.43c-.262.384-.22.8.354.817-.551.984.62 2.623 2.718 2.1.492 1.328 4.62 1.912 5.411-.161 2.072 1.033 5.122.393 4.535-2.066A5.9 5.9 0 0 0 42.21 31.8a2.118 2.118 0 0 1 .83 1.64 1.922 1.922 0 0 1-.026.308.984.984 0 0 1 .623.9.882.882 0 0 1-.066.328 1.735 1.735 0 0 1 .794 1.43A1.906 1.906 0 0 1 42.37 38.2c-1.1 0-13.972-.167-14.592-.167a1.069 1.069 0 0 1-1.118-1.01 1 1 0 0 1 .669-.895z" transform="translate(-18.245 -21.698)" style="mix-blend-mode:multiply;isolation:isolate" fill="#e8d3cb"/>
                            <path id="Path_32105" d="M36.852 80.663a6.023 6.023 0 0 1-3.964-1.085S37.636 78 34.37 72.363c-1.7-.7-5.653-3.823-5.653-8.139 0-5.312 2.217-7.87-.2-12.025H45.3c-2.413 4.151-.2 6.712-.2 12.025 0 4.5-4.312 7.713-5.86 8.218-3.7 5.129 1.4 7.139 1.4 7.139a3.832 3.832 0 0 1-1.856.876" class="cls-61" transform="translate(-19.495 -35.409)"/>
                            <path id="Path_32106" fill="#683c11" d="M45.38 68.13a47.55 47.55 0 0 1 .8 6.43c0 4.151-3.971 7.109-5.4 7.575-1.344.489-3.3.771-4.489-.072-1.564-.656-5.211-3.525-5.211-7.5a47.9 47.9 0 0 1 .8-6.43z" transform="translate(-21.215 -46.115)"/>
                            <path id="Path_32107" d="M27.849 52.261h16.56c.482 0 .482-1.121 0-1.121h-16.56c-.482 0-.482 1.121 0 1.121z" class="cls-61" transform="translate(-18.801 -34.697)"/>
                            <path id="Path_32108" d="M51.7 52.621a25.807 25.807 0 0 0 4.368-.377 1.144 1.144 0 0 0 .4-.174h2.479c.482 0 .482.817 0 .817H49.11c.859-.096 1.715-.187 2.59-.266z" class="cls-67" transform="translate(-33.333 -35.322)"/>
                            <path id="Path_32109" d="M45.29 74.891a.371.371 0 1 0 .371-.371.371.371 0 0 0-.371.371z" class="cls-27" transform="translate(-30.766 -50.41)"/>
                            <path id="Path_32110" d="M39.27 79.871a1.174 1.174 0 1 0 1.171-1.171 1.174 1.174 0 0 0-1.171 1.171z" class="cls-27" transform="translate(-26.72 -53.219)"/>
                            <path id="Path_32111" d="M40.9 75.948a.328.328 0 1 0 .328-.328.328.328 0 0 0-.328.328z" class="cls-27" transform="translate(-27.815 -51.149)"/>
                            <path id="Path_32112" d="M35.307 80.44a.525.525 0 1 0 .523-.483.525.525 0 0 0-.523.483z" class="cls-27" transform="translate(-24.055 -54.064)"/>
                            <path id="Path_32113" d="M41.3 86.991a.371.371 0 1 0 .371-.371.371.371 0 0 0-.371.371z" class="cls-27" transform="translate(-28.084 -58.542)"/>
                            <path id="Path_32114" d="M37.54 87.422a.285.285 0 1 0 .282-.282.285.285 0 0 0-.282.282z" class="cls-27" transform="translate(-25.557 -58.892)"/>
                            <path id="Path_32115" d="M40.46 92.226a.656.656 0 1 0 .656-.656.656.656 0 0 0-.656.656z" class="cls-27" transform="translate(-27.519 -61.869)"/>
                            <path id="Path_32116" d="M32.79 64.438c-1.466 5.86 4.469 10.113 3.279 10.113-8.7-5.23-4.735-11.772-4.44-14.3s-.656-4.82.531-4.82 1.811 4.288.63 9.007z" class="cls-68" transform="translate(-20.807 -37.58)"/>
                            <path id="Path_32117" d="M41.124 64.822c-1.233 5.9 3.548 9.837 3.548 9.837S37.825 71 40.927 62.11a29.781 29.781 0 0 0-.3-6.23 18.248 18.248 0 0 1 .5 8.942z" class="cls-68" transform="translate(-27.291 -37.882)"/>
                            <path id="Path_32118" d="M49.678 118.721c0 1.528-.984 2.154-.735 2.154a2.24 2.24 0 0 0 1.666-2.154 5.088 5.088 0 0 0-1.666-3.381c-.255 0 .735 1.86.735 3.381z" class="cls-27" transform="translate(-33.193 -77.844)"/>
                            <path id="Path_32119" d="M55.573 118.187a4.634 4.634 0 0 0 2.138 3.607c-.046 0-1 .728-1.328.544-.128-.072.357-.548.216-.656a4.961 4.961 0 0 1-1.351-3.4 5.323 5.323 0 0 1 1.135-3.312c.151 0-.974 1.699-.81 3.217z" class="cls-69" transform="translate(-37.455 -77.596)"/>
                            <path id="Path_32120" d="M31.88 137.568c0 .252 1.794.826 2.623.826s-1.417-.508-1.417-.761 2.512-.764 1.679-.764-2.885.45-2.885.699z" class="cls-27" transform="translate(-21.753 -92.314)"/>
                            <path id="Path_32121" d="M69.059 137.679c0 .252-2.951 1.036-3.781 1.036s1.9-.718 1.9-.984-1.844-.731-1.011-.731 2.892.426 2.892.679z" class="cls-69" transform="translate(-44.094 -92.402)"/>
                            <path id="Path_32122" d="M63.014 60.25c3.476 9.444-4.263 13.815-5.083 13.815s5.122-4.945 1.331-13.444C58.994 60.011 57 55.43 57 55.43h6.057c.829 0-.437 1.987-.043 4.82z" class="cls-67" transform="translate(-38.636 -37.58)"/>
                            <path id="Path_32123" d="M29.41 52.187a55.934 55.934 0 0 0 6.434.187 55.851 55.851 0 0 0 6.43-.187 56 56 0 0 0-6.44-.187 54.718 54.718 0 0 0-6.424.187z" class="cls-27" transform="translate(-20.093 -35.275)"/>
                            <path id="Path_32124" d="M5.709 2.451a19.317 19.317 0 0 0 3.529 1.213 19.678 19.678 0 0 0 3.633.869A19.528 19.528 0 0 0 9.339 3.32a19.68 19.68 0 0 0-3.63-.869z" class="cls-27" transform="translate(-4.164 -1.964)"/>
                            <path id="Path_32125" d="M27.553 10.615c.03.039.3-.134.607-.39s.525-.489.492-.525-.3.134-.607.387-.524.492-.492.528z" class="cls-27" transform="translate(-18.843 -6.842)"/>
                            <path id="Path_32126" d="M29.287 12.361c.026.043.328-.082.656-.275s.6-.39.58-.433-.328.079-.656.275-.603.39-.58.433z" class="cls-27" transform="translate(-20.009 -8.152)"/>
                            <path id="Path_32127" d="M30.927 14.685c.023.043.328-.082.656-.275s.613-.39.587-.42a1.587 1.587 0 0 0-.656.275c-.328.197-.614.381-.587.42z" class="cls-27" transform="translate(-21.111 -9.725)"/>
                            <path id="Path_32128" d="M31.63 17.522a1.5 1.5 0 0 0 .721-.036c.39-.069.7-.164.689-.213a1.5 1.5 0 0 0-.721.036 1.62 1.62 0 0 0-.689.213z" class="cls-27" transform="translate(-21.585 -11.916)"/>
                            <path id="Path_32129" fill="#673e20" d="M52.337 35.671a.984.984 0 0 0-.282-.459 1.135 1.135 0 0 0-.43-.246.839.839 0 0 0-.436-.03.58.58 0 0 0-.328.193.289.289 0 0 1-.4.049.279.279 0 0 1-.1-.18v-.048a.623.623 0 0 0-.5-.538.61.61 0 0 0-.656.282l-.016.03a.275.275 0 0 1-.377.115 1.01 1.01 0 0 0-.41-.144.892.892 0 0 0-.443.082 1.023 1.023 0 0 0-.387.308.7.7 0 0 0-.154.5.712.712 0 0 1-.049-.607 1.2 1.2 0 0 1 1.02-.794 1.292 1.292 0 0 1 .7.131l-.4.138a1.118 1.118 0 0 1 .544-.587 1.272 1.272 0 0 1 .784-.1 1.2 1.2 0 0 1 .676.387 1.184 1.184 0 0 1 .285.731l-.515-.18a1.036 1.036 0 0 1 .7-.3 1.245 1.245 0 0 1 1.1.656.846.846 0 0 1 .074.611z" transform="translate(-32.123 -23.009)"/>
                            <path id="Path_32130" d="M52.73 35.832c0 .144.328-.121.656-.1.607.036.7.515.7.367a.626.626 0 0 0-.685-.63c-.314-.011-.671.215-.671.363z" class="cls-27" transform="translate(-35.766 -24.159)"/>
                            <path id="Path_32131" d="M57.6 37.838c0 .144.328-.121.656-.1.607.033.7.512.7.367a.623.623 0 0 0-.682-.63c-.317-.011-.674.219-.674.363z" class="cls-27" transform="translate(-39.039 -25.51)"/>
                            <path id="Path_32132" d="M47.816 37.488c.1.1.157-.328.4-.538.456-.4.859-.128.757-.233a.623.623 0 0 0-.928.033c-.239.223-.331.637-.229.738z" class="cls-27" transform="translate(-32.436 -24.875)"/>
                        </g>
                    </g>
                </g>
                <g id="Asset_7" class="cls-1" transform="translate(839.471 398.077)">
                    <g id="Layer_2-4" transform="translate(1 15.821)">
                        <g id="Capa_1-4" transform="translate(0)">
                            <path id="Path_32157" d="M2.585 18.4c0 .9 4.191 1.619 9.362 1.617 5.046 0 9.155-.7 9.354-1.562l-2.079 17.33s-2.068 1.581-6.749 1.584c-5.386 0-7.65-1.57-7.65-1.57L2.58 18.4z" class="cls-71" transform="translate(-2.15 -13.665)"/>
                            <path id="Path_32158" d="M15.538 32.453c.787-.288 3.571 4.6 1.246 10.358a4.443 4.443 0 0 1-2.626 2.564 6.2 6.2 0 0 1-5.685-.661L6.84 31c3.522.544 6.679 2.177 8.698 1.453z" class="cls-52" transform="translate(-5.251 -22.836)"/>
                            <path id="Path_32159" d="M29.179 35.195c1.761-2.885 2.4-6.45.792-9.547a12.852 12.852 0 0 0-6.461-5.6c1.129.082 2.37.128 3.674.128 5.046 0 9.155-.7 9.354-1.562L34.456 35.94s-2.068 1.581-6.749 1.584c-.544 0-1.053-.024-1.535-.065 1.213-.765 2.258-1.04 3.007-2.264z" class="cls-58" transform="translate(-17.384 -13.817)"/>
                            <path id="Path_32160" d="M1.354 14.668L1 11.34c0 1.557 4.387 2.814 9.8 2.809 5.274 0 9.574-1.208 9.781-2.721l-.286 3.225s-1.7 2.79-9.223 2.795c-7.865.007-9.718-2.78-9.718-2.78z" class="cls-71" transform="translate(-1 -8.526)"/>
                            <path id="Path_32161" d="M48.318 14.469a2.958 2.958 0 0 0 .054-.4c2.79-.474 4.7-1.334 4.833-2.321l-.291 3.2s-1.36 2.252-7.094 2.724a5.184 5.184 0 0 0 2.498-3.203z" class="cls-58" transform="translate(-33.622 -8.824)"/>
                            <path id="Path_32162" d="M1 3.828c0 1.557 4.387 2.814 9.8 2.809s9.8-1.268 9.8-2.825S16.2 1 10.8 1 1 2.271 1 3.828z" class="cls-71" transform="translate(-1 -1)"/>
                            <path id="Path_32163" fill="#b2b2b2" stroke="#673e20" stroke-linejoin="round" d="M6.11 5.708c0 1.067 3.78 1.935 8.407 1.935s8.407-.871 8.4-1.938-3.761-1.938-8.4-1.935-8.407.879-8.407 1.938z" transform="translate(-4.719 -3.016)"/>
                            <path id="Path_32164" d="M46.3 4.51c2.76.313 4.656.966 4.656 1.723 0 .9-2.692 1.66-6.33 1.875A7.348 7.348 0 0 0 46.3 4.51z" transform="translate(-32.756 -3.555)" style="mix-blend-mode:multiply;isolation:isolate" fill="#c6c6c6"/>
                            <path id="Path_32165" d="M10.25 11.842a22.24 22.24 0 0 1 7.28-.972 22.446 22.446 0 0 1 7.28.958 22.162 22.162 0 0 1-7.28.982 22.391 22.391 0 0 1-7.28-.968z" class="cls-59" transform="translate(-7.733 -8.184)"/>
                            <g id="Group_354" transform="translate(4.948 3.007)" style="mix-blend-mode:soft-light;isolation:isolate">
                                <path id="Path_32166" fill="#c0818c" d="M19.18 12.7a14.794 14.794 0 0 1 4.85-.648 14.928 14.928 0 0 1 4.852.64 14.9 14.9 0 0 1-4.852.645 14.923 14.923 0 0 1-4.85-.637z" transform="translate(-19.18 -12.05)"/>
                            </g>
                            <path id="Path_32167" d="M2.57 5.389c0 .544 1.2.966 1.2.966s-.754-.435-.7-.969c.15-1.361 4.4-2.136 4.4-2.136s-4.9.835-4.9 2.139z" class="cls-27" transform="translate(-2.143 -2.638)"/>
                            <path id="Path_32168" d="M7.43 19.539c-3.266-.626-3.81-1.769-3.81-1.769s.294.558 4.251 1.3a27.737 27.737 0 0 0 7.822.229s-2.643 1.32-8.263.24z" class="cls-27" transform="translate(-2.907 -13.206)"/>
                            <path id="Path_32169" d="M7.517 6.434c-.212.2.5.974.969.762a12.494 12.494 0 0 1 4.3-.879C14.049 6.255 14.424 5 13.714 5s-5.119.427-6.197 1.434z" class="cls-52" transform="translate(-5.716 -3.911)"/>
                            <path id="Path_32170" d="M13.717 24.551c.291 0-2.136-.444-4.1-.865a15.409 15.409 0 0 1-4.812-1.777c-1.1-.61-1.516.054-.923.416s3.102 2.367 9.835 2.226z" class="cls-52" transform="translate(-2.901 -16.038)"/>
                            <path id="Path_32171" d="M12.161 40.127c.272 3.538.272 6.431.049 6.447s-.637-2.841-.9-6.385-.286-6.434-.049-6.45.647 2.842.9 6.388z" class="cls-27" transform="translate(-8.351 -24.83)"/>
                        </g>
                    </g>
                </g>
            </g>
            <g id="Group_414">
                <path id="Path_31864" d="M1104.89 601.75a4.31 4.31 0 1 1-1.262-3.058 4.32 4.32 0 0 1 1.262 3.058z" class="cls-2"/>
                <path id="Path_31865" d="M1100.57 611.22c-.21 0-.38-2.12-.38-4.73s.17-4.74.38-4.74.38 2.12.38 4.74-.17 4.73-.38 4.73z" class="cls-2"/>
            </g>
            <g id="Layer_2-5" transform="translate(1022.795 592.727)">
                <g id="walk_man" transform="translate(-3.895 0.003)">
                    <path id="Path_32172" d="M63.635 151.666a19.526 19.526 0 0 1-.14 3.272c-.2.561 1.136-.159 1.136-.159l1.375-4.382-.712-.508z" class="cls-76" transform="translate(-38.697 -93.121)"/>
                    <path id="Path_32173" d="M63.6 150.58s-1.617 4.439-2.2 4.738c0 0-1.049.2-1.167.591a1.515 1.515 0 0 0 0 .481h3.357l.595-2.894a10.539 10.539 0 0 0 .792-2.348s-.144-.318-1.377-.568z" class="cls-77" transform="translate(-36.675 -93.55)"/>
                    <path id="Path_32174" d="M36.245 157.3a1.617 1.617 0 0 1 .159.784c-.042.379-.564.731-.564.731l1.75.545 1.606-.576-.644-1.871z" class="cls-78" transform="translate(-21.529 -97.483)"/>
                    <path id="Path_32175" d="M34.292 163.064L33.8 161.5a4.515 4.515 0 0 1-1.557.379 4.924 4.924 0 0 1-1.553-.379l-2.651.86s-1.057.318-.776.712z" class="cls-77" transform="translate(-16.171 -100.334)"/>
                    <path id="Path_32176" fill="#37558b" d="M22.919 75.591l-.879 16.664 5.56 14.589a7.742 7.742 0 0 0 2.738-.33S28.255 95.1 26.77 92.092c0 0 3.25-12.559 2.848-15.328s-6.699-1.173-6.699-1.173z" transform="translate(-12.956 -46.678)"/>
                    <path id="Path_32177" fill="#113758" d="M26.59 77.069L32 93.733a2.708 2.708 0 0 0 .33.663l8.408 12.12a2.862 2.862 0 0 0 1.765-2s-3.92-9.741-5.355-12.12c0 0-1.333-14.843-1.894-15.316s-8.664-.011-8.664-.011z" transform="translate(-15.782 -47.755)"/>
                    <path id="Path_32178" d="M35.476 22.252a15.429 15.429 0 0 0 .379-2.375c-.027-.6 2.337-.757 2.337-.757l.481 3.765s-.3 3.556-2.231 3.337-1.307-2.322-.966-3.97z" class="cls-76" transform="translate(-21.071 -11.879)"/>
                    <path id="Path_32179" d="M36.84 20.736l.091-.826a13.553 13.553 0 0 0 2.67-1.03 3.079 3.079 0 0 1-2.761 1.856z" class="cls-78" transform="translate(-22.15 -11.73)"/>
                    <path id="Path_32180" d="M37.617 8.169a3.061 3.061 0 0 1-3.246 2.916c-1.386 0-1.553-1.75-1.439-3.59C33.05 5.6 34.224 4 35.394 4.351a3.45 3.45 0 0 1 2.223 3.818z" class="cls-76" transform="translate(-19.704 -2.674)"/>
                    <path id="Path_32181" d="M40.911 10.493a2.314 2.314 0 0 1 .409-1.136c.39-.526.576-.526.966-.905a2.848 2.848 0 0 0 .757-1.3 2.848 2.848 0 0 0 0-1.617 3.029 3.029 0 0 0-2.272-2.272c-1.246-.17-1.594.526-1.61.757a1.765 1.765 0 0 0 .322 1.163c.356.61.311 1.451.644 1.894 0 0 1.038.379.606 1.231a2.722 2.722 0 0 0 .178 2.185z" class="cls-81" transform="translate(-23.589 -2.014)"/>
                    <path id="Path_32182" d="M42.608 13c.038.693-.17 1.034-.432.954-.2-.064-.534-.3-.485-1.03.023-.3.22-.534.432-.534s.47.299.485.61z" class="cls-76" transform="translate(-25.162 -7.698)"/>
                    <path id="Path_32183" d="M38.066 1.623a5.3 5.3 0 0 0-.53-.6 3.341 3.341 0 0 0-1-.7 3.67 3.67 0 0 0-.757-.258 1.163 1.163 0 0 0-.757 0 1.034 1.034 0 0 0-.489.489 1.985 1.985 0 0 0-.261 1.314c.045.17.208.477.439.4a1.894 1.894 0 0 1 1.738.686c.496.684 1.617-1.331 1.617-1.331z" class="cls-81" transform="translate(-20.543 -0.003)"/>
                    <path id="Path_32184" d="M13.852 48.448s-1.583 4.132-1.632 4.443c0 0-2.651-.186-3.375-.136s-1.159.273-1.136.629c0 0 4.545 1.954 4.943 1.973s2.405-3.189 3.67-5.1-2.47-1.809-2.47-1.809z" class="cls-78" transform="translate(-4.052 -30.099)"/>
                    <path id="Path_32185" d="M.473 55.809a.106.106 0 0 1-.061-.064C.341 55.5 0 54.363 0 54.23a.214.214 0 0 1 .136-.223c.061-.011.106-.034.2.087a3.083 3.083 0 0 1 .2.651s-.106-.939.095-.981.254.3.273.341a7.222 7.222 0 0 0 .231.708 3.235 3.235 0 0 0 1.136.909s.534-.1.186-.379-.3-.356-.276-.379.133-.117.379 0 .663.379.7.576.89.379.8.579a3.03 3.03 0 0 1-1.072.61c-.11.008-2.181-.791-2.515-.92z" class="cls-78" transform="translate(0.737 -33.4)"/>
                    <path id="Path_32186" d="M54.12 45.163l2.553 3.359s1.038 4.787 1.8 7.912a3.64 3.64 0 0 1-.379.8 3.659 3.659 0 0 0-.568.905c-.083.318.466.829.829.814s1.435-.125 1.629-.489c0 0-.1-1.106-.1-1.231a.693.693 0 0 0 .061-.261s-.829-9.309-1.1-10.12a21.43 21.43 0 0 0-2.057-3.144c-.763-.779-2.668 1.455-2.668 1.455z" class="cls-76" transform="translate(-32.886 -27.053)"/>
                    <path id="Path_32187" d="M62.695 82.149l.174.436c-.057 0-.1.053-.125.1a5.15 5.15 0 0 0-.22.644 1.034 1.034 0 0 1-.341.5.216.216 0 0 1-.182.049c-.155-.038-.1-.2-.049-.3a1.276 1.276 0 0 0 .114-.379c.023-.136.053-.273.083-.409s.076-.322.121-.481a.966.966 0 0 1 .072-.208c0-.026.045-.14.083-.148a1.924 1.924 0 0 1 .269.189z" class="cls-76" transform="translate(-37.718 -50.919)"/>
                    <path id="Path_32188" d="M63.87 82.845a5.473 5.473 0 0 1 .17.579c.068.318.121.636.182.954s.144.757.239 1.1a.443.443 0 0 0 .133.235.117.117 0 0 0 .106.027c.08-.023.083-.121.087-.189a1.64 1.64 0 0 0 0-.273c0-.174-.027-.352-.042-.526l-.068-.716a.337.337 0 0 1 0-.163c.023 0 .042 0 .049.042a.833.833 0 0 1 .034.163l.129.822a2.309 2.309 0 0 0 .049.318c.015.106.03.2.053.3a.4.4 0 0 0 .1.231.144.144 0 0 0 .144.034.151.151 0 0 0 .08-.087.318.318 0 0 0 0-.117 5.3 5.3 0 0 0-.03-.648 1.936 1.936 0 0 0-.038-.466L65.192 84a.22.22 0 0 1 0-.14.042.042 0 0 1 .027-.023c.023 0 .038.023.042.045a4.017 4.017 0 0 1 .087.526l.068.473a.211.211 0 0 0 .019.106c.019.034 0 .273.186.25a.148.148 0 0 0 .193-.193 7.835 7.835 0 0 0-.061-1.03c-.019-.136-.045-.269-.076-.4a.1.1 0 0 1 0-.095.038.038 0 0 1 .042 0c.023 0 .03.034.038.057.087.314.133.64.22.954a.261.261 0 0 0 .042.106.11.11 0 0 0 .091.061.129.129 0 0 0 .114-.064.322.322 0 0 0 .03-.133 4.009 4.009 0 0 0-.061-.754c0-.129-.038-.258-.049-.379a4.335 4.335 0 0 0-.114-.792c-.557.076-1.114.144-1.67.216z" class="cls-76" transform="translate(-38.943 -51.304)"/>
                    <path id="Path_32189" d="M23.09 36.252l3.95.379s1.451-9.673-.576-8.885c-2.272.879-2.56 2.9-2.875 4.1a35.495 35.495 0 0 0-.499 4.406z" class="cls-82" transform="translate(-13.608 -17.21)"/>
                    <path id="Path_32190" d="M27.074 27.637c-.538.083-1.568 2.621-1.685 4.344S23.93 46.718 23.93 46.718a14.07 14.07 0 0 0 4.87 1.515 8.491 8.491 0 0 0 5.549-.947V36.011s.564-6.518-.314-7.874c0 0-1.8-.352-2.272-.462 0 0-1.1 2.848-2.594 2.579-1.091-.193-1.045-.928-.667-2.617a4.094 4.094 0 0 0-1.428 0z" class="cls-83" transform="translate(-14.13 -17.132)"/>
                    <path id="Path_32191" d="M47.077 42.558v-4.84s.7-5.92-.182-7.272a1.379 1.379 0 0 0-1.473.417 3.831 3.831 0 0 0-.977 2.144A21.719 21.719 0 0 0 45 37.036a22.683 22.683 0 0 1 .284 4.166c-.347 5.534 1.793 1.356 1.793 1.356z" class="cls-82" transform="translate(-26.869 -18.888)"/>
                    <path id="Path_32192" d="M49.09 37.57l3.28-2.231s-3.166-6.367-5.329-6.5c-1.212-.072-1.617.973-1.738 1.894a3.2 3.2 0 0 0 .572 2.242z" class="cls-83" transform="translate(-27.393 -17.918)"/>
                    <rect id="Rectangle_1509" width=".662" height="4.918" fill="#d5e7ff" rx=".331" transform="translate(0.106 18.307) rotate(-34)"/>
                    <rect id="Rectangle_1508" width=".568" height="5.297" fill="#353b43" rx=".284" transform="translate(0 18.15) rotate(-34)"/>
                    <rect id="Rectangle_1510" width=".189" height=".568" class="cls-86" rx=".095" transform="translate(0.447 18.454) rotate(-34)"/>
                    <rect id="Rectangle_1511" width=".189" height=".568" class="cls-86" rx=".095" transform="translate(0.825 19.03) rotate(-34)"/>
                </g>
            </g>
        </g>
    </g>
</svg>
