<svg xmlns="http://www.w3.org/2000/svg" width="375" height="1024" viewBox="0 0 375 1024">
    <defs>
        <clipPath id="ka401veo3a">
            <path data-name="Rectangle 2061" transform="translate(0 4287)" style="fill:#19b9c3" d="M0 0h375v1024H0z"/>
        </clipPath>
    </defs>
    <g data-name="GTA bg" transform="translate(0 -4287)" style="clip-path:url(#ka401veo3a)">
        <g data-name="Group 4076">
            <g data-name="Group 4062" transform="translate(326.834 4310.071)">
                <circle data-name="Ellipse 257" cx="1.299" cy="1.299" r="1.299" style="fill:#f2fdfa"/>
                <circle data-name="Ellipse 258" cx="1.299" cy="1.299" r="1.299" transform="translate(0 6.697)" style="fill:#f2fdfa"/>
                <circle data-name="Ellipse 259" cx="1.299" cy="1.299" r="1.299" transform="translate(6.535)" style="fill:#f2fdfa"/>
                <circle data-name="Ellipse 260" cx="1.299" cy="1.299" r="1.299" transform="translate(6.535 6.697)" style="fill:#f2fdfa"/>
            </g>
            <g data-name="Group 4063" transform="translate(34.789 4377.927)">
                <circle data-name="Ellipse 261" cx="1.299" cy="1.299" r="1.299" style="fill:#fff"/>
                <circle data-name="Ellipse 262" cx="1.299" cy="1.299" r="1.299" transform="translate(0 6.697)" style="fill:#fff"/>
                <circle data-name="Ellipse 263" cx="1.299" cy="1.299" r="1.299" transform="translate(6.535)" style="fill:#fff"/>
                <circle data-name="Ellipse 264" cx="1.299" cy="1.299" r="1.299" transform="translate(6.535 6.697)" style="fill:#fff"/>
            </g>
            <g data-name="Group 4064">
                <path data-name="Line 54" style="stroke:#ebb064;fill:none;stroke-linecap:round;stroke-miterlimit:10;stroke-width:3px" d="M0 42.383 42.383 0" transform="translate(341.572 4931.688)"/>
            </g>
            <g data-name="Group 4065">
                <path data-name="Line 55" style="stroke:#ebb064;fill:none;stroke-linecap:round;stroke-miterlimit:10;stroke-width:3px" d="M0 39.588 39.588 0" transform="translate(348.963 4414.519)"/>
            </g>
            <g data-name="Group 4066">
                <path data-name="Line 56" style="stroke:#ebb064;fill:none;stroke-linecap:round;stroke-miterlimit:10;stroke-width:3px" d="M0 32.597 32.622 0" transform="translate(-8.3 4684.068)"/>
            </g>
            <g data-name="Group 4068">
                <path data-name="Line 58" style="stroke:#ebb064;fill:none;stroke-linecap:round;stroke-miterlimit:10;stroke-width:3px" d="M0 29.216 29.241 0" transform="translate(-24.321 4685.758)"/>
            </g>
            <g data-name="Group 4069" transform="translate(260.952 4313.835)">
                <circle data-name="Ellipse 265" cx="2.766" cy="2.766" style="fill:#fff" r="2.766"/>
            </g>
            <g data-name="Group 4070" transform="translate(54.7 4335.99)">
                <circle data-name="Ellipse 266" cx="2.766" cy="2.766" style="fill:#fff" r="2.766"/>
            </g>
            <g data-name="Group 4089" transform="translate(81.959 5014.99)">
                <circle data-name="Ellipse 266" cx="2.766" cy="2.766" style="fill:#fff" r="2.766"/>
            </g>
            <g data-name="Group 4071">
                <path data-name="Path 44607" d="M93.771 430.041c-.724.259-28.4 28.189-38.947 38.9a5.683 5.683 0 0 1-8.12 0 5.776 5.776 0 0 1 0-8.12l8.689-8.689a2.872 2.872 0 0 0 0-4.086 2.872 2.872 0 0 0-4.086 0l-3.621 3.621a6.244 6.244 0 0 1-8.9 0 6.244 6.244 0 0 1 0-8.9 2.685 2.685 0 0 0 0-3.776L28.6 428.8h66.1" transform="translate(289.253 3855.957)" style="fill:#fff"/>
            </g>
            <g data-name="Group 4072">
                <path data-name="Path 44608" d="m639.918 35.8 38.388-38.384a9.093 9.093 0 0 0 0-12.922 9.093 9.093 0 0 0-12.922 0L644.9 5.043a3.159 3.159 0 0 1-4.413 0 3.159 3.159 0 0 1 0-4.412l6.934-7a4.908 4.908 0 0 0 0-7 4.908 4.908 0 0 0-7 0L621.637 5.422c-4.223 4.223-27.99 31.023-32.969 28.375-1.2-.63 15.131-27.366-22.943 7.681-.063.063 74.193-5.232 74.193-5.678z" transform="translate(-599.042 5271.898)" style="fill:#fff"/>
            </g>
            <g data-name="Group 4073">
                <path data-name="Line 59" style="stroke:#f2fdfa;fill:none;stroke-linecap:round;stroke-miterlimit:10;stroke-width:3px" d="M0 36.507 36.507 0" transform="translate(-1.718 4422.7)"/>
            </g>
            <g data-name="Group 4074">
                <path data-name="Line 60" style="stroke:#f2fdfa;fill:none;stroke-linecap:round;stroke-miterlimit:10;stroke-width:3px" d="M24.349 0 0 24.328" transform="translate(350.903 4390.191)"/>
            </g>
            <g data-name="Group 4075">
                <path data-name="Line 61" style="stroke:#f2fdfa;fill:none;stroke-linecap:round;stroke-miterlimit:10;stroke-width:3px" d="M24.349 0 0 24.328" transform="translate(344.408 4461.192)"/>
            </g>
        </g>
    </g>
</svg>
