<svg xmlns="http://www.w3.org/2000/svg" width="375" height="1012" viewBox="0 0 375 1012">
    <defs>
        <clipPath id="et3wq6qcpa">
            <path data-name="Rectangle 2063" transform="translate(0 -345)" style="fill:none" d="M0 0h375v1012H0z"/>
        </clipPath>
    </defs>
    <g data-name="Mask Group 2" transform="translate(0 345)" style="clip-path:url(#et3wq6qcpa)">
        <g data-name="Group 4010" style="opacity:.7">
            <path data-name="Path 44501" d="M376.153-649.279V106.7q-.429.44-.858.925c-9.554 10.63-1.9 14.241-11.458 24.871s-17.2 7.019-26.752 17.649-1.9 14.241-11.45 24.871-17.205 7.019-26.752 17.649-1.911 14.241-11.465 24.871-17.2 7.027-26.752 17.657-1.9 14.234-11.45 24.864-17.205 7.027-26.752 17.657-1.9 14.241-11.458 24.871-5.424 16.152-22.93 16.144-17.213-5.1-23.367-16.776c-6.267-11.849-1.475-13.617-11.029-24.254s-17.205-7.019-26.752-17.649-1.911-14.249-11.465-24.879-17.2-7.019-26.752-17.657-1.9-14.241-11.465-24.871c-9.547-10.63-17.2-7.019-26.752-17.649s-1.9-14.241-11.45-24.871-17.205-7.019-26.752-17.649-1.9-14.241-11.45-24.871a48.865 48.865 0 0 0-.843-.91v-755.972h376.154z" transform="translate(0 302.761)" style="fill:#fff"/>
        </g>
        <g data-name="Group 4018" transform="translate(115.313 550.349)">
            <g data-name="Group 4014">
                <g data-name="Group 4012">
                    <path data-name="Path 44502" d="M196.273 346.63h-10.367a5.208 5.208 0 0 0-5.206 5.206h20.779a5.208 5.208 0 0 0-5.206-5.206z" transform="translate(-160.072 -343.094)" style="fill:#5998db"/>
                    <path data-name="Path 44503" d="M307.253 346.63h-10.367a5.208 5.208 0 0 0-5.206 5.206h20.779a5.208 5.208 0 0 0-5.206-5.206z" transform="translate(-187.561 -343.094)" style="fill:#5998db"/>
                </g>
                <g data-name="Group 4013">
                    <path data-name="Path 44504" d="M234.5 341.93h20.485a5.744 5.744 0 0 1 5.74 5.74v7.741H228.76v-7.741a5.744 5.744 0 0 1 5.74-5.74z" transform="translate(-171.976 -341.93)" style="stroke-width:4.49px;stroke-miterlimit:10;stroke:#9ae4d9;fill:none"/>
                    <path data-name="Line 45" transform="translate(61.215)" style="stroke-width:7.26px;stroke:#5998db;stroke-miterlimit:10;fill:none" d="M0 0h23.096"/>
                </g>
            </g>
            <rect data-name="Rectangle 2052" width="145.519" height="91.909" rx="24.18" transform="translate(0 8.742)" style="fill:#9ae4d9"/>
            <g data-name="Group 4017">
                <g data-name="Group 4015" transform="translate(38.716 28.074)" style="mix-blend-mode:multiply;isolation:isolate;opacity:.18">
                    <circle data-name="Ellipse 101" cx="25.902" cy="25.902" r="25.902" transform="rotate(-66.65 36.168 23.78)" style="fill:#144051"/>
                </g>
                <g data-name="Group 4016" transform="translate(61.652 51.022)">
                    <rect data-name="Rectangle 2053" width="5.499" height="22.216" rx="1.29" transform="translate(8.366)" style="fill:#fff"/>
                    <rect data-name="Rectangle 2054" width="22.216" height="5.499" rx="1.29" transform="translate(0 8.366)" style="fill:#fff"/>
                </g>
            </g>
            <path data-name="Line 46" transform="translate(0 28.7)" style="stroke-width:2.69px;opacity:.26;stroke:#144051;mix-blend-mode:multiply;isolation:isolate;stroke-miterlimit:10;fill:none" d="M0 0h145.526"/>
        </g>
        <g data-name="Group 4047">
            <g data-name="Group 4045">
                <path data-name="Path 44505" d="m246.414 289.287-1.324 1.324a.522.522 0 0 1-.737 0l-1.324-1.324a7.043 7.043 0 0 0-9.562-.481 6.877 6.877 0 0 0-.331 10.043l1.858 1.858 8.99 8.99a1.054 1.054 0 0 0 1.482 0l8.99-8.99 1.858-1.858a6.883 6.883 0 0 0-.331-10.043 7.027 7.027 0 0 0-9.562.481z" transform="translate(-57.247 221.987)" style="fill:#e77974"/>
                <path data-name="Path 44579" d="m246.414 289.287-1.324 1.324a.522.522 0 0 1-.737 0l-1.324-1.324a7.043 7.043 0 0 0-9.562-.481 6.877 6.877 0 0 0-.331 10.043l1.858 1.858 8.99 8.99a1.054 1.054 0 0 0 1.482 0l8.99-8.99 1.858-1.858a6.883 6.883 0 0 0-.331-10.043 7.027 7.027 0 0 0-9.562.481z" transform="translate(-166.844 60.016)" style="fill:#e77974"/>
                <g data-name="Group 4019">
                    <path data-name="Path 44506" d="m127.29 222.373 3.543-5.928a5.147 5.147 0 0 1 7.064-1.775 5.147 5.147 0 0 1 1.775 7.064l-3.543 5.928-8.84-5.281z" transform="translate(-31.53 240.122)" style="fill:#e77974"/>
                    <path data-name="Path 44507" d="m122.339 231.068 3.543-5.928 8.84 5.281-3.543 5.928a5.147 5.147 0 0 1-7.064 1.775 5.147 5.147 0 0 1-1.775-7.064z" transform="translate(-30.122 237.347)" style="fill:#5998db"/>
                </g>
                <g data-name="Group 4048">
                    <path data-name="Path 44506" d="m0 8.436 3.543-5.929A5.147 5.147 0 0 1 10.608.732 5.147 5.147 0 0 1 12.383 7.8L8.84 13.724 0 8.443z" transform="rotate(-71 357.818 13.968)" style="fill:#e77974"/>
                    <path data-name="Path 44507" d="M.732 5.928 4.275 0l8.84 5.281-3.543 5.928a5.147 5.147 0 0 1-7.064 1.775A5.147 5.147 0 0 1 .732 5.921z" transform="rotate(-71 365.863 12.75)" style="fill:#5998db"/>
                </g>
                <g data-name="Group 4020">
                    <path data-name="Path 44508" d="M311.155 301.165a8.3 8.3 0 1 1 0-11.736 8.3 8.3 0 0 1 0 11.736z" transform="translate(-73.563 222.026)" style="fill:#9ae4d9"/>
                    <path data-name="Line 47" transform="translate(225.857 511.462)" style="stroke-width:3.36px;opacity:.15;stroke:#144051;mix-blend-mode:multiply;isolation:isolate;stroke-miterlimit:10;fill:none" d="M11.736 0 0 11.728"/>
                </g>
                <g data-name="Group 4050">
                    <path data-name="Path 44508" d="M311.155 301.165a8.3 8.3 0 1 1 0-11.736 8.3 8.3 0 0 1 0 11.736z" transform="translate(-139.718 78.277)" style="fill:#9ae4d9"/>
                    <path data-name="Line 47" transform="translate(159.702 367.713)" style="stroke-width:3.36px;opacity:.15;stroke:#144051;mix-blend-mode:multiply;isolation:isolate;stroke-miterlimit:10;fill:none" d="M11.736 0 0 11.728"/>
                </g>
                <g data-name="Group 4027">
                    <g data-name="Group 4023" transform="translate(209.634 402.967)">
                        <rect data-name="Rectangle 2055" width="38.443" height="11.059" rx="1.93" transform="rotate(135 15.882 11.16)" style="fill:#9ae4d9"/>
                        <g data-name="Group 4022">
                            <path data-name="Path 44509" d="M318.9 157.979a.7.7 0 1 0-.986 0 .7.7 0 0 0 .986 0z" transform="translate(-288.329 -148.69)" style="stroke-width:.56px;stroke:#fff;stroke-miterlimit:10;fill:#fff"/>
                            <path data-name="Path 44510" d="M313.749 163.139a.7.7 0 1 0-.986 0 .7.7 0 0 0 .986 0z" transform="translate(-287.054 -149.968)" style="stroke-width:.56px;stroke:#fff;stroke-miterlimit:10;fill:#fff"/>
                            <path data-name="Path 44511" d="M313.749 152.829a.7.7 0 1 0-.986 0 .7.7 0 0 0 .986 0z" transform="translate(-287.054 -147.414)" style="stroke-width:.56px;stroke:#fff;stroke-miterlimit:10;fill:#fff"/>
                            <path data-name="Path 44512" d="M308.6 157.979a.7.7 0 1 0-.986 0 .7.7 0 0 0 .986 0z" transform="translate(-285.778 -148.69)" style="stroke-width:.56px;stroke:#fff;stroke-miterlimit:10;fill:#fff"/>
                            <path data-name="Path 44513" d="M313.749 157.979a.7.7 0 1 0-.986 0 .7.7 0 0 0 .986 0z" transform="translate(-287.054 -148.69)" style="stroke-width:.56px;stroke:#fff;stroke-miterlimit:10;fill:#fff"/>
                            <g data-name="Group 4021">
                                <path data-name="Path 44514" d="M295.759 181.129a.7.7 0 1 0-.985 0 .7.7 0 0 0 .985 0z" transform="translate(-282.598 -154.424)" style="stroke-width:.56px;stroke:#fff;stroke-miterlimit:10;fill:#fff"/>
                                <path data-name="Path 44515" d="M289.623 185.293a.7.7 0 1 0 .986 0 .7.7 0 0 0-.986 0z" transform="translate(-281.322 -155.7)" style="stroke-width:.56px;stroke:#fff;stroke-miterlimit:10;fill:#fff"/>
                                <path data-name="Path 44516" d="M290.609 175.969a.7.7 0 1 0-.986 0 .7.7 0 0 0 .986 0z" transform="translate(-281.322 -153.146)" style="stroke-width:.56px;stroke:#fff;stroke-miterlimit:10;fill:#fff"/>
                                <path data-name="Path 44517" d="M285.449 181.129a.7.7 0 1 0-.986 0 .7.7 0 0 0 .986 0z" transform="translate(-280.044 -154.424)" style="stroke-width:.56px;stroke:#fff;stroke-miterlimit:10;fill:#fff"/>
                                <path data-name="Path 44518" d="M290.609 181.129a.7.7 0 1 0-.986 0 .7.7 0 0 0 .986 0z" transform="translate(-281.322 -154.424)" style="stroke-width:.56px;stroke:#fff;stroke-miterlimit:10;fill:#fff"/>
                            </g>
                            <path data-name="Path 44519" d="M307.329 169.559a.7.7 0 1 0-.986 0 .7.7 0 0 0 .986 0z" transform="translate(-285.463 -151.558)" style="stroke-width:.56px;stroke:#fff;stroke-miterlimit:10;fill:#fff"/>
                            <path data-name="Path 44520" d="M302.179 174.709a.7.7 0 1 0-.986 0 .7.7 0 0 0 .986 0z" transform="translate(-284.188 -152.834)" style="stroke-width:.56px;stroke:#fff;stroke-miterlimit:10;fill:#fff"/>
                            <path data-name="Path 44521" d="M302.179 164.4a.7.7 0 1 0-.986 0 .7.7 0 0 0 .986 0z" transform="translate(-284.188 -150.28)" style="stroke-width:.56px;stroke:#fff;stroke-miterlimit:10;fill:#fff"/>
                            <path data-name="Path 44522" d="M297.029 169.559a.7.7 0 1 0-.986 0 .7.7 0 0 0 .986 0z" transform="translate(-282.912 -151.558)" style="stroke-width:.56px;stroke:#fff;stroke-miterlimit:10;fill:#fff"/>
                            <path data-name="Path 44523" d="M302.179 169.559a.7.7 0 1 0-.986 0 .7.7 0 0 0 .986 0z" transform="translate(-284.188 -151.558)" style="stroke-width:.56px;stroke:#fff;stroke-miterlimit:10;fill:#fff"/>
                        </g>
                    </g>
                    <g data-name="Group 4026" transform="translate(209.632 402.966)">
                        <rect data-name="Rectangle 2056" width="11.059" height="38.443" rx="1.93" transform="rotate(-45 9.44 3.91)" style="fill:#5998db"/>
                        <rect data-name="Rectangle 2057" width="10.239" height="8.426" rx=".61" transform="rotate(45 -4.736 25.81)" style="fill:#5998db"/>
                        <g data-name="Group 4025" transform="translate(4.218 4.226)">
                            <path data-name="Path 44524" d="M290.609 151.843a.7.7 0 1 0 0 .986.7.7 0 0 0 0-.986z" transform="translate(-285.538 -151.64)" style="stroke-width:.56px;stroke:#fff;stroke-miterlimit:10;fill:#fff"/>
                            <path data-name="Path 44525" d="M295.759 157a.7.7 0 1 0 0 .986.7.7 0 0 0 0-.986z" transform="translate(-286.814 -152.918)" style="stroke-width:.56px;stroke:#fff;stroke-miterlimit:10;fill:#fff"/>
                            <path data-name="Path 44526" d="M285.449 157a.7.7 0 1 0 0 .986.7.7 0 0 0 0-.986z" transform="translate(-284.26 -152.918)" style="stroke-width:.56px;stroke:#fff;stroke-miterlimit:10;fill:#fff"/>
                            <circle data-name="Ellipse 102" cx=".692" cy=".692" r=".692" transform="translate(3.882 7.756)" style="stroke-width:.56px;stroke:#fff;stroke-miterlimit:10;fill:#fff"/>
                            <path data-name="Path 44527" d="M290.609 157a.7.7 0 1 0 0 .986.7.7 0 0 0 0-.986z" transform="translate(-285.538 -152.918)" style="stroke-width:.56px;stroke:#fff;stroke-miterlimit:10;fill:#fff"/>
                            <g data-name="Group 4024">
                                <path data-name="Path 44528" d="M313.749 174.993a.7.7 0 1 0 0 .986.7.7 0 0 0 0-.986z" transform="translate(-291.27 -157.374)" style="stroke-width:.56px;stroke:#fff;stroke-miterlimit:10;fill:#fff"/>
                                <path data-name="Path 44529" d="M317.923 181.129a.7.7 0 1 0 0-.986.7.7 0 0 0 0 .986z" transform="translate(-292.548 -158.65)" style="stroke-width:.56px;stroke:#fff;stroke-miterlimit:10;fill:#fff"/>
                                <path data-name="Path 44530" d="M308.6 180.143a.7.7 0 1 0 0 .986.7.7 0 0 0 0-.986z" transform="translate(-289.994 -158.65)" style="stroke-width:.56px;stroke:#fff;stroke-miterlimit:10;fill:#fff"/>
                                <path data-name="Path 44531" d="M313.749 185.293a.7.7 0 1 0 0 .985.7.7 0 0 0 0-.985z" transform="translate(-291.27 -159.925)" style="stroke-width:.56px;stroke:#fff;stroke-miterlimit:10;fill:#fff"/>
                                <path data-name="Path 44532" d="M313.749 180.143a.7.7 0 1 0 0 .986.7.7 0 0 0 0-.986z" transform="translate(-291.27 -158.65)" style="stroke-width:.56px;stroke:#fff;stroke-miterlimit:10;fill:#fff"/>
                            </g>
                            <path data-name="Path 44533" d="M302.179 163.423a.7.7 0 1 0 0 .985.7.7 0 0 0 0-.985z" transform="translate(-288.404 -154.508)" style="stroke-width:.56px;stroke:#fff;stroke-miterlimit:10;fill:#fff"/>
                            <path data-name="Path 44534" d="M307.329 168.573a.7.7 0 1 0 0 .986.7.7 0 0 0 0-.986z" transform="translate(-289.679 -155.784)" style="stroke-width:.56px;stroke:#fff;stroke-miterlimit:10;fill:#fff"/>
                            <path data-name="Path 44535" d="M297.029 168.573a.7.7 0 1 0 0 .986.7.7 0 0 0 0-.986z" transform="translate(-287.128 -155.784)" style="stroke-width:.56px;stroke:#fff;stroke-miterlimit:10;fill:#fff"/>
                            <path data-name="Path 44536" d="M302.179 173.723a.7.7 0 1 0 0 .986.7.7 0 0 0 0-.986z" transform="translate(-288.404 -157.06)" style="stroke-width:.56px;stroke:#fff;stroke-miterlimit:10;fill:#fff"/>
                            <path data-name="Path 44537" d="M302.179 168.573a.7.7 0 1 0 0 .986.7.7 0 0 0 0-.986z" transform="translate(-288.404 -155.784)" style="stroke-width:.56px;stroke:#fff;stroke-miterlimit:10;fill:#fff"/>
                        </g>
                    </g>
                </g>
                <g data-name="Group 4029">
                    <path data-name="Line 48" transform="translate(168.501 439)" style="stroke-width:1.02px;stroke-miterlimit:10;stroke:#9ae4d9;fill:none" d="M0 26.135 8.877 0"/>
                    <path data-name="Path 44538" d="m224 232.811-5.387-1.828a.37.37 0 0 0-.466.226l-1.324 3.9 6.079 2.061 1.324-3.9a.37.37 0 0 0-.226-.47z" transform="translate(-53.705 235.905)" style="fill:#5998db"/>
                    <path data-name="Path 44539" d="m223.977 226.051-.542-.181-3.325 4.085 4.01 1.362z" transform="translate(-54.52 237.166)" style="fill:#5998db"/>
                    <path data-name="Path 44540" d="M1.873 0h8.208a1.873 1.873 0 0 1 1.873 1.873V41.3H0V1.873A1.873 1.873 0 0 1 1.873 0z" transform="rotate(18.74 -1340.73 719.428)" style="fill:#9ae4d9"/>
                    <path data-name="Path 44541" d="M.609 0H1.67a.607.607 0 0 1 .609.609V18.2a.607.607 0 0 1-.609.609H.609A.607.607 0 0 1 0 18.2V.609A.607.607 0 0 1 .609 0z" transform="rotate(-71.22 427.335 154.382)" style="fill:#5998db"/>
                    <path data-name="Path 44542" d="M.609 0H1.67a.607.607 0 0 1 .609.609v11.646a.607.607 0 0 1-.609.609H.609A.607.607 0 0 1 0 12.255V.609A.607.607 0 0 1 .609 0z" transform="rotate(-71.22 435.856 161.892)" style="fill:#5998db"/>
                    <path data-name="Rectangle 2058" transform="rotate(-71.22 436.381 159.1)" style="fill:#5998db" d="M0 0h10.608v8.087H0z"/>
                    <g data-name="Group 4028">
                        <path data-name="Line 49" transform="translate(165.364 477.277)" style="stroke-width:.93px;stroke:#fff;stroke-miterlimit:10;fill:none" d="m0 0 4.777 1.625"/>
                        <path data-name="Line 50" transform="translate(162.926 484.454)" style="stroke-width:.93px;stroke:#fff;stroke-miterlimit:10;fill:none" d="m0 0 4.77 1.625"/>
                        <path data-name="Line 51" transform="translate(160.489 491.631)" style="stroke-width:.93px;stroke:#fff;stroke-miterlimit:10;fill:none" d="m0 0 4.77 1.625"/>
                        <path data-name="Line 52" transform="translate(158.051 498.808)" style="stroke-width:.93px;stroke:#fff;stroke-miterlimit:10;fill:none" d="m0 0 4.77 1.625"/>
                        <path data-name="Line 53" transform="translate(155.614 505.985)" style="stroke-width:.93px;stroke:#fff;stroke-miterlimit:10;fill:none" d="m0 0 4.77 1.625"/>
                    </g>
                </g>
                <g data-name="Group 4032">
                    <path data-name="Path 44543" d="M283.423 213.894a12.818 12.818 0 0 0-9.622-.384 12.486 12.486 0 0 0-18.815 7.982c-1.264 4.965-.715 12.541 8.787 20.764a4.777 4.777 0 0 0 5.018.767l2.122-.918 1.9 1.324a4.756 4.756 0 0 0 5.07.256c10.954-6.154 13.007-13.474 12.767-18.589a12.91 12.91 0 0 0-7.222-11.2z" transform="translate(-63.036 240.694)" style="fill:#e77974"/>
                    <g data-name="Group 4031">
                        <path data-name="Path 44544" d="M270.369 202.945a.551.551 0 0 1 .474-.617 7.074 7.074 0 0 1 7.967 6.056.551.551 0 0 1-.474.617 7.074 7.074 0 0 1-7.967-6.056z" transform="translate(-66.968 243.014)" style="fill:#5fcec6"/>
                        <g data-name="Group 4030">
                            <path data-name="Path 44545" d="M279.962 215.451s-.5-5.507 3.054-8.411" transform="translate(-69.34 241.831)" style="stroke-width:2.1px;stroke-linecap:round;stroke:#144051;stroke-miterlimit:10;fill:none"/>
                            <path data-name="Path 44546" d="M281.809 217.212c-.075.775-1.264 1.286-2.648 1.144s-2.445-.88-2.362-1.655" transform="translate(-68.561 239.438)" style="stroke-width:.88px;stroke-linecap:round;stroke:#144051;stroke-miterlimit:10;fill:none"/>
                        </g>
                    </g>
                </g>
                <g data-name="Group 4035" transform="translate(84.945 503.071)">
                    <circle data-name="Ellipse 103" cx="17.596" cy="17.596" r="17.596" transform="rotate(-49.97 28.915 13.474)" style="fill:#ebb064"/>
                    <g data-name="Group 4034">
                        <path data-name="Path 44547" d="M137.159 283.052a.317.317 0 0 0-.3-.324 5.752 5.752 0 0 0-5.988 5.507.317.317 0 0 0 .3.323 5.752 5.752 0 0 0 5.988-5.506z" transform="translate(-117.361 -279.987)" style="fill:#9ae4d9"/>
                        <g data-name="Group 4033">
                            <path data-name="Path 44548" d="M133.661 294.27s-3.987-3.6-3.363-8.02" transform="translate(-117.203 -280.861)" style="stroke-width:2.04px;stroke-linecap:round;stroke:#144051;stroke-miterlimit:10;fill:none"/>
                            <path data-name="Path 44549" d="M135.442 294.01c.451.6-.053 1.753-1.136 2.565s-2.325.986-2.776.376" transform="translate(-117.524 -282.783)" style="stroke-width:.85px;stroke-linecap:round;stroke:#144051;stroke-miterlimit:10;fill:none"/>
                        </g>
                    </g>
                </g>
                <g data-name="Group 4049" transform="translate(307.701 320.645)">
                    <circle data-name="Ellipse 103" cx="14.014" cy="14.014" transform="rotate(-130.02 18.218 15.542)" style="fill:#ebb064" r="14.014"/>
                    <g data-name="Group 4034">
                        <path data-name="Path 44547" d="M130.87 282.985a.252.252 0 0 1 .24-.258 4.581 4.581 0 0 1 4.769 4.386.252.252 0 0 1-.24.258 4.581 4.581 0 0 1-4.769-4.386z" transform="translate(-107.148 -280.544)" style="fill:#9ae4d9"/>
                        <g data-name="Group 4033">
                            <path data-name="Path 44548" d="M130.232 292.637s3.176-2.87 2.678-6.387" transform="translate(-103.85 -281.958)" style="stroke-width:2.04px;stroke-linecap:round;stroke:#144051;stroke-miterlimit:10;fill:none"/>
                            <path data-name="Path 44549" d="M131.662 294.01c-.359.479.042 1.4.9 2.043s1.851.785 2.211.3" transform="translate(-106.442 -285.069)" style="stroke-width:.85px;stroke-linecap:round;stroke:#144051;stroke-miterlimit:10;fill:none"/>
                        </g>
                    </g>
                </g>
                <g data-name="Group 4037" transform="translate(118.93 420.219)">
                    <g data-name="Group 4036">
                        <path data-name="Path 44550" d="m174.7 175.847-1.5-3.047-12.308 6.094 1.5 3.047a1.5 1.5 0 0 1-.677 2.009l-.91.451a2 2 0 0 0-.9 2.678l11.631 23.495a2 2 0 0 0 2.678.9l16.814-8.32a2 2 0 0 0 .9-2.678L180.3 176.983a2 2 0 0 0-2.678-.9l-.91.451a1.5 1.5 0 0 1-2.009-.677z" transform="translate(-158.486 -169.908)" style="fill:#5998db"/>
                        <path data-name="Rectangle 2059" transform="rotate(-26.34 49.109 2.828)" style="fill:#e77974" d="M0 0h22.757v15.159H0z"/>
                        <path data-name="Path 44551" d="m182.474 196.628-1.55.767a.457.457 0 0 1-.617-.211l-.767-1.55a.464.464 0 0 0-.617-.211l-1.475.73a.464.464 0 0 0-.211.617l.767 1.55a.457.457 0 0 1-.211.617l-1.55.767a.464.464 0 0 0-.211.617l.73 1.475a.464.464 0 0 0 .617.211l1.55-.767a.457.457 0 0 1 .617.211l.767 1.55a.464.464 0 0 0 .617.211l1.475-.73a.464.464 0 0 0 .211-.617l-.767-1.55a.457.457 0 0 1 .211-.617l1.55-.767a.464.464 0 0 0 .211-.617l-.73-1.475a.464.464 0 0 0-.617-.211z" transform="translate(-162.522 -175.5)" style="fill:#fff"/>
                    </g>
                    <rect data-name="Rectangle 2060" width="16.566" height="5.108" rx="1.46" transform="rotate(-26.34 15.705 3.675)" style="fill:#9ae4d9"/>
                </g>
                <g data-name="Group 4044">
                    <g data-name="Group 4041">
                        <path data-name="Path 44552" d="M414.451 163.776c-7.756 14.264-21.937 21.539-31.68 16.242s-11.345-21.155-3.589-35.419" transform="translate(-92.705 257.296)" style="stroke-width:3.18px;stroke-miterlimit:10;stroke:#9ae4d9;fill:none"/>
                        <g data-name="Group 4040">
                            <g data-name="Group 4038">
                                <path data-name="Path 44553" d="M381.221 143.752a.462.462 0 0 1-.309-.12 4.045 4.045 0 0 1 3.754-6.906.44.44 0 0 1 .3.263.473.473 0 0 1-.015.391l-3.34 6.146a.45.45 0 0 1-.391.233z" transform="translate(-94.021 259.28)" style="fill:#5998db"/>
                                <path data-name="Path 44554" d="M383.513 136.855a3.47 3.47 0 0 1 .925.12.055.055 0 0 1 .038.038.052.052 0 0 1 0 .038l-3.34 6.146a.056.056 0 0 1-.045.023.044.044 0 0 1-.038-.015 3.654 3.654 0 0 1 2.46-6.357m0-.8a4.448 4.448 0 0 0-2.994 7.741.852.852 0 0 0 .579.226.839.839 0 0 0 .745-.444l3.34-6.146a.851.851 0 0 0-.534-1.226 4.474 4.474 0 0 0-1.128-.15z" transform="translate(-93.891 259.414)" style="fill:#5998db"/>
                            </g>
                            <g data-name="Group 4039">
                                <path data-name="Path 44555" d="M427.17 168.189a4 4 0 0 1-1.031-.135.44.44 0 0 1-.3-.263.472.472 0 0 1 .015-.391l3.34-6.146a.45.45 0 0 1 .391-.233.462.462 0 0 1 .308.12 4.046 4.046 0 0 1-2.723 7.042z" transform="translate(-105.469 253.229)" style="fill:#5998db"/>
                                <path data-name="Path 44556" d="M429.461 161.287a.128.128 0 0 1 .038.015 3.648 3.648 0 0 1-2.46 6.349 3.471 3.471 0 0 1-.925-.12.055.055 0 0 1-.038-.038.052.052 0 0 1 0-.038l3.34-6.146a.056.056 0 0 1 .045-.023m0-.8a.839.839 0 0 0-.745.444l-3.34 6.146a.851.851 0 0 0 .534 1.226 4.446 4.446 0 0 0 4.123-7.591.852.852 0 0 0-.579-.226z" transform="translate(-105.338 253.36)" style="fill:#5998db"/>
                            </g>
                        </g>
                    </g>
                    <g data-name="Group 4043">
                        <path data-name="Path 44557" d="M376.358 191.68s-24.345 18.7-15.046 47.929c12.8 40.233-12.962 55.528-12.962 55.528" transform="translate(-86.285 245.635)" style="stroke-width:3.18px;stroke-miterlimit:10;stroke:#9ae4d9;fill:none"/>
                        <path data-name="Path 44558" d="M360.415 224.68a41.491 41.491 0 0 0 .888 23.1c12.8 40.233-12.962 55.528-12.962 55.528" transform="translate(-86.282 237.461)" style="stroke-width:4.24px;stroke-linecap:round;stroke:#5998db;stroke-miterlimit:10;fill:none"/>
                        <g data-name="Group 4042">
                            <path data-name="Path 44559" d="M352.081 329.1a6.241 6.241 0 1 1-4.875-7.358 6.241 6.241 0 0 1 4.875 7.358z" transform="translate(-84.148 213.451)" style="stroke-width:1.06px;stroke:#5998db;stroke-miterlimit:10;fill:#5998db"/>
                            <path data-name="Path 44560" d="M350.722 329.36a4.153 4.153 0 1 1-3.242-4.9 4.151 4.151 0 0 1 3.242 4.9z" transform="translate(-84.835 212.766)" style="stroke-width:.43px;stroke:#fff;stroke-miterlimit:10;fill:#fff"/>
                        </g>
                    </g>
                </g>
            </g>
            <g data-name="Group 4046" transform="translate(9.592 278.429)" style="opacity:.57">
                <path data-name="Path 44561" d="m54.92 154.683-5.228-1.283a1.444 1.444 0 0 1-1.061-1.745l1.279-5.229a1.444 1.444 0 0 0-1.061-1.745l-4.98-1.219a1.444 1.444 0 0 0-1.745 1.061l-1.279 5.229a1.444 1.444 0 0 1-1.745 1.061l-5.229-1.279a1.445 1.445 0 0 0-1.745 1.061l-1.219 4.98a1.445 1.445 0 0 0 1.061 1.745l5.232 1.28a1.445 1.445 0 0 1 1.061 1.745l-1.279 5.228a1.445 1.445 0 0 0 1.061 1.745l4.98 1.219a1.445 1.445 0 0 0 1.745-1.061l1.279-5.229a1.445 1.445 0 0 1 1.745-1.061l5.229 1.279a1.445 1.445 0 0 0 1.745-1.061l1.219-4.98a1.445 1.445 0 0 0-1.065-1.741z" transform="translate(-17.237 -20.841)" style="opacity:.37;fill:#5ec1f7"/>
                <path data-name="Path 44578" d="m54.92 154.683-5.228-1.283a1.444 1.444 0 0 1-1.061-1.745l1.279-5.229a1.444 1.444 0 0 0-1.061-1.745l-4.98-1.219a1.444 1.444 0 0 0-1.745 1.061l-1.279 5.229a1.444 1.444 0 0 1-1.745 1.061l-5.229-1.279a1.445 1.445 0 0 0-1.745 1.061l-1.219 4.98a1.445 1.445 0 0 0 1.061 1.745l5.232 1.28a1.445 1.445 0 0 1 1.061 1.745l-1.279 5.228a1.445 1.445 0 0 0 1.061 1.745l4.98 1.219a1.445 1.445 0 0 0 1.745-1.061l1.279-5.229a1.445 1.445 0 0 1 1.745-1.061l5.229 1.279a1.445 1.445 0 0 0 1.745-1.061l1.219-4.98a1.445 1.445 0 0 0-1.065-1.741z" transform="translate(87.299 -143.425)" style="opacity:.37;fill:#5ec1f7"/>
                <path data-name="Path 44562" d="m427.693 110.807-5.311.85a1.435 1.435 0 0 1-1.648-1.2l-.85-5.311a1.437 1.437 0 0 0-1.648-1.2l-5.063.8a1.437 1.437 0 0 0-1.2 1.648l.85 5.311a1.435 1.435 0 0 1-1.2 1.648l-5.311.85a1.437 1.437 0 0 0-1.2 1.648l.8 5.063a1.437 1.437 0 0 0 1.647 1.2l5.311-.85a1.435 1.435 0 0 1 1.648 1.2l.85 5.311a1.437 1.437 0 0 0 1.648 1.2l5.063-.8a1.437 1.437 0 0 0 1.2-1.648l-.85-5.311a1.435 1.435 0 0 1 1.2-1.648l5.311-.85a1.437 1.437 0 0 0 1.2-1.648l-.8-5.063a1.437 1.437 0 0 0-1.648-1.2z" transform="translate(-109.934 -11.06)" style="opacity:.37;fill:#5ec1f7"/>
                <path data-name="Path 44570" d="m427.693 110.807-5.311.85a1.435 1.435 0 0 1-1.648-1.2l-.85-5.311a1.437 1.437 0 0 0-1.648-1.2l-5.063.8a1.437 1.437 0 0 0-1.2 1.648l.85 5.311a1.435 1.435 0 0 1-1.2 1.648l-5.311.85a1.437 1.437 0 0 0-1.2 1.648l.8 5.063a1.437 1.437 0 0 0 1.647 1.2l5.311-.85a1.435 1.435 0 0 1 1.648 1.2l.85 5.311a1.437 1.437 0 0 0 1.648 1.2l5.063-.8a1.437 1.437 0 0 0 1.2-1.648l-.85-5.311a1.435 1.435 0 0 1 1.2-1.648l5.311-.85a1.437 1.437 0 0 0 1.2-1.648l-.8-5.063a1.437 1.437 0 0 0-1.648-1.2z" transform="translate(-303.02 -23.59)" style="opacity:.37;fill:#5ec1f7"/>
                <path data-name="Path 44577" d="m427.693 110.807-5.311.85a1.435 1.435 0 0 1-1.648-1.2l-.85-5.311a1.437 1.437 0 0 0-1.648-1.2l-5.063.8a1.437 1.437 0 0 0-1.2 1.648l.85 5.311a1.435 1.435 0 0 1-1.2 1.648l-5.311.85a1.437 1.437 0 0 0-1.2 1.648l.8 5.063a1.437 1.437 0 0 0 1.647 1.2l5.311-.85a1.435 1.435 0 0 1 1.648 1.2l.85 5.311a1.437 1.437 0 0 0 1.648 1.2l5.063-.8a1.437 1.437 0 0 0 1.2-1.648l-.85-5.311a1.435 1.435 0 0 1 1.2-1.648l5.311-.85a1.437 1.437 0 0 0 1.2-1.648l-.8-5.063a1.437 1.437 0 0 0-1.648-1.2z" transform="translate(-382.412 -91.357)" style="opacity:.37;fill:#5ec1f7"/>
                <circle data-name="Ellipse 104" cx="11.322" cy="11.322" r="11.322" transform="translate(68.858 123.836)" style="stroke:#5ec1f7;stroke-width:5px;opacity:.37;stroke-miterlimit:10;fill:none"/>
                <circle data-name="Ellipse 106" cx="11.322" cy="11.322" r="11.322" transform="translate(182.98 72.642)" style="stroke:#5ec1f7;stroke-width:5px;opacity:.37;stroke-miterlimit:10;fill:none"/>
                <path data-name="Path 44563" d="M68.833 117.281a6.726 6.726 0 1 1 11.593-6.823" transform="translate(-26.411 -11.854)" style="stroke:#5ec1f7;stroke-width:5px;opacity:.37;stroke-linecap:round;stroke-miterlimit:10;fill:none"/>
                <path data-name="Path 44564" d="M329.96 259.46a6.728 6.728 0 1 1-7.41 11.232" transform="translate(-89.486 -49.583)" style="stroke:#5ec1f7;stroke-width:5px;opacity:.37;stroke-linecap:round;stroke-miterlimit:10;fill:none"/>
                <path data-name="Path 44575" d="M329.96 259.46a6.728 6.728 0 1 1-7.41 11.232" transform="translate(-71.301 -185.287)" style="stroke:#5ec1f7;stroke-width:5px;opacity:.37;stroke-linecap:round;stroke-miterlimit:10;fill:none"/>
                <path data-name="Path 44565" d="M350.187 197.032a6.725 6.725 0 0 1-7.215-11.352" transform="translate(-93.772 -31.308)" style="stroke:#5ec1f7;stroke-width:5px;opacity:.37;stroke-linecap:round;stroke-miterlimit:10;fill:none"/>
                <path data-name="Path 44573" d="M350.187 197.032a6.725 6.725 0 0 1-7.215-11.352" transform="translate(-189.902 -127.574)" style="stroke:#5ec1f7;stroke-width:5px;opacity:.37;stroke-linecap:round;stroke-miterlimit:10;fill:none"/>
                <path data-name="Path 44566" d="M87.619 212.9a6.727 6.727 0 0 1-5.349 12.345" transform="translate(-29.97 -38.05)" style="stroke:#5ec1f7;stroke-width:5px;opacity:.37;stroke-linecap:round;stroke-miterlimit:10;fill:none"/>
                <circle data-name="Ellipse 105" cx="8.23" cy="8.23" r="8.23" transform="translate(278.691 179.281)" style="stroke:#5ec1f7;stroke-width:5px;opacity:.37;stroke-miterlimit:10;fill:none"/>
                <circle data-name="Ellipse 107" cx="8.23" cy="8.23" r="8.23" transform="translate(321.06 8.648)" style="stroke:#5ec1f7;stroke-width:5px;opacity:.37;stroke-miterlimit:10;fill:none"/>
                <path data-name="Path 44567" d="m462.086 154.341-11.255 8.87a1.816 1.816 0 0 0 .451 3.115l13.308 5.311a1.813 1.813 0 0 0 2.468-1.948l-2.054-14.181a1.814 1.814 0 0 0-2.918-1.167z" transform="translate(-121.089 -23.448)" style="opacity:.37;fill:#5ec1f7"/>
                <path data-name="Path 44568" d="m229.81 160.622-6.357-12.834a1.815 1.815 0 0 0-3.137-.2l-7.937 11.924a1.818 1.818 0 0 0 1.4 2.821l14.294.91a1.82 1.82 0 0 0 1.745-2.618z" transform="translate(-62.121 -21.671)" style="opacity:.37;fill:#5ec1f7"/>
                <path data-name="Path 44571" d="m229.81 160.622-6.357-12.834a1.815 1.815 0 0 0-3.137-.2l-7.937 11.924a1.818 1.818 0 0 0 1.4 2.821l14.294.91a1.82 1.82 0 0 0 1.745-2.618z" transform="translate(-152.181 -104.519)" style="opacity:.37;fill:#5ec1f7"/>
                <path data-name="Path 44569" d="m168.435 266.489 7.162-12.406a1.815 1.815 0 0 0-1.572-2.723H159.7a1.815 1.815 0 0 0-1.572 2.723l7.162 12.406a1.815 1.815 0 0 0 3.145 0z" transform="translate(-48.699 -47.576)" style="opacity:.37;fill:#5ec1f7"/>
                <path data-name="Path 44576" d="m168.435 266.489 7.162-12.406a1.815 1.815 0 0 0-1.572-2.723H159.7a1.815 1.815 0 0 0-1.572 2.723l7.162 12.406a1.815 1.815 0 0 0 3.145 0z" transform="translate(198.28 -200.869)" style="opacity:.37;fill:#5ec1f7"/>
                <path data-name="Path 44574" d="m168.435 266.489 7.162-12.406a1.815 1.815 0 0 0-1.572-2.723H159.7a1.815 1.815 0 0 0-1.572 2.723l7.162 12.406a1.815 1.815 0 0 0 3.145 0z" transform="translate(66.201 -220.953)" style="opacity:.37;fill:#5ec1f7"/>
                <path data-name="Path 44572" d="m168.435 266.489 7.162-12.406a1.815 1.815 0 0 0-1.572-2.723H159.7a1.815 1.815 0 0 0-1.572 2.723l7.162 12.406a1.815 1.815 0 0 0 3.145 0z" transform="translate(-157.882 -187.052)" style="opacity:.37;fill:#5ec1f7"/>
            </g>
        </g>
    </g>
</svg>
