<svg xmlns="http://www.w3.org/2000/svg" width="1366" height="381" viewBox="0 0 1366 381">
    <defs>
        <clipPath id="61m2dfuy7a">
            <path data-name="Rectangle 2044" transform="translate(0 4280)" style="fill:#f7f5f5" d="M0 0h1366v381H0z"/>
        </clipPath>
    </defs>
    <g data-name="Mask Group 3" transform="translate(0 -4280)" style="clip-path:url(#61m2dfuy7a)">
        <g data-name="Group 4097" transform="translate(8.321 4449.276)" style="opacity:.57">
            <path data-name="Path 44561" d="m74.708 163.944-9.53-2.331a2.633 2.633 0 0 1-1.933-3.181l2.331-9.53a2.633 2.633 0 0 0-1.933-3.181l-9.077-2.221a2.633 2.633 0 0 0-3.181 1.933l-2.331 9.53a2.633 2.633 0 0 1-3.181 1.933l-9.53-2.331a2.633 2.633 0 0 0-3.181 1.933l-2.221 9.077a2.633 2.633 0 0 0 1.933 3.181l9.53 2.331a2.633 2.633 0 0 1 1.933 3.181l-2.331 9.53a2.633 2.633 0 0 0 1.933 3.181l9.077 2.221a2.633 2.633 0 0 0 3.181-1.933l2.331-9.53a2.633 2.633 0 0 1 3.181-1.933l9.53 2.331a2.633 2.633 0 0 0 3.181-1.935l2.221-9.077a2.633 2.633 0 0 0-1.933-3.179z" transform="translate(31.33 -58.214)" style="opacity:.37;fill:#80c6bf"/>
            <path data-name="Path 44578" d="m74.708 163.944-9.53-2.331a2.633 2.633 0 0 1-1.933-3.181l2.331-9.53a2.633 2.633 0 0 0-1.933-3.181l-9.077-2.221a2.633 2.633 0 0 0-3.181 1.933l-2.331 9.53a2.633 2.633 0 0 1-3.181 1.933l-9.53-2.331a2.633 2.633 0 0 0-3.181 1.933l-2.221 9.077a2.633 2.633 0 0 0 1.933 3.181l9.53 2.331a2.633 2.633 0 0 1 1.933 3.181l-2.331 9.53a2.633 2.633 0 0 0 1.933 3.181l9.077 2.221a2.633 2.633 0 0 0 3.181-1.933l2.331-9.53a2.633 2.633 0 0 1 3.181-1.933l9.53 2.331a2.633 2.633 0 0 0 3.181-1.935l2.221-9.077a2.633 2.633 0 0 0-1.933-3.179z" transform="translate(643.813 -327.702)" style="opacity:.37;fill:#80c6bf"/>
            <path data-name="Path 44562" d="m446.274 116.461-9.68 1.549a2.615 2.615 0 0 1-3-2.18l-1.549-9.68a2.619 2.619 0 0 0-3-2.18l-9.228 1.467a2.619 2.619 0 0 0-2.18 3l1.549 9.68a2.615 2.615 0 0 1-2.18 3l-9.68 1.549a2.619 2.619 0 0 0-2.18 3l1.467 9.228a2.619 2.619 0 0 0 3 2.18l9.68-1.549a2.615 2.615 0 0 1 3 2.18l1.549 9.68a2.619 2.619 0 0 0 3 2.18l9.228-1.467a2.619 2.619 0 0 0 2.18-3l-1.549-9.68a2.615 2.615 0 0 1 2.18-3l9.68-1.549a2.619 2.619 0 0 0 2.18-3l-1.467-9.228a2.619 2.619 0 0 0-3-2.18z" transform="translate(762.332 -143.014)" style="opacity:.37;fill:#80c6bf"/>
            <path data-name="Path 44570" d="m446.274 116.461-9.68 1.549a2.615 2.615 0 0 1-3-2.18l-1.549-9.68a2.619 2.619 0 0 0-3-2.18l-9.228 1.467a2.619 2.619 0 0 0-2.18 3l1.549 9.68a2.615 2.615 0 0 1-2.18 3l-9.68 1.549a2.619 2.619 0 0 0-2.18 3l1.467 9.228a2.619 2.619 0 0 0 3 2.18l9.68-1.549a2.615 2.615 0 0 1 3 2.18l1.549 9.68a2.619 2.619 0 0 0 3 2.18l9.228-1.467a2.619 2.619 0 0 0 2.18-3l-1.549-9.68a2.615 2.615 0 0 1 2.18-3l9.68-1.549a2.619 2.619 0 0 0 2.18-3l-1.467-9.228a2.619 2.619 0 0 0-3-2.18z" transform="translate(-75.881 -126.772)" style="opacity:.37;fill:#80c6bf"/>
            <path data-name="Path 44577" d="m446.274 116.461-9.68 1.549a2.615 2.615 0 0 1-3-2.18l-1.549-9.68a2.619 2.619 0 0 0-3-2.18l-9.228 1.467a2.619 2.619 0 0 0-2.18 3l1.549 9.68a2.615 2.615 0 0 1-2.18 3l-9.68 1.549a2.619 2.619 0 0 0-2.18 3l1.467 9.228a2.619 2.619 0 0 0 3 2.18l9.68-1.549a2.615 2.615 0 0 1 3 2.18l1.549 9.68a2.619 2.619 0 0 0 3 2.18l9.228-1.467a2.619 2.619 0 0 0 2.18-3l-1.549-9.68a2.615 2.615 0 0 1 2.18-3l9.68-1.549a2.619 2.619 0 0 0 2.18-3l-1.467-9.228a2.619 2.619 0 0 0-3-2.18z" transform="translate(-319.984 -281.048)" style="opacity:.37;fill:#80c6bf"/>
            <circle data-name="Ellipse 104" cx="20.636" cy="20.636" r="20.636" transform="translate(383.664 108.137)" style="fill:none;stroke:#1aa1a9;stroke-miterlimit:10;stroke-width:5px;opacity:.37"/>
            <circle data-name="Ellipse 106" cx="20.636" cy="20.636" r="20.636" transform="translate(557.664 -16.242)" style="fill:none;stroke:#1aa1a9;stroke-miterlimit:10;stroke-width:5px;opacity:.37"/>
            <path data-name="Path 44563" d="M69.6 125.623a12.259 12.259 0 1 1 21.13-12.436" transform="translate(106.881 -159.206)" style="stroke-linecap:round;fill:none;stroke:#1aa1a9;stroke-miterlimit:10;stroke-width:5px;opacity:.37"/>
            <path data-name="Path 44564" d="M336.056 259.46a12.263 12.263 0 1 1-13.506 20.472" transform="translate(691.399 -57.315)" style="stroke-linecap:round;fill:none;stroke:#1aa1a9;stroke-miterlimit:10;stroke-width:5px;opacity:.37"/>
            <path data-name="Path 44575" d="M336.056 259.46a12.263 12.263 0 1 1-13.506 20.472" transform="translate(626.542 -277.565)" style="stroke-linecap:round;fill:none;stroke:#1aa1a9;stroke-miterlimit:10;stroke-width:5px;opacity:.37"/>
            <path data-name="Path 44565" d="M358.689 206.371a12.258 12.258 0 0 1-13.15-20.691" transform="translate(761.821 -88.846)" style="stroke-linecap:round;fill:none;stroke:#1aa1a9;stroke-miterlimit:10;stroke-width:5px;opacity:.37"/>
            <path data-name="Path 44573" d="M358.689 206.371a12.258 12.258 0 0 1-13.15-20.691" transform="translate(95.447 -314.104)" style="stroke-linecap:round;fill:none;stroke:#1aa1a9;stroke-miterlimit:10;stroke-width:5px;opacity:.37"/>
            <path data-name="Path 44566" d="M92.019 212.9a12.261 12.261 0 0 1-9.749 22.5" transform="translate(106.773 -22.511)" style="stroke-linecap:round;fill:none;stroke:#1aa1a9;stroke-miterlimit:10;stroke-width:5px;opacity:.37"/>
            <circle data-name="Ellipse 105" cx="15.001" cy="15.001" r="15.001" transform="translate(1213.11 194.642)" style="fill:none;stroke:#1aa1a9;stroke-miterlimit:10;stroke-width:5px;opacity:.37"/>
            <circle data-name="Ellipse 107" cx="15.001" cy="15.001" r="15.001" transform="translate(1250.331 -184.277)" style="fill:none;stroke:#1aa1a9;stroke-miterlimit:10;stroke-width:5px;opacity:.37"/>
            <path data-name="Path 44567" d="M471.915 154.663 451.4 170.829a3.31 3.31 0 0 0 .823 5.677l24.256 9.68a3.3 3.3 0 0 0 4.5-3.551l-3.743-25.846a3.307 3.307 0 0 0-5.321-2.126z" transform="translate(839.755 -85.371)" style="opacity:.37;fill:#80c6bf"/>
            <path data-name="Path 44568" d="m244.4 172.011-11.586-23.392a3.308 3.308 0 0 0-5.718-.37l-14.466 21.733a3.313 3.313 0 0 0 2.55 5.142l26.052 1.659a3.317 3.317 0 0 0 3.181-4.772z" transform="translate(635.393 -4.303)" style="opacity:.37;fill:#80c6bf"/>
            <path data-name="Path 44571" d="m244.4 172.011-11.586-23.392a3.308 3.308 0 0 0-5.718-.37l-14.466 21.733a3.313 3.313 0 0 0 2.55 5.142l26.052 1.659a3.317 3.317 0 0 0 3.181-4.772z" transform="translate(635.393 -270.29)" style="opacity:.37;fill:#80c6bf"/>
            <path data-name="Path 44569" d="m177.117 278.934 13.054-22.611a3.307 3.307 0 0 0-2.866-4.964H161.2a3.307 3.307 0 0 0-2.866 4.964l13.054 22.611a3.308 3.308 0 0 0 5.731 0z" transform="translate(420.418 -55.946)" style="opacity:.37;fill:#80c6bf"/>
            <path data-name="Path 44576" d="m177.117 278.934 13.054-22.611a3.307 3.307 0 0 0-2.866-4.964H161.2a3.307 3.307 0 0 0-2.866 4.964l13.054 22.611a3.308 3.308 0 0 0 5.731 0z" transform="translate(1181.428 -328.61)" style="opacity:.37;fill:#80c6bf"/>
            <path data-name="Path 44574" d="m177.117 278.934 13.054-22.611a3.307 3.307 0 0 0-2.866-4.964H161.2a3.307 3.307 0 0 0-2.866 4.964l13.054 22.611a3.308 3.308 0 0 0 5.731 0z" transform="translate(911.054 -389.786)" style="opacity:.37;fill:#80c6bf"/>
            <path data-name="Path 44572" d="m177.117 278.934 13.054-22.611a3.307 3.307 0 0 0-2.866-4.964H161.2a3.307 3.307 0 0 0-2.866 4.964l13.054 22.611a3.308 3.308 0 0 0 5.731 0z" transform="translate(-182.721 -303.427)" style="opacity:.37;fill:#80c6bf"/>
        </g>
    </g>
</svg>
