<svg data-name="MDI / baby-bottle" xmlns="http://www.w3.org/2000/svg" width="40" height="40" viewBox="0 0 40 40">
    <path data-name="Path / baby-bottle" d="m18.735 3.32-.909.909a10 10 0 0 0-7.944-.782l-.145-.127A4.544 4.544 0 0 0 3.32 9.737l.127.145a10 10 0 0 0 .782 7.944l-.909.909a2.727 2.727 0 0 0 0 3.854l2.563 2.581a2.727 2.727 0 0 0 3.854 0l.636-.654 12.87 12.851a2.727 2.727 0 0 0 3.854 0L37.366 27.1a2.727 2.727 0 0 0 0-3.854L24.515 10.373l.654-.636a2.727 2.727 0 0 0 0-3.854L22.588 3.32a2.727 2.727 0 0 0-3.854 0m4.508 4.49L7.81 23.243l-2.563-2.582L20.661 5.247m4.508 14.124-5.8 5.8-1.927-1.927 5.8-5.8m5.78 5.8-5.78 5.78L21.3 27.1l5.8-5.8z" transform="translate(-.164 -.164)" style="fill:#fff"/>
</svg>
