<svg xmlns="http://www.w3.org/2000/svg" width="40" height="40" viewBox="0 0 40 40">
    <g data-name="Group 4088">
        <path data-name="Path / face-woman-shimmer" d="m32 1-1.869 4.131L26 7l4.131 1.869L32 13l1.886-4.131L38 7l-4.114-1.869L32 1M19.143 2.714A17.193 17.193 0 0 0 2 19.857V37h34.286V19.857a17.159 17.159 0 0 0-1.543-7.08l-2.126 4.663a13.7 13.7 0 1 1-27.188 2.417v-.223a17.143 17.143 0 0 0 9.84-9.531 17.143 17.143 0 0 0 13.3 6.326 17.142 17.142 0 0 0 2.28-.154l-2.537-5.589L20.171 7l6.051-2.743a17.159 17.159 0 0 0-7.08-1.543M14 19.429a2.143 2.143 0 1 0 2.143 2.143A2.143 2.143 0 0 0 14 19.429m10.286 0a2.143 2.143 0 1 0 2.143 2.143 2.143 2.143 0 0 0-2.143-2.143z" transform="translate(0 1)" style="fill:#fff"/>
    </g>
</svg>
