<svg data-name="MDI / stethoscope" xmlns="http://www.w3.org/2000/svg" width="30" height="30" viewBox="0 0 30 30">
    <path data-name="Path / face-mask" d="M25.5 6A3.527 3.527 0 0 0 22 9.284l-6.3-1.808a2.386 2.386 0 0 0-1.4 0L8 9.284A3.5 3.5 0 0 0 1 9.5v4.455a3.5 3.5 0 0 0 3.5 3.5h2.456a8.9 8.9 0 0 0 16.087 0H25.5a3.5 3.5 0 0 0 3.5-3.5V9.5A3.5 3.5 0 0 0 25.5 6M6.091 15.545H4.5a1.591 1.591 0 0 1-1.591-1.591V9.5a1.591 1.591 0 1 1 3.182 0v6.045m12.727-1.909-3.309-.891a1.394 1.394 0 0 0-1.018 0l-3.309.891v-1.272l2.927-.891a4.194 4.194 0 0 1 1.782 0l2.927.891v1.273m8.273.318a1.591 1.591 0 0 1-1.591 1.59h-1.591V9.5a1.591 1.591 0 1 1 3.182 0z" transform="translate(0 .727)" style="fill:#e77974"/>
</svg>
