<svg xmlns="http://www.w3.org/2000/svg" width="40" height="40" viewBox="0 0 40 40">
    <g data-name="MDI / car-emergency">
        <path data-name="Path / car-emergency" d="M16.333 0v5h3.333V0h-3.333m-5.2 2.433-2.366 2.35 3.55 3.55 2.35-2.367-3.534-3.533m13.733 0-3.533 3.534 2.35 2.367 3.55-3.534-2.366-2.367M18 8.333a3.333 3.333 0 0 0-3.333 3.333v1.667H8.833A2.5 2.5 0 0 0 6.467 15L3 25v13.333A1.667 1.667 0 0 0 4.667 40h1.666A1.667 1.667 0 0 0 8 38.333v-1.666h20v1.667A1.667 1.667 0 0 0 29.667 40h1.667A1.667 1.667 0 0 0 33 38.333V25l-3.467-10a2.5 2.5 0 0 0-2.367-1.667h-5.833v-1.666A3.333 3.333 0 0 0 18 8.333m-9.167 7.5h18.334l2.5 7.5H6.333l2.5-7.5m0 10.833a2.5 2.5 0 1 1-2.5 2.5 2.5 2.5 0 0 1 2.5-2.5m18.333 0a2.5 2.5 0 1 1-2.5 2.5 2.5 2.5 0 0 1 2.501-2.499z" transform="translate(2)" style="fill:#fff"/>
    </g>
</svg>
