<svg xmlns="http://www.w3.org/2000/svg" width="40" height="40" viewBox="0 0 40 40">
    <g data-name="MDI / alpha-e-box">
        <path data-name="Union 1" d="m-639.464-1487.288 1.1-2.726 4.57-4.57-.842-.836 1.263-1.262 4.19 4.19-1.262 1.263-.836-.842-4.57 4.57-2.726 1.1zm2.11-2.056-.628 1.464 1.464-.628 4.4-4.41-.83-.83zm-25.6-13.383a19.353 19.353 0 0 1 18-12.272 19.353 19.353 0 0 1 18 12.272 19.249 19.249 0 0 1-1.506 3.027 9.791 9.791 0 0 0-5.04-1.391 10 10 0 0 0-3.616.687 7.759 7.759 0 0 0 .344-2.324 8.182 8.182 0 0 0-8.182-8.182 8.182 8.182 0 0 0-8.182 8.182 8.183 8.183 0 0 0 8.182 8.182 7.752 7.752 0 0 0 2.323-.344 10 10 0 0 0-.687 3.616v.737l-1.636.081a19.353 19.353 0 0 1-18.004-12.272zm31.1 6.206 1.138-1.138a1.777 1.777 0 0 1 2.513 0 1.778 1.778 0 0 1 0 2.513l-1.138 1.138zm-18.014-6.206a4.909 4.909 0 0 1 4.909-4.909 4.908 4.908 0 0 1 4.909 4.909 4.909 4.909 0 0 1-4.909 4.909 4.909 4.909 0 0 1-4.908-4.91z" transform="translate(664.958 1520.699)" style="stroke-miterlimit:10;fill:#fff;stroke:transparent"/>
    </g>
</svg>
