<svg xmlns="http://www.w3.org/2000/svg" width="60" height="60" viewBox="0 0 60 60">
    <g data-name="MDI / phone-missed">
        <path data-name="Path / phone-missed" d="M59.275 37.175a42.541 42.541 0 0 0-58.55 0 2.5 2.5 0 0 0 0 3.525l6.2 6.2a2.543 2.543 0 0 0 1.825.75 2.45 2.45 0 0 0 1.7-.725A28.032 28.032 0 0 1 17.1 42.3a2.491 2.491 0 0 0 1.4-2.25V32.3a37.636 37.636 0 0 1 23 0v7.75a2.491 2.491 0 0 0 1.4 2.25 28.032 28.032 0 0 1 6.65 4.625 2.45 2.45 0 0 0 1.7.725 2.543 2.543 0 0 0 1.825-.75l6.2-6.2a2.5 2.5 0 0 0 0-3.525M16.25 9.25 30 23 47.5 5.5 45 3 30 18 18.75 6.75h8.75V3h-15v15h3.75z" transform="translate(0 4.675)" style="fill:#5998db"/>
    </g>
</svg>
