<svg xmlns="http://www.w3.org/2000/svg" width="40" height="40" viewBox="0 0 40 40">
    <g data-name="MDI / paw">
        <path data-name="Path / paw" d="M13.416 3.012c2.115-.3 4.356 2.008 5 5.2.645 3.173-.52 6.005-2.635 6.328-2.1.323-4.356-1.99-5.019-5.181-.663-3.173.538-6.005 2.653-6.346m12.818 0c2.133.341 3.316 3.173 2.689 6.346-.681 3.191-2.922 5.5-5.037 5.181-2.133-.323-3.3-3.155-2.635-6.328.645-3.191 2.886-5.5 4.984-5.2M3.825 11.258c2.044-.878 4.822.717 6.274 3.5 1.362 2.832.9 5.808-1.129 6.687s-4.786-.7-6.2-3.514-.914-5.808 1.058-6.669m32.268 0c1.972.86 2.474 3.854 1.058 6.669s-4.177 4.392-6.2 3.514-2.492-3.854-1.129-6.687c1.452-2.779 4.231-4.374 6.274-3.5M33.1 30.583a4.882 4.882 0 0 1-2.761 4.249c-3.209 1.47-7.009-1.578-10.577-1.578s-7.4 3.173-10.559 1.578a5.431 5.431 0 0 1-2.8-5.145c.323-2.671 3.532-4.105 5.432-6.059 2.528-2.528 4.32-7.278 7.924-7.278 3.585 0 5.486 4.679 7.906 7.278 1.992 2.187 5.309 4.033 5.435 6.955z" transform="translate(.041 .867)" style="fill:#fff"/>
    </g>
</svg>
