<svg data-name="圖層 1" xmlns="http://www.w3.org/2000/svg" width="390" height="57.456" viewBox="0 0 390 57.456">
    <g data-name="Group 4095">
        <g data-name="Group 4090">
            <path data-name="Path 44609" d="M21.582 43.5a25.188 25.188 0 0 1-6.262-.791v9.906c5.337 0 11.388-4.323 11.388-9.65a24.868 24.868 0 0 1-5.126.535z" transform="translate(1.751 4.829)" style="fill:#ef4b81"/>
            <path data-name="Path 44610" d="M42.178 31.16c-.145.279-.29.557-.446.836A25.125 25.125 0 0 1 30.3 42.548h11.878z" transform="translate(3.463 3.522)" style="fill:#ef4b81"/>
            <path data-name="Path 44611" d="M35.479 30.715a14.383 14.383 0 0 1-3.622 3.985 13.94 13.94 0 0 1-3.41 1.881 14.262 14.262 0 0 1-5.126.957 14.079 14.079 0 0 1-6.262-1.458 14.372 14.372 0 0 1-5.694-5.065A14.217 14.217 0 0 1 23.322 9.1a14.4 14.4 0 0 1 12.146 6.82h10A23.34 23.34 0 0 0 11.377 3.3V.568H0v45.5a11.382 11.382 0 0 0 11.388 11.377V43.351a23.22 23.22 0 0 0 11.956 3.284A23.32 23.32 0 0 0 43.713 34.69a23.659 23.659 0 0 0 1.761-3.99H35.49z" style="fill:#2eb6a4"/>
            <path data-name="Path 44612" d="M32.39 15.841a17.065 17.065 0 0 0-17.06 16.536c.245.145.49.267.747.4a12.4 12.4 0 0 0 5.5 1.281 12.186 12.186 0 0 0 4.5-.847 5.993 5.993 0 0 0 .613-.267v-.033a5.7 5.7 0 0 1 5.694-5.694h11.828a23.443 23.443 0 0 0 0-11.388H32.39z" transform="translate(1.752 1.786)" style="fill:#ef4b81"/>
        </g>
        <g data-name="Group 4093">
            <g data-name="Group 4091">
                <path data-name="Path 44613" d="M93.265 36.619a10.388 10.388 0 0 1-5.85-1.727 12.385 12.385 0 0 1-4.156-4.713 14.435 14.435 0 0 1-1.549-6.786 14.679 14.679 0 0 1 1.549-6.853 11.863 11.863 0 0 1 4.234-4.647 11.14 11.14 0 0 1 6.073-1.683 10.235 10.235 0 0 1 4.825 1.081 9.189 9.189 0 0 1 3.3 2.819v-3.365h6.7v22.531a3.353 3.353 0 0 1-3.376 3.343 3.36 3.36 0 0 1-3.376-3.343v-.557a10.717 10.717 0 0 1-3.571 2.781 10.532 10.532 0 0 1-4.8 1.1zm1.827-5.727a6.261 6.261 0 0 0 4.869-2.073 7.789 7.789 0 0 0 1.872-5.438 7.789 7.789 0 0 0-1.872-5.438 6.261 6.261 0 0 0-4.869-2.073 6.105 6.105 0 0 0-4.8 2.073 7.83 7.83 0 0 0-1.85 5.438 7.83 7.83 0 0 0 1.85 5.438 6.121 6.121 0 0 0 4.801 2.072z" transform="translate(8.987 1.167)" style="fill:#515457"/>
                <path data-name="Path 44614" d="M114.475 34.092V17.445h-4.925v-5.917h4.925V3.26h6.7v8.279h5.46v5.917h-5.46V34.1a3.327 3.327 0 0 1-3.343 3.321 3.327 3.327 0 0 1-3.343-3.321z" transform="translate(12.168 .373)" style="fill:#515457"/>
                <path data-name="Path 44615" d="M130.1 36.194V13.073a3.353 3.353 0 0 1 3.376-3.343 3.36 3.36 0 0 1 3.376 3.343v23.121h-6.741z" transform="translate(14.517 1.112)" style="fill:#515457"/>
                <path data-name="Path 44616" d="M154.483 36.622a15.282 15.282 0 0 1-7.332-1.683 12.364 12.364 0 0 1-4.892-4.613 12.841 12.841 0 0 1-1.749-6.73 14.242 14.242 0 0 1 1.694-6.953 12.328 12.328 0 0 1 4.68-4.736 13.339 13.339 0 0 1 6.864-1.727 12.024 12.024 0 0 1 6.273 1.66 11.686 11.686 0 0 1 4.335 4.5 12.563 12.563 0 0 1 1.449 6.5l-.045 2.073h-18.7a6.786 6.786 0 0 0 2.685 4.323 8.886 8.886 0 0 0 5.438 1.582 9.522 9.522 0 0 0 3.22-.524 11.484 11.484 0 0 0 3.12-1.872l3.254 4.424a15.466 15.466 0 0 1-4.847 2.819 15.894 15.894 0 0 1-5.438.981zm-.691-20.781q-5.566 0-6.7 4.9h12.3v-.189a4.644 4.644 0 0 0-1.749-3.387 5.879 5.879 0 0 0-3.867-1.326z" transform="translate(15.707 1.163)" style="fill:#515457"/>
                <path data-name="Path 44617" d="M167.89 33.3V10.734h6.5l.1 3.421a9.97 9.97 0 0 1 3.543-2.841 10.267 10.267 0 0 1 4.624-1.1q8.959 0 8.959 10.385V33.3a3.327 3.327 0 0 1-3.343 3.321 3.327 3.327 0 0 1-3.343-3.321V21.074q0-5.432-4.669-5.237a5.789 5.789 0 0 0-4.011 1.437 4.594 4.594 0 0 0-1.6 3.555v12.458a3.327 3.327 0 0 1-3.343 3.321h-.056a3.327 3.327 0 0 1-3.343-3.321z" transform="translate(18.836 1.167)" style="fill:#515457"/>
                <path data-name="Path 44618" d="M198.025 34.092V17.445H193.1v-5.917h4.925V3.26h6.7v8.279h5.46v5.917h-5.46V34.1a3.327 3.327 0 0 1-3.343 3.321 3.327 3.327 0 0 1-3.343-3.321z" transform="translate(21.717 .373)" style="fill:#515457"/>
                <path data-name="Path 44619" d="M222.36 36.617a16.7 16.7 0 0 1-6.4-1.159 11.137 11.137 0 0 1-4.524-3.276l4.234-3.51a8.674 8.674 0 0 0 3.343 2.284 10.7 10.7 0 0 0 3.789.7 4.079 4.079 0 0 0 2.463-.68 2.169 2.169 0 0 0 .936-1.872 1.977 1.977 0 0 0-.88-1.683 17.354 17.354 0 0 0-4.234-1.437q-4.964-1.254-7.042-3.41a6.659 6.659 0 0 1-1.816-4.758 6.1 6.1 0 0 1 1.382-3.967 9.2 9.2 0 0 1 3.644-2.674 12.562 12.562 0 0 1 4.925-.958 15.742 15.742 0 0 1 5.761 1.059 12.931 12.931 0 0 1 4.524 2.886l-3.644 3.9a12.673 12.673 0 0 0-3.176-2.095 7.993 7.993 0 0 0-3.321-.847q-3.543 0-3.543 2.407a2.194 2.194 0 0 0 1.081 1.827 17.24 17.24 0 0 0 4.479 1.582q4.68 1.2 6.6 3.176a6.08 6.08 0 0 1 1.671 4.468 6.757 6.757 0 0 1-1.348 4.134 9.119 9.119 0 0 1-3.666 2.864 12.593 12.593 0 0 1-5.215 1.036z" transform="translate(23.813 1.168)" style="fill:#515457"/>
                <path data-name="Path 44620" d="M138 4.424A4.457 4.457 0 1 1 133.547 0 4.442 4.442 0 0 1 138 4.424z" transform="translate(14.401)" style="fill:#515457"/>
                <path data-name="Path 44621" d="M80.864 9.316a12.713 12.713 0 0 0-4.869-4.691 15.38 15.38 0 0 0-13.672-.2V3.288H55.28v30.643a3.544 3.544 0 0 0 7.087 0v-6.1a15.385 15.385 0 0 0 13.628-.223 12.634 12.634 0 0 0 4.869-4.691 13.111 13.111 0 0 0 1.772-6.831A12.978 12.978 0 0 0 80.864 9.3zm-5.883 10.641a6.652 6.652 0 0 1-2.44 2.674 6.522 6.522 0 0 1-3.541.981 6.675 6.675 0 0 1-3.588-.981 6.868 6.868 0 0 1-2.463-2.674 7.4 7.4 0 0 1-.613-1.638 7.912 7.912 0 0 1-.2-1.047v-.033a9.441 9.441 0 0 1-.067-1.137 9.255 9.255 0 0 1 .067-1.125v-.022a10.035 10.035 0 0 1 .189-1.036 7.08 7.08 0 0 1 .624-1.66 6.626 6.626 0 0 1 2.463-2.641 6.76 6.76 0 0 1 9.572 2.641 8.273 8.273 0 0 1 .858 3.844 8.381 8.381 0 0 1-.858 3.844z" transform="translate(5.966 .334)" style="fill:#515457"/>
            </g>
            <g data-name="Group 4092">
                <path data-name="Path 44622" d="M271.478 36.619a14.465 14.465 0 0 1-7.087-1.7 12.634 12.634 0 0 1-4.869-4.691 13.112 13.112 0 0 1-1.772-6.831 12.979 12.979 0 0 1 1.772-6.786 12.714 12.714 0 0 1 4.869-4.691 14.465 14.465 0 0 1 7.087-1.7 14.076 14.076 0 0 1 6.987 1.7 12.713 12.713 0 0 1 4.869 4.691 13.006 13.006 0 0 1 1.772 6.786 13.168 13.168 0 0 1-1.772 6.831 12.713 12.713 0 0 1-4.869 4.691 14.257 14.257 0 0 1-6.987 1.7zm0-5.727a6.522 6.522 0 0 0 3.543-.981 6.732 6.732 0 0 0 2.44-2.674 8.274 8.274 0 0 0 .858-3.844 8.381 8.381 0 0 0-.858-3.844 6.423 6.423 0 0 0-2.44-2.641 6.6 6.6 0 0 0-3.543-.958 6.86 6.86 0 0 0-3.588.958 6.775 6.775 0 0 0-2.463 2.641 8.147 8.147 0 0 0-.88 3.844 8.116 8.116 0 0 0 .88 3.844 6.867 6.867 0 0 0 2.463 2.674 6.621 6.621 0 0 0 3.588.98z" transform="translate(29.105 1.167)" style="fill:#515457"/>
                <path data-name="Path 44623" d="M256.615 17.356H242.7v-5.839a1.945 1.945 0 0 1 1.95-1.95h12.023V3.26h-13.26a7.813 7.813 0 0 0-7.811 7.811V33.9a3.544 3.544 0 0 0 7.087 0V23.417h12.7a18.228 18.228 0 0 1 1.215-6.062z" transform="translate(26.574 .373)" style="fill:#515457"/>
                <path data-name="Path 44624" d="M316.657 36.617a12.607 12.607 0 0 1-11.243-6.441 13.4 13.4 0 0 1-1.694-6.786 13.3 13.3 0 0 1 1.694-6.73 12.607 12.607 0 0 1 11.243-6.441 15.98 15.98 0 0 1 6.374 1.248 10.618 10.618 0 0 1 4.5 3.51l-3.687 4.323a8.6 8.6 0 0 0-2.853-2.385 7.655 7.655 0 0 0-3.688-.981 6.793 6.793 0 0 0-6.173 3.655 7.791 7.791 0 0 0-.914 3.8 7.682 7.682 0 0 0 .936 3.8 7.036 7.036 0 0 0 2.563 2.674 6.868 6.868 0 0 0 3.644.981A7.306 7.306 0 0 0 320.9 30a9.848 9.848 0 0 0 2.953-2.385l3.688 4.335a11.579 11.579 0 0 1-4.624 3.387 15.638 15.638 0 0 1-6.251 1.27z" transform="translate(34.359 1.168)" style="fill:#515457"/>
                <path data-name="Path 44625" d="M341.583 36.622a15.282 15.282 0 0 1-7.332-1.683 12.364 12.364 0 0 1-4.892-4.613 12.946 12.946 0 0 1-1.749-6.73 14.242 14.242 0 0 1 1.694-6.953 12.4 12.4 0 0 1 4.68-4.736 13.339 13.339 0 0 1 6.864-1.727 12.024 12.024 0 0 1 6.273 1.66 11.685 11.685 0 0 1 4.335 4.5 12.563 12.563 0 0 1 1.449 6.5l-.045 2.073h-18.7a6.786 6.786 0 0 0 2.685 4.323 8.886 8.886 0 0 0 5.438 1.582 9.523 9.523 0 0 0 3.22-.524 11.483 11.483 0 0 0 3.12-1.872l3.254 4.424a15.466 15.466 0 0 1-4.847 2.819 15.894 15.894 0 0 1-5.438.981zm-.691-20.781q-5.566 0-6.7 4.9h12.3v-.189a4.644 4.644 0 0 0-1.749-3.387 5.879 5.879 0 0 0-3.867-1.326z" transform="translate(37.089 1.164)" style="fill:#515457"/>
                <path data-name="Path 44626" d="M302.156 13.62a18.978 18.978 0 0 1 2.206-2.986 7.634 7.634 0 0 0-1.27-.3 10.912 10.912 0 0 0-1.649-.123 8.1 8.1 0 0 0-4.4 1.326 10.506 10.506 0 0 0-3.365 3.387l-.1-4.19h-6.5v22.531a3.376 3.376 0 0 0 6.753 0V22.857a5.442 5.442 0 0 1 1.649-4.067 5.608 5.608 0 0 1 4.056-1.616 7.6 7.6 0 0 1 1 .078 17.823 17.823 0 0 1 1.627-3.644z" transform="translate(32.457 1.167)" style="fill:#515457"/>
            </g>
        </g>
        <g data-name="Group 4094">
            <path data-name="Path 44627" d="M55.28 52.007v-7.633a.328.328 0 0 1 .334-.334h4.959a.328.328 0 0 1 .334.334v.88a.328.328 0 0 1-.334.334h-3.232a.328.328 0 0 0-.334.334v1.248a.328.328 0 0 0 .334.334h2.73a.328.328 0 0 1 .334.334v.825a.328.328 0 0 1-.334.334h-2.73a.328.328 0 0 0-.334.334V52a.328.328 0 0 1-.334.334h-1.059A.328.328 0 0 1 55.28 52z" transform="translate(5.966 4.981)" style="fill:#2eb6a4"/>
            <path data-name="Path 44628" d="M67.427 52.479a4.509 4.509 0 0 1-1.7-.323 4.011 4.011 0 0 1-1.348-.891 4.059 4.059 0 0 1-.891-1.359 4.521 4.521 0 0 1-.312-1.716 4.687 4.687 0 0 1 .312-1.7 4.018 4.018 0 0 1 2.24-2.251 4.467 4.467 0 0 1 1.7-.323 4.41 4.41 0 0 1 1.694.323 3.879 3.879 0 0 1 1.348.9 4.264 4.264 0 0 1 .88 1.359 4.487 4.487 0 0 1 .312 1.694 4.776 4.776 0 0 1-.312 1.7 4.032 4.032 0 0 1-.88 1.359 3.879 3.879 0 0 1-1.348.9 4.451 4.451 0 0 1-1.694.323zm0-1.627a2.376 2.376 0 0 0 1.281-.345 2.4 2.4 0 0 0 .88-.947 3.166 3.166 0 0 0 0-2.741 2.4 2.4 0 0 0-.88-.947 2.376 2.376 0 0 0-1.281-.345 2.377 2.377 0 0 0-2.173 1.293 2.889 2.889 0 0 0-.312 1.371 2.935 2.935 0 0 0 .312 1.382 2.377 2.377 0 0 0 2.173 1.293z" transform="translate(6.868 4.966)" style="fill:#2eb6a4"/>
            <path data-name="Path 44629" d="M74.2 52.007v-7.633a.328.328 0 0 1 .334-.334h3.354a2.778 2.778 0 0 1 1.393.345 2.646 2.646 0 0 1 1 .947 2.662 2.662 0 0 1-.067 2.808 2.806 2.806 0 0 1-.847.813.325.325 0 0 0-.111.446l1.444 2.452a.333.333 0 0 1-.29.5h-1.218a.321.321 0 0 1-.29-.178l-1.515-2.663a.333.333 0 0 0-.29-.167h-.88a.328.328 0 0 0-.334.334v2.329a.328.328 0 0 1-.334.334h-.992a.328.328 0 0 1-.334-.334zm1.66-4.413a.328.328 0 0 0 .334.334h1.627a1.027 1.027 0 0 0 .8-.334 1.231 1.231 0 0 0 .3-.847 1.128 1.128 0 0 0-.368-.88 1.414 1.414 0 0 0-.981-.334h-1.389a.328.328 0 0 0-.334.334v1.727z" transform="translate(8.128 4.981)" style="fill:#2eb6a4"/>
            <path data-name="Path 44630" d="m85.274 52.109-2.362-7.633a.335.335 0 0 1 .323-.435H84.3a.349.349 0 0 1 .323.234l1.337 4.468c.056.178.1.379.145.579s.078.4.123.591c.056-.256.1-.479.145-.657s.089-.345.145-.513l1.27-3.265a.325.325 0 0 1 .312-.212h.981a.341.341 0 0 1 .312.212l1.237 3.254q.117.3.2.568c.056.178.1.357.145.524.011-.145.045-.29.067-.446s.089-.379.167-.669l1.315-4.446a.325.325 0 0 1 .323-.234h1.063a.34.34 0 0 1 .323.435L91.87 52.1a.334.334 0 0 1-.323.234h-.813a.343.343 0 0 1-.312-.2l-1.582-3.769a.34.34 0 0 0-.624 0l-1.494 3.755a.354.354 0 0 1-.312.212h-.825a.349.349 0 0 1-.323-.234z" transform="translate(9.122 4.98)" style="fill:#2eb6a4"/>
            <path data-name="Path 44631" d="m95.1 51.885 3.02-7.633a.354.354 0 0 1 .312-.212h1.1a.354.354 0 0 1 .312.212l3.009 7.633a.334.334 0 0 1-.312.457H101.5a.341.341 0 0 1-.312-.212l-.524-1.359a.325.325 0 0 0-.312-.212h-2.8a.341.341 0 0 0-.312.212l-.524 1.359a.325.325 0 0 1-.312.212h-.992a.333.333 0 0 1-.312-.457zm3.254-4.067-.334.88a.338.338 0 0 0 .312.457h1.228a.333.333 0 0 0 .312-.457l-.345-.9q-.067-.184-.167-.468c-.067-.189-.134-.4-.212-.624s-.145-.435-.2-.624q-.15.435-.3.9c-.1.312-.2.591-.3.847z" transform="translate(10.514 4.981)" style="fill:#2eb6a4"/>
            <path data-name="Path 44632" d="M105.24 52.007v-7.633a.328.328 0 0 1 .334-.334h3.354a2.778 2.778 0 0 1 1.393.345 2.646 2.646 0 0 1 1 .947 2.662 2.662 0 0 1-.067 2.808 2.806 2.806 0 0 1-.847.813.325.325 0 0 0-.111.446l1.437 2.451a.333.333 0 0 1-.29.5h-1.215a.321.321 0 0 1-.29-.178l-1.515-2.663a.333.333 0 0 0-.29-.167h-.88a.328.328 0 0 0-.334.334v2.329a.328.328 0 0 1-.334.334h-.985a.328.328 0 0 1-.334-.334zm1.66-4.413a.328.328 0 0 0 .334.334h1.627a1.027 1.027 0 0 0 .8-.334 1.231 1.231 0 0 0 .3-.847 1.128 1.128 0 0 0-.368-.88 1.414 1.414 0 0 0-.981-.334h-1.393a.328.328 0 0 0-.334.334v1.727z" transform="translate(11.676 4.981)" style="fill:#2eb6a4"/>
            <path data-name="Path 44633" d="M114.68 52.007v-7.633a.328.328 0 0 1 .334-.334h3.075a4.286 4.286 0 0 1 2.139.524 3.742 3.742 0 0 1 1.426 1.46 4.522 4.522 0 0 1 .513 2.162 4.368 4.368 0 0 1-.513 2.162 3.714 3.714 0 0 1-1.415 1.46 4.144 4.144 0 0 1-2.139.524h-3.075a.328.328 0 0 1-.334-.334zm3.354-6.418h-1.293a.328.328 0 0 0-.334.334v4.524a.328.328 0 0 0 .334.334h1.293a2.235 2.235 0 0 0 1.749-.7 2.723 2.723 0 0 0 .635-1.894 2.677 2.677 0 0 0-.646-1.894 2.226 2.226 0 0 0-1.738-.704z" transform="translate(12.755 4.981)" style="fill:#2eb6a4"/>
            <path data-name="Path 44634" d="M129.99 52.007v-7.633a.328.328 0 0 1 .334-.334h1.059a.328.328 0 0 1 .334.334v2.708a.328.328 0 0 0 .334.334h2.919a.328.328 0 0 0 .334-.334v-2.708a.328.328 0 0 1 .334-.334h1.062a.328.328 0 0 1 .334.334v7.633a.328.328 0 0 1-.334.334h-1.059a.328.328 0 0 1-.334-.334v-2.685a.328.328 0 0 0-.334-.334h-2.919a.328.328 0 0 0-.334.334v2.685a.328.328 0 0 1-.334.334h-1.059a.328.328 0 0 1-.337-.334z" transform="translate(14.504 4.981)" style="fill:#2eb6a4"/>
            <path data-name="Path 44635" d="M140.22 52.007v-7.633a.328.328 0 0 1 .334-.334h4.936a.328.328 0 0 1 .334.334v.847a.328.328 0 0 1-.334.334h-3.243a.328.328 0 0 0-.334.334v1.148a.328.328 0 0 0 .334.334h2.663a.328.328 0 0 1 .334.334v.8a.328.328 0 0 1-.334.334h-2.663a.328.328 0 0 0-.334.334v1.315a.328.328 0 0 0 .334.334h3.321a.328.328 0 0 1 .334.334v.847a.328.328 0 0 1-.334.334h-5a.328.328 0 0 1-.334-.334z" transform="translate(15.673 4.981)" style="fill:#2eb6a4"/>
            <path data-name="Path 44636" d="m148.233 51.885 3.02-7.633a.354.354 0 0 1 .312-.212h1.1a.354.354 0 0 1 .312.212l3.009 7.633a.333.333 0 0 1-.312.457h-1.047a.341.341 0 0 1-.312-.212l-.524-1.359a.325.325 0 0 0-.312-.212h-2.8a.341.341 0 0 0-.312.212l-.524 1.359a.325.325 0 0 1-.312.212h-.992a.334.334 0 0 1-.306-.457zm3.254-4.067-.334.88a.338.338 0 0 0 .312.457h1.226A.333.333 0 0 0 153 48.7l-.345-.9q-.067-.184-.167-.468c-.067-.189-.134-.4-.212-.624s-.145-.435-.2-.624q-.15.435-.3.9c-.1.312-.2.591-.3.847z" transform="translate(16.586 4.981)" style="fill:#2eb6a4"/>
            <path data-name="Path 44637" d="M158.37 52.007v-7.633a.328.328 0 0 1 .334-.334h1.059a.328.328 0 0 1 .334.334v6.084a.328.328 0 0 0 .334.334h3.153a.328.328 0 0 1 .334.334v.88a.328.328 0 0 1-.334.334h-4.869a.328.328 0 0 1-.334-.334z" transform="translate(17.748 4.981)" style="fill:#2eb6a4"/>
            <path data-name="Path 44638" d="M167.7 52.007v-6.084a.328.328 0 0 0-.334-.334H165.6a.328.328 0 0 1-.334-.334v-.88a.328.328 0 0 1 .334-.334h5.984a.328.328 0 0 1 .334.334v.88a.328.328 0 0 1-.334.334h-1.839a.328.328 0 0 0-.334.334v6.084a.328.328 0 0 1-.334.334h-1.059a.328.328 0 0 1-.334-.334z" transform="translate(18.536 4.981)" style="fill:#2eb6a4"/>
            <path data-name="Path 44639" d="M174.52 52.007v-7.633a.328.328 0 0 1 .334-.334h1.059a.328.328 0 0 1 .334.334v2.708a.328.328 0 0 0 .334.334h2.919a.328.328 0 0 0 .334-.334v-2.708a.328.328 0 0 1 .334-.334h1.059a.328.328 0 0 1 .334.334v7.633a.328.328 0 0 1-.334.334h-1.059a.328.328 0 0 1-.334-.334v-2.685a.328.328 0 0 0-.334-.334h-2.919a.328.328 0 0 0-.334.334v2.685a.328.328 0 0 1-.334.334h-1.059a.328.328 0 0 1-.334-.334z" transform="translate(19.593 4.981)" style="fill:#2eb6a4"/>
            <path data-name="Path 44640" d="M193.631 52.479a4.254 4.254 0 0 1-2.173-.546 3.9 3.9 0 0 1-1.493-1.515 4.56 4.56 0 0 1-.535-2.24 4.239 4.239 0 0 1 .334-1.683 4.357 4.357 0 0 1 .914-1.359 4.144 4.144 0 0 1 1.359-.9 4.493 4.493 0 0 1 1.694-.323 4.059 4.059 0 0 1 1.727.379 3.708 3.708 0 0 1 1.114.758.344.344 0 0 1 .011.468l-.657.724a.321.321 0 0 1-.457.033 3.081 3.081 0 0 0-.691-.479 2.29 2.29 0 0 0-1.07-.245 2.458 2.458 0 0 0-1.27.334 2.431 2.431 0 0 0-.9.936 2.787 2.787 0 0 0-.338 1.379 2.874 2.874 0 0 0 .334 1.4 2.268 2.268 0 0 0 .936.925 2.826 2.826 0 0 0 1.393.323 2.649 2.649 0 0 0 1.1-.234 3.084 3.084 0 0 0 .613-.368.337.337 0 0 1 .49.089l.49.78a.341.341 0 0 1-.067.435 3.354 3.354 0 0 1-.568.379 4.628 4.628 0 0 1-1.081.412 4.785 4.785 0 0 1-1.192.145z" transform="translate(21.297 4.966)" style="fill:#ef4b81"/>
            <path data-name="Path 44641" d="M203.007 52.479a4.509 4.509 0 0 1-1.7-.323 4.011 4.011 0 0 1-1.348-.891 4.06 4.06 0 0 1-.891-1.359 4.522 4.522 0 0 1-.312-1.716 4.464 4.464 0 0 1 .312-1.7 4.018 4.018 0 0 1 2.24-2.251 4.467 4.467 0 0 1 1.7-.323 4.41 4.41 0 0 1 1.694.323 3.879 3.879 0 0 1 1.348.9 4.263 4.263 0 0 1 .88 1.359 4.487 4.487 0 0 1 .312 1.694 4.776 4.776 0 0 1-.312 1.7 4.031 4.031 0 0 1-.88 1.359 3.879 3.879 0 0 1-1.348.9 4.451 4.451 0 0 1-1.694.323zm0-1.627a2.376 2.376 0 0 0 1.281-.345 2.4 2.4 0 0 0 .88-.947 3.166 3.166 0 0 0 0-2.741 2.4 2.4 0 0 0-.88-.947 2.376 2.376 0 0 0-1.281-.345 2.377 2.377 0 0 0-2.173 1.293 2.889 2.889 0 0 0-.312 1.371 2.935 2.935 0 0 0 .312 1.382 2.377 2.377 0 0 0 2.173 1.293z" transform="translate(22.363 4.966)" style="fill:#ef4b81"/>
            <path data-name="Path 44642" d="M209.78 52.008v-7.633a.328.328 0 0 1 .334-.334h1.07a.35.35 0 0 1 .29.156l2.162 3.488a.334.334 0 0 0 .568 0l2.206-3.5a.318.318 0 0 1 .279-.156h1a.328.328 0 0 1 .334.334V52a.328.328 0 0 1-.334.334h-1.014a.328.328 0 0 1-.334-.334v-2.6c0-.479 0-.936.022-1.348s.045-.813.067-1.2L214.371 50a.331.331 0 0 1-.279.156h-.423a.318.318 0 0 1-.279-.156l-2.006-3.131c.045.368.067.747.078 1.159s.022.869.022 1.371V52a.328.328 0 0 1-.334.334h-1.014A.328.328 0 0 1 209.8 52z" transform="translate(23.623 4.98)" style="fill:#ef4b81"/>
            <path data-name="Path 44643" d="M221.08 52.007v-7.633a.328.328 0 0 1 .334-.334h3.2a2.6 2.6 0 0 1 1.337.345 2.66 2.66 0 0 1 .947.947 2.62 2.62 0 0 1 .357 1.348 2.774 2.774 0 0 1-.357 1.382 2.553 2.553 0 0 1-.947.969 2.452 2.452 0 0 1-1.337.357h-1.471a.328.328 0 0 0-.334.334V52a.328.328 0 0 1-.334.334h-1.059a.328.328 0 0 1-.336-.334zm2.05-4.167h1.5a.314.314 0 0 0 .167-.045 1.188 1.188 0 0 0 .691-1.1 1.13 1.13 0 0 0-.7-1.081.356.356 0 0 0-.156-.033h-1.5a.328.328 0 0 0-.334.334v1.582a.328.328 0 0 0 .334.334z" transform="translate(24.915 4.981)" style="fill:#ef4b81"/>
            <path data-name="Path 44644" d="M230 52.007v-7.633a.328.328 0 0 1 .334-.334h1.059a.328.328 0 0 1 .334.334v6.084a.328.328 0 0 0 .334.334h3.153a.328.328 0 0 1 .334.334v.88a.328.328 0 0 1-.334.334h-4.869a.328.328 0 0 1-.334-.334z" transform="translate(25.934 4.981)" style="fill:#ef4b81"/>
            <path data-name="Path 44645" d="M238.43 52.007v-7.633a.328.328 0 0 1 .334-.334h4.936a.328.328 0 0 1 .334.334v.847a.328.328 0 0 1-.334.334h-3.243a.328.328 0 0 0-.334.334v1.148a.328.328 0 0 0 .334.334h2.663a.328.328 0 0 1 .334.334v.8a.328.328 0 0 1-.334.334h-2.663a.328.328 0 0 0-.334.334v1.315a.328.328 0 0 0 .334.334h3.321a.328.328 0 0 1 .334.334v.847a.328.328 0 0 1-.334.334h-5a.328.328 0 0 1-.334-.334z" transform="translate(26.897 4.981)" style="fill:#ef4b81"/>
            <path data-name="Path 44646" d="M248.959 52.007v-6.084a.328.328 0 0 0-.334-.334h-1.761a.328.328 0 0 1-.334-.334v-.88a.328.328 0 0 1 .334-.334h5.984a.328.328 0 0 1 .334.334v.88a.328.328 0 0 1-.334.334h-1.839a.328.328 0 0 0-.334.334v6.084a.328.328 0 0 1-.334.334h-1.059a.328.328 0 0 1-.334-.334z" transform="translate(27.823 4.981)" style="fill:#ef4b81"/>
            <path data-name="Path 44647" d="M255.77 52.007v-7.633a.328.328 0 0 1 .334-.334h4.936a.328.328 0 0 1 .334.334v.847a.328.328 0 0 1-.334.334h-3.24a.328.328 0 0 0-.334.334v1.148a.328.328 0 0 0 .334.334h2.663a.328.328 0 0 1 .334.334v.8a.328.328 0 0 1-.334.334H257.8a.328.328 0 0 0-.334.334v1.315a.328.328 0 0 0 .334.334h3.321a.328.328 0 0 1 .334.334v.847a.328.328 0 0 1-.334.334h-5a.328.328 0 0 1-.334-.334z" transform="translate(28.879 4.981)" style="fill:#ef4b81"/>
            <path data-name="Path 44648" d="M271.489 52.007v-6.084a.328.328 0 0 0-.334-.334h-1.761a.328.328 0 0 1-.334-.334v-.88a.328.328 0 0 1 .334-.334h5.984a.328.328 0 0 1 .334.334v.88a.328.328 0 0 1-.334.334h-1.839a.328.328 0 0 0-.334.334v6.084a.328.328 0 0 1-.334.334h-1.059a.328.328 0 0 1-.334-.334z" transform="translate(30.398 4.981)" style="fill:#ef4b81"/>
            <path data-name="Path 44649" d="M278.31 52.007v-7.633a.328.328 0 0 1 .334-.334H282a2.778 2.778 0 0 1 1.393.345 2.646 2.646 0 0 1 1 .947 2.663 2.663 0 0 1-.067 2.808 2.807 2.807 0 0 1-.847.813.325.325 0 0 0-.111.446l1.437 2.451a.333.333 0 0 1-.29.5H283.3a.321.321 0 0 1-.29-.178l-1.51-2.661a.333.333 0 0 0-.29-.167h-.88a.328.328 0 0 0-.334.334v2.329a.328.328 0 0 1-.334.334h-.992a.328.328 0 0 1-.334-.334zm1.66-4.413a.328.328 0 0 0 .334.334h1.627a1.027 1.027 0 0 0 .8-.334 1.231 1.231 0 0 0 .3-.847 1.128 1.128 0 0 0-.368-.88 1.414 1.414 0 0 0-.981-.334h-1.393a.328.328 0 0 0-.334.334v1.727z" transform="translate(31.455 4.981)" style="fill:#ef4b81"/>
            <path data-name="Path 44650" d="M287.75 52.007v-7.633a.328.328 0 0 1 .334-.334h4.936a.328.328 0 0 1 .334.334v.847a.328.328 0 0 1-.334.334h-3.243a.328.328 0 0 0-.334.334v1.148a.328.328 0 0 0 .334.334h2.663a.328.328 0 0 1 .334.334v.8a.328.328 0 0 1-.334.334h-2.663a.328.328 0 0 0-.334.334v1.315a.328.328 0 0 0 .334.334h3.323a.328.328 0 0 1 .334.334v.847a.328.328 0 0 1-.334.334h-5a.328.328 0 0 1-.334-.334z" transform="translate(32.534 4.981)" style="fill:#ef4b81"/>
            <path data-name="Path 44651" d="m295.753 51.885 3.02-7.633a.353.353 0 0 1 .312-.212h1.1a.353.353 0 0 1 .312.212l3.009 7.633a.334.334 0 0 1-.312.457h-1.047a.341.341 0 0 1-.312-.212l-.524-1.359a.325.325 0 0 0-.312-.212h-2.8a.341.341 0 0 0-.312.212l-.524 1.359a.325.325 0 0 1-.312.212h-.992a.334.334 0 0 1-.312-.457zm3.265-4.067-.334.88a.338.338 0 0 0 .312.457h1.226a.334.334 0 0 0 .312-.457l-.345-.9q-.067-.184-.167-.468c-.067-.189-.134-.4-.212-.624s-.145-.435-.2-.624q-.15.435-.3.9c-.1.312-.2.591-.3.847z" transform="translate(33.446 4.981)" style="fill:#ef4b81"/>
            <path data-name="Path 44652" d="M307.159 52.007v-6.084a.328.328 0 0 0-.334-.334h-1.761a.328.328 0 0 1-.334-.334v-.88a.328.328 0 0 1 .334-.334h5.984a.328.328 0 0 1 .334.334v.88a.328.328 0 0 1-.334.334h-1.839a.328.328 0 0 0-.334.334v6.084a.328.328 0 0 1-.334.334h-1.059a.328.328 0 0 1-.334-.334z" transform="translate(34.475 4.981)" style="fill:#ef4b81"/>
            <path data-name="Path 44653" d="M313.98 52.008v-7.633a.328.328 0 0 1 .334-.334h1.07a.35.35 0 0 1 .29.156l2.162 3.488a.334.334 0 0 0 .568 0l2.206-3.5a.318.318 0 0 1 .279-.156h1a.328.328 0 0 1 .334.334V52a.328.328 0 0 1-.334.334h-1.014a.328.328 0 0 1-.334-.334v-2.6c0-.479 0-.936.022-1.348s.045-.813.067-1.2L318.571 50a.331.331 0 0 1-.279.156h-.423a.318.318 0 0 1-.279-.156l-2.006-3.131c.045.368.067.747.078 1.159s.022.869.022 1.371V52a.328.328 0 0 1-.334.334h-1.014A.328.328 0 0 1 314 52z" transform="translate(35.532 4.98)" style="fill:#ef4b81"/>
            <path data-name="Path 44654" d="M325.28 52.007v-7.633a.328.328 0 0 1 .334-.334h4.936a.328.328 0 0 1 .334.334v.847a.328.328 0 0 1-.334.334h-3.243a.328.328 0 0 0-.334.334v1.148a.328.328 0 0 0 .334.334h2.663a.328.328 0 0 1 .334.334v.8a.328.328 0 0 1-.334.334h-2.663a.328.328 0 0 0-.334.334v1.315a.328.328 0 0 0 .334.334h3.321a.328.328 0 0 1 .334.334v.847a.328.328 0 0 1-.334.334h-5a.328.328 0 0 1-.334-.334z" transform="translate(36.823 4.981)" style="fill:#ef4b81"/>
            <path data-name="Path 44655" d="M334 52.007v-7.633a.328.328 0 0 1 .334-.334h1.047a.332.332 0 0 1 .267.134l3.51 4.691a.334.334 0 0 0 .6-.223c0-.123-.011-.256-.022-.379a47.233 47.233 0 0 1-.033-1.883v-2.006a.328.328 0 0 1 .334-.334h1.014a.328.328 0 0 1 .334.334v7.633a.328.328 0 0 1-.334.334h-1.07a.332.332 0 0 1-.267-.134l-4.2-5.549c.045.524.089.936.111 1.237s.045.557.045.758.011.412.011.624v2.73a.328.328 0 0 1-.334.334h-1.014a.328.328 0 0 1-.334-.334z" transform="translate(37.82 4.981)" style="fill:#ef4b81"/>
            <path data-name="Path 44656" d="M346.339 52.007v-6.084a.328.328 0 0 0-.334-.334h-1.761a.328.328 0 0 1-.334-.334v-.88a.328.328 0 0 1 .334-.334h5.984a.328.328 0 0 1 .334.334v.88a.328.328 0 0 1-.334.334h-1.839a.328.328 0 0 0-.334.334v6.084a.328.328 0 0 1-.334.334h-1.059a.328.328 0 0 1-.334-.334z" transform="translate(38.952 4.981)" style="fill:#ef4b81"/>
        </g>
    </g>
</svg>
