<svg data-name="MDI / stethoscope" xmlns="http://www.w3.org/2000/svg" width="30" height="30" viewBox="0 0 30 30">
    <path data-name="Path / stethoscope" d="M24.1 9.8a1.279 1.279 0 0 1 1.3 1.3 1.3 1.3 0 1 1-2.6 0 1.272 1.272 0 0 1 1.3-1.3M2 2v11.7a7.768 7.768 0 0 0 6.682 7.683A8.345 8.345 0 0 0 16.95 28a8.45 8.45 0 0 0 8.45-8.45v-4.8a3.9 3.9 0 1 0-2.6 0v4.68a5.826 5.826 0 0 1-5.85 5.85 5.763 5.763 0 0 1-5.564-3.913A7.912 7.912 0 0 0 17.6 13.7V2h-5.2v3.9H15v7.8a5.2 5.2 0 1 1-10.4 0V5.9h2.6V2z" style="fill:#e77974"/>
</svg>
