<svg data-name="MDI / phone-in-talk" xmlns="http://www.w3.org/2000/svg" width="60" height="60" viewBox="0 0 60 60">
    <path data-name="Path / phone-in-talk" d="M39 30h6a15 15 0 0 0-15-15v6a9 9 0 0 1 9 9m12 0h6A26.945 26.945 0 0 0 30 3v6a21 21 0 0 1 21 21m3 10.5a34.081 34.081 0 0 1-10.71-1.71 3.011 3.011 0 0 0-3.06.75l-6.6 6.6a45.29 45.29 0 0 1-19.77-19.77l6.6-6.6a3.011 3.011 0 0 0 .75-3.06A34.081 34.081 0 0 1 19.5 6a3 3 0 0 0-3-3H6a3 3 0 0 0-3 3 51 51 0 0 0 51 51 3 3 0 0 0 3-3V43.5a3 3 0 0 0-3-3z" style="fill:#5998db"/>
</svg>
