<svg xmlns="http://www.w3.org/2000/svg" width="50" height="50" viewBox="0 0 50 50">
    <g>
        <path fill="#19b9c3" d="M56 31A25 25 0 1 1 31 6a25 25 0 0 1 25 25z" transform="translate(-19.611 -7.799) translate(13.611 1.799)"/>
        <path fill="#fff" d="M800.34 720.224a1.285 1.285 0 0 0-1.354-.069 1.376 1.376 0 0 0-.7 1.205v27.331a1.377 1.377 0 0 0 .7 1.205 1.294 1.294 0 0 0 .622.16 1.281 1.281 0 0 0 .732-.229l19.776-13.665a1.394 1.394 0 0 0 0-2.273z" transform="translate(-19.611 -7.799) translate(-762.536 -702.286)"/>
    </g>
</svg>
