<svg xmlns="http://www.w3.org/2000/svg" xmlns:xlink="http://www.w3.org/1999/xlink" viewBox="0 0 1366 768">
  <defs>
    <linearGradient id="seameet-home-board-linear-gradient" x1="-0.27" y1="0.5" x2="0.5" y2="0.5" gradientUnits="objectBoundingBox">
      <stop offset="0" stop-color="#50ffc5"/>
      <stop offset="1" stop-color="#19b9c3"/>
    </linearGradient>
    <linearGradient id="seameet-home-board-linear-gradient-2" x1="-0.023" y1="0.405" x2="3.114" y2="1.01" gradientUnits="objectBoundingBox">
      <stop offset="0" stop-color="#50ffc5"/>
      <stop offset="0.06" stop-color="#4bf9c5"/>
      <stop offset="0.46" stop-color="#30d6c4"/>
      <stop offset="0.79" stop-color="#1fc1c3"/>
      <stop offset="1" stop-color="#19b9c3"/>
    </linearGradient>
    <linearGradient id="seameet-home-board-linear-gradient-3" x1="-1.323" y1="0.105" x2="2.179" y2="0.861" xlink:href="#seameet-home-board-linear-gradient-2"/>
    <linearGradient id="seameet-home-board-linear-gradient-4" x1="-2.453" y1="-0.156" x2="1.03" y2="0.62" xlink:href="#seameet-home-board-linear-gradient-2"/>
    <linearGradient id="seameet-home-board-linear-gradient-5" x1="0.5" y1="0.968" x2="0.5" y2="-0.003" gradientUnits="objectBoundingBox">
      <stop offset="0" stop-color="#50fec5"/>
      <stop offset="1" stop-color="#19b9c3"/>
    </linearGradient>
    <clipPath id="clip-start_meeting_Live_transcription_2">
      <rect width="1366" height="768"/>
    </clipPath>
  </defs>
  <g id="start_meeting_Live_transcription_2" data-name="start meeting – Live transcription – 2" clip-path="url(#clip-start_meeting_Live_transcription_2)">
    <rect width="1366" height="768" fill="#353b43"/>
    <g id="Live" transform="translate(-19.96 34.833)">
      <rect id="seameet-home-board-Rectangle_1076" data-name="Rectangle 1076" width="189" height="60" rx="30" transform="translate(1136.96 86.167)" fill="#db3a20"/>
      <text id="LIVE-2" data-name="LIVE" transform="translate(1212.96 128.167)" fill="#fff" font-size="40" font-family="Roboto-Bold, Roboto" font-weight="700"><tspan x="0" y="0">LIVE</tspan></text>
      <g id="live-3" data-name="live" transform="translate(1166.96 100.167)">
        <circle id="Ellipse_105" data-name="Ellipse 105" cx="16" cy="16" r="16" transform="translate(0)" fill="#fff"/>
        <circle id="Ellipse_106" data-name="Ellipse 106" cx="12" cy="12" r="12" transform="translate(4 4)" fill="#fff"/>
      </g>
    </g>
    <line id="seameet-home-board-Line_90" data-name="Line 90" y2="412" transform="translate(683 307.5)" fill="none" stroke="#42484f" stroke-linecap="round" stroke-width="1"/>
    <rect id="seameet-home-board-Rectangle_1139" data-name="Rectangle 1139" width="1366" height="40" transform="translate(0 728)" fill="#353b43"/>
    <g id="transcription" transform="translate(0 78)">
      <g id="Component_74_50" data-name="Component 74 – 50" transform="translate(245 190)">
        <path id="seameet-home-board-Rectangle_1146" data-name="Rectangle 1146" d="M10,0H170a10,10,0,0,1,10,10V80a0,0,0,0,1,0,0H0a0,0,0,0,1,0,0V10A10,10,0,0,1,10,0Z" fill="#1f252c"/>
        <text id="Offline" transform="translate(30 48)" fill="#707070" font-size="30" font-family="Roboto-Regular, Roboto"><tspan x="0" y="0">Offline</tspan></text>
      </g>
      <path id="seameet-home-board-Rectangle_1133" data-name="Rectangle 1133" d="M0,0H612.5a10,10,0,0,1,10,10V389a10,10,0,0,1-10,10H10A10,10,0,0,1,0,389V0A0,0,0,0,1,0,0Z" transform="translate(60.001 251)" fill="#292f36"/>
      <g id="seameet-home-board-Group_995" data-name="Group 995" transform="translate(60 186)">
        <path id="seameet-home-board-Rectangle_1148" data-name="Rectangle 1148" d="M10,0H170a10,10,0,0,1,10,10V80a0,0,0,0,1,0,0H0a0,0,0,0,1,0,0V10A10,10,0,0,1,10,0Z" fill="#292f36"/>
        <text id="Live-4" data-name="Live" transform="translate(30 48)" fill="#fff" font-size="30" font-family="Roboto-Bold, Roboto" font-weight="700"><tspan x="0" y="0">Live</tspan></text>
      </g>
      <rect id="seameet-home-board-Rectangle_1072" data-name="Rectangle 1072" width="6" height="54" rx="3" transform="translate(667 379)" fill="#50fec5"/>
    </g>
    <g id="seameet-home-board-Group_999" data-name="Group 999" transform="translate(0 76)" opacity="0.501">
      <g id="Component_78_22" data-name="Component 78 – 22" transform="translate(868.5 192)">
        <path id="seameet-home-board-Rectangle_1147" data-name="Rectangle 1147" d="M10,0H170a10,10,0,0,1,10,10V80a0,0,0,0,1,0,0H0a0,0,0,0,1,0,0V10A10,10,0,0,1,10,0Z" fill="#1f252c"/>
        <text id="Actions" transform="translate(30 48)" fill="#707070" font-size="30" font-family="Roboto-Regular, Roboto"><tspan x="0" y="0">Actions</tspan></text>
      </g>
      <path id="seameet-home-board-Rectangle_1151" data-name="Rectangle 1151" d="M0,0H612.5a10,10,0,0,1,10,10V389a10,10,0,0,1-10,10H10A10,10,0,0,1,0,389V0A0,0,0,0,1,0,0Z" transform="translate(683.5 253)" fill="#1d2024"/>
      <g id="seameet-home-board-Group_998" data-name="Group 998" transform="translate(683.5 188)">
        <path id="seameet-home-board-Rectangle_1152" data-name="Rectangle 1152" d="M10,0H170a10,10,0,0,1,10,10V80a0,0,0,0,1,0,0H0a0,0,0,0,1,0,0V10A10,10,0,0,1,10,0Z" fill="#1d2024"/>
        <text id="Topics" transform="translate(74 48)" fill="#fff" font-size="30" font-family="Roboto-Bold, Roboto" font-weight="700"><tspan x="-44.194" y="0">Topics</tspan></text>
      </g>
    </g>
    <text id="Transcription-2" data-name="Transcription" transform="translate(60 247)" fill="#19b9c3" font-size="30" font-family="Roboto-Bold, Roboto" font-weight="700"><tspan x="0" y="0">Transcription</tspan></text>
    <text id="Perception" transform="translate(684 247)" fill="#19b9c3" font-size="30" font-family="Roboto-Bold, Roboto" font-weight="700"><tspan x="0" y="0">Perception</tspan></text>
    <g id="Title" transform="translate(-190 20)">
      <text id="Meeting" transform="translate(250 130)" fill="#fff" font-size="54" font-family="Roboto-Bold, Roboto" font-weight="700"><tspan x="0" y="0">Meeting</tspan></text>
      <text id="_13:00_January_21_2021_14:00_January_21_2021" data-name="13:00, January 21,  2021 ~ 14:00, January 21,  2021" transform="translate(250 177)" fill="#707070" font-size="21" font-family="Roboto-Regular, Roboto"><tspan x="0" y="0" xml:space="preserve">13:00, January 21,  2021 ~ 14:00, January 21,  2021</tspan></text>
      <g id="Edit" transform="translate(469.396 89.066)">
        <g id="icon-pen" transform="translate(-0.396 -0.066)">
          <rect id="hoverArea" width="45" height="45" fill="none"/>
          <path id="icon-pen-2" data-name="icon-pen" d="M1094.715,116.6l-6.248-6.25a2.348,2.348,0,0,0-3.247,0L1064.385,131.2l0,0a.911.911,0,0,0-.237.474c0,.021-.024.034-.028.054l-1.361,9.544a.933.933,0,0,0,.923,1.064,1,1,0,0,0,.131-.008l9.539-1.364c.02,0,.033-.024.053-.028a.909.909,0,0,0,.474-.237l20.841-20.85A2.308,2.308,0,0,0,1094.715,116.6ZM1065.7,133.841l5.538,5.541-6.461.924Zm27.7-15.309-20.179,20.192-6.856-6.861,20.179-20.192a.36.36,0,0,1,.606,0l2.464,2.465-15.692,15.7a.933.933,0,1,0,1.319,1.319l15.691-15.7,2.467,2.467A.431.431,0,0,1,1093.4,118.532Z" transform="translate(-1056.401 -103.355)" fill="#707070"/>
        </g>
      </g>
    </g>
    <g id="stop_meeting" data-name="stop meeting" transform="translate(575 121)">
      <rect id="seameet-home-board-Rectangle_1022" data-name="Rectangle 1022" width="268" height="60" rx="30" fill="url(#seameet-home-board-linear-gradient)"/>
      <g id="record" transform="translate(40 14)">
        <path id="Icon_material-fiber-manual-record" data-name="Icon material-fiber-manual-record" d="M38,22A16,16,0,1,1,22,6,16,16,0,0,1,38,22Z" transform="translate(-6 -6)" fill="none" stroke="#fff" stroke-width="1"/>
        <rect id="seameet-home-board-Rectangle_1067" data-name="Rectangle 1067" width="16" height="16" rx="2" transform="translate(8 8)" fill="#fff"/>
      </g>
      <text id="Stop_Meeting-2" data-name="Stop Meeting" transform="translate(86 38)" fill="#fff" font-size="24" font-family="Roboto-Regular, Roboto"><tspan x="0" y="0">Stop Meeting</tspan></text>
    </g>
    <g id="header">
      <path id="seameet-home-board-Path_637" data-name="Path 637" d="M0,0H1366V80H0Z" fill="#1d2024"/>
      <g id="Layer_2" data-name="Layer 2" transform="translate(59.986 16.961)">
        <g id="Layer_2-2" data-name="Layer 2" transform="translate(0.014 0.039)">
          <path id="seameet-home-board-Path_1520" data-name="Path 1520" d="M2732.834,266.049h0a2,2,0,0,1-1.871-2.7L2737.029,247c.877-2.61,2.333-4.237,5.376-4.237,3.379,0,5.072,2,5.072,4.983v13.526a1.16,1.16,0,0,0,1.149,1.288,1.339,1.339,0,0,0,1.285-.949L2755.455,247c.878-2.61,2.333-4.237,5.376-4.237,3.379,0,5.072,2,5.072,4.983v16.3a2,2,0,0,1-2,2h-.031a2,2,0,0,1-2-2v-16.1a1.17,1.17,0,0,0-1.149-1.32,1.362,1.362,0,0,0-1.251.983l-5.545,14.611c-.878,2.61-2.367,4.237-5.41,4.237-3.347,0-5.038-2-5.038-5.016V247.946a1.2,1.2,0,0,0-1.185-1.32,1.362,1.362,0,0,0-1.251.983l-6.343,17.135A2,2,0,0,1,2732.834,266.049Z" transform="translate(-2610.79 -232.108)" fill="#fff"/>
          <path id="seameet-home-board-Path_1521" data-name="Path 1521" d="M3654.253,365.24c4.226,0,6.018,2.029,6.018,5.477,0,3.28-1.656,5.139-6.052,5.139h-7.2a1.285,1.285,0,0,0-1.285,1.285h0c0,1.42.778,2.468,2.738,2.468h9.18a1.741,1.741,0,0,1,1.741,1.741h0a1.741,1.741,0,0,1-1.741,1.741h-9.18c-4.463,0-6.221-2.5-6.221-5.881v-6.088c0-3.379,1.758-5.881,6.221-5.881Zm-8.52,6.526a1.285,1.285,0,0,0,1.285,1.285h7.1c1.927,0,2.636-.811,2.636-2.13,0-1.353-.778-2.232-2.535-2.232h-5.748c-1.961,0-2.739,1.082-2.739,2.468Z" transform="translate(-3482.158 -349.175)" fill="#fff"/>
          <path id="seameet-home-board-Path_1522" data-name="Path 1522" d="M4156.541,365.24c4.227,0,6.018,2.029,6.018,5.477,0,3.28-1.656,5.139-6.051,5.139h-7.2a1.285,1.285,0,0,0-1.285,1.285h0c0,1.42.778,2.468,2.739,2.468h9.179a1.741,1.741,0,0,1,1.741,1.741h0a1.741,1.741,0,0,1-1.741,1.741h-9.179c-4.463,0-6.221-2.5-6.221-5.881v-6.088c0-3.379,1.758-5.881,6.221-5.881Zm-8.519,6.526a1.285,1.285,0,0,0,1.285,1.285h7.1c1.927,0,2.636-.811,2.636-2.13,0-1.353-.777-2.232-2.535-2.232h-5.749c-1.961,0-2.739,1.082-2.739,2.468Z" transform="translate(-3962.349 -349.175)" fill="#fff"/>
          <path id="seameet-home-board-Path_1523" data-name="Path 1523" d="M4616.9,273.224v-2.417a1.809,1.809,0,0,1,1.809-1.806h0a1.809,1.809,0,0,1,1.809,1.809v2.417h3.211a1.724,1.724,0,0,1,1.725,1.724h0a1.724,1.724,0,0,1-1.725,1.724h-3.211v8.453c0,1.995.709,2.671,2.4,2.671h.828a1.64,1.64,0,0,1,1.64,1.64h0a1.64,1.64,0,0,1-1.64,1.637h-1.572c-3.687,0-5.274-1.488-5.274-6.153v-8.251h-.71a1.724,1.724,0,0,1-1.725-1.724h0a1.724,1.724,0,0,1,1.725-1.724Z" transform="translate(-4411.655 -257.164)" fill="#fff"/>
          <path id="seameet-home-board-Path_1524" data-name="Path 1524" d="M1186.712,261.425h-5.342c-2.671,0-3.379-1.32-3.379-2.712,0-1.593.913-2.712,2.976-2.712h9.7a2,2,0,0,0,1.995-2h0a2,2,0,0,0-2-2H1181.1c-5.072,0-7.1,2.78-7.1,6.577,0,3.187,1.42,6.611,7.5,6.611h5.31c2.806,0,3.584,1.356,3.584,2.848,0,1.661-.98,2.848-3.144,2.848H1176.4a2,2,0,0,0-2,2h0a2,2,0,0,0,2,2h10.717c5.207,0,7.269-2.848,7.269-6.713C1194.387,264.883,1192.933,261.425,1186.712,261.425Z" transform="translate(-1122.397 -240.942)" fill="url(#seameet-home-board-linear-gradient-2)"/>
          <path id="seameet-home-board-Path_1525" data-name="Path 1525" d="M1738.319,375.856c4.4,0,6.052-1.86,6.052-5.139,0-3.448-1.792-5.477-6.018-5.477h-5.781c-4.463,0-6.221,2.5-6.221,5.883v6.088c0,3.379,1.758,5.881,6.221,5.881h9.179a1.741,1.741,0,0,0,1.741-1.741h0a1.741,1.741,0,0,0-1.741-1.741h-9.179c-1.961,0-2.739-1.048-2.739-2.468h0a1.285,1.285,0,0,1,1.286-1.285Zm-8.486-4.7c0-1.386.778-2.468,2.739-2.468h5.749c1.758,0,2.536.878,2.536,2.232,0,1.317-.71,2.13-2.637,2.13h-7.1a1.285,1.285,0,0,1-1.285-1.285Z" transform="translate(-1650.47 -349.175)" fill="url(#seameet-home-board-linear-gradient-3)"/>
          <path id="seameet-home-board-Path_1526" data-name="Path 1526" d="M2240.429,365.24h-8.993a1.725,1.725,0,0,0-1.724,1.724h0a1.724,1.724,0,0,0,1.724,1.724h8.96c1.961,0,2.739,1.082,2.739,2.468h0a1.352,1.352,0,0,1-1.352,1.352h-7.134c-4.4,0-6.018,1.893-6.018,5.139,0,3.379,1.758,5.442,5.984,5.442h8.351c3.009,0,3.687-1.014,3.687-3.584v-8.383C2246.651,367.742,2244.892,365.24,2240.429,365.24Zm2.7,13.456c0,.642-.27.913-.98.913h-7.5c-1.792,0-2.5-.845-2.5-2.164s.677-2.1,2.57-2.1h7.066a1.352,1.352,0,0,1,1.352,1.352Z" transform="translate(-2130.673 -349.175)" fill="url(#seameet-home-board-linear-gradient-4)"/>
          <path id="seameet-home-board-Path_1527" data-name="Path 1527" d="M353.7,310.018l-3.937-6.82a2.4,2.4,0,0,0-2.075-1.2h-7.875a2.4,2.4,0,0,0-2.075,1.2l-3.938,6.82a2.4,2.4,0,0,0,0,2.4l3.938,6.82a2.4,2.4,0,0,0,2.075,1.2h7.875a2.4,2.4,0,0,0,2.075-1.2l3.937-6.82A2.4,2.4,0,0,0,353.7,310.018Z" transform="translate(-318.843 -288.716)" fill="url(#seameet-home-board-linear-gradient-5)"/>
          <path id="seameet-home-board-Path_1528" data-name="Path 1528" d="M15.095,193.273a1.534,1.534,0,0,0-2.66,0l-1.6,2.774a.658.658,0,0,1-1.141,0L5.52,188.8a3.081,3.081,0,0,0,0-3.754L9.7,177.8a.658.658,0,0,1,1.141,0l1.6,2.774a1.534,1.534,0,0,0,2.66,0h0a1.542,1.542,0,0,0,0-1.539l-3.687-6.4a1.315,1.315,0,0,0-2.282,0L2.647,183.874a3.08,3.08,0,0,0,0,6.094l6.48,11.246a1.315,1.315,0,0,0,2.282,0l3.687-6.4A1.542,1.542,0,0,0,15.095,193.273Z" transform="translate(-0.014 -164.421)" fill="#34dcc4"/>
          <path id="seameet-home-board-Path_1529" data-name="Path 1529" d="M432.177,10.341a1.535,1.535,0,0,0,1.33-2.3l-1.6-2.768a.658.658,0,0,1,.571-.987h8.352a3.069,3.069,0,0,0,3.244,1.873l4.176,7.234a.658.658,0,0,1-.57.987h-3.2a1.535,1.535,0,0,0-1.33,2.3h0a1.536,1.536,0,0,0,1.33.768h7.379a1.317,1.317,0,0,0,1.141-1.975L446.524,4.251a3.072,3.072,0,0,0-5.267-3.04H428.3a1.317,1.317,0,0,0-1.141,1.975l3.687,6.389a1.536,1.536,0,0,0,1.33.768Z" transform="translate(-408.242 -0.039)" fill="#19b9c3"/>
          <path id="seameet-home-board-Path_1530" data-name="Path 1530" d="M432.177,634.4a1.535,1.535,0,0,1,1.33,2.3l-1.6,2.768a.658.658,0,0,0,.571.987h8.352a3.069,3.069,0,0,1,3.244-1.873l4.176-7.234a.658.658,0,0,0-.57-.987h-3.2a1.535,1.535,0,0,1-1.33-2.3h0a1.536,1.536,0,0,1,1.33-.768h7.379a1.317,1.317,0,0,1,1.141,1.975l-6.483,11.222a3.072,3.072,0,0,1-5.267,3.04H428.3a1.317,1.317,0,0,1-1.141-1.975l3.687-6.389a1.536,1.536,0,0,1,1.33-.768Z" transform="translate(-408.242 -599.699)" fill="#50fec5"/>
        </g>
      </g>
    </g>
  </g>
</svg>
