<svg xmlns="http://www.w3.org/2000/svg" xmlns:xlink="http://www.w3.org/1999/xlink" viewBox="0 0 104.22 91.42">
    <defs>
        <style>
            .ngmeeting-home-chat-svg-1 {
                mask: url(#mask);
                filter: url(#luminosity-noclip-4);
            }

            .ngmeeting-home-chat-svg-2,
            .ngmeeting-home-chat-svg-4,
            .ngmeeting-home-chat-svg-6 {
                mix-blend-mode: multiply;
            }

            .ngmeeting-home-chat-svg-2 {
                fill: url(#linear-gradient);
            }

            .ngmeeting-home-chat-svg-3 {
                mask: url(#mask-2);
                filter: url(#luminosity-noclip-5);
            }

            .ngmeeting-home-chat-svg-4 {
                fill: url(#linear-gradient-2);
            }

            .ngmeeting-home-chat-svg-5 {
                mask: url(#mask-3);
                filter: url(#luminosity-noclip-6);
            }

            .ngmeeting-home-chat-svg-6 {
                fill: url(#linear-gradient-3);
            }

            .ngmeeting-home-chat-svg-10,
            .ngmeeting-home-chat-svg-7 {
                opacity: 1;
                isolation: isolate;
            }

            .ngmeeting-home-chat-svg-7 {
                fill: url(#linear-gradient-4);
            }

            .ngmeeting-home-chat-svg-8 {
                fill: url(#linear-gradient-5);
            }

            .ngmeeting-home-chat-svg-9 {
                fill: url(#linear-gradient-6);
            }

            .ngmeeting-home-chat-svg-11 {
                fill: url(#linear-gradient-7);
            }

            .ngmeeting-home-chat-svg-12 {
                fill: url(#linear-gradient-8);
            }

            .ngmeeting-home-chat-svg-13 {
                fill: #95f2f4;
            }

            .ngmeeting-home-chat-svg-14 {
                fill: url(#linear-gradient-9);
            }

            .ngmeeting-home-chat-svg-15 {
                fill: url(#linear-gradient-10);
            }

            .ngmeeting-home-chat-svg-16 {
                fill: url(#linear-gradient-11);
            }

            .ngmeeting-home-chat-svg-17 {
                fill: #fff;
            }

            .ngmeeting-home-chat-svg-18 {
                mask: url(#mask-4);
            }

            .ngmeeting-home-chat-svg-19,
            .ngmeeting-home-chat-svg-21,
            .ngmeeting-home-chat-svg-23 {
                opacity: 0.33;
            }

            .ngmeeting-home-chat-svg-19 {
                fill: url(#linear-gradient-12);
            }

            .ngmeeting-home-chat-svg-20 {
                mask: url(#mask-5);
            }

            .ngmeeting-home-chat-svg-21 {
                fill: url(#linear-gradient-13);
            }

            .ngmeeting-home-chat-svg-22 {
                mask: url(#mask-6);
            }

            .ngmeeting-home-chat-svg-23 {
                fill: url(#linear-gradient-14);
            }

            .ngmeeting-home-chat-svg-24 {
                filter: url(#luminosity-noclip-3);
            }

            .ngmeeting-home-chat-svg-25 {
                filter: url(#luminosity-noclip-2);
            }

            .ngmeeting-home-chat-svg-26 {
                filter: url(#luminosity-noclip);
            }
        </style>
        <filter id="luminosity-noclip" x="44.55" y="-8483.75" width="6.73" height="32766" filterUnits="userSpaceOnUse"
            color-interpolation-filters="sRGB">
            <feFlood flood-color="#fff" result="bg" />
            <feBlend in="SourceGraphic" in2="bg" />
        </filter>
        <mask id="mask" x="44.55" y="-8483.75" width="6.73" height="32766" maskUnits="userSpaceOnUse">
            <g class="ngmeeting-home-chat-svg-26" />
        </mask>
        <linearGradient id="linear-gradient" x1="44.55" y1="48.44" x2="51.28" y2="48.44" gradientUnits="userSpaceOnUse">
            <stop offset="0" stop-color="gray" />
            <stop offset="0.1" stop-color="#8f8f8f" />
            <stop offset="0.52" stop-color="#cbcbcb" />
            <stop offset="0.84" stop-color="#f1f1f1" />
            <stop offset="1" stop-color="#fff" />
        </linearGradient>
        <filter id="luminosity-noclip-2" x="56.21" y="-8483.75" width="6.73" height="32766" filterUnits="userSpaceOnUse"
            color-interpolation-filters="sRGB">
            <feFlood flood-color="#fff" result="bg" />
            <feBlend in="SourceGraphic" in2="bg" />
        </filter>
        <mask id="mask-2" x="56.21" y="-8483.75" width="6.73" height="32766" maskUnits="userSpaceOnUse">
            <g class="ngmeeting-home-chat-svg-25" />
        </mask>
        <linearGradient id="linear-gradient-2" x1="56.21" y1="41.71" x2="62.94" y2="41.71"
            xlink:href="#linear-gradient" />
        <filter id="luminosity-noclip-3" x="67.87" y="-8483.75" width="6.73" height="32766" filterUnits="userSpaceOnUse"
            color-interpolation-filters="sRGB">
            <feFlood flood-color="#fff" result="bg" />
            <feBlend in="SourceGraphic" in2="bg" />
        </filter>
        <mask id="mask-3" x="67.87" y="-8483.75" width="6.73" height="32766" maskUnits="userSpaceOnUse">
            <g class="ngmeeting-home-chat-svg-24" />
        </mask>
        <linearGradient id="linear-gradient-3" x1="67.87" y1="34.98" x2="74.59" y2="34.98"
            xlink:href="#linear-gradient" />
        <linearGradient id="linear-gradient-4" x1="-24.09" y1="20.25" x2="91.69" y2="20.25"
            gradientTransform="matrix(0.87, -0.5, 0, 1.15, 20.86, 37.39)" gradientUnits="userSpaceOnUse">
            <stop offset="0" stop-color="#66fedd" />
            <stop offset="0.04" stop-color="#57ebd3" />
            <stop offset="0.11" stop-color="#42d0c5" />
            <stop offset="0.19" stop-color="#31bab9" />
            <stop offset="0.28" stop-color="#24a9b0" />
            <stop offset="0.39" stop-color="#1b9eaa" />
            <stop offset="0.55" stop-color="#1597a6" />
            <stop offset="1" stop-color="#1495a5" />
        </linearGradient>
        <linearGradient id="linear-gradient-5" x1="-9.75" y1="42.21" x2="1.45" y2="40.23"
            gradientTransform="matrix(0.87, -0.5, 0, 1.15, 20.86, 37.39)" gradientUnits="userSpaceOnUse">
            <stop offset="0" stop-color="#33fed0" />
            <stop offset="0.19" stop-color="#2adcbf" />
            <stop offset="0.42" stop-color="#20baae" />
            <stop offset="0.64" stop-color="#1aa2a1" />
            <stop offset="0.84" stop-color="#15939a" />
            <stop offset="1" stop-color="#148e97" />
        </linearGradient>
        <linearGradient id="linear-gradient-6" x1="-14.75" y1="24.51" x2="96.26" y2="24.51"
            gradientTransform="matrix(0.87, -0.5, 0, 1.15, 20.86, 37.39)" gradientUnits="userSpaceOnUse">
            <stop offset="0" stop-color="#50fec5" />
            <stop offset="0.22" stop-color="#42ecc4" />
            <stop offset="0.73" stop-color="#24c7c3" />
            <stop offset="1" stop-color="#19b9c3" />
        </linearGradient>
        <linearGradient id="linear-gradient-7" x1="-24.1" y1="14.16" x2="91.69" y2="14.16"
            gradientTransform="matrix(0.87, -0.5, 0, 1.15, 20.86, 37.39)" gradientUnits="userSpaceOnUse">
            <stop offset="0" stop-color="#33fed0" />
            <stop offset="0.05" stop-color="#2ce4c3" />
            <stop offset="0.12" stop-color="#24c9b5" />
            <stop offset="0.2" stop-color="#1eb3aa" />
            <stop offset="0.29" stop-color="#1aa2a1" />
            <stop offset="0.4" stop-color="#16979b" />
            <stop offset="0.56" stop-color="#159098" />
            <stop offset="1" stop-color="#148e97" />
        </linearGradient>
        <linearGradient id="linear-gradient-8" x1="-24.1" y1="42.39" x2="91.69" y2="42.39"
            gradientTransform="matrix(0.87, -0.5, 0, 1.15, 20.86, 37.39)" gradientUnits="userSpaceOnUse">
            <stop offset="0" stop-color="#58fed3" />
            <stop offset="0.04" stop-color="#4cebc7" />
            <stop offset="0.11" stop-color="#3ad0b7" />
            <stop offset="0.19" stop-color="#2cbaaa" />
            <stop offset="0.28" stop-color="#21a99f" />
            <stop offset="0.39" stop-color="#1a9e98" />
            <stop offset="0.55" stop-color="#159794" />
            <stop offset="1" stop-color="#149593" />
        </linearGradient>
        <linearGradient id="linear-gradient-9" x1="42.51" y1="47.55" x2="50.24" y2="47.55"
            gradientTransform="matrix(1, 0, 0, 1, 0, 0)" xlink:href="#linear-gradient-4" />
        <linearGradient id="linear-gradient-10" x1="54.17" y1="40.82" x2="61.89" y2="40.82"
            gradientTransform="matrix(1, 0, 0, 1, 0, 0)" xlink:href="#linear-gradient-4" />
        <linearGradient id="linear-gradient-11" x1="65.83" y1="34.08" x2="73.55" y2="34.08"
            gradientTransform="matrix(1, 0, 0, 1, 0, 0)" xlink:href="#linear-gradient-4" />
        <filter id="luminosity-noclip-4" x="44.55" y="43.95" width="6.73" height="8.98" filterUnits="userSpaceOnUse"
            color-interpolation-filters="sRGB">
            <feFlood flood-color="#fff" result="bg" />
            <feBlend in="SourceGraphic" in2="bg" />
        </filter>
        <mask id="mask-4" x="44.55" y="43.95" width="6.73" height="8.98" maskUnits="userSpaceOnUse">
            <g class="ngmeeting-home-chat-svg-1">
                <path class="ngmeeting-home-chat-svg-2"
                    d="M46.19,52.93c-1,0-1.64-.84-1.64-2.26a8,8,0,0,1,3.61-6.26A3.11,3.11,0,0,1,49.64,44c1,0,1.64.85,1.64,2.26a8,8,0,0,1-3.62,6.26A3,3,0,0,1,46.19,52.93Z" />
            </g>
        </mask>
        <linearGradient id="linear-gradient-12" x1="44.55" y1="48.44" x2="51.28" y2="48.44"
            gradientUnits="userSpaceOnUse">
            <stop offset="0" stop-color="#00dfff" />
            <stop offset="0.14" stop-color="#00e2ff" />
            <stop offset="1" stop-color="#00f0ff" />
        </linearGradient>
        <filter id="luminosity-noclip-5" x="56.21" y="37.22" width="6.73" height="8.98" filterUnits="userSpaceOnUse"
            color-interpolation-filters="sRGB">
            <feFlood flood-color="#fff" result="bg" />
            <feBlend in="SourceGraphic" in2="bg" />
        </filter>
        <mask id="mask-5" x="56.21" y="37.22" width="6.73" height="8.98" maskUnits="userSpaceOnUse">
            <g class="ngmeeting-home-chat-svg-3">
                <path class="ngmeeting-home-chat-svg-4"
                    d="M57.85,46.2c-1,0-1.64-.84-1.64-2.26a8,8,0,0,1,3.61-6.26,3.11,3.11,0,0,1,1.48-.46c1,0,1.64.85,1.64,2.26a8,8,0,0,1-3.62,6.26A3,3,0,0,1,57.85,46.2Z" />
            </g>
        </mask>
        <linearGradient id="linear-gradient-13" x1="56.21" y1="41.71" x2="62.94" y2="41.71"
            xlink:href="#linear-gradient-12" />
        <filter id="luminosity-noclip-6" x="67.87" y="30.49" width="6.73" height="8.98" filterUnits="userSpaceOnUse"
            color-interpolation-filters="sRGB">
            <feFlood flood-color="#fff" result="bg" />
            <feBlend in="SourceGraphic" in2="bg" />
        </filter>
        <mask id="mask-6" x="67.87" y="30.49" width="6.73" height="8.98" maskUnits="userSpaceOnUse">
            <g class="ngmeeting-home-chat-svg-5">
                <path class="ngmeeting-home-chat-svg-6"
                    d="M69.51,39.47c-1,0-1.64-.85-1.64-2.26A8,8,0,0,1,71.48,31,3,3,0,0,1,73,30.49c1,0,1.63.85,1.63,2.26A8,8,0,0,1,71,39,3,3,0,0,1,69.51,39.47Z" />
            </g>
        </mask>
        <linearGradient id="linear-gradient-14" x1="67.87" y1="34.98" x2="74.59" y2="34.98"
            xlink:href="#linear-gradient-12" />
    </defs>
    <g id="Layer_2" data-name="Layer 2">
        <g id="Layer_3" data-name="Layer 3">
            <g id="speech_bubble_3" data-name="speech bubble_3">
                <path class="ngmeeting-home-chat-svg-7"
                    d="M48.06,12.32C21.52,27.64,0,51.31,0,65.17,0,68.84,1.51,71.46,4.23,73l8,4.63,2.57,1.1L16.17,86a.9.9,0,0,0,.39.64l8.11,4.68L27.51,72a111.89,111.89,0,0,0,20.55-9.45C74.61,47.19,100.27,6.64,100.27,6.64L91.88,1.79C84.34-2.57,67.56,1.06,48.06,12.32Z" />
                <path class="ngmeeting-home-chat-svg-8" d="M14.82,78.77,16.17,86a.9.9,0,0,0,.39.64l8.11,4.68-2.5-11.87Z" />
                <path class="ngmeeting-home-chat-svg-9"
                    d="M56.15,17C29.61,32.31,8.09,56,8.09,69.84c0,6.93,5.38,10.1,14.08,9.62l2.09,11.22c.21,1.14,1.51.93,2.38-.38l9-13.66a111.89,111.89,0,0,0,20.55-9.45c26.55-15.33,48.07-39,48.07-52.85S82.7,1.66,56.15,17Z" />
                <g class="ngmeeting-home-chat-svg-10">
                    <path class="ngmeeting-home-chat-svg-11"
                        d="M94.92,3.55c-8.6-2-23.59,2-40.68,11.85C27.54,30.82,5.9,54.61,5.9,68.55c0,3.72,1.55,6.35,4.31,7.93l-.09,0,2.13,1.23.12,0a8.46,8.46,0,0,1-4.29-7.88C8.08,56,29.6,32.31,56.15,17,75.9,5.58,92.87,2,100.26,6.65h0Z" />
                    <path class="ngmeeting-home-chat-svg-12"
                        d="M24.25,90.68,22.16,79.46c-.64,0-1.26,0-1.87,0l1.87,10a.89.89,0,0,0,.33.57l2.17,1.25h0A.9.9,0,0,1,24.25,90.68Z" />
                </g>
                <path class="ngmeeting-home-chat-svg-13"
                    d="M104.22,14.34C104.22.48,82.7,1.66,56.15,17a151.76,151.76,0,0,0-22.84,16.2A152.18,152.18,0,0,1,53.65,19.08C80.2,3.76,101.72,2.57,101.72,16.43c0,9.55-10.2,23.74-25.23,36.65C92.87,39.63,104.22,24.4,104.22,14.34Z" />
                <g class="ngmeeting-home-chat-svg-10">
                    <path class="ngmeeting-home-chat-svg-14"
                        d="M50.24,45.32A8.53,8.53,0,0,1,46.37,52c-2.13,1.23-3.86.23-3.86-2.23a8.53,8.53,0,0,1,3.86-6.69C48.51,41.85,50.24,42.85,50.24,45.32Z" />
                    <path class="ngmeeting-home-chat-svg-15"
                        d="M61.89,38.59A8.53,8.53,0,0,1,58,45.28c-2.13,1.23-3.86.23-3.86-2.23A8.56,8.56,0,0,1,58,36.35C60.17,35.12,61.89,36.12,61.89,38.59Z" />
                    <path class="ngmeeting-home-chat-svg-16"
                        d="M73.55,31.85a8.56,8.56,0,0,1-3.86,6.7c-2.13,1.23-3.86.23-3.86-2.23a8.56,8.56,0,0,1,3.86-6.7C71.82,28.39,73.55,29.39,73.55,31.85Z" />
                </g>
                <path class="ngmeeting-home-chat-svg-17"
                    d="M51.78,46.21a8.51,8.51,0,0,1-3.87,6.69c-2.13,1.24-3.86.24-3.86-2.23A8.55,8.55,0,0,1,47.91,44C50.05,42.75,51.78,43.75,51.78,46.21Z" />
                <g class="ngmeeting-home-chat-svg-18">
                    <path class="ngmeeting-home-chat-svg-19"
                        d="M46.19,52.93c-1,0-1.64-.84-1.64-2.26a8,8,0,0,1,3.61-6.26A3.11,3.11,0,0,1,49.64,44c1,0,1.64.85,1.64,2.26a8,8,0,0,1-3.62,6.26A3,3,0,0,1,46.19,52.93Z" />
                </g>
                <path class="ngmeeting-home-chat-svg-17"
                    d="M63.44,39.48a8.53,8.53,0,0,1-3.87,6.69c-2.13,1.23-3.86.24-3.86-2.23a8.55,8.55,0,0,1,3.86-6.69C61.71,36,63.44,37,63.44,39.48Z" />
                <g class="ngmeeting-home-chat-svg-20">
                    <path class="ngmeeting-home-chat-svg-21"
                        d="M57.85,46.2c-1,0-1.64-.84-1.64-2.26a8,8,0,0,1,3.61-6.26,3.11,3.11,0,0,1,1.48-.46c1,0,1.64.85,1.64,2.26a8,8,0,0,1-3.62,6.26A3,3,0,0,1,57.85,46.2Z" />
                </g>
                <path class="ngmeeting-home-chat-svg-17"
                    d="M75.09,32.75a8.52,8.52,0,0,1-3.86,6.69c-2.13,1.23-3.86.23-3.86-2.23a8.55,8.55,0,0,1,3.86-6.69C73.37,29.29,75.09,30.29,75.09,32.75Z" />
                <g class="ngmeeting-home-chat-svg-22">
                    <path class="ngmeeting-home-chat-svg-23"
                        d="M69.51,39.47c-1,0-1.64-.85-1.64-2.26A8,8,0,0,1,71.48,31,3,3,0,0,1,73,30.49c1,0,1.63.85,1.63,2.26A8,8,0,0,1,71,39,3,3,0,0,1,69.51,39.47Z" />
                </g>
            </g>
        </g>
    </g>
</svg>