<svg xmlns="http://www.w3.org/2000/svg" width="375" height="605" viewBox="0 0 375 605">
    <defs>
        <clipPath id="nrerraafha">
            <path data-name="Rectangle 2048" transform="translate(0 60)" style="fill:none" d="M0 0h375v605H0z"/>
        </clipPath>
    </defs>
    <g data-name="Mask Group 2" transform="translate(0 -60)" style="clip-path:url(#nrerraafha)">
        <g data-name="資產 1">
            <g data-name="圖層 7">
                <g data-name="Group 3680">
                    <path data-name="Path 44124" d="M744.161 752.932c32.934-51.538 54.588-121.78 51.725-187.523-2.97-68.187-25.455-130.41-18.037-200.856 4.248-40.279 15.913-79.428 16.5-120.021 2.784-191.837-255.274-345.859-351.922-161.948-6.633 12.611-12.02 26.464-20.961 36.8-11.142 12.871-27.456 18.926-42.692 15.871-24.562-4.945-45.754-26.945-69.716-35.8A193.559 193.559 0 0 0 242.1 87.436c-45.031-.111-90.016 15.13-128.89 42.334C35.564 184.049-12.668 286.107 2.922 395c9.219 64.427 40.906 120.984 76.334 170.559a862.629 862.629 0 0 0 244.192 229.577c74.518 46.594 157.223 81.205 240.975 73.89 74.041-6.463 138.063-50.853 179.754-116.1z" transform="rotate(30 563.185 -86.642)" style="fill:#fefff2"/>
                </g>
            </g>
            <g data-name="圖層 7">
                <g data-name="Group 3680">
                    <path data-name="Path 44124" d="M658.445 553.641c29.141-37.9 48.3-89.547 45.767-137.888-2.628-50.139-22.523-95.892-15.959-147.692 3.758-29.617 14.08-58.4 14.6-88.253C705.316 38.747 476.982-74.507 391.466 60.725 385.6 70 380.831 80.184 372.919 87.783a44.8 44.8 0 0 1-37.774 11.67c-21.733-3.636-40.484-19.813-61.686-26.322a202.644 202.644 0 0 0-59.248-8.838c-39.844-.082-79.647 11.125-114.044 31.129C31.468 135.334-11.209 210.379 2.586 290.448c8.157 47.374 36.195 88.961 67.541 125.415 59.957 69.706 134.456 126.409 216.064 168.813 65.935 34.261 139.114 59.711 213.218 54.333a220.018 220.018 0 0 0 159.049-85.366z" transform="rotate(30 188.256 -8.34)" style="fill:#fffcf2"/>
                </g>
            </g>
            <g data-name="圖層 7">
                <g data-name="Group 3680">
                    <path data-name="Path 44124" d="M541.284 528.864c23.956-36.2 39.706-85.539 37.624-131.717-2.16-47.895-18.515-91.6-13.12-141.082 3.09-28.292 11.575-55.79 12-84.3C579.815 37.013 392.11-71.173 321.81 58.008c-4.825 8.858-8.743 18.588-15.247 25.847-8.1 9.04-19.97 13.294-31.053 11.148-17.866-3.473-33.28-18.926-50.71-25.144a145.264 145.264 0 0 0-48.7-8.443c-32.754-.078-65.475 10.627-93.752 29.736-56.48 38.125-91.562 109.811-80.222 186.297 6.705 45.254 29.754 84.98 55.523 119.8a619.18 619.18 0 0 0 177.619 161.26c54.2 32.728 114.36 57.039 175.279 51.9C464.4 605.87 510.97 574.691 541.3 528.864z" transform="rotate(30 120.911 192.193)" style="fill:#fff9e6"/>
                </g>
            </g>
            <g data-name="圖層 7">
                <g data-name="Group 3680">
                    <path data-name="Path 44124" d="M368.213 309.605c16.3-21.192 27.01-50.076 25.594-77.109-1.47-28.038-12.6-53.625-8.925-82.592 2.1-16.563 7.874-32.661 8.163-49.353 1.378-78.883-126.31-142.217-174.132-66.593-3.282 5.186-5.947 10.882-10.372 15.131a25.054 25.054 0 0 1-21.124 6.526c-12.154-2.033-22.639-11.08-34.5-14.72a113.322 113.322 0 0 0-33.133-4.942 127.359 127.359 0 0 0-63.769 17.409C17.6 75.681-6.268 117.647 1.446 162.423c4.561 26.492 20.241 49.749 37.77 70.134 33.529 38.981 75.19 70.69 120.827 94.4 36.872 19.159 77.795 33.392 119.235 30.384a123.037 123.037 0 0 0 88.943-47.738z" transform="rotate(30 -444.429 322.88)" style="fill:#fff4e2"/>
                </g>
            </g>
            <g data-name="圖層 4">
                <g data-name="Group 3678">
                    <path data-name="Path 44122" d="M313.092 182.11c2.868-20.007-.8-43.018-11.768-60.3-11.379-17.924-28.209-30.65-36.54-51.1-4.765-11.694-6.941-24.438-12.942-35.545C223.46-17.3 115.829-11.617 112.405 55.956c-.235 4.629.124 9.376-1.211 13.82A18.964 18.964 0 0 1 99.7 81.921c-8.758 3.177-19.03 1.106-28.19 3.109a85.734 85.734 0 0 0-23.66 9.042 96.422 96.422 0 0 0-35.55 35.144c-17.022 28.969-17.158 65.478 4.543 92.1 12.843 15.761 31.8 25.26 50.917 32.177 36.565 13.233 75.781 18.653 114.639 17.331 31.4-1.069 63.643-6.885 89.824-24.253a93.032 93.032 0 0 0 40.867-64.465z" style="fill:#fff0e5" transform="rotate(48 -309.288 439.756)"/>
                </g>
            </g>
        </g>
    </g>
</svg>
