<svg xmlns="http://www.w3.org/2000/svg" width="1366" height="707" viewBox="0 0 1366 707">
    <defs>
        <clipPath id="649je9f2ma">
            <path data-name="Rectangle 2045" transform="translate(0 4287)" style="fill:#19b9c3" d="M0 0h1366v707H0z"/>
        </clipPath>
    </defs>
    <g data-name="GTA bg" transform="translate(0 -4287)" style="clip-path:url(#649je9f2ma)">
        <g data-name="Group 3671">
            <g data-name="Group 3655">
                <path data-name="Path 44116" d="M207.393 194.593a4.368 4.368 0 0 1 6.052 0l12.989 12.989a4.368 4.368 0 0 1 0 6.052 4.368 4.368 0 0 1-6.052 0l-12.989-12.989a4.368 4.368 0 0 1 0-6.052z" transform="translate(47.499 4346.975)" style="fill:#ffeea6"/>
                <path data-name="Path 44117" d="M226.533 194.628a4.368 4.368 0 0 1 0 6.052l-12.989 12.989a4.368 4.368 0 0 1-6.052 0 4.368 4.368 0 0 1 0-6.052l12.989-12.989a4.109 4.109 0 0 1 6.052 0z" transform="translate(47.547 4346.939)" style="fill:#ffeea6"/>
            </g>
            <g data-name="Group 3656">
                <path data-name="Path 44118" d="M207.393 194.593a4.368 4.368 0 0 1 6.052 0l12.989 12.989a4.368 4.368 0 0 1 0 6.052 4.368 4.368 0 0 1-6.052 0l-12.989-12.989a4.368 4.368 0 0 1 0-6.052z" transform="translate(932.724 4447.385)" style="fill:#ffeea6"/>
                <path data-name="Path 44119" d="M226.533 194.628a4.368 4.368 0 0 1 0 6.052l-12.989 12.989a4.368 4.368 0 0 1-6.052 0 4.368 4.368 0 0 1 0-6.052l12.989-12.989a4.109 4.109 0 0 1 6.052 0z" transform="translate(932.772 4447.349)" style="fill:#ffeea6"/>
            </g>
            <g data-name="Group 3657" transform="translate(1188.477 4370.893)">
                <circle data-name="Ellipse 91" cx="4.723" cy="4.723" r="4.723" style="fill:#d4aeef"/>
                <circle data-name="Ellipse 92" cx="4.723" cy="4.723" r="4.723" transform="translate(0 24.354)" style="fill:#d4aeef"/>
                <circle data-name="Ellipse 93" cx="4.723" cy="4.723" r="4.723" transform="translate(23.764)" style="fill:#d4aeef"/>
                <circle data-name="Ellipse 94" cx="4.723" cy="4.723" r="4.723" transform="translate(23.764 24.354)" style="fill:#d4aeef"/>
            </g>
            <g data-name="Group 3658" transform="translate(126.504 4617.642)">
                <circle data-name="Ellipse 95" cx="4.723" cy="4.723" r="4.723" style="fill:#fff"/>
                <circle data-name="Ellipse 96" cx="4.723" cy="4.723" r="4.723" transform="translate(0 24.354)" style="fill:#fff"/>
                <circle data-name="Ellipse 97" cx="4.723" cy="4.723" r="4.723" transform="translate(23.764)" style="fill:#fff"/>
                <circle data-name="Ellipse 98" cx="4.723" cy="4.723" r="4.723" transform="translate(23.764 24.354)" style="fill:#fff"/>
            </g>
            <g data-name="Group 3659">
                <path data-name="Line 37" style="stroke:#ffeea6;fill:none;stroke-linecap:round;stroke-miterlimit:10;stroke-width:3px" d="M0 154.118 154.118 0" transform="translate(1242.862 4303.694)"/>
            </g>
            <g data-name="Group 3660">
                <path data-name="Line 38" style="stroke:#ffeea6;fill:none;stroke-linecap:round;stroke-miterlimit:10;stroke-width:3px" d="M0 143.954 143.954 0" transform="translate(1180.403 4800.703)"/>
            </g>
            <g data-name="Group 3661">
                <path data-name="Line 39" style="stroke:#ffeea6;fill:none;stroke-linecap:round;stroke-miterlimit:10;stroke-width:3px" d="M0 118.532 118.624 0" transform="translate(29.257 4345.427)"/>
            </g>
            <g data-name="Group 3662">
                <path data-name="Line 40" style="stroke:#ffeea6;fill:none;stroke-linecap:round;stroke-miterlimit:10;stroke-width:3px" d="M0 133.612 133.497 0" transform="translate(282.674 4939.546)"/>
            </g>
            <g data-name="Group 3663">
                <path data-name="Line 41" style="stroke:#ffeea6;fill:none;stroke-linecap:round;stroke-miterlimit:10;stroke-width:3px" d="M0 106.238 106.33 0" transform="translate(-29 4351.574)"/>
            </g>
            <g data-name="Group 3664" transform="translate(955.907 4813.637)">
                <circle data-name="Ellipse 99" cx="10.056" cy="10.056" style="fill:#fff" r="10.056"/>
            </g>
            <g data-name="Group 3665" transform="translate(483.907 4836.032)">
                <circle data-name="Ellipse 100" cx="10.056" cy="10.056" style="fill:#fff" r="10.056"/>
            </g>
            <g data-name="Group 3666">
                <path data-name="Path 44120" d="M31.985 576.444c2.633-.94 103.257-102.5 141.625-141.437a20.664 20.664 0 0 1 29.529 0 21 21 0 0 1 0 29.529l-31.6 31.6a10.444 10.444 0 0 0 0 14.859 10.444 10.444 0 0 0 14.858 0l13.166-13.166a22.705 22.705 0 0 1 32.35 0 22.705 22.705 0 0 1 0 32.35 9.763 9.763 0 0 0 0 13.73l37.052 37.052H28.6" transform="translate(911.435 4443.88)" style="fill:#fff"/>
            </g>
            <g data-name="Group 3667">
                <path data-name="Path 44121" d="M835.514 178.181 975.107 38.588a33.066 33.066 0 0 0 0-46.99 33.065 33.065 0 0 0-46.989 0l-74.5 74.725a11.486 11.486 0 0 1-16.045 0 11.486 11.486 0 0 1 0-16.045l25.214-25.443a17.848 17.848 0 0 0 0-25.443 17.848 17.848 0 0 0-25.443 0L769.041 67.7c-15.358 15.358-101.78 112.808-119.888 103.181-4.355-2.292 55.02-99.514-83.428 27.931-.225.228 269.789-19.026 269.789-20.631z" transform="translate(-664.484 4874.346)" style="fill:#fff"/>
            </g>
            <g data-name="Group 3668">
                <path data-name="Line 42" style="stroke:#d4aeef;fill:none;stroke-linecap:round;stroke-miterlimit:10;stroke-width:3px" d="M0 132.752 132.752 0" transform="translate(-6.248 4780.45)"/>
            </g>
            <g data-name="Group 3669">
                <path data-name="Line 43" style="stroke:#d4aeef;fill:none;stroke-linecap:round;stroke-miterlimit:10;stroke-width:3px" d="M88.541 0 0 88.465" transform="translate(1276 4662.235)"/>
            </g>
            <g data-name="Group 3670">
                <path data-name="Line 44" style="stroke:#d4aeef;fill:none;stroke-linecap:round;stroke-miterlimit:10;stroke-width:3px" d="M88.541 0 0 88.465" transform="translate(1252.38 4920.419)"/>
            </g>
        </g>
    </g>
</svg>
