<svg xmlns="http://www.w3.org/2000/svg" width="1366" height="707" viewBox="0 0 1366 707">
    <defs>
        <clipPath id="fezaofyw2a">
            <path data-name="Rectangle 2048" transform="translate(0 60)" style="fill:none" d="M0 0h1366v707H0z"/>
        </clipPath>
    </defs>
    <g data-name="Mask Group 2" transform="translate(0 -60)" style="clip-path:url(#fezaofyw2a)">
        <g data-name="資產 1">
            <g data-name="圖層 7">
                <g data-name="Group 3680">
                    <path data-name="Path 44124" d="M1887.142 1586.773c83.519-108.614 138.431-256.646 131.172-395.195-7.532-143.7-64.552-274.833-45.74-423.294 10.772-84.885 40.355-167.39 41.838-252.939 7.064-404.288-647.353-728.881-892.447-341.3-16.821 26.578-30.481 55.771-53.156 77.548-28.256 27.124-69.625 39.886-108.263 33.447-62.288-10.42-116.029-56.785-176.8-75.441a580.788 580.788 0 0 0-169.809-25.329c-114.2-.234-228.273 31.886-326.857 89.217C90.189 387.881-32.123 602.962 7.412 832.445c23.378 135.777 103.736 254.968 193.577 359.445 171.839 199.783 385.36 362.294 619.253 483.827 188.972 98.194 398.707 171.136 611.1 155.72 187.762-13.621 350.118-107.17 455.844-244.665z" transform="rotate(14.98 1943.876 -222.638)" style="fill:#fefff2"/>
                </g>
            </g>
            <g data-name="圖層 7">
                <g data-name="Group 3680">
                    <path data-name="Path 44124" d="M1669.773 1404c73.9-96.1 122.486-227.084 116.063-349.674-6.664-127.148-57.117-243.177-40.472-374.537 9.531-75.108 35.707-148.109 37.019-223.8C1788.633 98.266 1209.6-188.94 992.732 154c-14.883 23.517-26.97 49.347-47.033 68.616-25 24-61.606 35.292-95.793 29.594-55.113-9.22-102.665-50.245-156.431-66.751a513.89 513.89 0 0 0-150.25-22.411c-101.042-.207-201.98 28.213-289.208 78.941C79.8 343.2-28.423 533.511 6.558 736.561c20.685 120.139 91.787 225.6 171.28 318.039 152.046 176.771 340.972 320.564 547.924 428.1 167.206 86.883 352.782 151.424 540.707 137.784 166.135-12.052 309.789-94.826 403.338-216.483z" transform="rotate(14.98 1827.196 660.035)" style="fill:#fffcf2"/>
                </g>
            </g>
            <g data-name="圖層 7">
                <g data-name="Group 3680">
                    <path data-name="Path 44124" d="M1372.661 1154.181c60.75-79 100.692-186.678 95.411-287.455-5.478-104.524-46.953-199.907-33.27-307.894 7.835-61.743 29.353-121.755 30.432-183.981C1470.372 80.782 994.365-155.32 816.09 126.6c-12.235 19.332-22.171 40.566-38.664 56.407a93.4 93.4 0 0 1-78.748 24.328c-45.307-7.58-84.4-41.3-128.6-54.874a422.451 422.451 0 0 0-123.515-18.424c-83.063-.17-166.04 23.193-237.748 64.894C65.6 282.136-23.365 438.581 5.391 605.5c17 98.761 75.455 185.457 140.8 261.451 124.991 145.317 280.3 263.524 450.429 351.924 137.454 71.423 290.01 124.48 444.5 113.267 136.574-9.907 254.667-77.953 331.569-177.963z" transform="rotate(14.98 916.095 1403.771)" style="fill:#fff9e6"/>
                </g>
            </g>
            <g data-name="圖層 7">
                <g data-name="Group 3680">
                    <path data-name="Path 44124" d="M933.765 785.143c41.326-53.743 68.5-126.989 64.9-195.544-3.727-71.1-31.941-135.988-22.633-209.448 5.33-42 19.968-82.825 20.7-125.155 3.5-200.043-320.312-360.653-441.586-168.875-8.323 13.151-15.082 27.6-26.3 38.371a63.536 63.536 0 0 1-53.569 16.55c-30.82-5.156-57.412-28.1-87.479-37.328a287.376 287.376 0 0 0-84.022-12.533c-56.5-.116-112.95 15.777-161.73 44.145C44.627 191.927-15.894 298.351 3.668 411.9 15.235 479.083 55 538.059 99.451 589.754c85.027 98.853 190.677 179.264 306.408 239.4 93.5 48.587 197.282 84.679 302.372 77.051a312.014 312.014 0 0 0 225.554-121.062z" transform="rotate(14.98 19.788 2422.373)" style="fill:#fff4e2"/>
                </g>
            </g>
            <g data-name="圖層 4">
                <g data-name="Group 3678">
                    <path data-name="Path 44122" d="M793.98 461.818c7.273-50.736-2.038-109.09-29.843-152.914-28.856-45.454-71.535-77.726-92.664-129.575-12.084-29.655-17.6-61.974-32.821-90.14-71.974-133.054-344.917-118.65-353.6 52.711-.6 11.74.313 23.777-3.072 35.047a48.092 48.092 0 0 1-29.153 30.8c-22.21 8.056-48.26 2.806-71.488 7.884a217.415 217.415 0 0 0-60 22.931C84.082 259.47 52.8 290.9 31.183 327.682-11.983 401.145-12.327 493.73 42.7 561.253c32.57 39.968 80.642 64.059 129.121 81.6C264.55 676.408 364 690.154 462.542 686.8c79.623-2.712 161.393-17.461 227.787-61.5a235.923 235.923 0 0 0 103.635-163.482z" style="fill:#fff0e5" transform="rotate(33 255.041 1726.61)"/>
                </g>
            </g>
        </g>
    </g>
</svg>
