<svg xmlns="http://www.w3.org/2000/svg" width="1366" height="718" viewBox="0 0 1366 718">
    <defs>
        <clipPath id="v5uc8o4lra">
            <path data-name="Rectangle 1455" transform="translate(0 4276)" style="fill:#19b9c3" d="M0 0h1366v718H0z"/>
        </clipPath>
    </defs>
    <g data-name="GTA bg" transform="translate(0 -4276)" style="clip-path:url(#v5uc8o4lra)">
        <g data-name="Group 543">
            <g data-name="Group 495">
                <path data-name="Path 37927" d="M207.393 194.593a4.368 4.368 0 0 1 6.052 0l12.989 12.989a4.368 4.368 0 0 1 0 6.052 4.368 4.368 0 0 1-6.052 0l-12.989-12.989a4.368 4.368 0 0 1 0-6.052z" transform="translate(47.499 4631.975)" style="fill:#ffeea6"/>
                <path data-name="Path 37928" d="M226.533 194.628a4.368 4.368 0 0 1 0 6.052l-12.989 12.989a4.368 4.368 0 0 1-6.052 0 4.368 4.368 0 0 1 0-6.052l12.989-12.989a4.109 4.109 0 0 1 6.052 0z" transform="translate(47.547 4631.939)" style="fill:#ffeea6"/>
            </g>
            <g data-name="Group 3269">
                <path data-name="Path 37927" d="M207.393 194.593a4.368 4.368 0 0 1 6.052 0l12.989 12.989a4.368 4.368 0 0 1 0 6.052 4.368 4.368 0 0 1-6.052 0l-12.989-12.989a4.368 4.368 0 0 1 0-6.052z" transform="translate(895.912 4571.163)" style="fill:#ffeea6"/>
                <path data-name="Path 37928" d="M226.533 194.628a4.368 4.368 0 0 1 0 6.052l-12.989 12.989a4.368 4.368 0 0 1-6.052 0 4.368 4.368 0 0 1 0-6.052l12.989-12.989a4.109 4.109 0 0 1 6.052 0z" transform="translate(895.96 4571.127)" style="fill:#ffeea6"/>
            </g>
            <g data-name="Group 491" transform="translate(1188.477 4692.542)">
                <circle data-name="Ellipse 14" cx="4.723" cy="4.723" r="4.723" style="fill:#ffc3aa"/>
                <circle data-name="Ellipse 15" cx="4.723" cy="4.723" r="4.723" transform="translate(0 24.354)" style="fill:#ffc3aa"/>
                <circle data-name="Ellipse 16" cx="4.723" cy="4.723" r="4.723" transform="translate(23.764)" style="fill:#ffc3aa"/>
                <circle data-name="Ellipse 17" cx="4.723" cy="4.723" r="4.723" transform="translate(23.764 24.354)" style="fill:#ffc3aa"/>
            </g>
            <g data-name="Group 3271" transform="translate(202.927 4675.642)">
                <circle data-name="Ellipse 14" cx="4.723" cy="4.723" r="4.723" style="fill:#fff"/>
                <circle data-name="Ellipse 15" cx="4.723" cy="4.723" r="4.723" transform="translate(0 24.354)" style="fill:#fff"/>
                <circle data-name="Ellipse 16" cx="4.723" cy="4.723" r="4.723" transform="translate(23.764)" style="fill:#fff"/>
                <circle data-name="Ellipse 17" cx="4.723" cy="4.723" r="4.723" transform="translate(23.764 24.354)" style="fill:#fff"/>
            </g>
            <g data-name="Group 486">
                <path data-name="Line 18" style="stroke:#ffeea6;fill:none;stroke-linecap:round;stroke-miterlimit:10;stroke-width:3px" d="M0 154.118 154.118 0" transform="translate(713.233 4872.68)"/>
            </g>
            <g data-name="Group 485">
                <path data-name="Line 19" style="stroke:#ffeea6;fill:none;stroke-linecap:round;stroke-miterlimit:10;stroke-width:3px" d="M0 143.954 143.954 0" transform="translate(1077.733 4912.564)"/>
            </g>
            <g data-name="Group 484">
                <path data-name="Line 20" style="stroke:#ffeea6;fill:none;stroke-linecap:round;stroke-miterlimit:10;stroke-width:3px" d="M0 118.532 118.624 0" transform="translate(29.257 4764.427)"/>
            </g>
            <g data-name="Group 483">
                <path data-name="Line 21" style="stroke:#ffeea6;fill:none;stroke-linecap:round;stroke-miterlimit:10;stroke-width:3px" d="M0 133.612 133.497 0" transform="translate(253.674 4893.186)"/>
            </g>
            <g data-name="Group 482">
                <path data-name="Line 22" style="stroke:#ffeea6;fill:none;stroke-linecap:round;stroke-miterlimit:10;stroke-width:3px" d="M0 106.238 106.33 0" transform="translate(-29 4770.574)"/>
            </g>
            <g data-name="Group 479" transform="translate(955.907 4813.637)">
                <circle data-name="Ellipse 37" cx="10.056" cy="10.056" style="fill:#fff" r="10.056"/>
            </g>
            <g data-name="Group 3270" transform="translate(483.907 4836.032)">
                <circle data-name="Ellipse 37" cx="10.056" cy="10.056" style="fill:#fff" r="10.056"/>
            </g>
            <g data-name="Group 477">
                <path data-name="Path 37939" d="M31.985 576.444c2.633-.94 103.257-102.5 141.625-141.437a20.664 20.664 0 0 1 29.529 0 21 21 0 0 1 0 29.529l-31.6 31.6a10.444 10.444 0 0 0 0 14.859 10.444 10.444 0 0 0 14.858 0l13.166-13.166a22.705 22.705 0 0 1 32.35 0 22.705 22.705 0 0 1 0 32.35 9.763 9.763 0 0 0 0 13.73l37.052 37.052H28.6" transform="translate(854.742 4443.88)" style="fill:#d4aeef"/>
            </g>
            <g data-name="Group 476">
                <path data-name="Path 37940" d="M835.514 178.181 975.107 38.588a33.066 33.066 0 0 0 0-46.99 33.065 33.065 0 0 0-46.989 0l-74.5 74.725a11.486 11.486 0 0 1-16.045 0 11.486 11.486 0 0 1 0-16.045l25.214-25.443a17.848 17.848 0 0 0 0-25.443 17.848 17.848 0 0 0-25.443 0L769.041 67.7c-15.358 15.358-101.78 112.808-119.888 103.181-4.355-2.292 55.02-99.514-83.428 27.931-.225.228 269.789-19.026 269.789-20.631z" transform="translate(-664.484 4874.346)" style="fill:#d4aeef"/>
            </g>
            <g data-name="Group 474">
                <path data-name="Line 24" style="stroke:#ffc3aa;fill:none;stroke-linecap:round;stroke-miterlimit:10;stroke-width:3px" d="M0 132.752 132.752 0" transform="translate(-6.248 4861.248)"/>
            </g>
            <g data-name="Group 473">
                <path data-name="Line 25" style="stroke:#ffc3aa;fill:none;stroke-linecap:round;stroke-miterlimit:10;stroke-width:3px" d="M88.541 0 0 88.465" transform="translate(1231.38 4726.342)"/>
            </g>
            <g data-name="Group 3272">
                <path data-name="Line 25" style="stroke:#ffc3aa;fill:none;stroke-linecap:round;stroke-miterlimit:10;stroke-width:3px" d="M88.541 0 0 88.465" transform="translate(1252.38 4920.419)"/>
            </g>
        </g>
    </g>
</svg>
