<svg xmlns="http://www.w3.org/2000/svg" width="375" height="913" viewBox="0 0 375 913">
    <defs>
        <clipPath id="476jwrv15a">
            <path data-name="Rectangle 2045" transform="translate(0 4287)" style="fill:#19b9c3" d="M0 0h375v913H0z"/>
        </clipPath>
    </defs>
    <g data-name="Group 3672">
        <path data-name="Rectangle 2044" style="fill:#f7f5f5" d="M0 0h375v913H0z"/>
        <g data-name="GTA bg" transform="translate(0 -4287)" style="clip-path:url(#476jwrv15a)">
            <g data-name="Group 3671">
                <g data-name="Group 3656">
                    <path data-name="Path 44118" d="M207.393 194.593a4.368 4.368 0 0 1 6.052 0l12.989 12.989a4.368 4.368 0 0 1 0 6.052 4.368 4.368 0 0 1-6.052 0l-12.989-12.989a4.368 4.368 0 0 1 0-6.052z" transform="translate(-95.268 4872.844)" style="fill:#ffeea6"/>
                    <path data-name="Path 44119" d="M226.533 194.628a4.368 4.368 0 0 1 0 6.052l-12.989 12.989a4.368 4.368 0 0 1-6.052 0 4.368 4.368 0 0 1 0-6.052l12.989-12.989a4.109 4.109 0 0 1 6.052 0z" transform="translate(-95.22 4872.808)" style="fill:#ffeea6"/>
                </g>
                <g data-name="Group 3659">
                    <path data-name="Line 37" style="fill:none;stroke:#ffeea6;stroke-linecap:round;stroke-miterlimit:10;stroke-width:3px" d="M0 154.118 154.118 0" transform="translate(279.848 5066.108)"/>
                </g>
                <g data-name="Group 3661">
                    <path data-name="Line 39" style="fill:none;stroke:#ffeea6;stroke-linecap:round;stroke-miterlimit:10;stroke-width:3px" d="M0 118.532 118.624 0" transform="translate(-59.312 4421.707)"/>
                </g>
                <g data-name="Group 3662">
                    <path data-name="Line 40" style="fill:none;stroke:#ffeea6;stroke-linecap:round;stroke-miterlimit:10;stroke-width:3px" d="M0 133.612 133.497 0" transform="translate(308.252 5108.2)"/>
                </g>
                <g data-name="Group 3663">
                    <path data-name="Line 41" style="fill:none;stroke:#ffeea6;stroke-linecap:round;stroke-miterlimit:10;stroke-width:3px" d="M0 106.238 106.33 0" transform="translate(-53.165 4508.707)"/>
                </g>
                <g data-name="Group 3664" transform="translate(-10.056 5133.11)">
                    <circle data-name="Ellipse 99" cx="10.056" cy="10.056" style="fill:#fff" r="10.056"/>
                </g>
                <g data-name="Group 3666">
                    <path data-name="Path 44120" d="M265.583 433.314c-2.633.94-103.257 102.5-141.625 141.437a20.664 20.664 0 0 1-29.529 0 21 21 0 0 1 0-29.529l31.6-31.6a10.444 10.444 0 0 0 0-14.859 10.444 10.444 0 0 0-14.858 0L98 511.932a22.705 22.705 0 0 1-32.35 0 22.705 22.705 0 0 1 0-32.35 9.763 9.763 0 0 0 0-13.73L28.6 428.8h240.368" transform="translate(235.886 3823.735)" style="fill:#fff"/>
                </g>
                <g data-name="Group 3667">
                    <path data-name="Path 44121" d="M835.514 178.181 975.107 38.588a33.066 33.066 0 0 0 0-46.99 33.065 33.065 0 0 0-46.989 0l-74.5 74.725a11.486 11.486 0 0 1-16.045 0 11.486 11.486 0 0 1 0-16.045l25.214-25.443a17.848 17.848 0 0 0 0-25.443 17.848 17.848 0 0 0-25.443 0L769.041 67.7c-15.358 15.358-101.78 112.808-119.888 103.181-4.355-2.292 55.02-99.514-83.428 27.931-.225.228 269.789-19.026 269.789-20.631z" transform="translate(-653.597 5098.388)" style="fill:#fff"/>
                </g>
            </g>
        </g>
    </g>
</svg>
