<svg xmlns="http://www.w3.org/2000/svg" width="28" height="28" viewBox="0 0 28 28">
    <path data-name="Path 59" d="M27.989 9.864c0-.018-.007-.035-.01-.052-.006-.034-.012-.068-.021-.1s-.013-.039-.019-.058-.019-.059-.031-.088-.018-.04-.027-.059-.026-.054-.041-.08l-.034-.056a1.142 1.142 0 0 0-.051-.073l-.041-.052q-.029-.034-.06-.065c-.016-.016-.031-.032-.048-.047l-.068-.057-.054-.041-.02-.015L14.667.489a1.2 1.2 0 0 0-1.335 0L.536 9.02l-.02.015c-.019.013-.037.027-.054.041s-.046.037-.068.057-.032.031-.048.047-.041.042-.06.065-.029.035-.042.055-.035.048-.05.073l-.035.056c-.011.019-.028.052-.041.08l-.027.056c-.009.02-.021.058-.031.088l-.019.058c-.006.02-.015.067-.021.1 0 .018-.007.035-.01.052a1.16 1.16 0 0 0-.01.158v8.531a1.185 1.185 0 0 0 .011.158c0 .017.007.035.01.051.006.034.012.068.021.1s.013.039.019.058.019.059.031.088.018.039.027.058.026.054.041.08l.035.055q.024.038.05.073a1.533 1.533 0 0 0 .102.117c.021.021.031.032.048.047l.068.058.054.041.02.015 12.8 8.531a1.2 1.2 0 0 0 1.335 0l12.8-8.531.02-.015.054-.041q.035-.028.068-.057c.017-.015.032-.031.048-.047s.041-.042.06-.065l.041-.052c.013-.018.035-.048.051-.073l.034-.055c.015-.027.028-.053.041-.08s.019-.038.027-.058l.031-.088c.01-.029.014-.038.019-.058l.021-.1c0-.017.007-.035.01-.051a1.261 1.261 0 0 0 .003-.159v-8.531a1.228 1.228 0 0 0-.011-.157zM15.2 3.738l9.427 6.284-4.211 2.817L15.2 9.35zm-2.406 0V9.35l-5.213 3.489-4.211-2.817zM2.406 12.273l3.01 2.013-3.01 2.014zM12.8 24.835l-9.43-6.284 4.211-2.816 5.219 3.488v5.612zm1.2-7.7-4.255-2.848L14 11.44l4.255 2.846zm1.2 7.7v-5.612l5.216-3.489 4.211 2.816-9.427 6.285zM25.594 16.3l-3.01-2.014 3.01-2.013z" transform="translate(0 -.287)" style="fill:#d4aeef"/>
</svg>
