<svg xmlns="http://www.w3.org/2000/svg" width="80" height="40" viewBox="0 0 80 40">
    <path data-name="Union 52" d="M-4831.538 39.3v-.119a.294.294 0 0 0 0-.169 132.28 132.28 0 0 1-.051-2.484 3.023 3.023 0 0 1 .306-.493c0-.018.018-.034.034-.051a803.43 803.43 0 0 0-.084 3.316 2.4 2.4 0 0 1-.1.7 2.419 2.419 0 0 1-.105-.7zm-.646-3.078c.748-1.479 2.211-2.671 2.211-3.555 0-.646-.425-1.344-1.751-2.5-1.31-1.156-2.654-2.194-2.654-3.537 0-1.463 2.16-2.7 3.181-3.419s2.313-1.394 2.313-2.041c0 0 .119-.749-1.8-1.615-1.938-.868-5.29-1.668-6-3.181a2.111 2.111 0 0 1 .747-2.7s.036-.952 1.583-1.054c1.565-.1 1.65.562 1.633.816v.018c-.12 0-.221.034-.221.068s.085.068.187.068c-.085.256-.324.579-1 .9a1.573 1.573 0 0 1-1.157.2.771.771 0 0 0-.373.578c0 .357.679 1.088 4 2.688s3.878 1.99 3.878 3.094c0 1.259-1.173 1.769-3.164 3.062-2.005 1.31-2.721 1.974-2.721 2.721s.953 1.6 2.449 3.1c0 0 1.683 1.36 1.683 2.518 0 1.378-1.6 2.4-2.347 3.435a2.751 2.751 0 0 0-.391 2.907c.09.237.1.339.078.339a3.275 3.275 0 0 1-.365-2.909zm-1.973-23.1c0 .1.136.187.306.187s.306-.084.306-.187-.135-.187-.306-.187-.306.091-.306.192zm2.959 22.79a3.94 3.94 0 0 0 .256-.29c.1.153.187.307.271.46a1.79 1.79 0 0 1-.34 1.972 2.126 2.126 0 0 0-.189-2.137zm-2.347-3.453a3.975 3.975 0 0 1 1.412-2.278 2.793 2.793 0 0 1 .256.221c.068.051.118.119.186.171.206.187.391.356.562.527-.016 1.174-.05 2.262-.068 3.231-.135.154-.255.324-.391.494a1.566 1.566 0 0 0-.255.391c-.733-.727-1.702-1.747-1.702-2.752zm.765.188a4.8 4.8 0 0 0 1.157 2.04c-.018-1.14-.034-2.466-.069-3.912-.799.825-1.088 1.383-1.088 1.878zm2.109-2.943-.424-.425-.629-.629c-.018-1.088-.035-2.228-.069-3.368.2-.153.425-.306.663-.476.035-.034.085-.051.119-.085 0-.016.018-.016.018-.016.169-.119.357-.238.561-.375a2.063 2.063 0 0 1 .256-.169c.9.679 1.8 1.531 1.8 2.466 0 1.19-1.055 2.143-2.212 3.146-.032-.029-.066-.047-.083-.063zm-.408-.578c1.021-1.021 1.65-1.718 1.65-2.313 0-.578-.442-1.106-1.564-1.922-.034 1.469-.069 2.879-.086 4.241zm54.872-.887-1.143-2.55h-5.707l-1.141 2.55h-2.17l5.137-11.074v-.038h2.093l5.138 11.118zm-6.127-4.187h4.263l-2.132-4.832zm-6.544 4.187-1.141-2.55h-5.67l-1.141 2.55h-2.17l5.1-11.112h2.092l5.137 11.112zm-6.088-4.187h4.261l-2.129-4.832zm-10.73 4.187V17.172h3.424a4.888 4.888 0 0 1 2.321.458 3.218 3.218 0 0 1 1.521 1.408 4.5 4.5 0 0 1 .532 2.093 4.5 4.5 0 0 1-.532 2.093 3.335 3.335 0 0 1-1.521 1.37 6.016 6.016 0 0 1-2.321.456h-1.523v3.2zm1.9-4.947h1.408a2.775 2.775 0 0 0 1.9-.57 1.975 1.975 0 0 0 .647-1.636 2.092 2.092 0 0 0-.647-1.636 2.775 2.775 0 0 0-1.9-.571h-1.408zm-6.2 4.947V17.134h1.9v11.111zm-4.261 0v-4.75h-5.328v4.756h-1.9V17.134h1.9V21.7h5.328v-4.566h1.9v11.111zm-21.039-7.209c0-.834.339-1.259 2.041-2.16.254.1.51.187.765.29.22.068.409.153.613.221.033.018.05.018.084.034.018 0 .034.018.051.018.306.119.6.238.868.357-.018.969-.051 1.956-.068 2.925-.137.085-.273.187-.408.272a1.616 1.616 0 0 1-.256.187l-.153.1c-.254.171-.527.357-.8.562-1.735-1.1-2.741-1.626-2.741-2.8zm3.249-1.463c-1.922.868-1.8 1.616-1.8 1.616 0 .578 1.071 1.19 2.023 1.837-.034-1.174-.05-2.347-.067-3.521-.055.024-.109.058-.157.074zm1.021-1.785c-.035-.018-.085-.034-.119-.051l-.749-.374c-.119-7.381-.239-13.793-.239-13.793h-.17a.273.273 0 0 1-.187-.085.273.273 0 0 1-.085-.187v-.08a.221.221 0 0 1 .017-.1.285.285 0 0 1 .068-.084 1.4 1.4 0 0 0 .528.407 1.684 1.684 0 0 0 .646.137 1.409 1.409 0 0 0 .646-.137 1.755 1.755 0 0 0 .528-.407.164.164 0 0 1 .068.084.221.221 0 0 1 .017.1V3.3a.273.273 0 0 1-.085.187.274.274 0 0 1-.187.085h-.171s-.153 6.6-.323 14.117c2.79-1.4 3.385-2.059 3.385-2.4a.772.772 0 0 0-.375-.578 1.665 1.665 0 0 1-1.156-.2c-.681-.34-.919-.647-1-.9.1 0 .187-.034.187-.068s-.1-.069-.221-.069c-.035-.254.034-.935 1.615-.832 1.548.1 1.582 1.054 1.582 1.054s.719.453.819.956a2.254 2.254 0 0 1-.037 1.765c-.443.935-1.906 1.6-3.4 2.177-.447-.245-.976-.501-1.603-.807zm1.836-4.677c0 .1.136.187.306.187s.306-.085.306-.187-.137-.188-.306-.188-.307.091-.307.194zm-1.31-2.381c.034-1.821.068-3.419.1-4.644h.7a1.376 1.376 0 0 0 1.275-.594 3.026 3.026 0 0 0 .442-1.7 3.4 3.4 0 0 1 1.021-2.552 4.055 4.055 0 0 1 3.587-.234c.493.188 1.446.663 2.364 1.14a9.778 9.778 0 0 0 2.279.953 28.578 28.578 0 0 1-2.125-1.088 24.666 24.666 0 0 0-2.416-1.259 4.444 4.444 0 0 0-3.844.272 3.709 3.709 0 0 0-1.123 2.738 2.883 2.883 0 0 1-.391 1.581 1.238 1.238 0 0 1-1.138.476h-.629a4.2 4.2 0 0 0 .016-.441c.544.034 1.327.068 1.666-.663.409-.9-.034-3.147 1.328-4.1s3.555-.7 5.475.409a56.434 56.434 0 0 0 7.619 3.81 37.671 37.671 0 0 0 5.477 1.819c.357.068-.288.306-1.632.34a23.96 23.96 0 0 1-2.466-.068l-9.864-4.49s8.5 4.235 9.218 4.694c.713.476 1.309.629 1.242 1.037-.068.425-.6.375-2.092.341a7.131 7.131 0 0 1-2.331-.324c-.528-.137-6.037-2.7-6.037-2.7s5.918 2.943 6.768 3.622-.05.9-.646.919a7.947 7.947 0 0 1-3.062-.51c-.884-.443-3.64-2.212-3.64-2.212s2.723 1.956 3.249 2.4c.427.34.664.663.544 1.038-.153.475-.969.425-2.057.034a5.817 5.817 0 0 1-1.547-.768 205.745 205.745 0 0 0-1.616-1.446 15.428 15.428 0 0 1 1.752 2.093c.339.629.391.8.238 1.14-.238.527-2.042-.018-2.55-.562a15.6 15.6 0 0 1-1.056-1.344 6.745 6.745 0 0 1 .664 1.4c.119.51.271.9-.237.969a1.581 1.581 0 0 1-1.6-.544 5.741 5.741 0 0 1-.713-.987c.153.306.663 1.463.153 1.565a1.224 1.224 0 0 1-.264.03c-.501-.007-1.126-.335-2.101-1.584zm-4.065 1.547c-.51-.1.018-1.259.153-1.565a4.608 4.608 0 0 1-.713.987 1.577 1.577 0 0 1-1.634.527c-.493-.05-.357-.459-.237-.969a6.646 6.646 0 0 1 .662-1.394 13.212 13.212 0 0 1-1.055 1.343c-.51.544-2.312 1.072-2.55.562-.171-.357-.1-.51.238-1.14a17.913 17.913 0 0 1 1.768-2.091s-1.19 1.054-1.615 1.446a6.446 6.446 0 0 1-1.548.765c-1.088.391-1.9.443-2.058-.034-.1-.374.119-.681.544-1.037.527-.443 3.249-2.4 3.249-2.4s-2.756 1.769-3.64 2.21a7.914 7.914 0 0 1-3.06.51c-.58-.016-1.5-.238-.647-.918s6.77-3.624 6.77-3.624-5.528 2.552-6.038 2.7a6.652 6.652 0 0 1-2.33.324c-1.5.034-2.042.085-2.091-.34s.526-.579 1.241-1.038 9.218-4.694 9.218-4.694L-4849.8 6.9a23.685 23.685 0 0 1-2.466.069c-1.343-.034-1.99-.272-1.632-.341a34.542 34.542 0 0 0 5.476-1.819 58.314 58.314 0 0 0 7.62-3.81c1.938-1.122 4.116-1.36 5.476-.407s.918 3.215 1.326 4.1c.34.731 1.123.7 1.667.663V5.8h-.612a1.241 1.241 0 0 1-1.14-.476 2.923 2.923 0 0 1-.391-1.582A3.7 3.7 0 0 0-4835.6 1a4.444 4.444 0 0 0-3.844-.272c-.493.2-1.479.749-2.415 1.259-.816.459-1.565.834-2.127 1.088a10.022 10.022 0 0 0 2.28-.952c.935-.46 1.888-.953 2.363-1.14a4.058 4.058 0 0 1 3.59.238 3.471 3.471 0 0 1 1.021 2.552 3.054 3.054 0 0 0 .441 1.7 1.406 1.406 0 0 0 1.276.6h.7c.017 1.224.05 2.84.084 4.694-.971 1.233-1.571 1.537-2.076 1.537a1.425 1.425 0 0 1-.259-.027zm2.7-9.031a1.3 1.3 0 0 1-.442-.306 1.156 1.156 0 0 1-.306-.443 1.383 1.383 0 0 1-.1-.527 1.364 1.364 0 0 1 .238-.766 1.3 1.3 0 0 1 .612-.51 1.3 1.3 0 0 1 .8-.085 1.384 1.384 0 0 1 .714.375 1.448 1.448 0 0 1 .375.715 1.427 1.427 0 0 1-.085.8 1.474 1.474 0 0 1-.51.612 1.349 1.349 0 0 1-.765.238 1.332 1.332 0 0 1-.527-.097z" transform="translate(4854)" style="fill:#fff"/>
</svg>
