<svg xmlns="http://www.w3.org/2000/svg" width="21" height="28" viewBox="0 0 21 28">
    <path data-name="Path 60" d="M20.043 27.809 17.5 21h-.629q-.219.629-.656 1.8t-.629 1.7H12.25v1.75a1.669 1.669 0 0 1-.52 1.244 1.721 1.721 0 0 1-1.244.506 1.653 1.653 0 0 1-1.23-.52 1.7 1.7 0 0 1-.506-1.23V24.5H5.387q-.164-.52-.6-1.7T4.129 21H3.5L.957 27.809A1.638 1.638 0 0 1 0 26.25V21q0-.738 1.395-2.119T3.5 17.5a30.207 30.207 0 0 1 .889-7.3 23.5 23.5 0 0 1 2.5-6.316A10.429 10.429 0 0 1 10.5 0a10.429 10.429 0 0 1 3.609 3.883 23.5 23.5 0 0 1 2.5 6.316 30.207 30.207 0 0 1 .889 7.3q.711 0 2.105 1.381T21 21v5.25a1.638 1.638 0 0 1-.957 1.559zM10.5 7A3.5 3.5 0 0 0 7 10.5a3.5 3.5 0 0 0 3.5 3.5 3.5 3.5 0 0 0 3.5-3.5A3.5 3.5 0 0 0 10.5 7z" style="fill:#d4aeef"/>
</svg>
