<svg xmlns="http://www.w3.org/2000/svg" width="343" height="150" viewBox="0 0 343 150">
    <defs>
        <clipPath id="mvjdlghq0a">
            <rect data-name="Rectangle 2051" width="343" height="150" rx="8" transform="translate(160 76)" style="fill:#fff"/>
        </clipPath>
        <clipPath id="kvky8i8qhb">
            <path data-name="Path 44126" d="M.945 0h343v150h-343zm0 0" transform="translate(-.945)"/>
        </clipPath>
        <clipPath id="w4h50o0e0c">
            <path data-name="Path 44131" d="M.945 0h35.226v29.161H.945zm0 0" transform="translate(-.945)"/>
        </clipPath>
        <clipPath id="ci25hwa3wd">
            <path data-name="Path 44133" d="M.945 39H16.88v17.712H.945zm0 0" transform="translate(-.945 -39)"/>
        </clipPath>
        <clipPath id="ikopa53gae">
            <path data-name="Path 44496" d="M386.637 103h34.619v28.559h-34.619zm0 0" transform="translate(-386.637 -103)"/>
        </clipPath>
        <clipPath id="3gyw83355f">
            <path data-name="Path 44498" d="M422 85.535h15.94v17.677H422zm0 0" transform="translate(-422 -85.535)"/>
        </clipPath>
        <clipPath id="r53ycbrowg">
            <path data-name="Path 44500" d="M395 140h11.621v9.015H395zm0 0" transform="translate(-395 -140)"/>
        </clipPath>
    </defs>
    <g data-name="Mask Group 3" transform="translate(-160 -76)" style="clip-path:url(#mvjdlghq0a)">
        <g data-name="Group 4008">
            <g data-name="Group 3699" transform="translate(160 76)" style="clip-path:url(#kvky8i8qhb)">
                <path data-name="Path 44125" d="M.945 0h343v150h-343zm0 0" transform="translate(-.945)" style="fill:#145fa3"/>
            </g>
            <g data-name="Group 3702" transform="translate(160 76)" style="clip-path:url(#w4h50o0e0c)">
                <path data-name="Path 44130" d="M36.146.039a37.913 37.913 0 0 0-9.788 6.153 31.721 31.721 0 0 0-4.289 4.61c-.145.188-.29.385-.427.574a67.22 67.22 0 0 0-4.08 6.8c-.23.416-.468.822-.708 1.218a17.845 17.845 0 0 1-6.694 6.862 20.76 20.76 0 0 1-9.215 2.59V.039zm0 0" transform="translate(-.945 -.018)" style="fill:#3a90ef"/>
            </g>
            <g data-name="Group 3703" transform="translate(160 96.848)" style="clip-path:url(#ci25hwa3wd)">
                <path data-name="Path 44132" d="M16.863 39.484a25.628 25.628 0 0 1-5.8 10.735 25.256 25.256 0 0 1-10.1 6.725v-8a20.76 20.76 0 0 0 9.214-2.593 17.814 17.814 0 0 0 6.686-6.867zm0 0" transform="translate(-.954 -39.228)" style="fill:#fff"/>
            </g>
            <path data-name="Path 44134" d="M48.2.039A35.293 35.293 0 0 0 36.9 8.68a24.768 24.768 0 0 1 5.31-7.392q.7-.671 1.4-1.249zm0 0" transform="translate(142.164 75.982)" style="fill:#fff"/>
            <path data-name="Path 44137" d="M62.793 30.684v-.012zm0 0" transform="translate(161.628 77.5)" style="fill:#fff"/>
            <g data-name="Group 4004" transform="translate(468.381 197.441)" style="clip-path:url(#ikopa53gae)">
                <path data-name="Path 44495" d="M386.637 131.723a37.36 37.36 0 0 0 9.626-6.052 31.116 31.116 0 0 0 4.218-4.535c.144-.184.287-.38.419-.563a66.215 66.215 0 0 0 4.015-6.685c.225-.411.46-.809.7-1.2a17.548 17.548 0 0 1 6.584-6.747 20.415 20.415 0 0 1 9.062-2.55v28.332zm0 0" transform="translate(-386.637 -103.184)" style="fill:#3a90ef"/>
            </g>
            <g data-name="Group 4005" transform="translate(487.061 188.05)" style="clip-path:url(#3gyw83355f)">
                <path data-name="Path 44497" d="M422.555 102.749a25.234 25.234 0 0 1 5.7-10.558 24.855 24.855 0 0 1 9.933-6.613v7.874A20.41 20.41 0 0 0 429.129 96a17.521 17.521 0 0 0-6.574 6.749zm0 0" transform="translate(-422.262 -85.555)" style="fill:#fff"/>
            </g>
            <g data-name="Group 4006" transform="translate(472.798 216.985)" style="clip-path:url(#r53ycbrowg)">
                <path data-name="Path 44499" d="M395.633 149.437a34.706 34.706 0 0 0 11.119-8.5 24.394 24.394 0 0 1-5.222 7.269q-.693.662-1.382 1.23zm0 0" transform="translate(-395.299 -140.442)" style="fill:#fff"/>
            </g>
            <path data-name="HIPAA COMPLIANT" d="M107.167 126.771a1.183 1.183 0 0 1 .607-.155 1.074 1.074 0 0 1 .476.107 1.226 1.226 0 0 1 .393.3l.393-.393a1.5 1.5 0 0 0-.56-.429 1.932 1.932 0 0 0-.821-.143 1.821 1.821 0 0 0-.8.226 1.722 1.722 0 0 0-.631.643 1.971 1.971 0 0 0 0 1.833 1.652 1.652 0 0 0 1.512.869 1.985 1.985 0 0 0 .738-.143 1.532 1.532 0 0 0 .56-.429l-.393-.393a1.108 1.108 0 0 1-.393.31 1.165 1.165 0 0 1-.488.107 1.213 1.213 0 0 1-.607-.155 1.108 1.108 0 0 1-.417-.429 1.452 1.452 0 0 1-.155-.631 1.336 1.336 0 0 1 .155-.631 1.158 1.158 0 0 1 .429-.464zm-.607-4.024h1.667v1.488h.6v-3.476h-.6v1.429h-1.667v-1.429h-.6v3.476h.6zm3 1.488h.6v-3.476h-.6zm3.143-3.322a1.527 1.527 0 0 0-.726-.143h-1.071v3.465h.6v-1h.476a1.881 1.881 0 0 0 .726-.143 1.042 1.042 0 0 0 .476-.429 1.369 1.369 0 0 0 0-1.31 1 1 0 0 0-.476-.441zm-.167 1.6a.868.868 0 0 1-.6.179h-.436v-1.381h.441a.868.868 0 0 1 .6.179.654.654 0 0 1 .2.512.617.617 0 0 1-.2.512zm6.024-1.738-1.607 3.465h.679l.357-.8h1.786l.357.8h.691l-1.607-3.476h-.655zm-.345 2.155.667-1.512.667 1.512zm-6.048 3.357a1.823 1.823 0 0 0-.9-.226 2 2 0 0 0-.9.226 1.638 1.638 0 0 0-.631.643 1.9 1.9 0 0 0-.226.917 2.046 2.046 0 0 0 .226.917 1.72 1.72 0 0 0 .631.643 1.824 1.824 0 0 0 .9.226 2 2 0 0 0 .9-.226 1.722 1.722 0 0 0 .631-.643 1.9 1.9 0 0 0 .226-.917 2.045 2.045 0 0 0-.226-.917 1.722 1.722 0 0 0-.631-.643zm.1 2.179a1.2 1.2 0 0 1-.4.44 1.128 1.128 0 0 1-.583.155 1.255 1.255 0 0 1-.583-.155.967.967 0 0 1-.4-.44 1.412 1.412 0 0 1-.155-.631 1.3 1.3 0 0 1 .155-.631 1.2 1.2 0 0 1 .4-.441 1.128 1.128 0 0 1 .583-.155 1.256 1.256 0 0 1 .583.155.967.967 0 0 1 .4.441 1.364 1.364 0 0 1 0 1.262zM132.5 126.1v.548h1.083v2.929h.607v-2.929h1.083v-.548zm-.964 2.345-1.8-2.345h-.5v3.476h.607v-2.345l1.8 2.345h.5V126.1h-.607zm-15.023-2.345-1.013 1.85-1.036-1.845h-.75v3.476h.643v-2.4l1.131 2 1.155-2.036v2.429h.643v-3.476h-.774zm3.286.143a1.575 1.575 0 0 0-.738-.143h-1.083v3.476h.607v-1h.476a1.94 1.94 0 0 0 .738-.143 1.135 1.135 0 0 0 .488-.429 1.369 1.369 0 0 0 0-1.31 1.117 1.117 0 0 0-.488-.452zm-.167 1.607a.881.881 0 0 1-.607.179h-.452v-1.381h.452a.923.923 0 0 1 .607.179.654.654 0 0 1 .2.512.6.6 0 0 1-.2.516zm-3.822-4.417.357.8h.691l-1.607-3.476h-.651l-1.6 3.476h.679l.357-.8zm-.881-2.024.667 1.512h-1.333zm6.691 4.691h-.607v3.476h2.31v-.548h-1.7zm2.2 3.465h.607v-3.476h-.607zm-24.406 3.917a85.9 85.9 0 0 0 .036 1.738.2.2 0 0 1 0 .119v.083a1.67 1.67 0 0 0 .071.488 1.67 1.67 0 0 0 .071-.488c0-.06.024-.929.06-2.322-.012.012-.024.024-.024.036a2.081 2.081 0 0 0-.211.35zM96.941 116.1a3.2 3.2 0 0 0 .5-.691c-.1.214-.464 1.024-.107 1.1.393.071.833-.048 1.631-1.06-.024-1.3-.048-2.429-.06-3.286h-.488a.984.984 0 0 1-.893-.417 2.141 2.141 0 0 1-.31-1.191 2.426 2.426 0 0 0-.714-1.786 2.837 2.837 0 0 0-2.512-.167c-.333.131-1 .476-1.655.8a7.037 7.037 0 0 1-1.6.667c.393-.179.917-.441 1.488-.762.655-.357 1.345-.738 1.691-.881a3.11 3.11 0 0 1 2.691.19 2.593 2.593 0 0 1 .786 1.917 2.053 2.053 0 0 0 .274 1.107.869.869 0 0 0 .8.333h.429v-.31c-.381.024-.929.048-1.167-.464-.286-.619.024-2.2-.929-2.869a3.709 3.709 0 0 0-3.834.286 40.852 40.852 0 0 1-5.334 2.667 24.266 24.266 0 0 1-3.834 1.274c-.25.048.2.214 1.143.238a16.672 16.672 0 0 0 1.726-.048l6.905-3.143s-5.953 2.964-6.453 3.286-.9.429-.869.726.417.262 1.464.238a4.657 4.657 0 0 0 1.631-.226c.357-.107 4.226-1.893 4.226-1.893s-4.143 2.06-4.738 2.536.048.631.452.643a5.556 5.556 0 0 0 2.143-.357c.619-.31 2.548-1.548 2.548-1.548s-1.9 1.369-2.274 1.679c-.3.25-.452.464-.381.726.107.333.679.3 1.441.024a4.489 4.489 0 0 0 1.083-.536c.3-.274 1.131-1.012 1.131-1.012a12.631 12.631 0 0 0-1.238 1.464c-.238.44-.286.548-.167.8.167.357 1.429-.012 1.786-.393a9.509 9.509 0 0 0 .738-.941 4.694 4.694 0 0 0-.464.976c-.083.357-.179.643.167.679a1.1 1.1 0 0 0 1.147-.375zm2.357 8.108.107-.071a1.158 1.158 0 0 0 .179-.131c.1-.06.19-.131.286-.19.012-.679.036-1.369.048-2.048q-.286-.125-.607-.25c-.012 0-.024-.012-.036-.012s-.036-.012-.06-.024c-.143-.048-.274-.107-.429-.155-.179-.071-.357-.131-.536-.2-1.191.631-1.429.929-1.429 1.512 0 .821.7 1.191 1.917 1.964.191-.141.381-.272.562-.391zm-1.464-1.464s-.083-.524 1.262-1.131c.036-.012.071-.036.107-.048.012.821.024 1.643.048 2.464-.668-.448-1.418-.877-1.418-1.282zm2.036 10.108c-.06.071-.119.143-.179.2a1.49 1.49 0 0 1 .131 1.5 1.256 1.256 0 0 0 .238-1.381c-.06-.107-.119-.214-.19-.321zm-.548-4.881.44.441.3.3c.012.012.036.024.06.048.81-.7 1.548-1.369 1.548-2.2 0-.655-.631-1.25-1.262-1.726a1.549 1.549 0 0 0-.179.119c-.143.1-.274.179-.393.262a.012.012 0 0 0-.012.012c-.024.024-.06.036-.083.06-.167.119-.321.226-.464.333.024.8.036 1.6.048 2.357zm.512-2.631c.786.571 1.1.941 1.1 1.345s-.44.9-1.155 1.619c.012-.952.036-1.941.06-2.964zm4.346-11.441s.833.738 1.131 1.012a4.064 4.064 0 0 0 1.083.536c.762.274 1.333.31 1.441-.024.083-.262-.083-.488-.381-.726-.369-.31-2.274-1.679-2.274-1.679s1.929 1.238 2.548 1.548a5.556 5.556 0 0 0 2.143.357c.417-.012 1.048-.167.452-.643s-4.738-2.536-4.738-2.536 3.857 1.8 4.226 1.893a4.98 4.98 0 0 0 1.631.226c1.048.024 1.417.06 1.464-.238s-.369-.393-.869-.726-6.453-3.286-6.453-3.286l6.905 3.143a16.67 16.67 0 0 0 1.726.048c.941-.024 1.393-.19 1.143-.238a26.308 26.308 0 0 1-3.834-1.274 39.4 39.4 0 0 1-5.334-2.667 3.735 3.735 0 0 0-3.834-.286c-.952.667-.643 2.238-.929 2.869-.238.512-.786.488-1.167.464a2.8 2.8 0 0 1-.012.31h.44a.869.869 0 0 0 .8-.333 2.029 2.029 0 0 0 .274-1.107 2.593 2.593 0 0 1 .786-1.917 3.11 3.11 0 0 1 2.691-.19 17.387 17.387 0 0 1 1.691.881c.571.321 1.1.583 1.488.762a6.823 6.823 0 0 1-1.6-.667c-.643-.333-1.31-.667-1.655-.8a2.837 2.837 0 0 0-2.512.167 2.38 2.38 0 0 0-.714 1.786 2.119 2.119 0 0 1-.31 1.191.963.963 0 0 1-.893.417h-.488c-.024.857-.048 1.976-.071 3.25.81 1.036 1.274 1.167 1.655 1.083.357-.071 0-.881-.107-1.1a4.08 4.08 0 0 0 .5.691 1.105 1.105 0 0 0 1.119.381c.357-.048.25-.321.167-.679a4.693 4.693 0 0 0-.464-.976 11.143 11.143 0 0 0 .738.941c.357.381 1.619.762 1.786.393.107-.238.071-.357-.167-.8a10.738 10.738 0 0 0-1.223-1.456zm-4.58-3.641a.95.95 0 0 0 .536-.167 1.035 1.035 0 0 0 .357-.429 1 1 0 0 0 .06-.56 1.018 1.018 0 0 0-.262-.5.969.969 0 0 0-.5-.262.966.966 0 0 0-.988.417.95.95 0 0 0-.167.536.97.97 0 0 0 .071.369.805.805 0 0 0 .214.31.906.906 0 0 0 .31.214.927.927 0 0 0 .369.071zm3.167 7.239s-.024-.667-1.107-.738c-1.107-.071-1.155.4-1.131.583.083 0 .155.024.155.048s-.06.048-.131.048c.06.179.226.393.7.631a1.161 1.161 0 0 0 .81.143.541.541 0 0 1 .262.4c0 .238-.417.7-2.369 1.679.119-5.262.226-9.882.226-9.882h.119a.2.2 0 0 0 .191-.19v-.06a.151.151 0 0 0-.012-.071.119.119 0 0 0-.048-.06 1.231 1.231 0 0 1-.369.286 1 1 0 0 1-.452.1 1.185 1.185 0 0 1-.452-.1.967.967 0 0 1-.369-.286.209.209 0 0 0-.048.06.151.151 0 0 0-.012.071v.06a.2.2 0 0 0 .19.19h.119s.083 4.488.167 9.655l.524.262c.024.012.06.024.083.036.44.214.81.393 1.119.56 1.048-.4 2.072-.869 2.381-1.524a1.505 1.505 0 0 0-.551-1.898zm-1.452-.274c-.119 0-.214-.06-.214-.131s.1-.131.214-.131.214.06.214.131-.1.131-.214.131zM99.417 132.3c.1-.119.179-.238.274-.345.012-.679.036-1.441.048-2.262-.119-.119-.25-.238-.393-.369-.048-.036-.083-.083-.131-.119a2.065 2.065 0 0 0-.179-.155 2.785 2.785 0 0 0-.988 1.6c0 .7.679 1.417 1.191 1.929a1.087 1.087 0 0 1 .179-.274zm-.071-2.834c.024 1.012.036 1.941.048 2.738a3.361 3.361 0 0 1-.81-1.429c0-.345.2-.738.762-1.31zm.274-8.977c-2.322-1.119-2.8-1.631-2.8-1.881a.541.541 0 0 1 .262-.4 1.1 1.1 0 0 0 .81-.143c.476-.226.643-.452.7-.631-.071 0-.131-.024-.131-.048s.071-.048.155-.048v-.012c.012-.179-.048-.643-1.143-.571s-1.107.738-1.107.738a1.478 1.478 0 0 0-.524 1.893c.5 1.06 2.845 1.619 4.2 2.226s1.262 1.131 1.262 1.131c0 .452-.9.929-1.619 1.429s-2.226 1.369-2.226 2.393c0 .941.941 1.667 1.857 2.476s1.226 1.3 1.226 1.75c0 .619-1.024 1.452-1.548 2.488s.512 2.643.19 1.8a1.927 1.927 0 0 1 .274-2.036c.524-.726 1.643-1.441 1.643-2.4 0-.81-1.179-1.762-1.179-1.762-1.048-1.048-1.714-1.643-1.714-2.167s.5-.988 1.9-1.9 2.214-1.262 2.214-2.143c.012-.793-.381-1.071-2.703-2.186zm-1.786-3.512c.119 0 .214.06.214.131s-.1.131-.214.131-.214-.06-.214-.131.1-.131.214-.131zM126.5 126.1l-1.607 3.476h.679l.357-.8h1.786l.357.8h.691l-1.607-3.476zm-.345 2.167.667-1.512.667 1.512z" transform="translate(357.665 -21.355)" style="fill:#fff"/>
        </g>
    </g>
</svg>
