<svg xmlns="http://www.w3.org/2000/svg" width="1126" height="98" viewBox="0 0 1126 98">
    <defs>
        <clipPath id="iy6z1c6v6a">
            <rect data-name="Rectangle 2051" width="1126" height="98" rx="8" transform="translate(160 76)" style="fill:#fff"/>
        </clipPath>
        <clipPath id="itow5uguvb">
            <path data-name="Path 44126" d="M.945 0h1126v98.794H.945zm0 0" transform="translate(-.945)"/>
        </clipPath>
        <clipPath id="b2ypmz0zoc">
            <path data-name="Path 44131" d="M.945 0h85.334v70.643H.945zm0 0" transform="translate(-.945)"/>
        </clipPath>
        <clipPath id="3u9h9l059d">
            <path data-name="Path 44133" d="M.945 39h38.6v42.908H.945zm0 0" transform="translate(-.945 -39)"/>
        </clipPath>
        <clipPath id="fs56auiive">
            <path data-name="Path 44496" d="M386.637 103h85.371v70.426h-85.371zm0 0" transform="translate(-386.637 -103)"/>
        </clipPath>
        <clipPath id="xtvtc4tpkf">
            <path data-name="Path 44498" d="M422 85.535h39.307v43.591H422zm0 0" transform="translate(-422 -85.535)"/>
        </clipPath>
        <clipPath id="s4rs95982g">
            <path data-name="Path 44500" d="M395 140h28.657v22.23H395zm0 0" transform="translate(-395 -140)"/>
        </clipPath>
    </defs>
    <g data-name="Mask Group 3" transform="translate(-160 -76)" style="clip-path:url(#iy6z1c6v6a)">
        <g data-name="Group 4008">
            <g data-name="Group 3699" transform="translate(160 76)" style="clip-path:url(#itow5uguvb)">
                <path data-name="Path 44125" d="M.945 0h1126v98.794H.945zm0 0" transform="translate(-.945)" style="fill:#145fa3"/>
            </g>
            <g data-name="Group 3702" transform="translate(160 76)" style="clip-path:url(#b2ypmz0zoc)">
                <path data-name="Path 44130" d="M86.218.039a91.844 91.844 0 0 0-23.711 14.906 76.843 76.843 0 0 0-10.391 11.169c-.351.457-.7.933-1.034 1.39C46.973 33.2 44.124 38.777 41.2 43.97a83.05 83.05 0 0 1-1.716 2.95c-3.858 6.407-8.3 12.107-16.216 16.622A50.291 50.291 0 0 1 .945 69.824V.039zm0 0" transform="translate(-.945 .011)" style="fill:#3a90ef"/>
            </g>
            <g data-name="Group 3703" transform="translate(160 126.092)" style="clip-path:url(#3u9h9l059d)">
                <path data-name="Path 44132" d="M39.477 39.484a62.084 62.084 0 0 1-14.048 26A61.183 61.183 0 0 1 .965 81.78V62.388a50.291 50.291 0 0 0 22.322-6.282c7.892-4.515 12.357-10.215 16.19-16.622zm0 0" transform="translate(-.94 -38.862)" style="fill:#fff"/>
            </g>
            <path data-name="Path 44134" d="M64.288.039A85.5 85.5 0 0 0 36.9 20.971 60 60 0 0 1 49.763 3.064q1.7-1.626 3.4-3.025zm0 0" transform="translate(169.281 76.011)" style="fill:#fff"/>
            <path data-name="Path 44137" d="M62.793 30.684v-.012zm0 0" transform="translate(161.628 77.276)" style="fill:#fff"/>
            <g data-name="Group 4004" transform="translate(1200.629 104.368)" style="clip-path:url(#fs56auiive)">
                <path data-name="Path 44495" d="M386.637 173.257a92.132 92.132 0 0 0 23.737-14.924 76.734 76.734 0 0 0 10.4-11.184c.356-.453.707-.936 1.033-1.389 4.116-5.709 6.971-11.286 9.9-16.486a81.587 81.587 0 0 1 1.715-2.956c3.862-6.411 8.309-12.12 16.237-16.639a50.342 50.342 0 0 1 22.348-6.289v69.867zm0 0" transform="translate(-386.637 -102.882)" style="fill:#3a90ef"/>
            </g>
            <g data-name="Group 4005" transform="translate(1246.693 81.618)" style="clip-path:url(#xtvtc4tpkf)">
                <path data-name="Path 44497" d="M422.555 127.922a62.229 62.229 0 0 1 14.064-26.036 61.293 61.293 0 0 1 24.495-16.308v19.417a50.332 50.332 0 0 0-22.348 6.284c-7.902 4.521-12.375 10.227-16.211 16.643zm0 0" transform="translate(-421.832 -85.522)" style="fill:#fff"/>
            </g>
            <g data-name="Group 4006" transform="translate(1211.523 152.564)" style="clip-path:url(#s4rs95982g)">
                <path data-name="Path 44499" d="M395.633 161.9a85.582 85.582 0 0 0 27.421-20.958 60.154 60.154 0 0 1-12.878 17.926q-1.71 1.633-3.409 3.033zm0 0" transform="translate(-394.809 -139.716)" style="fill:#fff"/>
            </g>
            <path data-name="HIPAA COMPLIANT" d="M138.293 151.812a2.754 2.754 0 0 1 1.413-.36 2.5 2.5 0 0 1 1.109.249 2.854 2.854 0 0 1 .915.693l.915-.915a3.5 3.5 0 0 0-1.3-1 4.5 4.5 0 0 0-1.912-.333 4.238 4.238 0 0 0-1.857.527 4.008 4.008 0 0 0-1.469 1.5 4.588 4.588 0 0 0 0 4.268 3.845 3.845 0 0 0 3.52 2.023 4.621 4.621 0 0 0 1.718-.333 3.566 3.566 0 0 0 1.3-1l-.915-.915a2.58 2.58 0 0 1-.915.721 2.711 2.711 0 0 1-1.136.249 2.825 2.825 0 0 1-1.413-.36 2.579 2.579 0 0 1-.97-1 3.38 3.38 0 0 1-.36-1.469 3.11 3.11 0 0 1 .36-1.469 2.7 2.7 0 0 1 1-1.081zm-1.413-9.368h3.88v3.464h1.386v-8.093h-1.386v3.326h-3.88v-3.326h-1.386v8.093h1.386zm6.984 3.464h1.386v-8.093h-1.386zm7.317-7.733a3.555 3.555 0 0 0-1.691-.333H147v8.065h1.386v-2.328h1.109a4.379 4.379 0 0 0 1.691-.333 2.426 2.426 0 0 0 1.109-1 3.188 3.188 0 0 0 0-3.049 2.341 2.341 0 0 0-1.109-1.025zm-.388 3.714a2.02 2.02 0 0 1-1.386.416h-1.025v-3.215h1.025a2.02 2.02 0 0 1 1.386.416 1.523 1.523 0 0 1 .471 1.192 1.435 1.435 0 0 1-.471 1.192zm14.024-4.046-3.742 8.065h1.58l.831-1.857h4.157l.831 1.857h1.607l-3.742-8.093h-1.524zm-.8 5.016 1.552-3.52 1.552 3.52zm-14.079 7.816a4.245 4.245 0 0 0-2.106-.527 4.648 4.648 0 0 0-2.106.527 3.813 3.813 0 0 0-1.469 1.5 4.425 4.425 0 0 0-.527 2.134 4.762 4.762 0 0 0 .527 2.134 4 4 0 0 0 1.469 1.5 4.245 4.245 0 0 0 2.106.527 4.648 4.648 0 0 0 2.106-.527 4.008 4.008 0 0 0 1.469-1.5 4.425 4.425 0 0 0 .527-2.134 4.762 4.762 0 0 0-.527-2.134 4.008 4.008 0 0 0-1.469-1.5zm.222 5.072a2.8 2.8 0 0 1-.942 1.025 2.625 2.625 0 0 1-1.358.36 2.922 2.922 0 0 1-1.358-.36 2.25 2.25 0 0 1-.942-1.025 3.286 3.286 0 0 1-.36-1.469 3.033 3.033 0 0 1 .36-1.469 2.8 2.8 0 0 1 .942-1.025 2.625 2.625 0 0 1 1.358-.36 2.923 2.923 0 0 1 1.358.36 2.25 2.25 0 0 1 .942 1.025 3.174 3.174 0 0 1 0 2.938zm47.116-5.488v1.275h2.522v6.818h1.413v-6.818h2.522v-1.274zm-2.245 5.46-4.185-5.46h-1.164v8.093h1.413v-5.46l4.185 5.46h1.164v-8.092h-1.413v5.46zm-34.977-5.46-2.356 4.3-2.411-4.3h-1.746v8.093h1.5v-5.6l2.633 4.656 2.688-4.739v5.654h1.5v-8.093h-1.8zm7.649.333a3.666 3.666 0 0 0-1.718-.333h-2.522v8.093h1.413v-2.328h1.109a4.517 4.517 0 0 0 1.718-.333 2.643 2.643 0 0 0 1.136-1 3.188 3.188 0 0 0 0-3.049 2.6 2.6 0 0 0-1.136-1.053zm-.388 3.742a2.051 2.051 0 0 1-1.413.416h-1.053v-3.215h1.051a2.149 2.149 0 0 1 1.413.416 1.523 1.523 0 0 1 .471 1.192 1.39 1.39 0 0 1-.473 1.191zm-8.9-10.282.831 1.857h1.607l-3.742-8.093h-1.524l-3.714 8.093h1.58l.831-1.857zm-2.051-4.712 1.552 3.52h-3.1zm15.576 10.92h-1.413v8.093h5.373v-1.275h-3.963zm5.127 8.065h1.413v-8.093h-1.413zm-56.817 9.118c.028 1.94.055 3.354.083 4.046a.472.472 0 0 1 0 .277v.194a3.887 3.887 0 0 0 .166 1.136 3.887 3.887 0 0 0 .166-1.136c0-.139.055-2.162.139-5.4-.028.028-.055.055-.055.083a4.846 4.846 0 0 0-.499.801zm-5.765-40.465a7.44 7.44 0 0 0 1.164-1.608c-.222.5-1.081 2.384-.249 2.55.915.166 1.94-.111 3.8-2.467-.055-3.021-.111-5.654-.139-7.649h-1.136a2.29 2.29 0 0 1-2.079-.97 4.984 4.984 0 0 1-.721-2.772 5.648 5.648 0 0 0-1.663-4.157 6.6 6.6 0 0 0-5.848-.388c-.776.3-2.328 1.109-3.852 1.857a16.38 16.38 0 0 1-3.714 1.552 46.631 46.631 0 0 0 3.464-1.774c1.524-.831 3.132-1.718 3.936-2.051 1.607-.637 4.684-.831 6.264.443a6.036 6.036 0 0 1 1.829 4.462 4.779 4.779 0 0 0 .637 2.578 2.022 2.022 0 0 0 1.857.776h1v-.721c-.887.055-2.162.111-2.716-1.081-.665-1.441.055-5.127-2.162-6.679s-5.765-1.164-8.924.665a95.1 95.1 0 0 1-12.417 6.208 56.49 56.49 0 0 1-8.924 2.966c-.582.111.471.5 2.661.554a38.814 38.814 0 0 0 4.019-.111l16.075-7.317s-13.858 6.9-15.022 7.649-2.106 1-2.023 1.691.97.61 3.409.554a10.84 10.84 0 0 0 3.8-.527c.831-.249 9.839-4.407 9.839-4.407S97 121.6 95.611 122.711s.111 1.469 1.053 1.5a12.933 12.933 0 0 0 4.989-.831c1.441-.721 5.931-3.6 5.931-3.6s-4.434 3.187-5.294 3.908c-.693.582-1.053 1.081-.887 1.691.249.776 1.58.693 3.354.055a10.449 10.449 0 0 0 2.522-1.247c.693-.637 2.633-2.356 2.633-2.356a29.407 29.407 0 0 0-2.882 3.409c-.554 1.025-.665 1.275-.388 1.857.388.831 3.326-.028 4.157-.915a22.14 22.14 0 0 0 1.718-2.19 10.926 10.926 0 0 0-1.081 2.273c-.194.831-.416 1.5.388 1.58a2.569 2.569 0 0 0 2.661-.866zm5.488 18.874.249-.166a2.7 2.7 0 0 0 .416-.3c.222-.139.443-.3.665-.443.028-1.58.083-3.187.111-4.767q-.665-.291-1.413-.582c-.028 0-.055-.028-.083-.028-.055-.028-.083-.028-.139-.055-.333-.111-.637-.249-1-.36-.416-.166-.831-.3-1.247-.471-2.772 1.469-3.326 2.162-3.326 3.52 0 1.912 1.635 2.772 4.462 4.573.445-.338.889-.643 1.305-.92zm-3.409-3.409s-.194-1.219 2.938-2.633c.083-.028.166-.083.249-.111.028 1.912.055 3.825.111 5.737-1.552-1.052-3.298-2.049-3.298-2.992zm4.739 23.53c-.139.166-.277.333-.416.471a3.468 3.468 0 0 1 .3 3.492 2.925 2.925 0 0 0 .554-3.215c-.139-.249-.277-.5-.443-.748zm-1.275-11.363 1.025 1.025.693.693c.028.028.083.055.139.111 1.885-1.635 3.6-3.187 3.6-5.127 0-1.524-1.469-2.91-2.938-4.019a3.609 3.609 0 0 0-.416.277c-.333.222-.637.416-.915.61a.027.027 0 0 0-.028.028c-.055.055-.139.083-.194.139-.388.277-.748.527-1.081.776.055 1.857.083 3.714.111 5.488zm1.192-6.125c1.829 1.33 2.55 2.19 2.55 3.132 0 .97-1.025 2.106-2.688 3.769.028-2.217.083-4.518.139-6.9zm10.116-26.635s1.94 1.718 2.633 2.356a9.461 9.461 0 0 0 2.522 1.247c1.774.637 3.1.721 3.354-.055.194-.61-.194-1.136-.887-1.691-.859-.721-5.294-3.908-5.294-3.908s4.49 2.882 5.931 3.6a12.933 12.933 0 0 0 4.989.831c.97-.028 2.439-.388 1.053-1.5s-11.031-5.9-11.031-5.9 8.98 4.185 9.839 4.407a11.594 11.594 0 0 0 3.8.527c2.439.055 3.3.139 3.409-.554.111-.665-.859-.915-2.023-1.691-1.164-.748-15.022-7.649-15.022-7.649l16.075 7.317a38.812 38.812 0 0 0 4.019.111c2.19-.055 3.243-.443 2.661-.554a61.246 61.246 0 0 1-8.924-2.966 91.721 91.721 0 0 1-12.417-6.208c-3.132-1.8-6.707-2.217-8.924-.665s-1.5 5.211-2.162 6.679c-.554 1.192-1.829 1.136-2.716 1.081a6.508 6.508 0 0 1-.028.721h1.025a2.022 2.022 0 0 0 1.857-.776 4.724 4.724 0 0 0 .637-2.578 6.036 6.036 0 0 1 1.829-4.462c1.58-1.275 4.656-1.081 6.264-.443a40.488 40.488 0 0 1 3.936 2.051c1.33.748 2.55 1.358 3.464 1.774a15.883 15.883 0 0 1-3.714-1.552c-1.5-.776-3.049-1.552-3.852-1.857a6.6 6.6 0 0 0-5.848.388 5.54 5.54 0 0 0-1.663 4.157 4.932 4.932 0 0 1-.721 2.772 2.242 2.242 0 0 1-2.079.97h-1.138c-.055 2-.111 4.6-.166 7.566 1.885 2.411 2.966 2.716 3.852 2.522.831-.166 0-2.051-.249-2.55a9.5 9.5 0 0 0 1.164 1.608 2.574 2.574 0 0 0 2.605.887c.831-.111.582-.748.388-1.58a10.925 10.925 0 0 0-1.081-2.273 25.941 25.941 0 0 0 1.718 2.19c.831.887 3.769 1.774 4.157.915.249-.554.166-.831-.388-1.857a25 25 0 0 0-2.854-3.406zm-10.67-8.481a2.213 2.213 0 0 0 1.247-.388 2.409 2.409 0 0 0 .831-1 2.326 2.326 0 0 0 .139-1.3 2.369 2.369 0 0 0-.61-1.164 2.256 2.256 0 0 0-1.164-.61 2.248 2.248 0 0 0-2.3.97 2.212 2.212 0 0 0-.388 1.247 2.258 2.258 0 0 0 .166.859 1.875 1.875 0 0 0 .5.721 2.109 2.109 0 0 0 .721.5 2.159 2.159 0 0 0 .859.166zm7.372 16.851s-.055-1.552-2.578-1.718c-2.578-.166-2.688.942-2.633 1.358.194 0 .36.055.36.111s-.139.111-.3.111c.139.416.527.915 1.635 1.469a2.7 2.7 0 0 0 1.885.333 1.259 1.259 0 0 1 .61.942c0 .554-.97 1.635-5.515 3.908.277-12.25.527-23 .527-23h.277a.477.477 0 0 0 .443-.443v-.139a.351.351 0 0 0-.028-.166.277.277 0 0 0-.111-.139 2.866 2.866 0 0 1-.859.665 2.324 2.324 0 0 1-1.053.222 2.759 2.759 0 0 1-1.053-.222 2.251 2.251 0 0 1-.859-.665.486.486 0 0 0-.111.139.351.351 0 0 0-.028.166v.139a.477.477 0 0 0 .443.443h.277s.194 10.449.388 22.477l1.219.61c.055.028.139.055.194.083 1.025.5 1.885.915 2.605 1.3 2.439-.942 4.822-2.023 5.543-3.548a3.5 3.5 0 0 0-1.278-4.434zm-3.381-.637c-.277 0-.5-.139-.5-.3s.222-.3.5-.3.5.139.5.3-.222.3-.5.3zm-4.407 35.088c.222-.277.416-.554.637-.8.028-1.58.083-3.354.111-5.266-.277-.277-.582-.554-.915-.859-.111-.083-.194-.194-.3-.277a4.821 4.821 0 0 0-.416-.36c-.776.721-2.3 2.328-2.3 3.714 0 1.635 1.58 3.3 2.772 4.49a2.531 2.531 0 0 1 .416-.637zm-.166-6.6c.055 2.356.083 4.518.111 6.375-.915-1.219-1.885-2.467-1.885-3.326 0-.8.471-1.718 1.774-3.049zm.637-20.9c-5.4-2.605-6.513-3.8-6.513-4.379a1.259 1.259 0 0 1 .61-.942 2.558 2.558 0 0 0 1.885-.333c1.109-.527 1.5-1.053 1.635-1.469-.166 0-.3-.055-.3-.111s.166-.111.36-.111v-.028c.028-.416-.111-1.5-2.661-1.33-2.522.166-2.578 1.718-2.578 1.718a3.44 3.44 0 0 0-1.219 4.407c1.164 2.467 6.624 3.769 9.784 5.183 3.132 1.413 2.938 2.633 2.938 2.633 0 1.053-2.106 2.162-3.769 3.326s-5.183 3.187-5.183 5.571c0 2.19 2.189 3.88 4.324 5.765 2.162 1.885 2.855 3.021 2.855 4.074 0 1.441-2.384 3.381-3.6 5.793s1.192 6.153.443 4.185a4.487 4.487 0 0 1 .637-4.739c1.219-1.691 3.825-3.354 3.825-5.6 0-1.885-2.744-4.1-2.744-4.1-2.439-2.439-3.991-3.825-3.991-5.044s1.164-2.3 4.434-4.434c3.243-2.106 5.155-2.938 5.155-4.989-.008-1.796-.923-2.433-6.327-5.039zM116.564 129c.277 0 .5.139.5.3s-.222.3-.5.3-.5-.139-.5-.3.222-.3.5-.3zm66.736 21.26-3.742 8.093h1.58l.831-1.857h4.157l.831 1.857h1.607l-3.742-8.093zm-.8 5.044 1.552-3.52 1.552 3.52z" transform="translate(951.375 -15.323)" style="fill:#fff"/>
        </g>
    </g>
</svg>
