<svg xmlns="http://www.w3.org/2000/svg" width="460.444" height="225.045" viewBox="0 0 460.444 225.045">
    <g data-name="Group 3274" transform="translate(-961 -391.933)">
        <ellipse data-name="Ellipse 57" cx="34.801" cy="10.925" rx="34.801" ry="10.925" transform="rotate(-69.08 917.147 -564.768)" style="fill:#2f2e41"/>
        <circle data-name="Ellipse 58" cx="69.602" cy="69.602" r="69.602" transform="rotate(-80.783 835.73 -297.643)" style="fill:#2f2e41"/>
        <path data-name="Rectangle 1940" transform="translate(1043.801 572.044)" style="fill:#2f2e41" d="M0 0h21.145v37.885H0z"/>
        <path data-name="Rectangle 1941" transform="translate(1086.091 572.044)" style="fill:#2f2e41" d="M0 0h21.145v37.885H0z"/>
        <ellipse data-name="Ellipse 59" cx="17.621" cy="6.608" rx="17.621" ry="6.608" transform="translate(1043.801 603.762)" style="fill:#2f2e41"/>
        <ellipse data-name="Ellipse 60" cx="17.621" cy="6.608" rx="17.621" ry="6.608" transform="translate(1086.091 602.881)" style="fill:#2f2e41"/>
        <circle data-name="Ellipse 61" cx="23.788" cy="23.788" r="23.788" transform="translate(1053.493 476.011)" style="fill:#fff"/>
        <circle data-name="Ellipse 62" cx="7.929" cy="7.929" r="7.929" transform="translate(1069.351 491.87)" style="fill:#3f3d56"/>
        <path data-name="Path 37968" d="M215.233 624.889c-5.62-25.169 12.345-50.6 40.126-56.8s54.858 9.172 60.478 34.341-12.792 34.452-40.573 40.655-54.41 6.973-60.031-18.196z" transform="translate(792.769 -172.197)" style="fill:#d4aeef"/>
        <ellipse data-name="Ellipse 63" cx="10.925" cy="34.801" rx="10.925" ry="34.801" transform="rotate(-64.626 860.017 -519.653)" style="fill:#2f2e41"/>
        <path data-name="Path 37969" d="M235.463 661.517c0 6.812 17.54 20.264 37 20.264S310.18 662.6 310.18 655.79s-18.249 1.322-37.713 1.322-37.004-2.412-37.004 4.405z" transform="translate(805.867 -118.987)" style="fill:#fff"/>
        <circle data-name="Ellipse 39" cx="67.897" cy="67.897" r="67.897" transform="rotate(10.02 -1884.019 7424.806)" style="fill:#2f2e41"/>
        <path data-name="Rectangle 1934" transform="translate(1328.557 572.979)" style="fill:#2f2e41" d="M0 0h20.627v36.957H0z"/>
        <path data-name="Rectangle 1935" transform="translate(1287.303 572.979)" style="fill:#2f2e41" d="M0 0h20.627v36.957H0z"/>
        <ellipse data-name="Ellipse 40" cx="17.189" cy="6.446" rx="17.189" ry="6.446" transform="rotate(-2 17940.823 -36166.537)" style="fill:#2f2e41"/>
        <ellipse data-name="Ellipse 41" cx="17.189" cy="6.446" rx="17.189" ry="6.446" transform="rotate(-2 17961.721 -37365.473)" style="fill:#2f2e41"/>
        <circle data-name="Ellipse 42" cx="23.205" cy="23.205" r="23.205" transform="rotate(10.02 -2064.084 7638.61)" style="fill:#fff"/>
        <circle data-name="Ellipse 43" cx="7.735" cy="7.735" r="7.735" transform="rotate(10.02 -2107.833 7668.882)" style="fill:#3f3d56"/>
        <path data-name="Path 37961" d="M100.513 47.6C101.534 22.464 79.87 1.174 52.124.047S1.06 18.383.039 43.52 18.3 74.368 46.049 75.495s53.443-2.757 54.464-27.895z" transform="rotate(10.02 -1588.921 7570.959)" style="fill:#86cbf7"/>
        <ellipse data-name="Ellipse 44" cx="10.658" cy="33.949" rx="10.658" ry="33.949" transform="rotate(-67 970.56 -671.17)" style="fill:#2f2e41"/>
        <ellipse data-name="Ellipse 45" cx="10.658" cy="33.949" rx="10.658" ry="33.949" transform="rotate(-67 1081.915 -751.152)" style="fill:#2f2e41"/>
        <path data-name="Path 37962" d="M30.668 8.066a15.47 15.47 0 0 1-30.44 5.542l-.005-.03C-1.3 5.17 5.2 2.2 13.608.673s15.538-1.014 17.06 7.393z" transform="rotate(10.02 -2405.705 7700.374)" style="fill:#fff"/>
    </g>
</svg>
