<svg data-name="Layer 2" xmlns="http://www.w3.org/2000/svg" xmlns:xlink="http://www.w3.org/1999/xlink" width="286.348" height="60" viewBox="0 0 286.348 60">
    <defs>
        <linearGradient id="td2lkyxcoc" x1=".5" y1=".967" x2=".5" y2="-.003" gradientUnits="objectBoundingBox">
            <stop offset="0" stop-color="#50fec5"/>
            <stop offset="1" stop-color="#19b9c3"/>
        </linearGradient>
        <linearGradient id="5bs16a3bda" x1="-.023" y1=".405" x2="3.114" y2="1.01" gradientUnits="objectBoundingBox">
            <stop offset="0" stop-color="#50ffc5"/>
            <stop offset=".06" stop-color="#4bf9c5"/>
            <stop offset=".46" stop-color="#30d6c4"/>
            <stop offset=".79" stop-color="#1fc1c3"/>
            <stop offset="1" stop-color="#19b9c3"/>
        </linearGradient>
        <linearGradient id="bfp824qzjd" x1="-1.323" y1=".105" x2="2.179" y2=".861" xlink:href="#5bs16a3bda"/>
        <linearGradient id="i949bu1tue" x1="-2.453" y1="-.156" x2="1.03" y2=".62" xlink:href="#5bs16a3bda"/>
        <clipPath id="tpxmlh35gb">
            <path data-name="Rectangle 1908" style="fill:none" d="M0 0h60v60H0z"/>
        </clipPath>
    </defs>
    <g data-name="Layer 2">
        <g data-name="Group 2956" style="clip-path:url(#tpxmlh35gb)">
            <path data-name="Path 47" d="m391.142 341.937-4.512-7.814a2.746 2.746 0 0 0-2.378-1.372h-9.024a2.745 2.745 0 0 0-2.378 1.373l-4.512 7.814a2.746 2.746 0 0 0 0 2.745l4.512 7.817a2.745 2.745 0 0 0 2.378 1.372h9.024a2.746 2.746 0 0 0 2.378-1.372l4.512-7.817a2.743 2.743 0 0 0 0-2.746z" transform="translate(-346.522 -313.148)" style="fill:url(#td2lkyxcoc)"/>
            <path data-name="Path 48" d="M419.984 559.71H408.9a1.276 1.276 0 0 0-1.1.637 1.275 1.275 0 0 0 1.1 1.912h9.725a1.178 1.178 0 0 1 1.02 1.767l-8.265 14.315a4.416 4.416 0 0 0-5.239 3.024h-16.529a1.178 1.178 0 0 1-1.02-1.767l5.135-8.9a1.275 1.275 0 0 0-1.1-1.913 1.276 1.276 0 0 0-1.1.637L385.7 579.5a2.945 2.945 0 0 0 2.551 4.418h17.888a4.419 4.419 0 1 0 7.45-4.3l8.944-15.488a2.947 2.947 0 0 0-2.549-4.42z" transform="translate(-362.835 -526.739)" style="fill:#50fec5"/>
            <path data-name="Path 49" d="M24.889 181.383a1.276 1.276 0 0 0-2.209 0l-4.786 8.29a1.178 1.178 0 0 1-2.041 0l-8.266-14.315a4.412 4.412 0 0 0 0-6.049l8.265-14.315a1.178 1.178 0 0 1 2.041 0l4.786 8.29a1.276 1.276 0 0 0 2.209 0 1.275 1.275 0 0 0 0-1.275l-5.465-9.464a2.946 2.946 0 0 0-5.1 0l-8.945 15.489a4.418 4.418 0 1 0 0 8.6l8.947 15.489a2.946 2.946 0 0 0 5.1 0l5.465-9.465a1.275 1.275 0 0 0 0-1.275z" transform="translate(-.18 -142.173)" style="fill:#34dcc4"/>
            <path data-name="Path 50" d="m422.536 22.893-8.944-15.488a4.418 4.418 0 1 0-7.449-4.3h-17.888a2.945 2.945 0 0 0-2.555 4.418l5.814 10.069a1.277 1.277 0 0 0 1.1.637 1.275 1.275 0 0 0 1.1-1.913l-5.135-8.9a1.178 1.178 0 0 1 1.021-1.767h16.531a4.416 4.416 0 0 0 5.239 3.026l8.266 14.315a1.178 1.178 0 0 1-1.021 1.767H408.9a1.275 1.275 0 0 0-1.1 1.913 1.276 1.276 0 0 0 1.1.637h11.083a2.946 2.946 0 0 0 2.553-4.414z" transform="translate(-362.835 .039)" style="fill:#19b9c3"/>
        </g>
        <path data-name="Path 51" d="M2733.518 273.932a2.679 2.679 0 0 1-2.512-3.612l8.142-21.888c1.179-3.494 3.132-5.672 7.217-5.672 4.537 0 6.809 2.677 6.809 6.67v18.1a1.555 1.555 0 0 0 1.543 1.724 1.8 1.8 0 0 0 1.725-1.27l7.443-19.555c1.179-3.494 3.132-5.671 7.217-5.671 4.537 0 6.809 2.677 6.809 6.67v21.822a2.679 2.679 0 0 1-2.68 2.679h-.042a2.68 2.68 0 0 1-2.68-2.679V249.7a1.568 1.568 0 0 0-1.543-1.767 1.827 1.827 0 0 0-1.679 1.316l-7.444 19.557c-1.178 3.494-3.178 5.672-7.262 5.672-4.494 0-6.763-2.677-6.763-6.715V249.7a1.6 1.6 0 0 0-1.591-1.767 1.828 1.828 0 0 0-1.679 1.316l-8.515 22.935a2.68 2.68 0 0 1-2.515 1.748z" transform="translate(-2570.207 -228.457)" style="fill:#626d6d"/>
        <path data-name="Path 52" d="M3658.364 365.24c5.673 0 8.079 2.724 8.079 7.353 0 4.4-2.224 6.9-8.124 6.9h-9.668a1.725 1.725 0 0 0-1.725 1.725c0 1.906 1.044 3.313 3.676 3.313h12.323a2.338 2.338 0 0 1 2.337 2.338 2.338 2.338 0 0 1-2.337 2.337H3650.6c-5.991 0-8.351-3.358-8.351-7.895v-8.172c0-4.537 2.359-7.895 8.351-7.895zm-11.438 8.76a1.725 1.725 0 0 0 1.725 1.724h9.531c2.588 0 3.541-1.089 3.541-2.859 0-1.816-1.044-3-3.4-3h-7.723c-2.632 0-3.676 1.452-3.676 3.313z" transform="translate(-3427.927 -343.727)" style="fill:#626d6d"/>
        <path data-name="Path 53" d="M4160.652 365.24c5.673 0 8.077 2.724 8.077 7.353 0 4.4-2.224 6.9-8.124 6.9h-9.667a1.724 1.724 0 0 0-1.724 1.725c0 1.906 1.042 3.313 3.676 3.313h12.323a2.336 2.336 0 0 1 2.336 2.338 2.337 2.337 0 0 1-2.336 2.337h-12.323c-5.991 0-8.352-3.358-8.352-7.895v-8.172c0-4.537 2.36-7.895 8.352-7.895zm-11.437 8.76a1.724 1.724 0 0 0 1.724 1.724h9.532c2.588 0 3.541-1.089 3.541-2.859 0-1.816-1.045-3-3.405-3h-7.717c-2.633 0-3.676 1.452-3.676 3.313z" transform="translate(-3900.632 -343.727)" style="fill:#626d6d"/>
        <path data-name="Path 54" d="M4617.737 274.67v-3.245a2.429 2.429 0 0 1 2.429-2.425 2.428 2.428 0 0 1 2.429 2.428v3.245h4.312a2.316 2.316 0 0 1 2.315 2.315 2.316 2.316 0 0 1-2.315 2.315h-4.312v11.347c0 2.678.954 3.585 3.223 3.585h1.111a2.2 2.2 0 0 1 2.2 2.2 2.2 2.2 0 0 1-2.2 2.2h-2.111c-4.949 0-7.08-2-7.08-8.261V279.3h-.952a2.315 2.315 0 0 1-2.315-2.315 2.315 2.315 0 0 1 2.315-2.315z" transform="translate(-4342.874 -253.156)" style="fill:#626d6d"/>
        <path data-name="Path 55" d="M1191.066 264.614h-7.171c-3.586 0-4.537-1.767-4.537-3.63 0-2.132 1.225-3.63 3.995-3.63h13.026a2.677 2.677 0 0 0 2.678-2.677 2.677 2.677 0 0 0-2.68-2.677h-12.844c-6.809 0-9.532 3.721-9.532 8.8 0 4.266 1.907 8.848 10.075 8.848h7.129c3.767 0 4.811 1.815 4.811 3.812 0 2.223-1.316 3.811-4.221 3.811h-14.571a2.677 2.677 0 0 0-2.679 2.678 2.678 2.678 0 0 0 2.679 2.677h14.387c6.99 0 9.758-3.811 9.758-8.984 0-4.4-1.952-9.028-10.303-9.028z" transform="translate(-1105.075 -237.153)" style="fill:url(#5bs16a3bda)"/>
        <path data-name="Path 56" d="M1742.417 379.492c5.9 0 8.125-2.5 8.125-6.9 0-4.629-2.406-7.353-8.079-7.353h-7.763c-5.991 0-8.351 3.358-8.351 7.9v8.172c0 4.537 2.36 7.895 8.351 7.895h12.323a2.337 2.337 0 0 0 2.338-2.337 2.337 2.337 0 0 0-2.338-2.338H1734.7c-2.632 0-3.676-1.407-3.676-3.313a1.725 1.725 0 0 1 1.726-1.724zm-11.392-6.309c0-1.861 1.044-3.313 3.676-3.313h7.719c2.36 0 3.4 1.178 3.4 3 0 1.768-.953 2.859-3.54 2.859h-9.532a1.725 1.725 0 0 1-1.724-1.724z" transform="translate(-1624.887 -343.727)" style="fill:url(#bfp824qzjd)"/>
        <path data-name="Path 57" d="M2244.47 365.24h-12.07a2.316 2.316 0 0 0-2.315 2.315 2.315 2.315 0 0 0 2.315 2.315h12.028c2.632 0 3.676 1.452 3.676 3.313a1.815 1.815 0 0 1-1.815 1.815h-9.577c-5.9 0-8.08 2.542-8.08 6.9 0 4.537 2.36 7.306 8.034 7.306h11.211c4.039 0 4.949-1.362 4.949-4.811v-11.254c-.005-4.539-2.365-7.899-8.356-7.899zm3.63 18.06c0 .863-.362 1.225-1.316 1.225h-10.074c-2.406 0-3.359-1.135-3.359-2.9s.908-2.814 3.45-2.814h9.485a1.816 1.816 0 0 1 1.816 1.815z" transform="translate(-2097.579 -343.727)" style="fill:url(#i949bu1tue)"/>
    </g>
</svg>
