<svg data-name="Layer 2" xmlns="http://www.w3.org/2000/svg" xmlns:xlink="http://www.w3.org/1999/xlink" width="190.874" height="60" viewBox="0 0 190.874 60">
    <defs>
        <linearGradient id="ejsfociyla" x1=".168" y1=".233" x2=".85" y2=".945" gradientUnits="objectBoundingBox">
            <stop offset="0" stop-color="#50ffc5"/>
            <stop offset="1" stop-color="#19b9c3"/>
        </linearGradient>
        <linearGradient id="uxog243egd" x1=".168" y1=".233" x2=".85" y2=".945" xlink:href="#ejsfociyla"/>
        <linearGradient id="vf59isbyte" x1=".168" y1=".232" x2=".849" y2=".945" xlink:href="#ejsfociyla"/>
        <linearGradient id="8jgu2t6hof" x1=".168" y1=".233" x2=".849" y2=".945" xlink:href="#ejsfociyla"/>
        <linearGradient id="elz4o71m5b" x1="-.023" y1=".405" x2="3.114" y2="1.01" gradientUnits="objectBoundingBox">
            <stop offset="0" stop-color="#50ffc5"/>
            <stop offset=".06" stop-color="#4bf9c5"/>
            <stop offset=".46" stop-color="#30d6c4"/>
            <stop offset=".79" stop-color="#1fc1c3"/>
            <stop offset="1" stop-color="#19b9c3"/>
        </linearGradient>
        <linearGradient id="mrhuxkf8tg" x1="-1.323" y1=".105" x2="2.179" y2=".861" xlink:href="#elz4o71m5b"/>
        <linearGradient id="zo2unfgdmh" x1="-2.453" y1="-.156" x2="1.03" y2=".62" xlink:href="#elz4o71m5b"/>
        <clipPath id="gb53j54k0c">
            <path data-name="Rectangle 1906" style="fill:none" d="M0 0h59.973v60H0z"/>
        </clipPath>
    </defs>
    <g data-name="Layer 1">
        <g data-name="Group 2936" style="clip-path:url(#gb53j54k0c)">
            <path data-name="Path 23" d="m369.115 497.428 1.094 2.22a.584.584 0 0 0 .441.32l2.449.354a.586.586 0 0 1 .325 1l-1.769 1.728a.587.587 0 0 0-.169.519l.418 2.44a.586.586 0 0 1-.85.618l-2.19-1.152a.586.586 0 0 0-.545 0l-2.191 1.152a.586.586 0 0 1-.85-.618l.419-2.44a.588.588 0 0 0-.169-.519l-1.772-1.728a.586.586 0 0 1 .324-1l2.449-.354a.585.585 0 0 0 .441-.32l1.1-2.22a.585.585 0 0 1 1.049 0z" transform="translate(-342.137 -467.773)" style="fill:url(#ejsfociyla)"/>
            <path data-name="Path 24" d="m614.308 497.418 1.1 2.22a.59.59 0 0 0 .441.32l2.449.354a.586.586 0 0 1 .324 1l-1.769 1.728a.585.585 0 0 0-.168.519L617.1 506a.586.586 0 0 1-.85.618l-2.193-1.152a.589.589 0 0 0-.546 0l-2.191 1.152a.586.586 0 0 1-.85-.618l.418-2.44a.586.586 0 0 0-.168-.519l-1.773-1.728a.586.586 0 0 1 .325-1l2.449-.354a.589.589 0 0 0 .441-.32l1.1-2.22a.585.585 0 0 1 1.051 0z" transform="translate(-572.869 -467.763)" style="fill:url(#uxog243egd)"/>
            <path data-name="Path 25" d="m859.64 497.505 1.1 2.22a.586.586 0 0 0 .441.32l2.449.354a.586.586 0 0 1 .324 1l-1.769 1.728a.587.587 0 0 0-.169.519l.419 2.44a.586.586 0 0 1-.85.618l-2.191-1.152a.585.585 0 0 0-.545 0l-2.191 1.152a.586.586 0 0 1-.85-.618l.419-2.44a.587.587 0 0 0-.169-.519l-1.769-1.728a.586.586 0 0 1 .324-1l2.449-.354a.586.586 0 0 0 .441-.32l1.1-2.22a.586.586 0 0 1 1.045 0z" transform="translate(-803.739 -467.85)" style="fill:url(#vf59isbyte)"/>
            <path data-name="Path 26" d="m736.935 302.79 1.1 2.22a.584.584 0 0 0 .44.321l2.449.354a.586.586 0 0 1 .325 1l-1.769 1.728a.589.589 0 0 0-.169.519l.418 2.44a.586.586 0 0 1-.85.618l-2.193-1.152a.586.586 0 0 0-.545 0l-2.191 1.152a.586.586 0 0 1-.85-.618l.418-2.44a.586.586 0 0 0-.168-.519l-1.771-1.729a.586.586 0 0 1 .324-1l2.449-.354a.584.584 0 0 0 .441-.321l1.1-2.22a.585.585 0 0 1 1.05 0z" transform="translate(-688.266 -284.619)" style="fill:url(#8jgu2t6hof)"/>
            <path data-name="Path 27" d="m491.707 302.79 1.1 2.22a.585.585 0 0 0 .441.321l2.449.354a.586.586 0 0 1 .324 1l-1.769 1.728a.59.59 0 0 0-.169.519l.419 2.44a.586.586 0 0 1-.85.618l-2.194-1.152a.585.585 0 0 0-.545 0l-2.191 1.152a.586.586 0 0 1-.848-.618l.419-2.44a.59.59 0 0 0-.169-.519l-1.773-1.729a.586.586 0 0 1 .325-1l2.448-.354a.583.583 0 0 0 .441-.321l1.1-2.22a.586.586 0 0 1 1.05 0z" transform="translate(-457.499 -284.619)" style="fill:url(#8jgu2t6hof)"/>
            <path data-name="Path 28" d="M33.147 52.451a3.98 3.98 0 0 0-3.57 2.222h-9.8a2.359 2.359 0 0 1-2.043-1.18L4.354 30.305a2.361 2.361 0 0 1 0-2.36L17.736 4.758a2.359 2.359 0 0 1 2.043-1.18h11.6a1.788 1.788 0 0 0 1.784-1.788A1.788 1.788 0 0 0 31.375 0h-13.32A2.948 2.948 0 0 0 15.5 1.475L.4 27.649a2.951 2.951 0 0 0 0 2.95l15.1 26.175a2.948 2.948 0 0 0 2.554 1.475h11.552a3.981 3.981 0 1 0 3.541-5.8z" transform="translate(-.001)" style="fill:#19b9c3"/>
            <path data-name="Path 29" d="M198.5 126.53a3.091 3.091 0 0 0-2.463 1.221h-7.649a2.948 2.948 0 0 0-2.553 1.475l-10.092 17.488a2.951 2.951 0 0 0 0 2.95l10.092 17.486a2.948 2.948 0 0 0 2.554 1.475h8.3a1.788 1.788 0 0 0 1.787-1.788 1.788 1.788 0 0 0-1.787-1.788h-6.581a2.359 2.359 0 0 1-2.043-1.18l-8.369-14.5a2.361 2.361 0 0 1 0-2.36l8.369-14.5a2.359 2.359 0 0 1 2.043-1.18h5.8a3.1 3.1 0 1 0 2.588-4.8z" transform="translate(-165.01 -119.065)" style="fill:#50fec5"/>
        </g>
        <path data-name="Path 30" d="M1191.082 264.641h-7.182c-3.589 0-4.541-1.771-4.541-3.638 0-2.137 1.227-3.638 4-3.638h13.041a2.682 2.682 0 0 0 2.68-2.683 2.681 2.681 0 0 0-2.68-2.682h-12.856c-6.816 0-9.541 3.729-9.541 8.821 0 4.275 1.908 8.867 10.084 8.867h7.136c3.77 0 4.816 1.819 4.816 3.82 0 2.228-1.318 3.819-4.225 3.819h-14.586a2.682 2.682 0 0 0-2.681 2.683 2.682 2.682 0 0 0 2.681 2.683h14.4c7 0 9.767-3.82 9.767-9 0-4.414-1.953-9.052-10.313-9.052z" transform="translate(-1104.729 -237.139)" style="fill:url(#elz4o71m5b)"/>
        <path data-name="Path 31" d="M1742.433 379.506c5.906 0 8.132-2.5 8.132-6.906 0-4.634-2.408-7.36-8.087-7.36h-7.768c-6 0-8.36 3.362-8.36 7.905v8.18c0 4.541 2.363 7.9 8.36 7.9h12.334a2.34 2.34 0 0 0 2.34-2.34 2.34 2.34 0 0 0-2.34-2.34h-12.334c-2.635 0-3.68-1.408-3.68-3.317a1.727 1.727 0 0 1 1.728-1.726zm-11.4-6.315c0-1.863 1.045-3.317 3.68-3.317h7.725c2.363 0 3.408 1.18 3.408 3 0 1.769-.954 2.862-3.544 2.862h-9.541a1.727 1.727 0 0 1-1.726-1.726z" transform="translate(-1624.49 -343.684)" style="fill:url(#mrhuxkf8tg)"/>
        <path data-name="Path 32" d="M2244.485 365.24H2232.4a2.317 2.317 0 0 0-2.317 2.317 2.317 2.317 0 0 0 2.317 2.317h12.039c2.635 0 3.68 1.454 3.68 3.317a1.817 1.817 0 0 1-1.817 1.817h-9.586c-5.906 0-8.087 2.544-8.087 6.906 0 4.541 2.362 7.313 8.042 7.313h11.222c4.043 0 4.953-1.363 4.953-4.816v-11.264c-.001-4.547-2.363-7.907-8.361-7.907zm3.635 18.082c0 .863-.364 1.227-1.318 1.227h-10.085c-2.407 0-3.361-1.136-3.361-2.907s.909-2.816 3.453-2.816h9.495a1.817 1.817 0 0 1 1.818 1.817z" transform="translate(-2097.132 -343.684)" style="fill:url(#zo2unfgdmh)"/>
        <path data-name="Path 33" d="m2766.093 252.9 6.792 8.174a2.487 2.487 0 0 0 3.79.044l7.2-8.263a2.487 2.487 0 0 1 1.875-.853h.035a2.491 2.491 0 0 1 1.877 4.126l-8.138 9.355a2.494 2.494 0 0 0-.021 3.246l8.361 9.862a2.491 2.491 0 0 1-1.9 4.1 2.488 2.488 0 0 1-1.909-.894l-7.546-9.036a2.487 2.487 0 0 0-3.8-.025l-7.79 9.086a2.49 2.49 0 0 1-1.888.869h-.075a2.49 2.49 0 0 1-1.886-4.113l8.812-10.281a2.493 2.493 0 0 0 .009-3.233l-7.6-8.965a2.491 2.491 0 0 1 1.9-4.1 2.488 2.488 0 0 1 1.902.901z" transform="translate(-2597.58 -237.139)" style="fill:#626d6d"/>
    </g>
</svg>
