<svg data-name="Layer 2" xmlns="http://www.w3.org/2000/svg" xmlns:xlink="http://www.w3.org/1999/xlink" width="264.203" height="60" viewBox="0 0 264.203 60">
    <defs>
        <linearGradient id="lnu6u3f8ya" x1="-.19" y1="-.067" x2="2.55" y2="2.389" gradientUnits="objectBoundingBox">
            <stop offset="0" stop-color="#50ffc5"/>
            <stop offset=".1" stop-color="#43efc5"/>
            <stop offset=".3" stop-color="#31d7c4"/>
            <stop offset=".5" stop-color="#23c6c3"/>
            <stop offset=".72" stop-color="#1cbcc3"/>
            <stop offset="1" stop-color="#19b9c3"/>
        </linearGradient>
        <linearGradient id="b978xbla2d" x1="-1.263" y1="-1.347" x2="4.868" y2="5.824" xlink:href="#lnu6u3f8ya"/>
        <linearGradient id="4tqupcme2e" x1=".221" y1=".138" x2=".654" y2=".739" xlink:href="#lnu6u3f8ya"/>
        <linearGradient id="zbcsom6uif" x1=".731" y1=".123" x2=".231" y2=".981" xlink:href="#lnu6u3f8ya"/>
        <linearGradient id="62fnvr7eug" x1="-.755" y1="-2.474" x2="2.305" y2="4.351" xlink:href="#lnu6u3f8ya"/>
        <linearGradient id="oj5s1fchfh" x1=".196" y1=".075" x2=".671" y2=".749" xlink:href="#lnu6u3f8ya"/>
        <linearGradient id="ngqx2smydb" x1="-.023" y1=".405" x2="3.114" y2="1.01" gradientUnits="objectBoundingBox">
            <stop offset="0" stop-color="#50ffc5"/>
            <stop offset=".06" stop-color="#4bf9c5"/>
            <stop offset=".46" stop-color="#30d6c4"/>
            <stop offset=".79" stop-color="#1fc1c3"/>
            <stop offset="1" stop-color="#19b9c3"/>
        </linearGradient>
        <linearGradient id="wvm4lvzjpi" x1="-1.323" y1=".105" x2="2.179" y2=".861" xlink:href="#ngqx2smydb"/>
        <linearGradient id="jkz5ueodrj" x1="-2.453" y1="-.156" x2="1.03" y2=".62" xlink:href="#ngqx2smydb"/>
        <clipPath id="vbp6d7dkbc">
            <path data-name="Rectangle 1907" style="fill:none" d="M0 0h60v60H0z"/>
        </clipPath>
    </defs>
    <g data-name="Layer 2">
        <g data-name="Group 2939" style="clip-path:url(#vbp6d7dkbc)">
            <path data-name="Path 34" d="M281.6 265.42a4.727 4.727 0 0 0-4.172-2.02 5.572 5.572 0 0 0-4.566 2.766l-.044.044-8.871 15.105a1.318 1.318 0 0 0 1.141 1.976h3.471a1.366 1.366 0 0 0 1.142-.659l6.541-11.284a.771.771 0 0 1 .174-.22c.966-1.537 2.722-4.347 3.029-4.962a1.643 1.643 0 0 1 2.155-.746z" transform="translate(-247.626 -247.463)" style="fill:url(#lnu6u3f8ya)"/>
            <path data-name="Path 35" d="M484.507 302.1a1.318 1.318 0 0 0 1.142.659h3.425a1.317 1.317 0 0 0 1.141-1.932l-2.634-4.743a1.665 1.665 0 0 0-2.152.793c-.351.615-2.107 3.471-3.029 4.962a1.317 1.317 0 0 1 2.107.263z" transform="translate(-453.606 -278.125)" style="fill:url(#b978xbla2d)"/>
            <path data-name="Path 36" d="M424.659 469.66 419.7 460l-3.337 5.752 2.634 5.181.834 1.493 1.8 3.293a1.664 1.664 0 0 0 2.151-.79c.351-.615 2.108-3.471 3.03-4.962a1.405 1.405 0 0 1-1.985-.086 1.373 1.373 0 0 1-.168-.221z" transform="translate(-391.386 -432.691)" style="fill:url(#4tqupcme2e)"/>
            <path data-name="Path 37" d="M518.677 511.62h-2.723l-3.908 6.718a.777.777 0 0 1-.174.22c-.966 1.536-2.723 4.347-3.03 4.961a1.625 1.625 0 0 1-2.153.791 4.726 4.726 0 0 0 4.171 2.019 5.571 5.571 0 0 0 4.566-2.766l.044-.044 5.8-9.923c.788-1.361-.97-1.976-2.593-1.976z" transform="translate(-476.491 -481.325)" style="fill:url(#zbcsom6uif)"/>
            <path data-name="Path 38" d="M552.8 422.05h-13.7a.987.987 0 0 0-.878 1.449l1.58 3.161a1.01 1.01 0 0 0 .878.571h7.553c1.624 0 3.381.615 2.59 1.976l3.03-5.181a1.265 1.265 0 0 0-1.054-1.976z" transform="translate(-506.093 -396.936)" style="fill:url(#62fnvr7eug)"/>
            <path data-name="Path 39" d="M56.931 100.169a21.945 21.945 0 0 1-3.688-4.917c-1.318-2.635-1.186-3.161 0-5.4.219-.439 5.005-8.606 5.005-8.606a7.627 7.627 0 0 0 0-7.508L47.183 54.59a7.462 7.462 0 0 0-6.5-3.731H18.554a7.543 7.543 0 0 0-6.5 3.732L.99 73.737a7.627 7.627 0 0 0 0 7.508L11.7 99.774a8.78 8.78 0 0 0 7.6 4.39h9.22a1.252 1.252 0 0 0 1.1-.614l1.273-2.108a1.269 1.269 0 0 0-1.1-1.932H18.554a2.8 2.8 0 0 1-2.459-1.41L5.382 79.575a4.083 4.083 0 0 1 0-4.128l10.713-18.53a2.855 2.855 0 0 1 2.459-1.405h22.13a2.8 2.8 0 0 1 2.459 1.405l11.066 19.189a2.777 2.777 0 0 1 0 2.854l-1.054 1.932h-.044c-.132.22-2.942 4.874-4 6.85-2.239 4.215-1.668 6.454-.044 9.66l.132.264a1.317 1.317 0 0 1-1.142 1.888h-4.61a1.251 1.251 0 0 0-1.1.615l-1.229 2.107a1.318 1.318 0 0 0 1.1 1.932H57.9a1.273 1.273 0 0 0 .876-2.2z" transform="translate(.887 -47.216)" style="fill:url(#oj5s1fchfh)"/>
        </g>
        <path data-name="Path 40" d="M2765.344 286.179a2.629 2.629 0 0 1-2.629 2.629h-9c-5.792 0-8.333 2.9-8.333 9.8 0 6.863 2.5 9.759 8.333 9.759h9a2.629 2.629 0 0 1 2.629 2.629 2.629 2.629 0 0 1-2.629 2.63h-9c-8.778 0-13.593-4.947-13.593-15.018 0-10.115 4.858-15.062 13.593-15.062h9a2.629 2.629 0 0 1 2.629 2.633z" transform="translate(-2580.728 -266.447)" style="fill:#626d6d"/>
        <path data-name="Path 41" d="M3284.894 222.772v5.481a2.362 2.362 0 0 0 2.362 2.362h5.927c7.932 0 11.854 3.832 11.854 10.3v10.875a2.362 2.362 0 0 1-2.362 2.362h-.044a2.362 2.362 0 0 1-2.362-2.362v-10.879c0-3.61-2.184-5.749-7.085-5.749h-5.927a2.362 2.362 0 0 0-2.362 2.362v14.258a2.362 2.362 0 0 1-2.362 2.362 2.362 2.362 0 0 1-2.362-2.362v-29.01a2.362 2.362 0 0 1 2.362-2.362 2.362 2.362 0 0 1 2.362 2.362z" transform="translate(-3089.539 -206.96)" style="fill:#626d6d"/>
        <path data-name="Path 42" d="M3831.912 396.83c5.881 0 8.2 3.3 8.2 7.751v11.054c0 3.386-.891 4.724-4.86 4.724h-11c-5.571 0-7.888-2.719-7.888-7.173 0-4.281 2.14-6.774 7.932-6.774h9.4a1.782 1.782 0 0 0 1.783-1.783c0-1.827-1.024-3.253-3.608-3.253h-11.808a2.272 2.272 0 0 1-2.273-2.275 2.272 2.272 0 0 1 2.273-2.273zm3.565 17.736v-2.628a1.782 1.782 0 0 0-1.785-1.783h-9.312c-2.5 0-3.387 1.025-3.387 2.763s.935 2.852 3.3 2.852h9.892c.935-.001 1.292-.358 1.292-1.204z" transform="translate(-3594.713 -373.175)" style="fill:#626d6d"/>
        <path data-name="Path 43" d="M4304.917 306.1v-3.186a2.385 2.385 0 0 1 2.384-2.384 2.384 2.384 0 0 1 2.384 2.384v3.186h4.232a2.273 2.273 0 0 1 2.273 2.273 2.273 2.273 0 0 1-2.273 2.273h-4.232v11.14c0 2.629.936 3.521 3.164 3.521h1.092a2.161 2.161 0 0 1 2.161 2.161 2.162 2.162 0 0 1-2.161 2.162h-2.073c-4.858 0-6.951-1.961-6.951-8.11v-10.876h-.934a2.273 2.273 0 0 1-2.273-2.273 2.272 2.272 0 0 1 2.273-2.271z" transform="translate(-4051.988 -282.445)" style="fill:#626d6d"/>
        <path data-name="Path 44" d="M1190.756 295.94h-7.041c-3.52 0-4.454-1.738-4.454-3.565 0-2.095 1.2-3.565 3.922-3.565h12.789a2.629 2.629 0 0 0 2.628-2.631 2.629 2.629 0 0 0-2.63-2.629h-12.61c-6.686 0-9.359 3.656-9.359 8.645 0 4.189 1.872 8.689 9.891 8.689h7c3.7 0 4.724 1.782 4.724 3.743 0 2.184-1.293 3.743-4.144 3.743h-14.306a2.629 2.629 0 0 0-2.63 2.63 2.63 2.63 0 0 0 2.63 2.63h14.126c6.863 0 9.581-3.744 9.581-8.824-.002-4.32-1.918-8.866-10.117-8.866z" transform="translate(-1105.2 -266.447)" style="fill:url(#ngqx2smydb)"/>
        <path data-name="Path 45" d="M1742.125 410.823c5.793 0 7.977-2.451 7.977-6.774 0-4.545-2.361-7.219-7.932-7.219h-7.62c-5.882 0-8.2 3.3-8.2 7.751v8.024c0 4.454 2.318 7.754 8.2 7.754h12.1a2.3 2.3 0 0 0 2.3-2.3 2.3 2.3 0 0 0-2.3-2.295h-12.1c-2.584 0-3.61-1.381-3.61-3.253a1.693 1.693 0 0 1 1.7-1.693zm-11.185-6.195c0-1.827 1.025-3.253 3.61-3.253h7.578c2.317 0 3.342 1.157 3.342 2.941 0 1.735-.936 2.807-3.476 2.807h-9.359a1.693 1.693 0 0 1-1.693-1.693z" transform="translate(-1625.6 -373.175)" style="fill:url(#wvm4lvzjpi)"/>
        <path data-name="Path 46" d="M2244.182 396.83h-11.853a2.273 2.273 0 0 0-2.273 2.273 2.273 2.273 0 0 0 2.273 2.273h11.809c2.585 0 3.609 1.426 3.609 3.253a1.782 1.782 0 0 1-1.782 1.783h-9.4c-5.792 0-7.932 2.5-7.932 6.774 0 4.454 2.317 7.173 7.888 7.173h11.007c3.966 0 4.859-1.337 4.859-4.724v-11.05c-.006-4.457-2.323-7.755-8.205-7.755zm3.565 17.736c0 .846-.355 1.2-1.291 1.2h-9.892c-2.361 0-3.3-1.114-3.3-2.852s.892-2.763 3.387-2.763h9.313a1.782 1.782 0 0 1 1.781 1.783z" transform="translate(-2098.825 -373.175)" style="fill:url(#jkz5ueodrj)"/>
    </g>
</svg>
