<svg xmlns="http://www.w3.org/2000/svg" width="178.856" height="35" viewBox="0 0 178.856 35">
    <defs>
        <linearGradient id="yib6rj87ua" x1=".12" y1=".155" x2=".88" y2=".845" gradientUnits="objectBoundingBox">
            <stop offset="0" stop-color="#dee628"/>
            <stop offset=".068" stop-color="#bfdf40"/>
            <stop offset=".179" stop-color="#94d563"/>
            <stop offset=".295" stop-color="#6ecc80"/>
            <stop offset=".416" stop-color="#4fc599"/>
            <stop offset=".541" stop-color="#37c0ab"/>
            <stop offset=".674" stop-color="#26bcb9"/>
            <stop offset=".819" stop-color="#1cbac0"/>
            <stop offset="1" stop-color="#19b9c3"/>
        </linearGradient>
    </defs>
    <path data-name="Path 32332" d="m29.033 349.973-10.387-6a5.506 5.506 0 0 0-5.505 0l-10.387 6A5.5 5.5 0 0 0 0 354.74v11.994a5.507 5.507 0 0 0 2.753 4.766l10.387 6a5.506 5.506 0 0 0 5.505 0l10.387-6a5.507 5.507 0 0 0 2.753-4.768V354.74a5.5 5.5 0 0 0-2.752-4.767zm-10.368.217 1.177-.679a1.193 1.193 0 0 1 1.193 2.066l-1.177.679a1.193 1.193 0 1 1-1.193-2.066zm-7.912 4.569 4.545-2.623a1.193 1.193 0 1 1 1.192 2.064l-4.545 2.623a1.193 1.193 0 1 1-1.193-2.066zm0 7.339 9.089-5.247a1.193 1.193 0 1 1 1.193 2.066l-9.089 5.247a1.193 1.193 0 1 1-1.193-2.066zm2.368 9.187-1.177.679a1.193 1.193 0 1 1-1.193-2.066l1.177-.679a1.193 1.193 0 0 1 1.193 2.066zm7.912-4.569-4.545 2.623a1.193 1.193 0 1 1-1.193-2.066l4.545-2.623a1.193 1.193 0 0 1 1.193 2.066z" style="fill:url(#yib6rj87ua)" transform="translate(0 -343.237)"/>
    <path data-name="Path 32333" d="M319.5 422.745a1.244 1.244 0 1 1-.365-.893 1.2 1.2 0 0 1 .365.893zm-120.179.936h13.865a3.006 3.006 0 0 0 1.141-.217 2.761 2.761 0 0 0 .919-.606 3.011 3.011 0 0 0 .62-.912 2.783 2.783 0 0 0 .225-1.125 2.879 2.879 0 0 0-.227-1.137 2.929 2.929 0 0 0-.618-.922 2.9 2.9 0 0 0-.92-.617 2.845 2.845 0 0 0-1.139-.227h-12.65a1 1 0 0 1-.718-.3.979.979 0 0 1 0-1.437 1.03 1.03 0 0 1 .714-.283h13.933a.936.936 0 1 0 0-1.872h-13.884a2.783 2.783 0 0 0-1.125.227 2.924 2.924 0 0 0-1.53 1.53 2.9 2.9 0 0 0 0 2.25 2.925 2.925 0 0 0 1.53 1.53 2.8 2.8 0 0 0 1.125.227h12.7a.971.971 0 0 1 .709.3 1 1 0 0 1 .3.732.937.937 0 0 1-.3.7 1 1 0 0 1-.707.285h-13.96a.93.93 0 0 0-.936.936.933.933 0 0 0 .934.936zm34.914-9.379a.9.9 0 0 0-.664-.273h-16.22a.937.937 0 1 0 0 1.874h16.221a.94.94 0 0 0 .664-1.6zm-16.977 8.6a2.7 2.7 0 0 0 .842.571 2.35 2.35 0 0 0 .943.2h14.529a.937.937 0 1 0 0-1.874h-14.413a.913.913 0 0 1-.622-.211.678.678 0 0 1-.25-.522v-1.276h14.78a.936.936 0 0 0 .936-.938.933.933 0 0 0-.938-.936h-15.35a2.159 2.159 0 0 0-1.029.185c-.185.108-.274.332-.274.683v2.059a2.785 2.785 0 0 0 .238 1.167 3.032 3.032 0 0 0 .609.89zm27.782-8.277a2.544 2.544 0 0 0-.947-.775 2.862 2.862 0 0 0-2.533.033 2.772 2.772 0 0 0-.973.81l-5.56 7.481a.8.8 0 0 0-.2.568.929.929 0 0 0 1.656.587l5.373-7.135a3.1 3.1 0 0 1 .4-.423.822.822 0 0 1 1.2 0 5.354 5.354 0 0 1 .412.414l5.339 7.125a.86.86 0 0 0 .739.37.93.93 0 0 0 .936-.936.828.828 0 0 0-.077-.355 1.422 1.422 0 0 0-.2-.32zm7.794 9.055H266.7a3 3 0 0 0 1.139-.217 2.76 2.76 0 0 0 .921-.606 3.005 3.005 0 0 0 .618-.912 2.784 2.784 0 0 0 .227-1.125 2.874 2.874 0 0 0-.227-1.137 2.994 2.994 0 0 0-.617-.924 2.906 2.906 0 0 0-.922-.617 2.843 2.843 0 0 0-1.137-.227h-12.656a1 1 0 0 1-.718-.3.98.98 0 0 1 0-1.436 1.033 1.033 0 0 1 .714-.283h13.933a.938.938 0 1 0 0-1.876h-13.883a2.775 2.775 0 0 0-1.123.227 2.932 2.932 0 0 0-.912.618 2.964 2.964 0 0 0-.618.91 2.9 2.9 0 0 0 0 2.25 2.924 2.924 0 0 0 .618.91 2.974 2.974 0 0 0 .913.62 2.8 2.8 0 0 0 1.123.227h12.7a.977.977 0 0 1 .709.3 1 1 0 0 1 .3.732.937.937 0 0 1-.3.7.994.994 0 0 1-.706.285h-13.958a.939.939 0 0 0-.664 1.6.87.87 0 0 0 .66.282zm27.3-9.055a2.541 2.541 0 0 0-.947-.775 2.865 2.865 0 0 0-2.534.033 2.788 2.788 0 0 0-.973.81l-5.56 7.481a.8.8 0 0 0-.2.568.93.93 0 0 0 1.658.587l5.373-7.133a3.053 3.053 0 0 1 .4-.423.824.824 0 0 1 1.2 0 5.351 5.351 0 0 1 .412.414l5.339 7.125a.863.863 0 0 0 .741.37.93.93 0 0 0 .936-.936.854.854 0 0 0-.075-.355 1.368 1.368 0 0 0-.206-.32zm22.8 9.055a.936.936 0 1 0 0-1.872h-13.722a1.007 1.007 0 0 1-.718-.3.95.95 0 0 1-.313-.711v-5.834a.876.876 0 0 0-.281-.66.911.911 0 0 0-.655-.276.933.933 0 0 0-.938.936v5.837a2.713 2.713 0 0 0 .236 1.123 2.981 2.981 0 0 0 1.586 1.53 2.935 2.935 0 0 0 1.149.229h13.66zm6.543-.274a.935.935 0 0 0 1.6-.662V415.9h6.934a.938.938 0 1 0 0-1.876h-15.736a.936.936 0 0 0-.938.938.868.868 0 0 0 .253.632.978.978 0 0 0 .611.307h7.008v6.842a.888.888 0 0 0 .272.664zm24.5-8.78a2.544 2.544 0 0 0-.947-.775 2.871 2.871 0 0 0-2.534.033 2.8 2.8 0 0 0-.973.81l-5.56 7.481a.8.8 0 0 0-.2.568.933.933 0 0 0 .936.938.9.9 0 0 0 .721-.351l5.38-7.13a3.071 3.071 0 0 1 .4-.423.82.82 0 0 1 1.2 0 5.115 5.115 0 0 1 .414.414l5.34 7.125a.86.86 0 0 0 .739.37.93.93 0 0 0 .936-.936.849.849 0 0 0-.075-.355 1.366 1.366 0 0 0-.206-.32zm8.045.339a.937.937 0 1 0-1.874 0v7.78a.94.94 0 0 0 1.6.665.9.9 0 0 0 .272-.664z" transform="translate(-163.169 -401.287)" style="fill:#19b9c3"/>
</svg>
