<svg xmlns="http://www.w3.org/2000/svg" width="1366" height="707" viewBox="0 0 1366 707">
    <defs>
        <clipPath id="czfjdmbnfa">
            <path data-name="Rectangle 1472" transform="translate(0 2181)" style="fill:#fff" d="M0 0h1366v707H0z"/>
        </clipPath>
    </defs>
    <g data-name="Group 541" transform="translate(0 -2181)" style="clip-path:url(#czfjdmbnfa)">
        <g data-name="Group 540">
            <path data-name="Path 37966" d="m249.2 18.689 38.671 37.851c26.863 26.294 70.405 26.294 97.121 0l22.14-21.671a12.121 12.121 0 0 1 16.974 0l.148.144a11.94 11.94 0 0 1 0 17.192l-70.405 68.913a60.47 60.47 0 0 0 0 86.827 63.68 63.68 0 0 0 88.708 0L657.61-2.26l47.232 6.36-78.228 76.57a84.263 84.263 0 0 0 0 120.923c34.1 33.373 89.446 33.373 123.541 0L869.711 84.568a13.478 13.478 0 0 1 18.745 0 12.8 12.8 0 0 1 0 18.348L711.484 276.137a47.5 47.5 0 0 0 0 68.335 50.02 50.02 0 0 0 69.815 0l122.655-120.056a14.292 14.292 0 0 1 20.074 0 13.575 13.575 0 0 1 0 19.648l-2.214 2.167a100.5 100.5 0 0 0 0 144.327l91.512 89.572V-39.1" transform="translate(352.674 2165.416)" style="fill:#2e333b"/>
            <path data-name="Path 37967" d="m42.206 356.8 121.032-118.463c27.158-26.583 71.143-26.583 98.154 0a66.828 66.828 0 0 1 0 96.074l-55.055 54.032a29.292 29.292 0 0 0 0 42.186 30.844 30.844 0 0 0 43.1 0l11.956-11.7a63.68 63.68 0 0 1 88.708 0 60.47 60.47 0 0 1 0 86.827l-49.151 48.109a13.057 13.057 0 0 0 0 18.781 13.749 13.749 0 0 0 19.188 0l119.851-117.313a55.089 55.089 0 0 1 76.6 0 52.309 52.309 0 0 1 0 74.981l-32.324 31.639a11.6 11.6 0 0 0 0 16.47 12.215 12.215 0 0 0 16.826 0l2.657-2.6c56.678-55.477 148.781-55.477 205.459 0L764.561 630H-132.7S52.981 367.35 42.206 356.8z" transform="translate(-182.326 2277.609)" style="fill:#2e333b"/>
        </g>
    </g>
</svg>
