<svg xmlns="http://www.w3.org/2000/svg" width="1366" height="272" viewBox="0 0 1366 272">
    <defs>
        <clipPath id="bpstzp0x2a">
            <path data-name="Rectangle 1455" style="fill:#19b9c3" d="M0 0h1366v272H0z"/>
        </clipPath>
    </defs>
    <g data-name="Mask Group 6" style="clip-path:url(#bpstzp0x2a)">
        <g data-name="Group 543">
            <path data-name="Rectangle 1478" style="fill:#19b9c3" d="M0 0h1366v272H0z"/>
            <g data-name="Group 495">
                <path data-name="Path 37927" d="M226.433 194.593a4.368 4.368 0 0 0-6.052 0l-12.989 12.989a4.368 4.368 0 0 0 0 6.052 4.368 4.368 0 0 0 6.052 0l12.989-12.989a4.368 4.368 0 0 0 0-6.052z" transform="translate(869.095 -32.966)" style="fill:#fff"/>
                <path data-name="Path 37928" d="M207.493 194.628a4.368 4.368 0 0 0 0 6.052l12.989 12.989a4.368 4.368 0 0 0 6.052 0 4.368 4.368 0 0 0 0-6.052l-12.989-12.989a4.109 4.109 0 0 0-6.052 0z" transform="translate(868.847 -33.002)" style="fill:#fff"/>
            </g>
            <g data-name="Group 491" transform="translate(219.659 119.099)">
                <circle data-name="Ellipse 14" cx="4.723" cy="4.723" r="4.723" transform="translate(23.764)" style="fill:#fff"/>
                <circle data-name="Ellipse 15" cx="4.723" cy="4.723" r="4.723" transform="translate(23.764 24.354)" style="fill:#fff"/>
                <circle data-name="Ellipse 16" cx="4.723" cy="4.723" r="4.723" style="fill:#fff"/>
                <circle data-name="Ellipse 17" cx="4.723" cy="4.723" r="4.723" transform="translate(0 24.354)" style="fill:#fff"/>
            </g>
            <g data-name="Group 486">
                <path data-name="Line 18" style="stroke:#fff;fill:none;stroke-linecap:round;stroke-miterlimit:10;stroke-width:3px" d="M154.118 154.118 0 0" transform="translate(-112.561 17.794)"/>
            </g>
            <g data-name="Group 485">
                <path data-name="Line 19" style="stroke:#fff;fill:none;stroke-linecap:round;stroke-miterlimit:10;stroke-width:3px" d="M80.694 80.694 0 0" transform="translate(207.264 -23.288)"/>
            </g>
            <g data-name="Group 484">
                <path data-name="Line 20" style="stroke:#fff;fill:none;stroke-linecap:round;stroke-miterlimit:10;stroke-width:3px" d="M118.624 118.532 0 0" transform="translate(1185.267 94.853)"/>
            </g>
            <g data-name="Group 483">
                <path data-name="Line 21" style="stroke:#fff;fill:none;stroke-linecap:round;stroke-miterlimit:10;stroke-width:3px" d="M106.238 106.33 0 0" transform="translate(1068.661 252.467)"/>
            </g>
            <g data-name="Group 482">
                <path data-name="Line 22" style="stroke:#fff;fill:none;stroke-linecap:round;stroke-miterlimit:10;stroke-width:3px" d="M106.33 106.238 0 0" transform="translate(1255.817 131.825)"/>
            </g>
            <g data-name="Group 479" transform="translate(83.75 149.255)">
                <circle data-name="Ellipse 37" cx="10.056" cy="10.056" style="fill:#50fec5" r="10.056"/>
            </g>
            <g data-name="Group 477">
                <path data-name="Path 37939" d="M144.2 500.818c-1.284-.459-50.367-50-69.082-68.991a10.08 10.08 0 0 0-14.4 0 10.244 10.244 0 0 0 0 14.4l15.413 15.413a5.1 5.1 0 0 1 0 7.248 5.1 5.1 0 0 1-7.248 0l-6.422-6.422a11.075 11.075 0 0 0-15.78 0 11.075 11.075 0 0 0 0 15.78 4.762 4.762 0 0 1 0 6.7L28.6 503.02h117.247" transform="translate(1119.419 -204.589)" style="fill:#22d5e0"/>
            </g>
            <g data-name="Group 476">
                <path data-name="Path 37940" d="m708.333-7.3 73.787 73.792a17.478 17.478 0 0 1 0 24.838 17.478 17.478 0 0 1-24.838 0L717.9 51.832a6.071 6.071 0 0 0-8.481 0 6.071 6.071 0 0 0 0 8.481l13.328 13.449a9.434 9.434 0 0 1 0 13.449 9.435 9.435 0 0 1-13.449 0L673.2 51.1a25.66 25.66 0 0 0-36.228 0l-.969.969L565.725-18.2c-.125-.121 142.608 10.057 142.608 10.9z" transform="translate(-648.601 3.765)" style="fill:#22d5e0"/>
            </g>
            <g data-name="Group 474">
                <path data-name="Line 24" style="stroke:#50fec5;fill:none;stroke-linecap:round;stroke-miterlimit:10;stroke-width:3px" d="M132.752 132.752 0 0" transform="translate(1206.642 184.944)"/>
            </g>
            <g data-name="Group 473">
                <path data-name="Line 25" style="stroke:#50fec5;fill:none;stroke-linecap:round;stroke-miterlimit:10;stroke-width:3px" d="m0 0 142.002 141.881" transform="translate(227.739 -64.475)"/>
            </g>
        </g>
    </g>
</svg>
