<svg xmlns="http://www.w3.org/2000/svg" width="375" height="622" viewBox="0 0 375 622">
    <defs>
        <clipPath id="er9xglfcea">
            <path data-name="Rectangle 1485" transform="translate(0 1796)" style="fill:#fff" d="M0 0h375v622H0z"/>
        </clipPath>
    </defs>
    <g data-name="Mask Group 10" transform="translate(0 -1796)" style="clip-path:url(#er9xglfcea)">
        <g data-name="Group 570">
            <g data-name="Group 560" transform="translate(-14.775 2379.792)">
                <ellipse data-name="Ellipse 50" cx="28.035" cy="28.504" rx="28.035" ry="28.504" style="fill:#414a53"/>
            </g>
            <g data-name="Group 567">
                <g data-name="Group 563">
                    <g data-name="Group 561" transform="translate(348.987 1810.773)">
                        <ellipse data-name="Ellipse 51" cx="2.204" cy="2.241" rx="2.204" ry="2.241" transform="translate(.069)" style="fill:#22d5e0"/>
                        <path data-name="Path 37996" d="M657.509 426.641a2.2 2.2 0 1 1-2.2-2.241 2.194 2.194 0 0 1 2.2 2.241z" transform="translate(-653.1 -412.844)" style="fill:#22d5e0"/>
                        <ellipse data-name="Ellipse 52" cx="2.204" cy="2.241" rx="2.204" ry="2.241" transform="translate(11.09)" style="fill:#22d5e0"/>
                        <path data-name="Path 37997" d="M673.608 426.641a2.2 2.2 0 1 1-2.2-2.241 2.194 2.194 0 0 1 2.2 2.241z" transform="translate(-658.11 -412.844)" style="fill:#22d5e0"/>
                    </g>
                    <g data-name="Group 562" transform="translate(326.6 1810.773)">
                        <ellipse data-name="Ellipse 53" cx="2.204" cy="2.241" rx="2.204" ry="2.241" transform="translate(.069)" style="fill:#22d5e0"/>
                        <path data-name="Path 37998" d="M625.008 426.641a2.2 2.2 0 1 1-2.2-2.241 2.194 2.194 0 0 1 2.2 2.241z" transform="translate(-620.6 -412.844)" style="fill:#22d5e0"/>
                        <ellipse data-name="Ellipse 54" cx="2.204" cy="2.241" rx="2.204" ry="2.241" transform="translate(11.09)" style="fill:#22d5e0"/>
                        <path data-name="Path 37999" d="M641.109 426.641a2.2 2.2 0 1 1-2.2-2.241 2.194 2.194 0 0 1 2.2 2.241z" transform="translate(-625.61 -412.844)" style="fill:#22d5e0"/>
                    </g>
                </g>
                <g data-name="Group 566">
                    <g data-name="Group 564" transform="translate(393.761 1810.773)">
                        <ellipse data-name="Ellipse 55" cx="2.204" cy="2.241" rx="2.204" ry="2.241" style="fill:#22d5e0"/>
                        <path data-name="Path 38000" d="M722.508 426.641a2.2 2.2 0 1 1-2.2-2.241 2.194 2.194 0 0 1 2.2 2.241z" transform="translate(-718.1 -412.844)" style="fill:#22d5e0"/>
                        <path data-name="Path 38001" d="M738.509 410.141a2.2 2.2 0 1 1-2.2-2.241 2.194 2.194 0 0 1 2.2 2.241z" transform="translate(-723.079 -407.9)" style="fill:#22d5e0"/>
                        <path data-name="Path 38002" d="M738.509 426.641a2.2 2.2 0 1 1-2.2-2.241 2.194 2.194 0 0 1 2.2 2.241z" transform="translate(-723.079 -412.844)" style="fill:#22d5e0"/>
                    </g>
                    <g data-name="Group 565" transform="translate(371.374 1810.773)">
                        <ellipse data-name="Ellipse 56" cx="2.204" cy="2.241" rx="2.204" ry="2.241" style="fill:#22d5e0"/>
                        <path data-name="Path 38003" d="M690.009 426.641a2.2 2.2 0 1 1-2.2-2.241 2.195 2.195 0 0 1 2.2 2.241z" transform="translate(-685.6 -412.844)" style="fill:#22d5e0"/>
                        <ellipse data-name="Ellipse 57" cx="2.204" cy="2.241" rx="2.204" ry="2.241" transform="translate(11.09)" style="fill:#22d5e0"/>
                        <path data-name="Path 38004" d="M706.009 426.641a2.2 2.2 0 1 1-2.2-2.241 2.194 2.194 0 0 1 2.2 2.241z" transform="translate(-690.579 -412.844)" style="fill:#22d5e0"/>
                    </g>
                </g>
            </g>
            <g data-name="Group 572">
                <g data-name="Group 563">
                    <g data-name="Group 561" transform="translate(7.612 2120.773)">
                        <ellipse data-name="Ellipse 51" cx="2.204" cy="2.241" rx="2.204" ry="2.241" transform="translate(.069)" style="fill:#22d5e0"/>
                        <path data-name="Path 37996" d="M657.509 426.641a2.2 2.2 0 1 1-2.2-2.241 2.194 2.194 0 0 1 2.2 2.241z" transform="translate(-653.1 -412.844)" style="fill:#22d5e0"/>
                        <ellipse data-name="Ellipse 52" cx="2.204" cy="2.241" rx="2.204" ry="2.241" transform="translate(11.09)" style="fill:#22d5e0"/>
                        <path data-name="Path 37997" d="M673.608 426.641a2.2 2.2 0 1 1-2.2-2.241 2.194 2.194 0 0 1 2.2 2.241z" transform="translate(-658.11 -412.844)" style="fill:#22d5e0"/>
                    </g>
                    <g data-name="Group 562" transform="translate(-14.775 2120.773)">
                        <ellipse data-name="Ellipse 53" cx="2.204" cy="2.241" rx="2.204" ry="2.241" transform="translate(.069)" style="fill:#22d5e0"/>
                        <path data-name="Path 37998" d="M625.008 426.641a2.2 2.2 0 1 1-2.2-2.241 2.194 2.194 0 0 1 2.2 2.241z" transform="translate(-620.6 -412.844)" style="fill:#22d5e0"/>
                        <ellipse data-name="Ellipse 54" cx="2.204" cy="2.241" rx="2.204" ry="2.241" transform="translate(11.09)" style="fill:#22d5e0"/>
                        <path data-name="Path 37999" d="M641.109 426.641a2.2 2.2 0 1 1-2.2-2.241 2.194 2.194 0 0 1 2.2 2.241z" transform="translate(-625.61 -412.844)" style="fill:#22d5e0"/>
                    </g>
                </g>
                <g data-name="Group 566">
                    <g data-name="Group 564" transform="translate(52.386 2120.773)">
                        <ellipse data-name="Ellipse 55" cx="2.204" cy="2.241" rx="2.204" ry="2.241" style="fill:#22d5e0"/>
                        <path data-name="Path 38000" d="M722.508 426.641a2.2 2.2 0 1 1-2.2-2.241 2.194 2.194 0 0 1 2.2 2.241z" transform="translate(-718.1 -412.844)" style="fill:#22d5e0"/>
                        <path data-name="Path 38001" d="M738.509 410.141a2.2 2.2 0 1 1-2.2-2.241 2.194 2.194 0 0 1 2.2 2.241z" transform="translate(-723.079 -407.9)" style="fill:#22d5e0"/>
                        <path data-name="Path 38002" d="M738.509 426.641a2.2 2.2 0 1 1-2.2-2.241 2.194 2.194 0 0 1 2.2 2.241z" transform="translate(-723.079 -412.844)" style="fill:#22d5e0"/>
                    </g>
                    <g data-name="Group 565" transform="translate(29.999 2120.773)">
                        <ellipse data-name="Ellipse 56" cx="2.204" cy="2.241" rx="2.204" ry="2.241" style="fill:#22d5e0"/>
                        <path data-name="Path 38003" d="M690.009 426.641a2.2 2.2 0 1 1-2.2-2.241 2.195 2.195 0 0 1 2.2 2.241z" transform="translate(-685.6 -412.844)" style="fill:#22d5e0"/>
                        <ellipse data-name="Ellipse 57" cx="2.204" cy="2.241" rx="2.204" ry="2.241" transform="translate(11.09)" style="fill:#22d5e0"/>
                        <path data-name="Path 38004" d="M706.009 426.641a2.2 2.2 0 1 1-2.2-2.241 2.194 2.194 0 0 1 2.2 2.241z" transform="translate(-690.579 -412.844)" style="fill:#22d5e0"/>
                    </g>
                </g>
            </g>
            <g data-name="Group 568">
                <path data-name="Path 38005" d="M460.618 430.3c-26.589 0-48.218 21.991-48.218 49.024s21.629 49.024 48.218 49.024 48.218-21.991 48.218-49.024-21.629-49.024-48.218-49.024zm0 88.314c-21.354 0-38.712-17.579-38.712-39.36 0-21.711 17.29-39.36 38.712-39.36 21.354 0 38.712 17.579 38.712 39.36s-17.358 39.36-38.712 39.36z" transform="translate(-88.687 1607.001)" style="fill:#414a53"/>
            </g>
            <g data-name="Group 573">
                <path data-name="Path 38005" d="M473.242 430.3c-33.55 0-60.842 27.748-60.842 61.86s27.292 61.86 60.842 61.86 60.842-27.748 60.842-61.86-27.291-61.86-60.842-61.86zm0 111.436c-26.944 0-48.848-22.181-48.848-49.664 0-27.4 21.816-49.664 48.848-49.664 26.945 0 48.848 22.181 48.848 49.664s-21.903 49.664-48.848 49.664z" transform="translate(-478.618 1466.001)" style="fill:#262e38"/>
            </g>
            <g data-name="Group 569">
                <path data-name="Line 28" transform="translate(323.713 2031.515)" style="fill:none;stroke:#777;stroke-linecap:round;stroke-miterlimit:10;stroke-width:3px" d="m0 0 43.394 43.296"/>
            </g>
        </g>
    </g>
</svg>
