<svg xmlns="http://www.w3.org/2000/svg" width="1366" height="707" viewBox="0 0 1366 707">
    <defs>
        <clipPath id="c471h6ttda">
            <path data-name="Rectangle 1423" transform="translate(0 1021)" style="fill:#333b44" d="M0 0h1366v707H0z"/>
        </clipPath>
        <clipPath id="4ntq99pycb">
            <path data-name="Rectangle 1471" style="fill:#fff;stroke:#707070" d="M0 0h578v343H0z"/>
        </clipPath>
    </defs>
    <g data-name="Group 5" transform="translate(0 -1021)" style="clip-path:url(#c471h6ttda)">
        <g data-name="Group 523">
            <g data-name="Group 519" transform="translate(-5.4 1385)" style="clip-path:url(#4ntq99pycb)">
                <g data-name="Group 509" transform="translate(-19.137 257.572)">
                    <circle data-name="Ellipse 39" cx="60.073" cy="60.073" r="60.073" style="fill:#414a53"/>
                </g>
                <g data-name="Group 517">
                    <g data-name="Group 513">
                        <g data-name="Group 511" transform="translate(76.656 181.558)">
                            <circle data-name="Ellipse 41" cx="4.723" cy="4.723" r="4.723" transform="translate(23.616)" style="fill:#22d5e0"/>
                            <path data-name="Path 37945" d="M653.1 429.123a4.723 4.723 0 1 0 4.723-4.723 4.663 4.663 0 0 0-4.723 4.723z" transform="translate(-629.336 -400.046)" style="fill:#22d5e0"/>
                            <circle data-name="Ellipse 42" cx="4.723" cy="4.723" r="4.723" style="fill:#22d5e0"/>
                            <path data-name="Path 37946" d="M669.2 429.123a4.723 4.723 0 1 0 4.723-4.723 4.663 4.663 0 0 0-4.723 4.723z" transform="translate(-669.2 -400.046)" style="fill:#22d5e0"/>
                        </g>
                        <g data-name="Group 512" transform="translate(124.626 181.558)">
                            <circle data-name="Ellipse 43" cx="4.723" cy="4.723" r="4.723" transform="translate(23.616)" style="fill:#22d5e0"/>
                            <path data-name="Path 37947" d="M620.6 429.123a4.723 4.723 0 1 0 4.723-4.723 4.663 4.663 0 0 0-4.723 4.723z" transform="translate(-596.836 -400.046)" style="fill:#22d5e0"/>
                            <circle data-name="Ellipse 44" cx="4.723" cy="4.723" r="4.723" style="fill:#22d5e0"/>
                            <path data-name="Path 37948" d="M636.7 429.123a4.723 4.723 0 1 0 4.723-4.723 4.663 4.663 0 0 0-4.723 4.723z" transform="translate(-636.7 -400.046)" style="fill:#22d5e0"/>
                        </g>
                    </g>
                    <g data-name="Group 516">
                        <g data-name="Group 514" transform="translate(-19.136 181.558)">
                            <circle data-name="Ellipse 45" cx="4.723" cy="4.723" r="4.723" transform="translate(23.616)" style="fill:#22d5e0"/>
                            <path data-name="Path 37949" d="M718.1 429.123a4.723 4.723 0 1 0 4.723-4.723 4.663 4.663 0 0 0-4.723 4.723z" transform="translate(-694.484 -400.046)" style="fill:#22d5e0"/>
                            <path data-name="Path 37950" d="M734.1 412.623a4.723 4.723 0 1 0 4.723-4.723 4.663 4.663 0 0 0-4.723 4.723z" transform="translate(-734.1 -407.9)" style="fill:#22d5e0"/>
                            <path data-name="Path 37951" d="M734.1 429.123a4.723 4.723 0 1 0 4.723-4.723 4.663 4.663 0 0 0-4.723 4.723z" transform="translate(-734.1 -400.046)" style="fill:#22d5e0"/>
                        </g>
                        <g data-name="Group 515" transform="translate(28.686 181.558)">
                            <circle data-name="Ellipse 46" cx="4.723" cy="4.723" r="4.723" transform="translate(23.764)" style="fill:#22d5e0"/>
                            <path data-name="Path 37952" d="M685.6 429.123a4.723 4.723 0 1 0 4.723-4.723 4.663 4.663 0 0 0-4.723 4.723z" transform="translate(-661.836 -400.046)" style="fill:#22d5e0"/>
                            <circle data-name="Ellipse 47" cx="4.723" cy="4.723" r="4.723" style="fill:#22d5e0"/>
                            <path data-name="Path 37953" d="M701.6 429.123a4.723 4.723 0 1 0 4.723-4.723 4.663 4.663 0 0 0-4.723 4.723z" transform="translate(-701.452 -400.046)" style="fill:#22d5e0"/>
                        </g>
                    </g>
                </g>
                <g data-name="Group 518">
                    <path data-name="Path 37954" d="M515.72 430.3A103.32 103.32 0 1 1 412.4 533.62 103.434 103.434 0 0 1 515.72 430.3zm0 186.124a82.951 82.951 0 1 0-82.951-82.951 82.929 82.929 0 0 0 82.951 82.951z" transform="translate(-123.4 -231.62)" style="fill:#262e38"/>
                </g>
            </g>
            <g data-name="Group 520">
                <path data-name="Path 37923" d="M249.955 43.6A55.055 55.055 0 1 1 194.9 98.655 55.055 55.055 0 0 1 249.955 43.6zm0 99.187a44.28 44.28 0 1 0-44.28-44.28 44.221 44.221 0 0 0 44.28 44.28z" transform="translate(967.078 1089.128)" style="fill:#414a53"/>
            </g>
            <g data-name="Group 521">
                <g data-name="Group 434" transform="translate(1291.968 1438.778)">
                    <circle data-name="Ellipse 18" cx="4.723" cy="4.723" r="4.723" transform="translate(23.616)" style="fill:#22d5e0"/>
                    <circle data-name="Ellipse 19" cx="4.723" cy="4.723" r="4.723" transform="translate(23.616 24.354)" style="fill:#22d5e0"/>
                    <circle data-name="Ellipse 20" cx="4.723" cy="4.723" r="4.723" style="fill:#22d5e0"/>
                    <circle data-name="Ellipse 21" cx="4.723" cy="4.723" r="4.723" transform="translate(0 24.354)" style="fill:#22d5e0"/>
                </g>
                <g data-name="Group 435" transform="translate(1339.938 1438.778)">
                    <circle data-name="Ellipse 22" cx="4.723" cy="4.723" r="4.723" transform="translate(23.616)" style="fill:#22d5e0"/>
                    <circle data-name="Ellipse 23" cx="4.723" cy="4.723" r="4.723" transform="translate(23.616 24.354)" style="fill:#22d5e0"/>
                    <circle data-name="Ellipse 24" cx="4.723" cy="4.723" r="4.723" style="fill:#22d5e0"/>
                    <circle data-name="Ellipse 25" cx="4.723" cy="4.723" r="4.723" transform="translate(0 24.354)" style="fill:#22d5e0"/>
                </g>
            </g>
            <g data-name="Group 522">
                <path data-name="Line 26" style="fill:none;stroke:#777;stroke-linecap:round;stroke-miterlimit:10;stroke-width:3px" d="m0 0 43.394 43.394" transform="translate(1231.35 1204.904)"/>
            </g>
            <g data-name="Group 546" transform="rotate(-157.5 182.987 559.322)">
                <circle data-name="Ellipse 40" cx="25.978" cy="25.978" r="25.978" style="fill:#404040"/>
            </g>
        </g>
    </g>
</svg>
