<svg data-name="Layer 2" xmlns="http://www.w3.org/2000/svg" xmlns:xlink="http://www.w3.org/1999/xlink" width="79.276" height="20" viewBox="0 0 79.276 20">
    <defs>
        <linearGradient id="2j9b6e08qa" x1="-.023" y1=".405" x2="3.114" y2="1.01" gradientUnits="objectBoundingBox">
            <stop offset="0" stop-color="#50ffc5"/>
            <stop offset=".06" stop-color="#4bf9c5"/>
            <stop offset=".46" stop-color="#30d6c4"/>
            <stop offset=".79" stop-color="#1fc1c3"/>
            <stop offset="1" stop-color="#19b9c3"/>
        </linearGradient>
        <linearGradient id="vtm1wavmqb" x1="-1.322" y1=".105" x2="2.179" y2=".861" xlink:href="#2j9b6e08qa"/>
        <linearGradient id="ub8vc4n7kc" x1="-2.453" y1="-.156" x2="1.03" y2=".62" xlink:href="#2j9b6e08qa"/>
    </defs>
    <g data-name="Layer 2">
        <path data-name="Path 37970" d="M11.149 8.237H6.464c-2.343 0-2.964-1.154-2.964-2.37 0-1.392.8-2.37 2.61-2.37h8.508a1.749 1.749 0 0 0 1.749-1.748A1.749 1.749 0 0 0 14.618 0H6.227C1.779 0 0 2.43 0 5.748c0 2.785 1.245 5.778 6.582 5.778h4.657c2.461 0 3.143 1.185 3.143 2.489 0 1.452-.86 2.489-2.757 2.489h-9.52a1.749 1.749 0 0 0-1.75 1.748A1.749 1.749 0 0 0 2.105 20h9.4c4.566 0 6.375-2.489 6.375-5.867-.001-2.874-1.28-5.896-6.731-5.896z" style="fill:url(#2j9b6e08qa)"/>
        <path data-name="Path 37971" d="M562.846 122.512c3.855 0 5.309-1.631 5.309-4.509 0-3.024-1.571-4.8-5.278-4.8h-5.072c-3.914 0-5.456 2.194-5.456 5.159v5.34c0 2.964 1.542 5.157 5.456 5.157h8.05a1.527 1.527 0 0 0 1.527-1.527 1.527 1.527 0 0 0-1.527-1.527h-8.05c-1.72 0-2.4-.919-2.4-2.165a1.127 1.127 0 0 1 1.128-1.127zm-7.442-4.121c0-1.216.682-2.165 2.4-2.165h5.042c1.542 0 2.224.77 2.224 1.957 0 1.155-.623 1.868-2.313 1.868h-6.227a1.127 1.127 0 0 1-1.127-1.127z" transform="translate(-531.109 -108.857)" style="fill:url(#vtm1wavmqb)"/>
        <path data-name="Path 37972" d="M1064.978 113.24h-7.887a1.512 1.512 0 0 0-1.512 1.512 1.512 1.512 0 0 0 1.512 1.512h7.858c1.72 0 2.4.949 2.4 2.165a1.186 1.186 0 0 1-1.186 1.186h-6.256c-3.855 0-5.278 1.66-5.278 4.507 0 2.964 1.542 4.773 5.248 4.773h7.324c2.639 0 3.233-.889 3.233-3.143V118.4c0-2.966-1.542-5.16-5.456-5.16zm2.372 11.8c0 .563-.237.8-.86.8h-6.581c-1.572 0-2.194-.741-2.194-1.9s.593-1.838 2.254-1.838h6.2a1.186 1.186 0 0 1 1.186 1.186z" transform="translate(-1014.074 -108.896)" style="fill:url(#ub8vc4n7kc)"/>
        <path data-name="Path 37973" d="m1590.136.585 4.432 5.326a1.625 1.625 0 0 0 2.474.029l4.7-5.385a1.626 1.626 0 0 1 1.219-.555h.023a1.623 1.623 0 0 1 1.225 2.689l-5.311 6.1a1.623 1.623 0 0 0-.013 2.115l5.457 6.427A1.623 1.623 0 0 1 1603.1 20a1.624 1.624 0 0 1-1.246-.582l-4.927-5.888a1.625 1.625 0 0 0-2.479-.016l-5.082 5.92a1.626 1.626 0 0 1-1.232.566h-.049a1.623 1.623 0 0 1-1.232-2.68l5.751-6.7a1.622 1.622 0 0 0 .006-2.107l-4.961-5.842A1.623 1.623 0 0 1 1588.888 0a1.625 1.625 0 0 1 1.247.585z" transform="translate(-1525.454)" style="fill:#fff"/>
    </g>
</svg>
