<svg data-name="Layer 2" xmlns="http://www.w3.org/2000/svg" xmlns:xlink="http://www.w3.org/1999/xlink" width="137.089" height="20" viewBox="0 0 137.089 20">
    <defs>
        <linearGradient id="molo17bo9a" x1="-.023" y1=".405" x2="3.114" y2="1.01" gradientUnits="objectBoundingBox">
            <stop offset="0" stop-color="#50ffc5"/>
            <stop offset=".06" stop-color="#4bf9c5"/>
            <stop offset=".46" stop-color="#30d6c4"/>
            <stop offset=".79" stop-color="#1fc1c3"/>
            <stop offset="1" stop-color="#19b9c3"/>
        </linearGradient>
        <linearGradient id="jb89jdv0ab" x1="-1.322" y1=".105" x2="2.179" y2=".861" xlink:href="#molo17bo9a"/>
        <linearGradient id="wbzkzulq0c" x1="-2.453" y1="-.156" x2="1.03" y2=".62" xlink:href="#molo17bo9a"/>
    </defs>
    <g data-name="Layer 2">
        <path data-name="Path 37974" d="M1558.528 19.658a1.689 1.689 0 0 1-1.583-2.278l5.133-13.8c.744-2.2 1.974-3.577 4.55-3.577 2.86 0 4.292 1.688 4.292 4.206v11.414a.981.981 0 0 0 .973 1.088 1.133 1.133 0 0 0 1.087-.8l4.693-12.331c.744-2.2 1.974-3.578 4.55-3.578 2.86 0 4.292 1.688 4.292 4.206v13.76a1.689 1.689 0 0 1-1.689 1.689h-.026a1.69 1.69 0 0 1-1.69-1.689V4.378a.99.99 0 0 0-.973-1.116 1.152 1.152 0 0 0-1.059.83l-4.693 12.331c-.743 2.2-2 3.577-4.578 3.577a3.877 3.877 0 0 1-4.264-4.234V4.378a1.011 1.011 0 0 0-1-1.116 1.153 1.153 0 0 0-1.059.83l-5.368 14.465a1.689 1.689 0 0 1-1.588 1.101z" transform="translate(-1499.013)" style="fill:#fff"/>
        <path data-name="Path 37975" d="M2478.409 122.49c3.576 0 5.093 1.717 5.093 4.635 0 2.776-1.4 4.349-5.122 4.349h-6.095a1.087 1.087 0 0 0-1.087 1.087c0 1.2.658 2.089 2.318 2.089h7.769a1.473 1.473 0 0 1 1.474 1.473 1.473 1.473 0 0 1-1.474 1.473h-7.769c-3.777 0-5.265-2.117-5.265-4.977v-5.152c0-2.86 1.488-4.977 5.265-4.977zm-7.211 5.522a1.087 1.087 0 0 0 1.087 1.087h6.009c1.631 0 2.232-.686 2.232-1.8 0-1.144-.658-1.888-2.146-1.888h-4.865c-1.66 0-2.318.916-2.318 2.089z" transform="translate(-2376.572 -117.94)" style="fill:#fff"/>
        <path data-name="Path 37976" d="M2980.7 122.49c3.576 0 5.093 1.717 5.093 4.635 0 2.776-1.4 4.349-5.122 4.349h-6.094a1.087 1.087 0 0 0-1.088 1.087c0 1.2.658 2.089 2.318 2.089h7.769a1.473 1.473 0 0 1 1.474 1.473 1.473 1.473 0 0 1-1.474 1.473h-7.769c-3.777 0-5.265-2.117-5.265-4.977v-5.152c0-2.86 1.488-4.977 5.265-4.977zm-7.21 5.522a1.087 1.087 0 0 0 1.088 1.087h6.009c1.631 0 2.232-.686 2.232-1.8 0-1.144-.658-1.888-2.146-1.888h-4.873c-1.659 0-2.317.916-2.317 2.089z" transform="translate(-2860.205 -117.94)" style="fill:#fff"/>
        <path data-name="Path 37977" d="M3442.53 29.767v-2.046a1.531 1.531 0 0 1 1.531-1.531 1.532 1.532 0 0 1 1.531 1.531v2.046h2.718a1.459 1.459 0 0 1 1.459 1.459 1.459 1.459 0 0 1-1.459 1.459h-2.718v7.153c0 1.688.6 2.261 2.031 2.261h.7a1.388 1.388 0 0 1 1.388 1.388 1.388 1.388 0 0 1-1.388 1.388h-1.331c-3.12 0-4.464-1.259-4.464-5.207v-6.984h-.6a1.459 1.459 0 0 1-1.459-1.459 1.459 1.459 0 0 1 1.459-1.459z" transform="translate(-3312.68 -25.217)" style="fill:#fff"/>
        <path data-name="Path 37978" d="M10.759 17.195H6.238c-2.261 0-2.86-1.114-2.86-2.289 0-1.345.773-2.289 2.518-2.289h8.21a1.688 1.688 0 0 0 1.688-1.688 1.688 1.688 0 0 0-1.688-1.689h-8.1C1.717 9.24 0 11.587 0 14.791c0 2.69 1.2 5.58 6.351 5.58h4.494c2.375 0 3.033 1.144 3.033 2.4 0 1.4-.83 2.4-2.661 2.4H2.032a1.688 1.688 0 0 0-1.689 1.696 1.688 1.688 0 0 0 1.689 1.688H11.1c4.407 0 6.152-2.4 6.152-5.665.002-2.776-1.228-5.695-6.493-5.695z" transform="translate(0 -8.897)" style="fill:url(#molo17bo9a)"/>
        <path data-name="Path 37979" d="M562.479 131.475c3.72 0 5.123-1.574 5.123-4.349 0-2.919-1.517-4.635-5.093-4.635h-4.894c-3.777 0-5.265 2.117-5.265 4.977v5.152c0 2.86 1.488 4.977 5.265 4.977h7.768a1.473 1.473 0 0 0 1.474-1.473 1.473 1.473 0 0 0-1.474-1.473h-7.768c-1.66 0-2.318-.887-2.318-2.089a1.087 1.087 0 0 1 1.088-1.086zM555.3 127.5c0-1.173.658-2.089 2.318-2.089h4.866c1.488 0 2.146.743 2.146 1.888 0 1.114-.6 1.8-2.232 1.8h-6.009a1.087 1.087 0 0 1-1.087-1.087z" transform="translate(-531.834 -117.94)" style="fill:url(#jb89jdv0ab)"/>
        <path data-name="Path 37980" d="M1064.616 122.49H1057a1.459 1.459 0 0 0-1.459 1.459 1.459 1.459 0 0 0 1.459 1.459h7.583c1.66 0 2.318.916 2.318 2.089a1.145 1.145 0 0 1-1.144 1.145h-6.038c-3.72 0-5.093 1.6-5.093 4.349 0 2.86 1.488 4.606 5.065 4.606h7.068c2.547 0 3.12-.858 3.12-3.033v-7.1c.002-2.856-1.486-4.974-5.263-4.974zm2.289 11.388c0 .543-.229.773-.83.773h-6.351c-1.516 0-2.117-.715-2.117-1.832s.573-1.774 2.175-1.774h5.98a1.145 1.145 0 0 1 1.144 1.144z" transform="translate(-1015.458 -117.94)" style="fill:url(#wbzkzulq0c)"/>
    </g>
</svg>
