<svg xmlns="http://www.w3.org/2000/svg" width="1298.488" height="625.448" viewBox="0 0 1298.488 625.448">
    <defs>
        <clipPath id="qj6dhm0l6a">
            <path data-name="Rectangle 1472" style="fill:#fff;stroke:#707070" d="M0 0h578v342.22H0z"/>
        </clipPath>
    </defs>
    <g data-name="Group 538">
        <g data-name="Group 534" transform="translate(720.488 283.228)" style="clip-path:url(#qj6dhm0l6a)">
            <g data-name="Group 524" transform="translate(138.863 256.987)">
                <ellipse data-name="Ellipse 48" cx="60.073" cy="59.937" rx="60.073" ry="59.937" style="fill:#414a53"/>
            </g>
            <g data-name="Group 525" transform="rotate(-157.5 210.843 10.49)">
                <ellipse data-name="Ellipse 49" cx="25.949" cy="25.907" rx="25.949" ry="25.907" style="fill:#404040"/>
            </g>
            <g data-name="Group 533">
                <path data-name="Path 37964" d="M515.72 430.3c56.974 0 103.32 46.241 103.32 103.085S572.694 636.47 515.72 636.47 412.4 590.229 412.4 533.385 458.746 430.3 515.72 430.3zm0 185.7a82.763 82.763 0 1 0-82.951-82.763A82.835 82.835 0 0 0 515.72 616z" transform="translate(34.6 -232.072)" style="fill:#262e38"/>
            </g>
        </g>
        <g data-name="Group 535">
            <path data-name="Path 37923" d="M249.955 43.6a54.93 54.93 0 1 0 55.055 54.93 54.993 54.993 0 0 0-55.055-54.93zm0 98.962a44.18 44.18 0 1 1 44.28-44.179 44.171 44.171 0 0 1-44.28 44.179z" transform="translate(-194.9 -43.6)" style="fill:#414a53"/>
        </g>
        <g data-name="Group 536">
            <g data-name="Group 434" transform="translate(211.058 420.614)">
                <ellipse data-name="Ellipse 18" cx="4.723" cy="4.712" rx="4.723" ry="4.712" style="fill:#22d5e0"/>
                <ellipse data-name="Ellipse 19" cx="4.723" cy="4.712" rx="4.723" ry="4.712" transform="translate(0 24.299)" style="fill:#22d5e0"/>
                <ellipse data-name="Ellipse 20" cx="4.723" cy="4.712" rx="4.723" ry="4.712" transform="translate(23.616)" style="fill:#22d5e0"/>
                <ellipse data-name="Ellipse 21" cx="4.723" cy="4.712" rx="4.723" ry="4.712" transform="translate(23.616 24.299)" style="fill:#22d5e0"/>
            </g>
            <g data-name="Group 435" transform="translate(163.088 420.614)">
                <ellipse data-name="Ellipse 22" cx="4.723" cy="4.712" rx="4.723" ry="4.712" style="fill:#22d5e0"/>
                <ellipse data-name="Ellipse 23" cx="4.723" cy="4.712" rx="4.723" ry="4.712" transform="translate(0 24.299)" style="fill:#22d5e0"/>
                <ellipse data-name="Ellipse 24" cx="4.723" cy="4.712" rx="4.723" ry="4.712" transform="translate(23.616)" style="fill:#22d5e0"/>
                <ellipse data-name="Ellipse 25" cx="4.723" cy="4.712" rx="4.723" ry="4.712" transform="translate(23.616 24.299)" style="fill:#22d5e0"/>
            </g>
        </g>
        <g data-name="Group 537">
            <path data-name="Line 26" style="fill:none;stroke:#777;stroke-linecap:round;stroke-miterlimit:10;stroke-width:3px" d="M43.394 0 0 43.296" transform="translate(66.716 5.164)"/>
        </g>
    </g>
</svg>
