<svg xmlns="http://www.w3.org/2000/svg" width="375" height="267" viewBox="0 0 375 267">
    <defs>
        <clipPath id="o0r6e0wf8a">
            <path data-name="Rectangle 1481" transform="translate(0 1796)" style="fill:#fff" d="M0 0h375v267H0z"/>
        </clipPath>
    </defs>
    <g data-name="Mask Group 7" transform="translate(0 -1796)" style="clip-path:url(#o0r6e0wf8a)">
        <g data-name="Group 550">
            <g data-name="Group 503" transform="translate(-14.775 1988.792)">
                <ellipse data-name="Ellipse 6" cx="28.035" cy="28.504" rx="28.035" ry="28.504" style="fill:#414a53"/>
            </g>
            <g data-name="Group 506">
                <g data-name="Group 439">
                    <g data-name="Group 437" transform="translate(-18.908 1856.773)">
                        <ellipse data-name="Ellipse 26" cx="2.204" cy="2.241" rx="2.204" ry="2.241" transform="translate(.069)" style="fill:#22d5e0"/>
                        <path data-name="Path 37929" d="M657.509 426.641a2.2 2.2 0 1 1-2.2-2.241 2.194 2.194 0 0 1 2.2 2.241z" transform="translate(-653.1 -412.844)" style="fill:#22d5e0"/>
                        <ellipse data-name="Ellipse 27" cx="2.204" cy="2.241" rx="2.204" ry="2.241" transform="translate(11.09)" style="fill:#22d5e0"/>
                        <path data-name="Path 37930" d="M673.608 426.641a2.2 2.2 0 1 1-2.2-2.241 2.194 2.194 0 0 1 2.2 2.241z" transform="translate(-658.11 -412.844)" style="fill:#22d5e0"/>
                    </g>
                    <g data-name="Group 438" transform="translate(-41.295 1856.773)">
                        <ellipse data-name="Ellipse 28" cx="2.204" cy="2.241" rx="2.204" ry="2.241" transform="translate(.069)" style="fill:#22d5e0"/>
                        <path data-name="Path 37931" d="M625.008 426.641a2.2 2.2 0 1 1-2.2-2.241 2.194 2.194 0 0 1 2.2 2.241z" transform="translate(-620.6 -412.844)" style="fill:#22d5e0"/>
                        <ellipse data-name="Ellipse 29" cx="2.204" cy="2.241" rx="2.204" ry="2.241" transform="translate(11.09)" style="fill:#22d5e0"/>
                        <path data-name="Path 37932" d="M641.109 426.641a2.2 2.2 0 1 1-2.2-2.241 2.194 2.194 0 0 1 2.2 2.241z" transform="translate(-625.61 -412.844)" style="fill:#22d5e0"/>
                    </g>
                </g>
                <g data-name="Group 442">
                    <g data-name="Group 440" transform="translate(25.866 1856.773)">
                        <ellipse data-name="Ellipse 30" cx="2.204" cy="2.241" rx="2.204" ry="2.241" style="fill:#22d5e0"/>
                        <path data-name="Path 37933" d="M722.508 426.641a2.2 2.2 0 1 1-2.2-2.241 2.194 2.194 0 0 1 2.2 2.241z" transform="translate(-718.1 -412.844)" style="fill:#22d5e0"/>
                        <path data-name="Path 37934" d="M738.509 410.141a2.2 2.2 0 1 1-2.2-2.241 2.194 2.194 0 0 1 2.2 2.241z" transform="translate(-723.079 -407.9)" style="fill:#22d5e0"/>
                        <path data-name="Path 37935" d="M738.509 426.641a2.2 2.2 0 1 1-2.2-2.241 2.194 2.194 0 0 1 2.2 2.241z" transform="translate(-723.079 -412.844)" style="fill:#22d5e0"/>
                    </g>
                    <g data-name="Group 441" transform="translate(3.479 1856.773)">
                        <ellipse data-name="Ellipse 31" cx="2.204" cy="2.241" rx="2.204" ry="2.241" style="fill:#22d5e0"/>
                        <path data-name="Path 37936" d="M690.009 426.641a2.2 2.2 0 1 1-2.2-2.241 2.195 2.195 0 0 1 2.2 2.241z" transform="translate(-685.6 -412.844)" style="fill:#22d5e0"/>
                        <ellipse data-name="Ellipse 32" cx="2.204" cy="2.241" rx="2.204" ry="2.241" transform="translate(11.09)" style="fill:#22d5e0"/>
                        <path data-name="Path 37937" d="M706.009 426.641a2.2 2.2 0 1 1-2.2-2.241 2.194 2.194 0 0 1 2.2 2.241z" transform="translate(-690.579 -412.844)" style="fill:#22d5e0"/>
                    </g>
                </g>
            </g>
            <g data-name="Group 507">
                <path data-name="Path 37938" d="M460.618 430.3c-26.589 0-48.218 21.991-48.218 49.024s21.629 49.024 48.218 49.024 48.218-21.991 48.218-49.024-21.629-49.024-48.218-49.024zm0 88.314c-21.354 0-38.712-17.579-38.712-39.36 0-21.711 17.29-39.36 38.712-39.36 21.354 0 38.712 17.579 38.712 39.36s-17.358 39.36-38.712 39.36z" transform="translate(-92.723 1487.486)" style="fill:#414a53"/>
            </g>
            <g data-name="Group 537">
                <path data-name="Line 26" style="fill:none;stroke:#777;stroke-linecap:round;stroke-miterlimit:10;stroke-width:3px" d="M43.394 0 0 43.296" transform="translate(311.606 1974)"/>
            </g>
        </g>
    </g>
</svg>
