<svg xmlns="http://www.w3.org/2000/svg" width="1366" height="272" viewBox="0 0 1366 272">
    <defs>
        <clipPath id="34wcyip26a">
            <path data-name="Rectangle 1455" transform="translate(0 4652)" style="fill:#19b9c3" d="M0 0h1366v272H0z"/>
        </clipPath>
    </defs>
    <g data-name="Mask Group 6" transform="translate(0 -4652)" style="clip-path:url(#34wcyip26a)">
        <g data-name="Group 543">
            <path data-name="Rectangle 1478" transform="translate(0 4652)" style="fill:#19b9c3" d="M0 0h1366v272H0z"/>
            <g data-name="Group 491" transform="translate(1113.131 4771.1)">
                <circle data-name="Ellipse 14" cx="4.723" cy="4.723" r="4.723" style="fill:#fff"/>
                <circle data-name="Ellipse 15" cx="4.723" cy="4.723" r="4.723" transform="translate(0 24.354)" style="fill:#fff"/>
                <circle data-name="Ellipse 16" cx="4.723" cy="4.723" r="4.723" transform="translate(23.764)" style="fill:#fff"/>
                <circle data-name="Ellipse 17" cx="4.723" cy="4.723" r="4.723" transform="translate(23.764 24.354)" style="fill:#fff"/>
            </g>
            <g data-name="Group 548" transform="translate(28.9 4673.1)">
                <circle data-name="Ellipse 14" cx="4.723" cy="4.723" r="4.723" style="fill:#fff"/>
                <circle data-name="Ellipse 15" cx="4.723" cy="4.723" r="4.723" transform="translate(0 24.354)" style="fill:#fff"/>
                <circle data-name="Ellipse 16" cx="4.723" cy="4.723" r="4.723" transform="translate(23.764)" style="fill:#fff"/>
                <circle data-name="Ellipse 17" cx="4.723" cy="4.723" r="4.723" transform="translate(23.764 24.354)" style="fill:#fff"/>
            </g>
            <g data-name="Group 486">
                <path data-name="Line 18" style="stroke:#fff;fill:none;stroke-linecap:round;stroke-miterlimit:10;stroke-width:3px" d="M0 154.118 154.118 0" transform="translate(1324.443 4669.794)"/>
            </g>
            <g data-name="Group 485">
                <path data-name="Line 19" style="stroke:#fff;fill:none;stroke-linecap:round;stroke-miterlimit:10;stroke-width:3px" d="M0 80.694 80.694 0" transform="translate(1078.042 4628.712)"/>
            </g>
            <g data-name="Group 484">
                <path data-name="Line 20" style="stroke:#fff;fill:none;stroke-linecap:round;stroke-miterlimit:10;stroke-width:3px" d="M0 118.532 118.624 0" transform="translate(62.11 4746.854)"/>
            </g>
            <g data-name="Group 483">
                <path data-name="Line 21" style="stroke:#fff;fill:none;stroke-linecap:round;stroke-miterlimit:10;stroke-width:3px" d="M0 106.33 106.238 0" transform="translate(191.1 4904.468)"/>
            </g>
            <g data-name="Group 482">
                <path data-name="Line 22" style="stroke:#fff;fill:none;stroke-linecap:round;stroke-miterlimit:10;stroke-width:3px" d="M0 106.238 106.33 0" transform="translate(3.853 4783.826)"/>
            </g>
            <g data-name="Group 479" transform="translate(1262.137 4801.255)">
                <circle data-name="Ellipse 37" cx="10.056" cy="10.056" style="fill:#50fec5" r="10.056"/>
            </g>
            <g data-name="Group 477">
                <path data-name="Path 37939" d="M30.251 500.818c1.284-.459 50.367-50 69.082-68.991a10.08 10.08 0 0 1 14.4 0 10.244 10.244 0 0 1 0 14.4l-15.408 15.417a5.1 5.1 0 0 0 0 7.248 5.1 5.1 0 0 0 7.248 0l6.422-6.422a11.075 11.075 0 0 1 15.78 0 11.075 11.075 0 0 1 0 15.78 4.762 4.762 0 0 0 0 6.7l18.073 18.073H28.6" transform="translate(72.134 4447.411)" style="fill:#22d5e0"/>
            </g>
            <g data-name="Group 476">
                <path data-name="Path 37940" d="M644.692-7.3 570.9 66.492a17.478 17.478 0 0 0 0 24.838 17.478 17.478 0 0 0 24.838 0l39.378-39.5a6.071 6.071 0 0 1 8.481 0 6.071 6.071 0 0 1 0 8.481l-13.323 13.451a9.434 9.434 0 0 0 0 13.449 9.435 9.435 0 0 0 13.449 0L679.829 51.1a25.66 25.66 0 0 1 36.228 0l.969.969L787.3-18.2c.121-.121-142.608 10.057-142.608 10.9z" transform="translate(661.576 4655.765)" style="fill:#22d5e0"/>
            </g>
            <g data-name="Group 474">
                <path data-name="Line 24" style="stroke:#50fec5;fill:none;stroke-linecap:round;stroke-miterlimit:10;stroke-width:3px" d="M0 132.752 132.752 0" transform="translate(26.605 4836.945)"/>
            </g>
            <g data-name="Group 473">
                <path data-name="Line 25" style="stroke:#50fec5;fill:none;stroke-linecap:round;stroke-miterlimit:10;stroke-width:3px" d="M142.002 0 0 141.881" transform="translate(996.259 4587.525)"/>
            </g>
        </g>
    </g>
</svg>
