<svg xmlns="http://www.w3.org/2000/svg" width="375" height="259" viewBox="0 0 375 259">
    <defs>
        <clipPath id="buqyuyc9ta">
            <path data-name="Rectangle 1455" transform="translate(495 4652)" style="fill:#19b9c3" d="M0 0h375v259H0z"/>
        </clipPath>
    </defs>
    <g data-name="Mask Group 6" transform="translate(-495 -4652)" style="clip-path:url(#buqyuyc9ta)">
        <g data-name="Group 543">
            <path data-name="Rectangle 1478" transform="translate(495 4652)" style="fill:#19b9c3" d="M0 0h375v259H0z"/>
            <g data-name="Group 557">
                <g data-name="Group 491" transform="translate(778.074 4670.904)">
                    <circle data-name="Ellipse 14" cx="1.848" cy="1.848" style="fill:#fff" r="1.848"/>
                    <circle data-name="Ellipse 15" cx="1.848" cy="1.848" transform="translate(0 9.53)" style="fill:#fff" r="1.848"/>
                    <circle data-name="Ellipse 16" cx="1.848" cy="1.848" transform="translate(9.299)" style="fill:#fff" r="1.848"/>
                    <circle data-name="Ellipse 17" cx="1.848" cy="1.848" transform="translate(9.299 9.53)" style="fill:#fff" r="1.848"/>
                </g>
                <g data-name="Group 486">
                    <path data-name="Line 18" style="stroke:#fff;fill:none;stroke-linecap:round;stroke-miterlimit:10;stroke-width:3px" d="M0 60.306 60.305 0" transform="translate(859.602 4640.751)"/>
                </g>
                <g data-name="Group 485">
                    <path data-name="Line 19" style="stroke:#fff;fill:none;stroke-linecap:round;stroke-miterlimit:10;stroke-width:3px" d="M0 31.575 31.575 0" transform="translate(746.499 4636.887)"/>
                </g>
                <g data-name="Group 479" transform="translate(838.882 4731.576)">
                    <circle data-name="Ellipse 37" cx="3.935" cy="3.935" style="fill:#50fec5" r="3.935"/>
                </g>
                <g data-name="Group 476">
                    <path data-name="Path 37940" d="m596.624-13.934-28.872 28.873a6.839 6.839 0 0 0 0 9.719 6.839 6.839 0 0 0 9.719 0L592.879 9.2a2.376 2.376 0 0 1 3.319 0 2.376 2.376 0 0 1 0 3.319l-5.215 5.263a3.692 3.692 0 0 0 0 5.263 3.692 3.692 0 0 0 5.262 0l14.128-14.127a10.041 10.041 0 0 1 14.176 0l.379.379 27.5-27.5c.045-.045-55.804 3.938-55.804 4.269z" transform="translate(250.526 4650.726)" style="fill:#22d5e0"/>
                </g>
                <g data-name="Group 473">
                    <path data-name="Line 25" style="stroke:#50fec5;fill:none;stroke-linecap:round;stroke-miterlimit:10;stroke-width:3px" d="M55.564 0 0 55.517" transform="translate(712.933 4622)"/>
                </g>
            </g>
            <g data-name="Group 558">
                <g data-name="Group 556">
                    <g data-name="Group 484">
                        <path data-name="Line 20" style="stroke:#fff;fill:none;stroke-linecap:round;stroke-miterlimit:10;stroke-width:3px" d="M0 46.381 46.417 0" transform="translate(476.588 4835.01)"/>
                    </g>
                    <g data-name="Group 483">
                        <path data-name="Line 21" style="stroke:#fff;fill:none;stroke-linecap:round;stroke-miterlimit:10;stroke-width:3px" d="M0 41.606 41.57 0" transform="translate(535.157 4892.448)"/>
                    </g>
                    <g data-name="Group 482">
                        <path data-name="Line 22" style="stroke:#fff;fill:none;stroke-linecap:round;stroke-miterlimit:10;stroke-width:3px" d="M0 41.571 41.606 0" transform="translate(463.888 4835.011)"/>
                    </g>
                    <g data-name="Group 477">
                        <path data-name="Path 37939" d="M29.246 456.98c.5-.18 19.708-19.565 27.032-27a3.944 3.944 0 0 1 5.636 0 4.009 4.009 0 0 1 0 5.636l-6.031 6.031a1.993 1.993 0 0 0 0 2.836 1.993 1.993 0 0 0 2.836 0l2.513-2.513a4.334 4.334 0 0 1 6.175 0 4.334 4.334 0 0 1 0 6.175 1.863 1.863 0 0 0 0 2.621l7.072 7.072H28.6" transform="translate(471.197 4452.591)" style="fill:#22d5e0"/>
                    </g>
                    <g data-name="Group 475">
                        <path data-name="Line 23" style="stroke:#50fec5;fill:none;stroke-linecap:round;stroke-miterlimit:10;stroke-width:3px" d="M0 51.945 51.945 0" transform="translate(572.938 4881.391)"/>
                    </g>
                    <g data-name="Group 474">
                        <path data-name="Line 24" style="stroke:#50fec5;fill:none;stroke-linecap:round;stroke-miterlimit:10;stroke-width:3px" d="M0 51.945 51.945 0" transform="translate(470.791 4866.026)"/>
                    </g>
                </g>
                <g data-name="Group 471">
                    <path data-name="Line 27" style="stroke:#50fec5;fill:none;stroke-linecap:round;stroke-miterlimit:10;stroke-width:3px" d="M0 10.123 10.123 0" transform="translate(619.821 4892.104)"/>
                </g>
            </g>
        </g>
    </g>
</svg>
